<svg width="88" height="88" viewBox="0 0 88 88" fill="none" xmlns="http://www.w3.org/2000/svg">
<path d="M11.4397 23.7598C10.9729 23.7598 10.5252 23.9452 10.1952 24.2753C9.86512 24.6053 9.67969 25.053 9.67969 25.5198C9.67969 25.9865 9.86512 26.4342 10.1952 26.7643C10.5252 27.0943 10.9729 27.2798 11.4397 27.2798C11.9065 27.2798 12.3541 27.0943 12.6842 26.7643C13.0143 26.4342 13.1997 25.9865 13.1997 25.5198C13.1997 25.053 13.0143 24.6053 12.6842 24.2753C12.3541 23.9452 11.9065 23.7598 11.4397 23.7598Z" fill="#78A0CF"/>
<path d="M67.7609 10.5586C67.5275 10.5586 67.3036 10.6513 67.1386 10.8163C66.9736 10.9814 66.8809 11.2052 66.8809 11.4386C66.8809 11.672 66.9736 11.8958 67.1386 12.0608C67.3036 12.2259 67.5275 12.3186 67.7609 12.3186C67.9943 12.3186 68.2181 12.2259 68.3831 12.0608C68.5481 11.8958 68.6409 11.672 68.6409 11.4386C68.6409 11.2052 68.5481 10.9814 68.3831 10.8163C68.2181 10.6513 67.9943 10.5586 67.7609 10.5586Z" fill="#F1BC19"/>
<path d="M43.9995 11.4414C35.364 11.4414 27.0822 14.8718 20.9761 20.978C14.8699 27.0842 11.4395 35.366 11.4395 44.0014C11.4395 52.6369 14.8699 60.9186 20.9761 67.0248C27.0822 73.131 35.364 76.5614 43.9995 76.5614C52.6349 76.5614 60.9167 73.131 67.0229 67.0248C73.129 60.9186 76.5595 52.6369 76.5595 44.0014C76.5595 35.366 73.129 27.0842 67.0229 20.978C60.9167 14.8718 52.6349 11.4414 43.9995 11.4414Z" fill="#CEE1F4"/>
<path d="M73.0395 9.67969C72.106 9.67969 71.2106 10.0505 70.5505 10.7107C69.8904 11.3708 69.5195 12.2661 69.5195 13.1997C69.5195 14.1332 69.8904 15.0286 70.5505 15.6887C71.2106 16.3488 72.106 16.7197 73.0395 16.7197C73.9731 16.7197 74.8684 16.3488 75.5286 15.6887C76.1887 15.0286 76.5595 14.1332 76.5595 13.1997C76.5595 12.2661 76.1887 11.3708 75.5286 10.7107C74.8684 10.0505 73.9731 9.67969 73.0395 9.67969Z" fill="#F1BC19"/>
<path d="M76.5608 19.3594C76.094 19.3594 75.6463 19.5448 75.3163 19.8749C74.9862 20.2049 74.8008 20.6526 74.8008 21.1194C74.8008 21.5862 74.9862 22.0338 75.3163 22.3639C75.6463 22.6939 76.094 22.8794 76.5608 22.8794C77.0276 22.8794 77.4752 22.6939 77.8053 22.3639C78.1354 22.0338 78.3208 21.5862 78.3208 21.1194C78.3208 20.6526 78.1354 20.2049 77.8053 19.8749C77.4752 19.5448 77.0276 19.3594 76.5608 19.3594Z" fill="#78A0CF"/>
<path d="M71.2797 65.1199C70.8129 65.1199 70.3652 65.3053 70.0352 65.6354C69.7051 65.9655 69.5197 66.4131 69.5197 66.8799C69.5197 67.3467 69.7051 67.7944 70.0352 68.1244C70.3652 68.4545 70.8129 68.6399 71.2797 68.6399C71.7465 68.6399 72.1941 68.4545 72.5242 68.1244C72.8543 67.7944 73.0397 67.3467 73.0397 66.8799C73.0397 66.4131 72.8543 65.9655 72.5242 65.6354C72.1941 65.3053 71.7465 65.1199 71.2797 65.1199ZM13.1997 51.9199C12.2661 51.9199 11.3708 52.2908 10.7107 52.9509C10.0505 53.611 9.67969 54.5064 9.67969 55.4399C9.67969 56.3735 10.0505 57.2688 10.7107 57.9289C11.3708 58.5891 12.2661 58.9599 13.1997 58.9599C14.1332 58.9599 15.0286 58.5891 15.6887 57.9289C16.3488 57.2688 16.7197 56.3735 16.7197 55.4399C16.7197 54.5064 16.3488 53.611 15.6887 52.9509C15.0286 52.2908 14.1332 51.9199 13.1997 51.9199Z" fill="#FBCD59"/>
<path d="M22.0002 74.8008C21.5335 74.8008 21.0858 74.9862 20.7557 75.3163C20.4257 75.6463 20.2402 76.094 20.2402 76.5608C20.2402 77.0276 20.4257 77.4752 20.7557 77.8053C21.0858 78.1354 21.5335 78.3208 22.0002 78.3208C22.467 78.3208 22.9147 78.1354 23.2447 77.8053C23.5748 77.4752 23.7602 77.0276 23.7602 76.5608C23.7602 76.094 23.5748 75.6463 23.2447 75.3163C22.9147 74.9862 22.467 74.8008 22.0002 74.8008Z" fill="#78A0CF"/>
<path d="M16.2801 44.8789C15.6966 44.8789 15.137 45.1107 14.7244 45.5233C14.3119 45.9359 14.0801 46.4954 14.0801 47.0789C14.0801 47.6624 14.3119 48.222 14.7244 48.6345C15.137 49.0471 15.6966 49.2789 16.2801 49.2789C16.8636 49.2789 17.4231 49.0471 17.8357 48.6345C18.2483 48.222 18.4801 47.6624 18.4801 47.0789C18.4801 46.4954 18.2483 45.9359 17.8357 45.5233C17.4231 45.1107 16.8636 44.8789 16.2801 44.8789Z" fill="white"/>
<path d="M18.4796 58.0801C18.2462 58.0801 18.0224 58.1728 17.8574 58.3378C17.6923 58.5029 17.5996 58.7267 17.5996 58.9601C17.5996 59.1935 17.6923 59.4173 17.8574 59.5823C18.0224 59.7474 18.2462 59.8401 18.4796 59.8401C18.713 59.8401 18.9368 59.7474 19.1019 59.5823C19.2669 59.4173 19.3596 59.1935 19.3596 58.9601C19.3596 58.7267 19.2669 58.5029 19.1019 58.3378C18.9368 58.1728 18.713 58.0801 18.4796 58.0801Z" fill="#F1BC19"/>
<path d="M70.3995 29.0391C70.1661 29.0391 69.9423 29.1318 69.7773 29.2968C69.6122 29.4618 69.5195 29.6857 69.5195 29.9191C69.5195 30.1525 69.6122 30.3763 69.7773 30.5413C69.9423 30.7063 70.1661 30.7991 70.3995 30.7991C70.6329 30.7991 70.8567 30.7063 71.0218 30.5413C71.1868 30.3763 71.2795 30.1525 71.2795 29.9191C71.2795 29.6857 71.1868 29.4618 71.0218 29.2968C70.8567 29.1318 70.6329 29.0391 70.3995 29.0391Z" fill="white"/>
<path d="M57.2006 24.6406C60.5974 24.6406 63.3606 27.4038 63.3606 30.8006V57.2006C63.3606 60.5974 60.5974 63.3606 57.2006 63.3606H30.8006C27.4038 63.3606 24.6406 60.5974 24.6406 57.2006V30.8006C24.6406 27.4038 27.4038 24.6406 30.8006 24.6406H57.2006Z" fill="#F1BC19"/>
<path d="M57.1998 24.9918C60.4021 24.9918 63.0078 27.5974 63.0078 30.7998V57.1998C63.0078 60.4021 60.4021 63.0078 57.1998 63.0078H30.7998C27.5974 63.0078 24.9918 60.4021 24.9918 57.1998V30.7998C24.9918 27.5974 27.5974 24.9918 30.7998 24.9918H57.1998ZM57.1998 23.7598H30.7998C26.9119 23.7598 23.7598 26.9119 23.7598 30.7998V57.1998C23.7598 61.0876 26.9119 64.2398 30.7998 64.2398H57.1998C61.0876 64.2398 64.2398 61.0876 64.2398 57.1998V30.7998C64.2398 26.9119 61.0876 23.7598 57.1998 23.7598Z" fill="#472B29"/>
<path d="M55.4393 60.7193H32.5593C29.6474 60.7193 27.2793 58.3512 27.2793 55.4393V32.5593C27.2793 29.6474 29.6474 27.2793 32.5593 27.2793H55.4393C58.3512 27.2793 60.7193 29.6474 60.7193 32.5593V55.4393C60.7193 58.3512 58.3512 60.7193 55.4393 60.7193Z" fill="#FDFCEE"/>
<path d="M55.4393 60.7193H32.5593C29.6474 60.7193 27.2793 58.3512 27.2793 55.4393V32.5593C27.2793 29.6474 29.6474 27.2793 32.5593 27.2793H54.2293C54.4115 27.2793 54.5593 27.4271 54.5593 27.6093C54.5593 27.7915 54.4115 27.9393 54.2293 27.9393H32.5593C30.0117 27.9393 27.9393 30.0117 27.9393 32.5593V55.4393C27.9393 57.9869 30.0117 60.0593 32.5593 60.0593H55.4393C57.9869 60.0593 60.0593 57.9869 60.0593 55.4393V42.5693C60.0593 42.3871 60.2071 42.2393 60.3893 42.2393C60.5715 42.2393 60.7193 42.3871 60.7193 42.5693V55.4393C60.7193 58.3512 58.3512 60.7193 55.4393 60.7193ZM60.3893 36.9593C60.2071 36.9593 60.0593 36.8115 60.0593 36.6293V35.5047C60.0593 35.3225 60.2071 35.1747 60.3893 35.1747C60.5715 35.1747 60.7193 35.3225 60.7193 35.5047V36.6293C60.7193 36.8115 60.5715 36.9593 60.3893 36.9593Z" fill="#472B29"/>
<path d="M60.3905 41.3598C60.2084 41.3598 60.0605 41.212 60.0605 41.0298V38.1698C60.0605 37.9877 60.2084 37.8398 60.3905 37.8398C60.5727 37.8398 60.7205 37.9877 60.7205 38.1698V41.0298C60.7205 41.212 60.5727 41.3598 60.3905 41.3598Z" fill="#472B29"/>
<path d="M50.7662 34.6504C50.4133 34.6504 50.1062 34.7551 49.8862 34.9742L37.2353 47.6357C36.8279 48.0449 35.9699 50.3126 35.3442 51.967C35.0608 52.7159 34.8188 53.3522 34.678 53.6681C34.6287 53.7781 34.6516 53.8978 34.7361 53.9831L34.8725 54.1195C34.9799 54.2278 35.1409 54.2594 35.2843 54.1952C35.6513 54.0298 36.3298 53.7719 37.1174 53.4736C38.7955 52.8365 40.8627 52.0524 41.2551 51.6599L53.9069 38.9967C54.5607 38.342 54.1911 36.9058 53.0832 35.7962C52.3467 35.0605 51.4658 34.6504 50.7662 34.6504Z" fill="#F1BC19"/>
<path d="M37.2333 47.6367C36.8259 48.0459 35.9679 50.3137 35.3422 51.9681C35.0589 52.717 34.8169 53.3532 34.6761 53.6691C34.6268 53.7791 34.6497 53.8988 34.7341 53.9842L34.8705 54.1206C34.9779 54.2288 35.139 54.2605 35.2824 54.1962C35.6494 54.0308 36.3278 53.773 37.1154 53.4746C38.7936 52.8375 40.8607 52.0534 41.2532 51.661L41.2558 51.6583L37.2333 47.6367Z" fill="#FDFCEE"/>
<path d="M35.3598 51.9219C35.3545 51.9368 35.3484 51.9527 35.3422 51.9676C35.0589 52.7165 34.8169 53.3528 34.6761 53.6687C34.6268 53.7787 34.6497 53.8984 34.7341 53.9837L34.8705 54.1201C34.9779 54.2284 35.1389 54.26 35.2824 54.1958C35.6256 54.0409 36.246 53.8042 36.9685 53.5305L35.3598 51.9219Z" fill="#4A5397"/>
<path d="M47.0938 37.8262L48.841 36.0788L52.8559 40.0936L51.1086 41.8409L47.0938 37.8262Z" fill="#7782AC"/>
<path d="M52.8322 40.0712L53.9049 38.9976C54.5588 38.3429 54.1892 36.9067 53.0812 35.797C52.3456 35.0605 51.4647 34.6504 50.7651 34.6504C50.4122 34.6504 50.1051 34.7551 49.8851 34.9742L48.8106 36.0496L52.8322 40.0712Z" fill="#FCB9B9"/>
<path d="M50.7673 34.9803C51.4027 34.9803 52.1999 35.3834 52.8476 36.031C53.9107 37.0958 54.1315 38.3041 53.6713 38.7652L41.0187 51.4284C40.6763 51.7707 38.4728 52.6067 37.0147 53.1602L36.9487 53.1849C36.1787 53.477 35.5143 53.7296 35.1033 53.8871L34.9898 53.7736C35.142 53.4269 35.3893 52.7739 35.6507 52.084C36.1963 50.6417 37.1097 48.2278 37.467 47.8697L50.1179 35.2091C50.2701 35.0569 50.4883 34.9803 50.7673 34.9803ZM50.7673 34.3203C50.3264 34.3203 49.9366 34.4567 49.6515 34.7418L37.0006 47.4033C36.5773 47.8274 35.8883 49.591 35.0338 51.8508C34.7531 52.5918 34.5146 53.2218 34.3747 53.5342C34.2699 53.7674 34.3192 54.035 34.4996 54.2162L34.6369 54.3535C34.7715 54.489 34.9493 54.5603 35.1306 54.5603C35.2274 54.5603 35.3259 54.5392 35.4183 54.4978C35.7774 54.335 36.4594 54.0772 37.2487 53.7771C39.4707 52.9341 41.0767 52.3049 41.4859 51.8948L54.1386 39.2325C54.935 38.4352 54.5733 36.8248 53.3149 35.5655C52.5079 34.7577 51.5558 34.3203 50.7673 34.3203Z" fill="#472B29"/>
<path d="M37.0781 47.7891L37.3892 47.4779L41.4116 51.5001L41.1004 51.8112L37.0781 47.7891Z" fill="#472B29"/>
<path d="M35.123 51.9961L35.4342 51.685L37.1939 53.4447L36.8828 53.7558L35.123 51.9961Z" fill="#472B29"/>
<path d="M46.9375 37.9824L47.2486 37.6713L51.2635 41.686L50.9524 41.9971L46.9375 37.9824Z" fill="#472B29"/>
<path d="M48.6836 36.2363L48.9947 35.9252L53.0096 39.9399L52.6984 40.251L48.6836 36.2363Z" fill="#472B29"/>
<path d="M48.0618 38.7634L47.8594 38.6772L48.8494 36.3672L49.0518 36.4534L48.0618 38.7634ZM48.8318 39.4234L48.6294 39.3372L49.6194 37.0272L49.8218 37.1134L48.8318 39.4234ZM49.6018 40.0834L49.3994 39.9972L50.3894 37.6872L50.5918 37.7734L49.6018 40.0834ZM50.2873 40.9397L50.0858 40.8534L51.1594 38.3472L51.3618 38.4334L50.2873 40.9397ZM51.0239 41.678L50.8215 41.5917L51.9294 39.0072L52.1318 39.0934L51.0239 41.678Z" fill="#472B29"/>
<path d="M11.4397 23.7598C10.9729 23.7598 10.5252 23.9452 10.1952 24.2753C9.86512 24.6053 9.67969 25.053 9.67969 25.5198C9.67969 25.9865 9.86512 26.4342 10.1952 26.7643C10.5252 27.0943 10.9729 27.2798 11.4397 27.2798C11.9065 27.2798 12.3541 27.0943 12.6842 26.7643C13.0143 26.4342 13.1997 25.9865 13.1997 25.5198C13.1997 25.053 13.0143 24.6053 12.6842 24.2753C12.3541 23.9452 11.9065 23.7598 11.4397 23.7598Z" fill="#9D9FCE"/>
<path d="M67.7609 10.5586C67.5275 10.5586 67.3036 10.6513 67.1386 10.8163C66.9736 10.9814 66.8809 11.2052 66.8809 11.4386C66.8809 11.672 66.9736 11.8958 67.1386 12.0608C67.3036 12.2259 67.5275 12.3186 67.7609 12.3186C67.9943 12.3186 68.2181 12.2259 68.3831 12.0608C68.5481 11.8958 68.6409 11.672 68.6409 11.4386C68.6409 11.2052 68.5481 10.9814 68.3831 10.8163C68.2181 10.6513 67.9943 10.5586 67.7609 10.5586Z" fill="#F1BC19"/>
<path d="M43.9995 11.4414C35.364 11.4414 27.0822 14.8718 20.9761 20.978C14.8699 27.0842 11.4395 35.366 11.4395 44.0014C11.4395 52.6369 14.8699 60.9186 20.9761 67.0248C27.0822 73.131 35.364 76.5614 43.9995 76.5614C52.6349 76.5614 60.9167 73.131 67.0229 67.0248C73.129 60.9186 76.5595 52.6369 76.5595 44.0014C76.5595 35.366 73.129 27.0842 67.0229 20.978C60.9167 14.8718 52.6349 11.4414 43.9995 11.4414Z" fill="#E4E4F9"/>
<path d="M73.0395 9.67969C72.106 9.67969 71.2106 10.0505 70.5505 10.7107C69.8904 11.3708 69.5195 12.2661 69.5195 13.1997C69.5195 14.1332 69.8904 15.0286 70.5505 15.6887C71.2106 16.3488 72.106 16.7197 73.0395 16.7197C73.9731 16.7197 74.8684 16.3488 75.5286 15.6887C76.1887 15.0286 76.5595 14.1332 76.5595 13.1997C76.5595 12.2661 76.1887 11.3708 75.5286 10.7107C74.8684 10.0505 73.9731 9.67969 73.0395 9.67969Z" fill="#F1BC19"/>
<path d="M76.5608 19.3594C76.094 19.3594 75.6463 19.5448 75.3163 19.8749C74.9862 20.2049 74.8008 20.6526 74.8008 21.1194C74.8008 21.5862 74.9862 22.0338 75.3163 22.3639C75.6463 22.6939 76.094 22.8794 76.5608 22.8794C77.0276 22.8794 77.4752 22.6939 77.8053 22.3639C78.1354 22.0338 78.3208 21.5862 78.3208 21.1194C78.3208 20.6526 78.1354 20.2049 77.8053 19.8749C77.4752 19.5448 77.0276 19.3594 76.5608 19.3594Z" fill="#9D9FCE"/>
<path d="M71.2797 65.1199C70.8129 65.1199 70.3652 65.3053 70.0352 65.6354C69.7051 65.9655 69.5197 66.4131 69.5197 66.8799C69.5197 67.3467 69.7051 67.7944 70.0352 68.1244C70.3652 68.4545 70.8129 68.6399 71.2797 68.6399C71.7465 68.6399 72.1941 68.4545 72.5242 68.1244C72.8543 67.7944 73.0397 67.3467 73.0397 66.8799C73.0397 66.4131 72.8543 65.9655 72.5242 65.6354C72.1941 65.3053 71.7465 65.1199 71.2797 65.1199ZM13.1997 51.9199C12.2661 51.9199 11.3708 52.2908 10.7107 52.9509C10.0505 53.611 9.67969 54.5064 9.67969 55.4399C9.67969 56.3735 10.0505 57.2688 10.7107 57.9289C11.3708 58.5891 12.2661 58.9599 13.1997 58.9599C14.1332 58.9599 15.0286 58.5891 15.6887 57.9289C16.3488 57.2688 16.7197 56.3735 16.7197 55.4399C16.7197 54.5064 16.3488 53.611 15.6887 52.9509C15.0286 52.2908 14.1332 51.9199 13.1997 51.9199Z" fill="#FBCD59"/>
<path d="M22.0002 74.8008C21.5335 74.8008 21.0858 74.9862 20.7557 75.3163C20.4257 75.6463 20.2402 76.094 20.2402 76.5608C20.2402 77.0276 20.4257 77.4752 20.7557 77.8053C21.0858 78.1354 21.5335 78.3208 22.0002 78.3208C22.467 78.3208 22.9147 78.1354 23.2447 77.8053C23.5748 77.4752 23.7602 77.0276 23.7602 76.5608C23.7602 76.094 23.5748 75.6463 23.2447 75.3163C22.9147 74.9862 22.467 74.8008 22.0002 74.8008Z" fill="#9D9FCE"/>
<path d="M16.2801 44.8789C15.6966 44.8789 15.137 45.1107 14.7244 45.5233C14.3119 45.9359 14.0801 46.4954 14.0801 47.0789C14.0801 47.6624 14.3119 48.222 14.7244 48.6345C15.137 49.0471 15.6966 49.2789 16.2801 49.2789C16.8636 49.2789 17.4231 49.0471 17.8357 48.6345C18.2483 48.222 18.4801 47.6624 18.4801 47.0789C18.4801 46.4954 18.2483 45.9359 17.8357 45.5233C17.4231 45.1107 16.8636 44.8789 16.2801 44.8789Z" fill="white"/>
<path d="M18.4796 58.0801C18.2462 58.0801 18.0224 58.1728 17.8574 58.3378C17.6923 58.5029 17.5996 58.7267 17.5996 58.9601C17.5996 59.1935 17.6923 59.4173 17.8574 59.5823C18.0224 59.7474 18.2462 59.8401 18.4796 59.8401C18.713 59.8401 18.9368 59.7474 19.1019 59.5823C19.2669 59.4173 19.3596 59.1935 19.3596 58.9601C19.3596 58.7267 19.2669 58.5029 19.1019 58.3378C18.9368 58.1728 18.713 58.0801 18.4796 58.0801Z" fill="#F1BC19"/>
<path d="M70.3995 29.0391C70.1661 29.0391 69.9423 29.1318 69.7773 29.2968C69.6122 29.4618 69.5195 29.6857 69.5195 29.9191C69.5195 30.1525 69.6122 30.3763 69.7773 30.5413C69.9423 30.7063 70.1661 30.7991 70.3995 30.7991C70.6329 30.7991 70.8567 30.7063 71.0218 30.5413C71.1868 30.3763 71.2795 30.1525 71.2795 29.9191C71.2795 29.6857 71.1868 29.4618 71.0218 29.2968C70.8567 29.1318 70.6329 29.0391 70.3995 29.0391Z" fill="white"/>
<path d="M57.2006 24.6406C60.5974 24.6406 63.3606 27.4038 63.3606 30.8006V57.2006C63.3606 60.5974 60.5974 63.3606 57.2006 63.3606H30.8006C27.4038 63.3606 24.6406 60.5974 24.6406 57.2006V30.8006C24.6406 27.4038 27.4038 24.6406 30.8006 24.6406H57.2006Z" fill="#C0D078"/>
<path d="M57.1998 24.9918C60.4021 24.9918 63.0078 27.5974 63.0078 30.7998V57.1998C63.0078 60.4021 60.4021 63.0078 57.1998 63.0078H30.7998C27.5974 63.0078 24.9918 60.4021 24.9918 57.1998V30.7998C24.9918 27.5974 27.5974 24.9918 30.7998 24.9918H57.1998ZM57.1998 23.7598H30.7998C26.9119 23.7598 23.7598 26.9119 23.7598 30.7998V57.1998C23.7598 61.0876 26.9119 64.2398 30.7998 64.2398H57.1998C61.0876 64.2398 64.2398 61.0876 64.2398 57.1998V30.7998C64.2398 26.9119 61.0876 23.7598 57.1998 23.7598Z" fill="#472B29"/>
<path d="M55.4393 60.7193H32.5593C29.6474 60.7193 27.2793 58.3512 27.2793 55.4393V32.5593C27.2793 29.6474 29.6474 27.2793 32.5593 27.2793H55.4393C58.3512 27.2793 60.7193 29.6474 60.7193 32.5593V55.4393C60.7193 58.3512 58.3512 60.7193 55.4393 60.7193Z" fill="#FDFCEE"/>
<path d="M55.4393 60.7193H32.5593C29.6474 60.7193 27.2793 58.3512 27.2793 55.4393V32.5593C27.2793 29.6474 29.6474 27.2793 32.5593 27.2793H54.2293C54.4115 27.2793 54.5593 27.4271 54.5593 27.6093C54.5593 27.7915 54.4115 27.9393 54.2293 27.9393H32.5593C30.0117 27.9393 27.9393 30.0117 27.9393 32.5593V55.4393C27.9393 57.9869 30.0117 60.0593 32.5593 60.0593H55.4393C57.9869 60.0593 60.0593 57.9869 60.0593 55.4393V42.5693C60.0593 42.3871 60.2071 42.2393 60.3893 42.2393C60.5715 42.2393 60.7193 42.3871 60.7193 42.5693V55.4393C60.7193 58.3512 58.3512 60.7193 55.4393 60.7193ZM60.3893 36.9593C60.2071 36.9593 60.0593 36.8115 60.0593 36.6293V35.5047C60.0593 35.3225 60.2071 35.1747 60.3893 35.1747C60.5715 35.1747 60.7193 35.3225 60.7193 35.5047V36.6293C60.7193 36.8115 60.5715 36.9593 60.3893 36.9593Z" fill="#472B29"/>
<path d="M60.3905 41.3598C60.2084 41.3598 60.0605 41.212 60.0605 41.0298V38.1698C60.0605 37.9877 60.2084 37.8398 60.3905 37.8398C60.5727 37.8398 60.7205 37.9877 60.7205 38.1698V41.0298C60.7205 41.212 60.5727 41.3598 60.3905 41.3598Z" fill="#472B29"/>
<path d="M47.5197 32.8887C45.5067 32.8887 43.5761 33.6883 42.1527 35.1117C40.7293 36.5351 39.9297 38.4657 39.9297 40.4787C39.9297 42.4917 40.7293 44.4222 42.1527 45.8456C43.5761 47.269 45.5067 48.0687 47.5197 48.0687C49.5327 48.0687 51.4632 47.269 52.8866 45.8456C54.31 44.4222 55.1097 42.4917 55.1097 40.4787C55.1097 38.4657 54.31 36.5351 52.8866 35.1117C51.4632 33.6883 49.5327 32.8887 47.5197 32.8887Z" fill="#E1E0D8"/>
<path d="M47.5201 34.5391C46.74 34.5391 45.9676 34.6927 45.2469 34.9912C44.5263 35.2897 43.8714 35.7273 43.3199 36.2788C42.7683 36.8304 42.3307 37.4852 42.0322 38.2059C41.7337 38.9266 41.5801 39.699 41.5801 40.4791C41.5801 41.2591 41.7337 42.0315 42.0322 42.7522C42.3307 43.4729 42.7683 44.1277 43.3199 44.6793C43.8714 45.2309 44.5263 45.6684 45.2469 45.9669C45.9676 46.2654 46.74 46.4191 47.5201 46.4191C48.3001 46.4191 49.0725 46.2654 49.7932 45.9669C50.5139 45.6684 51.1687 45.2309 51.7203 44.6793C52.2719 44.1277 52.7094 43.4729 53.0079 42.7522C53.3064 42.0315 53.4601 41.2591 53.4601 40.4791C53.4601 39.699 53.3064 38.9266 53.0079 38.2059C52.7094 37.4852 52.2719 36.8304 51.7203 36.2788C51.1687 35.7273 50.5139 35.2897 49.7932 34.9912C49.0725 34.6927 48.3001 34.5391 47.5201 34.5391Z" fill="#A8DBDB"/>
<path d="M40.5147 47.4842C39.8274 46.7969 38.7134 46.7969 38.0261 47.4842C37.5306 47.9797 33.9024 51.6079 33.4061 52.1042C32.7188 52.7915 32.7188 53.9056 33.4061 54.5929C34.0934 55.2801 35.2074 55.2801 35.8947 54.5929C36.391 54.0965 40.0193 50.4683 40.5147 49.9729C41.202 49.2856 41.202 48.1715 40.5147 47.4842Z" fill="#88AE45"/>
<path d="M40.514 49.9729C41.2013 49.2856 41.2013 48.1715 40.514 47.4842C39.8268 46.7969 38.7127 46.7969 38.0254 47.4842L40.514 49.9729Z" fill="#D1DC82"/>
<path d="M47.5196 48.3986C43.1531 48.3986 39.5996 44.8452 39.5996 40.4786C39.5996 36.112 43.1531 32.5586 47.5196 32.5586C51.8862 32.5586 55.4396 36.112 55.4396 40.4786C55.4396 44.8452 51.8862 48.3986 47.5196 48.3986ZM47.5196 33.2186C43.5165 33.2186 40.2596 36.4755 40.2596 40.4786C40.2596 44.4817 43.5165 47.7386 47.5196 47.7386C51.5227 47.7386 54.7796 44.4817 54.7796 40.4786C54.7796 36.4755 51.5227 33.2186 47.5196 33.2186Z" fill="#472B29"/>
<path d="M47.5213 46.6384C44.1245 46.6384 41.3613 43.8752 41.3613 40.4784C41.3613 37.0816 44.1245 34.3184 47.5213 34.3184C50.9181 34.3184 53.6813 37.0816 53.6813 40.4784C53.6813 43.8752 50.9181 46.6384 47.5213 46.6384ZM47.5213 34.7584C44.3674 34.7584 41.8013 37.3244 41.8013 40.4784C41.8013 43.6323 44.3674 46.1984 47.5213 46.1984C50.6752 46.1984 53.2413 43.6323 53.2413 40.4784C53.2413 37.3244 50.6752 34.7584 47.5213 34.7584Z" fill="#472B29"/>
<path d="M40.3066 47.0703L41.8187 45.5582L42.441 46.1805L40.9289 47.6926L40.3066 47.0703Z" fill="#472B29"/>
<path d="M34.6505 55.4397C34.0926 55.4397 33.5673 55.2223 33.173 54.8272C32.7779 54.433 32.5605 53.9076 32.5605 53.3497C32.5605 52.7918 32.7779 52.2664 33.173 51.8722L37.793 47.2522C38.5815 46.4628 39.9587 46.4628 40.7481 47.2522C41.1432 47.6473 41.3605 48.1718 41.3605 48.7297C41.3605 49.2876 41.1432 49.813 40.7481 50.2072L36.1281 54.8272C35.7338 55.2223 35.2085 55.4397 34.6505 55.4397ZM39.2705 47.2997C38.8886 47.2997 38.5296 47.4484 38.2594 47.7186L33.6394 52.3386C33.3693 52.6087 33.2205 52.9678 33.2205 53.3497C33.2205 53.7316 33.3693 54.0907 33.6394 54.3608C34.1797 54.9011 35.1213 54.9011 35.6617 54.3608L40.2817 49.7408C40.5518 49.4707 40.7005 49.1116 40.7005 48.7297C40.7005 48.3478 40.5518 47.9887 40.2817 47.7186C40.0115 47.4484 39.6525 47.2997 39.2705 47.2997Z" fill="#472B29"/>
<path d="M37.8809 47.8066L38.3475 47.3399L40.747 49.7393L40.2803 50.206L37.8809 47.8066Z" fill="#472B29"/>
<path d="M35.6408 52.7975C35.5941 52.7975 35.5501 52.7676 35.5361 52.721L34.8761 50.631C34.8576 50.5729 34.8901 50.5113 34.9482 50.4928C35.0081 50.4761 35.0679 50.5069 35.0864 50.565L35.7464 52.655C35.7649 52.7131 35.7323 52.7746 35.6742 52.7931C35.6628 52.7958 35.6513 52.7975 35.6408 52.7975ZM35.2008 53.6775C35.1541 53.6775 35.1101 53.6476 35.0961 53.601L34.2662 50.9733C34.2477 50.9152 34.2803 50.8536 34.3384 50.8351C34.3982 50.8175 34.4589 50.8492 34.4765 50.9073L35.3064 53.535C35.3249 53.5931 35.2923 53.6546 35.2342 53.6731C35.2228 53.6758 35.2113 53.6775 35.2008 53.6775ZM34.9333 55.1049C34.8866 55.1049 34.8426 55.075 34.8285 55.0283L33.7215 51.5215C33.703 51.4634 33.7356 51.4019 33.7937 51.3834C33.8544 51.3649 33.9133 51.3983 33.9318 51.4555L35.0389 54.9623C35.0573 55.0204 35.0248 55.082 34.9667 55.1005C34.9553 55.1031 34.9438 55.1049 34.9333 55.1049ZM34.2513 55.2175C34.2046 55.2175 34.1606 55.1876 34.1465 55.141L33.1653 52.0337C33.1469 51.9756 33.1794 51.914 33.2375 51.8955C33.2991 51.8788 33.3581 51.9105 33.3757 51.9677L34.3569 55.075C34.3753 55.1331 34.3428 55.1946 34.2847 55.2131C34.2733 55.2158 34.2618 55.2175 34.2513 55.2175Z" fill="#472B29"/>
<path d="M67.7609 10.5586C67.5275 10.5586 67.3036 10.6513 67.1386 10.8163C66.9736 10.9814 66.8809 11.2052 66.8809 11.4386C66.8809 11.672 66.9736 11.8958 67.1386 12.0608C67.3036 12.2259 67.5275 12.3186 67.7609 12.3186C67.9943 12.3186 68.2181 12.2259 68.3831 12.0608C68.5481 11.8958 68.6409 11.672 68.6409 11.4386C68.6409 11.2052 68.5481 10.9814 68.3831 10.8163C68.2181 10.6513 67.9943 10.5586 67.7609 10.5586Z" fill="#F1BC19"/>
<path d="M43.5 11C34.8805 11 26.614 14.4241 20.519 20.519C14.4241 26.614 11 34.8805 11 43.5C11 52.1195 14.4241 60.386 20.519 66.481C26.614 72.5759 34.8805 76 43.5 76C52.1195 76 60.386 72.5759 66.481 66.481C72.5759 60.386 76 52.1195 76 43.5C76 34.8805 72.5759 26.614 66.481 20.519C60.386 14.4241 52.1195 11 43.5 11Z" fill="#E6EDB7"/>
<path d="M73.0395 9.67969C72.106 9.67969 71.2106 10.0505 70.5505 10.7107C69.8904 11.3708 69.5195 12.2661 69.5195 13.1997C69.5195 14.1332 69.8904 15.0286 70.5505 15.6887C71.2106 16.3488 72.106 16.7197 73.0395 16.7197C73.9731 16.7197 74.8684 16.3488 75.5286 15.6887C76.1887 15.0286 76.5595 14.1332 76.5595 13.1997C76.5595 12.2661 76.1887 11.3708 75.5286 10.7107C74.8684 10.0505 73.9731 9.67969 73.0395 9.67969Z" fill="#F1BC19"/>
<path d="M76.5608 19.3594C76.094 19.3594 75.6463 19.5448 75.3163 19.8749C74.9862 20.2049 74.8008 20.6526 74.8008 21.1194C74.8008 21.5862 74.9862 22.0338 75.3163 22.3639C75.6463 22.6939 76.094 22.8794 76.5608 22.8794C77.0276 22.8794 77.4752 22.6939 77.8053 22.3639C78.1354 22.0338 78.3208 21.5862 78.3208 21.1194C78.3208 20.6526 78.1354 20.2049 77.8053 19.8749C77.4752 19.5448 77.0276 19.3594 76.5608 19.3594Z" fill="#88AE45"/>
<path d="M71.2797 65.1199C70.8129 65.1199 70.3652 65.3053 70.0352 65.6354C69.7051 65.9655 69.5197 66.4131 69.5197 66.8799C69.5197 67.3467 69.7051 67.7944 70.0352 68.1244C70.3652 68.4545 70.8129 68.6399 71.2797 68.6399C71.7465 68.6399 72.1941 68.4545 72.5242 68.1244C72.8543 67.7944 73.0397 67.3467 73.0397 66.8799C73.0397 66.4131 72.8543 65.9655 72.5242 65.6354C72.1941 65.3053 71.7465 65.1199 71.2797 65.1199ZM13.1997 51.9199C12.2661 51.9199 11.3708 52.2908 10.7107 52.9509C10.0505 53.611 9.67969 54.5064 9.67969 55.4399C9.67969 56.3735 10.0505 57.2688 10.7107 57.9289C11.3708 58.5891 12.2661 58.9599 13.1997 58.9599C14.1332 58.9599 15.0286 58.5891 15.6887 57.9289C16.3488 57.2688 16.7197 56.3735 16.7197 55.4399C16.7197 54.5064 16.3488 53.611 15.6887 52.9509C15.0286 52.2908 14.1332 51.9199 13.1997 51.9199Z" fill="#FBCD59"/>
<path d="M22.0002 74.8008C21.5335 74.8008 21.0858 74.9862 20.7557 75.3163C20.4257 75.6463 20.2402 76.094 20.2402 76.5608C20.2402 77.0276 20.4257 77.4752 20.7557 77.8053C21.0858 78.1354 21.5335 78.3208 22.0002 78.3208C22.467 78.3208 22.9147 78.1354 23.2447 77.8053C23.5748 77.4752 23.7602 77.0276 23.7602 76.5608C23.7602 76.094 23.5748 75.6463 23.2447 75.3163C22.9147 74.9862 22.467 74.8008 22.0002 74.8008Z" fill="#88AE45"/>
<path d="M16.2801 43.1202C15.6966 43.1202 15.137 43.3519 14.7244 43.7645C14.3119 44.1771 14.0801 44.7367 14.0801 45.3202C14.0801 45.9036 14.3119 46.4632 14.7244 46.8758C15.137 47.2884 15.6966 47.5202 16.2801 47.5202C16.8636 47.5202 17.4231 47.2884 17.8357 46.8758C18.2483 46.4632 18.4801 45.9036 18.4801 45.3202C18.4801 44.7367 18.2483 44.1771 17.8357 43.7645C17.4231 43.3519 16.8636 43.1202 16.2801 43.1202ZM69.9601 28.1602C69.61 28.1602 69.2742 28.2992 69.0267 28.5468C68.7791 28.7943 68.6401 29.1301 68.6401 29.4802C68.6401 29.8302 68.7791 30.166 69.0267 30.4135C69.2742 30.6611 69.61 30.8002 69.9601 30.8002C70.3102 30.8002 70.6459 30.6611 70.8934 30.4135C71.141 30.166 71.2801 29.8302 71.2801 29.4802C71.2801 29.1301 71.141 28.7943 70.8934 28.5468C70.6459 28.2992 70.3102 28.1602 69.9601 28.1602Z" fill="white"/>
<path d="M65.3397 34.1094V35.5499V59.1181C65.3397 61.5707 63.3764 63.5779 60.9767 63.5779H35.8025C33.4027 63.5779 31.4395 61.5707 31.4395 59.1181V35.5051V34.1094" fill="#BD977C"/>
<path d="M60.9765 64.1931H35.8024C33.0577 64.1931 30.8242 61.9156 30.8242 59.1172V34.1094H32.0562V59.1181C32.0562 61.2371 33.7361 62.961 35.8024 62.961H60.9765C63.0428 62.961 64.7236 61.2371 64.7236 59.1181V34.1094H65.9556V59.1181C65.9556 61.9156 63.7221 64.1931 60.9765 64.1931Z" fill="#472B29"/>
<path d="M56.1152 42.4141V48.0619L58.1093 46.4013L60.1034 48.0619V42.4141H56.1152Z" fill="#EE3E54"/>
<path d="M60.7195 48.9546L58.1059 46.9544L55.4395 48.9397V42.2402H60.7195V48.9546ZM56.3195 43.1202V47.1867L58.1129 45.85L59.8395 47.1718V43.1202H56.3195Z" fill="#472B29"/>
<path d="M33.7032 42.5032C31.9564 42.5032 30.5352 40.8778 30.5352 38.8811V30.5352H67.1432V38.8802C67.1432 40.8778 65.7228 42.5023 63.9752 42.5023H33.7032V42.5032Z" fill="#F6CCA4"/>
<path d="M66.528 31.152V38.881C66.528 40.5389 65.3831 41.888 63.976 41.888H33.704C32.2969 41.888 31.152 40.5389 31.152 38.881V31.152H66.528ZM67.5382 29.92H30.2825C30.0828 29.92 29.92 30.103 29.92 30.3257V38.881C29.92 41.213 31.6228 43.12 33.704 43.12H63.976C66.0572 43.12 67.76 41.213 67.76 38.881V30.1673C67.76 30.0309 67.6605 29.92 67.5382 29.92Z" fill="#472B29"/>
<path d="M58.1114 46.531C57.9944 46.531 57.8984 46.4351 57.8984 46.318V42.7989C57.8984 42.6819 57.9944 42.5859 58.1114 42.5859C58.2284 42.5859 58.3244 42.6819 58.3244 42.7989V46.318C58.3244 46.4351 58.2284 46.531 58.1114 46.531Z" fill="#472B29"/>
<path d="M59.8474 46.6772C59.821 46.6772 59.7937 46.6675 59.7717 46.6499L58.1604 45.3C58.1102 45.2587 58.1032 45.1839 58.1454 45.1337C58.1859 45.0827 58.2616 45.0783 58.3118 45.1187L59.923 46.4687C59.9732 46.51 59.9802 46.5848 59.938 46.635C59.9151 46.6614 59.8817 46.6772 59.8474 46.6772ZM59.8474 45.4663C59.821 45.4663 59.7937 45.4567 59.7717 45.4391L58.1604 44.0891C58.1102 44.0478 58.1032 43.973 58.1454 43.9228C58.1859 43.8727 58.2616 43.8674 58.3118 43.9079L59.923 45.2578C59.9732 45.2991 59.9802 45.3739 59.938 45.4241C59.9151 45.4523 59.8817 45.4663 59.8474 45.4663ZM59.1258 60.7194H37.6758C35.8251 60.7194 34.3203 59.2146 34.3203 57.3648V41.7994C34.3203 41.5565 34.5174 41.3594 34.7603 41.3594C35.0032 41.3594 35.2003 41.5565 35.2003 41.7994V57.3648C35.2003 58.7288 36.3109 59.8394 37.6758 59.8394H59.1258C60.4898 59.8394 61.6003 58.7288 61.6003 57.3648V49.7194C61.6003 49.4765 61.7974 49.2794 62.0403 49.2794C62.2832 49.2794 62.4803 49.4765 62.4803 49.7194V57.3648C62.4803 59.2146 60.9755 60.7194 59.1258 60.7194ZM60.0524 44.5256C60.026 44.5256 59.9987 44.5159 59.9767 44.4983L58.3654 43.1484C58.3153 43.1071 58.3082 43.0323 58.3505 42.9821C58.3918 42.9319 58.4666 42.9249 58.5168 42.9671L60.1281 44.3171C60.1782 44.3584 60.1853 44.4332 60.143 44.4834C60.1202 44.5107 60.0858 44.5256 60.0524 44.5256Z" fill="#472B29"/>
<path d="M44.8077 33.4633C44.8104 36.4509 42.9659 39.2775 39.7953 41.1439C39.7953 42.757 40.2652 44.5434 40.853 45.6812C41.0616 46.0842 40.7351 46.5542 40.2837 46.5058C37.3577 46.1837 34.5857 44.7387 33.1117 43.2955H31.4405C24.0582 43.2955 18.0742 38.8938 18.0742 33.4642C18.0742 28.0346 24.0582 23.6328 31.4405 23.6328C38.8229 23.6328 44.8077 28.0337 44.8077 33.4633Z" fill="#FDFCEF"/>
<path d="M40.3458 46.9824C40.3071 46.9824 40.2693 46.9807 40.2314 46.9772C37.1866 46.6419 34.4041 45.1476 32.9204 43.7687H31.4394C23.808 43.7678 17.5996 39.1452 17.5996 33.463C17.5996 27.7808 23.808 23.1582 31.4394 23.1582C39.0707 23.1582 45.2791 27.7808 45.2791 33.463C45.2809 36.5632 43.4602 39.4461 40.271 41.4085C40.3212 42.9661 40.799 44.5475 41.2725 45.4644C41.4485 45.8059 41.423 46.2142 41.2065 46.5301C41.0102 46.8161 40.6873 46.9824 40.3458 46.9824ZM31.4394 24.106C24.3298 24.106 18.5456 28.3044 18.5456 33.4648C18.5456 38.6251 24.3298 42.8236 31.4394 42.8236H33.1105C33.2346 42.8236 33.3525 42.872 33.4414 42.9591C34.7684 44.2606 37.4146 45.717 40.3335 46.0373C40.3854 46.0417 40.4101 46.0171 40.425 45.9968C40.4462 45.9669 40.4479 45.9344 40.4303 45.9009C39.7554 44.595 39.3198 42.7285 39.3198 41.1463C39.3198 40.9791 39.4086 40.8233 39.553 40.7388C42.5925 38.9489 44.3349 36.2984 44.3322 33.4656C44.3331 28.3044 38.5489 24.106 31.4394 24.106ZM45.2791 33.4639H45.2888H45.2791Z" fill="#472B29"/>
<path d="M24.0577 35.2637C23.3881 35.2637 22.7251 35.3956 22.1065 35.6518C21.4879 35.908 20.9258 36.2836 20.4524 36.7571C19.9789 37.2305 19.6033 37.7926 19.3471 38.4112C19.0909 39.0298 18.959 39.6928 18.959 40.3624C18.959 41.032 19.0909 41.695 19.3471 42.3136C19.6033 42.9322 19.9789 43.4943 20.4524 43.9677C20.9258 44.4412 21.4879 44.8168 22.1065 45.073C22.7251 45.3292 23.3881 45.4611 24.0577 45.4611C24.7273 45.4611 25.3903 45.3292 26.0089 45.073C26.6275 44.8168 27.1896 44.4412 27.663 43.9677C28.1365 43.4943 28.5121 42.9322 28.7683 42.3136C29.0245 41.695 29.1564 41.032 29.1564 40.3624C29.1564 39.6928 29.0245 39.0298 28.7683 38.4112C28.5121 37.7926 28.1365 37.2305 27.663 36.7571C27.1896 36.2836 26.6275 35.908 26.0089 35.6518C25.3903 35.3956 24.7273 35.2637 24.0577 35.2637Z" fill="#F4989E"/>
<path d="M24.0565 45.9364C20.9845 45.9364 18.4844 43.4363 18.4844 40.3642C18.4844 37.2922 20.9845 34.793 24.0565 34.793C27.1286 34.793 29.6278 37.293 29.6278 40.3642C29.6278 43.4363 27.1277 45.9364 24.0565 45.9364ZM24.0565 35.7381C21.5054 35.7381 19.4304 37.8131 19.4304 40.3634C19.4304 42.9145 21.5054 44.9895 24.0565 44.9895C26.6068 44.9895 28.6818 42.9145 28.6818 40.3634C28.6818 37.8131 26.6068 35.7381 24.0565 35.7381Z" fill="#472B29"/>
<path d="M24.0583 39.4997C25.0835 38.0362 26.517 38.7024 26.517 40.1042C26.517 41.389 24.8037 42.4838 24.0583 42.8982C23.3138 42.4838 21.5996 41.389 21.5996 40.1042C21.5996 38.7015 23.0322 38.0354 24.0583 39.4997Z" fill="#EE3E54"/>
<path d="M24.0575 43.2532C23.9977 43.2532 23.9387 43.2382 23.8841 43.2083C22.8985 42.6583 21.2441 41.524 21.2441 40.1036C21.2441 39.2712 21.6771 38.5971 22.3468 38.3859C22.9285 38.2028 23.5462 38.4079 24.0575 38.9403C24.5679 38.4088 25.1848 38.2028 25.7673 38.3859C26.437 38.5971 26.87 39.2712 26.87 40.1045C26.87 41.5248 25.2156 42.6592 24.23 43.2092C24.1763 43.2391 24.1165 43.2532 24.0575 43.2532ZM22.7657 39.0309C22.6953 39.0309 22.6275 39.0415 22.5606 39.0617C22.1928 39.1779 21.9543 39.5871 21.9543 40.1036C21.9543 41.1297 23.3949 42.0986 24.0575 42.4893C24.7201 42.0986 26.1598 41.1297 26.1598 40.1036C26.1598 39.5871 25.9222 39.1779 25.5535 39.0617C25.1628 38.9403 24.714 39.1788 24.3479 39.7024C24.2141 39.8924 23.8991 39.8924 23.7671 39.7024C23.4626 39.2694 23.1018 39.0309 22.7657 39.0309Z" fill="#472B29"/>
<path d="M47.9595 60.5C47.7167 60.5 47.5195 60.3029 47.5195 60.06V50.5455C47.5195 50.3026 47.7167 50.1055 47.9595 50.1055C48.2024 50.1055 48.3995 50.3026 48.3995 50.5455V60.06C48.3995 60.3029 48.2024 60.5 47.9595 60.5Z" fill="#472B29"/>
<path d="M47.9615 45.3195C47.7186 45.3195 47.5215 45.1224 47.5215 44.8795V42.4595C47.5215 42.2167 47.7186 42.0195 47.9615 42.0195C48.2044 42.0195 48.4015 42.2167 48.4015 42.4595V44.8795C48.4015 45.1224 48.2044 45.3195 47.9615 45.3195Z" fill="#472B29"/>
<path d="M62.2056 47.5187C61.9627 47.5187 61.7656 47.3216 61.7656 47.0787V44.6587C61.7656 44.4159 61.9627 44.2188 62.2056 44.2188C62.4485 44.2188 62.6456 44.4159 62.6456 44.6587V47.0787C62.6456 47.3216 62.4485 47.5187 62.2056 47.5187Z" fill="#472B29"/>
<path d="M51.9393 50.7113H43.3214C42.4854 50.7113 41.8008 49.9078 41.8008 48.924C41.8008 47.941 42.4845 47.1367 43.3214 47.1367H51.9393C52.7753 47.1367 53.4599 47.9402 53.4599 48.924C53.4599 49.9061 52.7753 50.7113 51.9393 50.7113Z" fill="#FDFCEE"/>
<path d="M51.7715 51.0406H43.5594C42.3459 51.0406 41.3594 50.0541 41.3594 48.8406C41.3594 47.6271 42.3459 46.6406 43.5594 46.6406H51.7715C52.9851 46.6406 53.9715 47.6271 53.9715 48.8406C53.9715 50.0541 52.9851 51.0406 51.7715 51.0406ZM43.5594 47.5206C42.8316 47.5206 42.2394 48.1129 42.2394 48.8406C42.2394 49.5684 42.8316 50.1606 43.5594 50.1606H51.7715C52.4993 50.1606 53.0915 49.5684 53.0915 48.8406C53.0915 48.1129 52.4993 47.5206 51.7715 47.5206H43.5594Z" fill="#472B29"/>
<path d="M38.2805 29.6998H24.2005C24.079 29.6998 23.9805 29.6012 23.9805 29.4798C23.9805 29.3583 24.079 29.2598 24.2005 29.2598H38.2805C38.4019 29.2598 38.5005 29.3583 38.5005 29.4798C38.5005 29.6012 38.4019 29.6998 38.2805 29.6998Z" fill="#472B29"/>
<path d="M28.6007 32.3404H22.4407C22.3193 32.3404 22.2207 32.2418 22.2207 32.1204C22.2207 31.9989 22.3193 31.9004 22.4407 31.9004H28.6007C28.7221 31.9004 28.8207 31.9989 28.8207 32.1204C28.8207 32.2418 28.7221 32.3404 28.6007 32.3404Z" fill="#472B29"/>
<path d="M40.0395 32.3404H31.2395C31.1181 32.3404 31.0195 32.2418 31.0195 32.1204C31.0195 31.9989 31.1181 31.9004 31.2395 31.9004H40.0395C40.161 31.9004 40.2595 31.9989 40.2595 32.1204C40.2595 32.2418 40.161 32.3404 40.0395 32.3404Z" fill="#472B29"/>
<path d="M39.1606 34.9791H30.3606C30.2392 34.9791 30.1406 34.8805 30.1406 34.7591C30.1406 34.6376 30.2392 34.5391 30.3606 34.5391H39.1606C39.2821 34.5391 39.3806 34.6376 39.3806 34.7591C39.3806 34.8805 39.2821 34.9791 39.1606 34.9791Z" fill="#472B29"/>
<path d="M37.3995 37.6197H31.2395C31.1181 37.6197 31.0195 37.5211 31.0195 37.3997C31.0195 37.2782 31.1181 37.1797 31.2395 37.1797H37.3995C37.521 37.1797 37.6195 37.2782 37.6195 37.3997C37.6195 37.5211 37.521 37.6197 37.3995 37.6197Z" fill="#472B29"/>
</svg>
