<svg width="88" height="88" viewBox="0 0 88 88" fill="none" xmlns="http://www.w3.org/2000/svg">
<path d="M11.4397 23.7598C10.9729 23.7598 10.5252 23.9452 10.1952 24.2753C9.86512 24.6053 9.67969 25.053 9.67969 25.5198C9.67969 25.9865 9.86512 26.4342 10.1952 26.7643C10.5252 27.0943 10.9729 27.2798 11.4397 27.2798C11.9065 27.2798 12.3541 27.0943 12.6842 26.7643C13.0143 26.4342 13.1997 25.9865 13.1997 25.5198C13.1997 25.053 13.0143 24.6053 12.6842 24.2753C12.3541 23.9452 11.9065 23.7598 11.4397 23.7598Z" fill="#EE3E54"/>
<path d="M67.7609 10.5586C67.5275 10.5586 67.3036 10.6513 67.1386 10.8163C66.9736 10.9814 66.8809 11.2052 66.8809 11.4386C66.8809 11.672 66.9736 11.8958 67.1386 12.0608C67.3036 12.2259 67.5275 12.3186 67.7609 12.3186C67.9943 12.3186 68.2181 12.2259 68.3831 12.0608C68.5481 11.8958 68.6409 11.672 68.6409 11.4386C68.6409 11.2052 68.5481 10.9814 68.3831 10.8163C68.2181 10.6513 67.9943 10.5586 67.7609 10.5586Z" fill="#F1BC19"/>
<path d="M43.5 11C34.8805 11 26.614 14.4241 20.519 20.519C14.4241 26.614 11 34.8805 11 43.5C11 52.1195 14.4241 60.386 20.519 66.481C26.614 72.5759 34.8805 76 43.5 76C52.1195 76 60.386 72.5759 66.481 66.481C72.5759 60.386 76 52.1195 76 43.5C76 34.8805 72.5759 26.614 66.481 20.519C60.386 14.4241 52.1195 11 43.5 11Z" fill="#E4E4F9"/>
<path d="M73.0395 9.67969C72.106 9.67969 71.2106 10.0505 70.5505 10.7107C69.8904 11.3708 69.5195 12.2661 69.5195 13.1997C69.5195 14.1332 69.8904 15.0286 70.5505 15.6887C71.2106 16.3488 72.106 16.7197 73.0395 16.7197C73.9731 16.7197 74.8684 16.3488 75.5286 15.6887C76.1887 15.0286 76.5595 14.1332 76.5595 13.1997C76.5595 12.2661 76.1887 11.3708 75.5286 10.7107C74.8684 10.0505 73.9731 9.67969 73.0395 9.67969Z" fill="#F1BC19"/>
<path d="M76.5608 19.3594C76.094 19.3594 75.6463 19.5448 75.3163 19.8749C74.9862 20.2049 74.8008 20.6526 74.8008 21.1194C74.8008 21.5862 74.9862 22.0338 75.3163 22.3639C75.6463 22.6939 76.094 22.8794 76.5608 22.8794C77.0276 22.8794 77.4752 22.6939 77.8053 22.3639C78.1354 22.0338 78.3208 21.5862 78.3208 21.1194C78.3208 20.6526 78.1354 20.2049 77.8053 19.8749C77.4752 19.5448 77.0276 19.3594 76.5608 19.3594Z" fill="#EE3E54"/>
<path d="M71.2797 65.1199C70.8129 65.1199 70.3652 65.3053 70.0352 65.6354C69.7051 65.9655 69.5197 66.4131 69.5197 66.8799C69.5197 67.3467 69.7051 67.7944 70.0352 68.1244C70.3652 68.4545 70.8129 68.6399 71.2797 68.6399C71.7465 68.6399 72.1941 68.4545 72.5242 68.1244C72.8543 67.7944 73.0397 67.3467 73.0397 66.8799C73.0397 66.4131 72.8543 65.9655 72.5242 65.6354C72.1941 65.3053 71.7465 65.1199 71.2797 65.1199ZM13.1997 51.9199C12.2661 51.9199 11.3708 52.2908 10.7107 52.9509C10.0505 53.611 9.67969 54.5064 9.67969 55.4399C9.67969 56.3735 10.0505 57.2688 10.7107 57.9289C11.3708 58.5891 12.2661 58.9599 13.1997 58.9599C14.1332 58.9599 15.0286 58.5891 15.6887 57.9289C16.3488 57.2688 16.7197 56.3735 16.7197 55.4399C16.7197 54.5064 16.3488 53.611 15.6887 52.9509C15.0286 52.2908 14.1332 51.9199 13.1997 51.9199Z" fill="#FBCD59"/>
<path d="M22.0002 74.8008C21.5335 74.8008 21.0858 74.9862 20.7557 75.3163C20.4257 75.6463 20.2402 76.094 20.2402 76.5608C20.2402 77.0276 20.4257 77.4752 20.7557 77.8053C21.0858 78.1354 21.5335 78.3208 22.0002 78.3208C22.467 78.3208 22.9147 78.1354 23.2447 77.8053C23.5748 77.4752 23.7602 77.0276 23.7602 76.5608C23.7602 76.094 23.5748 75.6463 23.2447 75.3163C22.9147 74.9862 22.467 74.8008 22.0002 74.8008Z" fill="#EE3E54"/>
<path d="M16.2801 44.8789C15.6966 44.8789 15.137 45.1107 14.7244 45.5233C14.3119 45.9359 14.0801 46.4954 14.0801 47.0789C14.0801 47.6624 14.3119 48.222 14.7244 48.6345C15.137 49.0471 15.6966 49.2789 16.2801 49.2789C16.8636 49.2789 17.4231 49.0471 17.8357 48.6345C18.2483 48.222 18.4801 47.6624 18.4801 47.0789C18.4801 46.4954 18.2483 45.9359 17.8357 45.5233C17.4231 45.1107 16.8636 44.8789 16.2801 44.8789Z" fill="white"/>
<path d="M18.4796 58.0801C18.2462 58.0801 18.0224 58.1728 17.8574 58.3378C17.6923 58.5029 17.5996 58.7267 17.5996 58.9601C17.5996 59.1935 17.6923 59.4173 17.8574 59.5823C18.0224 59.7474 18.2462 59.8401 18.4796 59.8401C18.713 59.8401 18.9368 59.7474 19.1019 59.5823C19.2669 59.4173 19.3596 59.1935 19.3596 58.9601C19.3596 58.7267 19.2669 58.5029 19.1019 58.3378C18.9368 58.1728 18.713 58.0801 18.4796 58.0801Z" fill="#F1BC19"/>
<path d="M70.3995 29.0391C70.1661 29.0391 69.9423 29.1318 69.7773 29.2968C69.6122 29.4618 69.5195 29.6857 69.5195 29.9191C69.5195 30.1525 69.6122 30.3763 69.7773 30.5413C69.9423 30.7063 70.1661 30.7991 70.3995 30.7991C70.6329 30.7991 70.8567 30.7063 71.0218 30.5413C71.1868 30.3763 71.2795 30.1525 71.2795 29.9191C71.2795 29.6857 71.1868 29.4618 71.0218 29.2968C70.8567 29.1318 70.6329 29.0391 70.3995 29.0391Z" fill="white"/>
<path d="M63.713 38.7208V56.6728C63.713 60.4568 60.6329 63.5368 56.8489 63.5368H31.241C27.457 63.5368 24.377 60.4568 24.377 56.6728V31.3288C24.377 27.5448 27.457 24.4648 31.241 24.4648H56.8489C60.0169 24.4648 62.6569 26.5768 63.5369 29.5688" fill="#A1D3A2"/>
<path d="M56.7598 64.2397H31.2398C27.1038 64.2397 23.7598 60.8957 23.7598 56.7597V31.3277C23.7598 27.1917 27.1038 23.8477 31.2398 23.8477H56.8478C60.1918 23.8477 63.1838 26.1357 64.0638 29.3917C64.1518 29.7437 63.9758 30.0957 63.6238 30.1837C63.2718 30.2717 62.9198 30.0957 62.8318 29.7437C62.0398 27.0157 59.5758 25.1677 56.7598 25.1677H31.2398C27.8078 25.1677 24.9918 27.9837 24.9918 31.4157V56.7597C24.9918 60.1917 27.8078 63.0077 31.2398 63.0077H56.8478C60.2798 63.0077 63.0958 60.1917 63.0958 56.7597V38.7197C63.0958 38.3677 63.3598 38.1037 63.7118 38.1037C64.0638 38.1037 64.3278 38.3677 64.3278 38.7197V56.6717C64.3278 60.8077 60.8958 64.2397 56.7598 64.2397Z" fill="#472B29"/>
<path d="M60.2798 52.2706C60.0158 52.2706 59.8398 52.0946 59.8398 51.8306V48.3986C59.8398 48.1346 60.0158 47.9586 60.2798 47.9586C60.5438 47.9586 60.7198 48.1346 60.7198 48.3986V51.8306C60.7198 52.0946 60.5438 52.2706 60.2798 52.2706ZM60.2798 46.1986C60.0158 46.1986 59.8398 46.0226 59.8398 45.7586V43.9986C59.8398 43.7346 60.0158 43.5586 60.2798 43.5586C60.5438 43.5586 60.7198 43.7346 60.7198 43.9986V45.7586C60.7198 46.0226 60.5438 46.1986 60.2798 46.1986Z" fill="#472B29"/>
<path d="M56.3193 60.7213H31.6793C29.2153 60.7213 27.2793 58.7853 27.2793 56.3213V31.6813C27.2793 29.2173 29.2153 27.2812 31.6793 27.2812H54.0313C54.2953 27.2812 54.4713 27.4572 54.4713 27.7213C54.4713 27.9853 54.2953 28.1613 54.0313 28.1613H31.6793C29.7433 28.1613 28.1593 29.7453 28.1593 31.6813V56.3213C28.1593 58.2573 29.7433 59.8413 31.6793 59.8413H56.3193C58.2553 59.8413 59.8393 58.2573 59.8393 56.3213V54.2092C59.8393 53.9452 60.0153 53.7693 60.2793 53.7693C60.5433 53.7693 60.7193 53.9452 60.7193 54.2092V56.3213C60.7193 58.7853 58.7833 60.7213 56.3193 60.7213Z" fill="#472B29"/>
<path d="M43.5598 55.0001H43.4718C43.3838 55.0001 43.3838 55.0001 43.2958 55.0001C42.9438 55.0001 42.5918 54.9121 42.4158 54.6481L35.1118 47.4321C34.8478 47.1681 34.7598 46.9041 34.7598 46.5521C34.7598 46.2001 34.9358 45.8481 35.1118 45.6721C35.3758 45.4081 35.6398 45.3201 35.9918 45.3201C36.3438 45.3201 36.6958 45.4961 36.8718 45.6721L43.1198 52.1841L64.2398 31.6801C64.5038 31.4161 64.7678 31.3281 65.1198 31.3281C65.4718 31.3281 65.8238 31.5041 65.9998 31.6801C66.2638 31.9441 66.3518 32.2081 66.3518 32.5601C66.3518 32.9121 66.1758 33.2641 65.9998 33.4401L44.5278 54.6481C44.4398 54.7361 44.3518 54.8241 44.1758 54.9121C44.1758 54.9121 44.0878 54.9121 44.0878 55.0001C43.9998 55.0001 43.9118 55.0881 43.8238 55.0881C43.7358 55.0001 43.7358 55.0001 43.5598 55.0001Z" fill="#00AC9C"/>
<path d="M65.2963 31.6808C65.5603 31.6808 65.7363 31.7688 65.9123 31.9448C66.2643 32.2968 66.2643 32.8248 65.9123 33.1768L44.2643 54.2968C44.1763 54.3848 44.0883 54.3848 44.0003 54.4728H43.9123C43.8243 54.4728 43.8243 54.4728 43.7363 54.4728H43.6483C43.5603 54.4728 43.5603 54.4728 43.5603 54.4728C43.4723 54.4728 43.4723 54.4728 43.3843 54.4728C43.2083 54.4728 42.9443 54.3848 42.7683 54.2088L35.4643 46.9928C35.1123 46.6408 35.1123 46.1128 35.4643 45.7608C35.6403 45.5848 35.8163 45.4968 36.0803 45.4968C36.3443 45.4968 36.5203 45.5848 36.6963 45.7608L43.2963 52.6248L64.7683 31.8568C64.8563 31.7688 65.0323 31.6808 65.2963 31.6808ZM65.2963 30.8008C64.8563 30.8008 64.4163 30.9768 64.0643 31.3288L43.2963 51.4808L37.3123 45.2328C36.9603 44.8808 36.5203 44.7048 36.0803 44.7048C35.6403 44.7048 35.2003 44.8808 34.8483 45.2328C34.4963 45.5848 34.3203 46.0248 34.3203 46.4648C34.3203 46.9048 34.4963 47.3448 34.8483 47.6968L42.1523 54.9128C42.5043 55.2648 42.8563 55.4408 43.3843 55.4408H43.4723C43.5603 55.4408 43.5603 55.4408 43.6483 55.4408C43.7363 55.4408 43.9123 55.4408 43.9123 55.4408C44.0003 55.4408 44.0883 55.4408 44.1763 55.3528C44.2643 55.3528 44.3523 55.2648 44.3523 55.2648C44.5283 55.1768 44.7043 55.0888 44.7923 54.9128L66.4403 33.7928C66.7923 33.4408 66.9683 33.0008 66.9683 32.5608C66.9683 32.1208 66.7923 31.6808 66.4403 31.3288C66.1763 30.9768 65.7363 30.8008 65.2963 30.8008Z" fill="#472B29"/>
</svg>
