<svg width="88" height="88" viewBox="0 0 88 88" fill="none" xmlns="http://www.w3.org/2000/svg">
<path d="M11.4397 23.7598C10.9729 23.7598 10.5252 23.9452 10.1952 24.2753C9.86512 24.6053 9.67969 25.053 9.67969 25.5198C9.67969 25.9865 9.86512 26.4342 10.1952 26.7643C10.5252 27.0943 10.9729 27.2798 11.4397 27.2798C11.9065 27.2798 12.3541 27.0943 12.6842 26.7643C13.0143 26.4342 13.1997 25.9865 13.1997 25.5198C13.1997 25.053 13.0143 24.6053 12.6842 24.2753C12.3541 23.9452 11.9065 23.7598 11.4397 23.7598Z" fill="#78A0CF"/>
<path d="M67.7609 10.5586C67.5275 10.5586 67.3036 10.6513 67.1386 10.8163C66.9736 10.9814 66.8809 11.2052 66.8809 11.4386C66.8809 11.672 66.9736 11.8958 67.1386 12.0608C67.3036 12.2259 67.5275 12.3186 67.7609 12.3186C67.9943 12.3186 68.2181 12.2259 68.3831 12.0608C68.5481 11.8958 68.6409 11.672 68.6409 11.4386C68.6409 11.2052 68.5481 10.9814 68.3831 10.8163C68.2181 10.6513 67.9943 10.5586 67.7609 10.5586Z" fill="#F1BC19"/>
<path d="M43.9995 11.4414C35.364 11.4414 27.0822 14.8718 20.9761 20.978C14.8699 27.0842 11.4395 35.366 11.4395 44.0014C11.4395 52.6369 14.8699 60.9186 20.9761 67.0248C27.0822 73.131 35.364 76.5614 43.9995 76.5614C52.6349 76.5614 60.9167 73.131 67.0229 67.0248C73.129 60.9186 76.5595 52.6369 76.5595 44.0014C76.5595 35.366 73.129 27.0842 67.0229 20.978C60.9167 14.8718 52.6349 11.4414 43.9995 11.4414Z" fill="#CEE1F4"/>
<path d="M73.0395 9.67969C72.106 9.67969 71.2106 10.0505 70.5505 10.7107C69.8904 11.3708 69.5195 12.2661 69.5195 13.1997C69.5195 14.1332 69.8904 15.0286 70.5505 15.6887C71.2106 16.3488 72.106 16.7197 73.0395 16.7197C73.9731 16.7197 74.8684 16.3488 75.5286 15.6887C76.1887 15.0286 76.5595 14.1332 76.5595 13.1997C76.5595 12.2661 76.1887 11.3708 75.5286 10.7107C74.8684 10.0505 73.9731 9.67969 73.0395 9.67969Z" fill="#F1BC19"/>
<path d="M76.5608 19.3594C76.094 19.3594 75.6463 19.5448 75.3163 19.8749C74.9862 20.2049 74.8008 20.6526 74.8008 21.1194C74.8008 21.5862 74.9862 22.0338 75.3163 22.3639C75.6463 22.6939 76.094 22.8794 76.5608 22.8794C77.0276 22.8794 77.4752 22.6939 77.8053 22.3639C78.1354 22.0338 78.3208 21.5862 78.3208 21.1194C78.3208 20.6526 78.1354 20.2049 77.8053 19.8749C77.4752 19.5448 77.0276 19.3594 76.5608 19.3594Z" fill="#78A0CF"/>
<path d="M71.2797 65.1199C70.8129 65.1199 70.3652 65.3053 70.0352 65.6354C69.7051 65.9655 69.5197 66.4131 69.5197 66.8799C69.5197 67.3467 69.7051 67.7944 70.0352 68.1244C70.3652 68.4545 70.8129 68.6399 71.2797 68.6399C71.7465 68.6399 72.1941 68.4545 72.5242 68.1244C72.8543 67.7944 73.0397 67.3467 73.0397 66.8799C73.0397 66.4131 72.8543 65.9655 72.5242 65.6354C72.1941 65.3053 71.7465 65.1199 71.2797 65.1199ZM13.1997 51.9199C12.2661 51.9199 11.3708 52.2908 10.7107 52.9509C10.0505 53.611 9.67969 54.5064 9.67969 55.4399C9.67969 56.3735 10.0505 57.2688 10.7107 57.9289C11.3708 58.5891 12.2661 58.9599 13.1997 58.9599C14.1332 58.9599 15.0286 58.5891 15.6887 57.9289C16.3488 57.2688 16.7197 56.3735 16.7197 55.4399C16.7197 54.5064 16.3488 53.611 15.6887 52.9509C15.0286 52.2908 14.1332 51.9199 13.1997 51.9199Z" fill="#FBCD59"/>
<path d="M22.0002 74.8008C21.5335 74.8008 21.0858 74.9862 20.7557 75.3163C20.4257 75.6463 20.2402 76.094 20.2402 76.5608C20.2402 77.0276 20.4257 77.4752 20.7557 77.8053C21.0858 78.1354 21.5335 78.3208 22.0002 78.3208C22.467 78.3208 22.9147 78.1354 23.2447 77.8053C23.5748 77.4752 23.7602 77.0276 23.7602 76.5608C23.7602 76.094 23.5748 75.6463 23.2447 75.3163C22.9147 74.9862 22.467 74.8008 22.0002 74.8008Z" fill="#78A0CF"/>
<path d="M16.2801 44.8789C15.6966 44.8789 15.137 45.1107 14.7244 45.5233C14.3119 45.9359 14.0801 46.4954 14.0801 47.0789C14.0801 47.6624 14.3119 48.222 14.7244 48.6345C15.137 49.0471 15.6966 49.2789 16.2801 49.2789C16.8636 49.2789 17.4231 49.0471 17.8357 48.6345C18.2483 48.222 18.4801 47.6624 18.4801 47.0789C18.4801 46.4954 18.2483 45.9359 17.8357 45.5233C17.4231 45.1107 16.8636 44.8789 16.2801 44.8789Z" fill="white"/>
<path d="M18.4796 58.0801C18.2462 58.0801 18.0224 58.1728 17.8574 58.3378C17.6923 58.5029 17.5996 58.7267 17.5996 58.9601C17.5996 59.1935 17.6923 59.4173 17.8574 59.5823C18.0224 59.7474 18.2462 59.8401 18.4796 59.8401C18.713 59.8401 18.9368 59.7474 19.1019 59.5823C19.2669 59.4173 19.3596 59.1935 19.3596 58.9601C19.3596 58.7267 19.2669 58.5029 19.1019 58.3378C18.9368 58.1728 18.713 58.0801 18.4796 58.0801Z" fill="#F1BC19"/>
<path d="M70.3995 29.0391C70.1661 29.0391 69.9423 29.1318 69.7773 29.2968C69.6122 29.4618 69.5195 29.6857 69.5195 29.9191C69.5195 30.1525 69.6122 30.3763 69.7773 30.5413C69.9423 30.7063 70.1661 30.7991 70.3995 30.7991C70.6329 30.7991 70.8567 30.7063 71.0218 30.5413C71.1868 30.3763 71.2795 30.1525 71.2795 29.9191C71.2795 29.6857 71.1868 29.4618 71.0218 29.2968C70.8567 29.1318 70.6329 29.0391 70.3995 29.0391Z" fill="white"/>
<path d="M57.2006 24.6406C60.5974 24.6406 63.3606 27.4038 63.3606 30.8006V57.2006C63.3606 60.5974 60.5974 63.3606 57.2006 63.3606H30.8006C27.4038 63.3606 24.6406 60.5974 24.6406 57.2006V30.8006C24.6406 27.4038 27.4038 24.6406 30.8006 24.6406H57.2006Z" fill="#F1BC19"/>
<path d="M57.1998 24.9918C60.4021 24.9918 63.0078 27.5974 63.0078 30.7998V57.1998C63.0078 60.4021 60.4021 63.0078 57.1998 63.0078H30.7998C27.5974 63.0078 24.9918 60.4021 24.9918 57.1998V30.7998C24.9918 27.5974 27.5974 24.9918 30.7998 24.9918H57.1998ZM57.1998 23.7598H30.7998C26.9119 23.7598 23.7598 26.9119 23.7598 30.7998V57.1998C23.7598 61.0876 26.9119 64.2398 30.7998 64.2398H57.1998C61.0876 64.2398 64.2398 61.0876 64.2398 57.1998V30.7998C64.2398 26.9119 61.0876 23.7598 57.1998 23.7598Z" fill="#472B29"/>
<path d="M55.4393 60.7193H32.5593C29.6474 60.7193 27.2793 58.3512 27.2793 55.4393V32.5593C27.2793 29.6474 29.6474 27.2793 32.5593 27.2793H55.4393C58.3512 27.2793 60.7193 29.6474 60.7193 32.5593V55.4393C60.7193 58.3512 58.3512 60.7193 55.4393 60.7193Z" fill="#FDFCEE"/>
<path d="M55.4393 60.7193H32.5593C29.6474 60.7193 27.2793 58.3512 27.2793 55.4393V32.5593C27.2793 29.6474 29.6474 27.2793 32.5593 27.2793H54.2293C54.4115 27.2793 54.5593 27.4271 54.5593 27.6093C54.5593 27.7915 54.4115 27.9393 54.2293 27.9393H32.5593C30.0117 27.9393 27.9393 30.0117 27.9393 32.5593V55.4393C27.9393 57.9869 30.0117 60.0593 32.5593 60.0593H55.4393C57.9869 60.0593 60.0593 57.9869 60.0593 55.4393V42.5693C60.0593 42.3871 60.2071 42.2393 60.3893 42.2393C60.5715 42.2393 60.7193 42.3871 60.7193 42.5693V55.4393C60.7193 58.3512 58.3512 60.7193 55.4393 60.7193ZM60.3893 36.9593C60.2071 36.9593 60.0593 36.8115 60.0593 36.6293V35.5047C60.0593 35.3225 60.2071 35.1747 60.3893 35.1747C60.5715 35.1747 60.7193 35.3225 60.7193 35.5047V36.6293C60.7193 36.8115 60.5715 36.9593 60.3893 36.9593Z" fill="#472B29"/>
<path d="M60.3905 41.3598C60.2084 41.3598 60.0605 41.212 60.0605 41.0298V38.1698C60.0605 37.9877 60.2084 37.8398 60.3905 37.8398C60.5727 37.8398 60.7205 37.9877 60.7205 38.1698V41.0298C60.7205 41.212 60.5727 41.3598 60.3905 41.3598Z" fill="#472B29"/>
<path d="M50.7662 34.6504C50.4133 34.6504 50.1062 34.7551 49.8862 34.9742L37.2353 47.6357C36.8279 48.0449 35.9699 50.3126 35.3442 51.967C35.0608 52.7159 34.8188 53.3522 34.678 53.6681C34.6287 53.7781 34.6516 53.8978 34.7361 53.9831L34.8725 54.1195C34.9799 54.2278 35.1409 54.2594 35.2843 54.1952C35.6513 54.0298 36.3298 53.7719 37.1174 53.4736C38.7955 52.8365 40.8627 52.0524 41.2551 51.6599L53.9069 38.9967C54.5607 38.342 54.1911 36.9058 53.0832 35.7962C52.3467 35.0605 51.4658 34.6504 50.7662 34.6504Z" fill="#F1BC19"/>
<path d="M37.2333 47.6367C36.8259 48.0459 35.9679 50.3137 35.3422 51.9681C35.0589 52.717 34.8169 53.3532 34.6761 53.6691C34.6268 53.7791 34.6497 53.8988 34.7341 53.9842L34.8705 54.1206C34.9779 54.2288 35.139 54.2605 35.2824 54.1962C35.6494 54.0308 36.3278 53.773 37.1154 53.4746C38.7936 52.8375 40.8607 52.0534 41.2532 51.661L41.2558 51.6583L37.2333 47.6367Z" fill="#FDFCEE"/>
<path d="M35.3598 51.9219C35.3545 51.9368 35.3484 51.9527 35.3422 51.9676C35.0589 52.7165 34.8169 53.3528 34.6761 53.6687C34.6268 53.7787 34.6497 53.8984 34.7341 53.9837L34.8705 54.1201C34.9779 54.2284 35.1389 54.26 35.2824 54.1958C35.6256 54.0409 36.246 53.8042 36.9685 53.5305L35.3598 51.9219Z" fill="#4A5397"/>
<path d="M47.0938 37.8262L48.841 36.0788L52.8559 40.0936L51.1086 41.8409L47.0938 37.8262Z" fill="#7782AC"/>
<path d="M52.8322 40.0712L53.9049 38.9976C54.5588 38.3429 54.1892 36.9067 53.0812 35.797C52.3456 35.0605 51.4647 34.6504 50.7651 34.6504C50.4122 34.6504 50.1051 34.7551 49.8851 34.9742L48.8106 36.0496L52.8322 40.0712Z" fill="#FCB9B9"/>
<path d="M50.7673 34.9803C51.4027 34.9803 52.1999 35.3834 52.8476 36.031C53.9107 37.0958 54.1315 38.3041 53.6713 38.7652L41.0187 51.4284C40.6763 51.7707 38.4728 52.6067 37.0147 53.1602L36.9487 53.1849C36.1787 53.477 35.5143 53.7296 35.1033 53.8871L34.9898 53.7736C35.142 53.4269 35.3893 52.7739 35.6507 52.084C36.1963 50.6417 37.1097 48.2278 37.467 47.8697L50.1179 35.2091C50.2701 35.0569 50.4883 34.9803 50.7673 34.9803ZM50.7673 34.3203C50.3264 34.3203 49.9366 34.4567 49.6515 34.7418L37.0006 47.4033C36.5773 47.8274 35.8883 49.591 35.0338 51.8508C34.7531 52.5918 34.5146 53.2218 34.3747 53.5342C34.2699 53.7674 34.3192 54.035 34.4996 54.2162L34.6369 54.3535C34.7715 54.489 34.9493 54.5603 35.1306 54.5603C35.2274 54.5603 35.3259 54.5392 35.4183 54.4978C35.7774 54.335 36.4594 54.0772 37.2487 53.7771C39.4707 52.9341 41.0767 52.3049 41.4859 51.8948L54.1386 39.2325C54.935 38.4352 54.5733 36.8248 53.3149 35.5655C52.5079 34.7577 51.5558 34.3203 50.7673 34.3203Z" fill="#472B29"/>
<path d="M37.0781 47.7891L37.3892 47.4779L41.4116 51.5001L41.1004 51.8112L37.0781 47.7891Z" fill="#472B29"/>
<path d="M35.123 51.9961L35.4342 51.685L37.1939 53.4447L36.8828 53.7558L35.123 51.9961Z" fill="#472B29"/>
<path d="M46.9375 37.9824L47.2486 37.6713L51.2635 41.686L50.9524 41.9971L46.9375 37.9824Z" fill="#472B29"/>
<path d="M48.6836 36.2363L48.9947 35.9252L53.0096 39.9399L52.6984 40.251L48.6836 36.2363Z" fill="#472B29"/>
<path d="M48.0618 38.7634L47.8594 38.6772L48.8494 36.3672L49.0518 36.4534L48.0618 38.7634ZM48.8318 39.4234L48.6294 39.3372L49.6194 37.0272L49.8218 37.1134L48.8318 39.4234ZM49.6018 40.0834L49.3994 39.9972L50.3894 37.6872L50.5918 37.7734L49.6018 40.0834ZM50.2873 40.9397L50.0858 40.8534L51.1594 38.3472L51.3618 38.4334L50.2873 40.9397ZM51.0239 41.678L50.8215 41.5917L51.9294 39.0072L52.1318 39.0934L51.0239 41.678Z" fill="#472B29"/>
</svg>
