<svg width="102" height="181" viewBox="0 0 102 181" fill="none" xmlns="http://www.w3.org/2000/svg">
<g clip-path="url(#clip0_88_30859)" filter="url(#filter0_ddd_88_30859)">
<path d="M18.4399 28.76C17.9732 28.76 17.5255 28.9454 17.1954 29.2755C16.8654 29.6056 16.6799 30.0532 16.6799 30.52C16.6799 30.9868 16.8654 31.4345 17.1954 31.7645C17.5255 32.0946 17.9732 32.28 18.4399 32.28C18.9067 32.28 19.3544 32.0946 19.6844 31.7645C20.0145 31.4345 20.1999 30.9868 20.1999 30.52C20.1999 30.0532 20.0145 29.6056 19.6844 29.2755C19.3544 28.9454 18.9067 28.76 18.4399 28.76Z" fill="#F1BC19"/>
<path d="M74.7599 15.56C74.5265 15.56 74.3027 15.6527 74.1376 15.8177C73.9726 15.9828 73.8799 16.2066 73.8799 16.44C73.8799 16.6734 73.9726 16.8972 74.1376 17.0623C74.3027 17.2273 74.5265 17.32 74.7599 17.32C74.9933 17.32 75.2171 17.2273 75.3821 17.0623C75.5472 16.8972 75.6399 16.6734 75.6399 16.44C75.6399 16.2066 75.5472 15.9828 75.3821 15.8177C75.2171 15.6527 74.9933 15.56 74.7599 15.56Z" fill="#F1BC19"/>
<path d="M50.9999 16.44C42.3645 16.44 34.0827 19.8704 27.9765 25.9766C21.8704 32.0828 18.4399 40.3646 18.4399 49C18.4399 57.6354 21.8704 65.9172 27.9765 72.0234C34.0827 78.1296 42.3645 81.56 50.9999 81.56C59.6354 81.56 67.9171 78.1296 74.0233 72.0234C80.1295 65.9172 83.5599 57.6354 83.5599 49C83.5599 40.3646 80.1295 32.0828 74.0233 25.9766C67.9171 19.8704 59.6354 16.44 50.9999 16.44Z" fill="#FCE0A2"/>
<path d="M80.04 14.68C79.1065 14.68 78.2111 15.0508 77.551 15.711C76.8909 16.3711 76.52 17.2664 76.52 18.2C76.52 19.1336 76.8909 20.0289 77.551 20.689C78.2111 21.3491 79.1065 21.72 80.04 21.72C80.9736 21.72 81.8689 21.3491 82.529 20.689C83.1892 20.0289 83.56 19.1336 83.56 18.2C83.56 17.2664 83.1892 16.3711 82.529 15.711C81.8689 15.0508 80.9736 14.68 80.04 14.68Z" fill="#F1BC19"/>
<path d="M83.56 24.36C83.0933 24.36 82.6456 24.5454 82.3155 24.8755C81.9855 25.2055 81.8 25.6532 81.8 26.12C81.8 26.5868 81.9855 27.0344 82.3155 27.3645C82.6456 27.6946 83.0933 27.88 83.56 27.88C84.0268 27.88 84.4745 27.6946 84.8046 27.3645C85.1346 27.0344 85.32 26.5868 85.32 26.12C85.32 25.6532 85.1346 25.2055 84.8046 24.8755C84.4745 24.5454 84.0268 24.36 83.56 24.36Z" fill="#F1BC19"/>
<path d="M78.2799 70.12C77.8131 70.12 77.3655 70.3054 77.0354 70.6355C76.7054 70.9655 76.5199 71.4132 76.5199 71.88C76.5199 72.3468 76.7054 72.7944 77.0354 73.1245C77.3655 73.4546 77.8131 73.64 78.2799 73.64C78.7467 73.64 79.1944 73.4546 79.5244 73.1245C79.8545 72.7944 80.0399 72.3468 80.0399 71.88C80.0399 71.4132 79.8545 70.9655 79.5244 70.6355C79.1944 70.3054 78.7467 70.12 78.2799 70.12ZM20.1999 56.92C19.2664 56.92 18.371 57.2908 17.7109 57.951C17.0508 58.6111 16.6799 59.5064 16.6799 60.44C16.6799 61.3735 17.0508 62.2689 17.7109 62.929C18.371 63.5891 19.2664 63.96 20.1999 63.96C21.1335 63.96 22.0288 63.5891 22.6889 62.929C23.3491 62.2689 23.7199 61.3735 23.7199 60.44C23.7199 59.5064 23.3491 58.6111 22.6889 57.951C22.0288 57.2908 21.1335 56.92 20.1999 56.92Z" fill="#FBCD59"/>
<path d="M29 79.8C28.5332 79.8 28.0855 79.9854 27.7555 80.3155C27.4254 80.6455 27.24 81.0932 27.24 81.56C27.24 82.0268 27.4254 82.4744 27.7555 82.8045C28.0855 83.1346 28.5332 83.32 29 83.32C29.4668 83.32 29.9144 83.1346 30.2445 82.8045C30.5746 82.4744 30.76 82.0268 30.76 81.56C30.76 81.0932 30.5746 80.6455 30.2445 80.3155C29.9144 79.9854 29.4668 79.8 29 79.8Z" fill="#F1BC19"/>
<path d="M23.2801 49.88C22.6966 49.88 22.137 50.1118 21.7244 50.5244C21.3119 50.9369 21.0801 51.4965 21.0801 52.08C21.0801 52.6635 21.3119 53.2231 21.7244 53.6356C22.137 54.0482 22.6966 54.28 23.2801 54.28C23.8636 54.28 24.4231 54.0482 24.8357 53.6356C25.2483 53.2231 25.4801 52.6635 25.4801 52.08C25.4801 51.4965 25.2483 50.9369 24.8357 50.5244C24.4231 50.1118 23.8636 49.88 23.2801 49.88Z" fill="white"/>
<path d="M25.4801 63.08C25.2467 63.08 25.0229 63.1727 24.8578 63.3378C24.6928 63.5028 24.6001 63.7266 24.6001 63.96C24.6001 64.1934 24.6928 64.4172 24.8578 64.5823C25.0229 64.7473 25.2467 64.84 25.4801 64.84C25.7135 64.84 25.9373 64.7473 26.1024 64.5823C26.2674 64.4172 26.3601 64.1934 26.3601 63.96C26.3601 63.7266 26.2674 63.5028 26.1024 63.3378C25.9373 63.1727 25.7135 63.08 25.4801 63.08Z" fill="#F1BC19"/>
<path d="M77.4 34.04C77.1666 34.04 76.9428 34.1327 76.7778 34.2977C76.6127 34.4628 76.52 34.6866 76.52 34.92C76.52 35.1534 76.6127 35.3772 76.7778 35.5422C76.9428 35.7073 77.1666 35.8 77.4 35.8C77.6334 35.8 77.8572 35.7073 78.0223 35.5422C78.1873 35.3772 78.28 35.1534 78.28 34.92C78.28 34.6866 78.1873 34.4628 78.0223 34.2977C77.8572 34.1327 77.6334 34.04 77.4 34.04Z" fill="white"/>
<path d="M63.7753 68.2283H39.5585C38.1761 68.2283 37.0505 67.1037 37.0505 65.7203C37.0505 64.337 38.1752 63.2123 39.5585 63.2123H63.7858L63.469 63.5767C62.9463 64.1786 62.6585 64.9389 62.6585 65.7203C62.6585 66.5009 62.9437 67.263 63.462 67.8649L63.7753 68.2283Z" fill="#E1E0D8"/>
<path d="M37.0505 63.5459V32.2803C37.0505 30.897 38.1752 29.7723 39.5585 29.7723H62.4385C63.821 29.7723 64.9465 30.897 64.9465 32.2803V62.4203H39.5585C38.7709 62.4203 38.03 62.701 37.414 63.2317L37.0505 63.5459Z" fill="#BD977C"/>
<path d="M44.8385 29.7723H39.5585C38.1761 29.7723 37.0505 30.897 37.0505 32.2803V63.5459L37.414 63.2326C38.0291 62.701 38.7709 62.4212 39.5585 62.4212H44.8385V29.7723Z" fill="#9F8066"/>
<path d="M65.6072 63.4593C65.814 63.4267 65.96 63.2393 65.96 63.0307V32.28C65.96 30.3361 64.384 28.76 62.44 28.76H39.56C37.6161 28.76 36.04 30.3361 36.04 32.28V65.72C36.04 66.2058 36.1386 66.6687 36.3164 67.0902C36.4941 67.5117 36.752 67.891 37.0705 68.2087C37.2298 68.3679 37.404 68.5123 37.5915 68.6381C37.9664 68.8915 38.3914 69.0737 38.8499 69.1679C39.0796 69.2154 39.3172 69.24 39.56 69.24C39.6366 69.24 65.2868 69.24 65.344 69.24C65.6837 69.24 65.9592 68.9646 65.96 68.6249C65.96 68.6249 65.96 68.6249 65.96 68.624C65.96 68.6231 65.96 68.624 65.96 68.624C65.96 68.6214 65.9583 68.6187 65.9583 68.6161C65.9539 68.2861 65.7172 68.0195 65.396 67.9376C64.4068 67.6859 63.672 66.7875 63.672 65.72C63.672 64.5787 64.5124 63.6291 65.6072 63.4593ZM39.56 29.992H62.44C63.7037 29.992 64.728 31.0163 64.728 32.28V62.2C64.728 62.2 41.3464 62.2 39.56 62.2C38.6818 62.2 37.8889 62.5335 37.272 63.0651V32.28C37.272 31.0163 38.2964 29.992 39.56 29.992ZM39.56 68.008C38.2981 68.008 37.272 66.9819 37.272 65.72C37.272 64.4581 38.2981 63.432 39.56 63.432H63.3051C62.7709 64.0463 62.44 64.8409 62.44 65.72C62.44 66.5965 62.7665 67.392 63.2972 68.008H39.56Z" fill="#472B29"/>
<path d="M44.5099 53.4C44.3278 53.4 44.1799 53.2522 44.1799 53.07V44.05C44.1799 43.8679 44.3278 43.72 44.5099 43.72C44.6921 43.72 44.8399 43.8679 44.8399 44.05V53.07C44.8399 53.2522 44.6921 53.4 44.5099 53.4ZM44.5099 57.8C44.3278 57.8 44.1799 57.6522 44.1799 57.47V56.37C44.1799 56.1879 44.3278 56.04 44.5099 56.04C44.6921 56.04 44.8399 56.1879 44.8399 56.37V57.47C44.8399 57.6522 44.6921 57.8 44.5099 57.8ZM44.5099 60.44C44.3278 60.44 44.1799 60.2922 44.1799 60.11V59.01C44.1799 58.8279 44.3278 58.68 44.5099 58.68C44.6921 58.68 44.8399 58.8279 44.8399 59.01V60.11C44.8399 60.2922 44.6921 60.44 44.5099 60.44ZM62.9899 65.72H40.7699C40.5878 65.72 40.4399 65.5722 40.4399 65.39C40.4399 65.2079 40.5878 65.06 40.7699 65.06H62.9899C63.1721 65.06 63.3199 65.2079 63.3199 65.39C63.3199 65.5722 63.1721 65.72 62.9899 65.72ZM62.9899 67.26H49.5699C49.3878 67.26 49.2399 67.1122 49.2399 66.93C49.2399 66.7479 49.3878 66.6 49.5699 66.6H62.9899C63.1721 66.6 63.3199 66.7479 63.3199 66.93C63.3199 67.1122 63.1721 67.26 62.9899 67.26ZM48.0299 67.26H46.9299C46.7478 67.26 46.5999 67.1122 46.5999 66.93C46.5999 66.7479 46.7478 66.6 46.9299 66.6H48.0299C48.2121 66.6 48.3599 66.7479 48.3599 66.93C48.3599 67.1122 48.2121 67.26 48.0299 67.26Z" fill="#472B29"/>
<path d="M40.6599 28.1H49.8999V46.14L45.2799 44.05L40.6599 46.14V28.1Z" fill="#EE3E54"/>
<path d="M49.7899 46.36C49.7451 46.36 49.6993 46.3512 49.6579 46.3318L45.2799 44.4108L40.9019 46.3327C40.8007 46.3776 40.6819 46.3679 40.5895 46.3072C40.4954 46.2456 40.4399 46.1409 40.4399 46.03V28.21C40.4399 28.0278 40.5878 27.88 40.7699 27.88H49.7899C49.9721 27.88 50.1199 28.0278 50.1199 28.21V46.03C50.1199 46.1409 50.0645 46.2456 49.9703 46.3063C49.9167 46.3415 49.8524 46.36 49.7899 46.36ZM45.2799 43.72C45.3257 43.72 45.3706 43.7297 45.4119 43.7482L49.4599 45.5249V28.54H41.0999V45.5249L45.1479 43.7482C45.1893 43.7297 45.2342 43.72 45.2799 43.72Z" fill="#472B29"/>
</g>
<circle cx="51" cy="99" r="2" fill="#222222"/>
<circle cx="51" cy="119" r="2" fill="#222222"/>
<circle cx="51" cy="139" r="2" fill="#222222"/>
<circle cx="51" cy="159" r="2" fill="#222222"/>
<circle cx="51" cy="179" r="2" fill="#222222"/>
<defs>
<filter id="filter0_ddd_88_30859" x="-9" y="-9" width="120" height="120" filterUnits="userSpaceOnUse" color-interpolation-filters="sRGB">
<feFlood flood-opacity="0" result="BackgroundImageFix"/>
<feColorMatrix in="SourceAlpha" type="matrix" values="0 0 0 0 0 0 0 0 0 0 0 0 0 0 0 0 0 0 127 0" result="hardAlpha"/>
<feMorphology radius="1" operator="dilate" in="SourceAlpha" result="effect1_dropShadow_88_30859"/>
<feOffset dy="2"/>
<feGaussianBlur stdDeviation="7.5"/>
<feColorMatrix type="matrix" values="0 0 0 0 0.564706 0 0 0 0 0.643137 0 0 0 0 0.682353 0 0 0 0.11 0"/>
<feBlend mode="normal" in2="BackgroundImageFix" result="effect1_dropShadow_88_30859"/>
<feColorMatrix in="SourceAlpha" type="matrix" values="0 0 0 0 0 0 0 0 0 0 0 0 0 0 0 0 0 0 127 0" result="hardAlpha"/>
<feMorphology radius="1" operator="dilate" in="SourceAlpha" result="effect2_dropShadow_88_30859"/>
<feOffset dy="7"/>
<feGaussianBlur stdDeviation="5"/>
<feColorMatrix type="matrix" values="0 0 0 0 0.564706 0 0 0 0 0.643137 0 0 0 0 0.682353 0 0 0 0.14 0"/>
<feBlend mode="normal" in2="effect1_dropShadow_88_30859" result="effect2_dropShadow_88_30859"/>
<feColorMatrix in="SourceAlpha" type="matrix" values="0 0 0 0 0 0 0 0 0 0 0 0 0 0 0 0 0 0 127 0" result="hardAlpha"/>
<feMorphology radius="2" operator="erode" in="SourceAlpha" result="effect3_dropShadow_88_30859"/>
<feOffset dy="4"/>
<feGaussianBlur stdDeviation="2.5"/>
<feColorMatrix type="matrix" values="0 0 0 0 0.564706 0 0 0 0 0.643137 0 0 0 0 0.682353 0 0 0 0.25 0"/>
<feBlend mode="normal" in2="effect2_dropShadow_88_30859" result="effect3_dropShadow_88_30859"/>
<feBlend mode="normal" in="SourceGraphic" in2="effect3_dropShadow_88_30859" result="shape"/>
</filter>
<clipPath id="clip0_88_30859">
<rect width="88" height="88" fill="white" transform="translate(7 5)"/>
</clipPath>
</defs>
</svg>
