<svg width="88" height="176" viewBox="0 0 88 176" fill="none" xmlns="http://www.w3.org/2000/svg">
<path d="M11.4397 23.7598C10.9729 23.7598 10.5252 23.9452 10.1952 24.2753C9.86512 24.6053 9.67969 25.053 9.67969 25.5198C9.67969 25.9865 9.86512 26.4342 10.1952 26.7643C10.5252 27.0943 10.9729 27.2798 11.4397 27.2798C11.9065 27.2798 12.3541 27.0943 12.6842 26.7643C13.0143 26.4342 13.1997 25.9865 13.1997 25.5198C13.1997 25.053 13.0143 24.6053 12.6842 24.2753C12.3541 23.9452 11.9065 23.7598 11.4397 23.7598Z" fill="#78A0CF"/>
<path d="M67.7609 10.5586C67.5275 10.5586 67.3036 10.6513 67.1386 10.8163C66.9736 10.9814 66.8809 11.2052 66.8809 11.4386C66.8809 11.672 66.9736 11.8958 67.1386 12.0608C67.3036 12.2259 67.5275 12.3186 67.7609 12.3186C67.9943 12.3186 68.2181 12.2259 68.3831 12.0608C68.5481 11.8958 68.6409 11.672 68.6409 11.4386C68.6409 11.2052 68.5481 10.9814 68.3831 10.8163C68.2181 10.6513 67.9943 10.5586 67.7609 10.5586Z" fill="#F1BC19"/>
<path d="M43.9995 11.4414C35.364 11.4414 27.0822 14.8718 20.9761 20.978C14.8699 27.0842 11.4395 35.366 11.4395 44.0014C11.4395 52.6369 14.8699 60.9186 20.9761 67.0248C27.0822 73.131 35.364 76.5614 43.9995 76.5614C52.6349 76.5614 60.9167 73.131 67.0229 67.0248C73.129 60.9186 76.5595 52.6369 76.5595 44.0014C76.5595 35.366 73.129 27.0842 67.0229 20.978C60.9167 14.8718 52.6349 11.4414 43.9995 11.4414Z" fill="#CEE1F4"/>
<path d="M73.0395 9.67969C72.106 9.67969 71.2106 10.0505 70.5505 10.7107C69.8904 11.3708 69.5195 12.2661 69.5195 13.1997C69.5195 14.1332 69.8904 15.0286 70.5505 15.6887C71.2106 16.3488 72.106 16.7197 73.0395 16.7197C73.9731 16.7197 74.8684 16.3488 75.5286 15.6887C76.1887 15.0286 76.5595 14.1332 76.5595 13.1997C76.5595 12.2661 76.1887 11.3708 75.5286 10.7107C74.8684 10.0505 73.9731 9.67969 73.0395 9.67969Z" fill="#F1BC19"/>
<path d="M76.5608 19.3594C76.094 19.3594 75.6463 19.5448 75.3163 19.8749C74.9862 20.2049 74.8008 20.6526 74.8008 21.1194C74.8008 21.5862 74.9862 22.0338 75.3163 22.3639C75.6463 22.6939 76.094 22.8794 76.5608 22.8794C77.0276 22.8794 77.4752 22.6939 77.8053 22.3639C78.1354 22.0338 78.3208 21.5862 78.3208 21.1194C78.3208 20.6526 78.1354 20.2049 77.8053 19.8749C77.4752 19.5448 77.0276 19.3594 76.5608 19.3594Z" fill="#78A0CF"/>
<path d="M71.2797 65.1199C70.8129 65.1199 70.3652 65.3053 70.0352 65.6354C69.7051 65.9655 69.5197 66.4131 69.5197 66.8799C69.5197 67.3467 69.7051 67.7944 70.0352 68.1244C70.3652 68.4545 70.8129 68.6399 71.2797 68.6399C71.7465 68.6399 72.1941 68.4545 72.5242 68.1244C72.8543 67.7944 73.0397 67.3467 73.0397 66.8799C73.0397 66.4131 72.8543 65.9655 72.5242 65.6354C72.1941 65.3053 71.7465 65.1199 71.2797 65.1199ZM13.1997 51.9199C12.2661 51.9199 11.3708 52.2908 10.7107 52.9509C10.0505 53.611 9.67969 54.5064 9.67969 55.4399C9.67969 56.3735 10.0505 57.2688 10.7107 57.9289C11.3708 58.5891 12.2661 58.9599 13.1997 58.9599C14.1332 58.9599 15.0286 58.5891 15.6887 57.9289C16.3488 57.2688 16.7197 56.3735 16.7197 55.4399C16.7197 54.5064 16.3488 53.611 15.6887 52.9509C15.0286 52.2908 14.1332 51.9199 13.1997 51.9199Z" fill="#FBCD59"/>
<path d="M22.0002 74.8008C21.5335 74.8008 21.0858 74.9862 20.7557 75.3163C20.4257 75.6463 20.2402 76.094 20.2402 76.5608C20.2402 77.0276 20.4257 77.4752 20.7557 77.8053C21.0858 78.1354 21.5335 78.3208 22.0002 78.3208C22.467 78.3208 22.9147 78.1354 23.2447 77.8053C23.5748 77.4752 23.7602 77.0276 23.7602 76.5608C23.7602 76.094 23.5748 75.6463 23.2447 75.3163C22.9147 74.9862 22.467 74.8008 22.0002 74.8008Z" fill="#78A0CF"/>
<path d="M16.2801 44.8789C15.6966 44.8789 15.137 45.1107 14.7244 45.5233C14.3119 45.9359 14.0801 46.4954 14.0801 47.0789C14.0801 47.6624 14.3119 48.222 14.7244 48.6345C15.137 49.0471 15.6966 49.2789 16.2801 49.2789C16.8636 49.2789 17.4231 49.0471 17.8357 48.6345C18.2483 48.222 18.4801 47.6624 18.4801 47.0789C18.4801 46.4954 18.2483 45.9359 17.8357 45.5233C17.4231 45.1107 16.8636 44.8789 16.2801 44.8789Z" fill="white"/>
<path d="M18.4796 58.0801C18.2462 58.0801 18.0224 58.1728 17.8574 58.3378C17.6923 58.5029 17.5996 58.7267 17.5996 58.9601C17.5996 59.1935 17.6923 59.4173 17.8574 59.5823C18.0224 59.7474 18.2462 59.8401 18.4796 59.8401C18.713 59.8401 18.9368 59.7474 19.1019 59.5823C19.2669 59.4173 19.3596 59.1935 19.3596 58.9601C19.3596 58.7267 19.2669 58.5029 19.1019 58.3378C18.9368 58.1728 18.713 58.0801 18.4796 58.0801Z" fill="#F1BC19"/>
<path d="M70.3995 29.0391C70.1661 29.0391 69.9423 29.1318 69.7773 29.2968C69.6122 29.4618 69.5195 29.6857 69.5195 29.9191C69.5195 30.1525 69.6122 30.3763 69.7773 30.5413C69.9423 30.7063 70.1661 30.7991 70.3995 30.7991C70.6329 30.7991 70.8567 30.7063 71.0218 30.5413C71.1868 30.3763 71.2795 30.1525 71.2795 29.9191C71.2795 29.6857 71.1868 29.4618 71.0218 29.2968C70.8567 29.1318 70.6329 29.0391 70.3995 29.0391Z" fill="white"/>
<path d="M57.2006 24.6406C60.5974 24.6406 63.3606 27.4038 63.3606 30.8006V57.2006C63.3606 60.5974 60.5974 63.3606 57.2006 63.3606H30.8006C27.4038 63.3606 24.6406 60.5974 24.6406 57.2006V30.8006C24.6406 27.4038 27.4038 24.6406 30.8006 24.6406H57.2006Z" fill="#F1BC19"/>
<path d="M57.1998 24.9918C60.4021 24.9918 63.0078 27.5974 63.0078 30.7998V57.1998C63.0078 60.4021 60.4021 63.0078 57.1998 63.0078H30.7998C27.5974 63.0078 24.9918 60.4021 24.9918 57.1998V30.7998C24.9918 27.5974 27.5974 24.9918 30.7998 24.9918H57.1998ZM57.1998 23.7598H30.7998C26.9119 23.7598 23.7598 26.9119 23.7598 30.7998V57.1998C23.7598 61.0876 26.9119 64.2398 30.7998 64.2398H57.1998C61.0876 64.2398 64.2398 61.0876 64.2398 57.1998V30.7998C64.2398 26.9119 61.0876 23.7598 57.1998 23.7598Z" fill="#472B29"/>
<path d="M55.4393 60.7193H32.5593C29.6474 60.7193 27.2793 58.3512 27.2793 55.4393V32.5593C27.2793 29.6474 29.6474 27.2793 32.5593 27.2793H55.4393C58.3512 27.2793 60.7193 29.6474 60.7193 32.5593V55.4393C60.7193 58.3512 58.3512 60.7193 55.4393 60.7193Z" fill="#FDFCEE"/>
<path d="M55.4393 60.7193H32.5593C29.6474 60.7193 27.2793 58.3512 27.2793 55.4393V32.5593C27.2793 29.6474 29.6474 27.2793 32.5593 27.2793H54.2293C54.4115 27.2793 54.5593 27.4271 54.5593 27.6093C54.5593 27.7915 54.4115 27.9393 54.2293 27.9393H32.5593C30.0117 27.9393 27.9393 30.0117 27.9393 32.5593V55.4393C27.9393 57.9869 30.0117 60.0593 32.5593 60.0593H55.4393C57.9869 60.0593 60.0593 57.9869 60.0593 55.4393V42.5693C60.0593 42.3871 60.2071 42.2393 60.3893 42.2393C60.5715 42.2393 60.7193 42.3871 60.7193 42.5693V55.4393C60.7193 58.3512 58.3512 60.7193 55.4393 60.7193ZM60.3893 36.9593C60.2071 36.9593 60.0593 36.8115 60.0593 36.6293V35.5047C60.0593 35.3225 60.2071 35.1747 60.3893 35.1747C60.5715 35.1747 60.7193 35.3225 60.7193 35.5047V36.6293C60.7193 36.8115 60.5715 36.9593 60.3893 36.9593Z" fill="#472B29"/>
<path d="M60.3905 41.3598C60.2084 41.3598 60.0605 41.212 60.0605 41.0298V38.1698C60.0605 37.9877 60.2084 37.8398 60.3905 37.8398C60.5727 37.8398 60.7205 37.9877 60.7205 38.1698V41.0298C60.7205 41.212 60.5727 41.3598 60.3905 41.3598Z" fill="#472B29"/>
<path d="M50.7662 34.6504C50.4133 34.6504 50.1062 34.7551 49.8862 34.9742L37.2353 47.6357C36.8279 48.0449 35.9699 50.3126 35.3442 51.967C35.0608 52.7159 34.8188 53.3522 34.678 53.6681C34.6287 53.7781 34.6516 53.8978 34.7361 53.9831L34.8725 54.1195C34.9799 54.2278 35.1409 54.2594 35.2843 54.1952C35.6513 54.0298 36.3298 53.7719 37.1174 53.4736C38.7955 52.8365 40.8627 52.0524 41.2551 51.6599L53.9069 38.9967C54.5607 38.342 54.1911 36.9058 53.0832 35.7962C52.3467 35.0605 51.4658 34.6504 50.7662 34.6504Z" fill="#F1BC19"/>
<path d="M37.2333 47.6367C36.8259 48.0459 35.9679 50.3137 35.3422 51.9681C35.0589 52.717 34.8169 53.3532 34.6761 53.6691C34.6268 53.7791 34.6497 53.8988 34.7341 53.9842L34.8705 54.1206C34.9779 54.2288 35.139 54.2605 35.2824 54.1962C35.6494 54.0308 36.3278 53.773 37.1154 53.4746C38.7936 52.8375 40.8607 52.0534 41.2532 51.661L41.2558 51.6583L37.2333 47.6367Z" fill="#FDFCEE"/>
<path d="M35.3598 51.9219C35.3545 51.9368 35.3484 51.9527 35.3422 51.9676C35.0589 52.7165 34.8169 53.3528 34.6761 53.6687C34.6268 53.7787 34.6497 53.8984 34.7341 53.9837L34.8705 54.1201C34.9779 54.2284 35.1389 54.26 35.2824 54.1958C35.6256 54.0409 36.246 53.8042 36.9685 53.5305L35.3598 51.9219Z" fill="#4A5397"/>
<path d="M47.0938 37.8262L48.841 36.0788L52.8559 40.0936L51.1086 41.8409L47.0938 37.8262Z" fill="#7782AC"/>
<path d="M52.8321 40.0712L53.9049 38.9976C54.5587 38.3429 54.1891 36.9067 53.0812 35.797C52.3455 35.0605 51.4646 34.6504 50.765 34.6504C50.4121 34.6504 50.105 34.7551 49.885 34.9742L48.8105 36.0496L52.8321 40.0712Z" fill="#FCB9B9"/>
<path d="M50.7673 34.9803C51.4027 34.9803 52.1999 35.3834 52.8476 36.031C53.9107 37.0958 54.1315 38.3041 53.6713 38.7652L41.0187 51.4284C40.6763 51.7707 38.4728 52.6067 37.0147 53.1602L36.9487 53.1849C36.1787 53.477 35.5143 53.7296 35.1033 53.8871L34.9898 53.7736C35.142 53.4269 35.3893 52.7739 35.6507 52.084C36.1963 50.6417 37.1097 48.2278 37.467 47.8697L50.1179 35.2091C50.2701 35.0569 50.4883 34.9803 50.7673 34.9803ZM50.7673 34.3203C50.3264 34.3203 49.9366 34.4567 49.6515 34.7418L37.0006 47.4033C36.5773 47.8274 35.8883 49.591 35.0338 51.8508C34.7531 52.5918 34.5146 53.2218 34.3747 53.5342C34.2699 53.7674 34.3192 54.035 34.4996 54.2162L34.6369 54.3535C34.7715 54.489 34.9493 54.5603 35.1306 54.5603C35.2274 54.5603 35.3259 54.5392 35.4183 54.4978C35.7774 54.335 36.4594 54.0772 37.2487 53.7771C39.4707 52.9341 41.0767 52.3049 41.4859 51.8948L54.1386 39.2325C54.935 38.4352 54.5733 36.8248 53.3149 35.5655C52.5079 34.7577 51.5558 34.3203 50.7673 34.3203Z" fill="#472B29"/>
<path d="M37.0781 47.7891L37.3892 47.4779L41.4116 51.5001L41.1004 51.8112L37.0781 47.7891Z" fill="#472B29"/>
<path d="M35.123 51.9961L35.4342 51.685L37.1939 53.4447L36.8828 53.7558L35.123 51.9961Z" fill="#472B29"/>
<path d="M46.9375 37.9824L47.2486 37.6713L51.2635 41.686L50.9524 41.9971L46.9375 37.9824Z" fill="#472B29"/>
<path d="M48.6836 36.2363L48.9947 35.9252L53.0096 39.9399L52.6984 40.251L48.6836 36.2363Z" fill="#472B29"/>
<path d="M48.0618 38.7634L47.8594 38.6772L48.8494 36.3672L49.0518 36.4534L48.0618 38.7634ZM48.8318 39.4234L48.6294 39.3372L49.6194 37.0272L49.8218 37.1134L48.8318 39.4234ZM49.6018 40.0834L49.3994 39.9972L50.3894 37.6872L50.5918 37.7734L49.6018 40.0834ZM50.2873 40.9397L50.0858 40.8534L51.1594 38.3472L51.3618 38.4334L50.2873 40.9397ZM51.0239 41.678L50.8215 41.5917L51.9294 39.0072L52.1318 39.0934L51.0239 41.678Z" fill="#472B29"/>
<path d="M11.4397 23.7598C10.9729 23.7598 10.5252 23.9452 10.1952 24.2753C9.86512 24.6053 9.67969 25.053 9.67969 25.5198C9.67969 25.9865 9.86512 26.4342 10.1952 26.7643C10.5252 27.0943 10.9729 27.2798 11.4397 27.2798C11.9065 27.2798 12.3541 27.0943 12.6842 26.7643C13.0143 26.4342 13.1997 25.9865 13.1997 25.5198C13.1997 25.053 13.0143 24.6053 12.6842 24.2753C12.3541 23.9452 11.9065 23.7598 11.4397 23.7598Z" fill="#9D9FCE"/>
<path d="M67.7609 10.5586C67.5275 10.5586 67.3036 10.6513 67.1386 10.8163C66.9736 10.9814 66.8809 11.2052 66.8809 11.4386C66.8809 11.672 66.9736 11.8958 67.1386 12.0608C67.3036 12.2259 67.5275 12.3186 67.7609 12.3186C67.9943 12.3186 68.2181 12.2259 68.3831 12.0608C68.5481 11.8958 68.6409 11.672 68.6409 11.4386C68.6409 11.2052 68.5481 10.9814 68.3831 10.8163C68.2181 10.6513 67.9943 10.5586 67.7609 10.5586Z" fill="#F1BC19"/>
<path d="M43.9995 11.4414C35.364 11.4414 27.0822 14.8718 20.9761 20.978C14.8699 27.0842 11.4395 35.366 11.4395 44.0014C11.4395 52.6369 14.8699 60.9186 20.9761 67.0248C27.0822 73.131 35.364 76.5614 43.9995 76.5614C52.6349 76.5614 60.9167 73.131 67.0229 67.0248C73.129 60.9186 76.5595 52.6369 76.5595 44.0014C76.5595 35.366 73.129 27.0842 67.0229 20.978C60.9167 14.8718 52.6349 11.4414 43.9995 11.4414Z" fill="#E4E4F9"/>
<path d="M73.0395 9.67969C72.106 9.67969 71.2106 10.0505 70.5505 10.7107C69.8904 11.3708 69.5195 12.2661 69.5195 13.1997C69.5195 14.1332 69.8904 15.0286 70.5505 15.6887C71.2106 16.3488 72.106 16.7197 73.0395 16.7197C73.9731 16.7197 74.8684 16.3488 75.5286 15.6887C76.1887 15.0286 76.5595 14.1332 76.5595 13.1997C76.5595 12.2661 76.1887 11.3708 75.5286 10.7107C74.8684 10.0505 73.9731 9.67969 73.0395 9.67969Z" fill="#F1BC19"/>
<path d="M76.5608 19.3594C76.094 19.3594 75.6463 19.5448 75.3163 19.8749C74.9862 20.2049 74.8008 20.6526 74.8008 21.1194C74.8008 21.5862 74.9862 22.0338 75.3163 22.3639C75.6463 22.6939 76.094 22.8794 76.5608 22.8794C77.0276 22.8794 77.4752 22.6939 77.8053 22.3639C78.1354 22.0338 78.3208 21.5862 78.3208 21.1194C78.3208 20.6526 78.1354 20.2049 77.8053 19.8749C77.4752 19.5448 77.0276 19.3594 76.5608 19.3594Z" fill="#9D9FCE"/>
<path d="M71.2797 65.1199C70.8129 65.1199 70.3652 65.3053 70.0352 65.6354C69.7051 65.9655 69.5197 66.4131 69.5197 66.8799C69.5197 67.3467 69.7051 67.7944 70.0352 68.1244C70.3652 68.4545 70.8129 68.6399 71.2797 68.6399C71.7465 68.6399 72.1941 68.4545 72.5242 68.1244C72.8543 67.7944 73.0397 67.3467 73.0397 66.8799C73.0397 66.4131 72.8543 65.9655 72.5242 65.6354C72.1941 65.3053 71.7465 65.1199 71.2797 65.1199ZM13.1997 51.9199C12.2661 51.9199 11.3708 52.2908 10.7107 52.9509C10.0505 53.611 9.67969 54.5064 9.67969 55.4399C9.67969 56.3735 10.0505 57.2688 10.7107 57.9289C11.3708 58.5891 12.2661 58.9599 13.1997 58.9599C14.1332 58.9599 15.0286 58.5891 15.6887 57.9289C16.3488 57.2688 16.7197 56.3735 16.7197 55.4399C16.7197 54.5064 16.3488 53.611 15.6887 52.9509C15.0286 52.2908 14.1332 51.9199 13.1997 51.9199Z" fill="#FBCD59"/>
<path d="M22.0002 74.8008C21.5335 74.8008 21.0858 74.9862 20.7557 75.3163C20.4257 75.6463 20.2402 76.094 20.2402 76.5608C20.2402 77.0276 20.4257 77.4752 20.7557 77.8053C21.0858 78.1354 21.5335 78.3208 22.0002 78.3208C22.467 78.3208 22.9147 78.1354 23.2447 77.8053C23.5748 77.4752 23.7602 77.0276 23.7602 76.5608C23.7602 76.094 23.5748 75.6463 23.2447 75.3163C22.9147 74.9862 22.467 74.8008 22.0002 74.8008Z" fill="#9D9FCE"/>
<path d="M16.2801 44.8789C15.6966 44.8789 15.137 45.1107 14.7244 45.5233C14.3119 45.9359 14.0801 46.4954 14.0801 47.0789C14.0801 47.6624 14.3119 48.222 14.7244 48.6345C15.137 49.0471 15.6966 49.2789 16.2801 49.2789C16.8636 49.2789 17.4231 49.0471 17.8357 48.6345C18.2483 48.222 18.4801 47.6624 18.4801 47.0789C18.4801 46.4954 18.2483 45.9359 17.8357 45.5233C17.4231 45.1107 16.8636 44.8789 16.2801 44.8789Z" fill="white"/>
<path d="M18.4796 58.0801C18.2462 58.0801 18.0224 58.1728 17.8574 58.3378C17.6923 58.5029 17.5996 58.7267 17.5996 58.9601C17.5996 59.1935 17.6923 59.4173 17.8574 59.5823C18.0224 59.7474 18.2462 59.8401 18.4796 59.8401C18.713 59.8401 18.9368 59.7474 19.1019 59.5823C19.2669 59.4173 19.3596 59.1935 19.3596 58.9601C19.3596 58.7267 19.2669 58.5029 19.1019 58.3378C18.9368 58.1728 18.713 58.0801 18.4796 58.0801Z" fill="#F1BC19"/>
<path d="M70.3995 29.0391C70.1661 29.0391 69.9423 29.1318 69.7773 29.2968C69.6122 29.4618 69.5195 29.6857 69.5195 29.9191C69.5195 30.1525 69.6122 30.3763 69.7773 30.5413C69.9423 30.7063 70.1661 30.7991 70.3995 30.7991C70.6329 30.7991 70.8567 30.7063 71.0218 30.5413C71.1868 30.3763 71.2795 30.1525 71.2795 29.9191C71.2795 29.6857 71.1868 29.4618 71.0218 29.2968C70.8567 29.1318 70.6329 29.0391 70.3995 29.0391Z" fill="white"/>
<path d="M57.2006 24.6406C60.5974 24.6406 63.3606 27.4038 63.3606 30.8006V57.2006C63.3606 60.5974 60.5974 63.3606 57.2006 63.3606H30.8006C27.4038 63.3606 24.6406 60.5974 24.6406 57.2006V30.8006C24.6406 27.4038 27.4038 24.6406 30.8006 24.6406H57.2006Z" fill="#C0D078"/>
<path d="M57.1998 24.9918C60.4021 24.9918 63.0078 27.5974 63.0078 30.7998V57.1998C63.0078 60.4021 60.4021 63.0078 57.1998 63.0078H30.7998C27.5974 63.0078 24.9918 60.4021 24.9918 57.1998V30.7998C24.9918 27.5974 27.5974 24.9918 30.7998 24.9918H57.1998ZM57.1998 23.7598H30.7998C26.9119 23.7598 23.7598 26.9119 23.7598 30.7998V57.1998C23.7598 61.0876 26.9119 64.2398 30.7998 64.2398H57.1998C61.0876 64.2398 64.2398 61.0876 64.2398 57.1998V30.7998C64.2398 26.9119 61.0876 23.7598 57.1998 23.7598Z" fill="#472B29"/>
<path d="M55.4393 60.7193H32.5593C29.6474 60.7193 27.2793 58.3512 27.2793 55.4393V32.5593C27.2793 29.6474 29.6474 27.2793 32.5593 27.2793H55.4393C58.3512 27.2793 60.7193 29.6474 60.7193 32.5593V55.4393C60.7193 58.3512 58.3512 60.7193 55.4393 60.7193Z" fill="#FDFCEE"/>
<path d="M55.4393 60.7193H32.5593C29.6474 60.7193 27.2793 58.3512 27.2793 55.4393V32.5593C27.2793 29.6474 29.6474 27.2793 32.5593 27.2793H54.2293C54.4115 27.2793 54.5593 27.4271 54.5593 27.6093C54.5593 27.7915 54.4115 27.9393 54.2293 27.9393H32.5593C30.0117 27.9393 27.9393 30.0117 27.9393 32.5593V55.4393C27.9393 57.9869 30.0117 60.0593 32.5593 60.0593H55.4393C57.9869 60.0593 60.0593 57.9869 60.0593 55.4393V42.5693C60.0593 42.3871 60.2071 42.2393 60.3893 42.2393C60.5715 42.2393 60.7193 42.3871 60.7193 42.5693V55.4393C60.7193 58.3512 58.3512 60.7193 55.4393 60.7193ZM60.3893 36.9593C60.2071 36.9593 60.0593 36.8115 60.0593 36.6293V35.5047C60.0593 35.3225 60.2071 35.1747 60.3893 35.1747C60.5715 35.1747 60.7193 35.3225 60.7193 35.5047V36.6293C60.7193 36.8115 60.5715 36.9593 60.3893 36.9593Z" fill="#472B29"/>
<path d="M60.3905 41.3598C60.2084 41.3598 60.0605 41.212 60.0605 41.0298V38.1698C60.0605 37.9877 60.2084 37.8398 60.3905 37.8398C60.5727 37.8398 60.7205 37.9877 60.7205 38.1698V41.0298C60.7205 41.212 60.5727 41.3598 60.3905 41.3598Z" fill="#472B29"/>
<path d="M47.5197 32.8887C45.5067 32.8887 43.5761 33.6883 42.1527 35.1117C40.7293 36.5351 39.9297 38.4657 39.9297 40.4787C39.9297 42.4917 40.7293 44.4222 42.1527 45.8456C43.5761 47.269 45.5067 48.0687 47.5197 48.0687C49.5327 48.0687 51.4632 47.269 52.8866 45.8456C54.31 44.4222 55.1097 42.4917 55.1097 40.4787C55.1097 38.4657 54.31 36.5351 52.8866 35.1117C51.4632 33.6883 49.5327 32.8887 47.5197 32.8887Z" fill="#E1E0D8"/>
<path d="M47.5201 34.5391C46.74 34.5391 45.9676 34.6927 45.2469 34.9912C44.5263 35.2897 43.8714 35.7273 43.3199 36.2788C42.7683 36.8304 42.3307 37.4852 42.0322 38.2059C41.7337 38.9266 41.5801 39.699 41.5801 40.4791C41.5801 41.2591 41.7337 42.0315 42.0322 42.7522C42.3307 43.4729 42.7683 44.1277 43.3199 44.6793C43.8714 45.2309 44.5263 45.6684 45.2469 45.9669C45.9676 46.2654 46.74 46.4191 47.5201 46.4191C48.3001 46.4191 49.0725 46.2654 49.7932 45.9669C50.5139 45.6684 51.1687 45.2309 51.7203 44.6793C52.2719 44.1277 52.7094 43.4729 53.0079 42.7522C53.3064 42.0315 53.4601 41.2591 53.4601 40.4791C53.4601 39.699 53.3064 38.9266 53.0079 38.2059C52.7094 37.4852 52.2719 36.8304 51.7203 36.2788C51.1687 35.7273 50.5139 35.2897 49.7932 34.9912C49.0725 34.6927 48.3001 34.5391 47.5201 34.5391Z" fill="#A8DBDB"/>
<path d="M40.5147 47.4842C39.8274 46.7969 38.7134 46.7969 38.0261 47.4842C37.5306 47.9797 33.9024 51.6079 33.4061 52.1042C32.7188 52.7915 32.7188 53.9056 33.4061 54.5929C34.0934 55.2801 35.2074 55.2801 35.8947 54.5929C36.391 54.0965 40.0193 50.4683 40.5147 49.9729C41.202 49.2856 41.202 48.1715 40.5147 47.4842Z" fill="#88AE45"/>
<path d="M40.514 49.9729C41.2013 49.2856 41.2013 48.1715 40.514 47.4842C39.8268 46.7969 38.7127 46.7969 38.0254 47.4842L40.514 49.9729Z" fill="#D1DC82"/>
<path d="M47.5196 48.3986C43.1531 48.3986 39.5996 44.8452 39.5996 40.4786C39.5996 36.112 43.1531 32.5586 47.5196 32.5586C51.8862 32.5586 55.4396 36.112 55.4396 40.4786C55.4396 44.8452 51.8862 48.3986 47.5196 48.3986ZM47.5196 33.2186C43.5165 33.2186 40.2596 36.4755 40.2596 40.4786C40.2596 44.4817 43.5165 47.7386 47.5196 47.7386C51.5227 47.7386 54.7796 44.4817 54.7796 40.4786C54.7796 36.4755 51.5227 33.2186 47.5196 33.2186Z" fill="#472B29"/>
<path d="M47.5213 46.6384C44.1245 46.6384 41.3613 43.8752 41.3613 40.4784C41.3613 37.0816 44.1245 34.3184 47.5213 34.3184C50.9181 34.3184 53.6813 37.0816 53.6813 40.4784C53.6813 43.8752 50.9181 46.6384 47.5213 46.6384ZM47.5213 34.7584C44.3674 34.7584 41.8013 37.3244 41.8013 40.4784C41.8013 43.6323 44.3674 46.1984 47.5213 46.1984C50.6752 46.1984 53.2413 43.6323 53.2413 40.4784C53.2413 37.3244 50.6752 34.7584 47.5213 34.7584Z" fill="#472B29"/>
<path d="M40.3066 47.0703L41.8187 45.5582L42.441 46.1805L40.9289 47.6926L40.3066 47.0703Z" fill="#472B29"/>
<path d="M34.6505 55.4397C34.0926 55.4397 33.5673 55.2223 33.173 54.8272C32.7779 54.433 32.5605 53.9076 32.5605 53.3497C32.5605 52.7918 32.7779 52.2664 33.173 51.8722L37.793 47.2522C38.5815 46.4628 39.9587 46.4628 40.7481 47.2522C41.1432 47.6473 41.3605 48.1718 41.3605 48.7297C41.3605 49.2876 41.1432 49.813 40.7481 50.2072L36.1281 54.8272C35.7338 55.2223 35.2085 55.4397 34.6505 55.4397ZM39.2705 47.2997C38.8886 47.2997 38.5296 47.4484 38.2594 47.7186L33.6394 52.3386C33.3693 52.6087 33.2205 52.9678 33.2205 53.3497C33.2205 53.7316 33.3693 54.0907 33.6394 54.3608C34.1797 54.9011 35.1213 54.9011 35.6617 54.3608L40.2817 49.7408C40.5518 49.4707 40.7005 49.1116 40.7005 48.7297C40.7005 48.3478 40.5518 47.9887 40.2817 47.7186C40.0115 47.4484 39.6525 47.2997 39.2705 47.2997Z" fill="#472B29"/>
<path d="M37.8809 47.8066L38.3475 47.3399L40.747 49.7393L40.2803 50.206L37.8809 47.8066Z" fill="#472B29"/>
<path d="M35.6408 52.7975C35.5941 52.7975 35.5501 52.7676 35.5361 52.721L34.8761 50.631C34.8576 50.5729 34.8901 50.5113 34.9482 50.4928C35.0081 50.4761 35.0679 50.5069 35.0864 50.565L35.7464 52.655C35.7649 52.7131 35.7323 52.7746 35.6742 52.7931C35.6628 52.7958 35.6513 52.7975 35.6408 52.7975ZM35.2008 53.6775C35.1541 53.6775 35.1101 53.6476 35.0961 53.601L34.2662 50.9733C34.2477 50.9152 34.2803 50.8536 34.3384 50.8351C34.3982 50.8175 34.4589 50.8492 34.4765 50.9073L35.3064 53.535C35.3249 53.5931 35.2923 53.6546 35.2342 53.6731C35.2228 53.6758 35.2113 53.6775 35.2008 53.6775ZM34.9333 55.1049C34.8866 55.1049 34.8426 55.075 34.8285 55.0283L33.7215 51.5215C33.703 51.4634 33.7356 51.4019 33.7937 51.3834C33.8544 51.3649 33.9133 51.3983 33.9318 51.4555L35.0389 54.9623C35.0573 55.0204 35.0248 55.082 34.9667 55.1005C34.9553 55.1031 34.9438 55.1049 34.9333 55.1049ZM34.2513 55.2175C34.2046 55.2175 34.1606 55.1876 34.1465 55.141L33.1653 52.0337C33.1469 51.9756 33.1794 51.914 33.2375 51.8955C33.2991 51.8788 33.3581 51.9105 33.3757 51.9677L34.3569 55.075C34.3753 55.1331 34.3428 55.1946 34.2847 55.2131C34.2733 55.2158 34.2618 55.2175 34.2513 55.2175Z" fill="#472B29"/>
<path d="M11.4397 23.7598C10.9729 23.7598 10.5252 23.9452 10.1952 24.2753C9.86512 24.6053 9.67969 25.053 9.67969 25.5198C9.67969 25.9865 9.86512 26.4342 10.1952 26.7643C10.5252 27.0943 10.9729 27.2798 11.4397 27.2798C11.9065 27.2798 12.3541 27.0943 12.6842 26.7643C13.0143 26.4342 13.1997 25.9865 13.1997 25.5198C13.1997 25.053 13.0143 24.6053 12.6842 24.2753C12.3541 23.9452 11.9065 23.7598 11.4397 23.7598Z" fill="#EE3E54"/>
<path d="M67.7609 10.5586C67.5275 10.5586 67.3036 10.6513 67.1386 10.8163C66.9736 10.9814 66.8809 11.2052 66.8809 11.4386C66.8809 11.672 66.9736 11.8958 67.1386 12.0608C67.3036 12.2259 67.5275 12.3186 67.7609 12.3186C67.9943 12.3186 68.2181 12.2259 68.3831 12.0608C68.5481 11.8958 68.6409 11.672 68.6409 11.4386C68.6409 11.2052 68.5481 10.9814 68.3831 10.8163C68.2181 10.6513 67.9943 10.5586 67.7609 10.5586Z" fill="#F1BC19"/>
<path d="M43.5 11C34.8805 11 26.614 14.4241 20.519 20.519C14.4241 26.614 11 34.8805 11 43.5C11 52.1195 14.4241 60.386 20.519 66.481C26.614 72.5759 34.8805 76 43.5 76C52.1195 76 60.386 72.5759 66.481 66.481C72.5759 60.386 76 52.1195 76 43.5C76 34.8805 72.5759 26.614 66.481 20.519C60.386 14.4241 52.1195 11 43.5 11Z" fill="#E4E4F9"/>
<path d="M73.0395 9.67969C72.106 9.67969 71.2106 10.0505 70.5505 10.7107C69.8904 11.3708 69.5195 12.2661 69.5195 13.1997C69.5195 14.1332 69.8904 15.0286 70.5505 15.6887C71.2106 16.3488 72.106 16.7197 73.0395 16.7197C73.9731 16.7197 74.8684 16.3488 75.5286 15.6887C76.1887 15.0286 76.5595 14.1332 76.5595 13.1997C76.5595 12.2661 76.1887 11.3708 75.5286 10.7107C74.8684 10.0505 73.9731 9.67969 73.0395 9.67969Z" fill="#F1BC19"/>
<path d="M76.5608 19.3594C76.094 19.3594 75.6463 19.5448 75.3163 19.8749C74.9862 20.2049 74.8008 20.6526 74.8008 21.1194C74.8008 21.5862 74.9862 22.0338 75.3163 22.3639C75.6463 22.6939 76.094 22.8794 76.5608 22.8794C77.0276 22.8794 77.4752 22.6939 77.8053 22.3639C78.1354 22.0338 78.3208 21.5862 78.3208 21.1194C78.3208 20.6526 78.1354 20.2049 77.8053 19.8749C77.4752 19.5448 77.0276 19.3594 76.5608 19.3594Z" fill="#EE3E54"/>
<path d="M71.2797 65.1199C70.8129 65.1199 70.3652 65.3053 70.0352 65.6354C69.7051 65.9655 69.5197 66.4131 69.5197 66.8799C69.5197 67.3467 69.7051 67.7944 70.0352 68.1244C70.3652 68.4545 70.8129 68.6399 71.2797 68.6399C71.7465 68.6399 72.1941 68.4545 72.5242 68.1244C72.8543 67.7944 73.0397 67.3467 73.0397 66.8799C73.0397 66.4131 72.8543 65.9655 72.5242 65.6354C72.1941 65.3053 71.7465 65.1199 71.2797 65.1199ZM13.1997 51.9199C12.2661 51.9199 11.3708 52.2908 10.7107 52.9509C10.0505 53.611 9.67969 54.5064 9.67969 55.4399C9.67969 56.3735 10.0505 57.2688 10.7107 57.9289C11.3708 58.5891 12.2661 58.9599 13.1997 58.9599C14.1332 58.9599 15.0286 58.5891 15.6887 57.9289C16.3488 57.2688 16.7197 56.3735 16.7197 55.4399C16.7197 54.5064 16.3488 53.611 15.6887 52.9509C15.0286 52.2908 14.1332 51.9199 13.1997 51.9199Z" fill="#FBCD59"/>
<path d="M22.0002 74.8008C21.5335 74.8008 21.0858 74.9862 20.7557 75.3163C20.4257 75.6463 20.2402 76.094 20.2402 76.5608C20.2402 77.0276 20.4257 77.4752 20.7557 77.8053C21.0858 78.1354 21.5335 78.3208 22.0002 78.3208C22.467 78.3208 22.9147 78.1354 23.2447 77.8053C23.5748 77.4752 23.7602 77.0276 23.7602 76.5608C23.7602 76.094 23.5748 75.6463 23.2447 75.3163C22.9147 74.9862 22.467 74.8008 22.0002 74.8008Z" fill="#EE3E54"/>
<path d="M16.2801 44.8789C15.6966 44.8789 15.137 45.1107 14.7244 45.5233C14.3119 45.9359 14.0801 46.4954 14.0801 47.0789C14.0801 47.6624 14.3119 48.222 14.7244 48.6345C15.137 49.0471 15.6966 49.2789 16.2801 49.2789C16.8636 49.2789 17.4231 49.0471 17.8357 48.6345C18.2483 48.222 18.4801 47.6624 18.4801 47.0789C18.4801 46.4954 18.2483 45.9359 17.8357 45.5233C17.4231 45.1107 16.8636 44.8789 16.2801 44.8789Z" fill="white"/>
<path d="M18.4796 58.0801C18.2462 58.0801 18.0224 58.1728 17.8574 58.3378C17.6923 58.5029 17.5996 58.7267 17.5996 58.9601C17.5996 59.1935 17.6923 59.4173 17.8574 59.5823C18.0224 59.7474 18.2462 59.8401 18.4796 59.8401C18.713 59.8401 18.9368 59.7474 19.1019 59.5823C19.2669 59.4173 19.3596 59.1935 19.3596 58.9601C19.3596 58.7267 19.2669 58.5029 19.1019 58.3378C18.9368 58.1728 18.713 58.0801 18.4796 58.0801Z" fill="#F1BC19"/>
<path d="M70.3995 29.0391C70.1661 29.0391 69.9423 29.1318 69.7773 29.2968C69.6122 29.4618 69.5195 29.6857 69.5195 29.9191C69.5195 30.1525 69.6122 30.3763 69.7773 30.5413C69.9423 30.7063 70.1661 30.7991 70.3995 30.7991C70.6329 30.7991 70.8567 30.7063 71.0218 30.5413C71.1868 30.3763 71.2795 30.1525 71.2795 29.9191C71.2795 29.6857 71.1868 29.4618 71.0218 29.2968C70.8567 29.1318 70.6329 29.0391 70.3995 29.0391Z" fill="white"/>
<path d="M63.713 38.7208V56.6728C63.713 60.4568 60.6329 63.5368 56.8489 63.5368H31.241C27.457 63.5368 24.377 60.4568 24.377 56.6728V31.3288C24.377 27.5448 27.457 24.4648 31.241 24.4648H56.8489C60.0169 24.4648 62.6569 26.5768 63.5369 29.5688" fill="#A1D3A2"/>
<path d="M56.7598 64.2397H31.2398C27.1038 64.2397 23.7598 60.8957 23.7598 56.7597V31.3277C23.7598 27.1917 27.1038 23.8477 31.2398 23.8477H56.8478C60.1918 23.8477 63.1838 26.1357 64.0638 29.3917C64.1518 29.7437 63.9758 30.0957 63.6238 30.1837C63.2718 30.2717 62.9198 30.0957 62.8318 29.7437C62.0398 27.0157 59.5758 25.1677 56.7598 25.1677H31.2398C27.8078 25.1677 24.9918 27.9837 24.9918 31.4157V56.7597C24.9918 60.1917 27.8078 63.0077 31.2398 63.0077H56.8478C60.2798 63.0077 63.0958 60.1917 63.0958 56.7597V38.7197C63.0958 38.3677 63.3598 38.1037 63.7118 38.1037C64.0638 38.1037 64.3278 38.3677 64.3278 38.7197V56.6717C64.3278 60.8077 60.8958 64.2397 56.7598 64.2397Z" fill="#472B29"/>
<path d="M60.2798 52.2706C60.0158 52.2706 59.8398 52.0946 59.8398 51.8306V48.3986C59.8398 48.1346 60.0158 47.9586 60.2798 47.9586C60.5438 47.9586 60.7198 48.1346 60.7198 48.3986V51.8306C60.7198 52.0946 60.5438 52.2706 60.2798 52.2706ZM60.2798 46.1986C60.0158 46.1986 59.8398 46.0226 59.8398 45.7586V43.9986C59.8398 43.7346 60.0158 43.5586 60.2798 43.5586C60.5438 43.5586 60.7198 43.7346 60.7198 43.9986V45.7586C60.7198 46.0226 60.5438 46.1986 60.2798 46.1986Z" fill="#472B29"/>
<path d="M56.3193 60.7213H31.6793C29.2153 60.7213 27.2793 58.7853 27.2793 56.3213V31.6813C27.2793 29.2173 29.2153 27.2812 31.6793 27.2812H54.0313C54.2953 27.2812 54.4713 27.4572 54.4713 27.7213C54.4713 27.9853 54.2953 28.1613 54.0313 28.1613H31.6793C29.7433 28.1613 28.1593 29.7453 28.1593 31.6813V56.3213C28.1593 58.2573 29.7433 59.8413 31.6793 59.8413H56.3193C58.2553 59.8413 59.8393 58.2573 59.8393 56.3213V54.2092C59.8393 53.9452 60.0153 53.7693 60.2793 53.7693C60.5433 53.7693 60.7193 53.9452 60.7193 54.2092V56.3213C60.7193 58.7853 58.7833 60.7213 56.3193 60.7213Z" fill="#472B29"/>
<path d="M43.5598 55.0001H43.4718C43.3838 55.0001 43.3838 55.0001 43.2958 55.0001C42.9438 55.0001 42.5918 54.9121 42.4158 54.6481L35.1118 47.4321C34.8478 47.1681 34.7598 46.9041 34.7598 46.5521C34.7598 46.2001 34.9358 45.8481 35.1118 45.6721C35.3758 45.4081 35.6398 45.3201 35.9918 45.3201C36.3438 45.3201 36.6958 45.4961 36.8718 45.6721L43.1198 52.1841L64.2398 31.6801C64.5038 31.4161 64.7678 31.3281 65.1198 31.3281C65.4718 31.3281 65.8238 31.5041 65.9998 31.6801C66.2638 31.9441 66.3518 32.2081 66.3518 32.5601C66.3518 32.9121 66.1758 33.2641 65.9998 33.4401L44.5278 54.6481C44.4398 54.7361 44.3518 54.8241 44.1758 54.9121C44.1758 54.9121 44.0878 54.9121 44.0878 55.0001C43.9998 55.0001 43.9118 55.0881 43.8238 55.0881C43.7358 55.0001 43.7358 55.0001 43.5598 55.0001Z" fill="#00AC9C"/>
<path d="M65.2963 31.6808C65.5603 31.6808 65.7363 31.7688 65.9123 31.9448C66.2643 32.2968 66.2643 32.8248 65.9123 33.1768L44.2643 54.2968C44.1763 54.3848 44.0883 54.3848 44.0003 54.4728H43.9123C43.8243 54.4728 43.8243 54.4728 43.7363 54.4728H43.6483C43.5603 54.4728 43.5603 54.4728 43.5603 54.4728C43.4723 54.4728 43.4723 54.4728 43.3843 54.4728C43.2083 54.4728 42.9443 54.3848 42.7683 54.2088L35.4643 46.9928C35.1123 46.6408 35.1123 46.1128 35.4643 45.7608C35.6403 45.5848 35.8163 45.4968 36.0803 45.4968C36.3443 45.4968 36.5203 45.5848 36.6963 45.7608L43.2963 52.6248L64.7683 31.8568C64.8563 31.7688 65.0323 31.6808 65.2963 31.6808ZM65.2963 30.8008C64.8563 30.8008 64.4163 30.9768 64.0643 31.3288L43.2963 51.4808L37.3123 45.2328C36.9603 44.8808 36.5203 44.7048 36.0803 44.7048C35.6403 44.7048 35.2003 44.8808 34.8483 45.2328C34.4963 45.5848 34.3203 46.0248 34.3203 46.4648C34.3203 46.9048 34.4963 47.3448 34.8483 47.6968L42.1523 54.9128C42.5043 55.2648 42.8563 55.4408 43.3843 55.4408H43.4723C43.5603 55.4408 43.5603 55.4408 43.6483 55.4408C43.7363 55.4408 43.9123 55.4408 43.9123 55.4408C44.0003 55.4408 44.0883 55.4408 44.1763 55.3528C44.2643 55.3528 44.3523 55.2648 44.3523 55.2648C44.5283 55.1768 44.7043 55.0888 44.7923 54.9128L66.4403 33.7928C66.7923 33.4408 66.9683 33.0008 66.9683 32.5608C66.9683 32.1208 66.7923 31.6808 66.4403 31.3288C66.1763 30.9768 65.7363 30.8008 65.2963 30.8008Z" fill="#472B29"/>
<circle cx="44" cy="94" r="2" fill="#222222"/>
<circle cx="44" cy="114" r="2" fill="#222222"/>
<circle cx="44" cy="134" r="2" fill="#222222"/>
<circle cx="44" cy="154" r="2" fill="#222222"/>
<circle cx="44" cy="174" r="2" fill="#222222"/>
</svg>
