<svg width="88" height="88" viewBox="0 0 88 88" fill="none" xmlns="http://www.w3.org/2000/svg">
<path d="M11.4401 23.76C10.9733 23.76 10.5256 23.9454 10.1955 24.2755C9.86548 24.6056 9.68005 25.0532 9.68005 25.52C9.68005 25.9868 9.86548 26.4345 10.1955 26.7645C10.5256 27.0946 10.9733 27.28 11.4401 27.28C11.9068 27.28 12.3545 27.0946 12.6846 26.7645C13.0146 26.4345 13.2001 25.9868 13.2001 25.52C13.2001 25.0532 13.0146 24.6056 12.6846 24.2755C12.3545 23.9454 11.9068 23.76 11.4401 23.76Z" fill="#9D9FCE"/>
<path d="M67.76 10.5601C67.5266 10.5601 67.3028 10.6528 67.1378 10.8178C66.9727 10.9828 66.88 11.2067 66.88 11.4401C66.88 11.6734 66.9727 11.8973 67.1378 12.0623C67.3028 12.2273 67.5266 12.3201 67.76 12.3201C67.9934 12.3201 68.2172 12.2273 68.3823 12.0623C68.5473 11.8973 68.64 11.6734 68.64 11.4401C68.64 11.2067 68.5473 10.9828 68.3823 10.8178C68.2172 10.6528 67.9934 10.5601 67.76 10.5601Z" fill="#F1BC19"/>
<path d="M43.9999 11.4399C35.3645 11.4399 27.0827 14.8704 20.9765 20.9765C14.8704 27.0827 11.4399 35.3645 11.4399 43.9999C11.4399 52.6354 14.8704 60.9171 20.9765 67.0233C27.0827 73.1295 35.3645 76.5599 43.9999 76.5599C52.6354 76.5599 60.9171 73.1295 67.0233 67.0233C73.1295 60.9171 76.5599 52.6354 76.5599 43.9999C76.5599 35.3645 73.1295 27.0827 67.0233 20.9765C60.9171 14.8704 52.6354 11.4399 43.9999 11.4399Z" fill="#E4E4F9"/>
<path d="M73.04 9.68005C72.1065 9.68005 71.2111 10.0509 70.551 10.711C69.8909 11.3712 69.52 12.2665 69.52 13.2001C69.52 14.1336 69.8909 15.0289 70.551 15.6891C71.2111 16.3492 72.1065 16.7201 73.04 16.7201C73.9736 16.7201 74.8689 16.3492 75.529 15.6891C76.1892 15.0289 76.56 14.1336 76.56 13.2001C76.56 12.2665 76.1892 11.3712 75.529 10.711C74.8689 10.0509 73.9736 9.68005 73.04 9.68005Z" fill="#F1BC19"/>
<path d="M76.56 19.36C76.0933 19.36 75.6456 19.5454 75.3155 19.8755C74.9855 20.2055 74.8 20.6532 74.8 21.12C74.8 21.5868 74.9855 22.0344 75.3155 22.3645C75.6456 22.6946 76.0933 22.88 76.56 22.88C77.0268 22.88 77.4745 22.6946 77.8046 22.3645C78.1346 22.0344 78.32 21.5868 78.32 21.12C78.32 20.6532 78.1346 20.2055 77.8046 19.8755C77.4745 19.5454 77.0268 19.36 76.56 19.36Z" fill="#9D9FCE"/>
<path d="M71.2801 65.12C70.8133 65.12 70.3656 65.3055 70.0355 65.6355C69.7055 65.9656 69.5201 66.4133 69.5201 66.88C69.5201 67.3468 69.7055 67.7945 70.0355 68.1246C70.3656 68.4546 70.8133 68.64 71.2801 68.64C71.7468 68.64 72.1945 68.4546 72.5246 68.1246C72.8546 67.7945 73.0401 67.3468 73.0401 66.88C73.0401 66.4133 72.8546 65.9656 72.5246 65.6355C72.1945 65.3055 71.7468 65.12 71.2801 65.12ZM13.2001 51.92C12.2665 51.92 11.3712 52.2909 10.711 52.951C10.0509 53.6112 9.68005 54.5065 9.68005 55.44C9.68005 56.3736 10.0509 57.2689 10.711 57.9291C11.3712 58.5892 12.2665 58.96 13.2001 58.96C14.1336 58.96 15.0289 58.5892 15.6891 57.9291C16.3492 57.2689 16.7201 56.3736 16.7201 55.44C16.7201 54.5065 16.3492 53.6112 15.6891 52.951C15.0289 52.2909 14.1336 51.92 13.2001 51.92Z" fill="#FBCD59"/>
<path d="M22 74.8C21.5332 74.8 21.0855 74.9855 20.7555 75.3155C20.4254 75.6456 20.24 76.0933 20.24 76.56C20.24 77.0268 20.4254 77.4745 20.7555 77.8046C21.0855 78.1346 21.5332 78.32 22 78.32C22.4668 78.32 22.9144 78.1346 23.2445 77.8046C23.5746 77.4745 23.76 77.0268 23.76 76.56C23.76 76.0933 23.5746 75.6456 23.2445 75.3155C22.9144 74.9855 22.4668 74.8 22 74.8Z" fill="#9D9FCE"/>
<path d="M16.28 44.88C15.6965 44.88 15.1369 45.1118 14.7243 45.5244C14.3117 45.9369 14.08 46.4965 14.08 47.08C14.08 47.6635 14.3117 48.2231 14.7243 48.6356C15.1369 49.0482 15.6965 49.28 16.28 49.28C16.8634 49.28 17.423 49.0482 17.8356 48.6356C18.2482 48.2231 18.48 47.6635 18.48 47.08C18.48 46.4965 18.2482 45.9369 17.8356 45.5244C17.423 45.1118 16.8634 44.88 16.28 44.88Z" fill="white"/>
<path d="M18.48 58.08C18.2466 58.08 18.0228 58.1727 17.8577 58.3377C17.6927 58.5027 17.6 58.7266 17.6 58.96C17.6 59.1933 17.6927 59.4172 17.8577 59.5822C18.0228 59.7472 18.2466 59.84 18.48 59.84C18.7134 59.84 18.9372 59.7472 19.1022 59.5822C19.2673 59.4172 19.36 59.1933 19.36 58.96C19.36 58.7266 19.2673 58.5027 19.1022 58.3377C18.9372 58.1727 18.7134 58.08 18.48 58.08Z" fill="#F1BC19"/>
<path d="M70.4 29.04C70.1666 29.04 69.9428 29.1328 69.7778 29.2978C69.6127 29.4628 69.52 29.6866 69.52 29.92C69.52 30.1534 69.6127 30.3773 69.7778 30.5423C69.9428 30.7073 70.1666 30.8 70.4 30.8C70.6334 30.8 70.8572 30.7073 71.0223 30.5423C71.1873 30.3773 71.28 30.1534 71.28 29.92C71.28 29.6866 71.1873 29.4628 71.0223 29.2978C70.8572 29.1328 70.6334 29.04 70.4 29.04Z" fill="white"/>
<path d="M57.2 24.64C60.5968 24.64 63.36 27.4032 63.36 30.8V57.2C63.36 60.5968 60.5968 63.36 57.2 63.36H30.8C27.4032 63.36 24.64 60.5968 24.64 57.2V30.8C24.64 27.4032 27.4032 24.64 30.8 24.64H57.2Z" fill="#C0D078"/>
<path d="M57.2 24.992C60.4023 24.992 63.008 27.5977 63.008 30.8V57.2C63.008 60.4023 60.4023 63.008 57.2 63.008H30.8C27.5977 63.008 24.992 60.4023 24.992 57.2V30.8C24.992 27.5977 27.5977 24.992 30.8 24.992H57.2ZM57.2 23.76H30.8C26.9122 23.76 23.76 26.9122 23.76 30.8V57.2C23.76 61.0879 26.9122 64.24 30.8 64.24H57.2C61.0879 64.24 64.24 61.0879 64.24 57.2V30.8C64.24 26.9122 61.0879 23.76 57.2 23.76Z" fill="#472B29"/>
<path d="M55.44 60.72H32.56C29.6481 60.72 27.28 58.352 27.28 55.44V32.56C27.28 29.6481 29.6481 27.28 32.56 27.28H55.44C58.352 27.28 60.72 29.6481 60.72 32.56V55.44C60.72 58.352 58.352 60.72 55.44 60.72Z" fill="#FDFCEE"/>
<path d="M55.44 60.72H32.56C29.6481 60.72 27.28 58.352 27.28 55.44V32.56C27.28 29.6481 29.6481 27.28 32.56 27.28H54.23C54.4122 27.28 54.56 27.4279 54.56 27.61C54.56 27.7922 54.4122 27.94 54.23 27.94H32.56C30.0124 27.94 27.94 30.0124 27.94 32.56V55.44C27.94 57.9876 30.0124 60.06 32.56 60.06H55.44C57.9876 60.06 60.06 57.9876 60.06 55.44V42.57C60.06 42.3879 60.2079 42.24 60.39 42.24C60.5722 42.24 60.72 42.3879 60.72 42.57V55.44C60.72 58.352 58.352 60.72 55.44 60.72ZM60.39 36.96C60.2079 36.96 60.06 36.8122 60.06 36.63V35.5054C60.06 35.3232 60.2079 35.1754 60.39 35.1754C60.5722 35.1754 60.72 35.3232 60.72 35.5054V36.63C60.72 36.8122 60.5722 36.96 60.39 36.96Z" fill="#472B29"/>
<path d="M60.3901 41.36C60.2079 41.36 60.0601 41.2121 60.0601 41.03V38.17C60.0601 37.9878 60.2079 37.84 60.3901 37.84C60.5722 37.84 60.7201 37.9878 60.7201 38.17V41.03C60.7201 41.2121 60.5722 41.36 60.3901 41.36Z" fill="#472B29"/>
<path d="M47.5201 32.89C45.5071 32.89 43.5765 33.6897 42.1531 35.1131C40.7297 36.5365 39.9301 38.467 39.9301 40.48C39.9301 42.493 40.7297 44.4236 42.1531 45.847C43.5765 47.2704 45.5071 48.07 47.5201 48.07C49.533 48.07 51.4636 47.2704 52.887 45.847C54.3104 44.4236 55.1101 42.493 55.1101 40.48C55.1101 38.467 54.3104 36.5365 52.887 35.1131C51.4636 33.6897 49.533 32.89 47.5201 32.89Z" fill="#E1E0D8"/>
<path d="M47.5201 34.54C46.74 34.54 45.9676 34.6937 45.2469 34.9922C44.5263 35.2907 43.8714 35.7282 43.3199 36.2798C42.7683 36.8314 42.3307 37.4862 42.0322 38.2069C41.7337 38.9276 41.5801 39.7 41.5801 40.48C41.5801 41.2601 41.7337 42.0325 42.0322 42.7532C42.3307 43.4739 42.7683 44.1287 43.3199 44.6803C43.8714 45.2318 44.5263 45.6694 45.2469 45.9679C45.9676 46.2664 46.74 46.42 47.5201 46.42C48.3001 46.42 49.0725 46.2664 49.7932 45.9679C50.5139 45.6694 51.1687 45.2318 51.7203 44.6803C52.2719 44.1287 52.7094 43.4739 53.0079 42.7532C53.3064 42.0325 53.4601 41.2601 53.4601 40.48C53.4601 39.7 53.3064 38.9276 53.0079 38.2069C52.7094 37.4862 52.2719 36.8314 51.7203 36.2798C51.1687 35.7282 50.5139 35.2907 49.7932 34.9922C49.0725 34.6937 48.3001 34.54 47.5201 34.54Z" fill="#A8DBDB"/>
<path d="M40.5144 47.4857C39.8271 46.7984 38.713 46.7984 38.0257 47.4857C37.5303 47.9811 33.902 51.6094 33.4057 52.1057C32.7184 52.793 32.7184 53.907 33.4057 54.5943C34.093 55.2816 35.2071 55.2816 35.8944 54.5943C36.3907 54.098 40.0189 50.4698 40.5144 49.9743C41.2016 49.287 41.2016 48.173 40.5144 47.4857Z" fill="#88AE45"/>
<path d="M40.5144 49.9743C41.2017 49.287 41.2017 48.173 40.5144 47.4857C39.8271 46.7984 38.713 46.7984 38.0258 47.4857L40.5144 49.9743Z" fill="#D1DC82"/>
<path d="M47.5201 48.4001C43.1535 48.4001 39.6001 44.8466 39.6001 40.4801C39.6001 36.1135 43.1535 32.5601 47.5201 32.5601C51.8867 32.5601 55.4401 36.1135 55.4401 40.4801C55.4401 44.8466 51.8867 48.4001 47.5201 48.4001ZM47.5201 33.2201C43.517 33.2201 40.2601 36.4769 40.2601 40.4801C40.2601 44.4832 43.517 47.7401 47.5201 47.7401C51.5232 47.7401 54.7801 44.4832 54.7801 40.4801C54.7801 36.4769 51.5232 33.2201 47.5201 33.2201Z" fill="#472B29"/>
<path d="M47.5201 46.6401C44.1233 46.6401 41.3601 43.8769 41.3601 40.4801C41.3601 37.0833 44.1233 34.3201 47.5201 34.3201C50.9169 34.3201 53.6801 37.0833 53.6801 40.4801C53.6801 43.8769 50.9169 46.6401 47.5201 46.6401ZM47.5201 34.7601C44.3662 34.7601 41.8001 37.3261 41.8001 40.4801C41.8001 43.634 44.3662 46.2001 47.5201 46.2001C50.674 46.2001 53.2401 43.634 53.2401 40.4801C53.2401 37.3261 50.674 34.7601 47.5201 34.7601Z" fill="#472B29"/>
<path d="M40.3062 47.0706L41.8182 45.5585L42.4405 46.1807L40.9284 47.6928L40.3062 47.0706Z" fill="#472B29"/>
<path d="M34.6501 55.4401C34.0921 55.4401 33.5668 55.2227 33.1725 54.8276C32.7774 54.4333 32.5601 53.908 32.5601 53.3501C32.5601 52.7921 32.7774 52.2668 33.1725 51.8725L37.7925 47.2525C38.581 46.4632 39.9582 46.4632 40.7476 47.2525C41.1427 47.6477 41.3601 48.1721 41.3601 48.7301C41.3601 49.288 41.1427 49.8133 40.7476 50.2076L36.1276 54.8276C35.7333 55.2227 35.208 55.4401 34.6501 55.4401ZM39.2701 47.3001C38.8881 47.3001 38.5291 47.4488 38.2589 47.7189L33.6389 52.3389C33.3688 52.6091 33.2201 52.9681 33.2201 53.3501C33.2201 53.732 33.3688 54.091 33.6389 54.3612C34.1793 54.9015 35.1209 54.9015 35.6612 54.3612L40.2812 49.7412C40.5513 49.471 40.7001 49.112 40.7001 48.7301C40.7001 48.3481 40.5513 47.9891 40.2812 47.7189C40.011 47.4488 39.652 47.3001 39.2701 47.3001Z" fill="#472B29"/>
<path d="M37.881 47.8082L38.3477 47.3415L40.7471 49.7409L40.2804 50.2076L37.881 47.8082Z" fill="#472B29"/>
<path d="M35.64 52.8001C35.5934 52.8001 35.5494 52.7702 35.5353 52.7235L34.8753 50.6335C34.8568 50.5755 34.8894 50.5139 34.9475 50.4954C35.0073 50.4787 35.0672 50.5095 35.0856 50.5675L35.7456 52.6575C35.7641 52.7156 35.7316 52.7772 35.6735 52.7957C35.662 52.7983 35.6506 52.8001 35.64 52.8001ZM35.2 53.6801C35.1534 53.6801 35.1094 53.6502 35.0953 53.6035L34.2655 50.9759C34.247 50.9178 34.2796 50.8562 34.3376 50.8377C34.3975 50.8201 34.4582 50.8518 34.4758 50.9099L35.3056 53.5375C35.3241 53.5956 35.2916 53.6572 35.2335 53.6757C35.222 53.6783 35.2106 53.6801 35.2 53.6801ZM34.9325 55.1075C34.8859 55.1075 34.8419 55.0775 34.8278 55.0309L33.7208 51.5241C33.7023 51.466 33.7348 51.4044 33.7929 51.3859C33.8536 51.3675 33.9126 51.4009 33.9311 51.4581L35.0381 54.9649C35.0566 55.023 35.024 55.0846 34.966 55.1031C34.9545 55.1057 34.9431 55.1075 34.9325 55.1075ZM34.2505 55.2201C34.2039 55.2201 34.1599 55.1902 34.1458 55.1435L33.1646 52.0363C33.1461 51.9782 33.1787 51.9166 33.2368 51.8981C33.2984 51.8814 33.3573 51.9131 33.3749 51.9703L34.3561 55.0775C34.3746 55.1356 34.342 55.1972 34.284 55.2157C34.2725 55.2183 34.2611 55.2201 34.2505 55.2201Z" fill="#472B29"/>
</svg>
