<svg width="88" height="88" viewBox="0 0 88 88" fill="none" xmlns="http://www.w3.org/2000/svg">
<path d="M11.4397 27.2798C12.4117 27.2798 13.1997 26.4918 13.1997 25.5198C13.1997 24.5477 12.4117 23.7598 11.4397 23.7598C10.4677 23.7598 9.67969 24.5477 9.67969 25.5198C9.67969 26.4918 10.4677 27.2798 11.4397 27.2798Z" fill="#EE3E54"/>
<path d="M67.7609 12.3186C68.2469 12.3186 68.6409 11.9246 68.6409 11.4386C68.6409 10.9526 68.2469 10.5586 67.7609 10.5586C67.2748 10.5586 66.8809 10.9526 66.8809 11.4386C66.8809 11.9246 67.2748 12.3186 67.7609 12.3186Z" fill="#F1BC19"/>
<path d="M43.5 76C61.4493 76 76 61.4493 76 43.5C76 25.5507 61.4493 11 43.5 11C25.5507 11 11 25.5507 11 43.5C11 61.4493 25.5507 76 43.5 76Z" fill="#FCE0A2"/>
<path d="M73.0395 16.7197C74.9836 16.7197 76.5595 15.1437 76.5595 13.1997C76.5595 11.2556 74.9836 9.67969 73.0395 9.67969C71.0955 9.67969 69.5195 11.2556 69.5195 13.1997C69.5195 15.1437 71.0955 16.7197 73.0395 16.7197Z" fill="#F1BC19"/>
<path d="M76.5608 22.8794C77.5328 22.8794 78.3208 22.0914 78.3208 21.1194C78.3208 20.1474 77.5328 19.3594 76.5608 19.3594C75.5888 19.3594 74.8008 20.1474 74.8008 21.1194C74.8008 22.0914 75.5888 22.8794 76.5608 22.8794Z" fill="#EE3E54"/>
<path d="M71.2795 68.6411C72.2515 68.6411 73.0395 67.8531 73.0395 66.8811C73.0395 65.9091 72.2515 65.1211 71.2795 65.1211C70.3075 65.1211 69.5195 65.9091 69.5195 66.8811C69.5195 67.8531 70.3075 68.6411 71.2795 68.6411Z" fill="#FBCD59"/>
<path d="M13.1997 58.9599C15.1437 58.9599 16.7197 57.384 16.7197 55.4399C16.7197 53.4959 15.1437 51.9199 13.1997 51.9199C11.2556 51.9199 9.67969 53.4959 9.67969 55.4399C9.67969 57.384 11.2556 58.9599 13.1997 58.9599Z" fill="#FBCD59"/>
<path d="M22.0002 78.3208C22.9723 78.3208 23.7602 77.5328 23.7602 76.5608C23.7602 75.5888 22.9723 74.8008 22.0002 74.8008C21.0282 74.8008 20.2402 75.5888 20.2402 76.5608C20.2402 77.5328 21.0282 78.3208 22.0002 78.3208Z" fill="#EE3E54"/>
<path d="M16.2801 49.2789C17.4951 49.2789 18.4801 48.2939 18.4801 47.0789C18.4801 45.8639 17.4951 44.8789 16.2801 44.8789C15.0651 44.8789 14.0801 45.8639 14.0801 47.0789C14.0801 48.2939 15.0651 49.2789 16.2801 49.2789Z" fill="white"/>
<path d="M18.4796 59.8401C18.9656 59.8401 19.3596 59.4461 19.3596 58.9601C19.3596 58.4741 18.9656 58.0801 18.4796 58.0801C17.9936 58.0801 17.5996 58.4741 17.5996 58.9601C17.5996 59.4461 17.9936 59.8401 18.4796 59.8401Z" fill="#F1BC19"/>
<path d="M70.3995 30.7991C70.8855 30.7991 71.2795 30.4051 71.2795 29.9191C71.2795 29.4331 70.8855 29.0391 70.3995 29.0391C69.9135 29.0391 69.5195 29.4331 69.5195 29.9191C69.5195 30.4051 69.9135 30.7991 70.3995 30.7991Z" fill="white"/>
<path d="M60.8265 62.0627C60.4701 60.1742 59.7001 59.0681 57.8855 58.5198C57.8063 58.4961 57.7007 58.4573 57.5819 58.4116C57.4447 58.3517 57.2704 58.2813 57.0663 58.2021C55.9671 57.7375 49.434 55.3272 49.434 55.3272C48.8955 55.1908 48.5452 54.8071 48.3428 54.375C48.0084 53.6613 48.1378 51.8107 48.1378 51.8107C48.1378 51.8107 45.4063 52.7453 43.7017 53.0638C42.0297 53.2266 38.4367 51.0645 38.4367 51.0645C38.4367 51.0645 38.3522 53.737 38.2387 54.331C38.1489 54.7974 37.6473 55.1917 37.1087 55.3281L30.8396 57.6011C30.1462 57.7824 29.4809 58.0411 28.8957 58.4028C27.3179 59.3769 26.5188 60.8395 26.1123 62.0636C26.1123 62.0636 25.6995 64.9817 25.7163 65.0864C25.6775 65.4947 25.6371 65.9444 25.5957 66.4169C32.428 71.0431 37.9157 72.3393 47.3308 71.9275C51.6085 71.7401 57.9779 69.6281 61.3149 67.9437C61.138 64.2257 60.8265 62.0627 60.8265 62.0627Z" fill="#FABF82"/>
<path d="M57.8864 58.5563C57.8072 58.5326 57.7016 58.4938 57.5828 58.4481C57.4455 58.3882 57.2713 58.3178 57.0671 58.2386C56.3869 57.9509 53.6307 56.9204 51.6252 56.175L51.5311 56.1504C49.317 57.2856 46.1666 58.9893 43.2731 58.9893C40.3797 58.9893 37.4783 57.4493 35.0152 56.1504L34.7389 56.2234L30.8396 57.6376C30.1462 57.8189 29.4809 58.0776 28.8957 58.4393C27.3179 59.4134 26.5188 60.876 26.1123 62.1001C26.1123 62.1001 25.6995 65.0182 25.7163 65.1229C25.6775 65.5312 25.6371 69.9136 25.5957 70.3862C32.428 75.0123 37.9157 76.3086 47.3308 75.8967C51.6085 75.7093 57.9779 73.5973 61.3149 71.913C61.138 68.1958 60.8274 62.1001 60.8274 62.1001C60.471 60.2107 59.701 59.1046 57.8864 58.5563Z" fill="#88CDD7"/>
<path d="M33.9127 40.7928C33.7737 40.4875 30.5361 33.2609 32.9957 28.3461C34.0148 26.3107 35.8619 24.9783 38.4878 24.3843C39.9997 23.3424 41.8133 22.7695 43.6059 22.7695C45.1098 22.7695 46.5706 23.1585 47.9478 23.9267C48.6782 24.3342 49.2687 24.6783 49.7641 24.966C51.3323 25.8786 51.8612 26.1857 52.794 26.1857C52.8969 26.1857 53.0052 26.1822 53.1196 26.1751L53.2331 26.1681C53.366 26.1593 53.4971 26.1514 53.6203 26.1514C54.4343 26.1514 54.6622 26.5843 54.7106 26.9478C54.8329 27.8665 54.51 28.6594 54.2257 29.3581C53.9688 29.9882 53.7479 30.5311 53.8975 31.0239C55.5149 36.3365 53.0078 40.6555 52.9005 40.8368L52.0715 42.2325L52.0821 40.6089C52.0821 40.5658 52.0961 36.4518 51.1193 33.8206C49.8697 34.5184 48.3526 34.8845 46.6965 34.8845C43.8391 34.8845 40.6799 33.8417 37.5418 31.8661C34.7522 34.0582 34.754 40.5429 34.754 40.6098L34.7654 42.6646L33.9127 40.7928Z" fill="#BE7841"/>
<path d="M43.6041 23.2101C44.9347 23.2101 46.34 23.5357 47.7313 24.311C50.8412 26.0454 51.4185 26.6254 52.7913 26.6254C52.9031 26.6254 53.0192 26.6218 53.1433 26.6139C53.3052 26.6042 53.468 26.591 53.6176 26.591C53.9555 26.591 54.2266 26.6606 54.2723 27.0046C54.4879 28.6256 53.0879 29.8787 53.4751 31.1503C55.0547 36.3379 52.5203 40.6103 52.5203 40.6103C52.5203 40.6103 52.5511 35.8742 51.3287 33.1752C50.0677 34.0077 48.4855 34.4424 46.6938 34.4424C43.986 34.4424 40.7995 33.448 37.5242 31.3325C34.2735 33.4955 34.3122 40.6103 34.3122 40.6103C34.3122 40.6103 28.1557 27.0935 38.6673 24.7958C40.0023 23.8551 41.7297 23.2101 43.6041 23.2101ZM43.6041 22.3301C41.7508 22.3301 39.8773 22.9135 38.3065 23.9757C35.5899 24.6093 33.6707 26.0129 32.6006 28.1504C30.0477 33.2509 33.3679 40.6631 33.5105 40.9764L35.2089 44.7058L35.1913 40.6077C35.1834 38.8785 35.6128 34.2699 37.5823 32.4105C40.6992 34.3192 43.8382 35.325 46.6938 35.325C48.2259 35.325 49.6462 35.0232 50.865 34.445C51.6535 36.9918 51.6403 40.5663 51.6403 40.6068L51.6191 43.8558L53.2771 41.0609C53.3888 40.8726 55.9901 36.3916 54.3163 30.8951C54.2116 30.5528 54.4061 30.0758 54.6305 29.5241C54.9209 28.8113 55.2817 27.9242 55.1435 26.8894C55.1066 26.613 54.8883 25.711 53.6167 25.711C53.4847 25.711 53.3448 25.7198 53.2023 25.7286L53.0905 25.7357C52.9849 25.7418 52.8855 25.7454 52.7904 25.7454C52.0063 25.7454 51.5954 25.5236 49.9823 24.5855C49.486 24.2969 48.892 23.9519 48.159 23.5427C46.7167 22.7384 45.1846 22.3301 43.6041 22.3301Z" fill="#472B29"/>
<path d="M31.5941 74.1075C31.448 74.1075 31.3301 73.9896 31.3301 73.8435V70.3675C31.3301 70.2214 31.448 70.1035 31.5941 70.1035C31.7402 70.1035 31.8581 70.2214 31.8581 70.3675V73.8435C31.8581 73.9896 31.7402 74.1075 31.5941 74.1075Z" fill="#00A5A5"/>
<path d="M54.764 74.7191C54.6179 74.7191 54.5 74.6012 54.5 74.4551V70.3675C54.5 70.2214 54.6179 70.1035 54.764 70.1035C54.9101 70.1035 55.028 70.2214 55.028 70.3675V74.4551C55.028 74.6012 54.9101 74.7191 54.764 74.7191Z" fill="#00A5A5"/>
<path d="M54.048 38.7205C53.9451 38.7134 53.8404 38.7125 53.7312 38.7125C52.882 38.6712 52.9542 38.9915 52.9929 38.4661C53.0616 37.5333 52.6172 33.7669 52.6172 33.576C52.6172 29.6547 48.5225 26.4559 43.4071 26.279V26.2676C43.3728 26.2685 43.3393 26.2729 43.3041 26.2737C43.2698 26.2729 43.2364 26.2685 43.2012 26.2676V26.279C38.0848 26.4568 33.9911 29.6547 33.9911 33.576C33.9911 33.7669 33.8608 37.5509 33.9295 38.4846C33.9682 39.01 33.7262 38.6712 32.877 38.7125C32.7679 38.7125 32.6632 38.7134 32.5602 38.7205C31.6292 38.7829 30.8759 39.3752 30.7148 40.1091C30.8292 40.1786 31.2525 43.3924 31.9389 44.6587C32.3226 45.3653 32.921 45.4639 33.5361 45.9206C33.8767 46.1732 33.9427 46.4592 34.036 46.8367C34.3809 48.2359 35.3392 49.4257 36.3891 50.4412C36.9074 50.9428 40.3482 54.6106 43.3041 54.4249C46.2741 54.3132 49.7008 50.9428 50.2192 50.4412C51.269 49.4257 52.2273 48.2359 52.5723 46.8367C52.6656 46.4583 52.7307 46.1732 53.0721 45.9206C53.6872 45.4639 54.2856 45.3662 54.6693 44.6587C55.3557 43.3924 55.7799 40.1786 55.8934 40.1091C55.7324 39.3752 54.9791 38.7821 54.048 38.7205Z" fill="#FDDBBC"/>
<path d="M43.3572 44.9324C43.9582 44.9324 44.5408 44.6702 44.9157 44.231C44.9535 44.187 44.9482 44.1201 44.9042 44.0823C44.8602 44.0445 44.7942 44.0489 44.7555 44.0929C44.4502 44.4422 43.9398 44.6429 43.3572 44.6429C42.7738 44.6429 42.2642 44.4422 41.9589 44.0929C41.9378 44.0691 41.9087 44.0568 41.8788 44.0568C41.8542 44.0568 41.8295 44.0656 41.8102 44.0823C41.7662 44.1201 41.7609 44.187 41.7987 44.231C42.1736 44.6702 42.7562 44.9324 43.3572 44.9324Z" fill="#512C2B"/>
<path d="M41.4394 36.8143L41.8205 36.0821C40.2083 35.7046 38.3524 35.7645 36.8203 36.2397L37.3008 36.9533C38.5601 36.538 40.1089 36.4852 41.4394 36.8143Z" fill="#512C2B"/>
<path d="M49.5097 36.8143L49.8908 36.0821C48.2786 35.7046 46.4227 35.7645 44.8906 36.2397L45.3711 36.9533C46.6313 36.538 48.1801 36.4852 49.5097 36.8143Z" fill="#512C2B"/>
<path d="M39.1187 37.8477C38.7315 37.8477 38.3918 38.1037 38.1956 38.4909C38.2449 38.476 38.295 38.4654 38.3487 38.4654C38.6664 38.4654 38.9233 38.7532 38.9233 39.1069C38.9233 39.4616 38.6655 39.7485 38.3487 39.7485C38.2449 39.7485 38.1489 39.715 38.0645 39.6613C38.2 40.243 38.6206 40.6663 39.1196 40.6663C39.7277 40.6663 40.2213 40.0353 40.2213 39.2565C40.2205 38.4795 39.7268 37.8477 39.1187 37.8477Z" fill="#512C2B"/>
<path d="M47.5473 37.8477C47.2164 37.8477 46.9207 38.0351 46.7192 38.3299C46.7825 38.3035 46.8503 38.2868 46.9216 38.2868C47.2393 38.2868 47.4962 38.5745 47.4962 38.9283C47.4962 39.2829 47.2384 39.5698 46.9216 39.5698C46.7245 39.5698 46.5511 39.4589 46.4473 39.29C46.4613 40.0529 46.948 40.6654 47.5473 40.6654C48.1553 40.6654 48.649 40.0345 48.649 39.2557C48.6481 38.4795 48.1553 37.8477 47.5473 37.8477Z" fill="#512C2B"/>
<path d="M48.0142 46.5663C48.0591 46.5294 48.0661 46.4634 48.03 46.4185C47.9939 46.3736 47.9271 46.3657 47.8813 46.4027C46.8887 47.1938 45.2395 47.6479 43.3572 47.6479C41.4749 47.6479 39.8258 47.1938 38.8323 46.4018C38.8129 46.3859 38.79 46.3789 38.7663 46.3789C38.7355 46.3789 38.7047 46.3921 38.6836 46.4185C38.6475 46.4634 38.6536 46.5303 38.6985 46.5672C39.8196 47.4833 41.5612 48.0307 43.3564 48.0307C45.1516 48.0298 46.8922 47.4833 48.0142 46.5663Z" fill="#512C2B"/>
<path d="M44.5855 51.2021C44.64 51.2021 44.6858 51.1387 44.6858 51.0639C44.6858 50.9891 44.64 50.9258 44.5855 50.9258H42.323C42.2684 50.9258 42.2227 50.9891 42.2227 51.0639C42.2227 51.1387 42.2684 51.2021 42.323 51.2021H44.5855Z" fill="#512C2B"/>
<path d="M44.2826 76.5275C36.4453 76.5275 31.388 74.9602 25.3477 70.8708C25.2157 70.7811 25.1426 70.628 25.1558 70.4687C25.1637 70.3736 25.1681 70.0507 25.1743 69.5834C25.2033 67.6632 25.2623 63.6689 25.6865 62.106C26.262 59.9791 27.105 59.1475 28.6626 58.1856C29.2452 57.8257 29.9395 57.5397 30.7262 57.3329L36.9566 55.0722C37.3993 54.9578 37.7539 54.67 37.8041 54.406C37.8296 54.2758 37.8789 53.8692 37.9387 52.6126C37.0323 51.9711 36.294 51.3938 36.0801 51.1844C34.7065 49.8415 33.9206 48.6165 33.6065 47.3291C33.5105 46.9357 33.4692 46.7993 33.2703 46.6506C33.0881 46.5133 32.906 46.4121 32.7335 46.3144C32.3085 46.0751 31.8693 45.826 31.5499 45.2303C30.8125 43.854 30.273 41.2518 30.273 40.422C30.273 40.3903 30.2765 40.3595 30.2827 40.3287C30.4895 39.3739 31.4135 38.654 32.5285 38.5792C32.6402 38.5722 32.7564 38.5687 32.8761 38.5704C33.1145 38.559 33.3169 38.5757 33.4771 38.5977C33.4454 37.5364 33.5088 35.2898 33.5369 34.2743C33.544 34.02 33.5493 33.8528 33.5493 33.8158C33.5493 29.6455 37.7319 26.2267 43.0885 26.0005C43.1281 25.9891 43.165 25.9829 43.2108 25.9847L43.3023 26.4247L43.3199 25.9891C43.356 25.99 43.3885 25.9908 43.4255 25.997C48.8261 26.188 53.0553 29.6217 53.0553 33.8158C53.058 33.8748 53.087 34.13 53.1257 34.4881C53.2982 36.0712 53.4786 37.818 53.4293 38.4992L53.4249 38.5546C53.4901 38.5581 53.5631 38.5616 53.6353 38.5652L53.7505 38.5704C53.8473 38.5704 53.9626 38.5704 54.077 38.5792C55.1911 38.654 56.1142 39.3739 56.321 40.3287C56.3272 40.3595 56.3307 40.3903 56.3307 40.4211C56.3307 41.3794 55.7587 43.9147 55.0547 45.2294C54.7353 45.8252 54.2961 46.0733 53.8711 46.3136C53.6977 46.4112 53.5165 46.5124 53.3334 46.6497C53.1345 46.7993 53.0932 46.9366 53.0025 47.3106C52.6849 48.6148 51.899 49.8406 50.5253 51.1835C50.3027 51.4017 49.5098 52.0476 48.5524 52.7393C48.5506 53.4944 48.6184 54.0857 48.7398 54.3453C48.8639 54.6093 49.1033 54.9472 49.5415 55.059C49.8521 55.1708 56.1406 57.4913 57.2371 57.9551C57.4351 58.0316 57.6137 58.1047 57.7554 58.1654C57.8461 58.1997 57.9411 58.2349 58.0124 58.256C59.8815 58.821 60.8521 59.9817 61.2587 62.1386C61.2622 62.158 61.2649 62.1782 61.2657 62.1976C61.2657 62.1976 61.5773 68.2933 61.7533 72.0113C61.7612 72.1847 61.667 72.3466 61.5121 72.4249C57.9543 74.221 51.5277 76.2732 47.3494 76.4553C46.2793 76.5028 45.2594 76.5275 44.2826 76.5275ZM26.0437 70.2777C32.5645 74.646 37.9651 75.9845 47.3107 75.5762C51.2751 75.4028 57.3401 73.4897 60.861 71.7658C60.6902 68.1886 60.4121 62.7247 60.3884 62.2715C60.0399 60.4552 59.3007 59.5637 57.7581 59.0973C57.6718 59.0718 57.5548 59.0296 57.4228 58.9794C57.2732 58.9152 57.1042 58.8465 56.9062 58.7691C55.8168 58.3088 49.3461 55.9214 49.281 55.8968C48.7222 55.7568 48.2321 55.3336 47.9434 54.7184C47.7445 54.2943 47.6539 53.548 47.675 52.5017C47.6777 52.3627 47.7463 52.2324 47.8598 52.1524C48.9308 51.3894 49.736 50.725 49.9102 50.5543C51.1607 49.3311 51.8709 48.2399 52.1437 47.1196C52.244 46.7043 52.3443 46.2924 52.8063 45.9457C53.0219 45.7838 53.2349 45.6624 53.439 45.5471C53.8113 45.3368 54.0805 45.1845 54.2794 44.814C54.9429 43.5768 55.4313 41.2747 55.4516 40.4704C55.3081 39.9265 54.7141 39.5032 54.0172 39.4566C53.9239 39.4496 53.8306 39.4513 53.7321 39.4496L53.5948 39.4434C53.1099 39.4205 52.8661 39.4091 52.6778 39.1944C52.5053 38.9972 52.5247 38.7684 52.5432 38.5476L52.5529 38.4349C52.6004 37.7758 52.3654 35.6198 52.2519 34.5832C52.2061 34.1616 52.1762 33.8686 52.1762 33.8149C52.1762 30.096 48.3165 27.0477 43.3903 26.8752C43.3683 26.8752 43.3463 26.8726 43.3243 26.8682C43.3058 26.8682 43.2909 26.87 43.2917 26.8691L43.2909 26.8656C43.2662 26.8708 43.2407 26.8744 43.2152 26.8752C38.2881 27.0477 34.4293 30.096 34.4293 33.8149C34.4293 33.8528 34.4249 34.0305 34.4169 34.298C34.3888 35.3127 34.3131 38.0072 34.3668 38.7473C34.3773 38.8864 34.3985 39.1759 34.1829 39.3739C33.9752 39.564 33.7191 39.5244 33.5123 39.4918C33.3565 39.4672 33.1638 39.4364 32.8972 39.4496C32.7766 39.4496 32.6825 39.4504 32.5909 39.4566C31.8931 39.5041 31.2982 39.9265 31.1548 40.4704C31.1759 41.2676 31.6977 43.6419 32.3269 44.814C32.5258 45.1854 32.7951 45.3376 33.1673 45.5471C33.3715 45.6624 33.5845 45.7847 33.8001 45.9457C34.2612 46.2916 34.3615 46.7025 34.4583 47.1003C34.7355 48.2399 35.4457 49.332 36.6961 50.5552C36.8695 50.725 37.643 51.3322 38.6418 52.03C38.7659 52.1163 38.8363 52.2597 38.8293 52.4111C38.7782 53.556 38.7237 54.2828 38.6691 54.5715C38.5336 55.2764 37.8419 55.7533 37.2153 55.9117L30.9885 58.1716C30.2475 58.3678 29.6333 58.6204 29.1255 58.9336C27.7131 59.8057 27.0408 60.471 26.5357 62.3357C26.1414 63.7921 26.0807 67.8586 26.0552 69.5957C26.0517 69.8773 26.0481 70.1096 26.0437 70.2777Z" fill="#472B29"/>
<path d="M54.1019 43.0152L53.5765 42.9562L53.7534 41.3907L52.8637 41.7761L52.6543 41.2913L53.962 40.7245C54.0482 40.6876 54.1477 40.699 54.2233 40.7545C54.299 40.8099 54.3395 40.9023 54.3289 40.9965L54.1019 43.0152Z" fill="#895D3D"/>
<path d="M32.7912 42.7148L32.5642 40.6961C32.5536 40.6028 32.5941 40.5104 32.6698 40.4541C32.7446 40.3986 32.8458 40.3863 32.9311 40.4241L34.2388 40.9909L34.0294 41.4757L33.1397 41.0903L33.3166 42.6558L32.7912 42.7148Z" fill="#895D3D"/>
<path d="M33.969 46.6215C33.9681 46.6215 33.9672 46.6215 33.9655 46.6215C33.8687 46.6198 33.7912 46.5388 33.793 46.442L33.9382 38.8326C33.94 38.7367 34.0183 38.6602 34.1142 38.6602C34.1151 38.6602 34.116 38.6602 34.1177 38.6602C34.2145 38.6619 34.2919 38.7429 34.2902 38.8397L34.145 46.449C34.1424 46.545 34.064 46.6215 33.969 46.6215Z" fill="#472B29"/>
<path d="M52.7832 46.6215C52.6873 46.6215 52.609 46.545 52.6072 46.449L52.4629 38.8397C52.4612 38.7429 52.5386 38.6619 52.6354 38.6602C52.6363 38.6602 52.638 38.6602 52.6389 38.6602C52.7348 38.6602 52.8132 38.7367 52.8149 38.8326L52.9592 46.442C52.961 46.5388 52.8836 46.6198 52.7868 46.6215C52.785 46.6215 52.7841 46.6215 52.7832 46.6215Z" fill="#472B29"/>
<path d="M43.4021 54.6433C41.5338 54.6433 38.3878 52.3447 38.2497 52.2426C38.152 52.1704 38.1309 52.0332 38.203 51.9355C38.2761 51.8369 38.4142 51.8167 38.5102 51.8888C38.5445 51.9135 41.9316 54.3819 43.579 54.1936C45.2642 54.0026 47.9631 52.1009 47.9904 52.0816C48.089 52.012 48.2262 52.034 48.2975 52.1344C48.3679 52.2338 48.3442 52.3711 48.2447 52.4415C48.1303 52.5224 45.427 54.4268 43.6291 54.6318C43.5552 54.6397 43.4795 54.6433 43.4021 54.6433Z" fill="#472B29"/>
<path d="M54.2722 27.0607C54.2062 26.5635 53.6712 26.6383 53.1432 26.67C51.4958 26.7676 51.0937 26.2423 47.7312 24.367C44.3801 22.4979 40.9517 23.2432 38.6663 24.8519C28.1547 27.1496 34.3112 40.6664 34.3112 40.6664C34.3112 40.6664 34.2725 33.5516 37.5232 31.3885C42.9669 34.905 48.1606 35.3221 51.3277 33.2312C52.5501 35.9302 52.5193 40.6664 52.5193 40.6664C52.5193 40.6664 55.0537 36.394 53.4741 31.2064C53.0877 29.9348 54.4878 28.6808 54.2722 27.0607Z" fill="#BE7841"/>
<path d="M52.9095 40.6278L52.4695 40.6252C52.4695 40.5794 52.4845 36.1689 51.3774 33.513C47.9234 35.581 42.6214 34.8647 37.4312 31.6114C34.3767 33.7753 34.3767 40.5557 34.3776 40.6252L33.9376 40.6278C33.9358 40.3322 33.9367 33.3678 37.3062 31.1643C37.3784 31.1177 37.4717 31.1168 37.5447 31.1634C42.7376 34.459 48.0308 35.1648 51.3572 33.007C51.4117 32.9727 51.4777 32.963 51.5385 32.9806C51.6001 32.9991 51.6502 33.0422 51.6775 33.1003C52.9262 35.8125 52.9104 40.4334 52.9095 40.6278Z" fill="#472B29"/>
</svg>
