<svg width="102" height="102" viewBox="0 0 102 102" fill="none" xmlns="http://www.w3.org/2000/svg">
<g filter="url(#filter0_ddd_2111_30865)">
<path d="M18.4401 28.76C17.9733 28.76 17.5256 28.9454 17.1955 29.2755C16.8655 29.6056 16.6801 30.0532 16.6801 30.52C16.6801 30.9868 16.8655 31.4345 17.1955 31.7645C17.5256 32.0946 17.9733 32.28 18.4401 32.28C18.9068 32.28 19.3545 32.0946 19.6846 31.7645C20.0146 31.4345 20.2001 30.9868 20.2001 30.52C20.2001 30.0532 20.0146 29.6056 19.6846 29.2755C19.3545 28.9454 18.9068 28.76 18.4401 28.76Z" fill="#F1BC19"/>
<path d="M74.76 15.5601C74.5266 15.5601 74.3028 15.6528 74.1378 15.8178C73.9727 15.9828 73.88 16.2067 73.88 16.4401C73.88 16.6734 73.9727 16.8973 74.1378 17.0623C74.3028 17.2273 74.5266 17.3201 74.76 17.3201C74.9934 17.3201 75.2172 17.2273 75.3823 17.0623C75.5473 16.8973 75.64 16.6734 75.64 16.4401C75.64 16.2067 75.5473 15.9828 75.3823 15.8178C75.2172 15.6528 74.9934 15.5601 74.76 15.5601Z" fill="#F1BC19"/>
<path d="M50.9999 16.4399C42.3645 16.4399 34.0827 19.8704 27.9765 25.9765C21.8704 32.0827 18.4399 40.3645 18.4399 48.9999C18.4399 57.6354 21.8704 65.9171 27.9765 72.0233C34.0827 78.1295 42.3645 81.5599 50.9999 81.5599C59.6354 81.5599 67.9171 78.1295 74.0233 72.0233C80.1295 65.9171 83.5599 57.6354 83.5599 48.9999C83.5599 40.3645 80.1295 32.0827 74.0233 25.9765C67.9171 19.8704 59.6354 16.4399 50.9999 16.4399Z" fill="#FCE0A2"/>
<path d="M80.04 14.6801C79.1065 14.6801 78.2111 15.0509 77.551 15.711C76.8909 16.3712 76.52 17.2665 76.52 18.2001C76.52 19.1336 76.8909 20.0289 77.551 20.6891C78.2111 21.3492 79.1065 21.7201 80.04 21.7201C80.9736 21.7201 81.8689 21.3492 82.529 20.6891C83.1892 20.0289 83.56 19.1336 83.56 18.2001C83.56 17.2665 83.1892 16.3712 82.529 15.711C81.8689 15.0509 80.9736 14.6801 80.04 14.6801Z" fill="#F1BC19"/>
<path d="M83.56 24.36C83.0933 24.36 82.6456 24.5454 82.3155 24.8755C81.9855 25.2055 81.8 25.6532 81.8 26.12C81.8 26.5868 81.9855 27.0344 82.3155 27.3645C82.6456 27.6946 83.0933 27.88 83.56 27.88C84.0268 27.88 84.4745 27.6946 84.8046 27.3645C85.1346 27.0344 85.32 26.5868 85.32 26.12C85.32 25.6532 85.1346 25.2055 84.8046 24.8755C84.4745 24.5454 84.0268 24.36 83.56 24.36Z" fill="#F1BC19"/>
<path d="M78.2801 70.12C77.8133 70.12 77.3656 70.3055 77.0355 70.6355C76.7055 70.9656 76.5201 71.4133 76.5201 71.88C76.5201 72.3468 76.7055 72.7945 77.0355 73.1246C77.3656 73.4546 77.8133 73.64 78.2801 73.64C78.7468 73.64 79.1945 73.4546 79.5246 73.1246C79.8546 72.7945 80.0401 72.3468 80.0401 71.88C80.0401 71.4133 79.8546 70.9656 79.5246 70.6355C79.1945 70.3055 78.7468 70.12 78.2801 70.12ZM20.2001 56.92C19.2665 56.92 18.3712 57.2909 17.711 57.951C17.0509 58.6112 16.6801 59.5065 16.6801 60.44C16.6801 61.3736 17.0509 62.2689 17.711 62.9291C18.3712 63.5892 19.2665 63.96 20.2001 63.96C21.1336 63.96 22.0289 63.5892 22.6891 62.9291C23.3492 62.2689 23.7201 61.3736 23.7201 60.44C23.7201 59.5065 23.3492 58.6112 22.6891 57.951C22.0289 57.2909 21.1336 56.92 20.2001 56.92Z" fill="#FBCD59"/>
<path d="M29 79.8C28.5332 79.8 28.0855 79.9855 27.7555 80.3155C27.4254 80.6456 27.24 81.0933 27.24 81.56C27.24 82.0268 27.4254 82.4745 27.7555 82.8046C28.0855 83.1346 28.5332 83.32 29 83.32C29.4668 83.32 29.9144 83.1346 30.2445 82.8046C30.5746 82.4745 30.76 82.0268 30.76 81.56C30.76 81.0933 30.5746 80.6456 30.2445 80.3155C29.9144 79.9855 29.4668 79.8 29 79.8Z" fill="#F1BC19"/>
<path d="M23.28 49.88C22.6965 49.88 22.1369 50.1118 21.7243 50.5244C21.3117 50.9369 21.08 51.4965 21.08 52.08C21.08 52.6635 21.3117 53.2231 21.7243 53.6356C22.1369 54.0482 22.6965 54.28 23.28 54.28C23.8634 54.28 24.423 54.0482 24.8356 53.6356C25.2482 53.2231 25.48 52.6635 25.48 52.08C25.48 51.4965 25.2482 50.9369 24.8356 50.5244C24.423 50.1118 23.8634 49.88 23.28 49.88Z" fill="white"/>
<path d="M25.48 63.08C25.2466 63.08 25.0228 63.1727 24.8577 63.3377C24.6927 63.5027 24.6 63.7266 24.6 63.96C24.6 64.1933 24.6927 64.4172 24.8577 64.5822C25.0228 64.7472 25.2466 64.84 25.48 64.84C25.7134 64.84 25.9372 64.7472 26.1022 64.5822C26.2673 64.4172 26.36 64.1933 26.36 63.96C26.36 63.7266 26.2673 63.5027 26.1022 63.3377C25.9372 63.1727 25.7134 63.08 25.48 63.08Z" fill="#F1BC19"/>
<path d="M77.4 34.04C77.1666 34.04 76.9428 34.1328 76.7778 34.2978C76.6127 34.4628 76.52 34.6866 76.52 34.92C76.52 35.1534 76.6127 35.3773 76.7778 35.5423C76.9428 35.7073 77.1666 35.8 77.4 35.8C77.6334 35.8 77.8572 35.7073 78.0223 35.5423C78.1873 35.3773 78.28 35.1534 78.28 34.92C78.28 34.6866 78.1873 34.4628 78.0223 34.2978C77.8572 34.1328 77.6334 34.04 77.4 34.04Z" fill="white"/>
<path d="M63.7754 68.2283H39.5587C38.1762 68.2283 37.0507 67.1036 37.0507 65.7203C37.0507 64.3369 38.1753 63.2123 39.5587 63.2123H63.7859L63.4691 63.5766C62.9464 64.1785 62.6587 64.9388 62.6587 65.7203C62.6587 66.5008 62.9438 67.2629 63.4621 67.8648L63.7754 68.2283Z" fill="#E1E0D8"/>
<path d="M37.0507 63.5459V32.2803C37.0507 30.897 38.1753 29.7723 39.5587 29.7723H62.4387C63.8211 29.7723 64.9467 30.897 64.9467 32.2803V62.4203H39.5587C38.7711 62.4203 38.0301 62.701 37.4141 63.2317L37.0507 63.5459Z" fill="#BD977C"/>
<path d="M44.8387 29.7723H39.5587C38.1762 29.7723 37.0507 30.897 37.0507 32.2803V63.5459L37.4141 63.2326C38.0292 62.701 38.7711 62.4212 39.5587 62.4212H44.8387V29.7723Z" fill="#9F8066"/>
<path d="M65.6072 63.4593C65.814 63.4267 65.96 63.2393 65.96 63.0307V32.28C65.96 30.3361 64.384 28.76 62.44 28.76H39.56C37.6161 28.76 36.04 30.3361 36.04 32.28V65.72C36.04 66.2058 36.1386 66.6687 36.3164 67.0902C36.4941 67.5117 36.752 67.891 37.0705 68.2087C37.2298 68.3679 37.404 68.5123 37.5915 68.6381C37.9664 68.8915 38.3914 69.0737 38.8499 69.1679C39.0796 69.2154 39.3172 69.24 39.56 69.24C39.6366 69.24 65.2868 69.24 65.344 69.24C65.6837 69.24 65.9592 68.9646 65.96 68.6249C65.96 68.6249 65.96 68.6249 65.96 68.624C65.96 68.6231 65.96 68.624 65.96 68.624C65.96 68.6214 65.9583 68.6187 65.9583 68.6161C65.9539 68.2861 65.7172 68.0195 65.396 67.9376C64.4068 67.6859 63.672 66.7875 63.672 65.72C63.672 64.5787 64.5124 63.6291 65.6072 63.4593ZM39.56 29.992H62.44C63.7037 29.992 64.728 31.0163 64.728 32.28V62.2C64.728 62.2 41.3464 62.2 39.56 62.2C38.6818 62.2 37.8889 62.5335 37.272 63.0651V32.28C37.272 31.0163 38.2964 29.992 39.56 29.992ZM39.56 68.008C38.2981 68.008 37.272 66.9819 37.272 65.72C37.272 64.4581 38.2981 63.432 39.56 63.432H63.3051C62.7709 64.0463 62.44 64.8409 62.44 65.72C62.44 66.5965 62.7665 67.392 63.2972 68.008H39.56Z" fill="#472B29"/>
<path d="M44.5101 53.4C44.3279 53.4 44.1801 53.2521 44.1801 53.07V44.05C44.1801 43.8678 44.3279 43.72 44.5101 43.72C44.6922 43.72 44.8401 43.8678 44.8401 44.05V53.07C44.8401 53.2521 44.6922 53.4 44.5101 53.4ZM44.5101 57.8C44.3279 57.8 44.1801 57.6521 44.1801 57.47V56.37C44.1801 56.1878 44.3279 56.04 44.5101 56.04C44.6922 56.04 44.8401 56.1878 44.8401 56.37V57.47C44.8401 57.6521 44.6922 57.8 44.5101 57.8ZM44.5101 60.44C44.3279 60.44 44.1801 60.2921 44.1801 60.11V59.01C44.1801 58.8278 44.3279 58.68 44.5101 58.68C44.6922 58.68 44.8401 58.8278 44.8401 59.01V60.11C44.8401 60.2921 44.6922 60.44 44.5101 60.44ZM62.9901 65.72H40.7701C40.5879 65.72 40.4401 65.5721 40.4401 65.39C40.4401 65.2078 40.5879 65.06 40.7701 65.06H62.9901C63.1722 65.06 63.3201 65.2078 63.3201 65.39C63.3201 65.5721 63.1722 65.72 62.9901 65.72ZM62.9901 67.26H49.5701C49.3879 67.26 49.2401 67.1121 49.2401 66.93C49.2401 66.7478 49.3879 66.6 49.5701 66.6H62.9901C63.1722 66.6 63.3201 66.7478 63.3201 66.93C63.3201 67.1121 63.1722 67.26 62.9901 67.26ZM48.0301 67.26H46.9301C46.7479 67.26 46.6001 67.1121 46.6001 66.93C46.6001 66.7478 46.7479 66.6 46.9301 66.6H48.0301C48.2122 66.6 48.3601 66.7478 48.3601 66.93C48.3601 67.1121 48.2122 67.26 48.0301 67.26Z" fill="#472B29"/>
<path d="M40.6599 28.1H49.8999V46.14L45.2799 44.05L40.6599 46.14V28.1Z" fill="#EE3E54"/>
<path d="M49.7899 46.36C49.7451 46.36 49.6993 46.3512 49.6579 46.3318L45.2799 44.4108L40.9019 46.3327C40.8007 46.3776 40.6819 46.3679 40.5895 46.3072C40.4954 46.2456 40.4399 46.1409 40.4399 46.03V28.21C40.4399 28.0278 40.5878 27.88 40.7699 27.88H49.7899C49.9721 27.88 50.1199 28.0278 50.1199 28.21V46.03C50.1199 46.1409 50.0645 46.2456 49.9703 46.3063C49.9167 46.3415 49.8524 46.36 49.7899 46.36ZM45.2799 43.72C45.3257 43.72 45.3706 43.7297 45.4119 43.7482L49.4599 45.5249V28.54H41.0999V45.5249L45.1479 43.7482C45.1893 43.7297 45.2342 43.72 45.2799 43.72Z" fill="#472B29"/>
</g>
<defs>
<filter id="filter0_ddd_2111_30865" x="-9" y="-9" width="120" height="120" filterUnits="userSpaceOnUse" color-interpolation-filters="sRGB">
<feFlood flood-opacity="0" result="BackgroundImageFix"/>
<feColorMatrix in="SourceAlpha" type="matrix" values="0 0 0 0 0 0 0 0 0 0 0 0 0 0 0 0 0 0 127 0" result="hardAlpha"/>
<feMorphology radius="1" operator="dilate" in="SourceAlpha" result="effect1_dropShadow_2111_30865"/>
<feOffset dy="2"/>
<feGaussianBlur stdDeviation="7.5"/>
<feColorMatrix type="matrix" values="0 0 0 0 0.564706 0 0 0 0 0.643137 0 0 0 0 0.682353 0 0 0 0.11 0"/>
<feBlend mode="normal" in2="BackgroundImageFix" result="effect1_dropShadow_2111_30865"/>
<feColorMatrix in="SourceAlpha" type="matrix" values="0 0 0 0 0 0 0 0 0 0 0 0 0 0 0 0 0 0 127 0" result="hardAlpha"/>
<feMorphology radius="1" operator="dilate" in="SourceAlpha" result="effect2_dropShadow_2111_30865"/>
<feOffset dy="7"/>
<feGaussianBlur stdDeviation="5"/>
<feColorMatrix type="matrix" values="0 0 0 0 0.564706 0 0 0 0 0.643137 0 0 0 0 0.682353 0 0 0 0.14 0"/>
<feBlend mode="normal" in2="effect1_dropShadow_2111_30865" result="effect2_dropShadow_2111_30865"/>
<feColorMatrix in="SourceAlpha" type="matrix" values="0 0 0 0 0 0 0 0 0 0 0 0 0 0 0 0 0 0 127 0" result="hardAlpha"/>
<feMorphology radius="2" operator="erode" in="SourceAlpha" result="effect3_dropShadow_2111_30865"/>
<feOffset dy="4"/>
<feGaussianBlur stdDeviation="2.5"/>
<feColorMatrix type="matrix" values="0 0 0 0 0.564706 0 0 0 0 0.643137 0 0 0 0 0.682353 0 0 0 0.25 0"/>
<feBlend mode="normal" in2="effect2_dropShadow_2111_30865" result="effect3_dropShadow_2111_30865"/>
<feBlend mode="normal" in="SourceGraphic" in2="effect3_dropShadow_2111_30865" result="shape"/>
</filter>
</defs>
</svg>
