<svg width="88" height="88" viewBox="0 0 88 88" fill="none" xmlns="http://www.w3.org/2000/svg">
<path d="M11.4414 23.7617C10.4687 23.7617 9.67969 24.5469 9.67969 25.5195C9.67969 26.4922 10.4687 27.2812 11.4414 27.2812C12.4102 27.2812 13.1992 26.4922 13.1992 25.5195C13.1992 24.5469 12.4102 23.7617 11.4414 23.7617Z" fill="#F1BC19"/>
<path d="M67.7617 10.5586C67.2734 10.5586 66.8789 10.9531 66.8789 11.4414C66.8789 11.9258 67.2734 12.3203 67.7617 12.3203C68.2461 12.3203 68.6406 11.9258 68.6406 11.4414C68.6406 10.9531 68.2461 10.5586 67.7617 10.5586Z" fill="#F1BC19"/>
<path d="M44 11.4414C26.0195 11.4414 11.4414 26.0195 11.4414 44C11.4414 61.9805 26.0195 76.5586 44 76.5586C61.9805 76.5586 76.5586 61.9805 76.5586 44C76.5586 26.0195 61.9805 11.4414 44 11.4414Z" fill="#FCE0A2"/>
<path d="M73.0391 9.67969C71.0977 9.67969 69.5195 11.2578 69.5195 13.1992C69.5195 15.1445 71.0977 16.7187 73.0391 16.7187C74.9844 16.7187 76.5586 15.1445 76.5586 13.1992C76.5586 11.2578 74.9844 9.67969 73.0391 9.67969Z" fill="#F1BC19"/>
<path d="M76.5586 19.3594C75.5898 19.3594 74.8008 20.1484 74.8008 21.1211C74.8008 22.0937 75.5898 22.8789 76.5586 22.8789C77.5312 22.8789 78.3203 22.0937 78.3203 21.1211C78.3203 20.1484 77.5312 19.3594 76.5586 19.3594Z" fill="#F1BC19"/>
<path d="M71.2812 65.1211C70.3086 65.1211 69.5195 65.9062 69.5195 66.8789C69.5195 67.8516 70.3086 68.6406 71.2812 68.6406C72.2539 68.6406 73.0391 67.8516 73.0391 66.8789C73.0391 65.9062 72.2539 65.1211 71.2812 65.1211ZM13.1992 51.9219C11.2578 51.9219 9.67969 53.4961 9.67969 55.4414C9.67969 57.3828 11.2578 58.9609 13.1992 58.9609C15.1445 58.9609 16.7187 57.3828 16.7187 55.4414C16.7187 53.4961 15.1445 51.9219 13.1992 51.9219Z" fill="#FBCD59"/>
<path d="M22 74.8008C21.0273 74.8008 20.2383 75.5898 20.2383 76.5586C20.2383 77.5312 21.0273 78.3203 22 78.3203C22.9727 78.3203 23.7617 77.5312 23.7617 76.5586C23.7617 75.5898 22.9727 74.8008 22 74.8008Z" fill="#F1BC19"/>
<path d="M16.2812 44.8789C15.0664 44.8789 14.0781 45.8633 14.0781 47.0781C14.0781 48.2969 15.0664 49.2812 16.2812 49.2812C17.4961 49.2812 18.4805 48.2969 18.4805 47.0781C18.4805 45.8633 17.4961 44.8789 16.2812 44.8789Z" fill="white"/>
<path d="M18.4805 58.0781C17.9922 58.0781 17.6016 58.4727 17.6016 58.9609C17.6016 59.4453 17.9922 59.8398 18.4805 59.8398C18.9648 59.8398 19.3594 59.4453 19.3594 58.9609C19.3594 58.4727 18.9648 58.0781 18.4805 58.0781Z" fill="#F1BC19"/>
<path d="M70.3984 29.0391C69.9141 29.0391 69.5195 29.4336 69.5195 29.9219C69.5195 30.4062 69.9141 30.8008 70.3984 30.8008C70.8867 30.8008 71.2812 30.4062 71.2812 29.9219C71.2812 29.4336 70.8867 29.0391 70.3984 29.0391Z" fill="white"/>
<path d="M56.7773 63.2266H32.5586C31.1758 63.2266 30.0508 62.1016 30.0508 60.7188C30.0508 59.3359 31.1758 58.2109 32.5586 58.2109H56.7891L56.4688 58.5781C55.9492 59.1797 55.6602 59.9375 55.6602 60.7188C55.6602 61.5 55.9453 62.2617 56.4648 62.8633L56.7773 63.2266Z" fill="#E1E0D8"/>
<path d="M30.0508 58.5469V27.2812C30.0508 25.8984 31.1758 24.7734 32.5586 24.7734H55.4414C56.8242 24.7734 57.9492 25.8984 57.9492 27.2812V57.4219H32.5586C31.7734 57.4219 31.0313 57.6992 30.4141 58.2305L30.0508 58.5469Z" fill="#BD977C"/>
<path d="M37.8398 24.7734H32.5586C31.1758 24.7734 30.0508 25.8984 30.0508 27.2812V58.5469L30.4141 58.2305C31.0313 57.6992 31.7734 57.4219 32.5586 57.4219H37.8398V24.7734Z" fill="#9F8066"/>
<path d="M58.6055 58.4609C58.8125 58.4258 58.9609 58.2383 58.9609 58.0312V27.2812C58.9609 25.3359 57.3828 23.7617 55.4414 23.7617H32.5586C30.6172 23.7617 29.0391 25.3359 29.0391 27.2812V60.7188C29.0391 61.207 29.1367 61.668 29.3164 62.0898C29.4922 62.5117 29.75 62.8906 30.0703 63.207C30.2305 63.3672 30.4023 63.5117 30.5898 63.6367C30.9648 63.8906 31.3906 64.0742 31.8516 64.168C32.0781 64.2148 32.3164 64.2383 32.5586 64.2383C32.6367 64.2383 58.2852 64.2383 58.3438 64.2383C58.6836 64.2383 58.9609 63.9648 58.9609 63.625C58.9609 63.6211 58.957 63.6172 58.957 63.6172C58.9531 63.2852 58.7188 63.0195 58.3945 62.9375C57.4062 62.6875 56.6719 61.7891 56.6719 60.7188C56.6719 59.5781 57.5117 58.6289 58.6055 58.4609ZM32.5586 24.9922H55.4414C56.7031 24.9922 57.7266 26.0156 57.7266 27.2812V57.1992C57.7266 57.1992 34.3477 57.1992 32.5586 57.1992C31.6836 57.1992 30.8906 57.5352 30.2734 58.0664V27.2812C30.2734 26.0156 31.2969 24.9922 32.5586 24.9922ZM32.5586 63.0078C31.2969 63.0078 30.2734 61.9805 30.2734 60.7188C30.2734 59.457 31.2969 58.4336 32.5586 58.4336H56.3047C55.7695 59.0469 55.4414 59.8398 55.4414 60.7188C55.4414 61.5977 55.7656 62.3906 56.2969 63.0078H32.5586Z" fill="#472B29"/>
<path d="M37.5117 48.3984C37.3281 48.3984 37.1797 48.2539 37.1797 48.0703V39.0508C37.1797 38.8672 37.3281 38.7188 37.5117 38.7188C37.6914 38.7188 37.8398 38.8672 37.8398 39.0508V48.0703C37.8398 48.2539 37.6914 48.3984 37.5117 48.3984ZM37.5117 52.8008C37.3281 52.8008 37.1797 52.6523 37.1797 52.4688V51.3711C37.1797 51.1875 37.3281 51.0391 37.5117 51.0391C37.6914 51.0391 37.8398 51.1875 37.8398 51.3711V52.4688C37.8398 52.6523 37.6914 52.8008 37.5117 52.8008ZM37.5117 55.4414C37.3281 55.4414 37.1797 55.293 37.1797 55.1094V54.0117C37.1797 53.8281 37.3281 53.6797 37.5117 53.6797C37.6914 53.6797 37.8398 53.8281 37.8398 54.0117V55.1094C37.8398 55.293 37.6914 55.4414 37.5117 55.4414ZM55.9883 60.7188H33.7695C33.5859 60.7188 33.4414 60.5703 33.4414 60.3906C33.4414 60.207 33.5859 60.0586 33.7695 60.0586H55.9883C56.1719 60.0586 56.3203 60.207 56.3203 60.3906C56.3203 60.5703 56.1719 60.7188 55.9883 60.7188ZM55.9883 62.2617H42.5703C42.3867 62.2617 42.2383 62.1133 42.2383 61.9297C42.2383 61.7461 42.3867 61.6016 42.5703 61.6016H55.9883C56.1719 61.6016 56.3203 61.7461 56.3203 61.9297C56.3203 62.1133 56.1719 62.2617 55.9883 62.2617ZM41.0312 62.2617H39.9297C39.7461 62.2617 39.6016 62.1133 39.6016 61.9297C39.6016 61.7461 39.7461 61.6016 39.9297 61.6016H41.0312C41.2109 61.6016 41.3594 61.7461 41.3594 61.9297C41.3594 62.1133 41.2109 62.2617 41.0312 62.2617Z" fill="#472B29"/>
<path d="M33.6602 23.1016H42.8984V41.1406L38.2812 39.0508L33.6602 41.1406V23.1016Z" fill="#EE3E54"/>
<path d="M42.7891 41.3594C42.7461 41.3594 42.6992 41.3516 42.6562 41.332L38.2812 39.4102L33.9023 41.332C33.8008 41.3789 33.6836 41.3672 33.5898 41.3086C33.4961 41.2461 33.4414 41.1406 33.4414 41.0312V23.2109C33.4414 23.0273 33.5859 22.8789 33.7695 22.8789H42.7891C42.9727 22.8789 43.1211 23.0273 43.1211 23.2109V41.0312C43.1211 41.1406 43.0664 41.2461 42.9688 41.3047C42.918 41.3398 42.8516 41.3594 42.7891 41.3594ZM38.2812 38.7188C38.3242 38.7188 38.3711 38.7305 38.4102 38.75L42.4609 40.5234V23.5391H34.1016V40.5234L38.1484 38.75C38.1875 38.7305 38.2344 38.7188 38.2812 38.7188Z" fill="#472B29"/>
</svg>
