<svg width="88" height="88" viewBox="0 0 88 88" fill="none" xmlns="http://www.w3.org/2000/svg">
<path d="M67.76 10.56C67.5266 10.56 67.3028 10.6527 67.1378 10.8177C66.9727 10.9828 66.88 11.2066 66.88 11.44C66.88 11.6734 66.9727 11.8972 67.1378 12.0623C67.3028 12.2273 67.5266 12.32 67.76 12.32C67.9934 12.32 68.2172 12.2273 68.3823 12.0623C68.5473 11.8972 68.64 11.6734 68.64 11.44C68.64 11.2066 68.5473 10.9828 68.3823 10.8177C68.2172 10.6527 67.9934 10.56 67.76 10.56Z" fill="#F1BC19"/>
<path d="M43.9999 11.44C35.3645 11.44 27.0827 14.8704 20.9765 20.9766C14.8704 27.0828 11.4399 35.3646 11.4399 44C11.4399 52.6354 14.8704 60.9172 20.9765 67.0234C27.0827 73.1296 35.3645 76.56 43.9999 76.56C52.6354 76.56 60.9171 73.1296 67.0233 67.0234C73.1295 60.9172 76.5599 52.6354 76.5599 44C76.5599 35.3646 73.1295 27.0828 67.0233 20.9766C60.9171 14.8704 52.6354 11.44 43.9999 11.44V11.44Z" fill="#E4E4F9"/>
<path d="M73.04 9.68C72.1065 9.68 71.2111 10.0509 70.551 10.711C69.8909 11.3711 69.52 12.2664 69.52 13.2C69.52 14.1336 69.8909 15.0289 70.551 15.689C71.2111 16.3491 72.1065 16.72 73.04 16.72C73.9736 16.72 74.8689 16.3491 75.529 15.689C76.1892 15.0289 76.56 14.1336 76.56 13.2C76.56 12.2664 76.1892 11.3711 75.529 10.711C74.8689 10.0509 73.9736 9.68 73.04 9.68V9.68Z" fill="#F1BC19"/>
<path d="M76.56 19.36C76.0933 19.36 75.6456 19.5454 75.3155 19.8755C74.9855 20.2056 74.8 20.6532 74.8 21.12C74.8 21.5868 74.9855 22.0344 75.3155 22.3645C75.6456 22.6946 76.0933 22.88 76.56 22.88C77.0268 22.88 77.4745 22.6946 77.8046 22.3645C78.1346 22.0344 78.32 21.5868 78.32 21.12C78.32 20.6532 78.1346 20.2056 77.8046 19.8755C77.4745 19.5454 77.0268 19.36 76.56 19.36Z" fill="#8889B9"/>
<path d="M71.2801 65.12C70.8133 65.12 70.3656 65.3054 70.0355 65.6355C69.7055 65.9656 69.5201 66.4132 69.5201 66.88C69.5201 67.3468 69.7055 67.7944 70.0355 68.1245C70.3656 68.4546 70.8133 68.64 71.2801 68.64C71.7468 68.64 72.1945 68.4546 72.5246 68.1245C72.8546 67.7944 73.0401 67.3468 73.0401 66.88C73.0401 66.4132 72.8546 65.9656 72.5246 65.6355C72.1945 65.3054 71.7468 65.12 71.2801 65.12ZM13.2001 51.92C12.2665 51.92 11.3712 52.2909 10.711 52.951C10.0509 53.6111 9.68005 54.5064 9.68005 55.44C9.68005 56.3736 10.0509 57.2689 10.711 57.929C11.3712 58.5891 12.2665 58.96 13.2001 58.96C14.1336 58.96 15.0289 58.5891 15.6891 57.929C16.3492 57.2689 16.7201 56.3736 16.7201 55.44C16.7201 54.5064 16.3492 53.6111 15.6891 52.951C15.0289 52.2909 14.1336 51.92 13.2001 51.92Z" fill="#FBCD59"/>
<path d="M22 74.8C21.5332 74.8 21.0855 74.9854 20.7555 75.3155C20.4254 75.6456 20.24 76.0932 20.24 76.56C20.24 77.0268 20.4254 77.4744 20.7555 77.8045C21.0855 78.1346 21.5332 78.32 22 78.32C22.4668 78.32 22.9144 78.1346 23.2445 77.8045C23.5746 77.4744 23.76 77.0268 23.76 76.56C23.76 76.0932 23.5746 75.6456 23.2445 75.3155C22.9144 74.9854 22.4668 74.8 22 74.8Z" fill="#8889B9"/>
<path d="M16.28 43.12C15.6965 43.12 15.1369 43.3518 14.7243 43.7644C14.3117 44.1769 14.08 44.7365 14.08 45.32C14.08 45.9035 14.3117 46.4631 14.7243 46.8756C15.1369 47.2882 15.6965 47.52 16.28 47.52C16.8634 47.52 17.423 47.2882 17.8356 46.8756C18.2482 46.4631 18.48 45.9035 18.48 45.32C18.48 44.7365 18.2482 44.1769 17.8356 43.7644C17.423 43.3518 16.8634 43.12 16.28 43.12ZM69.96 28.16C69.6099 28.16 69.2741 28.2991 69.0266 28.5466C68.779 28.7942 68.64 29.1299 68.64 29.48C68.64 29.8301 68.779 30.1658 69.0266 30.4134C69.2741 30.6609 69.6099 30.8 69.96 30.8C70.31 30.8 70.6458 30.6609 70.8933 30.4134C71.1409 30.1658 71.28 29.8301 71.28 29.48C71.28 29.1299 71.1409 28.7942 70.8933 28.5466C70.6458 28.2991 70.31 28.16 69.96 28.16Z" fill="white"/>
<path d="M32.8205 64.504C30.5897 64.504 28.776 62.6868 28.776 60.4516V27.5493C28.776 25.3141 30.5906 23.4969 32.8205 23.4969H49.6566L60.104 33.9618V60.4516C60.104 62.6868 58.2894 64.504 56.0595 64.504H32.8205V64.504Z" fill="#FEFDEF"/>
<path d="M49.4015 24.112L53.504 28.2216L59.4872 34.2162V60.4516C59.4872 62.3471 57.9489 63.8889 56.0587 63.8889H32.8205C30.9294 63.8889 29.392 62.3471 29.392 60.4516V27.5493C29.392 25.6538 30.9303 24.112 32.8205 24.112H33.4972H35.0091H39.8693H49.4015V24.112ZM49.9128 22.88H39.8702H35.01H33.4981H32.8214C30.2571 22.88 28.16 24.9814 28.16 27.5493V60.4516C28.16 63.0194 30.258 65.12 32.8205 65.12H56.0578C58.6212 65.12 60.7183 63.0186 60.7183 60.4507V33.7066H60.72C56.5172 29.4958 54.1156 27.0908 49.9128 22.88Z" fill="#472B29"/>
<path d="M49.72 23.76V29.465C49.72 31.893 51.6683 33.88 54.0505 33.88H59.84" fill="#FEF6AA"/>
<path d="M59.8401 34.32H54.0505C51.4202 34.32 49.28 32.142 49.28 29.465V23.76H50.1601V29.465C50.1601 31.6571 51.9051 33.44 54.0505 33.44H59.8401V34.32ZM55.4401 62.48H33.44C31.9845 62.48 30.8 61.2955 30.8 59.84V28.16C30.8 26.7045 31.9845 25.52 33.44 25.52H35.2C35.4429 25.52 35.64 25.7171 35.64 25.96C35.64 26.2029 35.4429 26.4 35.2 26.4H33.44C32.4694 26.4 31.68 27.1894 31.68 28.16V59.84C31.68 60.8106 32.4694 61.6 33.44 61.6H55.4401C56.4107 61.6 57.2001 60.8106 57.2001 59.84V46.567C57.2001 46.3241 57.3972 46.127 57.6401 46.127C57.8829 46.127 58.0801 46.3241 58.0801 46.567V59.84C58.0801 61.2955 56.8956 62.48 55.4401 62.48ZM57.6401 44.88C57.3972 44.88 57.2001 44.6829 57.2001 44.44V40.92C57.2001 40.6771 57.3972 40.48 57.6401 40.48C57.8829 40.48 58.0801 40.6771 58.0801 40.92V44.44C58.0801 44.6829 57.8829 44.88 57.6401 44.88ZM57.6401 39.38C57.3972 39.38 57.2001 39.1829 57.2001 38.94V36.667C57.2001 36.4241 57.3972 36.227 57.6401 36.227C57.8829 36.227 58.0801 36.4241 58.0801 36.667V38.94C58.0801 39.1829 57.8829 39.38 57.6401 39.38Z" fill="#472B29"/>
<path d="M43.56 38.5H34.76C34.6386 38.5 34.54 38.4014 34.54 38.28C34.54 38.1586 34.6386 38.06 34.76 38.06H43.56C43.6815 38.06 43.78 38.1586 43.78 38.28C43.78 38.4014 43.6815 38.5 43.56 38.5Z" fill="#472B29"/>
<path d="M43.56 42.02H34.76C34.6386 42.02 34.54 41.9214 34.54 41.8C34.54 41.6786 34.6386 41.58 34.76 41.58H43.56C43.6815 41.58 43.78 41.6786 43.78 41.8C43.78 41.9214 43.6815 42.02 43.56 42.02Z" fill="#472B29"/>
<path d="M43.56 45.54H34.76C34.6386 45.54 34.54 45.4414 34.54 45.32C34.54 45.1986 34.6386 45.1 34.76 45.1H43.56C43.6815 45.1 43.78 45.1986 43.78 45.32C43.78 45.4414 43.6815 45.54 43.56 45.54Z" fill="#472B29"/>
<path d="M40.92 49.06H34.76C34.6386 49.06 34.54 48.9614 34.54 48.84C34.54 48.7186 34.6386 48.62 34.76 48.62H40.92C41.0415 48.62 41.14 48.7186 41.14 48.84C41.14 48.9614 41.0415 49.06 40.92 49.06Z" fill="#472B29"/>
<path d="M43.56 52.58H34.76C34.6386 52.58 34.54 52.4814 34.54 52.36C34.54 52.2386 34.6386 52.14 34.76 52.14H43.56C43.6815 52.14 43.78 52.2386 43.78 52.36C43.78 52.4814 43.6815 52.58 43.56 52.58Z" fill="#472B29"/>
<path d="M45.32 56.1H34.76C34.6386 56.1 34.54 56.0014 34.54 55.88C34.54 55.7586 34.6386 55.66 34.76 55.66H45.32C45.4415 55.66 45.54 55.7586 45.54 55.88C45.54 56.0014 45.4415 56.1 45.32 56.1Z" fill="#472B29"/>
<path d="M54.12 56.1H47.08C46.9585 56.1 46.86 56.0014 46.86 55.88C46.86 55.7586 46.9585 55.66 47.08 55.66H54.12C54.2414 55.66 54.34 55.7586 54.34 55.88C54.34 56.0014 54.2414 56.1 54.12 56.1Z" fill="#472B29"/>
<path d="M54.12 49.06H42.68C42.5585 49.06 42.46 48.9614 42.46 48.84C42.46 48.7186 42.5585 48.62 42.68 48.62H54.12C54.2414 48.62 54.34 48.7186 54.34 48.84C54.34 48.9614 54.2414 49.06 54.12 49.06Z" fill="#472B29"/>
<path d="M54.12 52.58H50.6C50.4786 52.58 50.38 52.4814 50.38 52.36C50.38 52.2386 50.4786 52.14 50.6 52.14H54.12C54.2414 52.14 54.34 52.2386 54.34 52.36C54.34 52.4814 54.2414 52.58 54.12 52.58Z" fill="#472B29"/>
<path d="M48.84 52.58H45.32C45.1985 52.58 45.1 52.4814 45.1 52.36C45.1 52.2386 45.1985 52.14 45.32 52.14H48.84C48.9614 52.14 49.06 52.2386 49.06 52.36C49.06 52.4814 48.9614 52.58 48.84 52.58Z" fill="#472B29"/>
<path d="M46.2 46.64V38.28H54.12V46.2H49.28" fill="#FEF6AA"/>
<path d="M46.42 46.64H45.98V38.06H54.34V46.42H49.28V45.98H53.9V38.5H46.42V46.64Z" fill="#472B29"/>
</svg>
