<svg width="88" height="88" viewBox="0 0 88 88" fill="none" xmlns="http://www.w3.org/2000/svg">
<path d="M67.76 10.5601C67.5266 10.5601 67.3028 10.6528 67.1378 10.8178C66.9727 10.9828 66.88 11.2067 66.88 11.4401C66.88 11.6734 66.9727 11.8973 67.1378 12.0623C67.3028 12.2273 67.5266 12.3201 67.76 12.3201C67.9934 12.3201 68.2172 12.2273 68.3823 12.0623C68.5473 11.8973 68.64 11.6734 68.64 11.4401C68.64 11.2067 68.5473 10.9828 68.3823 10.8178C68.2172 10.6528 67.9934 10.5601 67.76 10.5601Z" fill="#F1BC19"/>
<path d="M44 11.4399C35.3646 11.4399 27.0828 14.8704 20.9766 20.9765C14.8704 27.0827 11.44 35.3645 11.44 43.9999C11.44 52.6354 14.8704 60.9171 20.9766 67.0233C27.0828 73.1295 35.3646 76.5599 44 76.5599C52.6354 76.5599 60.9172 73.1295 67.0234 67.0233C73.1296 60.9171 76.56 52.6354 76.56 43.9999C76.56 35.3645 73.1296 27.0827 67.0234 20.9765C60.9172 14.8704 52.6354 11.4399 44 11.4399Z" fill="#E4E4F9"/>
<path d="M73.04 9.68005C72.1065 9.68005 71.2111 10.0509 70.551 10.711C69.8909 11.3712 69.52 12.2665 69.52 13.2001C69.52 14.1336 69.8909 15.0289 70.551 15.6891C71.2111 16.3492 72.1065 16.7201 73.04 16.7201C73.9736 16.7201 74.8689 16.3492 75.529 15.6891C76.1892 15.0289 76.56 14.1336 76.56 13.2001C76.56 12.2665 76.1892 11.3712 75.529 10.711C74.8689 10.0509 73.9736 9.68005 73.04 9.68005Z" fill="#F1BC19"/>
<path d="M76.56 19.36C76.0932 19.36 75.6455 19.5454 75.3155 19.8755C74.9854 20.2055 74.8 20.6532 74.8 21.12C74.8 21.5868 74.9854 22.0344 75.3155 22.3645C75.6455 22.6946 76.0932 22.88 76.56 22.88C77.0268 22.88 77.4744 22.6946 77.8045 22.3645C78.1346 22.0344 78.32 21.5868 78.32 21.12C78.32 20.6532 78.1346 20.2055 77.8045 19.8755C77.4744 19.5454 77.0268 19.36 76.56 19.36Z" fill="#8889B9"/>
<path d="M71.28 65.12C70.8132 65.12 70.3655 65.3055 70.0355 65.6355C69.7054 65.9656 69.52 66.4133 69.52 66.88C69.52 67.3468 69.7054 67.7945 70.0355 68.1246C70.3655 68.4546 70.8132 68.64 71.28 68.64C71.7468 68.64 72.1944 68.4546 72.5245 68.1246C72.8546 67.7945 73.04 67.3468 73.04 66.88C73.04 66.4133 72.8546 65.9656 72.5245 65.6355C72.1944 65.3055 71.7468 65.12 71.28 65.12ZM13.2 51.92C12.2664 51.92 11.3711 52.2909 10.711 52.951C10.0508 53.6112 9.67999 54.5065 9.67999 55.44C9.67999 56.3736 10.0508 57.2689 10.711 57.9291C11.3711 58.5892 12.2664 58.96 13.2 58.96C14.1336 58.96 15.0289 58.5892 15.689 57.9291C16.3491 57.2689 16.72 56.3736 16.72 55.44C16.72 54.5065 16.3491 53.6112 15.689 52.951C15.0289 52.2909 14.1336 51.92 13.2 51.92Z" fill="#FBCD59"/>
<path d="M22 74.8C21.5332 74.8 21.0855 74.9855 20.7555 75.3155C20.4254 75.6456 20.24 76.0933 20.24 76.56C20.24 77.0268 20.4254 77.4745 20.7555 77.8046C21.0855 78.1346 21.5332 78.32 22 78.32C22.4668 78.32 22.9144 78.1346 23.2445 77.8046C23.5746 77.4745 23.76 77.0268 23.76 76.56C23.76 76.0933 23.5746 75.6456 23.2445 75.3155C22.9144 74.9855 22.4668 74.8 22 74.8Z" fill="#8889B9"/>
<path d="M16.28 43.12C15.6965 43.12 15.137 43.3518 14.7244 43.7644C14.3118 44.177 14.08 44.7366 14.08 45.32C14.08 45.9035 14.3118 46.4631 14.7244 46.8757C15.137 47.2882 15.6965 47.52 16.28 47.52C16.8635 47.52 17.4231 47.2882 17.8357 46.8757C18.2482 46.4631 18.48 45.9035 18.48 45.32C18.48 44.7366 18.2482 44.177 17.8357 43.7644C17.4231 43.3518 16.8635 43.12 16.28 43.12ZM69.96 28.16C69.6099 28.16 69.2742 28.2991 69.0266 28.5467C68.7791 28.7942 68.64 29.1299 68.64 29.48C68.64 29.8301 68.7791 30.1659 69.0266 30.4134C69.2742 30.661 69.6099 30.8 69.96 30.8C70.3101 30.8 70.6458 30.661 70.8934 30.4134C71.1409 30.1659 71.28 29.8301 71.28 29.48C71.28 29.1299 71.1409 28.7942 70.8934 28.5467C70.6458 28.2991 70.3101 28.16 69.96 28.16Z" fill="white"/>
<path d="M32.8205 64.504C30.5897 64.504 28.776 62.6867 28.776 60.4515V27.5492C28.776 25.314 30.5906 23.4968 32.8205 23.4968H49.6566L60.104 33.9618V60.4515C60.104 62.6867 58.2894 64.504 56.0595 64.504H32.8205Z" fill="#FEFDEF"/>
<path d="M49.4014 24.112L53.504 28.2216L59.4871 34.2162V60.4516C59.4871 62.3471 57.9489 63.8889 56.0586 63.8889H32.8205C30.9293 63.8889 29.392 62.3471 29.392 60.4516V27.5493C29.392 25.6538 30.9302 24.112 32.8205 24.112H33.4972H35.009H39.8693H49.4014ZM49.9127 22.88H39.8701H35.0099H33.4981H32.8213C30.257 22.88 28.16 24.9814 28.16 27.5493V60.4516C28.16 63.0195 30.2579 65.12 32.8205 65.12H56.0577C58.6212 65.12 60.7182 63.0186 60.7182 60.4507V33.7066H60.72C56.5171 29.4958 54.1156 27.0908 49.9127 22.88Z" fill="#472B29"/>
<path d="M49.72 23.76V29.4651C49.72 31.893 51.6683 33.88 54.0505 33.88H59.84" fill="#FEF6AA"/>
<path d="M59.84 34.32H54.0505C51.4202 34.32 49.28 32.142 49.28 29.4651V23.76H50.16V29.4651C50.16 31.6571 51.905 33.44 54.0505 33.44H59.84V34.32ZM55.44 62.48H33.44C31.9845 62.48 30.8 61.2955 30.8 59.84V28.16C30.8 26.7045 31.9845 25.52 33.44 25.52H35.2C35.4429 25.52 35.64 25.7171 35.64 25.96C35.64 26.2029 35.4429 26.4 35.2 26.4H33.44C32.4693 26.4 31.68 27.1894 31.68 28.16V59.84C31.68 60.8107 32.4693 61.6 33.44 61.6H55.44C56.4106 61.6 57.2 60.8107 57.2 59.84V46.567C57.2 46.3241 57.3971 46.127 57.64 46.127C57.8829 46.127 58.08 46.3241 58.08 46.567V59.84C58.08 61.2955 56.8955 62.48 55.44 62.48ZM57.64 44.88C57.3971 44.88 57.2 44.6829 57.2 44.44V40.92C57.2 40.6771 57.3971 40.48 57.64 40.48C57.8829 40.48 58.08 40.6771 58.08 40.92V44.44C58.08 44.6829 57.8829 44.88 57.64 44.88ZM57.64 39.38C57.3971 39.38 57.2 39.1829 57.2 38.94V36.667C57.2 36.4241 57.3971 36.227 57.64 36.227C57.8829 36.227 58.08 36.4241 58.08 36.667V38.94C58.08 39.1829 57.8829 39.38 57.64 39.38Z" fill="#472B29"/>
<path d="M43.56 38.5001H34.76C34.6385 38.5001 34.54 38.4015 34.54 38.2801C34.54 38.1586 34.6385 38.0601 34.76 38.0601H43.56C43.6814 38.0601 43.78 38.1586 43.78 38.2801C43.78 38.4015 43.6814 38.5001 43.56 38.5001Z" fill="#472B29"/>
<path d="M43.56 42.02H34.76C34.6385 42.02 34.54 41.9214 34.54 41.8C34.54 41.6785 34.6385 41.58 34.76 41.58H43.56C43.6814 41.58 43.78 41.6785 43.78 41.8C43.78 41.9214 43.6814 42.02 43.56 42.02Z" fill="#472B29"/>
<path d="M43.56 45.54H34.76C34.6385 45.54 34.54 45.4414 34.54 45.32C34.54 45.1985 34.6385 45.1 34.76 45.1H43.56C43.6814 45.1 43.78 45.1985 43.78 45.32C43.78 45.4414 43.6814 45.54 43.56 45.54Z" fill="#472B29"/>
<path d="M40.92 49.06H34.76C34.6385 49.06 34.54 48.9614 34.54 48.84C34.54 48.7186 34.6385 48.62 34.76 48.62H40.92C41.0414 48.62 41.14 48.7186 41.14 48.84C41.14 48.9614 41.0414 49.06 40.92 49.06Z" fill="#472B29"/>
<path d="M43.56 52.58H34.76C34.6385 52.58 34.54 52.4815 34.54 52.36C34.54 52.2386 34.6385 52.14 34.76 52.14H43.56C43.6814 52.14 43.78 52.2386 43.78 52.36C43.78 52.4815 43.6814 52.58 43.56 52.58Z" fill="#472B29"/>
<path d="M45.32 56.1H34.76C34.6385 56.1 34.54 56.0015 34.54 55.88C34.54 55.7586 34.6385 55.66 34.76 55.66H45.32C45.4414 55.66 45.54 55.7586 45.54 55.88C45.54 56.0015 45.4414 56.1 45.32 56.1Z" fill="#472B29"/>
<path d="M54.12 56.1H47.08C46.9585 56.1 46.86 56.0015 46.86 55.88C46.86 55.7586 46.9585 55.66 47.08 55.66H54.12C54.2414 55.66 54.34 55.7586 54.34 55.88C54.34 56.0015 54.2414 56.1 54.12 56.1Z" fill="#472B29"/>
<path d="M54.12 49.06H42.68C42.5586 49.06 42.46 48.9614 42.46 48.84C42.46 48.7186 42.5586 48.62 42.68 48.62H54.12C54.2415 48.62 54.34 48.7186 54.34 48.84C54.34 48.9614 54.2415 49.06 54.12 49.06Z" fill="#472B29"/>
<path d="M54.12 52.58H50.6C50.4786 52.58 50.38 52.4815 50.38 52.36C50.38 52.2386 50.4786 52.14 50.6 52.14H54.12C54.2414 52.14 54.34 52.2386 54.34 52.36C54.34 52.4815 54.2414 52.58 54.12 52.58Z" fill="#472B29"/>
<path d="M48.84 52.58H45.32C45.1985 52.58 45.1 52.4815 45.1 52.36C45.1 52.2386 45.1985 52.14 45.32 52.14H48.84C48.9614 52.14 49.06 52.2386 49.06 52.36C49.06 52.4815 48.9614 52.58 48.84 52.58Z" fill="#472B29"/>
<path d="M46.2 46.64V38.28H54.12V46.2H49.28" fill="#FEF6AA"/>
<path d="M46.42 46.6401H45.98V38.0601H54.34V46.4201H49.28V45.9801H53.9V38.5001H46.42V46.6401Z" fill="#472B29"/>
</svg>
