<svg width="96" height="96" viewBox="0 0 96 96" fill="none" xmlns="http://www.w3.org/2000/svg">
<path d="M12.48 25.9199C11.9708 25.9199 11.4824 26.1222 11.1224 26.4823C10.7623 26.8423 10.56 27.3307 10.56 27.8399C10.56 28.3491 10.7623 28.8375 11.1224 29.1976C11.4824 29.5576 11.9708 29.7599 12.48 29.7599C12.9892 29.7599 13.4776 29.5576 13.8376 29.1976C14.1977 28.8375 14.4 28.3491 14.4 27.8399C14.4 27.3307 14.1977 26.8423 13.8376 26.4823C13.4776 26.1222 12.9892 25.9199 12.48 25.9199Z" fill="#EE3E54"/>
<path d="M73.92 11.52C73.6654 11.52 73.4212 11.6212 73.2412 11.8012C73.0611 11.9812 72.96 12.2254 72.96 12.48C72.96 12.7346 73.0611 12.9788 73.2412 13.1588C73.4212 13.3389 73.6654 13.44 73.92 13.44C74.1746 13.44 74.4188 13.3389 74.5988 13.1588C74.7788 12.9788 74.88 12.7346 74.88 12.48C74.88 12.2254 74.7788 11.9812 74.5988 11.8012C74.4188 11.6212 74.1746 11.52 73.92 11.52Z" fill="#F1BC19"/>
<path d="M48 12.48C38.5795 12.48 29.5449 16.2223 22.8836 22.8835C16.2223 29.5448 12.48 38.5795 12.48 48C12.48 57.4205 16.2223 66.4551 22.8836 73.1164C29.5449 79.7777 38.5795 83.52 48 83.52C57.4205 83.52 66.4551 79.7777 73.1164 73.1164C79.7777 66.4551 83.52 57.4205 83.52 48C83.52 38.5795 79.7777 29.5448 73.1164 22.8835C66.4551 16.2223 57.4205 12.48 48 12.48Z" fill="#FCE0A2"/>
<path d="M79.68 10.5601C78.6616 10.5601 77.6848 10.9646 76.9647 11.6848C76.2446 12.4049 75.84 13.3816 75.84 14.4001C75.84 15.4185 76.2446 16.3952 76.9647 17.1153C77.6848 17.8355 78.6616 18.2401 79.68 18.2401C80.6984 18.2401 81.6751 17.8355 82.3953 17.1153C83.1154 16.3952 83.52 15.4185 83.52 14.4001C83.52 13.3816 83.1154 12.4049 82.3953 11.6848C81.6751 10.9646 80.6984 10.5601 79.68 10.5601Z" fill="#F1BC19"/>
<path d="M83.52 21.1201C83.0108 21.1201 82.5224 21.3224 82.1624 21.6825C81.8023 22.0425 81.6 22.5309 81.6 23.0401C81.6 23.5493 81.8023 24.0377 82.1624 24.3978C82.5224 24.7578 83.0108 24.9601 83.52 24.9601C84.0292 24.9601 84.5176 24.7578 84.8776 24.3978C85.2377 24.0377 85.44 23.5493 85.44 23.0401C85.44 22.5309 85.2377 22.0425 84.8776 21.6825C84.5176 21.3224 84.0292 21.1201 83.52 21.1201Z" fill="#EE3E54"/>
<path d="M77.76 71.0399C77.2508 71.0399 76.7624 71.2422 76.4024 71.6022C76.0423 71.9623 75.84 72.4507 75.84 72.9599C75.84 73.4691 76.0423 73.9575 76.4024 74.3175C76.7624 74.6776 77.2508 74.8799 77.76 74.8799C78.2692 74.8799 78.7576 74.6776 79.1176 74.3175C79.4777 73.9575 79.68 73.4691 79.68 72.9599C79.68 72.4507 79.4777 71.9623 79.1176 71.6022C78.7576 71.2422 78.2692 71.0399 77.76 71.0399ZM14.4 56.6399C13.3816 56.6399 12.4048 57.0445 11.6847 57.7646C10.9646 58.4847 10.56 59.4615 10.56 60.4799C10.56 61.4983 10.9646 62.475 11.6847 63.1952C12.4048 63.9153 13.3816 64.3199 14.4 64.3199C15.4184 64.3199 16.3951 63.9153 17.1153 63.1952C17.8354 62.475 18.24 61.4983 18.24 60.4799C18.24 59.4615 17.8354 58.4847 17.1153 57.7646C16.3951 57.0445 15.4184 56.6399 14.4 56.6399Z" fill="#FBCD59"/>
<path d="M24 81.6001C23.4908 81.6001 23.0024 81.8024 22.6424 82.1625C22.2823 82.5225 22.08 83.0109 22.08 83.5201C22.08 84.0293 22.2823 84.5177 22.6424 84.8777C23.0024 85.2378 23.4908 85.4401 24 85.4401C24.5092 85.4401 24.9976 85.2378 25.3576 84.8777C25.7177 84.5177 25.92 84.0293 25.92 83.5201C25.92 83.0109 25.7177 82.5225 25.3576 82.1625C24.9976 81.8024 24.5092 81.6001 24 81.6001Z" fill="#EE3E54"/>
<path d="M17.76 48.96C17.1235 48.96 16.513 49.2128 16.0629 49.6629C15.6129 50.113 15.36 50.7234 15.36 51.36C15.36 51.9965 15.6129 52.6069 16.0629 53.057C16.513 53.5071 17.1235 53.76 17.76 53.76C18.3965 53.76 19.007 53.5071 19.4571 53.057C19.9071 52.6069 20.16 51.9965 20.16 51.36C20.16 50.7234 19.9071 50.113 19.4571 49.6629C19.007 49.2128 18.3965 48.96 17.76 48.96Z" fill="white"/>
<path d="M20.16 63.3601C19.9054 63.3601 19.6612 63.4612 19.4812 63.6413C19.3011 63.8213 19.2 64.0655 19.2 64.3201C19.2 64.5747 19.3011 64.8189 19.4812 64.9989C19.6612 65.179 19.9054 65.2801 20.16 65.2801C20.4146 65.2801 20.6588 65.179 20.8388 64.9989C21.0189 64.8189 21.12 64.5747 21.12 64.3201C21.12 64.0655 21.0189 63.8213 20.8388 63.6413C20.6588 63.4612 20.4146 63.3601 20.16 63.3601Z" fill="#F1BC19"/>
<path d="M76.8 31.6799C76.5454 31.6799 76.3012 31.7811 76.1212 31.9611C75.9411 32.1411 75.84 32.3853 75.84 32.6399C75.84 32.8945 75.9411 33.1387 76.1212 33.3188C76.3012 33.4988 76.5454 33.5999 76.8 33.5999C77.0546 33.5999 77.2988 33.4988 77.4788 33.3188C77.6589 33.1387 77.76 32.8945 77.76 32.6399C77.76 32.3853 77.6589 32.1411 77.4788 31.9611C77.2988 31.7811 77.0546 31.6799 76.8 31.6799Z" fill="white"/>
<path d="M33.6 69.408C29.76 69.408 26.592 66.24 26.592 62.4V33.6C26.592 29.76 29.76 26.592 33.6 26.592H62.4C66.24 26.592 69.408 29.76 69.408 33.6V62.4C69.408 66.24 66.24 69.408 62.4 69.408H33.6Z" fill="#78A2D2"/>
<path d="M62.4 27.2639C65.856 27.2639 68.736 30.1439 68.736 33.5999V62.3999C68.736 65.8559 65.856 68.7359 62.4 68.7359H33.6C30.144 68.7359 27.264 65.8559 27.264 62.3999V33.5999C27.264 30.1439 30.144 27.2639 33.6 27.2639H62.4ZM62.4 25.9199H33.6C29.376 25.9199 25.92 29.3759 25.92 33.5999V62.3999C25.92 66.6239 29.376 70.0799 33.6 70.0799H62.4C66.624 70.0799 70.08 66.6239 70.08 62.3999V33.5999C70.08 29.3759 66.624 25.9199 62.4 25.9199Z" fill="#472B29"/>
<path d="M65.76 45.504C65.472 45.504 65.28 45.312 65.28 45.024V41.28C65.28 40.992 65.472 40.8 65.76 40.8C66.048 40.8 66.24 40.992 66.24 41.28V45.024C66.24 45.312 66.048 45.504 65.76 45.504Z" fill="#472B29"/>
<path d="M65.76 38.88C65.472 38.88 65.28 38.688 65.28 38.4V36.48C65.28 36.192 65.472 36 65.76 36C66.048 36 66.24 36.192 66.24 36.48V38.4C66.24 38.688 66.048 38.88 65.76 38.88Z" fill="#472B29"/>
<path d="M61.44 66.24H34.56C31.872 66.24 29.76 64.128 29.76 61.44V34.56C29.76 31.872 31.872 29.76 34.56 29.76H58.944C59.232 29.76 59.424 29.952 59.424 30.24C59.424 30.528 59.232 30.72 58.944 30.72H34.56C32.448 30.72 30.72 32.448 30.72 34.56V61.44C30.72 63.552 32.448 65.28 34.56 65.28H61.44C63.552 65.28 65.28 63.552 65.28 61.44V47.616C65.28 47.328 65.472 47.136 65.76 47.136C66.048 47.136 66.24 47.328 66.24 47.616V61.44C66.24 64.128 64.128 66.24 61.44 66.24Z" fill="#472B29"/>
<path d="M50.208 55.8719C50.208 56.7359 51.168 57.2159 53.088 57.2159V58.9439H42.912V57.2159C44.832 57.2159 45.792 56.7359 45.792 55.8719V46.6559C45.792 45.6959 44.832 45.2159 42.912 45.2159V43.4879H50.304V55.8719H50.208ZM50.688 38.4959C50.688 39.1679 50.4 39.8399 49.92 40.3199C49.44 40.7999 48.672 41.0879 47.904 41.0879C47.52 41.0879 47.136 40.9919 46.752 40.8959C46.368 40.7999 46.08 40.6079 45.888 40.3199C45.696 40.0319 45.408 39.8399 45.312 39.4559C45.12 39.1679 45.12 38.7839 45.12 38.3999C45.12 37.6319 45.408 37.0559 45.984 36.5759C46.56 36.0959 47.232 35.8079 48 35.8079C48.768 35.8079 49.44 36.0959 50.016 36.5759C50.4 37.1519 50.688 37.7279 50.688 38.4959Z" fill="#FDFCEE"/>
<path d="M53.568 59.5199H42.432V56.8319H42.912C43.968 56.8319 45.312 56.6399 45.312 55.9679V46.7519C45.312 45.9839 44.064 45.7919 42.912 45.7919H42.432V43.1039H50.784V55.9679C50.784 56.1599 50.784 56.2559 50.88 56.3519C51.072 56.5439 51.552 56.8319 53.184 56.8319H53.664V59.5199H53.568ZM43.392 58.5599H52.704V57.7919C51.456 57.6959 50.688 57.5039 50.208 57.0239C49.92 56.7359 49.824 56.3519 49.824 55.9679V44.0639H43.392V44.8319C45.312 44.9279 46.272 45.5039 46.272 46.6559V55.8719C46.272 57.0239 45.312 57.5999 43.392 57.6959V58.5599ZM47.808 41.5679C47.328 41.5679 46.944 41.4719 46.56 41.2799C46.176 41.0879 45.792 40.8959 45.504 40.6079C45.216 40.3199 44.928 40.0319 44.832 39.6479C44.64 39.2639 44.544 38.8799 44.544 38.3999C44.544 37.5359 44.928 36.7679 45.504 36.1919C46.176 35.6159 46.944 35.3279 47.808 35.3279C48.672 35.3279 49.44 35.6159 50.112 36.1919C50.784 36.7679 51.072 37.5359 51.072 38.3999C51.072 39.2639 50.784 39.9359 50.112 40.6079C49.536 41.2799 48.768 41.5679 47.808 41.5679ZM47.808 36.3839C47.136 36.3839 46.56 36.5759 46.08 36.9599C45.6 37.3439 45.408 37.8239 45.408 38.3999C45.408 38.6879 45.504 38.9759 45.6 39.1679C45.696 39.4559 45.888 39.6479 46.08 39.8399C46.272 40.0319 46.56 40.2239 46.848 40.3199C47.136 40.4159 47.424 40.5119 47.808 40.5119C48.48 40.5119 49.056 40.3199 49.44 39.8399C49.92 39.4559 50.112 38.9759 50.112 38.3999C50.112 37.8239 49.92 37.3439 49.44 36.9599C49.056 36.5759 48.48 36.3839 47.808 36.3839Z" fill="#472B29"/>
</svg>
