<svg width="165" height="164" viewBox="0 0 165 164" fill="none" xmlns="http://www.w3.org/2000/svg">
<path d="M82.5003 21.3203C66.407 21.3203 50.9728 27.7134 39.5931 39.0931C28.2134 50.4728 21.8203 65.907 21.8203 82.0003C21.8203 98.0937 28.2134 113.528 39.5931 124.908C50.9728 136.287 66.407 142.68 82.5003 142.68C98.5937 142.68 114.028 136.287 125.408 124.908C136.787 113.528 143.18 98.0937 143.18 82.0003C143.18 65.907 136.787 50.4728 125.408 39.0931C114.028 27.7134 98.5937 21.3203 82.5003 21.3203Z" fill="#CEE1F4"/>
<path d="M121.176 49.0335C121.418 40.0988 111.472 40.5547 111.472 40.5547L59.9103 40.6925C55.9661 40.6925 52.7058 44.6022 52.7058 48.2365L52.6369 92.7969L42.7969 92.8166C42.7969 95.5144 42.833 114.912 42.8658 115.257C43.5283 122.397 51.6086 121.73 51.6086 121.73L110.79 121.79C113.984 122.102 115.71 118.228 115.71 116.009C115.71 113.791 115.71 49.1762 115.71 49.1762L121.176 49.0335Z" fill="#FDFCEE"/>
<path d="M111.15 123C110.994 123.001 110.838 122.993 110.681 122.978L51.6065 122.924C48.502 123.165 42.3307 121.942 41.7222 115.372C41.6763 114.886 41.6484 93.0334 41.6484 92.8153C41.6484 92.1577 42.1618 91.623 42.7948 91.6214L51.4917 91.605L51.559 48.2336C51.559 44.1106 55.1309 39.4973 59.9115 39.4973L111.47 39.3612C111.647 39.3644 116.81 39.1545 119.973 42.3902C121.608 44.063 122.399 46.3098 122.325 49.0667C122.309 49.7014 121.817 50.2098 121.206 50.2262L116.859 50.3377V116.008C116.859 117.62 116.111 120.064 114.469 121.615C113.507 122.527 112.367 123 111.15 123ZM51.518 120.54L110.791 120.597C111.655 120.677 112.313 120.431 112.924 119.852C113.989 118.847 114.563 117.122 114.563 116.01V49.1749C114.563 48.5271 115.06 47.9974 115.683 47.981L119.996 47.8695C119.853 46.323 119.306 45.0552 118.364 44.0909C115.904 41.5768 111.571 41.7506 111.526 41.7457L59.9148 41.8851C56.556 41.8851 53.855 45.3586 53.855 48.2368L53.7861 92.7989C53.7844 93.4566 53.2728 93.9896 52.6397 93.9912L43.9461 94.0076C43.951 99.0539 43.9838 114.516 44.0117 115.185C44.5562 121.046 51.2392 120.574 51.518 120.54Z" fill="#472B29"/>
<path d="M54.1417 93.575L43.895 93.5487C43.8868 93.8898 43.8999 113.168 43.9327 113.475C44.3919 119.866 52.3311 119.003 54.1417 118.969V93.575ZM78.4006 74.6198V91.0198H60.3606V71.3398H75.1206" fill="#FEF6AA"/>
<path d="M78.8092 91.4297H59.9492V70.9297H75.1192C75.3455 70.9297 75.5292 71.1134 75.5292 71.3397C75.5292 71.566 75.3455 71.7497 75.1192 71.7497H60.7692V90.6097H77.9892V74.6197C77.9892 74.3934 78.1729 74.2097 78.3992 74.2097C78.6255 74.2097 78.8092 74.3934 78.8092 74.6197V91.4297Z" fill="#472B29"/>
<path d="M89.8809 110.699V95.9395H107.921V112.339H94.8009" fill="#FEF6AA"/>
<path d="M108.331 112.75H94.8009C94.5745 112.75 94.3909 112.566 94.3909 112.34C94.3909 112.114 94.5745 111.93 94.8009 111.93H107.511V96.3498H90.2909V110.7C90.2909 110.926 90.1072 111.11 89.8809 111.11C89.6545 111.11 89.4709 110.926 89.4709 110.7V95.5298H108.331V112.75ZM49.3581 115.948C48.7874 115.948 48.2937 115.523 48.2199 114.943C48.1412 114.313 48.5873 113.74 49.2171 113.662C50.7013 113.476 51.5606 112.999 51.5606 111.11V90.0637C51.5606 89.429 52.0739 88.9157 52.7086 88.9157C53.3433 88.9157 53.8566 89.429 53.8566 90.0637V111.11C53.8566 113.063 53.1006 115.489 49.5024 115.938C49.4532 115.945 49.404 115.948 49.3581 115.948ZM116.121 51.714H84.5509C83.9162 51.714 83.4029 51.2006 83.4029 50.566C83.4029 49.9313 83.9162 49.418 84.5509 49.418H116.121C116.756 49.418 117.269 49.9313 117.269 50.566C117.269 51.2006 116.756 51.714 116.121 51.714Z" fill="#472B29"/>
<path d="M78.3998 58.904H60.4959C60.2696 58.904 60.0859 58.7203 60.0859 58.494C60.0859 58.2677 60.2696 58.084 60.4959 58.084H78.3998C78.6261 58.084 78.8098 58.2677 78.8098 58.494C78.8098 58.7203 78.6261 58.904 78.3998 58.904Z" fill="#472B29"/>
<path d="M71.8392 65.1891H60.3592C60.1329 65.1891 59.9492 65.0055 59.9492 64.7791C59.9492 64.5528 60.1329 64.3691 60.3592 64.3691H71.8392C72.0655 64.3691 72.2492 64.5528 72.2492 64.7791C72.2492 65.0055 72.0655 65.1891 71.8392 65.1891Z" fill="#472B29"/>
<path d="M94.8008 58.904H83.4569C83.2306 58.904 83.0469 58.7203 83.0469 58.494C83.0469 58.2677 83.2306 58.084 83.4569 58.084H94.8008C95.0271 58.084 95.2108 58.2677 95.2108 58.494C95.2108 58.7203 95.0271 58.904 94.8008 58.904Z" fill="#472B29"/>
<path d="M107.921 58.904H99.7205C99.4942 58.904 99.3105 58.7203 99.3105 58.494C99.3105 58.2677 99.4942 58.084 99.7205 58.084H107.921C108.147 58.084 108.331 58.2677 108.331 58.494C108.331 58.7203 108.147 58.904 107.921 58.904Z" fill="#472B29"/>
<path d="M107.921 65.1891H75.1209C74.8946 65.1891 74.7109 65.0055 74.7109 64.7791C74.7109 64.5528 74.8946 64.3691 75.1209 64.3691H107.921C108.147 64.3691 108.331 64.5528 108.331 64.7791C108.331 65.0055 108.147 65.1891 107.921 65.1891Z" fill="#472B29"/>
<path d="M107.92 71.7497H83.3202C83.0938 71.7497 82.9102 71.566 82.9102 71.3397C82.9102 71.1134 83.0938 70.9297 83.3202 70.9297H107.92C108.146 70.9297 108.33 71.1134 108.33 71.3397C108.33 71.566 108.146 71.7497 107.92 71.7497Z" fill="#472B29"/>
<path d="M107.92 78.3102H83.3202C83.0938 78.3102 82.9102 78.1266 82.9102 77.9002C82.9102 77.6739 83.0938 77.4902 83.3202 77.4902H107.92C108.146 77.4902 108.33 77.6739 108.33 77.9002C108.33 78.1266 108.146 78.3102 107.92 78.3102Z" fill="#472B29"/>
<path d="M107.92 84.8708H83.3202C83.0938 84.8708 82.9102 84.6871 82.9102 84.4608C82.9102 84.2345 83.0938 84.0508 83.3202 84.0508H107.92C108.146 84.0508 108.33 84.2345 108.33 84.4608C108.33 84.6871 108.146 84.8708 107.92 84.8708Z" fill="#472B29"/>
<path d="M107.92 91.4294H83.3202C83.0938 91.4294 82.9102 91.2457 82.9102 91.0194C82.9102 90.7931 83.0938 90.6094 83.3202 90.6094H107.92C108.146 90.6094 108.33 90.7931 108.33 91.0194C108.33 91.2457 108.146 91.4294 107.92 91.4294Z" fill="#472B29"/>
<path d="M84.9592 97.9899H60.3592C60.1329 97.9899 59.9492 97.8062 59.9492 97.5799C59.9492 97.3536 60.1329 97.1699 60.3592 97.1699H84.9592C85.1855 97.1699 85.3692 97.3536 85.3692 97.5799C85.3692 97.8062 85.1855 97.9899 84.9592 97.9899Z" fill="#472B29"/>
<path d="M84.9592 104.55H60.3592C60.1329 104.55 59.9492 104.367 59.9492 104.14C59.9492 103.914 60.1329 103.73 60.3592 103.73H84.9592C85.1855 103.73 85.3692 103.914 85.3692 104.14C85.3692 104.367 85.1855 104.55 84.9592 104.55Z" fill="#472B29"/>
<path d="M84.9592 111.109H60.3592C60.1329 111.109 59.9492 110.925 59.9492 110.699C59.9492 110.473 60.1329 110.289 60.3592 110.289H84.9592C85.1855 110.289 85.3692 110.473 85.3692 110.699C85.3692 110.925 85.1855 111.109 84.9592 111.109Z" fill="#472B29"/>
<path d="M78.2637 51.714H69.2437C68.609 51.714 68.0957 51.2006 68.0957 50.566C68.0957 49.9313 68.609 49.418 69.2437 49.418H78.2637C78.8984 49.418 79.4117 49.9313 79.4117 50.566C79.4117 51.2006 78.8967 51.714 78.2637 51.714Z" fill="#472B29"/>
<path d="M106 96.8613C102.118 96.8613 98.3943 98.4036 95.649 101.149C92.9036 103.894 91.3613 107.618 91.3613 111.5C91.3613 115.383 92.9036 119.106 95.649 121.851C98.3943 124.597 102.118 126.139 106 126.139C109.883 126.139 113.606 124.597 116.351 121.851C119.097 119.106 120.639 115.383 120.639 111.5C120.639 107.618 119.097 103.894 116.351 101.149C113.606 98.4036 109.883 96.8613 106 96.8613Z" fill="#FBCD59"/>
<path d="M106 97.7222C113.597 97.7222 119.778 103.903 119.778 111.5C119.778 119.097 113.597 125.278 106 125.278C98.4033 125.278 92.2222 119.097 92.2222 111.5C92.2222 103.903 98.4033 97.7222 106 97.7222ZM106 96C97.4526 96 90.5 102.954 90.5 111.5C90.5 120.046 97.4526 127 106 127C114.547 127 121.5 120.046 121.5 111.5C121.5 102.954 114.547 96 106 96Z" fill="#472B29"/>
<path d="M106.001 103.32L106.02 103.332L108.294 107.924L108.393 108.127L108.617 108.16L113.712 108.928L110.035 112.503L109.873 112.662L109.911 112.886L110.748 117.957L106.201 115.574L106.001 115.469L105.802 115.574L101.226 117.937L102.094 112.886L102.131 112.662L101.97 112.503L98.3047 108.897L103.385 108.16L103.609 108.127L103.709 107.924L105.982 103.331C105.988 103.324 105.994 103.32 106.001 103.32Z" fill="#F1BC19"/>
<path d="M106 104.265L107.907 108.116L108.108 108.52L108.556 108.586L112.813 109.202L109.736 112.194L109.41 112.511L109.488 112.959L110.216 117.192L106.403 115.192L106.004 114.982L105.604 115.192L101.795 117.19L102.523 112.957L102.601 112.509L102.275 112.192L99.1974 109.201L103.453 108.584L103.901 108.519L104.102 108.114L106 104.265ZM106 102.889C105.828 102.889 105.671 102.985 105.595 103.14L103.322 107.732L98.2416 108.469C98.0711 108.495 97.9316 108.612 97.8765 108.775C97.8214 108.939 97.8679 109.118 97.9901 109.237L101.667 112.812L100.799 117.863C100.77 118.032 100.84 118.203 100.98 118.303C101.057 118.359 101.152 118.389 101.245 118.389C101.317 118.389 101.388 118.373 101.454 118.339L106 115.955L110.547 118.339C110.614 118.371 110.686 118.389 110.759 118.389C110.852 118.389 110.943 118.361 111.02 118.303C111.162 118.201 111.231 118.032 111.201 117.863L110.333 112.812L114.01 109.237C114.133 109.116 114.177 108.939 114.124 108.775C114.071 108.612 113.929 108.495 113.759 108.469L108.677 107.732L106.403 103.14C106.329 102.985 106.172 102.889 106 102.889Z" fill="#472B29"/>
<path d="M117.216 114.943C117.18 114.943 117.142 114.938 117.104 114.929C116.875 114.867 116.739 114.631 116.799 114.4C117.061 113.426 117.193 112.449 117.193 111.498C117.193 105.455 112.457 100.549 106.414 100.326C106.176 100.318 105.99 100.118 105.999 99.8803C106.008 99.6426 106.156 99.4549 106.445 99.4653C112.955 99.7046 118.054 104.99 118.054 111.498C118.054 112.525 117.912 113.577 117.631 114.624C117.579 114.815 117.405 114.943 117.216 114.943ZM105.568 123.532C105.563 123.532 105.558 123.532 105.553 123.532C104.676 123.499 103.774 123.359 102.873 123.118C102.644 123.056 102.508 122.82 102.57 122.591C102.632 122.362 102.866 122.228 103.097 122.288C103.934 122.512 104.773 122.643 105.584 122.672C105.822 122.681 106.008 122.881 105.999 123.118C105.99 123.349 105.799 123.532 105.568 123.532ZM100.402 122.099C100.331 122.099 100.259 122.081 100.193 122.045C99.9246 121.897 99.6715 121.727 99.42 121.556L99.2995 121.475C99.1031 121.343 99.0497 121.076 99.1824 120.878C99.3167 120.68 99.5854 120.631 99.78 120.761L99.9022 120.843C100.133 121 100.364 121.157 100.608 121.291C100.817 121.406 100.893 121.668 100.779 121.877C100.7 122.018 100.553 122.099 100.402 122.099ZM97.777 120.11C97.6668 120.11 97.5566 120.068 97.4722 119.984C95.1971 117.705 93.9434 114.693 93.9434 111.498C93.9434 107.852 95.5709 104.441 98.4074 102.136C98.5916 101.987 98.8603 102.014 99.0136 102.2C99.1634 102.384 99.1341 102.657 98.9499 102.806C96.3149 104.945 94.8045 108.113 94.8045 111.498C94.8045 114.462 95.9687 117.261 98.0801 119.374C98.2489 119.543 98.2489 119.815 98.0801 119.984C97.9975 120.068 97.8873 120.11 97.777 120.11Z" fill="#472B29"/>
</svg>
