<svg width="165" height="164" viewBox="0 0 165 164" fill="none" xmlns="http://www.w3.org/2000/svg">
<path d="M82.5003 142.68C116.013 142.68 143.18 115.513 143.18 82.0003C143.18 48.4877 116.013 21.3203 82.5003 21.3203C48.9877 21.3203 21.8203 48.4877 21.8203 82.0003C21.8203 115.513 48.9877 142.68 82.5003 142.68Z" fill="#E6EDB7"/>
<path d="M83.649 118.571V105.451H67.249V97.2513H49.209V80.3593C49.209 74.662 53.8436 70.0273 59.541 70.0273C63.6869 70.0273 67.4179 72.4923 69.0464 76.3085L69.7008 77.8436L70.8996 76.6825C73.1497 74.5062 76.105 73.3073 79.221 73.3073C83.2242 73.3073 86.947 75.2983 89.1774 78.6357L89.8006 79.5672L90.7469 78.967C93.1987 77.4106 96.0178 76.5873 98.901 76.5873C107.311 76.5873 114.153 83.4294 114.153 91.8393V118.571H83.649Z" fill="#78A0CF"/>
<path d="M59.5405 71.1749C63.2256 71.1749 66.5433 73.3659 67.9915 76.7591L69.3018 79.8292L71.6995 77.5069C73.7331 75.5389 76.4047 74.4549 79.2205 74.4549C82.84 74.4549 86.2053 76.2556 88.2241 79.2732L89.4705 81.1363L91.3631 79.9358C93.6296 78.4959 96.2372 77.7349 98.9005 77.7349C106.677 77.7349 113.005 84.062 113.005 91.8389V117.423H84.7966V106.599V104.303H82.5005H68.3965V98.3989V96.1029H66.1005H50.3565V80.3589C50.3565 75.2946 54.4762 71.1749 59.5405 71.1749ZM59.5405 68.8789C53.2003 68.8789 48.0605 74.0187 48.0605 80.3589V97.9807C48.0605 98.2119 48.2475 98.3989 48.4787 98.3989H66.1005V106.266C66.1005 106.45 66.2498 106.599 66.4335 106.599H82.5005V119.719H115.301V91.8389C115.301 82.7812 107.958 75.4389 98.9005 75.4389C95.6714 75.4389 92.6702 76.3852 90.1315 77.9973C87.7781 74.4779 83.7715 72.1589 79.2205 72.1589C75.6749 72.1589 72.4637 73.5709 70.1021 75.8571C68.3523 71.7555 64.2818 68.8789 59.5405 68.8789Z" fill="#472B29"/>
<path d="M100.54 62.8117C105.34 62.8117 109.232 58.9202 109.232 54.1197C109.232 49.3193 105.34 45.4277 100.54 45.4277C95.7392 45.4277 91.8477 49.3193 91.8477 54.1197C91.8477 58.9202 95.7392 62.8117 100.54 62.8117Z" fill="#78A0CF"/>
<path d="M100.541 46.5753C104.7 46.5753 108.085 49.9586 108.085 54.1193C108.085 58.28 104.7 61.6633 100.541 61.6633C96.3821 61.6633 92.9972 58.28 92.9972 54.1193C92.9972 49.9586 96.3821 46.5753 100.541 46.5753ZM100.541 44.2793C95.1062 44.2793 90.7012 48.686 90.7012 54.1193C90.7012 59.5526 95.1062 63.9593 100.541 63.9593C105.976 63.9593 110.381 59.5526 110.381 54.1193C110.381 48.686 105.976 44.2793 100.541 44.2793Z" fill="#472B29"/>
<path d="M77.5813 62.811C81.476 62.811 84.6333 59.6537 84.6333 55.759C84.6333 51.8643 81.476 48.707 77.5813 48.707C73.6866 48.707 70.5293 51.8643 70.5293 55.759C70.5293 59.6537 73.6866 62.811 77.5813 62.811Z" fill="#78A0CF"/>
<path d="M77.5809 49.8546C80.8363 49.8546 83.4849 52.5032 83.4849 55.7586C83.4849 59.014 80.8363 61.6626 77.5809 61.6626C74.3255 61.6626 71.6769 59.014 71.6769 55.7586C71.6769 52.5032 74.3255 49.8546 77.5809 49.8546ZM77.5809 47.5586C73.0528 47.5586 69.3809 51.2306 69.3809 55.7586C69.3809 60.2866 73.0528 63.9586 77.5809 63.9586C82.1089 63.9586 85.7809 60.2866 85.7809 55.7586C85.7809 51.2306 82.1089 47.5586 77.5809 47.5586Z" fill="#472B29"/>
<path d="M57.9003 62.8103C60.8892 62.8103 63.3123 60.3873 63.3123 57.3983C63.3123 54.4094 60.8892 51.9863 57.9003 51.9863C54.9113 51.9863 52.4883 54.4094 52.4883 57.3983C52.4883 60.3873 54.9113 62.8103 57.9003 62.8103Z" fill="#78A0CF"/>
<path d="M57.8998 53.1358C60.2516 53.1358 62.1638 55.0497 62.1638 57.3998C62.1638 59.75 60.2516 61.6638 57.8998 61.6638C55.5481 61.6638 53.6358 59.75 53.6358 57.3998C53.6358 55.0497 55.5481 53.1358 57.8998 53.1358ZM57.8998 50.8398C54.2771 50.8398 51.3398 53.7771 51.3398 57.3998C51.3398 61.0226 54.2771 63.9598 57.8998 63.9598C61.5226 63.9598 64.4598 61.0226 64.4598 57.3998C64.4598 53.7771 61.5226 50.8398 57.8998 50.8398Z" fill="#472B29"/>
<path d="M88.2401 100.176C88.0138 100.176 87.8301 99.9926 87.8301 99.7663V91.7811C87.8301 91.5548 88.0138 91.3711 88.2401 91.3711C88.4664 91.3711 88.6501 91.5548 88.6501 91.7811V99.7663C88.6501 99.9926 88.4664 100.176 88.2401 100.176Z" fill="#472B29"/>
<path d="M88.5531 89.6288C88.5203 89.6288 88.4875 89.6255 88.4547 89.6173C88.2349 89.5632 88.1004 89.3402 88.1546 89.1204C88.335 88.3906 88.5941 87.6756 88.9237 86.995C90.7523 83.2131 94.6457 80.7695 98.8424 80.7695H98.9589C99.1852 80.7695 99.3689 80.9532 99.3689 81.1795C99.3689 81.4059 99.1852 81.5895 98.9589 81.5895H98.8424C94.9573 81.5895 91.3542 83.8511 89.6617 87.3508C89.3567 87.9806 89.1172 88.6432 88.95 89.3172C88.904 89.5042 88.7368 89.6288 88.5531 89.6288Z" fill="#472B29"/>
<path d="M88.2401 114.39C88.0138 114.39 87.8301 114.206 87.8301 113.98V103.183C87.8301 102.957 88.0138 102.773 88.2401 102.773C88.4664 102.773 88.6501 102.957 88.6501 103.183V113.98C88.6501 114.206 88.4664 114.39 88.2401 114.39Z" fill="#472B29"/>
<path d="M72.7645 82.1101C72.6956 82.1101 72.6283 82.0937 72.5644 82.0593C72.3659 81.9494 72.2954 81.7001 72.4053 81.5017C73.7813 79.0269 76.3921 77.4902 79.2195 77.4902C79.4458 77.4902 79.6295 77.6739 79.6295 77.9002C79.6295 78.1266 79.4458 78.3102 79.2195 78.3102C76.689 78.3102 74.352 79.6862 73.122 81.9002C73.0482 82.033 72.9088 82.1101 72.7645 82.1101Z" fill="#472B29"/>
<path d="M71.8397 101.269C71.6134 101.269 71.4297 101.085 71.4297 100.859V85.2791C71.4297 85.0528 71.6134 84.8691 71.8397 84.8691C72.066 84.8691 72.2497 85.0528 72.2497 85.2791V100.859C72.2497 101.085 72.066 101.269 71.8397 101.269Z" fill="#472B29"/>
<path d="M53.8006 93.0684C53.5743 93.0684 53.3906 92.8847 53.3906 92.6584V83.2284C53.3906 83.002 53.5743 82.8184 53.8006 82.8184C54.0269 82.8184 54.2106 83.002 54.2106 83.2284V92.6584C54.2106 92.8847 54.0269 93.0684 53.8006 93.0684Z" fill="#472B29"/>
<path d="M53.8006 80.769C53.5743 80.769 53.3906 80.5853 53.3906 80.359C53.3906 76.9675 56.1491 74.209 59.5406 74.209C59.7669 74.209 59.9506 74.3927 59.9506 74.619C59.9506 74.8453 59.7669 75.029 59.5406 75.029C56.6017 75.029 54.2106 77.4201 54.2106 80.359C54.2106 80.5853 54.0269 80.769 53.8006 80.769Z" fill="#472B29"/>
</svg>
