<svg width="369" height="430" viewBox="0 0 369 430" fill="none" xmlns="http://www.w3.org/2000/svg">
<path d="M92.5 284C92.1022 284 91.7206 284.158 91.4393 284.439C91.158 284.721 91 285.102 91 285.5C91 285.898 91.158 286.279 91.4393 286.561C91.7206 286.842 92.1022 287 92.5 287C92.8978 287 93.2794 286.842 93.5607 286.561C93.842 286.279 94 285.898 94 285.5C94 285.102 93.842 284.721 93.5607 284.439C93.2794 284.158 92.8978 284 92.5 284Z" fill="#F1BC19"/>
<path d="M93.5 293C92.3065 293 91.1619 293.474 90.318 294.318C89.4741 295.162 89 296.307 89 297.5C89 298.693 89.4741 299.838 90.318 300.682C91.1619 301.526 92.3065 302 93.5 302C94.6935 302 95.8381 301.526 96.682 300.682C97.5259 299.838 98 298.693 98 297.5C98 296.307 97.5259 295.162 96.682 294.318C95.8381 293.474 94.6935 293 93.5 293Z" fill="#00A7A7"/>
<path d="M104 300C103.204 300 102.441 300.316 101.879 300.879C101.316 301.441 101 302.204 101 303C101 303.796 101.316 304.559 101.879 305.121C102.441 305.684 103.204 306 104 306C104.796 306 105.559 305.684 106.121 305.121C106.684 304.559 107 303.796 107 303C107 302.204 106.684 301.441 106.121 300.879C105.559 300.316 104.796 300 104 300Z" fill="#EE3E54"/>
<path d="M317 20C316.735 20 316.48 20.1054 316.293 20.2929C316.105 20.4804 316 20.7348 316 21C316 21.2652 316.105 21.5196 316.293 21.7071C316.48 21.8946 316.735 22 317 22C317.265 22 317.52 21.8946 317.707 21.7071C317.895 21.5196 318 21.2652 318 21C318 20.7348 317.895 20.4804 317.707 20.2929C317.52 20.1054 317.265 20 317 20Z" fill="#F1BC19"/>
<path d="M323 19C321.939 19 320.922 19.4214 320.172 20.1716C319.421 20.9218 319 21.9392 319 23.0001C319 24.061 319.421 25.0784 320.172 25.8286C320.922 26.5787 321.939 27.0001 323 27.0001C324.061 27.0001 325.078 26.5787 325.828 25.8286C326.579 25.0784 327 24.061 327 23.0001C327 21.9392 326.579 20.9218 325.828 20.1716C325.078 19.4214 324.061 19 323 19Z" fill="#00A7A7"/>
<path d="M328 30C327.47 30 326.961 30.2107 326.586 30.5858C326.211 30.9609 326 31.4696 326 32C326 32.5304 326.211 33.0391 326.586 33.4142C326.961 33.7893 327.47 34 328 34C328.53 34 329.039 33.7893 329.414 33.4142C329.789 33.0391 330 32.5304 330 32C330 31.4696 329.789 30.9609 329.414 30.5858C329.039 30.2107 328.53 30 328 30Z" fill="#EE3E54"/>
<g filter="url(#filter0_ddd_422_14267)">
<path d="M17.1595 391.641C16.9898 391.641 16.827 391.708 16.707 391.828C16.587 391.948 16.5195 392.111 16.5195 392.281C16.5195 392.45 16.587 392.613 16.707 392.733C16.827 392.853 16.9898 392.921 17.1595 392.921C17.3293 392.921 17.4921 392.853 17.6121 392.733C17.7321 392.613 17.7995 392.45 17.7995 392.281C17.7995 392.111 17.7321 391.948 17.6121 391.828C17.4921 391.708 17.3293 391.641 17.1595 391.641Z" fill="#78A0CF"/>
<path d="M37.6403 386.84C37.5554 386.84 37.474 386.874 37.414 386.934C37.354 386.994 37.3203 387.075 37.3203 387.16C37.3203 387.245 37.354 387.326 37.414 387.386C37.474 387.446 37.5554 387.48 37.6403 387.48C37.7252 387.48 37.8066 387.446 37.8666 387.386C37.9266 387.326 37.9603 387.245 37.9603 387.16C37.9603 387.075 37.9266 386.994 37.8666 386.934C37.8066 386.874 37.7252 386.84 37.6403 386.84Z" fill="#F1BC19"/>
<path d="M29.0002 387.16C25.86 387.16 22.8484 388.408 20.628 390.628C18.4076 392.848 17.1602 395.86 17.1602 399C17.1602 402.14 18.4076 405.152 20.628 407.372C22.8484 409.593 25.86 410.84 29.0002 410.84C32.1403 410.84 35.1519 409.593 37.3723 407.372C39.5927 405.152 40.8402 402.14 40.8402 399C40.8402 395.86 39.5927 392.848 37.3723 390.628C35.1519 388.408 32.1403 387.16 29.0002 387.16Z" fill="#E3EFFB"/>
<path d="M39.5593 386.52C39.2198 386.52 38.8942 386.654 38.6542 386.894C38.4142 387.134 38.2793 387.46 38.2793 387.8C38.2793 388.139 38.4142 388.465 38.6542 388.705C38.8942 388.945 39.2198 389.08 39.5593 389.08C39.8988 389.08 40.2243 388.945 40.4644 388.705C40.7044 388.465 40.8393 388.139 40.8393 387.8C40.8393 387.46 40.7044 387.134 40.4644 386.894C40.2243 386.654 39.8988 386.52 39.5593 386.52Z" fill="#F1BC19"/>
<path d="M40.8392 390.039C40.6695 390.039 40.5067 390.106 40.3867 390.227C40.2666 390.347 40.1992 390.509 40.1992 390.679C40.1992 390.849 40.2666 391.012 40.3867 391.132C40.5067 391.252 40.6695 391.319 40.8392 391.319C41.009 391.319 41.1717 391.252 41.2918 391.132C41.4118 391.012 41.4792 390.849 41.4792 390.679C41.4792 390.509 41.4118 390.347 41.2918 390.227C41.1717 390.106 41.009 390.039 40.8392 390.039Z" fill="#78A0CF"/>
<path d="M38.9195 406.681C38.7498 406.681 38.587 406.748 38.467 406.868C38.347 406.988 38.2795 407.151 38.2795 407.321C38.2795 407.491 38.347 407.653 38.467 407.773C38.587 407.893 38.7498 407.961 38.9195 407.961C39.0893 407.961 39.2521 407.893 39.3721 407.773C39.4921 407.653 39.5595 407.491 39.5595 407.321C39.5595 407.151 39.4921 406.988 39.3721 406.868C39.2521 406.748 39.0893 406.681 38.9195 406.681ZM17.7995 401.881C17.4601 401.881 17.1345 402.016 16.8944 402.256C16.6544 402.496 16.5195 402.821 16.5195 403.161C16.5195 403.5 16.6544 403.826 16.8944 404.066C17.1345 404.306 17.4601 404.441 17.7995 404.441C18.139 404.441 18.4646 404.306 18.7046 404.066C18.9447 403.826 19.0795 403.5 19.0795 403.161C19.0795 402.821 18.9447 402.496 18.7046 402.256C18.4646 402.016 18.139 401.881 17.7995 401.881Z" fill="#FBCD59"/>
<path d="M20.9994 410.199C20.8296 410.199 20.6668 410.267 20.5468 410.387C20.4268 410.507 20.3594 410.669 20.3594 410.839C20.3594 411.009 20.4268 411.172 20.5468 411.292C20.6668 411.412 20.8296 411.479 20.9994 411.479C21.1691 411.479 21.3319 411.412 21.4519 411.292C21.5719 411.172 21.6394 411.009 21.6394 410.839C21.6394 410.669 21.5719 410.507 21.4519 410.387C21.3319 410.267 21.1691 410.199 20.9994 410.199Z" fill="#78A0CF"/>
<path d="M18.9191 399.32C18.707 399.32 18.5035 399.405 18.3535 399.555C18.2034 399.705 18.1191 399.908 18.1191 400.12C18.1191 400.332 18.2034 400.536 18.3535 400.686C18.5035 400.836 18.707 400.92 18.9191 400.92C19.1313 400.92 19.3348 400.836 19.4848 400.686C19.6349 400.536 19.7191 400.332 19.7191 400.12C19.7191 399.908 19.6349 399.705 19.4848 399.555C19.3348 399.405 19.1313 399.32 18.9191 399.32Z" fill="white"/>
<path d="M19.7204 404.119C19.6355 404.119 19.5541 404.153 19.4941 404.213C19.4341 404.273 19.4004 404.354 19.4004 404.439C19.4004 404.524 19.4341 404.605 19.4941 404.665C19.5541 404.725 19.6355 404.759 19.7204 404.759C19.8053 404.759 19.8867 404.725 19.9467 404.665C20.0067 404.605 20.0404 404.524 20.0404 404.439C20.0404 404.354 20.0067 404.273 19.9467 404.213C19.8867 404.153 19.8053 404.119 19.7204 404.119Z" fill="#F1BC19"/>
<path d="M38.5993 393.561C38.5144 393.561 38.433 393.594 38.373 393.654C38.313 393.714 38.2793 393.796 38.2793 393.881C38.2793 393.965 38.313 394.047 38.373 394.107C38.433 394.167 38.5144 394.201 38.5993 394.201C38.6842 394.201 38.7656 394.167 38.8256 394.107C38.8856 394.047 38.9193 393.965 38.9193 393.881C38.9193 393.796 38.8856 393.714 38.8256 393.654C38.7656 393.594 38.6842 393.561 38.5993 393.561Z" fill="white"/>
<path d="M34.3604 393.103L27.4807 394.829V403.167V403.666C27.4817 404.437 26.5569 405.419 25.011 406.016C23.2714 406.686 21.6033 406.588 21.2852 405.798C20.9671 405.007 22.1198 403.822 23.8593 403.152C24.6602 402.843 25.3681 402.75 26.0138 402.76L26.0135 402.538V393.704L35.8097 391.221V400.718V401.217C35.8106 401.988 34.7287 402.99 33.1828 403.586C31.4433 404.256 29.7751 404.158 29.457 403.368C29.139 402.577 30.2916 401.392 32.0311 400.722C32.8321 400.413 33.7143 400.216 34.3601 400.226L34.3598 400.004V393.103H34.3604Z" fill="#EA5167"/>
<path d="M22.8524 406.683C21.9612 406.683 21.2885 406.409 21.0764 405.881C20.9711 405.62 20.9874 405.316 21.1231 405.004C21.4578 404.235 22.4751 403.445 23.7775 402.943C24.4431 402.686 25.1036 402.553 25.7884 402.537V393.704C25.7884 393.601 25.8581 393.512 25.9573 393.486L35.7532 391.003C35.8191 390.986 35.8911 391.001 35.9458 391.044C36.0005 391.086 36.0325 391.152 36.0325 391.221V401.217C36.0338 402.105 34.8946 403.165 33.2623 403.794C31.3807 404.52 29.6175 404.369 29.2485 403.451C29.1432 403.19 29.1596 402.887 29.2952 402.575C29.63 401.805 30.6472 401.015 31.9496 400.513C32.709 400.22 33.5058 400.037 34.1349 400.007V393.39L27.7036 395.004V403.666C27.7052 404.593 26.6549 405.621 25.0904 406.224C24.2901 406.533 23.5116 406.683 22.8524 406.683ZM25.9279 402.983C25.2485 402.983 24.597 403.107 23.9388 403.361C22.7618 403.814 21.8181 404.529 21.534 405.183C21.446 405.385 21.4316 405.564 21.4917 405.714C21.725 406.294 23.1941 406.475 24.9288 405.806C26.4572 405.217 27.2559 404.283 27.2552 403.666V394.829C27.2552 394.727 27.3253 394.637 27.4248 394.612L34.3045 392.885C34.3711 392.868 34.4424 392.884 34.4968 392.926C34.5512 392.969 34.5832 393.034 34.5832 393.103L34.5836 400.226C34.5836 400.286 34.5596 400.343 34.517 400.386C34.4741 400.428 34.4245 400.461 34.3564 400.45C33.7432 400.443 32.9141 400.621 32.1109 400.931C30.9343 401.384 29.9903 402.099 29.7061 402.753C29.6181 402.956 29.6037 403.134 29.6639 403.284C29.8972 403.864 31.3653 404.046 33.1007 403.376C34.7151 402.754 35.5852 401.8 35.5842 401.218V391.509L26.2364 393.878L26.2367 402.759C26.2367 402.819 26.2127 402.877 26.1701 402.919C26.1272 402.961 26.068 402.988 26.0095 402.984C25.9823 402.983 25.9551 402.983 25.9279 402.983Z" fill="#472B29"/>
<path d="M27.5332 396.172L32.9358 394.865L27.5332 396.172Z" fill="#1F212B"/>
<path d="M27.5344 396.334C27.4621 396.334 27.3965 396.285 27.3789 396.211C27.3584 396.125 27.4112 396.039 27.497 396.018L32.8996 394.711C32.9863 394.692 33.072 394.744 33.0928 394.829C33.1136 394.915 33.0605 395.001 32.9748 395.022L27.5722 396.329C27.5594 396.332 27.5466 396.334 27.5344 396.334ZM32.1303 403.09C32.0938 403.09 32.0608 403.065 32.0525 403.028C32.0426 402.985 32.0695 402.941 32.1124 402.932C33.1696 402.688 34.0442 402.16 34.4096 401.772C34.44 401.74 34.4903 401.738 34.5229 401.769C34.5549 401.799 34.5562 401.85 34.5261 401.882C34.145 402.286 33.2384 402.836 32.1488 403.088C32.1421 403.089 32.1364 403.09 32.1303 403.09ZM31.008 403.222C30.816 403.222 30.6272 403.21 30.4439 403.186C30.4 403.18 30.3693 403.14 30.3748 403.097C30.3802 403.053 30.4205 403.022 30.4644 403.028C30.6877 403.057 30.9213 403.069 31.1572 403.06C31.1943 403.06 31.2384 403.093 31.24 403.137C31.2416 403.181 31.2068 403.218 31.1629 403.22C31.1114 403.221 31.0599 403.222 31.008 403.222ZM22.801 405.728C22.6922 405.728 22.5936 405.722 22.5072 405.711C22.4634 405.705 22.4327 405.665 22.4381 405.621C22.4436 405.578 22.4839 405.547 22.5277 405.552C23.0576 405.62 24.0679 405.477 25.0407 404.997C25.08 404.978 25.128 404.993 25.1479 405.033C25.1674 405.073 25.1511 405.121 25.1114 405.14C24.2656 405.557 23.3863 405.728 22.801 405.728ZM24.1284 403.972C24.0964 403.972 24.0666 403.953 24.0541 403.922C24.0378 403.881 24.058 403.834 24.0989 403.818C24.5248 403.648 24.9556 403.536 25.4957 403.455C25.5424 403.446 25.5802 403.478 25.5866 403.522C25.5933 403.566 25.5632 403.606 25.5194 403.613C24.992 403.692 24.5719 403.802 24.1581 403.966C24.1485 403.97 24.1386 403.972 24.1284 403.972Z" fill="#472B29"/>
<path d="M23.0664 404.519C23.0398 404.519 23.0139 404.506 22.9985 404.482C22.9752 404.444 22.9864 404.395 23.0238 404.371C23.1876 404.269 23.3492 404.175 23.5035 404.093C23.5425 404.073 23.5908 404.087 23.6116 404.126C23.6321 404.166 23.6177 404.214 23.5784 404.235C23.4273 404.315 23.2692 404.406 23.1086 404.507C23.0958 404.515 23.0811 404.519 23.0664 404.519Z" fill="#472B29"/>
<path d="M25.7187 404.759C25.6921 404.759 25.6659 404.745 25.6505 404.721C25.6275 404.683 25.639 404.634 25.6765 404.61C26.0073 404.405 26.2947 404.112 26.375 404.027C26.4054 403.995 26.4557 403.993 26.4883 404.024C26.5203 404.054 26.5216 404.105 26.4915 404.137C26.408 404.225 26.1088 404.531 25.7613 404.747C25.7478 404.755 25.7331 404.759 25.7187 404.759Z" fill="#472B29"/>
</g>
<g filter="url(#filter1_ddd_422_14267)">
<path d="M348.961 286.8C349.137 286.8 349.281 286.657 349.281 286.48C349.281 286.303 349.137 286.16 348.961 286.16C348.784 286.16 348.641 286.303 348.641 286.48C348.641 286.657 348.784 286.8 348.961 286.8Z" fill="#F1BC19"/>
<path d="M340 310.16C346.716 310.16 352.16 304.716 352.16 298C352.16 291.284 346.716 285.84 340 285.84C333.284 285.84 327.84 291.284 327.84 298C327.84 304.716 333.284 310.16 340 310.16Z" fill="#F9DBD2"/>
<path d="M350.88 288.4C351.587 288.4 352.16 287.827 352.16 287.12C352.16 286.413 351.587 285.84 350.88 285.84C350.173 285.84 349.6 286.413 349.6 287.12C349.6 287.827 350.173 288.4 350.88 288.4Z" fill="#F1BC19"/>
<path d="M328.48 290.96C328.833 290.96 329.12 290.673 329.12 290.32C329.12 289.966 328.833 289.68 328.48 289.68C328.126 289.68 327.84 289.966 327.84 290.32C327.84 290.673 328.126 290.96 328.48 290.96Z" fill="#EE3E54"/>
<path d="M348.96 307.28C349.314 307.28 349.6 306.993 349.6 306.64C349.6 306.287 349.314 306 348.96 306C348.607 306 348.32 306.287 348.32 306.64C348.32 306.993 348.607 307.28 348.96 307.28Z" fill="#FBCD59"/>
<path d="M329.44 308.24C330.147 308.24 330.72 307.667 330.72 306.96C330.72 306.253 330.147 305.68 329.44 305.68C328.733 305.68 328.16 306.253 328.16 306.96C328.16 307.667 328.733 308.24 329.44 308.24Z" fill="#FBCD59"/>
<path d="M331.679 309.2C332.033 309.2 332.319 308.913 332.319 308.56C332.319 308.206 332.033 307.92 331.679 307.92C331.326 307.92 331.039 308.206 331.039 308.56C331.039 308.913 331.326 309.2 331.679 309.2Z" fill="#EE3E54"/>
<path d="M344.634 307.919C345.073 307.919 345.429 307.563 345.429 307.125C345.429 306.686 345.073 306.33 344.634 306.33C344.196 306.33 343.84 306.686 343.84 307.125C343.84 307.563 344.196 307.919 344.634 307.919Z" fill="white"/>
<path d="M329.121 297.679C329.298 297.679 329.441 297.536 329.441 297.359C329.441 297.182 329.298 297.039 329.121 297.039C328.944 297.039 328.801 297.182 328.801 297.359C328.801 297.536 328.944 297.679 329.121 297.679Z" fill="white"/>
<path d="M351.519 292.24C351.696 292.24 351.839 292.096 351.839 291.92C351.839 291.743 351.696 291.6 351.519 291.6C351.342 291.6 351.199 291.743 351.199 291.92C351.199 292.096 351.342 292.24 351.519 292.24Z" fill="#F1BC19"/>
<path d="M350.88 297.04C351.234 297.04 351.52 296.753 351.52 296.4C351.52 296.046 351.234 295.76 350.88 295.76C350.527 295.76 350.24 296.046 350.24 296.4C350.24 296.753 350.527 297.04 350.88 297.04Z" fill="white"/>
<path d="M333.28 298.736C334.217 298.736 334.976 297.976 334.976 297.04C334.976 296.103 334.217 295.344 333.28 295.344C332.343 295.344 331.584 296.103 331.584 297.04C331.584 297.976 332.343 298.736 333.28 298.736Z" fill="white"/>
<path d="M333.279 295.567C334.091 295.567 334.751 296.227 334.751 297.039C334.751 297.851 334.091 298.511 333.279 298.511C332.468 298.511 331.807 297.851 331.807 297.039C331.807 296.227 332.468 295.567 333.279 295.567ZM333.279 295.119C332.219 295.119 331.359 295.979 331.359 297.039C331.359 298.099 332.219 298.959 333.279 298.959C334.34 298.959 335.199 298.099 335.199 297.039C335.199 295.979 334.34 295.119 333.279 295.119Z" fill="#472B29"/>
<path d="M347.04 298.736C347.976 298.736 348.736 297.976 348.736 297.04C348.736 296.103 347.976 295.344 347.04 295.344C346.103 295.344 345.344 296.103 345.344 297.04C345.344 297.976 346.103 298.736 347.04 298.736Z" fill="white"/>
<path d="M347.039 295.567C347.851 295.567 348.511 296.227 348.511 297.039C348.511 297.851 347.851 298.511 347.039 298.511C346.228 298.511 345.567 297.851 345.567 297.039C345.567 296.227 346.228 295.567 347.039 295.567ZM347.039 295.119C345.979 295.119 345.119 295.979 345.119 297.039C345.119 298.099 345.979 298.959 347.039 298.959C348.1 298.959 348.959 298.099 348.959 297.039C348.959 295.979 348.1 295.119 347.039 295.119Z" fill="#472B29"/>
<path d="M340.161 304.496C344.544 304.496 348.097 302.161 348.097 299.28C348.097 296.4 344.544 294.064 340.161 294.064C335.778 294.064 332.225 296.4 332.225 299.28C332.225 302.161 335.778 304.496 340.161 304.496Z" fill="white"/>
<path d="M340.16 294.288C344.412 294.288 347.872 296.527 347.872 299.28C347.872 302.032 344.412 304.272 340.16 304.272C335.908 304.272 332.448 302.032 332.448 299.28C332.448 296.527 335.908 294.288 340.16 294.288ZM340.16 293.84C335.653 293.84 332 296.275 332 299.28C332 302.284 335.653 304.72 340.16 304.72C344.667 304.72 348.32 302.284 348.32 299.28C348.32 296.275 344.667 293.84 340.16 293.84Z" fill="#472B29"/>
<path d="M343.728 303.084C343.695 303.084 343.665 303.063 343.653 303.031C343.638 302.989 343.66 302.943 343.701 302.928C344.63 302.593 345.43 302.123 346.016 301.569C346.048 301.538 346.099 301.54 346.129 301.572C346.159 301.604 346.158 301.655 346.126 301.685C345.524 302.254 344.705 302.736 343.756 303.079C343.747 303.082 343.738 303.084 343.728 303.084Z" fill="#472B29"/>
<path d="M346.609 301.093C346.593 301.093 346.577 301.088 346.563 301.078C346.527 301.052 346.519 301.002 346.544 300.966C346.926 300.433 347.119 299.865 347.119 299.28C347.119 298.739 346.953 298.212 346.627 297.714C346.603 297.676 346.613 297.627 346.65 297.603C346.687 297.579 346.736 297.589 346.761 297.626C347.104 298.151 347.279 298.707 347.279 299.28C347.279 299.899 347.075 300.498 346.674 301.059C346.659 301.081 346.634 301.093 346.609 301.093Z" fill="#472B29"/>
<path d="M334.297 296.886C334.276 296.886 334.255 296.878 334.239 296.861C334.208 296.829 334.21 296.778 334.242 296.748C334.843 296.179 335.663 295.697 336.612 295.354C336.653 295.339 336.7 295.361 336.715 295.402C336.73 295.444 336.708 295.49 336.667 295.505C335.738 295.84 334.938 296.311 334.352 296.864C334.337 296.879 334.317 296.886 334.297 296.886Z" fill="#472B29"/>
<path d="M333.673 300.845C333.647 300.845 333.621 300.832 333.606 300.809C333.262 300.284 333.088 299.727 333.088 299.155C333.088 298.536 333.291 297.937 333.692 297.375C333.718 297.339 333.768 297.331 333.804 297.357C333.84 297.382 333.848 297.432 333.823 297.468C333.441 298.002 333.248 298.569 333.248 299.155C333.248 299.696 333.413 300.222 333.74 300.721C333.764 300.758 333.753 300.808 333.717 300.832C333.703 300.841 333.688 300.845 333.673 300.845Z" fill="#472B29"/>
<path d="M346.241 292.657C346.913 292.657 347.457 292.112 347.457 291.441C347.457 290.769 346.913 290.225 346.241 290.225C345.57 290.225 345.025 290.769 345.025 291.441C345.025 292.112 345.57 292.657 346.241 292.657Z" fill="white"/>
<path d="M346.241 290.448C346.788 290.448 347.233 290.893 347.233 291.44C347.233 291.987 346.788 292.432 346.241 292.432C345.694 292.432 345.249 291.987 345.249 291.44C345.249 290.893 345.694 290.448 346.241 290.448ZM346.241 290C345.446 290 344.801 290.645 344.801 291.44C344.801 292.235 345.446 292.88 346.241 292.88C347.036 292.88 347.681 292.235 347.681 291.44C347.681 290.645 347.036 290 346.241 290Z" fill="#472B29"/>
<path d="M337.44 299.439C338.059 299.439 338.56 298.938 338.56 298.319C338.56 297.701 338.059 297.199 337.44 297.199C336.822 297.199 336.32 297.701 336.32 298.319C336.32 298.938 336.822 299.439 337.44 299.439Z" fill="#EE3E54"/>
<path d="M337.44 299.599C336.734 299.599 336.16 299.025 336.16 298.319C336.16 297.613 336.734 297.039 337.44 297.039C338.146 297.039 338.72 297.613 338.72 298.319C338.72 299.025 338.146 299.599 337.44 299.599ZM337.44 297.359C336.911 297.359 336.48 297.79 336.48 298.319C336.48 298.848 336.911 299.279 337.44 299.279C337.969 299.279 338.4 298.848 338.4 298.319C338.4 297.79 337.969 297.359 337.44 297.359Z" fill="#472B29"/>
<path d="M342.88 299.439C343.498 299.439 344 298.938 344 298.319C344 297.701 343.498 297.199 342.88 297.199C342.261 297.199 341.76 297.701 341.76 298.319C341.76 298.938 342.261 299.439 342.88 299.439Z" fill="#EE3E54"/>
<path d="M342.88 299.599C342.174 299.599 341.6 299.025 341.6 298.319C341.6 297.613 342.174 297.039 342.88 297.039C343.586 297.039 344.16 297.613 344.16 298.319C344.16 299.025 343.586 299.599 342.88 299.599ZM342.88 297.359C342.35 297.359 341.92 297.79 341.92 298.319C341.92 298.848 342.35 299.279 342.88 299.279C343.409 299.279 343.84 298.848 343.84 298.319C343.84 297.79 343.409 297.359 342.88 297.359Z" fill="#472B29"/>
<path d="M340.16 294.16C340.143 294.16 340.126 294.158 340.109 294.152C340.026 294.124 339.98 294.033 340.008 293.95L341.288 290.11C341.315 290.03 341.399 289.983 341.482 290.006L345.082 290.966C345.167 290.988 345.218 291.076 345.195 291.161C345.172 291.246 345.085 291.298 344.999 291.275L341.544 290.353L340.312 294.051C340.289 294.118 340.227 294.16 340.16 294.16Z" fill="#472B29"/>
<path d="M340.139 302.596C339.25 302.596 338.367 302.336 337.516 301.816C337.441 301.77 337.417 301.671 337.463 301.596C337.509 301.521 337.608 301.497 337.683 301.543C339.3 302.531 340.968 302.53 342.638 301.542C342.713 301.497 342.812 301.522 342.857 301.598C342.903 301.674 342.877 301.772 342.801 301.817C341.924 302.336 341.028 302.596 340.139 302.596Z" fill="#472B29"/>
</g>
<g filter="url(#filter2_ddd_422_14267)">
<path d="M82.1595 19.6406C81.9898 19.6406 81.827 19.7081 81.707 19.8281C81.587 19.9481 81.5195 20.1109 81.5195 20.2806C81.5195 20.4504 81.587 20.6132 81.707 20.7332C81.827 20.8532 81.9898 20.9206 82.1595 20.9206C82.3293 20.9206 82.4921 20.8532 82.6121 20.7332C82.7321 20.6132 82.7995 20.4504 82.7995 20.2806C82.7995 20.1109 82.7321 19.9481 82.6121 19.8281C82.4921 19.7081 82.3293 19.6406 82.1595 19.6406Z" fill="#F1BC19"/>
<path d="M102.64 14.8398C102.555 14.8398 102.474 14.8736 102.414 14.9336C102.354 14.9936 102.32 15.075 102.32 15.1598C102.32 15.2447 102.354 15.3261 102.414 15.3861C102.474 15.4461 102.555 15.4798 102.64 15.4798C102.725 15.4798 102.807 15.4461 102.867 15.3861C102.927 15.3261 102.96 15.2447 102.96 15.1598C102.96 15.075 102.927 14.9936 102.867 14.9336C102.807 14.8736 102.725 14.8398 102.64 14.8398Z" fill="#F1BC19"/>
<path d="M94.0002 15.1602C90.86 15.1602 87.8484 16.4076 85.628 18.628C83.4076 20.8484 82.1602 23.86 82.1602 27.0002C82.1602 30.1403 83.4076 33.1519 85.628 35.3723C87.8484 37.5927 90.86 38.8402 94.0002 38.8402C97.1403 38.8402 100.152 37.5927 102.372 35.3723C104.593 33.1519 105.84 30.1403 105.84 27.0002C105.84 23.86 104.593 20.8484 102.372 18.628C100.152 16.4076 97.1403 15.1602 94.0002 15.1602Z" fill="#FCE0A2"/>
<path d="M104.559 14.5195C104.22 14.5195 103.894 14.6544 103.654 14.8944C103.414 15.1345 103.279 15.4601 103.279 15.7995C103.279 16.139 103.414 16.4646 103.654 16.7046C103.894 16.9447 104.22 17.0795 104.559 17.0795C104.899 17.0795 105.224 16.9447 105.464 16.7046C105.704 16.4646 105.839 16.139 105.839 15.7995C105.839 15.4601 105.704 15.1345 105.464 14.8944C105.224 14.6544 104.899 14.5195 104.559 14.5195Z" fill="#F1BC19"/>
<path d="M105.839 18.0391C105.669 18.0391 105.507 18.1065 105.387 18.2265C105.267 18.3465 105.199 18.5093 105.199 18.6791C105.199 18.8488 105.267 19.0116 105.387 19.1316C105.507 19.2516 105.669 19.3191 105.839 19.3191C106.009 19.3191 106.172 19.2516 106.292 19.1316C106.412 19.0116 106.479 18.8488 106.479 18.6791C106.479 18.5093 106.412 18.3465 106.292 18.2265C106.172 18.1065 106.009 18.0391 105.839 18.0391Z" fill="#F1BC19"/>
<path d="M103.92 34.6809C103.75 34.6809 103.587 34.7483 103.467 34.8683C103.347 34.9883 103.28 35.1511 103.28 35.3209C103.28 35.4906 103.347 35.6534 103.467 35.7734C103.587 35.8934 103.75 35.9609 103.92 35.9609C104.089 35.9609 104.252 35.8934 104.372 35.7734C104.492 35.6534 104.56 35.4906 104.56 35.3209C104.56 35.1511 104.492 34.9883 104.372 34.8683C104.252 34.7483 104.089 34.6809 103.92 34.6809ZM82.7995 29.8809C82.4601 29.8809 82.1345 30.0157 81.8944 30.2558C81.6544 30.4958 81.5195 30.8214 81.5195 31.1609C81.5195 31.5003 81.6544 31.8259 81.8944 32.066C82.1345 32.306 82.4601 32.4409 82.7995 32.4409C83.139 32.4409 83.4646 32.306 83.7046 32.066C83.9447 31.8259 84.0795 31.5003 84.0795 31.1609C84.0795 30.8214 83.9447 30.4958 83.7046 30.2558C83.4646 30.0157 83.139 29.8809 82.7995 29.8809Z" fill="#FBCD59"/>
<path d="M85.9994 38.1992C85.8296 38.1992 85.6668 38.2666 85.5468 38.3867C85.4268 38.5067 85.3594 38.6695 85.3594 38.8392C85.3594 39.009 85.4268 39.1717 85.5468 39.2918C85.6668 39.4118 85.8296 39.4792 85.9994 39.4792C86.1691 39.4792 86.3319 39.4118 86.4519 39.2918C86.5719 39.1717 86.6394 39.009 86.6394 38.8392C86.6394 38.6695 86.5719 38.5067 86.4519 38.3867C86.3319 38.2666 86.1691 38.1992 85.9994 38.1992Z" fill="#F1BC19"/>
<path d="M83.9191 27.3203C83.707 27.3203 83.5035 27.4046 83.3535 27.5546C83.2034 27.7047 83.1191 27.9081 83.1191 28.1203C83.1191 28.3325 83.2034 28.536 83.3535 28.686C83.5035 28.836 83.707 28.9203 83.9191 28.9203C84.1313 28.9203 84.3348 28.836 84.4848 28.686C84.6349 28.536 84.7191 28.3325 84.7191 28.1203C84.7191 27.9081 84.6349 27.7047 84.4848 27.5546C84.3348 27.4046 84.1313 27.3203 83.9191 27.3203Z" fill="white"/>
<path d="M84.7204 32.1191C84.6355 32.1191 84.5541 32.1529 84.4941 32.2129C84.4341 32.2729 84.4004 32.3543 84.4004 32.4391C84.4004 32.524 84.4341 32.6054 84.4941 32.6654C84.5541 32.7254 84.6355 32.7591 84.7204 32.7591C84.8053 32.7591 84.8867 32.7254 84.9467 32.6654C85.0067 32.6054 85.0404 32.524 85.0404 32.4391C85.0404 32.3543 85.0067 32.2729 84.9467 32.2129C84.8867 32.1529 84.8053 32.1191 84.7204 32.1191Z" fill="#F1BC19"/>
<path d="M103.599 21.5605C103.514 21.5605 103.433 21.5943 103.373 21.6543C103.313 21.7143 103.279 21.7957 103.279 21.8805C103.279 21.9654 103.313 22.0468 103.373 22.1068C103.433 22.1668 103.514 22.2005 103.599 22.2005C103.684 22.2005 103.766 22.1668 103.826 22.1068C103.886 22.0468 103.919 21.9654 103.919 21.8805C103.919 21.7957 103.886 21.7143 103.826 21.6543C103.766 21.5943 103.684 21.5605 103.599 21.5605Z" fill="white"/>
<path d="M98.6458 33.992H89.8397C89.337 33.992 88.9277 33.583 88.9277 33.08C88.9277 32.5769 89.3367 32.168 89.8397 32.168H98.6497L98.5345 32.3004C98.3444 32.5193 98.2397 32.7958 98.2397 33.08C98.2397 33.3638 98.3434 33.6409 98.5319 33.8598L98.6458 33.992Z" fill="#E1E0D8"/>
<path d="M88.9277 32.2891V20.9198C88.9277 20.4168 89.3367 20.0078 89.8397 20.0078H98.1597C98.6625 20.0078 99.0717 20.4168 99.0717 20.9198V31.8798H89.8397C89.5533 31.8798 89.2839 31.9819 89.0599 32.1749L88.9277 32.2891Z" fill="#BD977C"/>
<path d="M91.7597 20.0078H89.8397C89.337 20.0078 88.9277 20.4168 88.9277 20.9198V32.2891L89.0599 32.1752C89.2836 31.9819 89.5533 31.8801 89.8397 31.8801H91.7597V20.0078Z" fill="#9F8066"/>
<path d="M99.3122 32.2585C99.3874 32.2467 99.4405 32.1785 99.4405 32.1027V20.9206C99.4405 20.2137 98.8674 19.6406 98.1605 19.6406H89.8405C89.1337 19.6406 88.5605 20.2137 88.5605 20.9206V33.0806C88.5605 33.2573 88.5964 33.4256 88.661 33.5789C88.7257 33.7321 88.8194 33.8701 88.9353 33.9856C88.9932 34.0435 89.0565 34.096 89.1247 34.1417C89.261 34.2339 89.4156 34.3001 89.5823 34.3344C89.6658 34.3517 89.7522 34.3606 89.8405 34.3606C89.8684 34.3606 99.1957 34.3606 99.2165 34.3606C99.3401 34.3606 99.4402 34.2605 99.4405 34.1369C99.4405 34.1369 99.4405 34.1369 99.4405 34.1366C99.4405 34.1363 99.4405 34.1366 99.4405 34.1366C99.4405 34.1357 99.4399 34.1347 99.4399 34.1337C99.4383 34.0137 99.3522 33.9168 99.2354 33.887C98.8757 33.7955 98.6085 33.4688 98.6085 33.0806C98.6085 32.6656 98.9141 32.3203 99.3122 32.2585ZM89.8405 20.0886H98.1605C98.6201 20.0886 98.9925 20.4611 98.9925 20.9206V31.8006C98.9925 31.8006 90.4901 31.8006 89.8405 31.8006C89.5212 31.8006 89.2329 31.9219 89.0085 32.1152V20.9206C89.0085 20.4611 89.381 20.0886 89.8405 20.0886ZM89.8405 33.9126C89.3817 33.9126 89.0085 33.5395 89.0085 33.0806C89.0085 32.6217 89.3817 32.2486 89.8405 32.2486H98.4751C98.2809 32.472 98.1605 32.7609 98.1605 33.0806C98.1605 33.3993 98.2793 33.6886 98.4722 33.9126H89.8405Z" fill="#472B29"/>
<path d="M91.6402 28.6001C91.5739 28.6001 91.5202 28.5463 91.5202 28.4801V25.2001C91.5202 25.1338 91.5739 25.0801 91.6402 25.0801C91.7064 25.0801 91.7602 25.1338 91.7602 25.2001V28.4801C91.7602 28.5463 91.7064 28.6001 91.6402 28.6001ZM91.6402 30.2001C91.5739 30.2001 91.5202 30.1463 91.5202 30.0801V29.6801C91.5202 29.6138 91.5739 29.5601 91.6402 29.5601C91.7064 29.5601 91.7602 29.6138 91.7602 29.6801V30.0801C91.7602 30.1463 91.7064 30.2001 91.6402 30.2001ZM91.6402 31.1601C91.5739 31.1601 91.5202 31.1063 91.5202 31.0401V30.6401C91.5202 30.5738 91.5739 30.5201 91.6402 30.5201C91.7064 30.5201 91.7602 30.5738 91.7602 30.6401V31.0401C91.7602 31.1063 91.7064 31.1601 91.6402 31.1601ZM98.3602 33.0801H90.2802C90.2139 33.0801 90.1602 33.0263 90.1602 32.9601C90.1602 32.8938 90.2139 32.8401 90.2802 32.8401H98.3602C98.4264 32.8401 98.4802 32.8938 98.4802 32.9601C98.4802 33.0263 98.4264 33.0801 98.3602 33.0801ZM98.3602 33.6401H93.4802C93.4139 33.6401 93.3602 33.5863 93.3602 33.5201C93.3602 33.4538 93.4139 33.4001 93.4802 33.4001H98.3602C98.4264 33.4001 98.4802 33.4538 98.4802 33.5201C98.4802 33.5863 98.4264 33.6401 98.3602 33.6401ZM92.9202 33.6401H92.5202C92.4539 33.6401 92.4002 33.5863 92.4002 33.5201C92.4002 33.4538 92.4539 33.4001 92.5202 33.4001H92.9202C92.9864 33.4001 93.0402 33.4538 93.0402 33.5201C93.0402 33.5863 92.9864 33.6401 92.9202 33.6401Z" fill="#472B29"/>
<path d="M90.2401 19.4003H93.6001V25.9603L91.9201 25.2003L90.2401 25.9603V19.4003Z" fill="#EE3E54"/>
<path d="M93.5602 26.0403C93.5438 26.0403 93.5272 26.0371 93.5122 26.0301L91.9202 25.3315L90.3282 26.0304C90.2914 26.0467 90.2482 26.0432 90.2146 26.0211C90.1803 25.9987 90.1602 25.9606 90.1602 25.9203V19.4403C90.1602 19.3741 90.2139 19.3203 90.2802 19.3203H93.5602C93.6264 19.3203 93.6802 19.3741 93.6802 19.4403V25.9203C93.6802 25.9606 93.66 25.9987 93.6258 26.0208C93.6062 26.0336 93.5829 26.0403 93.5602 26.0403ZM91.9202 25.0803C91.9368 25.0803 91.9531 25.0838 91.9682 25.0906L93.4402 25.7366V19.5603H90.4002V25.7366L91.8722 25.0906C91.8872 25.0838 91.9035 25.0803 91.9202 25.0803Z" fill="#472B29"/>
</g>
<defs>
<filter id="filter0_ddd_422_14267" x="-3" y="369" width="64" height="64" filterUnits="userSpaceOnUse" color-interpolation-filters="sRGB">
<feFlood flood-opacity="0" result="BackgroundImageFix"/>
<feColorMatrix in="SourceAlpha" type="matrix" values="0 0 0 0 0 0 0 0 0 0 0 0 0 0 0 0 0 0 127 0" result="hardAlpha"/>
<feMorphology radius="1" operator="dilate" in="SourceAlpha" result="effect1_dropShadow_422_14267"/>
<feOffset dy="2"/>
<feGaussianBlur stdDeviation="7.5"/>
<feColorMatrix type="matrix" values="0 0 0 0 0.564706 0 0 0 0 0.643137 0 0 0 0 0.682353 0 0 0 0.11 0"/>
<feBlend mode="normal" in2="BackgroundImageFix" result="effect1_dropShadow_422_14267"/>
<feColorMatrix in="SourceAlpha" type="matrix" values="0 0 0 0 0 0 0 0 0 0 0 0 0 0 0 0 0 0 127 0" result="hardAlpha"/>
<feMorphology radius="1" operator="dilate" in="SourceAlpha" result="effect2_dropShadow_422_14267"/>
<feOffset dy="7"/>
<feGaussianBlur stdDeviation="5"/>
<feColorMatrix type="matrix" values="0 0 0 0 0.564706 0 0 0 0 0.643137 0 0 0 0 0.682353 0 0 0 0.14 0"/>
<feBlend mode="normal" in2="effect1_dropShadow_422_14267" result="effect2_dropShadow_422_14267"/>
<feColorMatrix in="SourceAlpha" type="matrix" values="0 0 0 0 0 0 0 0 0 0 0 0 0 0 0 0 0 0 127 0" result="hardAlpha"/>
<feMorphology radius="2" operator="erode" in="SourceAlpha" result="effect3_dropShadow_422_14267"/>
<feOffset dy="4"/>
<feGaussianBlur stdDeviation="2.5"/>
<feColorMatrix type="matrix" values="0 0 0 0 0.564706 0 0 0 0 0.643137 0 0 0 0 0.682353 0 0 0 0.25 0"/>
<feBlend mode="normal" in2="effect2_dropShadow_422_14267" result="effect3_dropShadow_422_14267"/>
<feBlend mode="normal" in="SourceGraphic" in2="effect3_dropShadow_422_14267" result="shape"/>
</filter>
<filter id="filter1_ddd_422_14267" x="308" y="268" width="64" height="64" filterUnits="userSpaceOnUse" color-interpolation-filters="sRGB">
<feFlood flood-opacity="0" result="BackgroundImageFix"/>
<feColorMatrix in="SourceAlpha" type="matrix" values="0 0 0 0 0 0 0 0 0 0 0 0 0 0 0 0 0 0 127 0" result="hardAlpha"/>
<feMorphology radius="1" operator="dilate" in="SourceAlpha" result="effect1_dropShadow_422_14267"/>
<feOffset dy="2"/>
<feGaussianBlur stdDeviation="7.5"/>
<feColorMatrix type="matrix" values="0 0 0 0 0.564706 0 0 0 0 0.643137 0 0 0 0 0.682353 0 0 0 0.11 0"/>
<feBlend mode="normal" in2="BackgroundImageFix" result="effect1_dropShadow_422_14267"/>
<feColorMatrix in="SourceAlpha" type="matrix" values="0 0 0 0 0 0 0 0 0 0 0 0 0 0 0 0 0 0 127 0" result="hardAlpha"/>
<feMorphology radius="1" operator="dilate" in="SourceAlpha" result="effect2_dropShadow_422_14267"/>
<feOffset dy="7"/>
<feGaussianBlur stdDeviation="5"/>
<feColorMatrix type="matrix" values="0 0 0 0 0.564706 0 0 0 0 0.643137 0 0 0 0 0.682353 0 0 0 0.14 0"/>
<feBlend mode="normal" in2="effect1_dropShadow_422_14267" result="effect2_dropShadow_422_14267"/>
<feColorMatrix in="SourceAlpha" type="matrix" values="0 0 0 0 0 0 0 0 0 0 0 0 0 0 0 0 0 0 127 0" result="hardAlpha"/>
<feMorphology radius="2" operator="erode" in="SourceAlpha" result="effect3_dropShadow_422_14267"/>
<feOffset dy="4"/>
<feGaussianBlur stdDeviation="2.5"/>
<feColorMatrix type="matrix" values="0 0 0 0 0.564706 0 0 0 0 0.643137 0 0 0 0 0.682353 0 0 0 0.25 0"/>
<feBlend mode="normal" in2="effect2_dropShadow_422_14267" result="effect3_dropShadow_422_14267"/>
<feBlend mode="normal" in="SourceGraphic" in2="effect3_dropShadow_422_14267" result="shape"/>
</filter>
<filter id="filter2_ddd_422_14267" x="62" y="-3" width="64" height="64" filterUnits="userSpaceOnUse" color-interpolation-filters="sRGB">
<feFlood flood-opacity="0" result="BackgroundImageFix"/>
<feColorMatrix in="SourceAlpha" type="matrix" values="0 0 0 0 0 0 0 0 0 0 0 0 0 0 0 0 0 0 127 0" result="hardAlpha"/>
<feMorphology radius="1" operator="dilate" in="SourceAlpha" result="effect1_dropShadow_422_14267"/>
<feOffset dy="2"/>
<feGaussianBlur stdDeviation="7.5"/>
<feColorMatrix type="matrix" values="0 0 0 0 0.564706 0 0 0 0 0.643137 0 0 0 0 0.682353 0 0 0 0.11 0"/>
<feBlend mode="normal" in2="BackgroundImageFix" result="effect1_dropShadow_422_14267"/>
<feColorMatrix in="SourceAlpha" type="matrix" values="0 0 0 0 0 0 0 0 0 0 0 0 0 0 0 0 0 0 127 0" result="hardAlpha"/>
<feMorphology radius="1" operator="dilate" in="SourceAlpha" result="effect2_dropShadow_422_14267"/>
<feOffset dy="7"/>
<feGaussianBlur stdDeviation="5"/>
<feColorMatrix type="matrix" values="0 0 0 0 0.564706 0 0 0 0 0.643137 0 0 0 0 0.682353 0 0 0 0.14 0"/>
<feBlend mode="normal" in2="effect1_dropShadow_422_14267" result="effect2_dropShadow_422_14267"/>
<feColorMatrix in="SourceAlpha" type="matrix" values="0 0 0 0 0 0 0 0 0 0 0 0 0 0 0 0 0 0 127 0" result="hardAlpha"/>
<feMorphology radius="2" operator="erode" in="SourceAlpha" result="effect3_dropShadow_422_14267"/>
<feOffset dy="4"/>
<feGaussianBlur stdDeviation="2.5"/>
<feColorMatrix type="matrix" values="0 0 0 0 0.564706 0 0 0 0 0.643137 0 0 0 0 0.682353 0 0 0 0.25 0"/>
<feBlend mode="normal" in2="effect2_dropShadow_422_14267" result="effect3_dropShadow_422_14267"/>
<feBlend mode="normal" in="SourceGraphic" in2="effect3_dropShadow_422_14267" result="shape"/>
</filter>
</defs>
</svg>
