<svg width="1182" height="587" viewBox="0 0 1182 587" fill="none" xmlns="http://www.w3.org/2000/svg">
<path d="M150 517C149.735 517 149.48 517.105 149.293 517.293C149.105 517.48 149 517.735 149 518C149 518.265 149.105 518.52 149.293 518.707C149.48 518.895 149.735 519 150 519C150.265 519 150.52 518.895 150.707 518.707C150.895 518.52 151 518.265 151 518C151 517.735 150.895 517.48 150.707 517.293C150.52 517.105 150.265 517 150 517Z" fill="#F1BC19"/>
<path d="M156 516C154.939 516 153.922 516.421 153.172 517.172C152.421 517.922 152 518.939 152 520C152 521.061 152.421 522.078 153.172 522.829C153.922 523.579 154.939 524 156 524C157.061 524 158.078 523.579 158.828 522.829C159.579 522.078 160 521.061 160 520C160 518.939 159.579 517.922 158.828 517.172C158.078 516.421 157.061 516 156 516Z" fill="#00A7A7"/>
<path d="M161 527C160.47 527 159.961 527.211 159.586 527.586C159.211 527.961 159 528.47 159 529C159 529.53 159.211 530.039 159.586 530.414C159.961 530.789 160.47 531 161 531C161.53 531 162.039 530.789 162.414 530.414C162.789 530.039 163 529.53 163 529C163 528.47 162.789 527.961 162.414 527.586C162.039 527.211 161.53 527 161 527Z" fill="#EE3E54"/>
<path d="M820.5 579C820.367 579 820.24 579.053 820.146 579.146C820.053 579.24 820 579.367 820 579.5C820 579.633 820.053 579.76 820.146 579.854C820.24 579.947 820.367 580 820.5 580C820.633 580 820.76 579.947 820.854 579.854C820.947 579.76 821 579.633 821 579.5C821 579.367 820.947 579.24 820.854 579.146C820.76 579.053 820.633 579 820.5 579Z" fill="#F1BC19"/>
<path d="M824 579C823.47 579 822.961 579.211 822.586 579.586C822.211 579.961 822 580.47 822 581C822 581.53 822.211 582.039 822.586 582.414C822.961 582.789 823.47 583 824 583C824.53 583 825.039 582.789 825.414 582.414C825.789 582.039 826 581.53 826 581C826 580.47 825.789 579.961 825.414 579.586C825.039 579.211 824.53 579 824 579Z" fill="#F1BC19"/>
<path d="M826 585C825.735 585 825.48 585.105 825.293 585.293C825.105 585.48 825 585.735 825 586C825 586.265 825.105 586.52 825.293 586.707C825.48 586.895 825.735 587 826 587C826.265 587 826.52 586.895 826.707 586.707C826.895 586.52 827 586.265 827 586C827 585.735 826.895 585.48 826.707 585.293C826.52 585.105 826.265 585 826 585Z" fill="#EE3E54"/>
<g filter="url(#filter0_ddd_1009_24021)">
<path d="M80.5 218.5C80.2348 218.5 79.9804 218.605 79.7929 218.793C79.6054 218.98 79.5 219.235 79.5 219.5C79.5 219.765 79.6054 220.02 79.7929 220.207C79.9804 220.395 80.2348 220.5 80.5 220.5C80.7652 220.5 81.0196 220.395 81.2071 220.207C81.3946 220.02 81.5 219.765 81.5 219.5C81.5 219.235 81.3946 218.98 81.2071 218.793C81.0196 218.605 80.7652 218.5 80.5 218.5Z" fill="#78A0CF"/>
<path d="M112.5 211C112.367 211 112.24 211.053 112.146 211.146C112.053 211.24 112 211.367 112 211.5C112 211.633 112.053 211.76 112.146 211.854C112.24 211.947 112.367 212 112.5 212C112.633 212 112.76 211.947 112.854 211.854C112.947 211.76 113 211.633 113 211.5C113 211.367 112.947 211.24 112.854 211.146C112.76 211.053 112.633 211 112.5 211Z" fill="#F1BC19"/>
<path d="M99 211.5C94.0935 211.5 89.3879 213.449 85.9185 216.919C82.4491 220.388 80.5 225.093 80.5 230C80.5 234.907 82.4491 239.612 85.9185 243.081C89.3879 246.551 94.0935 248.5 99 248.5C103.907 248.5 108.612 246.551 112.081 243.081C115.551 239.612 117.5 234.907 117.5 230C117.5 225.093 115.551 220.388 112.081 216.919C108.612 213.449 103.907 211.5 99 211.5Z" fill="#E3EFFB"/>
<path d="M115.5 210.5C114.97 210.5 114.461 210.711 114.086 211.086C113.711 211.461 113.5 211.97 113.5 212.5C113.5 213.03 113.711 213.539 114.086 213.914C114.461 214.289 114.97 214.5 115.5 214.5C116.03 214.5 116.539 214.289 116.914 213.914C117.289 213.539 117.5 213.03 117.5 212.5C117.5 211.97 117.289 211.461 116.914 211.086C116.539 210.711 116.03 210.5 115.5 210.5Z" fill="#F1BC19"/>
<path d="M117.5 216C117.235 216 116.98 216.105 116.793 216.293C116.605 216.48 116.5 216.735 116.5 217C116.5 217.265 116.605 217.52 116.793 217.707C116.98 217.895 117.235 218 117.5 218C117.765 218 118.02 217.895 118.207 217.707C118.395 217.52 118.5 217.265 118.5 217C118.5 216.735 118.395 216.48 118.207 216.293C118.02 216.105 117.765 216 117.5 216Z" fill="#78A0CF"/>
<path d="M114.5 242C114.235 242 113.98 242.105 113.793 242.293C113.605 242.48 113.5 242.735 113.5 243C113.5 243.265 113.605 243.52 113.793 243.707C113.98 243.895 114.235 244 114.5 244C114.765 244 115.02 243.895 115.207 243.707C115.395 243.52 115.5 243.265 115.5 243C115.5 242.735 115.395 242.48 115.207 242.293C115.02 242.105 114.765 242 114.5 242ZM81.5 234.5C80.9696 234.5 80.4609 234.711 80.0858 235.086C79.7107 235.461 79.5 235.97 79.5 236.5C79.5 237.03 79.7107 237.539 80.0858 237.914C80.4609 238.289 80.9696 238.5 81.5 238.5C82.0304 238.5 82.5391 238.289 82.9142 237.914C83.2893 237.539 83.5 237.03 83.5 236.5C83.5 235.97 83.2893 235.461 82.9142 235.086C82.5391 234.711 82.0304 234.5 81.5 234.5Z" fill="#FBCD59"/>
<path d="M86.5 247.5C86.2348 247.5 85.9804 247.605 85.7929 247.793C85.6054 247.98 85.5 248.235 85.5 248.5C85.5 248.765 85.6054 249.02 85.7929 249.207C85.9804 249.395 86.2348 249.5 86.5 249.5C86.7652 249.5 87.0196 249.395 87.2071 249.207C87.3946 249.02 87.5 248.765 87.5 248.5C87.5 248.235 87.3946 247.98 87.2071 247.793C87.0196 247.605 86.7652 247.5 86.5 247.5Z" fill="#78A0CF"/>
<path d="M83.25 230.5C82.9185 230.5 82.6005 230.632 82.3661 230.866C82.1317 231.101 82 231.418 82 231.75C82 232.082 82.1317 232.399 82.3661 232.634C82.6005 232.868 82.9185 233 83.25 233C83.5815 233 83.8995 232.868 84.1339 232.634C84.3683 232.399 84.5 232.082 84.5 231.75C84.5 231.418 84.3683 231.101 84.1339 230.866C83.8995 230.632 83.5815 230.5 83.25 230.5Z" fill="white"/>
<path d="M84.5 238C84.3674 238 84.2402 238.053 84.1464 238.146C84.0527 238.24 84 238.367 84 238.5C84 238.633 84.0527 238.76 84.1464 238.854C84.2402 238.947 84.3674 239 84.5 239C84.6326 239 84.7598 238.947 84.8536 238.854C84.9473 238.76 85 238.633 85 238.5C85 238.367 84.9473 238.24 84.8536 238.146C84.7598 238.053 84.6326 238 84.5 238Z" fill="#F1BC19"/>
<path d="M114 221.5C113.867 221.5 113.74 221.553 113.646 221.646C113.553 221.74 113.5 221.867 113.5 222C113.5 222.133 113.553 222.26 113.646 222.354C113.74 222.447 113.867 222.5 114 222.5C114.133 222.5 114.26 222.447 114.354 222.354C114.447 222.26 114.5 222.133 114.5 222C114.5 221.867 114.447 221.74 114.354 221.646C114.26 221.553 114.133 221.5 114 221.5Z" fill="white"/>
<path d="M107.376 220.785L96.6262 223.482V236.51V237.29C96.6277 238.494 95.1827 240.029 92.7672 240.961C90.0492 242.008 87.4427 241.856 86.9457 240.62C86.4487 239.384 88.2497 237.534 90.9677 236.486C92.2192 236.003 93.3252 235.859 94.3342 235.873L94.3337 235.527V221.723L109.64 217.844V232.683V233.463C109.642 234.667 107.951 236.233 105.536 237.164C102.818 238.211 100.211 238.059 99.7142 236.823C99.2172 235.587 101.018 233.737 103.736 232.689C104.988 232.206 106.366 231.899 107.375 231.914L107.375 231.568V220.785H107.376Z" fill="#EA5167"/>
<path d="M89.3958 242.005C88.0033 242.005 86.9523 241.577 86.6208 240.752C86.4563 240.344 86.4818 239.869 86.6938 239.382C87.2168 238.18 88.8063 236.945 90.8413 236.161C91.8813 235.76 92.9133 235.551 93.9833 235.526V221.725C93.9833 221.565 94.0923 221.425 94.2473 221.385L109.553 217.506C109.656 217.478 109.769 217.502 109.854 217.569C109.94 217.635 109.99 217.737 109.99 217.845V233.465C109.992 234.852 108.212 236.509 105.661 237.492C102.721 238.625 99.9663 238.39 99.3898 236.956C99.2253 236.548 99.2508 236.073 99.4628 235.586C99.9858 234.383 101.575 233.149 103.61 232.364C104.797 231.907 106.042 231.621 107.025 231.573V221.235L96.9758 223.757V237.291C96.9783 238.739 95.3373 240.346 92.8928 241.288C91.6423 241.77 90.4258 242.005 89.3958 242.005ZM94.2013 236.224C93.1398 236.224 92.1218 236.417 91.0933 236.814C89.2543 237.522 87.7798 238.64 87.3358 239.661C87.1983 239.977 87.1758 240.256 87.2698 240.491C87.6343 241.397 89.9298 241.681 92.6403 240.635C95.0283 239.714 96.2763 238.256 96.2753 237.291V223.484C96.2753 223.323 96.3848 223.183 96.5403 223.144L107.29 220.446C107.394 220.419 107.505 220.444 107.59 220.51C107.675 220.576 107.725 220.678 107.725 220.786L107.726 231.916C107.726 232.01 107.688 232.099 107.622 232.165C107.555 232.232 107.477 232.283 107.371 232.266C106.413 232.256 105.117 232.533 103.862 233.017C102.024 233.726 100.549 234.843 100.105 235.865C99.9673 236.181 99.9448 236.46 100.039 236.695C100.403 237.601 102.697 237.884 105.409 236.838C107.931 235.867 109.291 234.375 109.289 233.465V218.295L94.6833 221.997L94.6838 235.874C94.6838 235.968 94.6463 236.058 94.5798 236.124C94.5128 236.19 94.4203 236.231 94.3288 236.225C94.2863 236.224 94.2438 236.224 94.2013 236.224Z" fill="#472B29"/>
<path d="M96.709 225.583L105.15 223.541L96.709 225.583Z" fill="#1F212B"/>
<path d="M96.7101 225.833C96.5971 225.833 96.4946 225.756 96.4671 225.641C96.4351 225.507 96.5176 225.372 96.6516 225.339L105.093 223.297C105.229 223.267 105.363 223.348 105.395 223.482C105.428 223.615 105.345 223.751 105.211 223.784L96.7691 225.826C96.7491 225.83 96.7291 225.833 96.7101 225.833ZM103.891 236.389C103.834 236.389 103.783 236.35 103.77 236.292C103.754 236.225 103.796 236.157 103.863 236.142C105.515 235.761 106.882 234.936 107.453 234.33C107.5 234.279 107.579 234.277 107.63 234.325C107.68 234.372 107.682 234.451 107.635 234.502C107.039 235.134 105.623 235.993 103.92 236.386C103.91 236.388 103.901 236.389 103.891 236.389ZM102.138 236.596C101.838 236.596 101.543 236.577 101.256 236.54C101.188 236.53 101.14 236.468 101.148 236.4C101.157 236.332 101.22 236.283 101.288 236.292C101.637 236.338 102.002 236.356 102.371 236.342C102.429 236.342 102.498 236.394 102.5 236.463C102.503 236.532 102.448 236.59 102.38 236.592C102.299 236.594 102.219 236.596 102.138 236.596ZM89.3141 240.511C89.1441 240.511 88.9901 240.502 88.8551 240.484C88.7866 240.475 88.7386 240.412 88.7471 240.344C88.7556 240.276 88.8186 240.228 88.8871 240.236C89.7151 240.343 91.2936 240.119 92.8136 239.369C92.8751 239.339 92.9501 239.363 92.9811 239.426C93.0116 239.488 92.9861 239.562 92.9241 239.593C91.6026 240.245 90.2286 240.511 89.3141 240.511ZM91.3881 237.768C91.3381 237.768 91.2916 237.738 91.2721 237.689C91.2466 237.625 91.2781 237.552 91.3421 237.527C92.0076 237.262 92.6806 237.087 93.5246 236.959C93.5976 236.946 93.6566 236.996 93.6666 237.064C93.6771 237.133 93.6301 237.196 93.5616 237.206C92.7376 237.331 92.0811 237.501 91.4346 237.759C91.4196 237.765 91.4041 237.768 91.3881 237.768Z" fill="#472B29"/>
<path d="M89.7305 238.625C89.689 238.625 89.6485 238.605 89.6245 238.567C89.588 238.508 89.6055 238.431 89.664 238.394C89.92 238.234 90.1725 238.088 90.4135 237.96C90.4745 237.928 90.55 237.95 90.5825 238.012C90.6145 238.073 90.592 238.148 90.5305 238.181C90.2945 238.306 90.0475 238.449 89.7965 238.607C89.7765 238.619 89.7535 238.625 89.7305 238.625Z" fill="#472B29"/>
<path d="M93.875 238.999C93.8335 238.999 93.7925 238.978 93.7685 238.94C93.7325 238.881 93.7505 238.804 93.809 238.767C94.326 238.447 94.775 237.989 94.9005 237.856C94.948 237.806 95.0265 237.803 95.0775 237.851C95.1275 237.898 95.1295 237.977 95.0825 238.028C94.952 238.166 94.4845 238.644 93.9415 238.98C93.9205 238.993 93.8975 238.999 93.875 238.999Z" fill="#472B29"/>
</g>
<g filter="url(#filter1_ddd_1009_24021)">
<path d="M919.5 436.5C919.235 436.5 918.98 436.605 918.793 436.793C918.605 436.98 918.5 437.235 918.5 437.5C918.5 437.765 918.605 438.02 918.793 438.207C918.98 438.395 919.235 438.5 919.5 438.5C919.765 438.5 920.02 438.395 920.207 438.207C920.395 438.02 920.5 437.765 920.5 437.5C920.5 437.235 920.395 436.98 920.207 436.793C920.02 436.605 919.765 436.5 919.5 436.5Z" fill="#F1BC19"/>
<path d="M951.5 429C951.367 429 951.24 429.053 951.146 429.146C951.053 429.24 951 429.367 951 429.5C951 429.633 951.053 429.76 951.146 429.854C951.24 429.947 951.367 430 951.5 430C951.633 430 951.76 429.947 951.854 429.854C951.947 429.76 952 429.633 952 429.5C952 429.367 951.947 429.24 951.854 429.146C951.76 429.053 951.633 429 951.5 429Z" fill="#F1BC19"/>
<path d="M938 429.5C933.093 429.5 928.388 431.449 924.919 434.919C921.449 438.388 919.5 443.093 919.5 448C919.5 452.907 921.449 457.612 924.919 461.081C928.388 464.551 933.093 466.5 938 466.5C942.907 466.5 947.612 464.551 951.081 461.081C954.551 457.612 956.5 452.907 956.5 448C956.5 443.093 954.551 438.388 951.081 434.919C947.612 431.449 942.907 429.5 938 429.5Z" fill="#FCE0A2"/>
<path d="M954.5 428.5C953.97 428.5 953.461 428.711 953.086 429.086C952.711 429.461 952.5 429.97 952.5 430.5C952.5 431.03 952.711 431.539 953.086 431.914C953.461 432.289 953.97 432.5 954.5 432.5C955.03 432.5 955.539 432.289 955.914 431.914C956.289 431.539 956.5 431.03 956.5 430.5C956.5 429.97 956.289 429.461 955.914 429.086C955.539 428.711 955.03 428.5 954.5 428.5Z" fill="#F1BC19"/>
<path d="M956.5 434C956.235 434 955.98 434.105 955.793 434.293C955.605 434.48 955.5 434.735 955.5 435C955.5 435.265 955.605 435.52 955.793 435.707C955.98 435.895 956.235 436 956.5 436C956.765 436 957.02 435.895 957.207 435.707C957.395 435.52 957.5 435.265 957.5 435C957.5 434.735 957.395 434.48 957.207 434.293C957.02 434.105 956.765 434 956.5 434Z" fill="#F1BC19"/>
<path d="M953.5 460C953.235 460 952.98 460.105 952.793 460.293C952.605 460.48 952.5 460.735 952.5 461C952.5 461.265 952.605 461.52 952.793 461.707C952.98 461.895 953.235 462 953.5 462C953.765 462 954.02 461.895 954.207 461.707C954.395 461.52 954.5 461.265 954.5 461C954.5 460.735 954.395 460.48 954.207 460.293C954.02 460.105 953.765 460 953.5 460ZM920.5 452.5C919.97 452.5 919.461 452.711 919.086 453.086C918.711 453.461 918.5 453.97 918.5 454.5C918.5 455.03 918.711 455.539 919.086 455.914C919.461 456.289 919.97 456.5 920.5 456.5C921.03 456.5 921.539 456.289 921.914 455.914C922.289 455.539 922.5 455.03 922.5 454.5C922.5 453.97 922.289 453.461 921.914 453.086C921.539 452.711 921.03 452.5 920.5 452.5Z" fill="#FBCD59"/>
<path d="M925.5 465.5C925.235 465.5 924.98 465.605 924.793 465.793C924.605 465.98 924.5 466.235 924.5 466.5C924.5 466.765 924.605 467.02 924.793 467.207C924.98 467.395 925.235 467.5 925.5 467.5C925.765 467.5 926.02 467.395 926.207 467.207C926.395 467.02 926.5 466.765 926.5 466.5C926.5 466.235 926.395 465.98 926.207 465.793C926.02 465.605 925.765 465.5 925.5 465.5Z" fill="#F1BC19"/>
<path d="M922.25 448.5C921.918 448.5 921.601 448.632 921.366 448.866C921.132 449.101 921 449.418 921 449.75C921 450.082 921.132 450.399 921.366 450.634C921.601 450.868 921.918 451 922.25 451C922.582 451 922.899 450.868 923.134 450.634C923.368 450.399 923.5 450.082 923.5 449.75C923.5 449.418 923.368 449.101 923.134 448.866C922.899 448.632 922.582 448.5 922.25 448.5Z" fill="white"/>
<path d="M923.5 456C923.367 456 923.24 456.053 923.146 456.146C923.053 456.24 923 456.367 923 456.5C923 456.633 923.053 456.76 923.146 456.854C923.24 456.947 923.367 457 923.5 457C923.633 457 923.76 456.947 923.854 456.854C923.947 456.76 924 456.633 924 456.5C924 456.367 923.947 456.24 923.854 456.146C923.76 456.053 923.633 456 923.5 456Z" fill="#F1BC19"/>
<path d="M953 439.5C952.867 439.5 952.74 439.553 952.646 439.646C952.553 439.74 952.5 439.867 952.5 440C952.5 440.133 952.553 440.26 952.646 440.354C952.74 440.447 952.867 440.5 953 440.5C953.133 440.5 953.26 440.447 953.354 440.354C953.447 440.26 953.5 440.133 953.5 440C953.5 439.867 953.447 439.74 953.354 439.646C953.26 439.553 953.133 439.5 953 439.5Z" fill="white"/>
<path d="M945.259 458.924H931.499C930.714 458.924 930.074 458.285 930.074 457.499C930.074 456.713 930.713 456.074 931.499 456.074H945.265L945.085 456.281C944.788 456.623 944.624 457.055 944.624 457.499C944.624 457.943 944.786 458.376 945.081 458.718L945.259 458.924Z" fill="#E1E0D8"/>
<path d="M930.074 456.264V438.499C930.074 437.713 930.713 437.074 931.499 437.074H944.499C945.285 437.074 945.924 437.713 945.924 438.499V455.624H931.499C931.052 455.624 930.631 455.784 930.281 456.085L930.074 456.264Z" fill="#BD977C"/>
<path d="M934.499 437.074H931.499C930.714 437.074 930.074 437.713 930.074 438.499V456.264L930.281 456.086C930.63 455.784 931.052 455.625 931.499 455.625H934.499V437.074Z" fill="#9F8066"/>
<path d="M946.299 456.215C946.417 456.197 946.5 456.09 946.5 455.972V438.5C946.5 437.395 945.604 436.5 944.5 436.5H931.5C930.395 436.5 929.5 437.395 929.5 438.5V457.5C929.5 457.776 929.556 458.039 929.657 458.278C929.758 458.518 929.905 458.734 930.086 458.914C930.176 459.005 930.275 459.087 930.382 459.158C930.595 459.302 930.836 459.406 931.097 459.459C931.227 459.486 931.362 459.5 931.5 459.5C931.543 459.5 946.118 459.5 946.15 459.5C946.343 459.5 946.5 459.344 946.5 459.151C946.5 459.151 946.5 459.151 946.5 459.15C946.5 459.15 946.5 459.15 946.5 459.15C946.5 459.149 946.499 459.147 946.499 459.146C946.497 458.958 946.362 458.806 946.18 458.76C945.618 458.617 945.2 458.107 945.2 457.5C945.2 456.851 945.677 456.312 946.299 456.215ZM931.5 437.2H944.5C945.218 437.2 945.8 437.782 945.8 438.5V455.5C945.8 455.5 932.515 455.5 931.5 455.5C931.001 455.5 930.551 455.69 930.2 455.992V438.5C930.2 437.782 930.782 437.2 931.5 437.2ZM931.5 458.8C930.783 458.8 930.2 458.217 930.2 457.5C930.2 456.783 930.783 456.2 931.5 456.2H944.992C944.688 456.549 944.5 457 944.5 457.5C944.5 457.998 944.685 458.45 944.987 458.8H931.5Z" fill="#472B29"/>
<path d="M934.312 450.5C934.209 450.5 934.125 450.416 934.125 450.312V445.188C934.125 445.084 934.209 445 934.312 445C934.416 445 934.5 445.084 934.5 445.188V450.312C934.5 450.416 934.416 450.5 934.312 450.5ZM934.312 453C934.209 453 934.125 452.916 934.125 452.812V452.188C934.125 452.084 934.209 452 934.312 452C934.416 452 934.5 452.084 934.5 452.188V452.812C934.5 452.916 934.416 453 934.312 453ZM934.312 454.5C934.209 454.5 934.125 454.416 934.125 454.312V453.688C934.125 453.584 934.209 453.5 934.312 453.5C934.416 453.5 934.5 453.584 934.5 453.688V454.312C934.5 454.416 934.416 454.5 934.312 454.5ZM944.812 457.5H932.188C932.084 457.5 932 457.416 932 457.312C932 457.209 932.084 457.125 932.188 457.125H944.812C944.916 457.125 945 457.209 945 457.312C945 457.416 944.916 457.5 944.812 457.5ZM944.812 458.375H937.188C937.084 458.375 937 458.291 937 458.188C937 458.084 937.084 458 937.188 458H944.812C944.916 458 945 458.084 945 458.188C945 458.291 944.916 458.375 944.812 458.375ZM936.312 458.375H935.688C935.584 458.375 935.5 458.291 935.5 458.188C935.5 458.084 935.584 458 935.688 458H936.312C936.416 458 936.5 458.084 936.5 458.188C936.5 458.291 936.416 458.375 936.312 458.375Z" fill="#472B29"/>
<path d="M932.125 436.125H937.375V446.375L934.75 445.188L932.125 446.375V436.125Z" fill="#EE3E54"/>
<path d="M937.312 446.5C937.287 446.5 937.261 446.495 937.237 446.484L934.75 445.392L932.263 446.485C932.205 446.51 932.137 446.504 932.085 446.47C932.031 446.435 932 446.375 932 446.312V436.188C932 436.084 932.084 436 932.188 436H937.312C937.416 436 937.5 436.084 937.5 436.188V446.312C937.5 446.375 937.469 446.435 937.415 446.469C937.385 446.49 937.348 446.5 937.312 446.5ZM934.75 445C934.776 445 934.802 445.006 934.825 445.016L937.125 446.025V436.375H932.375V446.025L934.675 445.016C934.698 445.006 934.724 445 934.75 445Z" fill="#472B29"/>
</g>
<g filter="url(#filter2_ddd_1009_24021)">
<path d="M671.5 47.5C671.235 47.5 670.98 47.6054 670.793 47.7929C670.605 47.9804 670.5 48.2348 670.5 48.5C670.5 48.7652 670.605 49.0196 670.793 49.2071C670.98 49.3946 671.235 49.5 671.5 49.5C671.765 49.5 672.02 49.3946 672.207 49.2071C672.395 49.0196 672.5 48.7652 672.5 48.5C672.5 48.2348 672.395 47.9804 672.207 47.7929C672.02 47.6054 671.765 47.5 671.5 47.5Z" fill="#78A0CF"/>
<path d="M703.5 40C703.367 40 703.24 40.0527 703.146 40.1464C703.053 40.2402 703 40.3674 703 40.5C703 40.6326 703.053 40.7598 703.146 40.8536C703.24 40.9473 703.367 41 703.5 41C703.633 41 703.76 40.9473 703.854 40.8536C703.947 40.7598 704 40.6326 704 40.5C704 40.3674 703.947 40.2402 703.854 40.1464C703.76 40.0527 703.633 40 703.5 40Z" fill="#F1BC19"/>
<path d="M690 40.5C685.093 40.5 680.388 42.4491 676.919 45.9185C673.449 49.3879 671.5 54.0935 671.5 59C671.5 63.9065 673.449 68.6121 676.919 72.0815C680.388 75.5509 685.093 77.5 690 77.5C694.907 77.5 699.612 75.5509 703.081 72.0815C706.551 68.6121 708.5 63.9065 708.5 59C708.5 54.0935 706.551 49.3879 703.081 45.9185C699.612 42.4491 694.907 40.5 690 40.5Z" fill="#E3EFFB"/>
<path d="M706.5 39.5C705.97 39.5 705.461 39.7107 705.086 40.0858C704.711 40.4609 704.5 40.9696 704.5 41.5C704.5 42.0304 704.711 42.5391 705.086 42.9142C705.461 43.2893 705.97 43.5 706.5 43.5C707.03 43.5 707.539 43.2893 707.914 42.9142C708.289 42.5391 708.5 42.0304 708.5 41.5C708.5 40.9696 708.289 40.4609 707.914 40.0858C707.539 39.7107 707.03 39.5 706.5 39.5Z" fill="#F1BC19"/>
<path d="M708.5 45C708.235 45 707.98 45.1054 707.793 45.2929C707.605 45.4804 707.5 45.7348 707.5 46C707.5 46.2652 707.605 46.5196 707.793 46.7071C707.98 46.8946 708.235 47 708.5 47C708.765 47 709.02 46.8946 709.207 46.7071C709.395 46.5196 709.5 46.2652 709.5 46C709.5 45.7348 709.395 45.4804 709.207 45.2929C709.02 45.1054 708.765 45 708.5 45Z" fill="#78A0CF"/>
<path d="M705.5 71C705.235 71 704.98 71.1054 704.793 71.2929C704.605 71.4804 704.5 71.7348 704.5 72C704.5 72.2652 704.605 72.5196 704.793 72.7071C704.98 72.8946 705.235 73 705.5 73C705.765 73 706.02 72.8946 706.207 72.7071C706.395 72.5196 706.5 72.2652 706.5 72C706.5 71.7348 706.395 71.4804 706.207 71.2929C706.02 71.1054 705.765 71 705.5 71ZM672.5 63.5C671.97 63.5 671.461 63.7107 671.086 64.0858C670.711 64.4609 670.5 64.9696 670.5 65.5C670.5 66.0304 670.711 66.5391 671.086 66.9142C671.461 67.2893 671.97 67.5 672.5 67.5C673.03 67.5 673.539 67.2893 673.914 66.9142C674.289 66.5391 674.5 66.0304 674.5 65.5C674.5 64.9696 674.289 64.4609 673.914 64.0858C673.539 63.7107 673.03 63.5 672.5 63.5Z" fill="#FBCD59"/>
<path d="M677.5 76.5C677.235 76.5 676.98 76.6054 676.793 76.7929C676.605 76.9804 676.5 77.2348 676.5 77.5C676.5 77.7652 676.605 78.0196 676.793 78.2071C676.98 78.3946 677.235 78.5 677.5 78.5C677.765 78.5 678.02 78.3946 678.207 78.2071C678.395 78.0196 678.5 77.7652 678.5 77.5C678.5 77.2348 678.395 76.9804 678.207 76.7929C678.02 76.6054 677.765 76.5 677.5 76.5Z" fill="#78A0CF"/>
<path d="M674.25 59.5C673.918 59.5 673.601 59.6317 673.366 59.8661C673.132 60.1005 673 60.4185 673 60.75C673 61.0815 673.132 61.3995 673.366 61.6339C673.601 61.8683 673.918 62 674.25 62C674.582 62 674.899 61.8683 675.134 61.6339C675.368 61.3995 675.5 61.0815 675.5 60.75C675.5 60.4185 675.368 60.1005 675.134 59.8661C674.899 59.6317 674.582 59.5 674.25 59.5Z" fill="white"/>
<path d="M675.5 67C675.367 67 675.24 67.0527 675.146 67.1464C675.053 67.2402 675 67.3674 675 67.5C675 67.6326 675.053 67.7598 675.146 67.8536C675.24 67.9473 675.367 68 675.5 68C675.633 68 675.76 67.9473 675.854 67.8536C675.947 67.7598 676 67.6326 676 67.5C676 67.3674 675.947 67.2402 675.854 67.1464C675.76 67.0527 675.633 67 675.5 67Z" fill="#F1BC19"/>
<path d="M705 50.5C704.867 50.5 704.74 50.5527 704.646 50.6464C704.553 50.7402 704.5 50.8674 704.5 51C704.5 51.1326 704.553 51.2598 704.646 51.3536C704.74 51.4473 704.867 51.5 705 51.5C705.133 51.5 705.26 51.4473 705.354 51.3536C705.447 51.2598 705.5 51.1326 705.5 51C705.5 50.8674 705.447 50.7402 705.354 50.6464C705.26 50.5527 705.133 50.5 705 50.5Z" fill="white"/>
<path d="M682.5 70.1496C680.5 70.1496 678.85 68.4996 678.85 66.4996V51.4996C678.85 49.4996 680.5 47.8496 682.5 47.8496H697.5C699.5 47.8496 701.15 49.4996 701.15 51.4996V66.4996C701.15 68.4996 699.5 70.1496 697.5 70.1496H682.5Z" fill="#BABCE2"/>
<path d="M697.5 48.2C699.3 48.2 700.8 49.7 700.8 51.5V66.5C700.8 68.3 699.3 69.8 697.5 69.8H682.5C680.7 69.8 679.2 68.3 679.2 66.5V51.5C679.2 49.7 680.7 48.2 682.5 48.2H697.5ZM697.5 47.5H682.5C680.3 47.5 678.5 49.3 678.5 51.5V66.5C678.5 68.7 680.3 70.5 682.5 70.5H697.5C699.7 70.5 701.5 68.7 701.5 66.5V51.5C701.5 49.3 699.7 47.5 697.5 47.5Z" fill="#472B29"/>
<path d="M699.25 57.95V58.85V66C699.25 67.25 698.25 68.25 697 68.25H683C681.75 68.25 680.75 67.25 680.75 66V52C680.75 50.75 681.75 49.75 683 49.75H695.7H697C698.25 49.75 699.25 50.75 699.25 52V53.7V54.7V55.2V55.75V57.2V57.95Z" fill="#FDFCEE"/>
<path d="M699.25 57.7C699.1 57.7 699 57.6 699 57.45V55.5C699 55.35 699.1 55.25 699.25 55.25C699.4 55.25 699.5 55.35 699.5 55.5V57.45C699.5 57.6 699.4 57.7 699.25 57.7ZM699.25 54.25C699.1 54.25 699 54.15 699 54V53C699 52.85 699.1 52.75 699.25 52.75C699.4 52.75 699.5 52.85 699.5 53V54C699.5 54.15 699.4 54.25 699.25 54.25Z" fill="#472B29"/>
<path d="M697 68.5H683C681.6 68.5 680.5 67.4 680.5 66V52C680.5 50.6 681.6 49.5 683 49.5H695.7C695.85 49.5 695.95 49.6 695.95 49.75C695.95 49.9 695.85 50 695.7 50H683C681.9 50 681 50.9 681 52V66C681 67.1 681.9 68 683 68H697C698.1 68 699 67.1 699 66V58.8C699 58.65 699.1 58.55 699.25 58.55C699.4 58.55 699.5 58.65 699.5 58.8V66C699.5 67.4 698.4 68.5 697 68.5Z" fill="#472B29"/>
<path d="M695.05 58.9C695.05 58.15 695.45 57.7 696.1 57.4C696.05 57 695.6 55.85 695.35 55.55C694.7 55.85 694.1 55.8 693.55 55.3C693 54.8 693 54.15 693.3 53.5C692.75 53.15 692.1 52.9 691.45 52.75C691.25 53.4 690.8 53.8 690.15 53.85C689.35 53.9 688.85 53.5 688.55 52.75C687.9 52.9 687.3 53.15 686.7 53.5C687 54.15 686.95 54.75 686.45 55.3C685.95 55.85 685.3 55.9 684.65 55.55C684.3 56.1 684.05 56.75 683.9 57.4C684.55 57.65 684.95 58.1 685 58.8C685 59.55 684.6 60 683.95 60.3C684.1 60.95 684.35 61.55 684.7 62.1C685.35 61.8 685.95 61.85 686.45 62.35C686.95 62.85 687.05 63.45 686.75 64.1C687.3 64.45 687.95 64.7 688.6 64.85V64.8C688.85 64.2 689.35 63.8 690 63.8C690.65 63.8 691.2 64.15 691.45 64.8C691.5 64.85 691.5 64.85 691.55 64.85C692.15 64.7 692.7 64.45 693.2 64.15C693.25 64.15 693.25 64.1 693.3 64.1C693.05 63.6 693.05 63 693.5 62.5C694 61.9 694.65 61.8 695.35 62.1C695.7 61.55 695.95 60.95 696.1 60.3C695.45 60.05 695.05 59.6 695.05 58.9ZM690 59.95C689.4 59.95 688.95 59.45 688.95 58.9C688.95 58.3 689.45 57.85 690.05 57.85C690.65 57.85 691.1 58.35 691.1 58.95C691.05 59.45 690.6 59.95 690 59.95Z" fill="#BCBCE2"/>
<path d="M688.601 65.1493C688.601 65.1493 688.551 65.0993 688.601 65.1493C687.901 64.9993 687.251 64.7493 686.701 64.3993C686.601 64.3493 686.601 64.2493 686.651 64.1493C686.901 63.5493 686.851 62.9993 686.401 62.5993C685.951 62.1993 685.451 62.0993 684.851 62.3993C684.751 62.4493 684.651 62.3993 684.601 62.3493C684.251 61.7493 683.951 61.1493 683.801 60.4993C683.801 60.3993 683.851 60.2993 683.901 60.2993C684.551 60.0493 684.851 59.5993 684.851 58.9993C684.851 58.3993 684.501 57.9993 683.901 57.7493C683.801 57.6993 683.751 57.6493 683.801 57.5493C683.951 56.8993 684.201 56.2493 684.551 55.6493C684.601 55.5493 684.701 55.5493 684.801 55.5993C685.451 55.8993 685.951 55.7993 686.401 55.3493C686.851 54.8993 686.901 54.3993 686.601 53.7493C686.551 53.6493 686.601 53.5493 686.651 53.4993C687.201 53.1493 687.851 52.8993 688.551 52.6993C688.651 52.6993 688.751 52.7493 688.751 52.7993C689.001 53.4993 689.451 53.7993 690.151 53.7493C690.701 53.6993 691.101 53.3993 691.301 52.7993C691.351 52.6993 691.401 52.6493 691.501 52.6993C692.151 52.8493 692.801 53.0993 693.401 53.4993C693.501 53.5493 693.501 53.6493 693.451 53.7493C693.151 54.3993 693.251 54.8993 693.651 55.3493C694.101 55.7993 694.601 55.8493 695.251 55.5493C695.301 55.4993 695.401 55.5493 695.451 55.5993C695.701 55.8993 696.201 57.0993 696.251 57.5493C696.251 57.6493 696.201 57.6993 696.151 57.7493C695.501 57.9993 695.201 58.4493 695.201 59.0493C695.201 59.6493 695.501 60.0493 696.151 60.2993C696.251 60.3493 696.301 60.3993 696.251 60.4993C696.101 61.1493 695.851 61.7993 695.451 62.3493C695.401 62.4493 695.301 62.4493 695.201 62.3993C694.551 62.0993 694.001 62.1993 693.551 62.7493C693.201 63.1493 693.151 63.6493 693.401 64.1993C693.451 64.2993 693.401 64.3993 693.351 64.4493L693.251 64.4993C692.701 64.7993 692.151 65.0493 691.551 65.1993C691.351 65.2493 691.251 65.1493 691.201 65.0493C691.001 64.4993 690.501 64.1993 689.951 64.1993C689.401 64.1993 688.951 64.5493 688.751 65.0993V65.1493C688.751 65.0493 688.651 65.1493 688.601 65.1493ZM687.001 64.0993C687.451 64.3493 687.951 64.5493 688.501 64.6993C688.801 64.0493 689.351 63.6993 690.001 63.6993C690.701 63.6993 691.251 64.0993 691.551 64.6993C692.101 64.5493 692.601 64.3493 693.051 64.0993C692.801 63.4493 692.901 62.8993 693.301 62.3993C693.801 61.7993 694.451 61.6493 695.201 61.8993C695.451 61.4493 695.701 60.9493 695.801 60.3993C695.151 60.0993 694.801 59.5993 694.751 58.8993C694.751 58.1493 695.101 57.5993 695.801 57.2993C695.701 56.8993 695.401 56.1493 695.201 55.7993C694.501 56.0993 693.851 55.9493 693.351 55.4493C692.851 54.9493 692.701 54.2993 693.001 53.5993C692.551 53.3493 692.051 53.0993 691.501 52.9993C691.251 53.6493 690.751 53.9993 690.101 54.0493C689.301 54.0993 688.701 53.7493 688.401 52.9993C687.851 53.1493 687.351 53.3493 686.901 53.5993C687.201 54.2993 687.051 54.9493 686.551 55.4493C686.051 55.9493 685.401 56.0993 684.701 55.7993C684.451 56.2493 684.251 56.7493 684.101 57.2993C684.751 57.5993 685.151 58.0993 685.151 58.7993C685.151 59.5493 684.801 60.0493 684.101 60.3993C684.251 60.8993 684.451 61.3993 684.751 61.8993C685.451 61.6493 686.051 61.7493 686.551 62.2493C687.101 62.7993 687.251 63.3993 687.001 64.0993ZM690.001 60.0993C689.651 60.0993 689.351 59.9493 689.101 59.7493C688.851 59.4993 688.751 59.1993 688.751 58.8493C688.751 58.4993 688.901 58.1993 689.101 57.9493C689.351 57.6993 689.651 57.5993 690.001 57.5993C690.351 57.5993 690.651 57.7493 690.901 57.9993C691.151 58.2493 691.251 58.5493 691.251 58.8993C691.251 59.5993 690.701 60.0993 690.001 60.0993ZM690.001 57.9993C689.751 57.9993 689.551 58.0993 689.351 58.2493C689.201 58.3993 689.101 58.6493 689.101 58.8493C689.101 59.0493 689.201 59.2993 689.351 59.4993C689.501 59.6493 689.751 59.7493 690.001 59.7493C690.501 59.7493 690.851 59.3493 690.901 58.8993C690.901 58.6493 690.801 58.4493 690.651 58.2493C690.501 58.0993 690.251 57.9993 690.001 57.9993C690.051 57.9993 690.051 57.9993 690.001 57.9993Z" fill="#472B29"/>
<path d="M693.899 57.9502C693.349 55.8502 691.199 54.6002 689.099 55.1002C686.999 55.6502 685.699 57.7502 686.249 59.8502C686.799 61.9502 688.949 63.2002 691.049 62.7002C693.149 62.1502 694.449 60.0502 693.899 57.9502ZM690.849 61.9502C689.149 62.4002 687.449 61.3502 686.999 59.7002C686.549 58.0002 687.599 56.3002 689.299 55.9002C690.999 55.5002 692.649 56.5502 693.099 58.2002C693.499 59.8502 692.499 61.5002 690.849 61.9502Z" fill="#7878AA"/>
<path d="M690.049 62.2004C688.599 62.2004 687.299 61.2004 686.899 59.7504C686.699 58.9004 686.799 58.0504 687.249 57.3004C687.699 56.5504 688.399 56.0504 689.249 55.8004C690.099 55.6004 690.949 55.7004 691.699 56.1504C692.449 56.6004 692.949 57.3004 693.199 58.1504C693.649 59.9004 692.599 61.6504 690.849 62.1004C690.549 62.1504 690.299 62.2004 690.049 62.2004ZM690.049 55.9504C689.799 55.9504 689.549 56.0004 689.299 56.0504C688.549 56.2504 687.899 56.7504 687.449 57.4004C686.999 58.0504 686.949 58.9004 687.099 59.6504C687.499 61.2504 689.149 62.2004 690.699 61.8004C692.299 61.4004 693.249 59.7504 692.849 58.2004C692.649 57.4504 692.149 56.8004 691.499 56.3504C691.099 56.1004 690.549 55.9504 690.049 55.9504ZM686.299 57.7004C686.299 57.7004 686.249 57.6504 686.299 57.7004C686.199 57.6504 686.149 57.6004 686.199 57.5004C686.649 56.2004 687.749 55.2504 689.049 54.9004C689.099 54.9004 689.199 54.9004 689.199 55.0004C689.199 55.1004 689.199 55.1504 689.099 55.1504C687.849 55.4504 686.849 56.3504 686.449 57.5504C686.399 57.6504 686.349 57.7004 686.299 57.7004Z" fill="#472B29"/>
<path d="M690.101 62.8992C689.701 62.8992 689.251 62.8492 688.851 62.6992C687.451 62.2992 686.401 61.1992 686.051 59.8492C686.051 59.7992 686.051 59.6992 686.151 59.6992C686.201 59.6992 686.301 59.6992 686.301 59.7992C686.601 61.0492 687.601 62.0492 688.951 62.4492C690.301 62.8492 691.651 62.5492 692.651 61.6492C692.701 61.5992 692.801 61.5992 692.851 61.6492C692.901 61.6992 692.901 61.7992 692.851 61.8492C692.101 62.5492 691.101 62.8992 690.101 62.8992Z" fill="#472B29"/>
<path d="M693.5 60.8008C693.4 60.9508 693.35 61.1008 693.25 61.2508L693.5 60.8008Z" fill="#A2A2CC"/>
<path d="M693.25 61.3504C693.2 61.3504 693.2 61.3504 693.15 61.3504C693.1 61.3004 693.1 61.2504 693.1 61.1504C693.2 61.0004 693.3 60.9004 693.35 60.7504C693.4 60.7004 693.45 60.6504 693.55 60.7004C693.6 60.7504 693.65 60.8004 693.6 60.9004C693.5 61.0504 693.4 61.2004 693.3 61.3504H693.25Z" fill="#472B29"/>
<path d="M693.9 59.75C693.85 60 693.75 60.2 693.65 60.45L693.9 59.75Z" fill="#A2A2CC"/>
<path d="M693.65 60.6H693.6C693.55 60.55 693.5 60.5 693.55 60.45C693.65 60.25 693.7 60 693.75 59.8C693.75 59.75 693.85 59.7 693.9 59.7C693.95 59.7 694 59.8 694 59.85C693.95 60.1 693.85 60.35 693.75 60.55C693.75 60.55 693.7 60.6 693.65 60.6ZM693.85 58.05C693.8 58.05 693.75 58 693.7 57.95C693.4 56.7 692.45 55.7 691.25 55.25C691.2 55.25 691.15 55.15 691.15 55.1C691.15 55.05 691.25 55 691.3 55C692.6 55.45 693.6 56.5 693.9 57.85C694 57.95 693.95 58 693.85 58.05C693.9 58.05 693.9 58.05 693.85 58.05Z" fill="#472B29"/>
<path d="M691.45 56.15C691.4 56.15 691.4 56.15 691.4 56.1C691.4 56.05 691.4 56.05 691.45 56L692.5 55.75C692.55 55.75 692.55 55.75 692.6 55.8C692.6 55.85 692.6 55.85 692.55 55.9L691.45 56.15Z" fill="#472B29"/>
<path d="M692.351 56.7492C692.301 56.7492 692.301 56.7492 692.301 56.6992C692.301 56.6492 692.301 56.6492 692.351 56.5992L693.151 56.4492C693.201 56.4492 693.201 56.4492 693.251 56.4992C693.301 56.5492 693.251 56.5492 693.201 56.5992L692.351 56.7492Z" fill="#472B29"/>
<path d="M692.851 57.5496C692.801 57.5496 692.801 57.5496 692.801 57.4996C692.801 57.4496 692.801 57.4496 692.851 57.4496L693.651 57.3496C693.701 57.3496 693.701 57.3496 693.701 57.3996C693.701 57.4496 693.701 57.4496 693.651 57.4496L692.851 57.5496Z" fill="#472B29"/>
<path d="M688.599 56.0492C688.549 56.0492 688.549 56.0492 688.549 55.9992L688.449 55.2492C688.449 55.1992 688.449 55.1992 688.499 55.1992C688.549 55.1992 688.549 55.1992 688.549 55.2492L688.649 55.9992C688.649 56.0492 688.649 56.0492 688.599 56.0492Z" fill="#472B29"/>
<path d="M687.999 56.5496C687.949 56.5496 687.949 56.5496 687.949 56.4996L687.699 55.6996C687.699 55.6496 687.699 55.6496 687.749 55.5996C687.799 55.5996 687.799 55.5996 687.849 55.6496L688.099 56.4496C688.049 56.4996 688.049 56.5496 687.999 56.5496Z" fill="#472B29"/>
<path d="M687.45 57.1508C687.45 57.1508 687.4 57.1508 687.4 57.1008L686.9 56.4008C686.9 56.3508 686.9 56.3508 686.9 56.3008C686.95 56.3008 686.95 56.3008 687 56.3008L687.5 57.0008C687.5 57.1008 687.5 57.1508 687.45 57.1508Z" fill="#472B29"/>
<path d="M686.4 60.4508C686.35 60.4508 686.35 60.4008 686.35 60.4008C686.35 60.3508 686.4 60.3508 686.4 60.3508L687.2 60.3008C687.25 60.3008 687.25 60.3508 687.25 60.3508C687.25 60.4008 687.2 60.4008 687.2 60.4008L686.4 60.4508Z" fill="#472B29"/>
<path d="M686.851 61.3004C686.801 61.3004 686.801 61.3004 686.801 61.2504C686.801 61.2004 686.801 61.2004 686.851 61.1504L687.651 60.9004C687.701 60.9004 687.701 60.9004 687.751 60.9504C687.751 61.0004 687.751 61.0004 687.701 61.0504L686.851 61.3004C686.901 61.3004 686.901 61.3004 686.851 61.3004Z" fill="#472B29"/>
<path d="M687.7 62.0508C687.7 62.0508 687.65 62.0508 687.65 62.0008C687.65 61.9508 687.65 61.9508 687.7 61.9008L688.35 61.5508C688.4 61.5508 688.4 61.5508 688.45 61.6008C688.45 61.6508 688.45 61.6508 688.4 61.7008L687.7 62.0508C687.75 62.0508 687.75 62.0508 687.7 62.0508Z" fill="#472B29"/>
<path d="M688.8 62.55C688.75 62.5 688.75 62.45 688.75 62.45L689.25 62C689.3 62 689.3 62 689.35 62C689.35 62.05 689.35 62.05 689.35 62.1L688.8 62.55C688.85 62.55 688.85 62.55 688.8 62.55Z" fill="#472B29"/>
<path d="M689.999 62.85C689.999 62.85 689.949 62.85 689.999 62.85C689.949 62.8 689.949 62.8 689.949 62.75L690.349 62.05C690.349 62 690.399 62 690.449 62C690.499 62 690.499 62.05 690.499 62.1L690.099 62.8C690.049 62.85 689.999 62.85 689.999 62.85Z" fill="#472B29"/>
<path d="M691.249 62.6508C691.199 62.6508 691.199 62.6008 691.199 62.6008L691.249 61.8508C691.249 61.8008 691.299 61.8008 691.299 61.8008C691.349 61.8008 691.349 61.8508 691.349 61.8508L691.299 62.6008C691.299 62.6008 691.299 62.6508 691.249 62.6508Z" fill="#472B29"/>
<path d="M689.449 54.9504C689.699 54.9004 689.949 54.9004 690.199 54.9004L689.449 54.9504Z" fill="#A2A2CC"/>
<path d="M689.451 55.1008C689.401 55.1008 689.351 55.0508 689.301 55.0008C689.301 54.9508 689.351 54.8508 689.401 54.8508C689.651 54.8008 689.901 54.8008 690.151 54.8008C690.201 54.8008 690.301 54.8508 690.251 54.9508C690.251 55.0008 690.201 55.0508 690.101 55.0508C689.951 55.0508 689.701 55.0508 689.451 55.1008Z" fill="#472B29"/>
</g>
<g filter="url(#filter3_ddd_1009_24021)">
<path d="M286 413.5C286.276 413.5 286.5 413.276 286.5 413C286.5 412.724 286.276 412.5 286 412.5C285.724 412.5 285.5 412.724 285.5 413C285.5 413.276 285.724 413.5 286 413.5Z" fill="#F1BC19"/>
<path d="M272 450C282.493 450 291 441.493 291 431C291 420.507 282.493 412 272 412C261.507 412 253 420.507 253 431C253 441.493 261.507 450 272 450Z" fill="#F9DBD2"/>
<path d="M289 416C290.105 416 291 415.105 291 414C291 412.895 290.105 412 289 412C287.895 412 287 412.895 287 414C287 415.105 287.895 416 289 416Z" fill="#F1BC19"/>
<path d="M254 420C254.552 420 255 419.552 255 419C255 418.448 254.552 418 254 418C253.448 418 253 418.448 253 419C253 419.552 253.448 420 254 420Z" fill="#EE3E54"/>
<path d="M286 445.5C286.552 445.5 287 445.052 287 444.5C287 443.948 286.552 443.5 286 443.5C285.448 443.5 285 443.948 285 444.5C285 445.052 285.448 445.5 286 445.5Z" fill="#FBCD59"/>
<path d="M255.5 447C256.605 447 257.5 446.105 257.5 445C257.5 443.895 256.605 443 255.5 443C254.395 443 253.5 443.895 253.5 445C253.5 446.105 254.395 447 255.5 447Z" fill="#FBCD59"/>
<path d="M259 448.5C259.552 448.5 260 448.052 260 447.5C260 446.948 259.552 446.5 259 446.5C258.448 446.5 258 446.948 258 447.5C258 448.052 258.448 448.5 259 448.5Z" fill="#EE3E54"/>
<path d="M279.242 446.499C279.927 446.499 280.483 445.943 280.483 445.257C280.483 444.571 279.927 444.016 279.242 444.016C278.556 444.016 278 444.571 278 445.257C278 445.943 278.556 446.499 279.242 446.499Z" fill="white"/>
<path d="M255 430.5C255.276 430.5 255.5 430.276 255.5 430C255.5 429.724 255.276 429.5 255 429.5C254.724 429.5 254.5 429.724 254.5 430C254.5 430.276 254.724 430.5 255 430.5Z" fill="white"/>
<path d="M290 422C290.276 422 290.5 421.776 290.5 421.5C290.5 421.224 290.276 421 290 421C289.724 421 289.5 421.224 289.5 421.5C289.5 421.776 289.724 422 290 422Z" fill="#F1BC19"/>
<path d="M289 429.5C289.552 429.5 290 429.052 290 428.5C290 427.948 289.552 427.5 289 427.5C288.448 427.5 288 427.948 288 428.5C288 429.052 288.448 429.5 289 429.5Z" fill="white"/>
<path d="M261.5 432.15C262.963 432.15 264.15 430.963 264.15 429.5C264.15 428.036 262.963 426.85 261.5 426.85C260.036 426.85 258.85 428.036 258.85 429.5C258.85 430.963 260.036 432.15 261.5 432.15Z" fill="white"/>
<path d="M261.5 427.2C262.768 427.2 263.8 428.232 263.8 429.5C263.8 430.768 262.768 431.8 261.5 431.8C260.232 431.8 259.2 430.768 259.2 429.5C259.2 428.232 260.232 427.2 261.5 427.2ZM261.5 426.5C259.843 426.5 258.5 427.844 258.5 429.5C258.5 431.156 259.843 432.5 261.5 432.5C263.157 432.5 264.5 431.156 264.5 429.5C264.5 427.844 263.157 426.5 261.5 426.5Z" fill="#472B29"/>
<path d="M283 432.15C284.463 432.15 285.65 430.963 285.65 429.5C285.65 428.036 284.463 426.85 283 426.85C281.536 426.85 280.35 428.036 280.35 429.5C280.35 430.963 281.536 432.15 283 432.15Z" fill="white"/>
<path d="M283 427.2C284.268 427.2 285.3 428.232 285.3 429.5C285.3 430.768 284.268 431.8 283 431.8C281.732 431.8 280.7 430.768 280.7 429.5C280.7 428.232 281.732 427.2 283 427.2ZM283 426.5C281.343 426.5 280 427.844 280 429.5C280 431.156 281.343 432.5 283 432.5C284.657 432.5 286 431.156 286 429.5C286 427.844 284.657 426.5 283 426.5Z" fill="#472B29"/>
<path d="M272.25 441.15C279.098 441.15 284.65 437.501 284.65 433C284.65 428.498 279.098 424.85 272.25 424.85C265.401 424.85 259.85 428.498 259.85 433C259.85 437.501 265.401 441.15 272.25 441.15Z" fill="white"/>
<path d="M272.25 425.2C278.895 425.2 284.3 428.699 284.3 433C284.3 437.301 278.895 440.8 272.25 440.8C265.606 440.8 260.2 437.301 260.2 433C260.2 428.699 265.606 425.2 272.25 425.2ZM272.25 424.5C265.208 424.5 259.5 428.306 259.5 433C259.5 437.694 265.208 441.5 272.25 441.5C279.292 441.5 285 437.694 285 433C285 428.306 279.292 424.5 272.25 424.5Z" fill="#472B29"/>
<path d="M277.824 438.944C277.773 438.944 277.725 438.913 277.707 438.862C277.683 438.797 277.717 438.725 277.782 438.702C279.233 438.177 280.483 437.443 281.398 436.577C281.449 436.53 281.528 436.532 281.575 436.582C281.623 436.632 281.621 436.712 281.57 436.759C280.63 437.648 279.35 438.401 277.867 438.937C277.853 438.942 277.839 438.944 277.824 438.944Z" fill="#472B29"/>
<path d="M282.328 435.833C282.303 435.833 282.277 435.825 282.255 435.809C282.199 435.769 282.186 435.691 282.226 435.635C282.822 434.802 283.124 433.915 283.124 433C283.124 432.155 282.865 431.332 282.356 430.553C282.318 430.495 282.334 430.417 282.392 430.38C282.449 430.342 282.527 430.358 282.565 430.416C283.102 431.236 283.374 432.106 283.374 433C283.374 433.968 283.056 434.904 282.43 435.781C282.406 435.815 282.367 435.833 282.328 435.833Z" fill="#472B29"/>
<path d="M263.09 429.26C263.057 429.26 263.024 429.247 262.999 429.221C262.951 429.171 262.954 429.092 263.004 429.045C263.944 428.156 265.224 427.403 266.708 426.867C266.772 426.843 266.844 426.877 266.868 426.942C266.891 427.007 266.857 427.078 266.793 427.102C265.342 427.626 264.091 428.361 263.176 429.226C263.152 429.249 263.121 429.26 263.09 429.26Z" fill="#472B29"/>
<path d="M262.113 435.446C262.073 435.446 262.033 435.426 262.009 435.39C261.472 434.569 261.199 433.7 261.199 432.806C261.199 431.838 261.517 430.902 262.144 430.025C262.184 429.969 262.262 429.956 262.318 429.996C262.374 430.036 262.387 430.114 262.347 430.17C261.751 431.004 261.449 431.891 261.449 432.806C261.449 433.65 261.708 434.473 262.218 435.253C262.256 435.311 262.239 435.388 262.182 435.426C262.161 435.44 262.137 435.446 262.113 435.446Z" fill="#472B29"/>
<path d="M281.75 422.65C282.799 422.65 283.65 421.799 283.65 420.75C283.65 419.7 282.799 418.85 281.75 418.85C280.7 418.85 279.85 419.7 279.85 420.75C279.85 421.799 280.7 422.65 281.75 422.65Z" fill="white"/>
<path d="M281.75 419.2C282.605 419.2 283.3 419.895 283.3 420.75C283.3 421.605 282.605 422.3 281.75 422.3C280.895 422.3 280.2 421.605 280.2 420.75C280.2 419.895 280.895 419.2 281.75 419.2ZM281.75 418.5C280.508 418.5 279.5 419.508 279.5 420.75C279.5 421.992 280.508 423 281.75 423C282.992 423 284 421.992 284 420.75C284 419.508 282.992 418.5 281.75 418.5Z" fill="#472B29"/>
<path d="M268 433.25C268.966 433.25 269.75 432.466 269.75 431.5C269.75 430.534 268.966 429.75 268 429.75C267.034 429.75 266.25 430.534 266.25 431.5C266.25 432.466 267.034 433.25 268 433.25Z" fill="#EE3E54"/>
<path d="M268 433.5C266.897 433.5 266 432.603 266 431.5C266 430.397 266.897 429.5 268 429.5C269.103 429.5 270 430.397 270 431.5C270 432.603 269.103 433.5 268 433.5ZM268 430C267.173 430 266.5 430.673 266.5 431.5C266.5 432.327 267.173 433 268 433C268.827 433 269.5 432.327 269.5 431.5C269.5 430.673 268.827 430 268 430Z" fill="#472B29"/>
<path d="M276.5 433.25C277.466 433.25 278.25 432.466 278.25 431.5C278.25 430.534 277.466 429.75 276.5 429.75C275.534 429.75 274.75 430.534 274.75 431.5C274.75 432.466 275.534 433.25 276.5 433.25Z" fill="#EE3E54"/>
<path d="M276.5 433.5C275.397 433.5 274.5 432.603 274.5 431.5C274.5 430.397 275.397 429.5 276.5 429.5C277.603 429.5 278.5 430.397 278.5 431.5C278.5 432.603 277.603 433.5 276.5 433.5ZM276.5 430C275.673 430 275 430.673 275 431.5C275 432.327 275.673 433 276.5 433C277.327 433 278 432.327 278 431.5C278 430.673 277.327 430 276.5 430Z" fill="#472B29"/>
<path d="M272.25 425C272.224 425 272.197 424.996 272.171 424.987C272.04 424.944 271.969 424.802 272.013 424.671L274.013 418.671C274.055 418.546 274.186 418.474 274.315 418.509L279.94 420.009C280.073 420.044 280.153 420.181 280.117 420.315C280.081 420.448 279.946 420.528 279.811 420.492L274.413 419.052L272.487 424.829C272.452 424.934 272.354 425 272.25 425Z" fill="#472B29"/>
<path d="M272.219 438.181C270.829 438.181 269.45 437.775 268.12 436.963C268.002 436.891 267.965 436.737 268.037 436.62C268.109 436.502 268.263 436.465 268.381 436.537C270.907 438.08 273.513 438.079 276.123 436.535C276.241 436.465 276.395 436.504 276.466 436.623C276.536 436.742 276.497 436.895 276.378 436.965C275.007 437.776 273.607 438.181 272.219 438.181Z" fill="#472B29"/>
</g>
<g filter="url(#filter4_ddd_1009_24021)">
<path d="M281.5 22.5C281.235 22.5 280.98 22.6054 280.793 22.7929C280.605 22.9804 280.5 23.2348 280.5 23.5C280.5 23.7652 280.605 24.0196 280.793 24.2071C280.98 24.3946 281.235 24.5 281.5 24.5C281.765 24.5 282.02 24.3946 282.207 24.2071C282.395 24.0196 282.5 23.7652 282.5 23.5C282.5 23.2348 282.395 22.9804 282.207 22.7929C282.02 22.6054 281.765 22.5 281.5 22.5Z" fill="#EE3E54"/>
<path d="M313.5 15C313.367 15 313.24 15.0527 313.146 15.1464C313.053 15.2402 313 15.3674 313 15.5C313 15.6326 313.053 15.7598 313.146 15.8536C313.24 15.9473 313.367 16 313.5 16C313.633 16 313.76 15.9473 313.854 15.8536C313.947 15.7598 314 15.6326 314 15.5C314 15.3674 313.947 15.2402 313.854 15.1464C313.76 15.0527 313.633 15 313.5 15Z" fill="#F1BC19"/>
<path d="M300 15.5C295.093 15.5 290.388 17.4491 286.919 20.9185C283.449 24.3879 281.5 29.0935 281.5 34C281.5 38.9065 283.449 43.6121 286.919 47.0815C290.388 50.5509 295.093 52.5 300 52.5C304.907 52.5 309.612 50.5509 313.081 47.0815C316.551 43.6121 318.5 38.9065 318.5 34C318.5 29.0935 316.551 24.3879 313.081 20.9185C309.612 17.4491 304.907 15.5 300 15.5Z" fill="#FCE0A2"/>
<path d="M316.5 14.5C315.97 14.5 315.461 14.7107 315.086 15.0858C314.711 15.4609 314.5 15.9696 314.5 16.5C314.5 17.0304 314.711 17.5391 315.086 17.9142C315.461 18.2893 315.97 18.5 316.5 18.5C317.03 18.5 317.539 18.2893 317.914 17.9142C318.289 17.5391 318.5 17.0304 318.5 16.5C318.5 15.9696 318.289 15.4609 317.914 15.0858C317.539 14.7107 317.03 14.5 316.5 14.5Z" fill="#F1BC19"/>
<path d="M318.5 20C318.235 20 317.98 20.1054 317.793 20.2929C317.605 20.4804 317.5 20.7348 317.5 21C317.5 21.2652 317.605 21.5196 317.793 21.7071C317.98 21.8946 318.235 22 318.5 22C318.765 22 319.02 21.8946 319.207 21.7071C319.395 21.5196 319.5 21.2652 319.5 21C319.5 20.7348 319.395 20.4804 319.207 20.2929C319.02 20.1054 318.765 20 318.5 20Z" fill="#EE3E54"/>
<path d="M315.5 46C315.235 46 314.98 46.1054 314.793 46.2929C314.605 46.4804 314.5 46.7348 314.5 47C314.5 47.2652 314.605 47.5196 314.793 47.7071C314.98 47.8946 315.235 48 315.5 48C315.765 48 316.02 47.8946 316.207 47.7071C316.395 47.5196 316.5 47.2652 316.5 47C316.5 46.7348 316.395 46.4804 316.207 46.2929C316.02 46.1054 315.765 46 315.5 46ZM282.5 38.5C281.97 38.5 281.461 38.7107 281.086 39.0858C280.711 39.4609 280.5 39.9696 280.5 40.5C280.5 41.0304 280.711 41.5391 281.086 41.9142C281.461 42.2893 281.97 42.5 282.5 42.5C283.03 42.5 283.539 42.2893 283.914 41.9142C284.289 41.5391 284.5 41.0304 284.5 40.5C284.5 39.9696 284.289 39.4609 283.914 39.0858C283.539 38.7107 283.03 38.5 282.5 38.5Z" fill="#FBCD59"/>
<path d="M287.5 51.5C287.235 51.5 286.98 51.6054 286.793 51.7929C286.605 51.9804 286.5 52.2348 286.5 52.5C286.5 52.7652 286.605 53.0196 286.793 53.2071C286.98 53.3946 287.235 53.5 287.5 53.5C287.765 53.5 288.02 53.3946 288.207 53.2071C288.395 53.0196 288.5 52.7652 288.5 52.5C288.5 52.2348 288.395 51.9804 288.207 51.7929C288.02 51.6054 287.765 51.5 287.5 51.5Z" fill="#EE3E54"/>
<path d="M284.25 34.5C283.918 34.5 283.601 34.6317 283.366 34.8661C283.132 35.1005 283 35.4185 283 35.75C283 36.0815 283.132 36.3995 283.366 36.6339C283.601 36.8683 283.918 37 284.25 37C284.582 37 284.899 36.8683 285.134 36.6339C285.368 36.3995 285.5 36.0815 285.5 35.75C285.5 35.4185 285.368 35.1005 285.134 34.8661C284.899 34.6317 284.582 34.5 284.25 34.5Z" fill="white"/>
<path d="M285.5 42C285.367 42 285.24 42.0527 285.146 42.1464C285.053 42.2402 285 42.3674 285 42.5C285 42.6326 285.053 42.7598 285.146 42.8536C285.24 42.9473 285.367 43 285.5 43C285.633 43 285.76 42.9473 285.854 42.8536C285.947 42.7598 286 42.6326 286 42.5C286 42.3674 285.947 42.2402 285.854 42.1464C285.76 42.0527 285.633 42 285.5 42Z" fill="#F1BC19"/>
<path d="M315 25.5C314.867 25.5 314.74 25.5527 314.646 25.6464C314.553 25.7402 314.5 25.8674 314.5 26C314.5 26.1326 314.553 26.2598 314.646 26.3536C314.74 26.4473 314.867 26.5 315 26.5C315.133 26.5 315.26 26.4473 315.354 26.3536C315.447 26.2598 315.5 26.1326 315.5 26C315.5 25.8674 315.447 25.7402 315.354 25.6464C315.26 25.5527 315.133 25.5 315 25.5Z" fill="white"/>
<path d="M293.949 31.3496H295.499V37.5996H293.949V31.3496Z" fill="#78CDD4"/>
<path d="M293.75 37.5C293.6 37.5 293.5 37.4 293.5 37.25V31.75C293.5 31.6 293.6 31.5 293.75 31.5C293.9 31.5 294 31.6 294 31.75V37.25C294 37.4 293.9 37.5 293.75 37.5ZM295.75 37.5C295.6 37.5 295.5 37.4 295.5 37.25V31.75C295.5 31.6 295.6 31.5 295.75 31.5C295.9 31.5 296 31.6 296 31.75V37.25C296 37.4 295.9 37.5 295.75 37.5Z" fill="#472B29"/>
<path d="M297.6 30.25L298.464 28.3912L305.854 31.8282L304.989 33.687L297.6 30.25Z" fill="#78CDD4"/>
<path d="M303.801 33.3001C303.751 33.3001 303.751 33.3001 303.701 33.3001L298.701 31.0001C298.551 30.9501 298.501 30.8001 298.601 30.6501C298.651 30.5001 298.801 30.4501 298.951 30.5501L303.951 32.8501C304.101 32.9001 304.151 33.0501 304.051 33.2001C304.001 33.2501 303.901 33.3001 303.801 33.3001Z" fill="#472B29"/>
<path d="M304.649 31.5001C304.599 31.5001 304.599 31.5001 304.549 31.5001L301.349 30.0001C301.199 29.9501 301.149 29.8001 301.249 29.6501C301.299 29.5001 301.449 29.4501 301.599 29.5501L304.799 31.0501C304.949 31.1001 304.999 31.2501 304.899 31.4001C304.849 31.4501 304.749 31.5001 304.649 31.5001Z" fill="#472B29"/>
<path d="M298.455 37.9043L306.026 34.383L306.912 36.2871L299.341 39.8084L298.455 37.9043Z" fill="#78CDD4"/>
<path d="M301.25 39.1C301.15 39.1 301.05 39.05 301 38.95C300.95 38.8 301 38.7 301.1 38.6L304.5 37C304.65 36.95 304.75 37 304.85 37.1C304.9 37.25 304.85 37.35 304.75 37.45L301.35 39.05C301.3 39.05 301.25 39.1 301.25 39.1Z" fill="#472B29"/>
<path d="M298.801 37.9993C298.701 37.9993 298.601 37.9493 298.551 37.8493C298.501 37.6993 298.551 37.5993 298.651 37.4993L303.651 35.1993C303.801 35.1493 303.901 35.1993 304.001 35.2993C304.101 35.3993 304.001 35.5493 303.901 35.6493L298.901 37.9493C298.901 37.9993 298.851 37.9993 298.801 37.9993Z" fill="#472B29"/>
<path d="M308.25 29.3496C307.606 29.3496 306.969 29.4764 306.374 29.7226C305.78 29.9688 305.24 30.3298 304.785 30.7848C304.33 31.2398 303.969 31.78 303.723 32.3745C303.476 32.969 303.35 33.6061 303.35 34.2496C303.35 34.8931 303.476 35.5303 303.723 36.1248C303.969 36.7193 304.33 37.2594 304.785 37.7144C305.24 38.1694 305.78 38.5304 306.374 38.7766C306.969 39.0229 307.606 39.1496 308.25 39.1496C308.893 39.1496 309.53 39.0229 310.125 38.7766C310.719 38.5304 311.259 38.1694 311.714 37.7144C312.169 37.2594 312.53 36.7193 312.777 36.1248C313.023 35.5303 313.15 34.8931 313.15 34.2496C313.15 33.6061 313.023 32.969 312.777 32.3745C312.53 31.78 312.169 31.2398 311.714 30.7848C311.259 30.3298 310.719 29.9688 310.125 29.7226C309.53 29.4764 308.893 29.3496 308.25 29.3496Z" fill="#78CDD4"/>
<path d="M308.25 29.7C310.75 29.7 312.8 31.75 312.8 34.25C312.8 36.75 310.75 38.8 308.25 38.8C305.75 38.8 303.7 36.75 303.7 34.25C303.7 31.75 305.75 29.7 308.25 29.7ZM308.25 29C305.35 29 303 31.35 303 34.25C303 37.15 305.35 39.5 308.25 39.5C311.15 39.5 313.5 37.15 313.5 34.25C313.5 31.35 311.15 29 308.25 29Z" fill="#472B29"/>
<path d="M308.25 37.5C306.45 37.5 305 36.05 305 34.25C305 32.45 306.45 31 308.25 31C308.4 31 308.5 31.1 308.5 31.25C308.5 31.4 308.4 31.5 308.25 31.5C306.75 31.5 305.5 32.75 305.5 34.25C305.5 35.75 306.75 37 308.25 37C309.75 37 311 35.75 311 34.25C311 34.1 311.1 34 311.25 34C311.4 34 311.5 34.1 311.5 34.25C311.5 36.05 310.05 37.5 308.25 37.5ZM310.95 33.15C310.85 33.15 310.75 33.1 310.75 33C310.5 32.5 310.1 32.1 309.6 31.8C309.5 31.75 309.45 31.6 309.5 31.45C309.55 31.35 309.7 31.3 309.85 31.35C310.45 31.65 310.9 32.15 311.2 32.75C311.25 32.85 311.2 33 311.1 33.1C311 33.15 311 33.15 310.95 33.15Z" fill="#472B29"/>
<path d="M294.75 22.8496C293.45 22.8496 292.204 23.3659 291.285 24.2848C290.366 25.2037 289.85 26.45 289.85 27.7496C289.85 29.0492 290.366 30.2955 291.285 31.2144C292.204 32.1334 293.45 32.6496 294.75 32.6496C296.049 32.6496 297.296 32.1334 298.214 31.2144C299.133 30.2955 299.65 29.0492 299.65 27.7496C299.65 26.45 299.133 25.2037 298.214 24.2848C297.296 23.3659 296.049 22.8496 294.75 22.8496Z" fill="#78CDD4"/>
<path d="M294.75 23.2C297.25 23.2 299.3 25.25 299.3 27.75C299.3 30.25 297.25 32.3 294.75 32.3C292.25 32.3 290.2 30.25 290.2 27.75C290.2 25.25 292.25 23.2 294.75 23.2ZM294.75 22.5C291.85 22.5 289.5 24.85 289.5 27.75C289.5 30.65 291.85 33 294.75 33C297.65 33 300 30.65 300 27.75C300 24.85 297.65 22.5 294.75 22.5Z" fill="#472B29"/>
<path d="M294.75 31C292.95 31 291.5 29.55 291.5 27.75C291.5 25.95 292.95 24.5 294.75 24.5C294.9 24.5 295 24.6 295 24.75C295 24.9 294.9 25 294.75 25C293.25 25 292 26.25 292 27.75C292 29.25 293.25 30.5 294.75 30.5C296.25 30.5 297.5 29.25 297.5 27.75C297.5 27.6 297.6 27.5 297.75 27.5C297.9 27.5 298 27.6 298 27.75C298 29.55 296.55 31 294.75 31ZM297.45 26.65C297.35 26.65 297.25 26.6 297.25 26.5C297 26 296.6 25.6 296.1 25.3C296 25.25 295.95 25.1 296 24.95C296.05 24.85 296.2 24.8 296.35 24.85C296.95 25.15 297.4 25.65 297.7 26.25C297.75 26.35 297.7 26.5 297.6 26.6C297.5 26.65 297.5 26.65 297.45 26.65Z" fill="#472B29"/>
<path d="M294.75 36.3496C294.106 36.3496 293.469 36.4764 292.874 36.7226C292.28 36.9688 291.74 37.3298 291.285 37.7848C290.83 38.2398 290.469 38.78 290.223 39.3745C289.976 39.969 289.85 40.6061 289.85 41.2496C289.85 41.8931 289.976 42.5303 290.223 43.1248C290.469 43.7193 290.83 44.2594 291.285 44.7144C291.74 45.1694 292.28 45.5304 292.874 45.7766C293.469 46.0229 294.106 46.1496 294.75 46.1496C295.393 46.1496 296.03 46.0229 296.625 45.7766C297.219 45.5304 297.759 45.1694 298.214 44.7144C298.669 44.2594 299.03 43.7193 299.277 43.1248C299.523 42.5303 299.65 41.8931 299.65 41.2496C299.65 40.6061 299.523 39.969 299.277 39.3745C299.03 38.78 298.669 38.2398 298.214 37.7848C297.759 37.3298 297.219 36.9688 296.625 36.7226C296.03 36.4764 295.393 36.3496 294.75 36.3496Z" fill="#78CDD4"/>
<path d="M294.75 36.7C297.25 36.7 299.3 38.75 299.3 41.25C299.3 43.75 297.25 45.8 294.75 45.8C292.25 45.8 290.2 43.75 290.2 41.25C290.2 38.75 292.25 36.7 294.75 36.7ZM294.75 36C291.85 36 289.5 38.35 289.5 41.25C289.5 44.15 291.85 46.5 294.75 46.5C297.65 46.5 300 44.15 300 41.25C300 38.35 297.65 36 294.75 36Z" fill="#472B29"/>
<path d="M294.75 44.5C292.95 44.5 291.5 43.05 291.5 41.25C291.5 39.45 292.95 38 294.75 38C294.9 38 295 38.1 295 38.25C295 38.4 294.9 38.5 294.75 38.5C293.25 38.5 292 39.75 292 41.25C292 42.75 293.25 44 294.75 44C296.25 44 297.5 42.75 297.5 41.25C297.5 41.1 297.6 41 297.75 41C297.9 41 298 41.1 298 41.25C298 43.05 296.55 44.5 294.75 44.5ZM297.45 40.15C297.35 40.15 297.25 40.1 297.25 40C297 39.5 296.6 39.1 296.1 38.8C296 38.75 295.95 38.6 296 38.45C296.05 38.3 296.2 38.3 296.35 38.35C296.95 38.65 297.4 39.15 297.7 39.75C297.75 39.85 297.7 40 297.6 40.1C297.5 40.15 297.5 40.15 297.45 40.15Z" fill="#472B29"/>
</g>
<g filter="url(#filter5_ddd_1009_24021)">
<path d="M1051.5 82.5C1051.23 82.5 1050.98 82.6054 1050.79 82.7929C1050.61 82.9804 1050.5 83.2348 1050.5 83.5C1050.5 83.7652 1050.61 84.0196 1050.79 84.2071C1050.98 84.3946 1051.23 84.5 1051.5 84.5C1051.77 84.5 1052.02 84.3946 1052.21 84.2071C1052.39 84.0196 1052.5 83.7652 1052.5 83.5C1052.5 83.2348 1052.39 82.9804 1052.21 82.7929C1052.02 82.6054 1051.77 82.5 1051.5 82.5Z" fill="#78A0CF"/>
<path d="M1083.5 75C1083.37 75 1083.24 75.0527 1083.15 75.1464C1083.05 75.2402 1083 75.3674 1083 75.5C1083 75.6326 1083.05 75.7598 1083.15 75.8536C1083.24 75.9473 1083.37 76 1083.5 76C1083.63 76 1083.76 75.9473 1083.85 75.8536C1083.95 75.7598 1084 75.6326 1084 75.5C1084 75.3674 1083.95 75.2402 1083.85 75.1464C1083.76 75.0527 1083.63 75 1083.5 75Z" fill="#F1BC19"/>
<path d="M1070 75.5C1065.09 75.5 1060.39 77.4491 1056.92 80.9185C1053.45 84.3879 1051.5 89.0935 1051.5 94C1051.5 98.9065 1053.45 103.612 1056.92 107.081C1060.39 110.551 1065.09 112.5 1070 112.5C1074.91 112.5 1079.61 110.551 1083.08 107.081C1086.55 103.612 1088.5 98.9065 1088.5 94C1088.5 89.0935 1086.55 84.3879 1083.08 80.9185C1079.61 77.4491 1074.91 75.5 1070 75.5Z" fill="#E3EFFB"/>
<path d="M1086.5 74.5C1085.97 74.5 1085.46 74.7107 1085.09 75.0858C1084.71 75.4609 1084.5 75.9696 1084.5 76.5C1084.5 77.0304 1084.71 77.5391 1085.09 77.9142C1085.46 78.2893 1085.97 78.5 1086.5 78.5C1087.03 78.5 1087.54 78.2893 1087.91 77.9142C1088.29 77.5391 1088.5 77.0304 1088.5 76.5C1088.5 75.9696 1088.29 75.4609 1087.91 75.0858C1087.54 74.7107 1087.03 74.5 1086.5 74.5Z" fill="#F1BC19"/>
<path d="M1088.5 80C1088.23 80 1087.98 80.1054 1087.79 80.2929C1087.61 80.4804 1087.5 80.7348 1087.5 81C1087.5 81.2652 1087.61 81.5196 1087.79 81.7071C1087.98 81.8946 1088.23 82 1088.5 82C1088.77 82 1089.02 81.8946 1089.21 81.7071C1089.39 81.5196 1089.5 81.2652 1089.5 81C1089.5 80.7348 1089.39 80.4804 1089.21 80.2929C1089.02 80.1054 1088.77 80 1088.5 80Z" fill="#78A0CF"/>
<path d="M1085.5 106C1085.23 106 1084.98 106.105 1084.79 106.293C1084.61 106.48 1084.5 106.735 1084.5 107C1084.5 107.265 1084.61 107.52 1084.79 107.707C1084.98 107.895 1085.23 108 1085.5 108C1085.77 108 1086.02 107.895 1086.21 107.707C1086.39 107.52 1086.5 107.265 1086.5 107C1086.5 106.735 1086.39 106.48 1086.21 106.293C1086.02 106.105 1085.77 106 1085.5 106ZM1052.5 98.5C1051.97 98.5 1051.46 98.7107 1051.09 99.0858C1050.71 99.4609 1050.5 99.9696 1050.5 100.5C1050.5 101.03 1050.71 101.539 1051.09 101.914C1051.46 102.289 1051.97 102.5 1052.5 102.5C1053.03 102.5 1053.54 102.289 1053.91 101.914C1054.29 101.539 1054.5 101.03 1054.5 100.5C1054.5 99.9696 1054.29 99.4609 1053.91 99.0858C1053.54 98.7107 1053.03 98.5 1052.5 98.5Z" fill="#FBCD59"/>
<path d="M1057.5 111.5C1057.23 111.5 1056.98 111.605 1056.79 111.793C1056.61 111.98 1056.5 112.235 1056.5 112.5C1056.5 112.765 1056.61 113.02 1056.79 113.207C1056.98 113.395 1057.23 113.5 1057.5 113.5C1057.77 113.5 1058.02 113.395 1058.21 113.207C1058.39 113.02 1058.5 112.765 1058.5 112.5C1058.5 112.235 1058.39 111.98 1058.21 111.793C1058.02 111.605 1057.77 111.5 1057.5 111.5Z" fill="#78A0CF"/>
<path d="M1054.25 94.5C1053.92 94.5 1053.6 94.6317 1053.37 94.8661C1053.13 95.1005 1053 95.4185 1053 95.75C1053 96.0815 1053.13 96.3995 1053.37 96.6339C1053.6 96.8683 1053.92 97 1054.25 97C1054.58 97 1054.9 96.8683 1055.13 96.6339C1055.37 96.3995 1055.5 96.0815 1055.5 95.75C1055.5 95.4185 1055.37 95.1005 1055.13 94.8661C1054.9 94.6317 1054.58 94.5 1054.25 94.5Z" fill="white"/>
<path d="M1055.5 102C1055.37 102 1055.24 102.053 1055.15 102.146C1055.05 102.24 1055 102.367 1055 102.5C1055 102.633 1055.05 102.76 1055.15 102.854C1055.24 102.947 1055.37 103 1055.5 103C1055.63 103 1055.76 102.947 1055.85 102.854C1055.95 102.76 1056 102.633 1056 102.5C1056 102.367 1055.95 102.24 1055.85 102.146C1055.76 102.053 1055.63 102 1055.5 102Z" fill="#F1BC19"/>
<path d="M1085 85.5C1084.87 85.5 1084.74 85.5527 1084.65 85.6464C1084.55 85.7402 1084.5 85.8674 1084.5 86C1084.5 86.1326 1084.55 86.2598 1084.65 86.3536C1084.74 86.4473 1084.87 86.5 1085 86.5C1085.13 86.5 1085.26 86.4473 1085.35 86.3536C1085.45 86.2598 1085.5 86.1326 1085.5 86C1085.5 85.8674 1085.45 85.7402 1085.35 85.6464C1085.26 85.5527 1085.13 85.5 1085 85.5Z" fill="white"/>
<path d="M1074.07 84.8691C1073.18 84.8691 1072.3 85.0442 1071.48 85.3843C1070.66 85.7244 1069.91 86.223 1069.28 86.8514C1068.65 87.4799 1068.15 88.226 1067.81 89.0471C1067.47 89.8683 1067.3 90.7484 1067.3 91.6371C1067.3 92.5259 1067.47 93.406 1067.81 94.2271C1068.15 95.0483 1068.65 95.7944 1069.28 96.4228C1069.91 97.0513 1070.66 97.5498 1071.48 97.89C1072.3 98.2301 1073.18 98.4051 1074.07 98.4051C1074.96 98.4051 1075.84 98.2301 1076.66 97.89C1077.48 97.5498 1078.22 97.0513 1078.85 96.4228C1079.48 95.7944 1079.98 95.0483 1080.32 94.2271C1080.66 93.406 1080.83 92.5259 1080.83 91.6371C1080.83 90.7484 1080.66 89.8683 1080.32 89.0471C1079.98 88.226 1079.48 87.4799 1078.85 86.8514C1078.22 86.223 1077.48 85.7244 1076.66 85.3843C1075.84 85.0442 1074.96 84.8691 1074.07 84.8691Z" fill="#F1BC19"/>
<path d="M1080.7 93.2511C1080.68 93.2511 1080.67 93.2496 1080.65 93.2461C1080.51 93.2181 1080.43 93.0861 1080.45 92.9506C1080.54 92.5226 1080.59 92.0806 1080.59 91.6371C1080.59 88.0431 1077.66 85.1191 1074.07 85.1191C1072.06 85.1191 1070.19 86.0261 1068.94 87.6086C1068.86 87.7166 1068.7 87.7356 1068.59 87.6501C1068.48 87.5646 1068.47 87.4081 1068.55 87.2991C1069.89 85.5961 1071.9 84.6191 1074.07 84.6191C1077.94 84.6191 1081.09 87.7676 1081.09 91.6371C1081.09 92.1141 1081.04 92.5896 1080.94 93.0511C1080.92 93.1696 1080.81 93.2511 1080.7 93.2511Z" fill="#472B29"/>
<path d="M1075.82 87.3125C1076.38 87.55 1076.89 87.894 1077.31 88.319L1075.82 87.3125Z" fill="#F1BC19"/>
<path d="M1077.31 88.5682C1077.25 88.5682 1077.19 88.5437 1077.14 88.4952C1076.73 88.0867 1076.25 87.7657 1075.72 87.5427C1075.6 87.4892 1075.54 87.3422 1075.59 87.2152C1075.64 87.0877 1075.79 87.0292 1075.92 87.0817C1076.51 87.3302 1077.04 87.6867 1077.49 88.1417C1077.59 88.2387 1077.59 88.3977 1077.49 88.4952C1077.44 88.5437 1077.38 88.5682 1077.31 88.5682Z" fill="#472B29"/>
<path d="M1070.29 88.7413C1071.15 87.6473 1072.49 86.9453 1073.99 86.9453L1070.29 88.7413Z" fill="#F1BC19"/>
<path d="M1070.29 88.9908C1070.24 88.9908 1070.18 88.9733 1070.14 88.9373C1070.03 88.8518 1070.01 88.6948 1070.1 88.5863C1071.04 87.3848 1072.46 86.6953 1073.99 86.6953C1074.13 86.6953 1074.24 86.8073 1074.24 86.9453C1074.24 87.0833 1074.13 87.1953 1073.99 87.1953C1072.62 87.1953 1071.34 87.8148 1070.49 88.8958C1070.44 88.9578 1070.37 88.9908 1070.29 88.9908Z" fill="#472B29"/>
<path d="M1060.03 101.651C1058.37 101.651 1057.03 100.211 1057.03 98.4414C1057.03 96.6709 1058.37 95.2309 1060.03 95.2309C1060.25 95.2309 1060.47 95.2579 1060.69 95.3114L1061.11 95.4124L1061.12 94.9814C1061.22 91.7454 1063.68 89.2109 1066.72 89.2109C1068.85 89.2109 1070.77 90.4804 1071.73 92.5244L1071.97 93.0294L1072.32 92.5974C1073.08 91.6634 1074.18 91.1279 1075.33 91.1279C1077.39 91.1279 1079.14 92.8434 1079.31 95.0339L1079.34 95.4609L1079.76 95.3444C1080.02 95.2699 1080.28 95.2319 1080.53 95.2319C1081.33 95.2319 1082.08 95.5629 1082.65 96.1644C1083.22 96.7719 1083.54 97.5804 1083.54 98.4424C1083.54 100.212 1082.19 101.652 1080.53 101.652H1060.03V101.651Z" fill="#48BED8"/>
<path d="M1066.72 89.5594C1068.72 89.5594 1070.52 90.7519 1071.41 92.6714L1071.89 93.6819L1072.59 92.8174C1073.28 91.9654 1074.28 91.4764 1075.33 91.4764C1077.21 91.4764 1078.81 93.0499 1078.96 95.0594L1079.03 95.9134L1079.85 95.6789C1080.08 95.6134 1080.31 95.5804 1080.53 95.5804C1081.24 95.5804 1081.9 95.8724 1082.4 96.4034C1082.91 96.9454 1083.19 97.6689 1083.19 98.4409C1083.19 100.018 1082 101.301 1080.53 101.301H1060.03C1058.57 101.301 1057.38 100.018 1057.38 98.4409C1057.38 96.8639 1058.57 95.5809 1060.03 95.5809C1060.22 95.5809 1060.42 95.6049 1060.61 95.6519L1061.45 95.8534L1061.47 94.9924C1061.57 91.9454 1063.87 89.5594 1066.72 89.5594ZM1066.72 88.8594C1063.49 88.8594 1060.88 91.5784 1060.78 94.9699C1060.54 94.9124 1060.29 94.8799 1060.03 94.8799C1058.18 94.8799 1056.68 96.4739 1056.68 98.4399C1056.68 100.406 1058.18 102 1060.03 102C1060.25 102 1080.32 102 1080.53 102C1082.39 102 1083.89 100.406 1083.89 98.4399C1083.89 96.4734 1082.39 94.8799 1080.53 94.8799C1080.23 94.8799 1079.94 94.9259 1079.66 95.0054C1079.48 92.6384 1077.61 90.7764 1075.33 90.7764C1074.02 90.7764 1072.84 91.3974 1072.05 92.3749C1071.07 90.2934 1069.06 88.8594 1066.72 88.8594Z" fill="#472B29"/>
<path d="M1075.25 100H1073.75C1073.61 100 1073.5 99.888 1073.5 99.75C1073.5 99.612 1073.61 99.5 1073.75 99.5H1075.25C1075.39 99.5 1075.5 99.612 1075.5 99.75C1075.5 99.888 1075.39 100 1075.25 100Z" fill="#472B29"/>
<path d="M1071.75 100H1060.25C1060.11 100 1060 99.888 1060 99.75C1060 99.612 1060.11 99.5 1060.25 99.5H1071.75C1071.89 99.5 1072 99.612 1072 99.75C1072 99.888 1071.89 100 1071.75 100Z" fill="#472B29"/>
<path d="M1078.75 100H1076.75C1076.61 100 1076.5 99.888 1076.5 99.75C1076.5 99.612 1076.61 99.5 1076.75 99.5H1078.75C1078.89 99.5 1079 99.612 1079 99.75C1079 99.888 1078.89 100 1078.75 100Z" fill="#472B29"/>
<path d="M1074.25 83.5C1074.11 83.5 1074 83.388 1074 83.25V80.25C1074 80.112 1074.11 80 1074.25 80C1074.39 80 1074.5 80.112 1074.5 80.25V83.25C1074.5 83.388 1074.39 83.5 1074.25 83.5Z" fill="#472B29"/>
<path d="M1085.75 93H1082.75C1082.61 93 1082.5 92.888 1082.5 92.75C1082.5 92.612 1082.61 92.5 1082.75 92.5H1085.75C1085.89 92.5 1086 92.612 1086 92.75C1086 92.888 1085.89 93 1085.75 93Z" fill="#472B29"/>
<path d="M1080.05 86.3428C1079.98 86.3428 1079.92 86.3183 1079.87 86.2698C1079.77 86.1723 1079.77 86.0138 1079.87 85.9163L1082.01 83.7743C1082.11 83.6768 1082.27 83.6768 1082.37 83.7743C1082.46 83.8718 1082.46 84.0303 1082.37 84.1278L1080.22 86.2698C1080.18 86.3183 1080.11 86.3428 1080.05 86.3428Z" fill="#472B29"/>
<path d="M1068.86 85.7368C1068.8 85.7368 1068.73 85.7123 1068.68 85.6638L1066.54 83.5223C1066.44 83.4248 1066.44 83.2663 1066.54 83.1688C1066.64 83.0713 1066.8 83.0713 1066.9 83.1688L1069.04 85.3103C1069.13 85.4078 1069.13 85.5663 1069.04 85.6638C1068.99 85.7123 1068.92 85.7368 1068.86 85.7368Z" fill="#472B29"/>
</g>
<path d="M397 159C396.735 159 396.48 159.105 396.293 159.293C396.105 159.48 396 159.735 396 160C396 160.265 396.105 160.52 396.293 160.707C396.48 160.895 396.735 161 397 161C397.265 161 397.52 160.895 397.707 160.707C397.895 160.52 398 160.265 398 160C398 159.735 397.895 159.48 397.707 159.293C397.52 159.105 397.265 159 397 159Z" fill="#00A7A7"/>
<path d="M401.5 159C400.837 159 400.201 159.263 399.732 159.732C399.263 160.201 399 160.837 399 161.5C399 162.163 399.263 162.799 399.732 163.268C400.201 163.737 400.837 164 401.5 164C402.163 164 402.799 163.737 403.268 163.268C403.737 162.799 404 162.163 404 161.5C404 160.837 403.737 160.201 403.268 159.732C402.799 159.263 402.163 159 401.5 159Z" fill="#F1BC19"/>
<path d="M403 167C402.735 167 402.48 167.105 402.293 167.293C402.105 167.48 402 167.735 402 168C402 168.265 402.105 168.52 402.293 168.707C402.48 168.895 402.735 169 403 169C403.265 169 403.52 168.895 403.707 168.707C403.895 168.52 404 168.265 404 168C404 167.735 403.895 167.48 403.707 167.293C403.52 167.105 403.265 167 403 167Z" fill="#EE3E54"/>
<path d="M1 159C0.734784 159 0.480429 159.105 0.292892 159.293C0.105356 159.48 0 159.735 0 160C0 160.265 0.105356 160.52 0.292892 160.707C0.480429 160.895 0.734784 161 1 161C1.26522 161 1.51957 160.895 1.70711 160.707C1.89464 160.52 2 160.265 2 160C2 159.735 1.89464 159.48 1.70711 159.293C1.51957 159.105 1.26522 159 1 159Z" fill="#F1BC19"/>
<path d="M5 160C4.46957 160 3.96086 160.211 3.58578 160.586C3.21071 160.961 3 161.47 3 162C3 162.53 3.21071 163.039 3.58578 163.414C3.96086 163.789 4.46957 164 5 164C5.53043 164 6.03914 163.789 6.41422 163.414C6.78929 163.039 7 162.53 7 162C7 161.47 6.78929 160.961 6.41422 160.586C6.03914 160.211 5.53043 160 5 160Z" fill="#F1BC19"/>
<path d="M7 167C6.73478 167 6.48043 167.105 6.29289 167.293C6.10536 167.48 6 167.735 6 168C6 168.265 6.10536 168.52 6.29289 168.707C6.48043 168.895 6.73478 169 7 169C7.26522 169 7.51957 168.895 7.70711 168.707C7.89464 168.52 8 168.265 8 168C8 167.735 7.89464 167.48 7.70711 167.293C7.51957 167.105 7.26522 167 7 167Z" fill="#EE3E54"/>
<path d="M351.5 303C351.102 303 350.721 303.158 350.439 303.439C350.158 303.721 350 304.102 350 304.5C350 304.898 350.158 305.279 350.439 305.561C350.721 305.842 351.102 306 351.5 306C351.898 306 352.279 305.842 352.561 305.561C352.842 305.279 353 304.898 353 304.5C353 304.102 352.842 303.721 352.561 303.439C352.279 303.158 351.898 303 351.5 303Z" fill="#F1BC19"/>
<path d="M352.5 312C351.307 312 350.162 312.474 349.318 313.318C348.474 314.162 348 315.307 348 316.5C348 317.693 348.474 318.838 349.318 319.682C350.162 320.526 351.307 321 352.5 321C353.693 321 354.838 320.526 355.682 319.682C356.526 318.838 357 317.693 357 316.5C357 315.307 356.526 314.162 355.682 313.318C354.838 312.474 353.693 312 352.5 312Z" fill="#00A7A7"/>
<path d="M363 319C362.204 319 361.441 319.316 360.879 319.879C360.316 320.441 360 321.204 360 322C360 322.796 360.316 323.559 360.879 324.121C361.441 324.684 362.204 325 363 325C363.796 325 364.559 324.684 365.121 324.121C365.684 323.559 366 322.796 366 322C366 321.204 365.684 320.441 365.121 319.879C364.559 319.316 363.796 319 363 319Z" fill="#EE3E54"/>
<defs>
<filter id="filter0_ddd_1009_24021" x="58" y="191" width="82" height="82" filterUnits="userSpaceOnUse" color-interpolation-filters="sRGB">
<feFlood flood-opacity="0" result="BackgroundImageFix"/>
<feColorMatrix in="SourceAlpha" type="matrix" values="0 0 0 0 0 0 0 0 0 0 0 0 0 0 0 0 0 0 127 0" result="hardAlpha"/>
<feMorphology radius="1" operator="dilate" in="SourceAlpha" result="effect1_dropShadow_1009_24021"/>
<feOffset dy="2"/>
<feGaussianBlur stdDeviation="7.5"/>
<feColorMatrix type="matrix" values="0 0 0 0 0.564706 0 0 0 0 0.643137 0 0 0 0 0.682353 0 0 0 0.11 0"/>
<feBlend mode="normal" in2="BackgroundImageFix" result="effect1_dropShadow_1009_24021"/>
<feColorMatrix in="SourceAlpha" type="matrix" values="0 0 0 0 0 0 0 0 0 0 0 0 0 0 0 0 0 0 127 0" result="hardAlpha"/>
<feMorphology radius="1" operator="dilate" in="SourceAlpha" result="effect2_dropShadow_1009_24021"/>
<feOffset dy="7"/>
<feGaussianBlur stdDeviation="5"/>
<feColorMatrix type="matrix" values="0 0 0 0 0.564706 0 0 0 0 0.643137 0 0 0 0 0.682353 0 0 0 0.14 0"/>
<feBlend mode="normal" in2="effect1_dropShadow_1009_24021" result="effect2_dropShadow_1009_24021"/>
<feColorMatrix in="SourceAlpha" type="matrix" values="0 0 0 0 0 0 0 0 0 0 0 0 0 0 0 0 0 0 127 0" result="hardAlpha"/>
<feMorphology radius="2" operator="erode" in="SourceAlpha" result="effect3_dropShadow_1009_24021"/>
<feOffset dy="4"/>
<feGaussianBlur stdDeviation="2.5"/>
<feColorMatrix type="matrix" values="0 0 0 0 0.564706 0 0 0 0 0.643137 0 0 0 0 0.682353 0 0 0 0.25 0"/>
<feBlend mode="normal" in2="effect2_dropShadow_1009_24021" result="effect3_dropShadow_1009_24021"/>
<feBlend mode="normal" in="SourceGraphic" in2="effect3_dropShadow_1009_24021" result="shape"/>
</filter>
<filter id="filter1_ddd_1009_24021" x="897" y="409" width="82" height="82" filterUnits="userSpaceOnUse" color-interpolation-filters="sRGB">
<feFlood flood-opacity="0" result="BackgroundImageFix"/>
<feColorMatrix in="SourceAlpha" type="matrix" values="0 0 0 0 0 0 0 0 0 0 0 0 0 0 0 0 0 0 127 0" result="hardAlpha"/>
<feMorphology radius="1" operator="dilate" in="SourceAlpha" result="effect1_dropShadow_1009_24021"/>
<feOffset dy="2"/>
<feGaussianBlur stdDeviation="7.5"/>
<feColorMatrix type="matrix" values="0 0 0 0 0.564706 0 0 0 0 0.643137 0 0 0 0 0.682353 0 0 0 0.11 0"/>
<feBlend mode="normal" in2="BackgroundImageFix" result="effect1_dropShadow_1009_24021"/>
<feColorMatrix in="SourceAlpha" type="matrix" values="0 0 0 0 0 0 0 0 0 0 0 0 0 0 0 0 0 0 127 0" result="hardAlpha"/>
<feMorphology radius="1" operator="dilate" in="SourceAlpha" result="effect2_dropShadow_1009_24021"/>
<feOffset dy="7"/>
<feGaussianBlur stdDeviation="5"/>
<feColorMatrix type="matrix" values="0 0 0 0 0.564706 0 0 0 0 0.643137 0 0 0 0 0.682353 0 0 0 0.14 0"/>
<feBlend mode="normal" in2="effect1_dropShadow_1009_24021" result="effect2_dropShadow_1009_24021"/>
<feColorMatrix in="SourceAlpha" type="matrix" values="0 0 0 0 0 0 0 0 0 0 0 0 0 0 0 0 0 0 127 0" result="hardAlpha"/>
<feMorphology radius="2" operator="erode" in="SourceAlpha" result="effect3_dropShadow_1009_24021"/>
<feOffset dy="4"/>
<feGaussianBlur stdDeviation="2.5"/>
<feColorMatrix type="matrix" values="0 0 0 0 0.564706 0 0 0 0 0.643137 0 0 0 0 0.682353 0 0 0 0.25 0"/>
<feBlend mode="normal" in2="effect2_dropShadow_1009_24021" result="effect3_dropShadow_1009_24021"/>
<feBlend mode="normal" in="SourceGraphic" in2="effect3_dropShadow_1009_24021" result="shape"/>
</filter>
<filter id="filter2_ddd_1009_24021" x="649" y="20" width="82" height="82" filterUnits="userSpaceOnUse" color-interpolation-filters="sRGB">
<feFlood flood-opacity="0" result="BackgroundImageFix"/>
<feColorMatrix in="SourceAlpha" type="matrix" values="0 0 0 0 0 0 0 0 0 0 0 0 0 0 0 0 0 0 127 0" result="hardAlpha"/>
<feMorphology radius="1" operator="dilate" in="SourceAlpha" result="effect1_dropShadow_1009_24021"/>
<feOffset dy="2"/>
<feGaussianBlur stdDeviation="7.5"/>
<feColorMatrix type="matrix" values="0 0 0 0 0.564706 0 0 0 0 0.643137 0 0 0 0 0.682353 0 0 0 0.11 0"/>
<feBlend mode="normal" in2="BackgroundImageFix" result="effect1_dropShadow_1009_24021"/>
<feColorMatrix in="SourceAlpha" type="matrix" values="0 0 0 0 0 0 0 0 0 0 0 0 0 0 0 0 0 0 127 0" result="hardAlpha"/>
<feMorphology radius="1" operator="dilate" in="SourceAlpha" result="effect2_dropShadow_1009_24021"/>
<feOffset dy="7"/>
<feGaussianBlur stdDeviation="5"/>
<feColorMatrix type="matrix" values="0 0 0 0 0.564706 0 0 0 0 0.643137 0 0 0 0 0.682353 0 0 0 0.14 0"/>
<feBlend mode="normal" in2="effect1_dropShadow_1009_24021" result="effect2_dropShadow_1009_24021"/>
<feColorMatrix in="SourceAlpha" type="matrix" values="0 0 0 0 0 0 0 0 0 0 0 0 0 0 0 0 0 0 127 0" result="hardAlpha"/>
<feMorphology radius="2" operator="erode" in="SourceAlpha" result="effect3_dropShadow_1009_24021"/>
<feOffset dy="4"/>
<feGaussianBlur stdDeviation="2.5"/>
<feColorMatrix type="matrix" values="0 0 0 0 0.564706 0 0 0 0 0.643137 0 0 0 0 0.682353 0 0 0 0.25 0"/>
<feBlend mode="normal" in2="effect2_dropShadow_1009_24021" result="effect3_dropShadow_1009_24021"/>
<feBlend mode="normal" in="SourceGraphic" in2="effect3_dropShadow_1009_24021" result="shape"/>
</filter>
<filter id="filter3_ddd_1009_24021" x="231" y="392" width="82" height="82" filterUnits="userSpaceOnUse" color-interpolation-filters="sRGB">
<feFlood flood-opacity="0" result="BackgroundImageFix"/>
<feColorMatrix in="SourceAlpha" type="matrix" values="0 0 0 0 0 0 0 0 0 0 0 0 0 0 0 0 0 0 127 0" result="hardAlpha"/>
<feMorphology radius="1" operator="dilate" in="SourceAlpha" result="effect1_dropShadow_1009_24021"/>
<feOffset dy="2"/>
<feGaussianBlur stdDeviation="7.5"/>
<feColorMatrix type="matrix" values="0 0 0 0 0.564706 0 0 0 0 0.643137 0 0 0 0 0.682353 0 0 0 0.11 0"/>
<feBlend mode="normal" in2="BackgroundImageFix" result="effect1_dropShadow_1009_24021"/>
<feColorMatrix in="SourceAlpha" type="matrix" values="0 0 0 0 0 0 0 0 0 0 0 0 0 0 0 0 0 0 127 0" result="hardAlpha"/>
<feMorphology radius="1" operator="dilate" in="SourceAlpha" result="effect2_dropShadow_1009_24021"/>
<feOffset dy="7"/>
<feGaussianBlur stdDeviation="5"/>
<feColorMatrix type="matrix" values="0 0 0 0 0.564706 0 0 0 0 0.643137 0 0 0 0 0.682353 0 0 0 0.14 0"/>
<feBlend mode="normal" in2="effect1_dropShadow_1009_24021" result="effect2_dropShadow_1009_24021"/>
<feColorMatrix in="SourceAlpha" type="matrix" values="0 0 0 0 0 0 0 0 0 0 0 0 0 0 0 0 0 0 127 0" result="hardAlpha"/>
<feMorphology radius="2" operator="erode" in="SourceAlpha" result="effect3_dropShadow_1009_24021"/>
<feOffset dy="4"/>
<feGaussianBlur stdDeviation="2.5"/>
<feColorMatrix type="matrix" values="0 0 0 0 0.564706 0 0 0 0 0.643137 0 0 0 0 0.682353 0 0 0 0.25 0"/>
<feBlend mode="normal" in2="effect2_dropShadow_1009_24021" result="effect3_dropShadow_1009_24021"/>
<feBlend mode="normal" in="SourceGraphic" in2="effect3_dropShadow_1009_24021" result="shape"/>
</filter>
<filter id="filter4_ddd_1009_24021" x="259" y="-5" width="82" height="82" filterUnits="userSpaceOnUse" color-interpolation-filters="sRGB">
<feFlood flood-opacity="0" result="BackgroundImageFix"/>
<feColorMatrix in="SourceAlpha" type="matrix" values="0 0 0 0 0 0 0 0 0 0 0 0 0 0 0 0 0 0 127 0" result="hardAlpha"/>
<feMorphology radius="1" operator="dilate" in="SourceAlpha" result="effect1_dropShadow_1009_24021"/>
<feOffset dy="2"/>
<feGaussianBlur stdDeviation="7.5"/>
<feColorMatrix type="matrix" values="0 0 0 0 0.564706 0 0 0 0 0.643137 0 0 0 0 0.682353 0 0 0 0.11 0"/>
<feBlend mode="normal" in2="BackgroundImageFix" result="effect1_dropShadow_1009_24021"/>
<feColorMatrix in="SourceAlpha" type="matrix" values="0 0 0 0 0 0 0 0 0 0 0 0 0 0 0 0 0 0 127 0" result="hardAlpha"/>
<feMorphology radius="1" operator="dilate" in="SourceAlpha" result="effect2_dropShadow_1009_24021"/>
<feOffset dy="7"/>
<feGaussianBlur stdDeviation="5"/>
<feColorMatrix type="matrix" values="0 0 0 0 0.564706 0 0 0 0 0.643137 0 0 0 0 0.682353 0 0 0 0.14 0"/>
<feBlend mode="normal" in2="effect1_dropShadow_1009_24021" result="effect2_dropShadow_1009_24021"/>
<feColorMatrix in="SourceAlpha" type="matrix" values="0 0 0 0 0 0 0 0 0 0 0 0 0 0 0 0 0 0 127 0" result="hardAlpha"/>
<feMorphology radius="2" operator="erode" in="SourceAlpha" result="effect3_dropShadow_1009_24021"/>
<feOffset dy="4"/>
<feGaussianBlur stdDeviation="2.5"/>
<feColorMatrix type="matrix" values="0 0 0 0 0.564706 0 0 0 0 0.643137 0 0 0 0 0.682353 0 0 0 0.25 0"/>
<feBlend mode="normal" in2="effect2_dropShadow_1009_24021" result="effect3_dropShadow_1009_24021"/>
<feBlend mode="normal" in="SourceGraphic" in2="effect3_dropShadow_1009_24021" result="shape"/>
</filter>
<filter id="filter5_ddd_1009_24021" x="1029" y="55" width="82" height="82" filterUnits="userSpaceOnUse" color-interpolation-filters="sRGB">
<feFlood flood-opacity="0" result="BackgroundImageFix"/>
<feColorMatrix in="SourceAlpha" type="matrix" values="0 0 0 0 0 0 0 0 0 0 0 0 0 0 0 0 0 0 127 0" result="hardAlpha"/>
<feMorphology radius="1" operator="dilate" in="SourceAlpha" result="effect1_dropShadow_1009_24021"/>
<feOffset dy="2"/>
<feGaussianBlur stdDeviation="7.5"/>
<feColorMatrix type="matrix" values="0 0 0 0 0.564706 0 0 0 0 0.643137 0 0 0 0 0.682353 0 0 0 0.11 0"/>
<feBlend mode="normal" in2="BackgroundImageFix" result="effect1_dropShadow_1009_24021"/>
<feColorMatrix in="SourceAlpha" type="matrix" values="0 0 0 0 0 0 0 0 0 0 0 0 0 0 0 0 0 0 127 0" result="hardAlpha"/>
<feMorphology radius="1" operator="dilate" in="SourceAlpha" result="effect2_dropShadow_1009_24021"/>
<feOffset dy="7"/>
<feGaussianBlur stdDeviation="5"/>
<feColorMatrix type="matrix" values="0 0 0 0 0.564706 0 0 0 0 0.643137 0 0 0 0 0.682353 0 0 0 0.14 0"/>
<feBlend mode="normal" in2="effect1_dropShadow_1009_24021" result="effect2_dropShadow_1009_24021"/>
<feColorMatrix in="SourceAlpha" type="matrix" values="0 0 0 0 0 0 0 0 0 0 0 0 0 0 0 0 0 0 127 0" result="hardAlpha"/>
<feMorphology radius="2" operator="erode" in="SourceAlpha" result="effect3_dropShadow_1009_24021"/>
<feOffset dy="4"/>
<feGaussianBlur stdDeviation="2.5"/>
<feColorMatrix type="matrix" values="0 0 0 0 0.564706 0 0 0 0 0.643137 0 0 0 0 0.682353 0 0 0 0.25 0"/>
<feBlend mode="normal" in2="effect2_dropShadow_1009_24021" result="effect3_dropShadow_1009_24021"/>
<feBlend mode="normal" in="SourceGraphic" in2="effect3_dropShadow_1009_24021" result="shape"/>
</filter>
</defs>
</svg>
