<svg width="14" height="18" viewBox="0 0 14 18" fill="none" xmlns="http://www.w3.org/2000/svg">
<path fill-rule="evenodd" clip-rule="evenodd" d="M1.847 12.6729C1.847 14.1004 2.36328 15.2204 3.39583 16.0329C4.42839 16.8455 5.85273 17.2517 7.66886 17.2517C9.48499 17.2517 10.9716 16.9699 12.1286 16.4062V13.9247C11.3963 14.2687 10.6201 14.5396 9.79988 14.7372C8.97237 14.9349 8.20345 15.0337 7.49311 15.0337C6.45323 15.0337 5.68796 14.8361 5.19732 14.4408C4.69935 14.0455 4.45036 13.5148 4.45036 12.8486C4.45036 12.6737 4.46964 12.5066 4.50819 12.3472H13.8715V10.4732H6.50136C6.90849 10.2738 7.3892 10.0628 7.94348 9.84001C8.88006 9.46084 9.63997 9.04725 10.2232 8.59923H13.8715V6.72525H11.6553C11.8464 6.22026 11.9419 5.66636 11.9419 5.06356C11.9419 3.72396 11.4659 2.66985 10.5139 1.90123C9.56188 1.1326 8.284 0.748291 6.68024 0.748291C5.14239 0.748291 3.61187 1.08502 2.08866 1.75848L2.92349 3.89965C4.3515 3.29939 5.62572 2.99926 6.74615 2.99926C7.59563 2.99926 8.24006 3.18593 8.67945 3.55926C9.11883 3.92527 9.33853 4.41206 9.33853 5.01964C9.33853 5.43689 9.25065 5.79558 9.07489 6.09571C8.94407 6.31367 8.75035 6.52352 8.49374 6.72525H0.748535V8.59923H4.66341C4.15617 8.85851 3.74829 9.1074 3.43977 9.34589C2.99934 9.68636 2.65309 10.0621 2.40103 10.4732H0.748535V12.3472H1.85599C1.85 12.4535 1.847 12.5621 1.847 12.6729Z" fill="#607D8B"/>
</svg>
