<svg width="88" height="88" viewBox="0 0 88 88" fill="none" xmlns="http://www.w3.org/2000/svg">
<path d="M11.4399 23.76C10.9732 23.76 10.5255 23.9454 10.1954 24.2755C9.86536 24.6056 9.67993 25.0532 9.67993 25.52C9.67993 25.9868 9.86536 26.4345 10.1954 26.7645C10.5255 27.0946 10.9732 27.28 11.4399 27.28C11.9067 27.28 12.3544 27.0946 12.6844 26.7645C13.0145 26.4345 13.1999 25.9868 13.1999 25.52C13.1999 25.0532 13.0145 24.6056 12.6844 24.2755C12.3544 23.9454 11.9067 23.76 11.4399 23.76Z" fill="#9D9FCE"/>
<path d="M67.7599 10.56C67.5265 10.56 67.3027 10.6527 67.1376 10.8177C66.9726 10.9828 66.8799 11.2066 66.8799 11.44C66.8799 11.6734 66.9726 11.8972 67.1376 12.0623C67.3027 12.2273 67.5265 12.32 67.7599 12.32C67.9933 12.32 68.2171 12.2273 68.3821 12.0623C68.5472 11.8972 68.6399 11.6734 68.6399 11.44C68.6399 11.2066 68.5472 10.9828 68.3821 10.8177C68.2171 10.6527 67.9933 10.56 67.7599 10.56Z" fill="#F1BC19"/>
<path d="M43.9999 11.44C35.3645 11.44 27.0827 14.8704 20.9765 20.9766C14.8704 27.0828 11.4399 35.3646 11.4399 44C11.4399 52.6354 14.8704 60.9172 20.9765 67.0234C27.0827 73.1296 35.3645 76.56 43.9999 76.56C52.6354 76.56 60.9171 73.1296 67.0233 67.0234C73.1295 60.9172 76.5599 52.6354 76.5599 44C76.5599 35.3646 73.1295 27.0828 67.0233 20.9766C60.9171 14.8704 52.6354 11.44 43.9999 11.44Z" fill="#E4E4F9"/>
<path d="M73.04 9.67999C72.1065 9.67999 71.2111 10.0508 70.551 10.711C69.8909 11.3711 69.52 12.2664 69.52 13.2C69.52 14.1336 69.8909 15.0289 70.551 15.689C71.2111 16.3491 72.1065 16.72 73.04 16.72C73.9736 16.72 74.8689 16.3491 75.529 15.689C76.1892 15.0289 76.56 14.1336 76.56 13.2C76.56 12.2664 76.1892 11.3711 75.529 10.711C74.8689 10.0508 73.9736 9.67999 73.04 9.67999Z" fill="#F1BC19"/>
<path d="M76.56 19.36C76.0933 19.36 75.6456 19.5454 75.3155 19.8755C74.9855 20.2055 74.8 20.6532 74.8 21.12C74.8 21.5868 74.9855 22.0344 75.3155 22.3645C75.6456 22.6946 76.0933 22.88 76.56 22.88C77.0268 22.88 77.4745 22.6946 77.8046 22.3645C78.1346 22.0344 78.32 21.5868 78.32 21.12C78.32 20.6532 78.1346 20.2055 77.8046 19.8755C77.4745 19.5454 77.0268 19.36 76.56 19.36Z" fill="#9D9FCE"/>
<path d="M71.2799 65.12C70.8131 65.12 70.3655 65.3054 70.0354 65.6355C69.7054 65.9655 69.5199 66.4132 69.5199 66.88C69.5199 67.3468 69.7054 67.7944 70.0354 68.1245C70.3655 68.4546 70.8131 68.64 71.2799 68.64C71.7467 68.64 72.1944 68.4546 72.5244 68.1245C72.8545 67.7944 73.0399 67.3468 73.0399 66.88C73.0399 66.4132 72.8545 65.9655 72.5244 65.6355C72.1944 65.3054 71.7467 65.12 71.2799 65.12ZM13.1999 51.92C12.2664 51.92 11.371 52.2908 10.7109 52.951C10.0508 53.6111 9.67993 54.5064 9.67993 55.44C9.67993 56.3735 10.0508 57.2689 10.7109 57.929C11.371 58.5891 12.2664 58.96 13.1999 58.96C14.1335 58.96 15.0288 58.5891 15.6889 57.929C16.3491 57.2689 16.7199 56.3735 16.7199 55.44C16.7199 54.5064 16.3491 53.6111 15.6889 52.951C15.0288 52.2908 14.1335 51.92 13.1999 51.92Z" fill="#FBCD59"/>
<path d="M22 74.8C21.5332 74.8 21.0855 74.9854 20.7555 75.3155C20.4254 75.6455 20.24 76.0932 20.24 76.56C20.24 77.0268 20.4254 77.4744 20.7555 77.8045C21.0855 78.1346 21.5332 78.32 22 78.32C22.4668 78.32 22.9144 78.1346 23.2445 77.8045C23.5746 77.4744 23.76 77.0268 23.76 76.56C23.76 76.0932 23.5746 75.6455 23.2445 75.3155C22.9144 74.9854 22.4668 74.8 22 74.8Z" fill="#9D9FCE"/>
<path d="M16.2801 44.88C15.6966 44.88 15.137 45.1118 14.7244 45.5244C14.3119 45.9369 14.0801 46.4965 14.0801 47.08C14.0801 47.6635 14.3119 48.2231 14.7244 48.6356C15.137 49.0482 15.6966 49.28 16.2801 49.28C16.8636 49.28 17.4231 49.0482 17.8357 48.6356C18.2483 48.2231 18.4801 47.6635 18.4801 47.08C18.4801 46.4965 18.2483 45.9369 17.8357 45.5244C17.4231 45.1118 16.8636 44.88 16.2801 44.88Z" fill="white"/>
<path d="M18.4801 58.08C18.2467 58.08 18.0229 58.1727 17.8578 58.3378C17.6928 58.5028 17.6001 58.7266 17.6001 58.96C17.6001 59.1934 17.6928 59.4172 17.8578 59.5823C18.0229 59.7473 18.2467 59.84 18.4801 59.84C18.7135 59.84 18.9373 59.7473 19.1024 59.5823C19.2674 59.4172 19.3601 59.1934 19.3601 58.96C19.3601 58.7266 19.2674 58.5028 19.1024 58.3378C18.9373 58.1727 18.7135 58.08 18.4801 58.08Z" fill="#F1BC19"/>
<path d="M70.4 29.04C70.1666 29.04 69.9428 29.1327 69.7778 29.2978C69.6127 29.4628 69.52 29.6866 69.52 29.92C69.52 30.1534 69.6127 30.3772 69.7778 30.5423C69.9428 30.7073 70.1666 30.8 70.4 30.8C70.6334 30.8 70.8572 30.7073 71.0223 30.5423C71.1873 30.3772 71.28 30.1534 71.28 29.92C71.28 29.6866 71.1873 29.4628 71.0223 29.2978C70.8572 29.1327 70.6334 29.04 70.4 29.04Z" fill="white"/>
<path d="M57.1999 24.64C60.5967 24.64 63.3599 27.4032 63.3599 30.8V57.2C63.3599 60.5968 60.5967 63.36 57.1999 63.36H30.7999C27.4031 63.36 24.6399 60.5968 24.6399 57.2V30.8C24.6399 27.4032 27.4031 24.64 30.7999 24.64H57.1999Z" fill="#C0D078"/>
<path d="M57.2 24.992C60.4023 24.992 63.008 27.5977 63.008 30.8V57.2C63.008 60.4023 60.4023 63.008 57.2 63.008H30.8C27.5977 63.008 24.992 60.4023 24.992 57.2V30.8C24.992 27.5977 27.5977 24.992 30.8 24.992H57.2ZM57.2 23.76H30.8C26.9122 23.76 23.76 26.9122 23.76 30.8V57.2C23.76 61.0879 26.9122 64.24 30.8 64.24H57.2C61.0879 64.24 64.24 61.0879 64.24 57.2V30.8C64.24 26.9122 61.0879 23.76 57.2 23.76Z" fill="#472B29"/>
<path d="M55.44 60.72H32.56C29.6481 60.72 27.28 58.3519 27.28 55.44V32.56C27.28 29.6481 29.6481 27.28 32.56 27.28H55.44C58.352 27.28 60.72 29.6481 60.72 32.56V55.44C60.72 58.3519 58.352 60.72 55.44 60.72Z" fill="#FDFCEE"/>
<path d="M55.44 60.72H32.56C29.6481 60.72 27.28 58.3519 27.28 55.44V32.56C27.28 29.6481 29.6481 27.28 32.56 27.28H54.23C54.4122 27.28 54.56 27.4278 54.56 27.61C54.56 27.7922 54.4122 27.94 54.23 27.94H32.56C30.0124 27.94 27.94 30.0124 27.94 32.56V55.44C27.94 57.9876 30.0124 60.06 32.56 60.06H55.44C57.9876 60.06 60.06 57.9876 60.06 55.44V42.57C60.06 42.3878 60.2079 42.24 60.39 42.24C60.5722 42.24 60.72 42.3878 60.72 42.57V55.44C60.72 58.3519 58.352 60.72 55.44 60.72ZM60.39 36.96C60.2079 36.96 60.06 36.8122 60.06 36.63V35.5054C60.06 35.3232 60.2079 35.1754 60.39 35.1754C60.5722 35.1754 60.72 35.3232 60.72 35.5054V36.63C60.72 36.8122 60.5722 36.96 60.39 36.96Z" fill="#472B29"/>
<path d="M60.3901 41.36C60.2079 41.36 60.0601 41.2122 60.0601 41.03V38.17C60.0601 37.9879 60.2079 37.84 60.3901 37.84C60.5722 37.84 60.7201 37.9879 60.7201 38.17V41.03C60.7201 41.2122 60.5722 41.36 60.3901 41.36Z" fill="#472B29"/>
<path d="M47.5202 32.89C45.5072 32.89 43.5766 33.6896 42.1532 35.113C40.7298 36.5364 39.9302 38.467 39.9302 40.48C39.9302 42.493 40.7298 44.4235 42.1532 45.8469C43.5766 47.2703 45.5072 48.07 47.5202 48.07C49.5332 48.07 51.4637 47.2703 52.8871 45.8469C54.3105 44.4235 55.1102 42.493 55.1102 40.48C55.1102 38.467 54.3105 36.5364 52.8871 35.113C51.4637 33.6896 49.5332 32.89 47.5202 32.89Z" fill="#E1E0D8"/>
<path d="M47.5201 34.54C46.74 34.54 45.9676 34.6937 45.2469 34.9922C44.5263 35.2907 43.8714 35.7282 43.3199 36.2798C42.7683 36.8314 42.3307 37.4862 42.0322 38.2069C41.7337 38.9275 41.5801 39.7 41.5801 40.48C41.5801 41.2601 41.7337 42.0325 42.0322 42.7531C42.3307 43.4738 42.7683 44.1286 43.3199 44.6802C43.8714 45.2318 44.5263 45.6693 45.2469 45.9679C45.9676 46.2664 46.74 46.42 47.5201 46.42C48.3001 46.42 49.0725 46.2664 49.7932 45.9679C50.5139 45.6693 51.1687 45.2318 51.7203 44.6802C52.2719 44.1286 52.7094 43.4738 53.0079 42.7531C53.3064 42.0325 53.4601 41.2601 53.4601 40.48C53.4601 39.7 53.3064 38.9275 53.0079 38.2069C52.7094 37.4862 52.2719 36.8314 51.7203 36.2798C51.1687 35.7282 50.5139 35.2907 49.7932 34.9922C49.0725 34.6937 48.3001 34.54 47.5201 34.54Z" fill="#A8DBDB"/>
<path d="M40.5145 47.4857C39.8272 46.7984 38.7131 46.7984 38.0258 47.4857C37.5304 47.9811 33.9022 51.6094 33.4058 52.1057C32.7186 52.793 32.7186 53.907 33.4058 54.5943C34.0931 55.2816 35.2072 55.2816 35.8945 54.5943C36.3908 54.098 40.019 50.4698 40.5145 49.9743C41.2018 49.287 41.2018 48.173 40.5145 47.4857Z" fill="#88AE45"/>
<path d="M40.5143 49.9743C41.2016 49.287 41.2016 48.173 40.5143 47.4857C39.827 46.7984 38.7129 46.7984 38.0256 47.4857L40.5143 49.9743Z" fill="#D1DC82"/>
<path d="M47.5201 48.4C43.1535 48.4 39.6001 44.8466 39.6001 40.48C39.6001 36.1134 43.1535 32.56 47.5201 32.56C51.8867 32.56 55.4401 36.1134 55.4401 40.48C55.4401 44.8466 51.8867 48.4 47.5201 48.4ZM47.5201 33.22C43.517 33.22 40.2601 36.4769 40.2601 40.48C40.2601 44.4831 43.517 47.74 47.5201 47.74C51.5232 47.74 54.7801 44.4831 54.7801 40.48C54.7801 36.4769 51.5232 33.22 47.5201 33.22Z" fill="#472B29"/>
<path d="M47.5201 46.64C44.1233 46.64 41.3601 43.8768 41.3601 40.48C41.3601 37.0832 44.1233 34.32 47.5201 34.32C50.9169 34.32 53.6801 37.0832 53.6801 40.48C53.6801 43.8768 50.9169 46.64 47.5201 46.64ZM47.5201 34.76C44.3662 34.76 41.8001 37.3261 41.8001 40.48C41.8001 43.6339 44.3662 46.2 47.5201 46.2C50.674 46.2 53.2401 43.6339 53.2401 40.48C53.2401 37.3261 50.674 34.76 47.5201 34.76Z" fill="#472B29"/>
<path d="M40.3062 47.0705L41.8182 45.5584L42.4405 46.1806L40.9284 47.6927L40.3062 47.0705Z" fill="#472B29"/>
<path d="M34.6501 55.44C34.0921 55.44 33.5668 55.2226 33.1725 54.8275C32.7774 54.4333 32.5601 53.9079 32.5601 53.35C32.5601 52.7921 32.7774 52.2667 33.1725 51.8725L37.7925 47.2525C38.581 46.4631 39.9582 46.4631 40.7476 47.2525C41.1427 47.6476 41.3601 48.1721 41.3601 48.73C41.3601 49.2879 41.1427 49.8133 40.7476 50.2075L36.1276 54.8275C35.7333 55.2226 35.208 55.44 34.6501 55.44ZM39.2701 47.3C38.8881 47.3 38.5291 47.4487 38.2589 47.7189L33.6389 52.3389C33.3688 52.609 33.2201 52.9681 33.2201 53.35C33.2201 53.7319 33.3688 54.091 33.6389 54.3611C34.1793 54.9014 35.1209 54.9014 35.6612 54.3611L40.2812 49.7411C40.5513 49.471 40.7001 49.1119 40.7001 48.73C40.7001 48.3481 40.5513 47.989 40.2812 47.7189C40.011 47.4487 39.652 47.3 39.2701 47.3Z" fill="#472B29"/>
<path d="M37.8811 47.8082L38.3478 47.3415L40.7472 49.7409L40.2806 50.2076L37.8811 47.8082Z" fill="#472B29"/>
<path d="M35.64 52.8C35.5934 52.8 35.5494 52.7701 35.5353 52.7234L34.8753 50.6334C34.8568 50.5754 34.8894 50.5138 34.9475 50.4953C35.0073 50.4786 35.0672 50.5094 35.0856 50.5674L35.7456 52.6574C35.7641 52.7155 35.7316 52.7771 35.6735 52.7956C35.662 52.7982 35.6506 52.8 35.64 52.8ZM35.2 53.68C35.1534 53.68 35.1094 53.6501 35.0953 53.6034L34.2655 50.9758C34.247 50.9177 34.2796 50.8561 34.3376 50.8376C34.3975 50.82 34.4582 50.8517 34.4758 50.9098L35.3056 53.5374C35.3241 53.5955 35.2916 53.6571 35.2335 53.6756C35.222 53.6782 35.2106 53.68 35.2 53.68ZM34.9325 55.1074C34.8859 55.1074 34.8419 55.0774 34.8278 55.0308L33.7208 51.524C33.7023 51.4659 33.7348 51.4043 33.7929 51.3858C33.8536 51.3674 33.9126 51.4008 33.9311 51.458L35.0381 54.9648C35.0566 55.0229 35.024 55.0845 34.966 55.103C34.9545 55.1056 34.9431 55.1074 34.9325 55.1074ZM34.2505 55.22C34.2039 55.22 34.1599 55.1901 34.1458 55.1434L33.1646 52.0362C33.1461 51.9781 33.1787 51.9165 33.2368 51.898C33.2984 51.8813 33.3573 51.913 33.3749 51.9702L34.3561 55.0774C34.3746 55.1355 34.342 55.1971 34.284 55.2156C34.2725 55.2182 34.2611 55.22 34.2505 55.22Z" fill="#472B29"/>
</svg>
