<svg width="591" height="493" viewBox="0 0 591 493" fill="none" xmlns="http://www.w3.org/2000/svg">
<g clip-path="url(#clip0_2032_31622)">
<path d="M151.292 446.092H344.317" stroke="#FFCF2D" stroke-width="1.02" stroke-miterlimit="10" stroke-linecap="round"/>
<path d="M247.736 275.306V350.935C247.736 374.219 259.8 395.837 279.612 408.057L307.496 425.256" stroke="#66B0F0" stroke-width="1.02" stroke-miterlimit="10" stroke-linecap="round" stroke-linejoin="round"/>
<path d="M232.631 275.306V350.935C232.631 374.219 220.567 395.837 200.754 408.057L172.871 425.256" stroke="#66B0F0" stroke-width="1.02" stroke-miterlimit="10" stroke-linecap="round" stroke-linejoin="round"/>
<path d="M222.486 275.306H256.487C259.494 275.306 261.924 272.875 261.924 269.867V261.285H217.049V269.867C217.049 272.875 219.479 275.306 222.486 275.306Z" fill="white" stroke="#66B0F0" stroke-width="1.02" stroke-miterlimit="10"/>
<path d="M308.753 446.092C301.855 446.092 296.264 440.501 296.264 433.601C296.264 426.701 301.855 421.109 308.753 421.109C315.652 421.109 321.242 426.701 321.242 433.601C321.242 440.501 315.652 446.092 308.753 446.092Z" fill="white" stroke="#FFCF2D" stroke-width="1.02" stroke-miterlimit="10"/>
<path d="M172.599 446.092C165.7 446.092 160.11 440.501 160.11 433.601C160.11 426.701 165.7 421.109 172.599 421.109C179.498 421.109 185.088 426.701 185.088 433.601C185.088 440.501 179.498 446.092 172.599 446.092Z" fill="white" stroke="#FFCF2D" stroke-width="1.02" stroke-miterlimit="10"/>
<path d="M172.599 443.458C167.162 443.458 162.744 439.039 162.744 433.601C162.744 428.162 167.162 423.743 172.599 423.743C178.036 423.743 182.454 428.162 182.454 433.601C182.454 439.039 178.036 443.458 172.599 443.458Z" fill="white" stroke="#FFCF2D" stroke-width="1.02" stroke-miterlimit="10"/>
<path d="M308.702 443.458C303.265 443.458 298.847 439.039 298.847 433.601C298.847 428.162 303.265 423.743 308.702 423.743C314.139 423.743 318.557 428.162 318.557 433.601C318.557 439.039 314.139 443.458 308.702 443.458Z" fill="white" stroke="#FFCF2D" stroke-width="1.02" stroke-miterlimit="10"/>
<path d="M221.824 387.475C221.824 387.475 238 375.612 258.577 387.475" stroke="#66B0F0" stroke-width="1.02" stroke-miterlimit="10" stroke-linecap="round" stroke-linejoin="round"/>
<path d="M247.345 254.504L231.713 414.481H279.885L319.492 270.53C326.782 247.043 311.098 223.147 286.681 223.096H283.283C265.204 223.045 249.877 236.455 247.345 254.504Z" fill="#31A1A9"/>
<path d="M241.126 414.481H266.512L262.519 427.55C257.506 422.554 250.523 418.95 242.894 418.492C242.18 418.441 241.483 418.424 240.787 418.424L241.126 414.481Z" fill="#E58E72"/>
<path d="M270.25 445.99C271.576 433.686 258.594 419.443 242.877 418.475C227.159 417.506 217.457 427.89 216.692 440.229C216.574 442.098 216.404 444.376 216.811 446.041L270.25 445.99Z" fill="white" stroke="#FE5244" stroke-width="1.02" stroke-miterlimit="10"/>
<path d="M217.152 441.52L270.251 442.149" stroke="#FE5244" stroke-width="1.02" stroke-miterlimit="10"/>
<path d="M261.041 414.481L301.226 390.008L211.374 239.446C200.007 221.414 171.155 215.839 152.957 226.92C131.972 239.701 127.86 268.44 144.41 286.591L261.041 414.481Z" fill="#3FB1B5"/>
<path d="M261.211 413.801L301.566 389.668L211.544 239.446C200.177 221.414 171.325 215.839 153.127 226.92C132.142 239.701 128.03 268.44 144.58 286.591L261.211 413.801Z" stroke="white" stroke-width="1.02" stroke-miterlimit="10"/>
<path d="M300.597 388.937C298.813 385.98 288.363 388.988 277.251 395.684C266.138 402.363 258.611 410.419 260.395 413.376C262.179 416.333 272.595 413.087 283.708 406.408C294.803 399.729 302.364 391.911 300.597 388.937Z" fill="#9A3B82"/>
<path d="M298.15 408.074L279.392 419.868L274.09 413.92L272.476 412.102L265.747 404.556C268.636 401.598 272.595 398.471 277.268 395.684C281.04 393.424 284.761 391.622 288.125 390.398L293.376 399.627L294.531 401.649L298.15 408.074Z" fill="#E58E72"/>
<path d="M327.75 420.871L281.023 446.075C279.851 444.818 278.848 443.339 278.049 441.656C277.37 440.246 276.843 438.767 276.435 437.272C273.683 426.938 277.574 415.093 289.995 409.178C300.954 403.961 314.599 406.952 322.483 413.818C324.811 415.874 326.646 418.271 327.75 420.871Z" fill="white" stroke="#FE5244" stroke-width="1.02" stroke-miterlimit="10"/>
<path d="M325.252 417.047L278.508 442.251" stroke="#FE5244" stroke-width="1.02" stroke-miterlimit="10" stroke-linecap="round"/>
<path d="M293.342 399.61C290.657 401.853 287.361 404.199 283.674 406.408C279.731 408.787 275.857 410.725 272.442 412.102L265.374 404.556C268.262 401.598 272.561 398.471 277.234 395.684C281.006 393.424 284.727 391.452 288.091 390.228L293.342 399.61Z" fill="#9A3B82"/>
<path d="M299.561 386.32C297.777 383.362 286.494 386.303 275.195 393.101C263.895 399.899 256.725 407.87 258.509 410.827" stroke="white" stroke-width="1.02" stroke-miterlimit="10"/>
<path d="M455.986 261.284C460.421 261.284 464.023 257.681 464.023 253.245V222.484C464.023 218.048 460.421 214.445 455.986 214.445H9.03707C4.60224 214.445 1 218.048 1 222.484V253.245C1 257.681 4.60224 261.284 9.03707 261.284H455.986Z" fill="#9A3B82"/>
<path d="M455.849 207.477H9.15521C4.72039 207.477 1.11816 211.08 1.11816 215.516V246.277C1.11816 250.713 4.72039 254.316 9.15521 254.316H455.849C460.284 254.316 463.886 250.713 463.886 246.277V215.516C463.886 211.08 460.284 207.477 455.849 207.477Z" fill="white" stroke="#FFCF2D" stroke-width="1.02" stroke-miterlimit="10"/>
<path d="M432.588 254.35V446.16" stroke="#FFCF2D" stroke-width="1.02" stroke-miterlimit="10" stroke-linecap="round"/>
<path d="M42.6465 254.35V446.16" stroke="#FFCF2D" stroke-width="1.02" stroke-miterlimit="10" stroke-linecap="round"/>
<path d="M534.73 444.26L534.016 444.719L508.087 404.763L500.288 405.358C498.623 405.494 497.297 403.981 497.637 402.333C497.994 400.701 499.812 399.851 501.29 400.667L507.696 404.185L502.99 396.911L495.19 397.523C493.525 397.659 492.2 396.129 492.557 394.498C492.914 392.866 494.732 392.016 496.21 392.832L502.616 396.333L497.909 389.059L490.11 389.671C488.445 389.807 487.119 388.277 487.476 386.646C487.833 385.014 489.651 384.164 491.129 384.98L497.535 388.498L494.698 384.13L489.43 379.627C488.156 378.539 488.292 376.534 489.685 375.616C491.095 374.698 492.982 375.395 493.457 377.009L495.411 383.655L498.334 388.158L497.722 380.68C497.586 379.015 499.099 377.689 500.73 378.029C502.361 378.369 503.21 380.205 502.412 381.666L498.64 388.634L503.414 395.993L502.803 388.532C502.667 386.867 504.179 385.541 505.81 385.881C507.441 386.221 508.291 388.056 507.492 389.518L503.72 396.486L508.495 403.845L507.883 396.384C507.747 394.719 509.26 393.376 510.891 393.733C512.522 394.073 513.372 395.908 512.573 397.37L508.801 404.338L534.73 444.26Z" fill="#9A3B82"/>
<path d="M578.297 430.137C565.842 455.239 549.02 472.693 539.08 471.487C538.264 471.385 537.5 471.164 536.786 470.807C527.339 466.116 530.601 440.3 544.093 413.142C549.87 401.5 556.581 391.523 563.106 384.266C571.823 374.596 580.2 369.786 585.603 372.472C595.051 377.162 591.771 402.978 578.297 430.137Z" fill="#9A3B82"/>
<path d="M562.698 410.303C559.929 442.119 549.751 467.782 539.097 471.487C538.281 471.385 537.517 471.164 536.803 470.807C527.356 466.116 530.618 440.3 544.109 413.141C549.887 401.5 556.598 391.523 563.123 384.266C563.599 392.271 563.497 401.092 562.698 410.303Z" fill="#FFCF2D"/>
<path d="M585.603 372.472L539.097 471.487" stroke="#FFCF2D" stroke-width="1.02" stroke-miterlimit="10"/>
<path d="M584.719 445.892L578.144 448.101L573.76 451.177L581.202 450.293C582.867 450.089 584.244 451.551 583.972 453.2C583.683 454.848 581.899 455.766 580.387 455.018L573.284 451.5L566.097 456.548L573.539 455.664C575.204 455.46 576.58 456.922 576.309 458.57C576.02 460.219 574.236 461.136 572.723 460.389L565.621 456.871L558.45 461.918L565.893 461.034C567.558 460.83 568.934 462.292 568.645 463.941C568.356 465.589 566.572 466.507 565.06 465.759L557.958 462.241L544.823 471.47H543.345L557.499 461.527L556.615 453.76C556.428 452.095 557.89 450.718 559.538 451.007C561.186 451.296 562.087 453.098 561.339 454.593L558.059 461.136L565.145 456.157L564.261 448.39C564.075 446.724 565.536 445.348 567.184 445.637C568.832 445.926 569.733 447.727 568.985 449.223L565.723 455.749L572.808 450.769L571.925 443.002C571.738 441.337 573.199 439.96 574.847 440.249C576.495 440.538 577.396 442.34 576.648 443.835L573.369 450.378L577.634 447.387L581.933 441.949C582.969 440.64 584.991 440.691 585.943 442.068C586.945 443.444 586.317 445.365 584.719 445.892Z" fill="#FFCF2D"/>
<path d="M531.417 470.161C530.567 470.45 529.666 470.654 528.749 470.773C518.044 472.166 503.261 462.173 494.324 446.996C484.622 430.511 485.505 414.161 496.295 410.456C499.795 409.25 503.924 409.538 508.206 411.034C517.144 414.144 526.829 422.472 533.388 433.604C543.073 450.106 542.189 466.456 531.417 470.161Z" fill="white" stroke="#FFCF2D" stroke-width="1.02" stroke-miterlimit="10"/>
<path d="M531.417 470.161C530.567 470.45 529.666 470.654 528.749 470.773C518.86 466.286 510.262 447.286 508.444 424.206C508.087 419.651 508.019 415.232 508.206 411.035C517.144 414.145 526.829 422.472 533.388 433.604C543.073 450.107 542.189 466.456 531.417 470.161Z" fill="#FFCF2D"/>
<path d="M492.2 412.854L528.732 470.774" stroke="#FFCF2D" stroke-width="1.02" stroke-miterlimit="10"/>
<path d="M535.766 472.167C547.591 472.167 557.176 443.641 557.176 408.451C557.176 373.262 547.591 344.736 535.766 344.736C523.942 344.736 514.357 373.262 514.357 408.451C514.357 443.641 523.942 472.167 535.766 472.167Z" fill="white" stroke="#FFCF2D" stroke-width="1.02" stroke-miterlimit="10"/>
<path d="M535.767 344.718V472.167" stroke="#FFCF2D" stroke-width="1.02" stroke-miterlimit="10"/>
<path d="M549.411 359.997L535.767 378.284L524.195 355.374" stroke="#FFCF2D" stroke-width="1.02" stroke-miterlimit="10" stroke-linecap="round"/>
<path d="M553.846 375.497L535.63 400.548L519.25 368.852" stroke="#FFCF2D" stroke-width="1.02" stroke-miterlimit="10" stroke-linecap="round"/>
<path d="M556.684 393.376L535.461 422.642L516.074 385.252" stroke="#FFCF2D" stroke-width="1.02" stroke-miterlimit="10" stroke-linecap="round"/>
<path d="M558.009 417.238L535.563 448.645L514.408 408.502" stroke="#FFCF2D" stroke-width="1.02" stroke-miterlimit="10" stroke-linecap="round"/>
<path d="M567.507 492H503.975C499.082 492 495.105 488.023 495.105 483.128V480.358C495.105 475.464 499.082 471.487 503.975 471.487H567.507C572.401 471.487 576.377 475.464 576.377 480.358V483.128C576.377 488.04 572.401 492 567.507 492Z" fill="white" stroke="#66B0F0" stroke-width="1.02" stroke-miterlimit="10"/>
<path d="M420.235 78.2273H360.663C357.213 78.2273 354.427 75.4401 354.427 71.99V12.4043C354.427 8.95423 357.213 6.16699 360.663 6.16699H420.235C423.685 6.16699 426.471 8.95423 426.471 12.4043V71.99C426.471 75.4401 423.668 78.2273 420.235 78.2273Z" fill="#FFCF2D"/>
<path d="M415.886 74.233H355.14C351.691 74.233 348.905 71.4458 348.905 67.9958V7.2373C348.905 3.78724 351.691 1 355.14 1H415.886C419.335 1 422.122 3.78724 422.122 7.2373V67.9958C422.122 71.4458 419.335 74.233 415.886 74.233Z" fill="white" stroke="#FFCF2D" stroke-width="1.02" stroke-miterlimit="10"/>
<path d="M385.522 65.6506C401.006 65.6506 413.558 53.0956 413.558 37.6082C413.558 22.1209 401.006 9.56592 385.522 9.56592C370.038 9.56592 357.485 22.1209 357.485 37.6082C357.485 53.0956 370.038 65.6506 385.522 65.6506Z" stroke="#FFCF2D" stroke-width="1.02" stroke-miterlimit="10"/>
<path d="M369.753 25.5757L385.522 37.6084L381.648 25.7287" stroke="#FFCF2D" stroke-width="1.02" stroke-miterlimit="10" stroke-linecap="round"/>
<path d="M349.669 172.109L321.055 121.837C314.224 109.821 301.464 102.411 287.649 102.411H180.483L184.238 94.3047C183.932 94.9675 182.318 95.1374 179.854 94.7975C176.082 94.2877 170.339 92.6391 164.222 89.9198C160.722 88.3733 157.544 86.7587 154.91 85.2631C149.932 82.4249 146.924 79.9436 147.417 78.8389L92.704 168.591C80.6909 186.114 93.2307 209.924 114.47 209.924C117.325 209.924 120.146 209.465 122.83 208.564C125.515 207.664 128.047 206.338 130.324 204.622L172.344 173.027C174.876 171.124 178.495 172.602 179.005 175.712L184.493 209.924H327.665C347.086 209.941 359.269 188.969 349.669 172.109ZM285.984 176.035L290.572 165.6C291.354 163.816 293.868 163.782 294.684 165.549L299.663 176.052H285.984V176.035Z" fill="#FE5244"/>
<path d="M197.542 102.378C197.542 93.5912 215.673 82.7311 237.66 79.9609C270.641 75.831 277.777 93.5912 277.777 102.378" stroke="#FE5244" stroke-width="1.02" stroke-miterlimit="10"/>
<path d="M273.971 102.531C273.971 110.399 237.66 126.511 237.66 126.511C237.66 126.511 201.349 110.399 201.349 102.531C201.349 94.6617 218.612 85.5522 238.509 83.1219C267.14 79.6208 273.971 94.6447 273.971 102.531Z" fill="#FE5244"/>
<path d="M273.971 102.531C273.971 110.4 237.66 126.511 237.66 126.511C237.66 126.511 201.349 110.4 201.349 102.531C201.349 102.497 201.349 102.463 201.349 102.429H273.971C273.971 102.446 273.971 102.48 273.971 102.531Z" fill="white"/>
<path d="M277.76 102.361C277.76 111.045 237.66 130.794 237.66 130.794C237.66 130.794 197.56 111.062 197.56 102.361" stroke="white" stroke-width="1.02" stroke-miterlimit="10"/>
<path d="M268.602 209.55C270.845 209.55 272.663 202.124 272.663 192.98C272.663 183.836 270.845 176.41 268.602 176.41" stroke="white" stroke-width="0.85" stroke-miterlimit="10" stroke-linecap="round"/>
<path d="M183.405 97.636L151.954 160.536" stroke="white" stroke-width="0.85" stroke-miterlimit="10"/>
<path d="M176.575 159.091L181.774 193.32" stroke="white" stroke-width="0.85" stroke-miterlimit="10" stroke-linecap="round"/>
<path d="M235.961 134.822H239.359" stroke="white" stroke-width="0.85" stroke-miterlimit="10" stroke-linecap="round"/>
<path d="M235.961 138.867H239.359" stroke="white" stroke-width="0.85" stroke-miterlimit="10" stroke-linecap="round"/>
<path d="M235.961 142.895H239.359" stroke="white" stroke-width="0.85" stroke-miterlimit="10" stroke-linecap="round"/>
<path d="M235.961 146.923H239.359" stroke="white" stroke-width="0.85" stroke-miterlimit="10" stroke-linecap="round"/>
<path d="M235.961 150.95H239.359" stroke="white" stroke-width="0.85" stroke-miterlimit="10" stroke-linecap="round"/>
<path d="M235.961 154.995H239.359" stroke="white" stroke-width="0.85" stroke-miterlimit="10" stroke-linecap="round"/>
<path d="M235.961 155.182H239.359" stroke="white" stroke-width="0.85" stroke-miterlimit="10" stroke-linecap="round"/>
<path d="M235.961 159.21H239.359" stroke="white" stroke-width="0.85" stroke-miterlimit="10" stroke-linecap="round"/>
<path d="M235.961 163.238H239.359" stroke="white" stroke-width="0.85" stroke-miterlimit="10" stroke-linecap="round"/>
<path d="M235.961 167.079H239.359" stroke="white" stroke-width="0.85" stroke-miterlimit="10" stroke-linecap="round"/>
<path d="M235.961 171.124H239.359" stroke="white" stroke-width="0.85" stroke-miterlimit="10" stroke-linecap="round"/>
<path d="M235.961 175.152H239.359" stroke="white" stroke-width="0.85" stroke-miterlimit="10" stroke-linecap="round"/>
<path d="M235.961 179.18H239.359" stroke="white" stroke-width="0.85" stroke-miterlimit="10" stroke-linecap="round"/>
<path d="M235.961 183.208H239.359" stroke="white" stroke-width="0.85" stroke-miterlimit="10" stroke-linecap="round"/>
<path d="M235.961 187.253H239.359" stroke="white" stroke-width="0.85" stroke-miterlimit="10" stroke-linecap="round"/>
<path d="M235.961 191.28H239.359" stroke="white" stroke-width="0.85" stroke-miterlimit="10" stroke-linecap="round"/>
<path d="M235.961 195.308H239.359" stroke="white" stroke-width="0.85" stroke-miterlimit="10" stroke-linecap="round"/>
<path d="M235.961 199.336H239.359" stroke="white" stroke-width="0.85" stroke-miterlimit="10" stroke-linecap="round"/>
<path d="M235.961 199.54H239.359" stroke="white" stroke-width="0.85" stroke-miterlimit="10" stroke-linecap="round"/>
<path d="M235.961 203.568H239.359" stroke="white" stroke-width="0.85" stroke-miterlimit="10" stroke-linecap="round"/>
<path d="M235.961 207.596H239.359" stroke="white" stroke-width="0.85" stroke-miterlimit="10" stroke-linecap="round"/>
<path d="M235.604 129.332V193.32" stroke="white" stroke-width="0.85" stroke-miterlimit="10"/>
<path d="M266.631 176.376H307.496" stroke="white" stroke-width="0.85" stroke-miterlimit="10" stroke-linecap="round"/>
<path d="M258.475 102.411C258.475 102.411 246.309 108.751 229.419 106.201C225.222 105.573 220.719 104.383 216.063 102.411V81.9491L237.949 68.3188L241.228 73.7743L258.475 102.411Z" fill="#E58E72"/>
<path d="M239.155 69.9331C240.464 72.3634 240.684 75.2526 239.733 77.8529L229.419 106.201C225.222 105.572 220.719 104.383 216.063 102.411V81.9488L238.051 67.8936L239.155 69.9331Z" fill="#9A3B82"/>
<path d="M237.269 60.7726C237.269 60.7726 239.835 37.9478 230.71 35.8574C223.744 34.2598 220.277 39.5114 220.277 39.5114C220.277 39.5114 216.505 34.0049 210.66 36.5882C205.104 39.0355 205.495 46.6665 207.992 46.0546C210.49 45.4428 205.58 40.5481 200.329 44.1681C194.518 48.1621 200.329 54.7563 200.329 54.7563C200.329 54.7563 196.03 52.6828 194.042 56.9147C191.578 62.1662 205.648 73.4852 205.648 73.4852L237.269 60.7726Z" fill="#9A3B82"/>
<path d="M223.371 49.7427L208.775 55.6061C205.257 57.0167 203.541 61.0446 204.952 64.5456L211.323 80.4363C213.668 86.2997 220.397 89.1549 226.242 86.8096L232.308 84.3792C238.17 82.0339 241.025 75.3037 238.68 69.4573L232.308 53.5666C230.898 50.0486 226.871 48.3321 223.371 49.7427Z" fill="#E58E72"/>
<path d="M241.619 68.2677L238.679 69.4574L235.485 61.5037L238.424 60.3139C240.175 59.6171 242.146 60.467 242.842 62.2005L243.505 63.8489C244.219 65.5825 243.369 67.5539 241.619 68.2677Z" fill="#E58E72"/>
<path d="M208.162 81.0482L211.102 79.8586L208.128 72.4656L205.189 73.6553C203.439 74.3521 202.606 76.3405 203.303 78.0741L203.744 79.1618C204.441 80.8953 206.412 81.7451 208.162 81.0482Z" fill="#9A3B82"/>
<path d="M238.034 65.7201C237.49 64.3431 238.153 62.7961 239.53 62.2351" stroke="#9A3B82" stroke-width="0.85" stroke-miterlimit="10" stroke-linecap="round"/>
<path d="M223.744 58.3599C223.744 58.3599 227.193 59.6519 231.577 57.5779" stroke="#9A3B82" stroke-width="0.85" stroke-miterlimit="10" stroke-linecap="round"/>
<path d="M216.454 64.172C216.454 64.172 221.603 63.6451 223.472 72.3128" stroke="#9A3B82" stroke-width="0.85" stroke-miterlimit="10" stroke-linecap="round"/>
<path d="M231.067 75.1342C231.067 75.1342 223.472 73.0942 223.744 77.0212" stroke="#9A3B82" stroke-width="0.85" stroke-miterlimit="10" stroke-linecap="round"/>
<path d="M230.006 67.0964C230.368 66.9678 230.406 66.139 230.089 65.2451C229.773 64.3513 229.222 63.7309 228.859 63.8594C228.496 63.988 228.459 64.8168 228.775 65.7107C229.092 66.6045 229.643 67.2249 230.006 67.0964Z" fill="#9A3B82"/>
<path d="M215.991 72.9448C216.354 72.8163 216.391 71.9876 216.074 71.0938C215.758 70.2 215.207 69.5795 214.844 69.708C214.481 69.8365 214.444 70.6653 214.76 71.5591C215.077 72.4529 215.628 73.0733 215.991 72.9448Z" fill="#9A3B82"/>
<path d="M229.844 70.358C232.556 70.358 234.754 68.159 234.754 65.4463C234.754 62.7337 232.556 60.5347 229.844 60.5347C227.132 60.5347 224.933 62.7337 224.933 65.4463C224.933 68.159 227.132 70.358 229.844 70.358Z" stroke="#FFCF2D" stroke-width="0.85" stroke-miterlimit="10" stroke-linecap="round"/>
<path d="M215.401 75.9665C218.113 75.9665 220.311 73.7674 220.311 71.0548C220.311 68.3421 218.113 66.1431 215.401 66.1431C212.689 66.1431 210.49 68.3421 210.49 71.0548C210.49 73.7674 212.689 75.9665 215.401 75.9665Z" stroke="#FFCF2D" stroke-width="0.85" stroke-miterlimit="10" stroke-linecap="round"/>
<path d="M219.989 69.288L225.171 66.908" stroke="#FFCF2D" stroke-width="0.85" stroke-miterlimit="10" stroke-linecap="round"/>
<path d="M185.258 92.4354C184.969 93.0982 183.338 93.2682 180.874 92.9283C177.102 92.4184 171.358 90.7699 165.241 88.0506C161.741 86.487 158.564 84.8895 155.947 83.3939C150.968 80.5556 147.961 78.0742 148.454 76.9695C148.946 75.8818 152.77 76.4088 158.173 78.1593C161.078 79.094 164.426 80.3857 167.96 81.9663C174.009 84.6515 179.26 87.2688 182.352 89.2913C184.459 90.6509 185.564 91.7556 185.258 92.4354Z" fill="white" stroke="#FE5244" stroke-width="1.02" stroke-miterlimit="10"/>
<path d="M214.092 57.9689L209.471 75.831L205.308 65.4639C203.711 61.4869 205.631 56.9322 209.556 55.2666L214.092 57.9689Z" fill="#9A3B82"/>
<path d="M214.262 57.6459L205.087 73.5536C204.034 75.3891 202.062 76.5277 199.939 76.5277H190.457C189.064 76.5277 187.823 77.3775 187.297 78.6522L182.369 89.3083L180.925 92.4184C176.762 91.8576 170.968 90.0561 165.428 87.5917C163.355 86.674 161.333 85.7052 159.464 84.7365L161.962 79.5189L166.431 70.1885C168.572 65.1408 172.259 60.892 176.966 58.0708L186.209 52.5133C187.433 51.7825 188.843 51.3916 190.27 51.3916H205.971C206.837 51.3916 207.687 51.5785 208.451 51.9524L213.175 54.1958C214.483 54.8247 214.976 56.4052 214.262 57.6459Z" fill="#E58E72"/>
<path d="M192.071 58.1558H203.286C204.118 58.1558 204.934 58.3427 205.682 58.6996L210.218 60.8751C211.459 61.4699 211.935 62.9995 211.255 64.1892" stroke="#9A3B82" stroke-width="0.85" stroke-miterlimit="10" stroke-linecap="round"/>
<path d="M189.285 62.9824H200.499C201.332 62.9824 202.147 63.1693 202.895 63.5262L207.432 65.7016C208.672 66.2965 209.148 67.826 208.468 69.0157" stroke="#9A3B82" stroke-width="0.85" stroke-miterlimit="10" stroke-linecap="round"/>
<path d="M186.005 69.2876H197.22C198.052 69.2876 198.868 69.4746 199.616 69.8315L204.152 72.0069C205.393 72.6017 205.869 74.1313 205.189 75.321" stroke="#9A3B82" stroke-width="0.85" stroke-miterlimit="10" stroke-linecap="round"/>
<path d="M180.942 92.4184C176.779 91.8575 170.985 90.056 165.445 87.5917C163.372 86.674 161.35 85.7052 159.481 84.7365L162.302 78.9751C164.188 79.6889 166.04 80.5046 168.113 81.4394C174.162 84.1247 179.446 86.9289 182.539 88.9513L180.942 92.4184Z" fill="#9A3B82"/>
<path d="M182.692 76.0688H190.644" stroke="#9A3B82" stroke-width="0.85" stroke-miterlimit="10" stroke-linecap="round"/>
<path d="M266.563 209.924C268.806 209.924 270.624 202.338 270.624 192.98C270.624 183.622 268.806 176.035 266.563 176.035C264.32 176.035 262.502 183.622 262.502 192.98C262.502 202.338 264.32 209.924 266.563 209.924Z" fill="white"/>
<path d="M270.624 192.98C270.624 195.886 270.454 198.622 270.131 201.019C269.078 203.704 266.92 205.828 264.201 206.831C263.097 207.239 261.89 207.477 260.633 207.477H245.221C243.284 207.477 241.704 209.057 241.704 210.995V211.471C241.704 214.309 238.68 216.144 236.165 214.819L228.926 211.029C227.635 210.349 226.819 209.006 226.819 207.545V201.885C226.819 199.761 227.822 197.772 229.504 196.498L240.549 188.187C242.418 186.776 244.695 186.029 247.022 186.029H270.25C270.505 188.153 270.624 190.498 270.624 192.98Z" fill="#E58E72"/>
<path d="M243.335 191.501L233.191 199.132C231.645 200.305 230.727 202.14 230.727 204.078V209.278C230.727 210.621 231.475 211.862 232.664 212.473" stroke="#9A3B82" stroke-width="0.85" stroke-miterlimit="10" stroke-linecap="round"/>
<path d="M248.501 193.778L238.357 201.409C236.81 202.582 235.893 204.418 235.893 206.355V211.556C235.893 212.898 236.64 214.139 237.83 214.751" stroke="#9A3B82" stroke-width="0.85" stroke-miterlimit="10" stroke-linecap="round"/>
<path d="M270.624 192.98C270.624 195.886 270.454 198.622 270.131 201.019C269.078 203.704 266.92 205.828 264.201 206.831C263.165 203.755 262.485 198.707 262.485 192.98C262.485 190.498 262.621 188.153 262.842 186.029H270.267C270.505 188.153 270.624 190.498 270.624 192.98Z" fill="#9A3B82"/>
<path d="M318.928 232.736C329.101 232.736 337.347 232.043 337.347 231.189C337.347 230.334 329.101 229.642 318.928 229.642C308.756 229.642 300.509 230.334 300.509 231.189C300.509 232.043 308.756 232.736 318.928 232.736Z" fill="#FFCF2D"/>
<path d="M334.255 232.361H326.643C319.574 232.361 313.865 226.633 313.865 219.58V208.72H347.049V219.563C347.049 226.633 341.323 232.361 334.255 232.361Z" fill="white" stroke="#FFCF2D" stroke-width="1.02" stroke-miterlimit="10"/>
<path d="M351.688 218.017H347.032V209.74H351.688C353.676 209.74 355.307 211.354 355.307 213.36V214.414C355.307 216.402 353.676 218.017 351.688 218.017Z" stroke="#FFCF2D" stroke-width="1.02" stroke-miterlimit="10"/>
<path d="M330.449 211.949C339.692 211.949 347.185 210.45 347.185 208.601C347.185 206.752 339.692 205.253 330.449 205.253C321.205 205.253 313.712 206.752 313.712 208.601C313.712 210.45 321.205 211.949 330.449 211.949Z" fill="#3FB1B5" stroke="white" stroke-width="0.85" stroke-miterlimit="10"/>
<path d="M313.882 211.321C313.882 213.174 321.307 214.67 330.448 214.67C339.59 214.67 347.015 213.174 347.015 211.321" stroke="#FFCF2D" stroke-width="1.02" stroke-miterlimit="10"/>
<path d="M313.882 214.873C313.882 216.726 321.307 218.223 330.448 218.223C339.59 218.223 347.015 216.726 347.015 214.873" stroke="#FFCF2D" stroke-width="1.02" stroke-miterlimit="10"/>
<path d="M313.882 218.425C313.882 220.278 321.307 221.774 330.448 221.774C339.59 221.774 347.015 220.278 347.015 218.425" stroke="#FFCF2D" stroke-width="1.02" stroke-miterlimit="10"/>
<path d="M314.137 221.977C314.137 223.83 321.443 225.326 330.449 225.326C339.454 225.326 346.761 223.83 346.761 221.977" stroke="#FFCF2D" stroke-width="1.02" stroke-miterlimit="10"/>
<path d="M315.412 225.529C315.412 227.382 322.14 228.878 330.449 228.878C338.758 228.878 345.487 227.382 345.487 225.529" stroke="#FFCF2D" stroke-width="1.02" stroke-miterlimit="10"/>
<path d="M329.786 202.653C328.155 201.531 323.074 190.841 329.361 186.473C334.187 183.108 335.121 191.827 332.895 191.096C329.021 189.821 326.659 172.758 336.769 173.812C341.221 174.271 340.728 180.61 336.769 180.78" stroke="white" stroke-width="0.85" stroke-miterlimit="10" stroke-linecap="round"/>
<path d="M208.359 227.353H124.845C122.602 227.353 120.597 225.994 119.765 223.92L96.9107 167.428C95.8232 164.725 97.8113 161.768 100.717 161.768H184.231C186.474 161.768 188.479 163.128 189.311 165.201L212.165 221.694C213.27 224.396 211.282 227.353 208.359 227.353Z" fill="white" stroke="#FFCF2D" stroke-width="1.02" stroke-miterlimit="10"/>
<path d="M204.486 227.762H124.812C122.688 227.762 120.768 226.47 119.969 224.499L98.1688 170.607C97.1323 168.023 99.0184 165.219 101.805 165.219H181.479C183.603 165.219 185.523 166.511 186.322 168.482L208.122 222.375C209.158 224.958 207.255 227.762 204.486 227.762Z" fill="#FFCF2D"/>
<path d="M155.566 203.254C153.221 203.254 151.012 202.336 149.347 200.67C147.988 199.311 147.24 197.509 147.24 195.606C147.24 193.685 147.988 191.884 149.347 190.541C150.451 189.437 151.93 188.825 153.493 188.825C155.056 188.825 156.534 189.437 157.639 190.541C159.525 192.428 159.525 195.487 157.639 197.373C156.076 198.937 153.544 198.937 151.981 197.373C151.709 197.101 151.709 196.677 151.981 196.405C152.253 196.133 152.677 196.133 152.949 196.405C153.986 197.441 155.651 197.441 156.687 196.405C158.047 195.045 158.047 192.853 156.687 191.493C155.838 190.643 154.699 190.167 153.493 190.167C152.287 190.167 151.148 190.643 150.298 191.493C149.194 192.598 148.599 194.042 148.599 195.606C148.599 197.152 149.211 198.614 150.298 199.719C151.709 201.129 153.561 201.894 155.549 201.894C157.537 201.894 159.406 201.129 160.799 199.719C161.071 199.447 161.496 199.447 161.768 199.719C162.04 199.991 162.04 200.416 161.768 200.687C160.12 202.336 157.911 203.254 155.566 203.254Z" fill="white"/>
<path d="M238.248 233.336H124.947C123.639 233.336 122.585 232.282 122.585 230.973V229.835C122.585 228.526 123.639 227.472 124.947 227.472H238.248C239.556 227.472 240.609 228.526 240.609 229.835V230.973C240.592 232.282 239.539 233.336 238.248 233.336Z" fill="white" stroke="#FFCF2D" stroke-width="1.02" stroke-miterlimit="10"/>
</g>
<defs>
<clipPath id="clip0_2032_31622">
<rect width="591" height="493" fill="white"/>
</clipPath>
</defs>
</svg>
