<svg width="743" height="491" viewBox="0 0 743 491" fill="none" xmlns="http://www.w3.org/2000/svg">
<g clip-path="url(#clip0_2032_31891)">
<path d="M743 490H-0.000244141L133.375 411.278H611.666L743 490Z" fill="#D0F0E4"/>
<path d="M470.718 105.15H337.046V27.8947C337.046 22.6638 341.288 18.4236 346.522 18.4236H461.243C466.476 18.4236 470.718 22.6638 470.718 27.8947V105.15Z" fill="white" stroke="#66B0F0" stroke-width="1.19207" stroke-miterlimit="10"/>
<path d="M460.628 100.117H347.691C344.718 100.117 342.299 97.6998 342.299 94.7277V28.5089C342.299 25.5367 344.718 23.1194 347.691 23.1194H460.628C463.602 23.1194 466.02 25.5367 466.02 28.5089V94.7475C466.02 97.7196 463.602 100.117 460.628 100.117Z" fill="#66B0F0"/>
<path d="M494.15 123.28C499.264 126.609 498.075 133.128 492.028 133.128H309.926C304.831 133.128 303.087 126.252 308.082 123.102L494.15 123.28Z" fill="#66B0F0" stroke="#66B0F0" stroke-width="1.19207" stroke-miterlimit="10"/>
<path d="M492.028 128.59H309.926C306.675 128.59 305.386 124.766 308.082 123.102L337.085 105.15H470.341L494.13 123.28C496.509 125.083 495.121 128.59 492.028 128.59Z" fill="white" stroke="#66B0F0" stroke-width="1.19207" stroke-miterlimit="10"/>
<path d="M471.016 123.182H330.94C328.442 123.182 327.451 120.23 329.513 118.962L349.654 105.151H454.324L472.621 119.1C474.465 120.487 473.395 123.182 471.016 123.182Z" fill="white" stroke="#66B0F0" stroke-width="1.19207" stroke-miterlimit="10"/>
<path d="M445.265 105.15L463.582 123.181" stroke="#66B0F0" stroke-width="1.19207" stroke-miterlimit="10"/>
<path d="M435.551 105.15L451.688 123.181" stroke="#66B0F0" stroke-width="1.19207" stroke-miterlimit="10"/>
<path d="M426.471 105.15L440.467 123.181" stroke="#66B0F0" stroke-width="1.19207" stroke-miterlimit="10"/>
<path d="M416.321 105.15L428.156 123.181" stroke="#66B0F0" stroke-width="1.19207" stroke-miterlimit="10"/>
<path d="M407.896 105.15L413.665 123.181" stroke="#66B0F0" stroke-width="1.19207" stroke-miterlimit="10"/>
<path d="M358.159 105.15L339.841 123.181" stroke="#66B0F0" stroke-width="1.19207" stroke-miterlimit="10"/>
<path d="M367.873 105.15L351.736 123.181" stroke="#66B0F0" stroke-width="1.19207" stroke-miterlimit="10"/>
<path d="M376.952 105.15L362.957 123.181" stroke="#66B0F0" stroke-width="1.19207" stroke-miterlimit="10"/>
<path d="M387.101 105.15L375.266 123.181" stroke="#66B0F0" stroke-width="1.19207" stroke-miterlimit="10"/>
<path d="M395.526 105.15L389.758 123.181" stroke="#66B0F0" stroke-width="1.19207" stroke-miterlimit="10"/>
<path d="M401.235 123.399V105.15" stroke="#66B0F0" stroke-width="1.19207" stroke-miterlimit="10"/>
<path d="M339.841 111.887H463.186" stroke="#66B0F0" stroke-width="1.19207" stroke-miterlimit="10"/>
<path d="M725.158 490L650.581 209.392C649.101 203.805 644.557 199.981 639.42 199.981H186.787C181.598 199.981 177.036 203.884 175.59 209.571L104.426 490" stroke="#66B0F0" stroke-width="1.19207" stroke-miterlimit="10"/>
<path fill-rule="evenodd" clip-rule="evenodd" d="M311.958 104.839H509.886V106.031H311.875L180.412 203.805L180.902 202.133L311.469 104.91L311.565 104.839H311.958Z" fill="#66B0F0"/>
<path d="M565.303 360.179L540.542 298.557H580.409L565.303 360.179Z" fill="#9A3B82"/>
<path d="M497.366 216.307C502.679 206.262 513.126 199.981 524.486 199.981H555.153L575.988 216.307H497.366Z" fill="#9A3B82"/>
<path d="M613.633 288.453H536.379L565.461 359.011C563.439 355.722 551.326 359.149 538.5 367.016C525.833 374.783 517.269 384.135 519.014 387.543L456.33 278.526C440.075 251.024 459.899 216.309 491.855 216.309H664.977L665.353 217.498C676.653 252.569 650.486 288.453 613.633 288.453Z" fill="#3FB1B5"/>
<path d="M667.971 236.539C667.693 242.978 666.266 249.2 663.847 254.966L573.054 216.328H663.173L665.275 222.471C666.741 226.156 667.554 231.327 667.971 236.539Z" fill="#E6E6E6"/>
<path d="M565.482 359.009C567.504 362.298 558.662 371.274 545.856 379.14C533.029 387.006 521.115 390.949 519.093 387.66C517.071 384.371 525.694 375.078 538.521 367.212C551.327 359.346 563.44 355.72 565.482 359.009Z" fill="#66B0F0"/>
<path d="M537.034 367.252L480.655 267.627C476.234 259.741 481.923 249.992 490.983 249.992H600.788C615.576 249.992 626.618 236.38 623.565 221.916" stroke="white" stroke-width="1.19207" stroke-miterlimit="10" stroke-linecap="round"/>
<path d="M518.439 387.878C516.417 384.589 525.159 374.127 538.521 366.34C553.528 357.602 563.241 355.007 566.136 359.643" stroke="white" stroke-width="1.19207" stroke-miterlimit="10" stroke-linecap="round"/>
<path d="M566.572 360.079L529.738 272.302" stroke="white" stroke-width="1.19207" stroke-miterlimit="10" stroke-linecap="round"/>
<path d="M489.695 215.654H579.556" stroke="white" stroke-width="1.19207" stroke-miterlimit="10"/>
<path d="M540.523 392.198L535.17 384.906L527.796 374.88C530.809 372.344 534.437 369.709 538.501 367.212C546.589 362.258 554.38 358.969 559.554 358.058L563.142 365.211L567.622 374.127C564.451 385.401 540.523 392.198 540.523 392.198Z" fill="#E58E72"/>
<path d="M563.162 365.211C559.831 369.272 553.567 374.404 545.855 379.14C542.148 381.419 538.52 383.36 535.19 384.906L527.815 374.88C530.828 372.344 534.456 369.708 538.52 367.212C546.608 362.258 554.399 358.969 559.573 358.058L563.162 365.211Z" fill="#9A3B82"/>
<path d="M592.124 413.418L537.727 452.472C533.108 455.682 525.932 458.357 526.884 446.746C528.212 430.736 531.76 406.919 540.523 392.178C540.899 392.079 564.45 385.282 567.622 374.107L592.422 391.722C599.558 397.27 599.4 408.088 592.124 413.418Z" fill="white" stroke="#FFCF2D" stroke-width="1.19207" stroke-miterlimit="10"/>
<path d="M538.005 397.349C542.327 398.162 566.592 389.562 570.358 376.307" stroke="#FFCF2D" stroke-width="1.19207" stroke-miterlimit="10" stroke-linecap="round"/>
<path d="M532.157 448.45C532.157 448.45 567.661 399.152 592.917 401.926C620.413 404.918 509.677 477.2 532.157 448.45Z" fill="#FFCF2D"/>
<path d="M531.146 455.167C528.391 455.345 525.477 452.136 529.501 446.984C529.501 446.984 566.453 395.864 592.759 398.756C596.823 399.192 598.191 402.501 597.239 405.354" stroke="#FFCF2D" stroke-width="1.19207" stroke-miterlimit="10" stroke-linecap="round"/>
<path d="M668.169 240.56C655.601 237.588 624.319 229.761 588.635 221.518C571.864 217.655 557.829 206.242 550.593 190.628L518.102 120.367L537.767 89.2194C543.814 79.6293 554.122 73.5266 565.442 72.8331L584.79 71.6442C604.296 70.4554 619.957 82.6213 625.904 101.227L665.255 216.307C669.577 227.086 668.169 240.56 668.169 240.56Z" fill="white" stroke="#FE5244" stroke-width="1.19207" stroke-miterlimit="10"/>
<path d="M535.21 124.31C535.21 124.31 545.558 140.558 569.129 144.144" stroke="#FE5244" stroke-width="1.19207" stroke-miterlimit="10"/>
<path d="M549.167 94.7478C548.097 93.5984 546.213 93.9155 545.559 95.3225C544.825 96.9079 546.154 98.6716 547.879 98.414C549.643 98.1564 550.377 96.0359 549.167 94.7478Z" fill="#FFCF2D" stroke="#FE5244" stroke-width="1.19207" stroke-miterlimit="10" stroke-linejoin="round"/>
<path d="M598.549 128.61C597.478 127.461 595.594 127.778 594.94 129.185C594.206 130.77 595.535 132.534 597.26 132.276C599.024 132.019 599.758 129.898 598.549 128.61Z" fill="#FFCF2D" stroke="#FE5244" stroke-width="1.19207" stroke-miterlimit="10" stroke-linejoin="round"/>
<path d="M614.19 142.48C613.119 141.331 611.235 141.648 610.581 143.055C609.847 144.64 611.176 146.404 612.901 146.146C614.646 145.909 615.379 143.788 614.19 142.48Z" fill="#FFCF2D" stroke="#FE5244" stroke-width="1.19207" stroke-miterlimit="10" stroke-linejoin="round"/>
<path d="M644.183 220.964C643.112 219.815 641.229 220.132 640.574 221.539C639.841 223.124 641.169 224.888 642.894 224.63C644.639 224.373 645.373 222.272 644.183 220.964Z" fill="#FFCF2D" stroke="#FE5244" stroke-width="1.19207" stroke-miterlimit="10" stroke-linejoin="round"/>
<path d="M627.392 183.456C626.321 182.306 624.438 182.623 623.783 184.03C623.05 185.616 624.378 187.379 626.103 187.122C627.868 186.864 628.602 184.744 627.392 183.456Z" fill="#FFCF2D" stroke="#FE5244" stroke-width="1.19207" stroke-miterlimit="10" stroke-linejoin="round"/>
<path d="M634.35 156.469C632.803 156.667 631.951 158.391 632.724 159.739C633.596 161.265 635.797 161.205 636.59 159.64C637.403 158.054 636.095 156.231 634.35 156.469Z" fill="#FFCF2D" stroke="#FE5244" stroke-width="1.19207" stroke-miterlimit="10" stroke-linejoin="round"/>
<path d="M647.017 196.493C645.471 196.691 644.618 198.415 645.392 199.763C646.264 201.289 648.465 201.229 649.258 199.664C650.071 198.078 648.782 196.255 647.017 196.493Z" fill="#FFCF2D" stroke="#FE5244" stroke-width="1.19207" stroke-miterlimit="10" stroke-linejoin="round"/>
<path d="M594.484 153.318C593.414 152.169 591.53 152.486 590.876 153.893C590.142 155.478 591.471 157.242 593.195 156.985C594.94 156.727 595.674 154.626 594.484 153.318Z" fill="#FFCF2D" stroke="#FE5244" stroke-width="1.19207" stroke-miterlimit="10" stroke-linejoin="round"/>
<path d="M583.561 175.768C582.491 174.618 580.607 174.936 579.953 176.343C579.219 177.928 580.548 179.692 582.273 179.434C584.037 179.176 584.771 177.056 583.561 175.768Z" fill="#FFCF2D" stroke="#FE5244" stroke-width="1.19207" stroke-miterlimit="10" stroke-linejoin="round"/>
<path d="M564.015 167.922C565.165 166.852 564.848 164.969 563.441 164.315C561.854 163.582 560.09 164.91 560.348 166.634C560.605 168.378 562.707 169.111 564.015 167.922Z" fill="#FFCF2D" stroke="#FE5244" stroke-width="1.19207" stroke-miterlimit="10" stroke-linejoin="round"/>
<path d="M581.362 206.559C582.512 205.489 582.195 203.606 580.787 202.953C579.201 202.219 577.436 203.547 577.694 205.271C577.951 207.035 580.073 207.768 581.362 206.559Z" fill="#FFCF2D" stroke="#FE5244" stroke-width="1.19207" stroke-miterlimit="10" stroke-linejoin="round"/>
<path d="M610.561 173.41C611.711 172.34 611.394 170.458 609.986 169.804C608.4 169.071 606.636 170.398 606.893 172.122C607.151 173.866 609.273 174.619 610.561 173.41Z" fill="#FFCF2D" stroke="#FE5244" stroke-width="1.19207" stroke-miterlimit="10" stroke-linejoin="round"/>
<path d="M620.533 214.901C621.683 213.831 621.366 211.948 619.958 211.294C618.372 210.561 616.607 211.889 616.865 213.613C617.103 215.377 619.225 216.11 620.533 214.901Z" fill="#FFCF2D" stroke="#FE5244" stroke-width="1.19207" stroke-miterlimit="10" stroke-linejoin="round"/>
<path d="M560.745 130.869C559.674 129.72 557.79 130.037 557.136 131.444C556.402 133.029 557.731 134.793 559.456 134.535C561.22 134.277 561.954 132.157 560.745 130.869Z" fill="#FFCF2D" stroke="#FE5244" stroke-width="1.19207" stroke-miterlimit="10" stroke-linejoin="round"/>
<path d="M564.293 79.4712C563.223 78.3218 561.339 78.6389 560.685 80.0459C559.951 81.6313 561.279 83.395 563.004 83.1374C564.769 82.8797 565.503 80.7593 564.293 79.4712Z" fill="#FFCF2D" stroke="#FE5244" stroke-width="1.19207" stroke-miterlimit="10" stroke-linejoin="round"/>
<path d="M598.549 79.4712C597.478 78.3218 595.594 78.6389 594.94 80.0459C594.206 81.6313 595.535 83.395 597.26 83.1374C599.024 82.8797 599.758 80.7593 598.549 79.4712Z" fill="#FFCF2D" stroke="#FE5244" stroke-width="1.19207" stroke-miterlimit="10" stroke-linejoin="round"/>
<path d="M598.608 101.663C597.16 102.238 596.744 104.1 597.834 105.23C599.044 106.478 601.165 105.904 601.562 104.199C601.958 102.475 600.253 101.009 598.608 101.663Z" fill="#FFCF2D" stroke="#FE5244" stroke-width="1.19207" stroke-miterlimit="10" stroke-linejoin="round"/>
<path d="M579.141 89.0213C577.634 89.4573 577.06 91.2606 578.011 92.4893C579.102 93.8567 581.263 93.4801 581.818 91.8353C582.393 90.1509 580.827 88.5259 579.141 89.0213Z" fill="#FFCF2D" stroke="#FE5244" stroke-width="1.19207" stroke-miterlimit="10" stroke-linejoin="round"/>
<path d="M576.267 143.907C574.72 144.085 573.848 145.789 574.601 147.157C575.454 148.682 577.655 148.663 578.468 147.117C579.3 145.551 578.031 143.708 576.267 143.907Z" fill="#FFCF2D" stroke="#FE5244" stroke-width="1.19207" stroke-miterlimit="10" stroke-linejoin="round"/>
<path d="M559.278 185.18C557.731 185.358 556.859 187.062 557.612 188.43C558.465 189.955 560.666 189.936 561.478 188.39C562.311 186.824 561.042 184.981 559.278 185.18Z" fill="#FFCF2D" stroke="#FE5244" stroke-width="1.19207" stroke-miterlimit="10" stroke-linejoin="round"/>
<path d="M564.987 105.388C563.48 105.823 562.905 107.627 563.857 108.855C564.947 110.223 567.108 109.846 567.664 108.202C568.239 106.537 566.692 104.912 564.987 105.388Z" fill="#FFCF2D" stroke="#FE5244" stroke-width="1.19207" stroke-miterlimit="10" stroke-linejoin="round"/>
<path d="M581.4 116.484C579.893 116.92 579.318 118.723 580.27 119.952C581.361 121.319 583.522 120.943 584.077 119.298C584.652 117.613 583.105 115.988 581.4 116.484Z" fill="#FFCF2D" stroke="#FE5244" stroke-width="1.19207" stroke-miterlimit="10" stroke-linejoin="round"/>
<path d="M545.857 116.009C546.848 114.8 546.313 112.977 544.806 112.521C543.141 112.006 541.554 113.552 542.05 115.216C542.546 116.92 544.727 117.376 545.857 116.009Z" fill="#FFCF2D" stroke="#FE5244" stroke-width="1.19207" stroke-miterlimit="10" stroke-linejoin="round"/>
<path d="M621.009 116.068C622 114.86 621.465 113.036 619.958 112.581C618.293 112.065 616.706 113.611 617.202 115.276C617.678 116.98 619.879 117.436 621.009 116.068Z" fill="#FFCF2D" stroke="#FE5244" stroke-width="1.19207" stroke-miterlimit="10" stroke-linejoin="round"/>
<path d="M601.938 196.395C602.93 195.186 602.394 193.363 600.887 192.907C599.222 192.392 597.636 193.938 598.132 195.602C598.607 197.287 600.808 197.742 601.938 196.395Z" fill="#FFCF2D" stroke="#FE5244" stroke-width="1.19207" stroke-miterlimit="10" stroke-linejoin="round"/>
<path d="M586.119 70.9903C585.682 71.0101 585.246 71.0299 584.79 71.0498L565.442 72.2386C560.506 72.5358 555.787 73.8634 551.505 76.0627L545.558 58.2697L572.063 38.8518L586.119 70.9903Z" fill="#E58E72"/>
<path d="M551.426 75.7856C556.937 73.289 561.338 68.8507 563.836 63.3424L573.471 42.0422L572.063 38.8323L545.558 58.2501L551.426 75.7856Z" fill="#9A3B82"/>
<path d="M573.768 40.6351C573.768 42.4778 573.015 44.1422 571.806 45.3509C570.597 46.5596 568.931 47.3125 567.088 47.3125H561.259C558.96 56.2487 550.059 62.3712 540.484 60.687L536.102 59.9143C531.305 59.0623 528.034 54.5843 528.708 49.7695L533.843 24.0705C534.735 18.582 540.384 15.2334 545.638 17.1158L554.142 20.5238C558.742 22.1089 561.834 26.4284 561.834 31.2829V33.7596L567.088 33.9578C570.775 33.9578 573.768 36.9497 573.768 40.6351Z" fill="#E58E72"/>
<path d="M563.896 41.9242C563.896 39.3678 565.957 37.3069 568.515 37.3069" stroke="#9A3B82" stroke-width="0.993394" stroke-miterlimit="10" stroke-linecap="round"/>
<path d="M536.697 29.4802C536.697 29.4802 540.86 29.4803 543.833 33.4629" stroke="#9A3B82" stroke-width="0.993394" stroke-miterlimit="10" stroke-linecap="round"/>
<path d="M539.465 36.8957C539.674 35.7435 539.408 34.7302 538.869 34.6324C538.33 34.5346 537.724 35.3894 537.514 36.5416C537.304 37.6938 537.571 38.7071 538.11 38.8048C538.648 38.9026 539.255 38.0479 539.465 36.8957Z" fill="#9A3B82"/>
<path d="M567.087 33.9579C570.775 33.9579 573.768 36.9498 573.768 40.6353C573.768 40.6551 573.768 40.6947 573.768 40.7343C576.742 36.1573 584.037 24.5066 584.037 20.5636C584.037 15.2732 577.436 9.98281 570.596 12.4001C571.052 12.0633 571.528 11.7066 572.024 11.3302C574.66 9.26951 576.048 7.72401 576.266 6.61442C576.345 6.21814 576.286 5.86148 576.088 5.58408C575.295 4.45468 574.422 3.95932 573.491 4.11783C572.123 4.33579 570.715 6.01999 569.308 9.11099C568.673 10.5178 568.178 11.9048 567.9 12.7568C567.345 9.44784 564.669 -1.50938 553.171 0.174826C549.206 0.749435 547.342 2.39401 546.827 4.19709C543.536 1.62125 539.135 -0.399787 535.488 1.52218C529.184 4.83114 529.957 10.2602 533.604 14.1042C530.155 14.0447 527.736 15.0552 527.736 17.9679C527.736 20.6428 530.492 21.9307 534.278 22.4459C538.065 22.9611 542.922 22.6837 547.124 22.2081C550.118 21.8713 552.814 21.4552 554.539 21.158C553.389 23.5159 552.933 25.5369 553.032 27.2409C553.21 30.7678 555.768 32.8483 559.376 33.5814C560.149 33.74 560.982 33.839 561.834 33.8787L567.087 33.9579ZM573.61 4.9104C573.669 4.89058 573.729 4.89059 573.808 4.89059C574.363 4.89059 574.898 5.28687 575.433 6.0398C575.473 6.11906 575.533 6.23794 575.493 6.4559C575.176 8.06084 571.112 11.1122 568.753 12.7172C569.684 9.98282 571.647 5.24724 573.61 4.9104Z" fill="#FFCF2D"/>
<path d="M551.268 10.7752C549.9 10.7752 548.512 10.0421 547.501 8.75418C546.371 7.32756 545.994 5.5641 546.47 4.03842C546.53 3.84027 546.728 3.72138 546.926 3.76101C547.005 3.76101 547.085 3.78083 547.144 3.84027C550.138 5.9802 552.537 9.03157 552.18 10.2403C552.1 10.5573 551.843 10.7554 551.506 10.7752C551.426 10.7752 551.347 10.7752 551.268 10.7752ZM547.105 4.79135C546.926 5.94057 547.283 7.20867 548.116 8.25882C549.008 9.38823 550.237 10.0421 551.426 9.96283C551.466 9.44767 550.138 7.08979 547.105 4.79135Z" fill="white"/>
<path d="M512.136 185.734H385.263C382.13 185.734 380.247 182.286 381.912 179.651L398.802 153.139C401.003 149.692 404.789 147.611 408.873 147.611H494.75L512.136 185.734Z" fill="#E58E72"/>
<path d="M512.136 185.734H483.609C483.549 185.674 483.47 185.595 483.411 185.535C476.472 178.402 473.518 167.584 477.424 157.162L481.488 147.611H494.75L512.136 185.734Z" fill="#9A3B82"/>
<path d="M403.183 167.94H387.284C386.214 167.94 385.222 168.515 384.687 169.446L383.002 172.379C381.872 174.36 383.299 176.837 385.599 176.837H398.386C400.606 176.837 402.668 175.688 403.837 173.786L405.205 171.547C406.157 169.961 405.027 167.94 403.183 167.94Z" fill="#E58E72"/>
<path d="M399.08 176.837H383.181C382.11 176.837 381.119 177.412 380.584 178.343L378.899 181.275C377.769 183.257 379.196 185.734 381.496 185.734H394.282C396.503 185.734 398.564 184.584 399.734 182.682L401.102 180.443C402.073 178.858 400.923 176.837 399.08 176.837Z" fill="#E58E72"/>
<path d="M407.723 158.925H391.824C390.753 158.925 389.762 159.5 389.227 160.431L387.542 163.364C386.412 165.345 387.839 167.822 390.139 167.822H402.926C405.146 167.822 407.208 166.673 408.377 164.77L409.745 162.531C410.717 160.946 409.567 158.925 407.723 158.925Z" fill="#E58E72"/>
<path d="M403.183 167.94H387.284C386.214 167.94 385.222 168.515 384.687 169.446L383.002 172.379C381.872 174.36 383.299 176.837 385.599 176.837H398.386C400.606 176.837 402.668 175.688 403.837 173.786L405.205 171.547C406.157 169.961 405.027 167.94 403.183 167.94Z" stroke="#9A3B82" stroke-width="0.993394" stroke-miterlimit="10" stroke-linecap="round"/>
<path d="M399.08 176.837H383.181C382.11 176.837 381.119 177.412 380.584 178.343L378.899 181.275C377.769 183.257 379.196 185.734 381.496 185.734H394.282C396.503 185.734 398.564 184.584 399.734 182.682L401.102 180.443C402.073 178.858 400.923 176.837 399.08 176.837Z" stroke="#9A3B82" stroke-width="0.993394" stroke-miterlimit="10" stroke-linecap="round"/>
<path d="M407.723 158.925H391.824C390.753 158.925 389.762 159.5 389.227 160.431L387.542 163.364C386.412 165.345 387.839 167.822 390.139 167.822H402.926C405.146 167.822 407.208 166.673 408.377 164.77L409.745 162.531C410.717 160.946 409.567 158.925 407.723 158.925Z" stroke="#9A3B82" stroke-width="0.993394" stroke-miterlimit="10" stroke-linecap="round"/>
<path d="M430.739 172.181C425.962 172.181 421.362 170.457 417.754 167.307L411.728 162.036H406.177L404.75 163.562C402.192 166.296 399.04 167.861 395.293 167.861H392.637C391.249 167.861 390.397 166.316 391.15 165.147L397.831 154.685H430.759V172.181H430.739Z" fill="#E58E72"/>
<path d="M397.831 154.685L391.15 165.147C390.397 166.316 391.249 167.861 392.637 167.861H395.293C399.04 167.861 402.192 166.316 404.75 163.562L406.177 162.036H411.728L417.754 167.307C421.342 170.437 425.962 172.181 430.739 172.181" stroke="#9A3B82" stroke-width="0.993394" stroke-miterlimit="10" stroke-linecap="round"/>
<path d="M564.589 148.682L534.318 182.484C527.955 189.598 518.855 193.66 509.3 193.66C490.428 193.66 477.364 174.836 483.985 157.162L519.946 72.7142L507.794 65.918C506.069 64.5706 505.236 62.3712 505.613 60.2313L507.675 46.3416C508.309 43.2506 511.461 40.8333 514.534 40.12L528.767 36.9101C529.977 36.6327 531.087 37.663 530.889 38.8717L528.827 49.5911C528.014 54.8221 531.543 59.3397 536.776 60.2313C541.058 60.9644 544.071 65.2641 543.675 69.5836L533.981 130.017C533.961 130.056 543.893 145.531 564.589 148.682Z" fill="#E58E72"/>
<path d="M541.376 83.9485L529.68 159.857" stroke="#9A3B82" stroke-width="0.993394" stroke-miterlimit="10" stroke-linecap="round"/>
<path d="M517.131 47.3521L516.973 52.2659C516.913 54.287 518.122 56.0703 519.867 56.5656L538.085 60.2509" stroke="#9A3B82" stroke-width="0.993394" stroke-miterlimit="10" stroke-linecap="round"/>
<path d="M550.475 61.8368L535.905 59.8951C531.107 59.043 527.836 54.565 528.51 49.7502L530.393 38.9911C530.572 37.9806 529.66 37.1286 528.669 37.3664L513.801 40.8339" stroke="#9A3B82" stroke-width="0.993394" stroke-miterlimit="10" stroke-linecap="round"/>
<path d="M542.427 173.37L581.837 129.541" stroke="#FE5244" stroke-width="1.19207" stroke-miterlimit="10"/>
<path d="M520.362 72.7339H527.321" stroke="#9A3B82" stroke-width="0.993394" stroke-miterlimit="10" stroke-linecap="round"/>
<path d="M517.151 48.6597V50.2448C517.151 52.1271 518.519 53.6727 520.204 53.6727H522.385C523.336 53.6727 524.089 52.8207 524.089 51.7507L524.228 41.4077C524.248 39.8028 522.543 38.812 521.155 39.1489" stroke="#9A3B82" stroke-width="0.993394" stroke-miterlimit="10" stroke-linecap="round"/>
<path d="M524.228 48.6594V50.2448C524.228 52.1274 525.596 53.6732 527.281 53.6732H528.669" stroke="#9A3B82" stroke-width="0.993394" stroke-miterlimit="10" stroke-linecap="round"/>
<path d="M655.878 298.555L678.894 490" stroke="#66B0F0" stroke-width="1.19207" stroke-miterlimit="10"/>
<path d="M556.125 298.555L533.109 490" stroke="#66B0F0" stroke-width="1.19207" stroke-miterlimit="10"/>
<path d="M540.999 424.256H670.984" stroke="#66B0F0" stroke-width="1.19207" stroke-miterlimit="10"/>
<path d="M542.863 299.15H667.952C669.617 299.15 670.965 297.802 670.965 296.138V292.056C670.965 290.392 669.617 289.045 667.952 289.045H542.863C541.198 289.045 539.85 290.392 539.85 292.056V296.138C539.85 297.802 541.198 299.15 542.863 299.15Z" fill="white" stroke="#FFCF2D" stroke-width="1.19207" stroke-miterlimit="10"/>
<path d="M396.391 52.9316H398.159V54.8359H396.391V58H394.018V54.8359H387.875L387.807 53.3906L393.94 43.7812H396.391V52.9316ZM390.297 52.9316H394.018V46.9941L393.842 47.3066L390.297 52.9316Z" fill="white"/>
<path d="M409.148 52.0137C409.148 54.0579 408.764 55.6009 407.996 56.6426C407.234 57.6777 406.072 58.1953 404.51 58.1953C402.973 58.1953 401.814 57.6908 401.033 56.6816C400.258 55.666 399.861 54.1654 399.842 52.1797V49.7188C399.842 47.6745 400.223 46.1413 400.984 45.1191C401.753 44.097 402.921 43.5859 404.49 43.5859C406.046 43.5859 407.205 44.084 407.967 45.0801C408.735 46.0762 409.129 47.5671 409.148 49.5527V52.0137ZM406.775 49.3574C406.775 48.0228 406.593 47.0462 406.228 46.4277C405.864 45.8027 405.284 45.4902 404.49 45.4902C403.715 45.4902 403.146 45.7865 402.781 46.3789C402.417 46.9648 402.225 47.8828 402.205 49.1328V52.3555C402.205 53.6836 402.391 54.6732 402.762 55.3242C403.133 55.9753 403.715 56.3008 404.51 56.3008C405.271 56.3008 405.835 56.0013 406.199 55.4023C406.564 54.7969 406.756 53.8529 406.775 52.5703V49.3574Z" fill="white"/>
<path d="M417.824 58H415.46V46.584L411.974 47.7754V45.7734L417.521 43.7324H417.824V58Z" fill="white"/>
<path d="M388.634 81.1953C387.13 81.1953 385.909 80.7233 384.971 79.7793C384.04 78.8288 383.575 77.5658 383.575 75.9902V75.6973C383.575 74.6426 383.777 73.7018 384.18 72.875C384.591 72.0417 385.163 71.3939 385.899 70.9316C386.635 70.4694 387.455 70.2383 388.36 70.2383C389.799 70.2383 390.909 70.6973 391.69 71.6152C392.478 72.5332 392.872 73.832 392.872 75.5117V76.4688H385.968C386.039 77.3411 386.329 78.0312 386.837 78.5391C387.351 79.0469 387.996 79.3008 388.77 79.3008C389.858 79.3008 390.743 78.8613 391.427 77.9824L392.706 79.2031C392.283 79.8346 391.716 80.3262 391.007 80.6777C390.303 81.0228 389.512 81.1953 388.634 81.1953ZM388.35 72.1426C387.699 72.1426 387.172 72.3704 386.768 72.8262C386.371 73.2819 386.117 73.9167 386.007 74.7305H390.528V74.5547C390.476 73.7604 390.264 73.1615 389.893 72.7578C389.522 72.3477 389.008 72.1426 388.35 72.1426Z" fill="white"/>
<path d="M400.405 72.6016C400.092 72.5495 399.77 72.5234 399.438 72.5234C398.351 72.5234 397.618 72.9401 397.241 73.7734V81H394.868V70.4336H397.133L397.192 71.6152C397.765 70.6973 398.559 70.2383 399.575 70.2383C399.913 70.2383 400.193 70.2839 400.414 70.375L400.405 72.6016Z" fill="white"/>
<path d="M407.586 72.6016C407.273 72.5495 406.951 72.5234 406.619 72.5234C405.532 72.5234 404.799 72.9401 404.422 73.7734V81H402.049V70.4336H404.314L404.373 71.6152C404.946 70.6973 405.74 70.2383 406.756 70.2383C407.094 70.2383 407.374 70.2839 407.596 70.375L407.586 72.6016Z" fill="white"/>
<path d="M408.439 75.6191C408.439 74.584 408.644 73.653 409.054 72.8262C409.464 71.9928 410.041 71.3548 410.783 70.9121C411.525 70.4629 412.378 70.2383 413.341 70.2383C414.767 70.2383 415.923 70.6973 416.808 71.6152C417.7 72.5332 418.182 73.7507 418.253 75.2676L418.263 75.8242C418.263 76.8659 418.061 77.7969 417.658 78.6172C417.261 79.4375 416.688 80.0723 415.939 80.5215C415.197 80.9707 414.337 81.1953 413.361 81.1953C411.87 81.1953 410.675 80.7005 409.777 79.7109C408.885 78.7148 408.439 77.39 408.439 75.7363V75.6191ZM410.812 75.8242C410.812 76.9115 411.037 77.7643 411.486 78.3828C411.935 78.9948 412.56 79.3008 413.361 79.3008C414.162 79.3008 414.783 78.9883 415.226 78.3633C415.675 77.7383 415.9 76.8236 415.9 75.6191C415.9 74.5514 415.669 73.7051 415.207 73.0801C414.751 72.4551 414.129 72.1426 413.341 72.1426C412.567 72.1426 411.951 72.4518 411.496 73.0703C411.04 73.6823 410.812 74.6003 410.812 75.8242Z" fill="white"/>
<path d="M425.952 72.6016C425.64 72.5495 425.318 72.5234 424.985 72.5234C423.898 72.5234 423.166 72.9401 422.788 73.7734V81H420.415V70.4336H422.681L422.739 71.6152C423.312 70.6973 424.107 70.2383 425.122 70.2383C425.461 70.2383 425.741 70.2839 425.962 70.375L425.952 72.6016Z" fill="white"/>
</g>
<defs>
<clipPath id="clip0_2032_31891">
<rect width="743" height="491" fill="white"/>
</clipPath>
</defs>
</svg>
