<svg width="199" height="243" viewBox="0 0 199 243" fill="none" xmlns="http://www.w3.org/2000/svg">
<path d="M157.353 217.095C157.353 222.286 156.399 227.271 154.646 231.894C152.093 238.609 145.621 243 138.426 243H83.8368C76.6683 243 70.1701 238.609 67.6431 231.894C65.8896 227.271 64.9355 222.286 64.9355 217.095C64.9355 202.115 72.8519 188.891 84.9457 180.987V172.258C84.9457 176.08 96.6784 179.179 111.119 179.179C125.585 179.179 137.292 176.08 137.292 172.258V181.013C149.437 188.891 157.353 202.115 157.353 217.095Z" fill="#FE5244"/>
<path d="M137.343 178.611V180.936C133.192 184.242 121.897 185.998 111.17 185.998C100.443 185.998 89.1489 184.242 84.9973 180.936V178.611C85.4873 179.722 87.5759 181.168 92.2174 182.382C97.2715 183.725 104.002 184.448 111.17 184.448C118.339 184.448 125.069 183.725 130.123 182.382C134.765 181.142 136.828 179.696 137.343 178.611Z" fill="white"/>
<path d="M137.343 172.257C137.343 176.08 125.611 179.179 111.17 179.179C96.73 179.179 84.9973 176.08 84.9973 172.257C84.9973 171.767 85.1778 171.302 85.5388 170.837C88.0143 167.712 98.5351 165.335 111.17 165.335C123.806 165.335 134.326 167.686 136.802 170.837C137.137 171.302 137.343 171.767 137.343 172.257Z" fill="#66B0F0"/>
<path d="M76.1271 206.118C77.95 206.118 79.4277 204.638 79.4277 202.812C79.4277 200.986 77.95 199.506 76.1271 199.506C74.3042 199.506 72.8264 200.986 72.8264 202.812C72.8264 204.638 74.3042 206.118 76.1271 206.118Z" stroke="#FFCF2D" stroke-width="1.554" stroke-miterlimit="10"/>
<path d="M87.318 214.253C89.1409 214.253 90.6186 212.773 90.6186 210.947C90.6186 209.122 89.1409 207.641 87.318 207.641C85.4951 207.641 84.0173 209.122 84.0173 210.947C84.0173 212.773 85.4951 214.253 87.318 214.253Z" stroke="#FFCF2D" stroke-width="1.554" stroke-miterlimit="10"/>
<path d="M101.243 204.594C103.066 204.594 104.543 203.113 104.543 201.288C104.543 199.462 103.066 197.982 101.243 197.982C99.4199 197.982 97.9421 199.462 97.9421 201.288C97.9421 203.113 99.4199 204.594 101.243 204.594Z" stroke="#FFCF2D" stroke-width="1.554" stroke-miterlimit="10"/>
<path d="M99.2828 226.547C101.106 226.547 102.583 225.067 102.583 223.241C102.583 221.416 101.106 219.936 99.2828 219.936C97.4599 219.936 95.9822 221.416 95.9822 223.241C95.9822 225.067 97.4599 226.547 99.2828 226.547Z" stroke="#FFCF2D" stroke-width="1.554" stroke-miterlimit="10"/>
<path d="M86.9056 236.181C88.7285 236.181 90.2062 234.701 90.2062 232.875C90.2062 231.049 88.7285 229.569 86.9056 229.569C85.0827 229.569 83.605 231.049 83.605 232.875C83.605 234.701 85.0827 236.181 86.9056 236.181Z" stroke="#FFCF2D" stroke-width="1.554" stroke-miterlimit="10"/>
<path d="M74.4249 226.547C76.2478 226.547 77.7256 225.067 77.7256 223.241C77.7256 221.416 76.2478 219.936 74.4249 219.936C72.602 219.936 71.1243 221.416 71.1243 223.241C71.1243 225.067 72.602 226.547 74.4249 226.547Z" stroke="#FFCF2D" stroke-width="1.554" stroke-miterlimit="10"/>
<path d="M89.1232 193.849C90.946 193.849 92.4238 192.369 92.4238 190.543C92.4238 188.717 90.946 187.237 89.1232 187.237C87.3003 187.237 85.8225 188.717 85.8225 190.543C85.8225 192.369 87.3003 193.849 89.1232 193.849Z" stroke="#FFCF2D" stroke-width="1.554" stroke-miterlimit="10"/>
<path d="M115.399 196.354C117.222 196.354 118.7 194.874 118.7 193.048C118.7 191.223 117.222 189.742 115.399 189.742C113.576 189.742 112.099 191.223 112.099 193.048C112.099 194.874 113.576 196.354 115.399 196.354Z" stroke="#FFCF2D" stroke-width="1.554" stroke-miterlimit="10"/>
<path d="M112.64 216.397C114.463 216.397 115.941 214.917 115.941 213.091C115.941 211.265 114.463 209.785 112.64 209.785C110.817 209.785 109.34 211.265 109.34 213.091C109.34 214.917 110.817 216.397 112.64 216.397Z" stroke="#FFCF2D" stroke-width="1.554" stroke-miterlimit="10"/>
<path d="M122.181 229.569C124.004 229.569 125.482 228.089 125.482 226.263C125.482 224.437 124.004 222.957 122.181 222.957C120.358 222.957 118.88 224.437 118.88 226.263C118.88 228.089 120.358 229.569 122.181 229.569Z" stroke="#FFCF2D" stroke-width="1.554" stroke-miterlimit="10"/>
<path d="M109.804 239.487C111.627 239.487 113.104 238.007 113.104 236.181C113.104 234.355 111.627 232.875 109.804 232.875C107.981 232.875 106.503 234.355 106.503 236.181C106.503 238.007 107.981 239.487 109.804 239.487Z" stroke="#FFCF2D" stroke-width="1.554" stroke-miterlimit="10"/>
<path d="M125.714 208.494C127.536 208.494 129.014 207.014 129.014 205.188C129.014 203.362 127.536 201.882 125.714 201.882C123.891 201.882 122.413 203.362 122.413 205.188C122.413 207.014 123.891 208.494 125.714 208.494Z" stroke="#FFCF2D" stroke-width="1.554" stroke-miterlimit="10"/>
<path d="M135.28 194.934C137.103 194.934 138.581 193.454 138.581 191.628C138.581 189.802 137.103 188.322 135.28 188.322C133.457 188.322 131.979 189.802 131.979 191.628C131.979 193.454 133.457 194.934 135.28 194.934Z" stroke="#FFCF2D" stroke-width="1.554" stroke-miterlimit="10"/>
<path d="M146.162 205.911C147.985 205.911 149.463 204.431 149.463 202.605C149.463 200.779 147.985 199.299 146.162 199.299C144.339 199.299 142.862 200.779 142.862 202.605C142.862 204.431 144.339 205.911 146.162 205.911Z" stroke="#FFCF2D" stroke-width="1.554" stroke-miterlimit="10"/>
<path d="M133.707 216.733C135.53 216.733 137.008 215.252 137.008 213.427C137.008 211.601 135.53 210.121 133.707 210.121C131.885 210.121 130.407 211.601 130.407 213.427C130.407 215.252 131.885 216.733 133.707 216.733Z" stroke="#FFCF2D" stroke-width="1.554" stroke-miterlimit="10"/>
<path d="M148.612 223.655C150.435 223.655 151.912 222.175 151.912 220.349C151.912 218.523 150.435 217.043 148.612 217.043C146.789 217.043 145.311 218.523 145.311 220.349C145.311 222.175 146.789 223.655 148.612 223.655Z" stroke="#FFCF2D" stroke-width="1.554" stroke-miterlimit="10"/>
<path d="M138.581 236.362C140.404 236.362 141.882 234.882 141.882 233.056C141.882 231.23 140.404 229.75 138.581 229.75C136.758 229.75 135.281 231.23 135.281 233.056C135.281 234.882 136.758 236.362 138.581 236.362Z" stroke="#FFCF2D" stroke-width="1.554" stroke-miterlimit="10"/>
<path d="M168.983 132.018C168.983 132.018 193.48 118.768 197.528 141.91C202.221 168.642 170.35 192.171 170.35 192.171C170.35 192.171 163.49 175.15 145.105 160.48C129.195 147.799 142.397 114.171 168.983 132.018Z" fill="white" stroke="#FFCF2D" stroke-width="1.554" stroke-miterlimit="10"/>
<path d="M120.892 102.548C132.521 102.651 149.231 78.9928 133.45 53.0357C114.394 21.6807 111.119 3.52368 111.119 3.52368C111.119 3.52368 83.0893 40.6642 87.8597 69.1524C93.0943 100.352 120.892 102.548 120.892 102.548Z" fill="#FFCF2D"/>
<path d="M122.903 86.793C139.896 91.287 156.038 80.93 156.374 57.3233C156.967 15.5855 164.857 2 164.857 2C164.857 2 111.918 21.0868 103.899 50.7372C96.266 78.993 122.903 86.793 122.903 86.793Z" fill="white" stroke="#FFCF2D" stroke-width="1.554" stroke-miterlimit="10"/>
<path d="M51.8879 114.274C51.269 114.325 50.6243 114.377 49.9281 114.429C13.3632 117.167 2.84252 150.691 2.84252 150.691C2.84252 150.691 0.599079 148.263 1.06323 139.869C1.93996 118.225 21.8211 95.8585 44.513 110.064C47.04 111.665 49.5155 113.034 51.8879 114.274Z" fill="#FFCF2D"/>
<path d="M93.353 122.513C86.9065 122.926 72.1825 124.708 51.8888 114.274C49.5165 113.06 47.041 111.665 44.5139 110.064C21.8221 95.8585 2.45664 118.226 1.57991 139.869C1.52833 140.928 1.7862 141.987 1.83777 143.02C-0.302487 124.218 -0.250926 77.4174 56.5561 78.9929C95.5964 80.1293 93.353 122.513 93.353 122.513Z" fill="white" stroke="#FFCF2D" stroke-width="1.554" stroke-miterlimit="10"/>
<path d="M102.635 170.888C102.635 170.888 109.365 76.9522 18.4172 89.2205" stroke="#FFCF2D" stroke-width="1.554" stroke-miterlimit="10"/>
<path d="M164.857 2C107.56 60.6293 118.236 170.889 118.236 170.889C112.202 128.712 149.231 86.7929 168.957 130.907C174.836 144.028 170.324 192.145 170.324 192.145" stroke="#FFCF2D" stroke-width="1.554" stroke-miterlimit="10"/>
</svg>
