<svg width="834" height="436" viewBox="0 0 834 436" fill="none" xmlns="http://www.w3.org/2000/svg">
<path d="M91.9787 341.315L725.855 388.171V321.512H91.9787V341.315Z" fill="#D0F0E4"/>
<path d="M132.794 270.093L691.637 316.949V250.29H132.794V270.093Z" fill="#D0F0E4"/>
<path d="M164.966 199.365L653.515 246.221V179.562H164.966V199.365Z" fill="#D0F0E4"/>
<path d="M725.855 321.266H91.9787V388.196" stroke="#66B0F0" stroke-width="1.47968" stroke-miterlimit="10"/>
<path d="M691.637 250.044H132.794V316.95" stroke="#66B0F0" stroke-width="1.47968" stroke-miterlimit="10"/>
<path d="M653.306 179.315H164.966V246.221" stroke="#66B0F0" stroke-width="1.47968" stroke-miterlimit="10"/>
<path d="M208.808 132.532L609.652 173.593V115.171H208.808V132.532Z" fill="#D0F0E4"/>
<path d="M609.485 114.949H208.808V173.594" stroke="#66B0F0" stroke-width="1.47968" stroke-miterlimit="10"/>
<path d="M117.855 387.97C117.855 387.97 85.5732 330.041 105.179 329.72C114.328 329.572 123.699 360.917 120.148 387.97H117.855Z" fill="#3FB1B5"/>
<path d="M119.261 387.649C119.261 387.649 107.275 333.419 78.323 342.174C49.3707 350.928 98.7919 387.649 98.7919 387.649" stroke="#FFCF2D" stroke-width="1.47968" stroke-miterlimit="10" stroke-linecap="round"/>
<path d="M158.003 388.586C168.041 387.649 173.713 369.696 161.826 363.703C144.736 355.096 139.384 373.075 142.763 373.666C146.141 374.283 150.901 351.545 136.154 352.162C121.406 352.778 120.864 387.649 120.864 387.649" stroke="#FFCF2D" stroke-width="1.47968" stroke-miterlimit="10" stroke-linecap="round"/>
<path d="M107.127 387.649C107.127 387.649 91.7139 350.214 76.6952 342.741" stroke="#FFCF2D" stroke-width="1.47968" stroke-miterlimit="10" stroke-linecap="round"/>
<path d="M123.552 368.216C123.552 368.216 127.177 348.117 127.325 334.899" stroke="#FFCF2D" stroke-width="1.47968" stroke-miterlimit="10"/>
<path d="M119.162 343.851C119.877 345.627 125.401 350.041 125.401 350.041C125.401 350.041 126.289 343.013 125.574 341.237C124.859 339.461 122.837 338.623 121.086 339.338C119.31 340.053 118.447 342.075 119.162 343.851Z" stroke="#FFCF2D" stroke-width="1.47968" stroke-miterlimit="10"/>
<path d="M121.012 329.72C121.727 331.496 127.251 335.91 127.251 335.91C127.251 335.91 128.139 328.882 127.424 327.106C126.708 325.33 124.686 324.492 122.935 325.207C121.16 325.947 120.296 327.944 121.012 329.72Z" stroke="#FFCF2D" stroke-width="1.47968" stroke-miterlimit="10"/>
<path d="M133.737 345.405C132.701 347.008 126.437 350.288 126.437 350.288C126.437 350.288 126.906 343.234 127.941 341.631C128.977 340.028 131.123 339.585 132.726 340.62C134.329 341.681 134.773 343.802 133.737 345.405Z" stroke="#FFCF2D" stroke-width="1.47968" stroke-miterlimit="10"/>
<path d="M734.116 388.98C734.116 388.98 753.944 371.076 753.549 358.227C753.105 343.529 739.049 350.632 738.309 345.33C737.544 340.052 753.155 303.948 731.428 304.219C709.702 304.491 719.813 339.115 713.919 342.321C708.025 345.502 698.259 341.704 700.898 355.712C703.536 369.744 725.485 388.807 725.485 388.807L734.116 388.98Z" fill="#3FB1B5"/>
<path d="M793.649 388.536C806.497 388.536 816.386 365.059 796.583 358.844C776.78 352.629 774.61 371.347 778.926 372.063C783.242 372.778 785.387 336.106 749.752 341.088C710.861 346.513 734.634 388.536 734.634 388.536C734.634 388.536 711.699 349.966 732.785 304.787" stroke="#FFCF2D" stroke-width="1.47968" stroke-miterlimit="10" stroke-linecap="round"/>
<path d="M707.704 388.536C707.704 388.536 687.58 346.415 668.27 359.83C648.961 373.246 694.288 388.536 694.288 388.536" stroke="#FFCF2D" stroke-width="1.47968" stroke-miterlimit="10" stroke-linecap="round"/>
<path d="M700.453 388.166C700.453 388.166 680.897 362.025 667.999 360.102" stroke="#FFCF2D" stroke-width="1.47968" stroke-miterlimit="10" stroke-linecap="round"/>
<path d="M725.139 388.289C725.139 388.289 714.56 363.652 705.188 349.053" stroke="#FFCF2D" stroke-width="1.47968" stroke-miterlimit="10" stroke-linecap="round"/>
<path d="M702.698 364.737C704.769 366.168 714.017 367.031 714.017 367.031C714.017 367.031 709.899 358.695 707.852 357.265C705.78 355.834 702.969 356.352 701.539 358.424C700.108 360.495 700.626 363.331 702.698 364.737Z" stroke="#FFCF2D" stroke-width="1.47968" stroke-miterlimit="10"/>
<path d="M694.51 347.918C696.582 349.349 705.83 350.212 705.83 350.212C705.83 350.212 701.711 341.876 699.664 340.446C697.593 339.016 694.781 339.534 693.351 341.605C691.921 343.677 692.439 346.513 694.51 347.918Z" stroke="#FFCF2D" stroke-width="1.47968" stroke-miterlimit="10"/>
<path d="M691.082 333.64C692.414 335.76 700.577 340.199 700.577 340.199C700.577 340.199 700.108 330.927 698.752 328.806C697.42 326.685 694.609 326.044 692.488 327.376C690.367 328.707 689.751 331.519 691.082 333.64Z" stroke="#FFCF2D" stroke-width="1.47968" stroke-miterlimit="10"/>
<path d="M719.813 355.909C719.837 358.424 715.349 366.562 715.349 366.562C715.349 366.562 710.762 358.473 710.737 355.982C710.713 353.467 712.735 351.42 715.25 351.42C717.741 351.395 719.788 353.393 719.813 355.909Z" stroke="#FFCF2D" stroke-width="1.47968" stroke-miterlimit="10"/>
<path d="M710.639 339.287C710.663 341.803 706.175 349.941 706.175 349.941C706.175 349.941 701.588 341.852 701.563 339.361C701.539 336.846 703.561 334.799 706.076 334.799C708.592 334.799 710.614 336.796 710.639 339.287Z" stroke="#FFCF2D" stroke-width="1.47968" stroke-miterlimit="10"/>
<path d="M118.867 388.586H23.2065" stroke="#66B0F0" stroke-width="1.47968" stroke-miterlimit="10"/>
<path d="M825.634 388.586H324.172" stroke="#66B0F0" stroke-width="1.47968" stroke-miterlimit="10"/>
<path d="M456.779 34.3569H360.156C340.624 34.3569 322.375 43.9748 311.326 60.054L267.059 125.258C263.41 130.561 266.714 137.786 273.151 137.786H322.424L342.104 112.065C344.422 108.809 349.551 110.24 349.872 114.235L353.842 162.67H459.22L468.098 113.421C468.641 109.574 473.622 108.39 475.866 111.571L493.943 134.852H552.859L506.89 62.0022C496.015 44.7886 477.099 34.3569 456.779 34.3569Z" fill="white" stroke="#3FB1B5" stroke-width="1.47968" stroke-miterlimit="10" stroke-linecap="round"/>
<path d="M397.912 59.5112L382.252 111.522H420.946L403.757 59.5112H397.912Z" fill="#FE5244"/>
<g opacity="0.2">
<g opacity="0.2">
<g opacity="0.2">
<path opacity="0.2" d="M410.392 79.6101V111.522H411.427V82.7421L411.082 81.6817L410.392 79.6101Z" fill="white"/>
</g>
<g opacity="0.2">
<path opacity="0.2" d="M399.368 59.6345H400.404V111.522H399.368V59.6345Z" fill="white"/>
</g>
<g opacity="0.2">
<path opacity="0.2" d="M388.344 91.2751V111.522H389.38V87.8225L388.344 91.2751Z" fill="white"/>
</g>
</g>
<g opacity="0.2">
<g opacity="0.2">
<path opacity="0.2" d="M384.275 104.789H418.727L418.382 103.729H384.596L384.275 104.789Z" fill="white"/>
</g>
<g opacity="0.2">
<path opacity="0.2" d="M387.604 93.766H415.077L414.731 92.7056H387.925L387.604 93.766Z" fill="white"/>
</g>
<g opacity="0.2">
<path opacity="0.2" d="M390.909 82.7425H411.427L411.082 81.6821H391.23L390.909 82.7425Z" fill="white"/>
</g>
<g opacity="0.2">
<path opacity="0.2" d="M394.238 71.7189H407.777L407.432 70.6584H394.559L394.238 71.7189Z" fill="white"/>
</g>
<g opacity="0.2">
<path opacity="0.2" d="M397.568 60.6949H404.128L403.783 59.6345H397.864L397.568 60.6949Z" fill="white"/>
</g>
</g>
</g>
<path d="M390.908 58.9689L384.595 65.7507L364.249 34.3569H382.277L390.908 58.9689Z" fill="white" stroke="#3FB1B5" stroke-width="1.47968" stroke-miterlimit="10" stroke-linecap="round"/>
<path d="M409.626 58.9689L415.964 65.7507L438.011 34.3569H418.282L409.626 58.9689Z" fill="white" stroke="#3FB1B5" stroke-width="1.47968" stroke-miterlimit="10" stroke-linecap="round"/>
<path d="M259.316 143.755C259.316 156.036 268.071 167.676 281.684 169.674L337.492 177.886L349.749 179.686V132.238L345.976 131.35L291.523 118.428C281.018 115.937 270.068 120.154 263.952 129.057C260.771 133.644 259.316 138.749 259.316 143.755Z" fill="#E58E72"/>
<path d="M337.492 177.886L349.749 179.686V132.238L345.976 131.35L337.492 177.886Z" fill="#9A3B82"/>
<path d="M349.749 191.82H467.062V121.412C467.062 115.937 462.623 111.523 457.173 111.523H359.663C354.188 111.523 349.773 115.962 349.773 121.412V191.82H349.749Z" fill="#FFCF2D"/>
<path d="M401.168 157.294H415.644C417.123 157.294 418.307 156.11 418.307 154.631V148.564C418.307 147.084 417.123 145.901 415.644 145.901H401.168C399.688 145.901 398.504 147.084 398.504 148.564V154.631C398.504 156.11 399.713 157.294 401.168 157.294Z" stroke="white" stroke-width="1.23306" stroke-miterlimit="10"/>
<path d="M425.853 191.055L301.658 172.485C277.49 168.811 255.714 187.529 255.714 211.993C255.714 234.064 273.594 251.944 295.666 251.944H425.039L425.853 191.055Z" fill="#0096A0"/>
<path d="M442.647 262.82L517.395 277.246C526.914 279.269 536.483 271.328 536.902 261.069L538.012 233.793C538.579 219.983 525.336 211.672 512.857 217.591L442.647 262.82Z" fill="white" stroke="#FE5244" stroke-width="1.47968" stroke-miterlimit="10"/>
<path d="M512.339 276.26C521.538 278.184 530.835 270.465 531.279 260.477L532.438 233.991C533.03 220.575 520.255 212.585 508.171 218.355" stroke="#FE5244" stroke-width="1.47968" stroke-miterlimit="10"/>
<path d="M512.857 217.566L442.647 262.82L458.652 265.902L512.857 217.566Z" fill="#FE5244"/>
<path d="M485.804 237.393L495.051 255.815L504.201 234.163L514.781 258.479" stroke="#FE5244" stroke-width="1.47968" stroke-miterlimit="10" stroke-linejoin="round"/>
<path d="M515.298 230.784L504.941 256.629L494.805 235.988L486.938 253.201" stroke="#FE5244" stroke-width="1.47968" stroke-miterlimit="10" stroke-linejoin="round"/>
<path d="M384.594 229.009C388.737 225.605 400.723 233.349 411.376 246.296C422.03 259.243 427.308 272.511 423.165 275.914C423.781 275.544 501.637 226.715 549.948 193.398C562.229 184.939 568.715 171.375 568.715 157.639C568.715 148.07 565.559 138.428 559.023 130.364C542.648 110.166 512.315 108.81 494.189 127.454L384.594 229.009Z" fill="#3FB1B5"/>
<path d="M396.408 258.613C385.758 245.664 380.484 232.404 384.628 228.995C388.773 225.587 400.766 233.32 411.416 246.269C422.066 259.217 427.339 272.478 423.195 275.886C419.051 279.295 407.058 271.561 396.408 258.613Z" fill="#FE5244" stroke="white" stroke-width="1.47968" stroke-miterlimit="10"/>
<path d="M350.315 271.623L364.174 295.15C371.203 307.061 387.085 307.283 394.36 295.545L417.689 257.961C415.692 254.656 413.226 251.204 410.39 247.751C405.26 241.512 399.81 236.481 395.075 233.324L357.935 247.455C348.86 250.932 345.111 262.77 350.315 271.623Z" fill="white" stroke="#FE5244" stroke-width="1.47968" stroke-miterlimit="10"/>
<path d="M361.856 245.926C353.274 249.256 350.241 260.378 355.149 268.886L368.219 291.451C374.828 302.894 389.798 303.091 396.678 291.846" stroke="#FE5244" stroke-width="1.47968" stroke-miterlimit="10"/>
<path d="M407.431 257.985L388.54 248.417L394.212 271.179L371.623 257.319" stroke="#FE5244" stroke-width="1.47968" stroke-miterlimit="10" stroke-linejoin="round"/>
<path d="M387.036 280.304L381.167 253.793L400.427 263.288L397.468 245.679" stroke="#FE5244" stroke-width="1.47968" stroke-miterlimit="10" stroke-linejoin="round"/>
<path d="M372.314 38.6241C372.412 40.2024 373.103 41.6082 374.188 42.6193C375.273 43.6304 376.703 44.2469 378.282 44.2469H383.732L384.077 49.993C384.373 54.728 389.083 59.5616 393.991 59.5616H407.777C412.66 59.5616 417.395 54.728 417.69 49.993L418.036 44.2469H423.56C425.138 44.2469 426.593 43.6304 427.654 42.6193C428.739 41.6082 429.429 40.2025 429.528 38.5995C429.725 35.1469 426.889 32.2862 423.437 32.2862H418.776L419.293 23.5314C419.392 21.6818 417.937 20.1282 416.087 20.1282H385.655C383.806 20.1282 382.351 21.6818 382.449 23.5314L382.967 32.2862H378.257C374.854 32.3109 372.116 35.1962 372.314 38.6241Z" fill="#E58E72"/>
<path d="M382.992 32.2862H378.035C378.035 32.2862 373.3 15.0973 377.862 10.6829C382.425 6.26857 410.44 -3.89188 419.491 2.44607C426.1 7.08239 422.499 32.2862 422.499 32.2862H418.849C418.849 32.2862 404.127 21.7312 401.808 22.6437C399.49 23.5561 408.467 27.9951 406.667 28.8583C399.934 32.0889 387.826 20.3748 385.039 20.3748C382.252 20.3748 382.992 32.2862 382.992 32.2862Z" fill="#9A3B82"/>
<path d="M389.231 36.5529C389.231 36.5529 392.462 33.9388 396.605 35.6404" stroke="#9A3B82" stroke-width="0.986451" stroke-miterlimit="10" stroke-linecap="round"/>
<path d="M403.529 54.491C403.529 54.491 401.561 51.4922 396.297 53.4466" stroke="#9A3B82" stroke-width="0.986451" stroke-miterlimit="10" stroke-linecap="round"/>
<path d="M413.794 35.6896C413.794 35.6896 407.259 34.2346 405.286 38.279C404.077 40.7698 404.669 49.4752 403.264 49.5739C401.858 49.6725 399.737 49.5739 399.737 49.5739" stroke="#9A3B82" stroke-width="0.986451" stroke-miterlimit="10" stroke-linecap="round"/>
<path d="M393.646 43.2607C393.006 43.2607 392.487 42.3995 392.487 41.3371C392.487 40.2748 393.006 39.4136 393.646 39.4136C394.286 39.4136 394.805 40.2748 394.805 41.3371C394.805 42.3995 394.286 43.2607 393.646 43.2607Z" fill="#9A3B82"/>
<path d="M408.64 43.2607C408 43.2607 407.481 42.3995 407.481 41.3371C407.481 40.2748 408 39.4136 408.64 39.4136C409.28 39.4136 409.799 40.2748 409.799 41.3371C409.799 42.3995 409.28 43.2607 408.64 43.2607Z" fill="#9A3B82"/>
<path d="M419.984 39.5123C420.132 37.0955 422.13 35.2212 424.546 35.2212" stroke="#9A3B82" stroke-width="0.986451" stroke-miterlimit="10" stroke-linecap="round"/>
<path d="M382.129 39.6356C381.981 37.0708 379.86 35.0732 377.32 35.0732" stroke="#9A3B82" stroke-width="0.986451" stroke-miterlimit="10" stroke-linecap="round"/>
</svg>
