<svg width="2040" height="1250" viewBox="0 0 2040 1250" fill="none" xmlns="http://www.w3.org/2000/svg">
<g filter="url(#filter0_f_1051_28677)">
<ellipse cx="1020" cy="625" rx="720" ry="325" fill="#C0E5E4" fill-opacity="0.4"/>
</g>
<path d="M554 908C553.735 908 553.48 908.105 553.293 908.293C553.105 908.48 553 908.735 553 909C553 909.265 553.105 909.52 553.293 909.707C553.48 909.895 553.735 910 554 910C554.265 910 554.52 909.895 554.707 909.707C554.895 909.52 555 909.265 555 909C555 908.735 554.895 908.48 554.707 908.293C554.52 908.105 554.265 908 554 908Z" fill="#F1BC19"/>
<path d="M560 907C558.939 907 557.922 907.421 557.172 908.172C556.421 908.922 556 909.939 556 911C556 912.061 556.421 913.078 557.172 913.829C557.922 914.579 558.939 915 560 915C561.061 915 562.078 914.579 562.828 913.829C563.579 913.078 564 912.061 564 911C564 909.939 563.579 908.922 562.828 908.172C562.078 907.421 561.061 907 560 907Z" fill="#00A7A7"/>
<path d="M565 918C564.47 918 563.961 918.211 563.586 918.586C563.211 918.961 563 919.47 563 920C563 920.53 563.211 921.039 563.586 921.414C563.961 921.789 564.47 922 565 922C565.53 922 566.039 921.789 566.414 921.414C566.789 921.039 567 920.53 567 920C567 919.47 566.789 918.961 566.414 918.586C566.039 918.211 565.53 918 565 918Z" fill="#EE3E54"/>
<path d="M1224.5 970C1224.37 970 1224.24 970.053 1224.15 970.146C1224.05 970.24 1224 970.367 1224 970.5C1224 970.633 1224.05 970.76 1224.15 970.854C1224.24 970.947 1224.37 971 1224.5 971C1224.63 971 1224.76 970.947 1224.85 970.854C1224.95 970.76 1225 970.633 1225 970.5C1225 970.367 1224.95 970.24 1224.85 970.146C1224.76 970.053 1224.63 970 1224.5 970Z" fill="#F1BC19"/>
<path d="M1228 970C1227.47 970 1226.96 970.211 1226.59 970.586C1226.21 970.961 1226 971.47 1226 972C1226 972.53 1226.21 973.039 1226.59 973.414C1226.96 973.789 1227.47 974 1228 974C1228.53 974 1229.04 973.789 1229.41 973.414C1229.79 973.039 1230 972.53 1230 972C1230 971.47 1229.79 970.961 1229.41 970.586C1229.04 970.211 1228.53 970 1228 970Z" fill="#F1BC19"/>
<path d="M1230 976C1229.73 976 1229.48 976.105 1229.29 976.293C1229.11 976.48 1229 976.735 1229 977C1229 977.265 1229.11 977.52 1229.29 977.707C1229.48 977.895 1229.73 978 1230 978C1230.27 978 1230.52 977.895 1230.71 977.707C1230.89 977.52 1231 977.265 1231 977C1231 976.735 1230.89 976.48 1230.71 976.293C1230.52 976.105 1230.27 976 1230 976Z" fill="#EE3E54"/>
<g filter="url(#filter1_ddd_1051_28677)">
<path d="M484.5 609.5C484.235 609.5 483.98 609.605 483.793 609.793C483.605 609.98 483.5 610.235 483.5 610.5C483.5 610.765 483.605 611.02 483.793 611.207C483.98 611.395 484.235 611.5 484.5 611.5C484.765 611.5 485.02 611.395 485.207 611.207C485.395 611.02 485.5 610.765 485.5 610.5C485.5 610.235 485.395 609.98 485.207 609.793C485.02 609.605 484.765 609.5 484.5 609.5Z" fill="#78A0CF"/>
<path d="M516.5 602C516.367 602 516.24 602.053 516.146 602.146C516.053 602.24 516 602.367 516 602.5C516 602.633 516.053 602.76 516.146 602.854C516.24 602.947 516.367 603 516.5 603C516.633 603 516.76 602.947 516.854 602.854C516.947 602.76 517 602.633 517 602.5C517 602.367 516.947 602.24 516.854 602.146C516.76 602.053 516.633 602 516.5 602Z" fill="#F1BC19"/>
<path d="M503 602.5C498.093 602.5 493.388 604.449 489.919 607.919C486.449 611.388 484.5 616.093 484.5 621C484.5 625.907 486.449 630.612 489.919 634.081C493.388 637.551 498.093 639.5 503 639.5C507.907 639.5 512.612 637.551 516.081 634.081C519.551 630.612 521.5 625.907 521.5 621C521.5 616.093 519.551 611.388 516.081 607.919C512.612 604.449 507.907 602.5 503 602.5Z" fill="#E3EFFB"/>
<path d="M519.5 601.5C518.97 601.5 518.461 601.711 518.086 602.086C517.711 602.461 517.5 602.97 517.5 603.5C517.5 604.03 517.711 604.539 518.086 604.914C518.461 605.289 518.97 605.5 519.5 605.5C520.03 605.5 520.539 605.289 520.914 604.914C521.289 604.539 521.5 604.03 521.5 603.5C521.5 602.97 521.289 602.461 520.914 602.086C520.539 601.711 520.03 601.5 519.5 601.5Z" fill="#F1BC19"/>
<path d="M521.5 607C521.235 607 520.98 607.105 520.793 607.293C520.605 607.48 520.5 607.735 520.5 608C520.5 608.265 520.605 608.52 520.793 608.707C520.98 608.895 521.235 609 521.5 609C521.765 609 522.02 608.895 522.207 608.707C522.395 608.52 522.5 608.265 522.5 608C522.5 607.735 522.395 607.48 522.207 607.293C522.02 607.105 521.765 607 521.5 607Z" fill="#78A0CF"/>
<path d="M518.5 633C518.235 633 517.98 633.105 517.793 633.293C517.605 633.48 517.5 633.735 517.5 634C517.5 634.265 517.605 634.52 517.793 634.707C517.98 634.895 518.235 635 518.5 635C518.765 635 519.02 634.895 519.207 634.707C519.395 634.52 519.5 634.265 519.5 634C519.5 633.735 519.395 633.48 519.207 633.293C519.02 633.105 518.765 633 518.5 633ZM485.5 625.5C484.97 625.5 484.461 625.711 484.086 626.086C483.711 626.461 483.5 626.97 483.5 627.5C483.5 628.03 483.711 628.539 484.086 628.914C484.461 629.289 484.97 629.5 485.5 629.5C486.03 629.5 486.539 629.289 486.914 628.914C487.289 628.539 487.5 628.03 487.5 627.5C487.5 626.97 487.289 626.461 486.914 626.086C486.539 625.711 486.03 625.5 485.5 625.5Z" fill="#FBCD59"/>
<path d="M490.5 638.5C490.235 638.5 489.98 638.605 489.793 638.793C489.605 638.98 489.5 639.235 489.5 639.5C489.5 639.765 489.605 640.02 489.793 640.207C489.98 640.395 490.235 640.5 490.5 640.5C490.765 640.5 491.02 640.395 491.207 640.207C491.395 640.02 491.5 639.765 491.5 639.5C491.5 639.235 491.395 638.98 491.207 638.793C491.02 638.605 490.765 638.5 490.5 638.5Z" fill="#78A0CF"/>
<path d="M487.25 621.5C486.918 621.5 486.601 621.632 486.366 621.866C486.132 622.101 486 622.418 486 622.75C486 623.082 486.132 623.399 486.366 623.634C486.601 623.868 486.918 624 487.25 624C487.582 624 487.899 623.868 488.134 623.634C488.368 623.399 488.5 623.082 488.5 622.75C488.5 622.418 488.368 622.101 488.134 621.866C487.899 621.632 487.582 621.5 487.25 621.5Z" fill="white"/>
<path d="M488.5 629C488.367 629 488.24 629.053 488.146 629.146C488.053 629.24 488 629.367 488 629.5C488 629.633 488.053 629.76 488.146 629.854C488.24 629.947 488.367 630 488.5 630C488.633 630 488.76 629.947 488.854 629.854C488.947 629.76 489 629.633 489 629.5C489 629.367 488.947 629.24 488.854 629.146C488.76 629.053 488.633 629 488.5 629Z" fill="#F1BC19"/>
<path d="M518 612.5C517.867 612.5 517.74 612.553 517.646 612.646C517.553 612.74 517.5 612.867 517.5 613C517.5 613.133 517.553 613.26 517.646 613.354C517.74 613.447 517.867 613.5 518 613.5C518.133 613.5 518.26 613.447 518.354 613.354C518.447 613.26 518.5 613.133 518.5 613C518.5 612.867 518.447 612.74 518.354 612.646C518.26 612.553 518.133 612.5 518 612.5Z" fill="white"/>
<path d="M511.376 611.785L500.626 614.482V627.51V628.29C500.628 629.494 499.183 631.029 496.767 631.961C494.049 633.008 491.443 632.856 490.946 631.62C490.449 630.384 492.25 628.534 494.968 627.486C496.219 627.003 497.325 626.859 498.334 626.873L498.334 626.527V612.723L513.64 608.844V623.683V624.463C513.642 625.667 511.951 627.233 509.536 628.164C506.818 629.211 504.211 629.059 503.714 627.823C503.217 626.587 505.018 624.737 507.736 623.689C508.988 623.206 510.366 622.899 511.375 622.914L511.375 622.568V611.785H511.376Z" fill="#EA5167"/>
<path d="M493.396 633.005C492.003 633.005 490.952 632.577 490.621 631.752C490.456 631.344 490.482 630.869 490.694 630.382C491.217 629.18 492.806 627.945 494.841 627.161C495.881 626.76 496.913 626.551 497.983 626.526V612.725C497.983 612.565 498.092 612.425 498.247 612.385L513.553 608.506C513.656 608.478 513.769 608.502 513.854 608.569C513.94 608.635 513.99 608.737 513.99 608.845V624.465C513.992 625.852 512.212 627.509 509.661 628.492C506.721 629.625 503.966 629.39 503.39 627.956C503.225 627.548 503.251 627.073 503.463 626.586C503.986 625.383 505.575 624.149 507.61 623.364C508.797 622.907 510.042 622.621 511.025 622.573V612.235L500.976 614.757V628.291C500.978 629.739 499.337 631.346 496.893 632.288C495.642 632.77 494.426 633.005 493.396 633.005ZM498.201 627.224C497.14 627.224 496.122 627.417 495.093 627.814C493.254 628.522 491.78 629.64 491.336 630.661C491.198 630.977 491.176 631.256 491.27 631.491C491.634 632.397 493.93 632.681 496.64 631.635C499.028 630.714 500.276 629.256 500.275 628.291V614.484C500.275 614.323 500.385 614.183 500.54 614.144L511.29 611.446C511.394 611.419 511.505 611.444 511.59 611.51C511.675 611.576 511.725 611.678 511.725 611.786L511.726 622.916C511.726 623.01 511.688 623.099 511.622 623.165C511.555 623.232 511.477 623.283 511.371 623.266C510.413 623.256 509.117 623.533 507.862 624.017C506.024 624.726 504.549 625.843 504.105 626.865C503.967 627.181 503.945 627.46 504.039 627.695C504.403 628.601 506.697 628.884 509.409 627.838C511.931 626.867 513.291 625.375 513.289 624.465V609.295L498.683 612.997L498.684 626.874C498.684 626.968 498.646 627.058 498.58 627.124C498.513 627.19 498.42 627.231 498.329 627.225C498.286 627.224 498.244 627.224 498.201 627.224Z" fill="#472B29"/>
<path d="M500.709 616.583L509.15 614.541L500.709 616.583Z" fill="#1F212B"/>
<path d="M500.71 616.833C500.597 616.833 500.495 616.756 500.467 616.641C500.435 616.507 500.518 616.372 500.652 616.339L509.093 614.297C509.229 614.267 509.363 614.348 509.395 614.482C509.428 614.615 509.345 614.751 509.211 614.784L500.769 616.826C500.749 616.83 500.729 616.833 500.71 616.833ZM507.891 627.389C507.834 627.389 507.783 627.35 507.77 627.292C507.754 627.225 507.796 627.157 507.863 627.142C509.515 626.761 510.882 625.936 511.453 625.33C511.5 625.279 511.579 625.277 511.63 625.325C511.68 625.372 511.682 625.451 511.635 625.502C511.039 626.134 509.623 626.993 507.92 627.386C507.91 627.388 507.901 627.389 507.891 627.389ZM506.138 627.596C505.838 627.596 505.543 627.577 505.256 627.54C505.188 627.53 505.14 627.468 505.148 627.4C505.157 627.332 505.22 627.283 505.288 627.292C505.637 627.338 506.002 627.356 506.371 627.342C506.429 627.342 506.498 627.394 506.5 627.463C506.503 627.532 506.448 627.59 506.38 627.592C506.299 627.594 506.219 627.596 506.138 627.596ZM493.314 631.511C493.144 631.511 492.99 631.502 492.855 631.484C492.787 631.475 492.739 631.412 492.747 631.344C492.756 631.276 492.819 631.228 492.887 631.236C493.715 631.343 495.294 631.119 496.814 630.369C496.875 630.339 496.95 630.363 496.981 630.426C497.012 630.488 496.986 630.562 496.924 630.593C495.603 631.245 494.229 631.511 493.314 631.511ZM495.388 628.768C495.338 628.768 495.292 628.738 495.272 628.689C495.247 628.625 495.278 628.552 495.342 628.527C496.008 628.262 496.681 628.087 497.525 627.959C497.598 627.946 497.657 627.996 497.667 628.064C497.677 628.133 497.63 628.196 497.562 628.206C496.738 628.331 496.081 628.501 495.435 628.759C495.42 628.765 495.404 628.768 495.388 628.768Z" fill="#472B29"/>
<path d="M493.731 629.625C493.689 629.625 493.649 629.605 493.625 629.567C493.588 629.508 493.606 629.431 493.664 629.394C493.92 629.234 494.173 629.088 494.414 628.96C494.475 628.928 494.55 628.95 494.583 629.012C494.615 629.073 494.592 629.148 494.531 629.181C494.295 629.306 494.048 629.449 493.797 629.607C493.777 629.619 493.754 629.625 493.731 629.625Z" fill="#472B29"/>
<path d="M497.875 629.999C497.834 629.999 497.793 629.978 497.769 629.94C497.733 629.881 497.751 629.804 497.809 629.767C498.326 629.447 498.775 628.989 498.901 628.856C498.948 628.806 499.027 628.803 499.078 628.851C499.128 628.898 499.13 628.977 499.083 629.028C498.952 629.166 498.485 629.644 497.942 629.98C497.921 629.993 497.898 629.999 497.875 629.999Z" fill="#472B29"/>
</g>
<g filter="url(#filter2_ddd_1051_28677)">
<path d="M1323.5 827.5C1323.23 827.5 1322.98 827.605 1322.79 827.793C1322.61 827.98 1322.5 828.235 1322.5 828.5C1322.5 828.765 1322.61 829.02 1322.79 829.207C1322.98 829.395 1323.23 829.5 1323.5 829.5C1323.77 829.5 1324.02 829.395 1324.21 829.207C1324.39 829.02 1324.5 828.765 1324.5 828.5C1324.5 828.235 1324.39 827.98 1324.21 827.793C1324.02 827.605 1323.77 827.5 1323.5 827.5Z" fill="#F1BC19"/>
<path d="M1355.5 820C1355.37 820 1355.24 820.053 1355.15 820.146C1355.05 820.24 1355 820.367 1355 820.5C1355 820.633 1355.05 820.76 1355.15 820.854C1355.24 820.947 1355.37 821 1355.5 821C1355.63 821 1355.76 820.947 1355.85 820.854C1355.95 820.76 1356 820.633 1356 820.5C1356 820.367 1355.95 820.24 1355.85 820.146C1355.76 820.053 1355.63 820 1355.5 820Z" fill="#F1BC19"/>
<path d="M1342 820.5C1337.09 820.5 1332.39 822.449 1328.92 825.919C1325.45 829.388 1323.5 834.093 1323.5 839C1323.5 843.907 1325.45 848.612 1328.92 852.081C1332.39 855.551 1337.09 857.5 1342 857.5C1346.91 857.5 1351.61 855.551 1355.08 852.081C1358.55 848.612 1360.5 843.907 1360.5 839C1360.5 834.093 1358.55 829.388 1355.08 825.919C1351.61 822.449 1346.91 820.5 1342 820.5Z" fill="#FCE0A2"/>
<path d="M1358.5 819.5C1357.97 819.5 1357.46 819.711 1357.09 820.086C1356.71 820.461 1356.5 820.97 1356.5 821.5C1356.5 822.03 1356.71 822.539 1357.09 822.914C1357.46 823.289 1357.97 823.5 1358.5 823.5C1359.03 823.5 1359.54 823.289 1359.91 822.914C1360.29 822.539 1360.5 822.03 1360.5 821.5C1360.5 820.97 1360.29 820.461 1359.91 820.086C1359.54 819.711 1359.03 819.5 1358.5 819.5Z" fill="#F1BC19"/>
<path d="M1360.5 825C1360.23 825 1359.98 825.105 1359.79 825.293C1359.61 825.48 1359.5 825.735 1359.5 826C1359.5 826.265 1359.61 826.52 1359.79 826.707C1359.98 826.895 1360.23 827 1360.5 827C1360.77 827 1361.02 826.895 1361.21 826.707C1361.39 826.52 1361.5 826.265 1361.5 826C1361.5 825.735 1361.39 825.48 1361.21 825.293C1361.02 825.105 1360.77 825 1360.5 825Z" fill="#F1BC19"/>
<path d="M1357.5 851C1357.23 851 1356.98 851.105 1356.79 851.293C1356.61 851.48 1356.5 851.735 1356.5 852C1356.5 852.265 1356.61 852.52 1356.79 852.707C1356.98 852.895 1357.23 853 1357.5 853C1357.77 853 1358.02 852.895 1358.21 852.707C1358.39 852.52 1358.5 852.265 1358.5 852C1358.5 851.735 1358.39 851.48 1358.21 851.293C1358.02 851.105 1357.77 851 1357.5 851ZM1324.5 843.5C1323.97 843.5 1323.46 843.711 1323.09 844.086C1322.71 844.461 1322.5 844.97 1322.5 845.5C1322.5 846.03 1322.71 846.539 1323.09 846.914C1323.46 847.289 1323.97 847.5 1324.5 847.5C1325.03 847.5 1325.54 847.289 1325.91 846.914C1326.29 846.539 1326.5 846.03 1326.5 845.5C1326.5 844.97 1326.29 844.461 1325.91 844.086C1325.54 843.711 1325.03 843.5 1324.5 843.5Z" fill="#FBCD59"/>
<path d="M1329.5 856.5C1329.23 856.5 1328.98 856.605 1328.79 856.793C1328.61 856.98 1328.5 857.235 1328.5 857.5C1328.5 857.765 1328.61 858.02 1328.79 858.207C1328.98 858.395 1329.23 858.5 1329.5 858.5C1329.77 858.5 1330.02 858.395 1330.21 858.207C1330.39 858.02 1330.5 857.765 1330.5 857.5C1330.5 857.235 1330.39 856.98 1330.21 856.793C1330.02 856.605 1329.77 856.5 1329.5 856.5Z" fill="#F1BC19"/>
<path d="M1326.25 839.5C1325.92 839.5 1325.6 839.632 1325.37 839.866C1325.13 840.101 1325 840.418 1325 840.75C1325 841.082 1325.13 841.399 1325.37 841.634C1325.6 841.868 1325.92 842 1326.25 842C1326.58 842 1326.9 841.868 1327.13 841.634C1327.37 841.399 1327.5 841.082 1327.5 840.75C1327.5 840.418 1327.37 840.101 1327.13 839.866C1326.9 839.632 1326.58 839.5 1326.25 839.5Z" fill="white"/>
<path d="M1327.5 847C1327.37 847 1327.24 847.053 1327.15 847.146C1327.05 847.24 1327 847.367 1327 847.5C1327 847.633 1327.05 847.76 1327.15 847.854C1327.24 847.947 1327.37 848 1327.5 848C1327.63 848 1327.76 847.947 1327.85 847.854C1327.95 847.76 1328 847.633 1328 847.5C1328 847.367 1327.95 847.24 1327.85 847.146C1327.76 847.053 1327.63 847 1327.5 847Z" fill="#F1BC19"/>
<path d="M1357 830.5C1356.87 830.5 1356.74 830.553 1356.65 830.646C1356.55 830.74 1356.5 830.867 1356.5 831C1356.5 831.133 1356.55 831.26 1356.65 831.354C1356.74 831.447 1356.87 831.5 1357 831.5C1357.13 831.5 1357.26 831.447 1357.35 831.354C1357.45 831.26 1357.5 831.133 1357.5 831C1357.5 830.867 1357.45 830.74 1357.35 830.646C1357.26 830.553 1357.13 830.5 1357 830.5Z" fill="white"/>
<path d="M1349.26 849.924H1335.5C1334.71 849.924 1334.07 849.285 1334.07 848.499C1334.07 847.713 1334.71 847.074 1335.5 847.074H1349.26L1349.08 847.281C1348.79 847.623 1348.62 848.055 1348.62 848.499C1348.62 848.943 1348.79 849.376 1349.08 849.718L1349.26 849.924Z" fill="#E1E0D8"/>
<path d="M1334.07 847.264V829.499C1334.07 828.713 1334.71 828.074 1335.5 828.074H1348.5C1349.28 828.074 1349.92 828.713 1349.92 829.499V846.624H1335.5C1335.05 846.624 1334.63 846.784 1334.28 847.085L1334.07 847.264Z" fill="#BD977C"/>
<path d="M1338.5 828.074H1335.5C1334.71 828.074 1334.07 828.713 1334.07 829.499V847.264L1334.28 847.086C1334.63 846.784 1335.05 846.625 1335.5 846.625H1338.5V828.074Z" fill="#9F8066"/>
<path d="M1350.3 847.215C1350.42 847.197 1350.5 847.09 1350.5 846.972V829.5C1350.5 828.395 1349.6 827.5 1348.5 827.5H1335.5C1334.4 827.5 1333.5 828.395 1333.5 829.5V848.5C1333.5 848.776 1333.56 849.039 1333.66 849.278C1333.76 849.518 1333.9 849.734 1334.09 849.914C1334.18 850.005 1334.28 850.087 1334.38 850.158C1334.59 850.302 1334.84 850.406 1335.1 850.459C1335.23 850.486 1335.36 850.5 1335.5 850.5C1335.54 850.5 1350.12 850.5 1350.15 850.5C1350.34 850.5 1350.5 850.344 1350.5 850.151C1350.5 850.151 1350.5 850.151 1350.5 850.15C1350.5 850.15 1350.5 850.15 1350.5 850.15C1350.5 850.149 1350.5 850.147 1350.5 850.146C1350.5 849.958 1350.36 849.806 1350.18 849.76C1349.62 849.617 1349.2 849.107 1349.2 848.5C1349.2 847.851 1349.68 847.312 1350.3 847.215ZM1335.5 828.2H1348.5C1349.22 828.2 1349.8 828.782 1349.8 829.5V846.5C1349.8 846.5 1336.51 846.5 1335.5 846.5C1335 846.5 1334.55 846.69 1334.2 846.992V829.5C1334.2 828.782 1334.78 828.2 1335.5 828.2ZM1335.5 849.8C1334.78 849.8 1334.2 849.217 1334.2 848.5C1334.2 847.783 1334.78 847.2 1335.5 847.2H1348.99C1348.69 847.549 1348.5 848 1348.5 848.5C1348.5 848.998 1348.69 849.45 1348.99 849.8H1335.5Z" fill="#472B29"/>
<path d="M1338.31 841.5C1338.21 841.5 1338.12 841.416 1338.12 841.312V836.188C1338.12 836.084 1338.21 836 1338.31 836C1338.42 836 1338.5 836.084 1338.5 836.188V841.312C1338.5 841.416 1338.42 841.5 1338.31 841.5ZM1338.31 844C1338.21 844 1338.12 843.916 1338.12 843.812V843.188C1338.12 843.084 1338.21 843 1338.31 843C1338.42 843 1338.5 843.084 1338.5 843.188V843.812C1338.5 843.916 1338.42 844 1338.31 844ZM1338.31 845.5C1338.21 845.5 1338.12 845.416 1338.12 845.312V844.688C1338.12 844.584 1338.21 844.5 1338.31 844.5C1338.42 844.5 1338.5 844.584 1338.5 844.688V845.312C1338.5 845.416 1338.42 845.5 1338.31 845.5ZM1348.81 848.5H1336.19C1336.08 848.5 1336 848.416 1336 848.312C1336 848.209 1336.08 848.125 1336.19 848.125H1348.81C1348.92 848.125 1349 848.209 1349 848.312C1349 848.416 1348.92 848.5 1348.81 848.5ZM1348.81 849.375H1341.19C1341.08 849.375 1341 849.291 1341 849.188C1341 849.084 1341.08 849 1341.19 849H1348.81C1348.92 849 1349 849.084 1349 849.188C1349 849.291 1348.92 849.375 1348.81 849.375ZM1340.31 849.375H1339.69C1339.58 849.375 1339.5 849.291 1339.5 849.188C1339.5 849.084 1339.58 849 1339.69 849H1340.31C1340.42 849 1340.5 849.084 1340.5 849.188C1340.5 849.291 1340.42 849.375 1340.31 849.375Z" fill="#472B29"/>
<path d="M1336.12 827.125H1341.38V837.375L1338.75 836.188L1336.12 837.375V827.125Z" fill="#EE3E54"/>
<path d="M1341.31 837.5C1341.29 837.5 1341.26 837.495 1341.24 837.484L1338.75 836.392L1336.26 837.485C1336.21 837.51 1336.14 837.504 1336.08 837.47C1336.03 837.435 1336 837.375 1336 837.312V827.188C1336 827.084 1336.08 827 1336.19 827H1341.31C1341.42 827 1341.5 827.084 1341.5 827.188V837.312C1341.5 837.375 1341.47 837.435 1341.42 837.469C1341.38 837.49 1341.35 837.5 1341.31 837.5ZM1338.75 836C1338.78 836 1338.8 836.006 1338.83 836.016L1341.12 837.025V827.375H1336.38V837.025L1338.67 836.016C1338.7 836.006 1338.72 836 1338.75 836Z" fill="#472B29"/>
</g>
<g filter="url(#filter3_ddd_1051_28677)">
<path d="M1075.5 438.5C1075.23 438.5 1074.98 438.605 1074.79 438.793C1074.61 438.98 1074.5 439.235 1074.5 439.5C1074.5 439.765 1074.61 440.02 1074.79 440.207C1074.98 440.395 1075.23 440.5 1075.5 440.5C1075.77 440.5 1076.02 440.395 1076.21 440.207C1076.39 440.02 1076.5 439.765 1076.5 439.5C1076.5 439.235 1076.39 438.98 1076.21 438.793C1076.02 438.605 1075.77 438.5 1075.5 438.5Z" fill="#78A0CF"/>
<path d="M1107.5 431C1107.37 431 1107.24 431.053 1107.15 431.146C1107.05 431.24 1107 431.367 1107 431.5C1107 431.633 1107.05 431.76 1107.15 431.854C1107.24 431.947 1107.37 432 1107.5 432C1107.63 432 1107.76 431.947 1107.85 431.854C1107.95 431.76 1108 431.633 1108 431.5C1108 431.367 1107.95 431.24 1107.85 431.146C1107.76 431.053 1107.63 431 1107.5 431Z" fill="#F1BC19"/>
<path d="M1094 431.5C1089.09 431.5 1084.39 433.449 1080.92 436.919C1077.45 440.388 1075.5 445.093 1075.5 450C1075.5 454.907 1077.45 459.612 1080.92 463.081C1084.39 466.551 1089.09 468.5 1094 468.5C1098.91 468.5 1103.61 466.551 1107.08 463.081C1110.55 459.612 1112.5 454.907 1112.5 450C1112.5 445.093 1110.55 440.388 1107.08 436.919C1103.61 433.449 1098.91 431.5 1094 431.5Z" fill="#E3EFFB"/>
<path d="M1110.5 430.5C1109.97 430.5 1109.46 430.711 1109.09 431.086C1108.71 431.461 1108.5 431.97 1108.5 432.5C1108.5 433.03 1108.71 433.539 1109.09 433.914C1109.46 434.289 1109.97 434.5 1110.5 434.5C1111.03 434.5 1111.54 434.289 1111.91 433.914C1112.29 433.539 1112.5 433.03 1112.5 432.5C1112.5 431.97 1112.29 431.461 1111.91 431.086C1111.54 430.711 1111.03 430.5 1110.5 430.5Z" fill="#F1BC19"/>
<path d="M1112.5 436C1112.23 436 1111.98 436.105 1111.79 436.293C1111.61 436.48 1111.5 436.735 1111.5 437C1111.5 437.265 1111.61 437.52 1111.79 437.707C1111.98 437.895 1112.23 438 1112.5 438C1112.77 438 1113.02 437.895 1113.21 437.707C1113.39 437.52 1113.5 437.265 1113.5 437C1113.5 436.735 1113.39 436.48 1113.21 436.293C1113.02 436.105 1112.77 436 1112.5 436Z" fill="#78A0CF"/>
<path d="M1109.5 462C1109.23 462 1108.98 462.105 1108.79 462.293C1108.61 462.48 1108.5 462.735 1108.5 463C1108.5 463.265 1108.61 463.52 1108.79 463.707C1108.98 463.895 1109.23 464 1109.5 464C1109.77 464 1110.02 463.895 1110.21 463.707C1110.39 463.52 1110.5 463.265 1110.5 463C1110.5 462.735 1110.39 462.48 1110.21 462.293C1110.02 462.105 1109.77 462 1109.5 462ZM1076.5 454.5C1075.97 454.5 1075.46 454.711 1075.09 455.086C1074.71 455.461 1074.5 455.97 1074.5 456.5C1074.5 457.03 1074.71 457.539 1075.09 457.914C1075.46 458.289 1075.97 458.5 1076.5 458.5C1077.03 458.5 1077.54 458.289 1077.91 457.914C1078.29 457.539 1078.5 457.03 1078.5 456.5C1078.5 455.97 1078.29 455.461 1077.91 455.086C1077.54 454.711 1077.03 454.5 1076.5 454.5Z" fill="#FBCD59"/>
<path d="M1081.5 467.5C1081.23 467.5 1080.98 467.605 1080.79 467.793C1080.61 467.98 1080.5 468.235 1080.5 468.5C1080.5 468.765 1080.61 469.02 1080.79 469.207C1080.98 469.395 1081.23 469.5 1081.5 469.5C1081.77 469.5 1082.02 469.395 1082.21 469.207C1082.39 469.02 1082.5 468.765 1082.5 468.5C1082.5 468.235 1082.39 467.98 1082.21 467.793C1082.02 467.605 1081.77 467.5 1081.5 467.5Z" fill="#78A0CF"/>
<path d="M1078.25 450.5C1077.92 450.5 1077.6 450.632 1077.37 450.866C1077.13 451.101 1077 451.418 1077 451.75C1077 452.082 1077.13 452.399 1077.37 452.634C1077.6 452.868 1077.92 453 1078.25 453C1078.58 453 1078.9 452.868 1079.13 452.634C1079.37 452.399 1079.5 452.082 1079.5 451.75C1079.5 451.418 1079.37 451.101 1079.13 450.866C1078.9 450.632 1078.58 450.5 1078.25 450.5Z" fill="white"/>
<path d="M1079.5 458C1079.37 458 1079.24 458.053 1079.15 458.146C1079.05 458.24 1079 458.367 1079 458.5C1079 458.633 1079.05 458.76 1079.15 458.854C1079.24 458.947 1079.37 459 1079.5 459C1079.63 459 1079.76 458.947 1079.85 458.854C1079.95 458.76 1080 458.633 1080 458.5C1080 458.367 1079.95 458.24 1079.85 458.146C1079.76 458.053 1079.63 458 1079.5 458Z" fill="#F1BC19"/>
<path d="M1109 441.5C1108.87 441.5 1108.74 441.553 1108.65 441.646C1108.55 441.74 1108.5 441.867 1108.5 442C1108.5 442.133 1108.55 442.26 1108.65 442.354C1108.74 442.447 1108.87 442.5 1109 442.5C1109.13 442.5 1109.26 442.447 1109.35 442.354C1109.45 442.26 1109.5 442.133 1109.5 442C1109.5 441.867 1109.45 441.74 1109.35 441.646C1109.26 441.553 1109.13 441.5 1109 441.5Z" fill="white"/>
<path d="M1086.5 461.15C1084.5 461.15 1082.85 459.5 1082.85 457.5V442.5C1082.85 440.5 1084.5 438.85 1086.5 438.85H1101.5C1103.5 438.85 1105.15 440.5 1105.15 442.5V457.5C1105.15 459.5 1103.5 461.15 1101.5 461.15H1086.5Z" fill="#BABCE2"/>
<path d="M1101.5 439.2C1103.3 439.2 1104.8 440.7 1104.8 442.5V457.5C1104.8 459.3 1103.3 460.8 1101.5 460.8H1086.5C1084.7 460.8 1083.2 459.3 1083.2 457.5V442.5C1083.2 440.7 1084.7 439.2 1086.5 439.2H1101.5ZM1101.5 438.5H1086.5C1084.3 438.5 1082.5 440.3 1082.5 442.5V457.5C1082.5 459.7 1084.3 461.5 1086.5 461.5H1101.5C1103.7 461.5 1105.5 459.7 1105.5 457.5V442.5C1105.5 440.3 1103.7 438.5 1101.5 438.5Z" fill="#472B29"/>
<path d="M1103.25 448.95V449.85V457C1103.25 458.25 1102.25 459.25 1101 459.25H1087C1085.75 459.25 1084.75 458.25 1084.75 457V443C1084.75 441.75 1085.75 440.75 1087 440.75H1099.7H1101C1102.25 440.75 1103.25 441.75 1103.25 443V444.7V445.7V446.2V446.75V448.2V448.95Z" fill="#FDFCEE"/>
<path d="M1103.25 448.7C1103.1 448.7 1103 448.6 1103 448.45V446.5C1103 446.35 1103.1 446.25 1103.25 446.25C1103.4 446.25 1103.5 446.35 1103.5 446.5V448.45C1103.5 448.6 1103.4 448.7 1103.25 448.7ZM1103.25 445.25C1103.1 445.25 1103 445.15 1103 445V444C1103 443.85 1103.1 443.75 1103.25 443.75C1103.4 443.75 1103.5 443.85 1103.5 444V445C1103.5 445.15 1103.4 445.25 1103.25 445.25Z" fill="#472B29"/>
<path d="M1101 459.5H1087C1085.6 459.5 1084.5 458.4 1084.5 457V443C1084.5 441.6 1085.6 440.5 1087 440.5H1099.7C1099.85 440.5 1099.95 440.6 1099.95 440.75C1099.95 440.9 1099.85 441 1099.7 441H1087C1085.9 441 1085 441.9 1085 443V457C1085 458.1 1085.9 459 1087 459H1101C1102.1 459 1103 458.1 1103 457V449.8C1103 449.65 1103.1 449.55 1103.25 449.55C1103.4 449.55 1103.5 449.65 1103.5 449.8V457C1103.5 458.4 1102.4 459.5 1101 459.5Z" fill="#472B29"/>
<path d="M1099.05 449.9C1099.05 449.15 1099.45 448.7 1100.1 448.4C1100.05 448 1099.6 446.85 1099.35 446.55C1098.7 446.85 1098.1 446.8 1097.55 446.3C1097 445.8 1097 445.15 1097.3 444.5C1096.75 444.15 1096.1 443.9 1095.45 443.75C1095.25 444.4 1094.8 444.8 1094.15 444.85C1093.35 444.9 1092.85 444.5 1092.55 443.75C1091.9 443.9 1091.3 444.15 1090.7 444.5C1091 445.15 1090.95 445.75 1090.45 446.3C1089.95 446.85 1089.3 446.9 1088.65 446.55C1088.3 447.1 1088.05 447.75 1087.9 448.4C1088.55 448.65 1088.95 449.1 1089 449.8C1089 450.55 1088.6 451 1087.95 451.3C1088.1 451.95 1088.35 452.55 1088.7 453.1C1089.35 452.8 1089.95 452.85 1090.45 453.35C1090.95 453.85 1091.05 454.45 1090.75 455.1C1091.3 455.45 1091.95 455.7 1092.6 455.85V455.8C1092.85 455.2 1093.35 454.8 1094 454.8C1094.65 454.8 1095.2 455.15 1095.45 455.8C1095.5 455.85 1095.5 455.85 1095.55 455.85C1096.15 455.7 1096.7 455.45 1097.2 455.15C1097.25 455.15 1097.25 455.1 1097.3 455.1C1097.05 454.6 1097.05 454 1097.5 453.5C1098 452.9 1098.65 452.8 1099.35 453.1C1099.7 452.55 1099.95 451.95 1100.1 451.3C1099.45 451.05 1099.05 450.6 1099.05 449.9ZM1094 450.95C1093.4 450.95 1092.95 450.45 1092.95 449.9C1092.95 449.3 1093.45 448.85 1094.05 448.85C1094.65 448.85 1095.1 449.35 1095.1 449.95C1095.05 450.45 1094.6 450.95 1094 450.95Z" fill="#BCBCE2"/>
<path d="M1092.6 456.149C1092.6 456.149 1092.55 456.099 1092.6 456.149C1091.9 455.999 1091.25 455.749 1090.7 455.399C1090.6 455.349 1090.6 455.249 1090.65 455.149C1090.9 454.549 1090.85 453.999 1090.4 453.599C1089.95 453.199 1089.45 453.099 1088.85 453.399C1088.75 453.449 1088.65 453.399 1088.6 453.349C1088.25 452.749 1087.95 452.149 1087.8 451.499C1087.8 451.399 1087.85 451.299 1087.9 451.299C1088.55 451.049 1088.85 450.599 1088.85 449.999C1088.85 449.399 1088.5 448.999 1087.9 448.749C1087.8 448.699 1087.75 448.649 1087.8 448.549C1087.95 447.899 1088.2 447.249 1088.55 446.649C1088.6 446.549 1088.7 446.549 1088.8 446.599C1089.45 446.899 1089.95 446.799 1090.4 446.349C1090.85 445.899 1090.9 445.399 1090.6 444.749C1090.55 444.649 1090.6 444.549 1090.65 444.499C1091.2 444.149 1091.85 443.899 1092.55 443.699C1092.65 443.699 1092.75 443.749 1092.75 443.799C1093 444.499 1093.45 444.799 1094.15 444.749C1094.7 444.699 1095.1 444.399 1095.3 443.799C1095.35 443.699 1095.4 443.649 1095.5 443.699C1096.15 443.849 1096.8 444.099 1097.4 444.499C1097.5 444.549 1097.5 444.649 1097.45 444.749C1097.15 445.399 1097.25 445.899 1097.65 446.349C1098.1 446.799 1098.6 446.849 1099.25 446.549C1099.3 446.499 1099.4 446.549 1099.45 446.599C1099.7 446.899 1100.2 448.099 1100.25 448.549C1100.25 448.649 1100.2 448.699 1100.15 448.749C1099.5 448.999 1099.2 449.449 1099.2 450.049C1099.2 450.649 1099.5 451.049 1100.15 451.299C1100.25 451.349 1100.3 451.399 1100.25 451.499C1100.1 452.149 1099.85 452.799 1099.45 453.349C1099.4 453.449 1099.3 453.449 1099.2 453.399C1098.55 453.099 1098 453.199 1097.55 453.749C1097.2 454.149 1097.15 454.649 1097.4 455.199C1097.45 455.299 1097.4 455.399 1097.35 455.449L1097.25 455.499C1096.7 455.799 1096.15 456.049 1095.55 456.199C1095.35 456.249 1095.25 456.149 1095.2 456.049C1095 455.499 1094.5 455.199 1093.95 455.199C1093.4 455.199 1092.95 455.549 1092.75 456.099V456.149C1092.75 456.049 1092.65 456.149 1092.6 456.149ZM1091 455.099C1091.45 455.349 1091.95 455.549 1092.5 455.699C1092.8 455.049 1093.35 454.699 1094 454.699C1094.7 454.699 1095.25 455.099 1095.55 455.699C1096.1 455.549 1096.6 455.349 1097.05 455.099C1096.8 454.449 1096.9 453.899 1097.3 453.399C1097.8 452.799 1098.45 452.649 1099.2 452.899C1099.45 452.449 1099.7 451.949 1099.8 451.399C1099.15 451.099 1098.8 450.599 1098.75 449.899C1098.75 449.149 1099.1 448.599 1099.8 448.299C1099.7 447.899 1099.4 447.149 1099.2 446.799C1098.5 447.099 1097.85 446.949 1097.35 446.449C1096.85 445.949 1096.7 445.299 1097 444.599C1096.55 444.349 1096.05 444.099 1095.5 443.999C1095.25 444.649 1094.75 444.999 1094.1 445.049C1093.3 445.099 1092.7 444.749 1092.4 443.999C1091.85 444.149 1091.35 444.349 1090.9 444.599C1091.2 445.299 1091.05 445.949 1090.55 446.449C1090.05 446.949 1089.4 447.099 1088.7 446.799C1088.45 447.249 1088.25 447.749 1088.1 448.299C1088.75 448.599 1089.15 449.099 1089.15 449.799C1089.15 450.549 1088.8 451.049 1088.1 451.399C1088.25 451.899 1088.45 452.399 1088.75 452.899C1089.45 452.649 1090.05 452.749 1090.55 453.249C1091.1 453.799 1091.25 454.399 1091 455.099ZM1094 451.099C1093.65 451.099 1093.35 450.949 1093.1 450.749C1092.85 450.499 1092.75 450.199 1092.75 449.849C1092.75 449.499 1092.9 449.199 1093.1 448.949C1093.35 448.699 1093.65 448.599 1094 448.599C1094.35 448.599 1094.65 448.749 1094.9 448.999C1095.15 449.249 1095.25 449.549 1095.25 449.899C1095.25 450.599 1094.7 451.099 1094 451.099ZM1094 448.999C1093.75 448.999 1093.55 449.099 1093.35 449.249C1093.2 449.399 1093.1 449.649 1093.1 449.849C1093.1 450.049 1093.2 450.299 1093.35 450.499C1093.5 450.649 1093.75 450.749 1094 450.749C1094.5 450.749 1094.85 450.349 1094.9 449.899C1094.9 449.649 1094.8 449.449 1094.65 449.249C1094.5 449.099 1094.25 448.999 1094 448.999C1094.05 448.999 1094.05 448.999 1094 448.999Z" fill="#472B29"/>
<path d="M1097.9 448.95C1097.35 446.85 1095.2 445.6 1093.1 446.1C1091 446.65 1089.7 448.75 1090.25 450.85C1090.8 452.95 1092.95 454.2 1095.05 453.7C1097.15 453.15 1098.45 451.05 1097.9 448.95ZM1094.85 452.95C1093.15 453.4 1091.45 452.35 1091 450.7C1090.55 449 1091.6 447.3 1093.3 446.9C1095 446.5 1096.65 447.55 1097.1 449.2C1097.5 450.85 1096.5 452.5 1094.85 452.95Z" fill="#7878AA"/>
<path d="M1094.05 453.2C1092.6 453.2 1091.3 452.2 1090.9 450.75C1090.7 449.9 1090.8 449.05 1091.25 448.3C1091.7 447.55 1092.4 447.05 1093.25 446.8C1094.1 446.6 1094.95 446.7 1095.7 447.15C1096.45 447.6 1096.95 448.3 1097.2 449.15C1097.65 450.9 1096.6 452.65 1094.85 453.1C1094.55 453.15 1094.3 453.2 1094.05 453.2ZM1094.05 446.95C1093.8 446.95 1093.55 447 1093.3 447.05C1092.55 447.25 1091.9 447.75 1091.45 448.4C1091 449.05 1090.95 449.9 1091.1 450.65C1091.5 452.25 1093.15 453.2 1094.7 452.8C1096.3 452.4 1097.25 450.75 1096.85 449.2C1096.65 448.45 1096.15 447.8 1095.5 447.35C1095.1 447.1 1094.55 446.95 1094.05 446.95ZM1090.3 448.7C1090.3 448.7 1090.25 448.65 1090.3 448.7C1090.2 448.65 1090.15 448.6 1090.2 448.5C1090.65 447.2 1091.75 446.25 1093.05 445.9C1093.1 445.9 1093.2 445.9 1093.2 446C1093.2 446.1 1093.2 446.15 1093.1 446.15C1091.85 446.45 1090.85 447.35 1090.45 448.55C1090.4 448.65 1090.35 448.7 1090.3 448.7Z" fill="#472B29"/>
<path d="M1094.1 453.899C1093.7 453.899 1093.25 453.849 1092.85 453.699C1091.45 453.299 1090.4 452.199 1090.05 450.849C1090.05 450.799 1090.05 450.699 1090.15 450.699C1090.2 450.699 1090.3 450.699 1090.3 450.799C1090.6 452.049 1091.6 453.049 1092.95 453.449C1094.3 453.849 1095.65 453.549 1096.65 452.649C1096.7 452.599 1096.8 452.599 1096.85 452.649C1096.9 452.699 1096.9 452.799 1096.85 452.849C1096.1 453.549 1095.1 453.899 1094.1 453.899Z" fill="#472B29"/>
<path d="M1097.5 451.801C1097.4 451.951 1097.35 452.101 1097.25 452.251L1097.5 451.801Z" fill="#A2A2CC"/>
<path d="M1097.25 452.35C1097.2 452.35 1097.2 452.35 1097.15 452.35C1097.1 452.3 1097.1 452.25 1097.1 452.15C1097.2 452 1097.3 451.9 1097.35 451.75C1097.4 451.7 1097.45 451.65 1097.55 451.7C1097.6 451.75 1097.65 451.8 1097.6 451.9C1097.5 452.05 1097.4 452.2 1097.3 452.35H1097.25Z" fill="#472B29"/>
<path d="M1097.9 450.75C1097.85 451 1097.75 451.2 1097.65 451.45L1097.9 450.75Z" fill="#A2A2CC"/>
<path d="M1097.65 451.6H1097.6C1097.55 451.55 1097.5 451.5 1097.55 451.45C1097.65 451.25 1097.7 451 1097.75 450.8C1097.75 450.75 1097.85 450.7 1097.9 450.7C1097.95 450.7 1098 450.8 1098 450.85C1097.95 451.1 1097.85 451.35 1097.75 451.55C1097.75 451.55 1097.7 451.6 1097.65 451.6ZM1097.85 449.05C1097.8 449.05 1097.75 449 1097.7 448.95C1097.4 447.7 1096.45 446.7 1095.25 446.25C1095.2 446.25 1095.15 446.15 1095.15 446.1C1095.15 446.05 1095.25 446 1095.3 446C1096.6 446.45 1097.6 447.5 1097.9 448.85C1098 448.95 1097.95 449 1097.85 449.05C1097.9 449.05 1097.9 449.05 1097.85 449.05Z" fill="#472B29"/>
<path d="M1095.45 447.15C1095.4 447.15 1095.4 447.15 1095.4 447.1C1095.4 447.05 1095.4 447.05 1095.45 447L1096.5 446.75C1096.55 446.75 1096.55 446.75 1096.6 446.8C1096.6 446.85 1096.6 446.85 1096.55 446.9L1095.45 447.15Z" fill="#472B29"/>
<path d="M1096.35 447.749C1096.3 447.749 1096.3 447.749 1096.3 447.699C1096.3 447.649 1096.3 447.649 1096.35 447.599L1097.15 447.449C1097.2 447.449 1097.2 447.449 1097.25 447.499C1097.3 447.549 1097.25 447.549 1097.2 447.599L1096.35 447.749Z" fill="#472B29"/>
<path d="M1096.85 448.55C1096.8 448.55 1096.8 448.55 1096.8 448.5C1096.8 448.45 1096.8 448.45 1096.85 448.45L1097.65 448.35C1097.7 448.35 1097.7 448.35 1097.7 448.4C1097.7 448.45 1097.7 448.45 1097.65 448.45L1096.85 448.55Z" fill="#472B29"/>
<path d="M1092.6 447.049C1092.55 447.049 1092.55 447.049 1092.55 446.999L1092.45 446.249C1092.45 446.199 1092.45 446.199 1092.5 446.199C1092.55 446.199 1092.55 446.199 1092.55 446.249L1092.65 446.999C1092.65 447.049 1092.65 447.049 1092.6 447.049Z" fill="#472B29"/>
<path d="M1092 447.55C1091.95 447.55 1091.95 447.55 1091.95 447.5L1091.7 446.7C1091.7 446.65 1091.7 446.65 1091.75 446.6C1091.8 446.6 1091.8 446.6 1091.85 446.65L1092.1 447.45C1092.05 447.5 1092.05 447.55 1092 447.55Z" fill="#472B29"/>
<path d="M1091.45 448.151C1091.45 448.151 1091.4 448.151 1091.4 448.101L1090.9 447.401C1090.9 447.351 1090.9 447.351 1090.9 447.301C1090.95 447.301 1090.95 447.301 1091 447.301L1091.5 448.001C1091.5 448.101 1091.5 448.151 1091.45 448.151Z" fill="#472B29"/>
<path d="M1090.4 451.451C1090.35 451.451 1090.35 451.401 1090.35 451.401C1090.35 451.351 1090.4 451.351 1090.4 451.351L1091.2 451.301C1091.25 451.301 1091.25 451.351 1091.25 451.351C1091.25 451.401 1091.2 451.401 1091.2 451.401L1090.4 451.451Z" fill="#472B29"/>
<path d="M1090.85 452.3C1090.8 452.3 1090.8 452.3 1090.8 452.25C1090.8 452.2 1090.8 452.2 1090.85 452.15L1091.65 451.9C1091.7 451.9 1091.7 451.9 1091.75 451.95C1091.75 452 1091.75 452 1091.7 452.05L1090.85 452.3C1090.9 452.3 1090.9 452.3 1090.85 452.3Z" fill="#472B29"/>
<path d="M1091.7 453.051C1091.7 453.051 1091.65 453.051 1091.65 453.001C1091.65 452.951 1091.65 452.951 1091.7 452.901L1092.35 452.551C1092.4 452.551 1092.4 452.551 1092.45 452.601C1092.45 452.651 1092.45 452.651 1092.4 452.701L1091.7 453.051C1091.75 453.051 1091.75 453.051 1091.7 453.051Z" fill="#472B29"/>
<path d="M1092.8 453.55C1092.75 453.5 1092.75 453.45 1092.75 453.45L1093.25 453C1093.3 453 1093.3 453 1093.35 453C1093.35 453.05 1093.35 453.05 1093.35 453.1L1092.8 453.55C1092.85 453.55 1092.85 453.55 1092.8 453.55Z" fill="#472B29"/>
<path d="M1094 453.85C1094 453.85 1093.95 453.85 1094 453.85C1093.95 453.8 1093.95 453.8 1093.95 453.75L1094.35 453.05C1094.35 453 1094.4 453 1094.45 453C1094.5 453 1094.5 453.05 1094.5 453.1L1094.1 453.8C1094.05 453.85 1094 453.85 1094 453.85Z" fill="#472B29"/>
<path d="M1095.25 453.651C1095.2 453.651 1095.2 453.601 1095.2 453.601L1095.25 452.851C1095.25 452.801 1095.3 452.801 1095.3 452.801C1095.35 452.801 1095.35 452.851 1095.35 452.851L1095.3 453.601C1095.3 453.601 1095.3 453.651 1095.25 453.651Z" fill="#472B29"/>
<path d="M1093.45 445.95C1093.7 445.9 1093.95 445.9 1094.2 445.9L1093.45 445.95Z" fill="#A2A2CC"/>
<path d="M1093.45 446.101C1093.4 446.101 1093.35 446.051 1093.3 446.001C1093.3 445.951 1093.35 445.851 1093.4 445.851C1093.65 445.801 1093.9 445.801 1094.15 445.801C1094.2 445.801 1094.3 445.851 1094.25 445.951C1094.25 446.001 1094.2 446.051 1094.1 446.051C1093.95 446.051 1093.7 446.051 1093.45 446.101Z" fill="#472B29"/>
</g>
<g filter="url(#filter4_ddd_1051_28677)">
<path d="M690 804.5C690.276 804.5 690.5 804.276 690.5 804C690.5 803.724 690.276 803.5 690 803.5C689.724 803.5 689.5 803.724 689.5 804C689.5 804.276 689.724 804.5 690 804.5Z" fill="#F1BC19"/>
<path d="M676 841C686.493 841 695 832.493 695 822C695 811.507 686.493 803 676 803C665.507 803 657 811.507 657 822C657 832.493 665.507 841 676 841Z" fill="#F9DBD2"/>
<path d="M693 807C694.105 807 695 806.105 695 805C695 803.895 694.105 803 693 803C691.895 803 691 803.895 691 805C691 806.105 691.895 807 693 807Z" fill="#F1BC19"/>
<path d="M658 811C658.552 811 659 810.552 659 810C659 809.448 658.552 809 658 809C657.448 809 657 809.448 657 810C657 810.552 657.448 811 658 811Z" fill="#EE3E54"/>
<path d="M690 836.5C690.552 836.5 691 836.052 691 835.5C691 834.948 690.552 834.5 690 834.5C689.448 834.5 689 834.948 689 835.5C689 836.052 689.448 836.5 690 836.5Z" fill="#FBCD59"/>
<path d="M659.5 838C660.605 838 661.5 837.105 661.5 836C661.5 834.895 660.605 834 659.5 834C658.395 834 657.5 834.895 657.5 836C657.5 837.105 658.395 838 659.5 838Z" fill="#FBCD59"/>
<path d="M663 839.5C663.552 839.5 664 839.052 664 838.5C664 837.948 663.552 837.5 663 837.5C662.448 837.5 662 837.948 662 838.5C662 839.052 662.448 839.5 663 839.5Z" fill="#EE3E54"/>
<path d="M683.242 837.499C683.927 837.499 684.483 836.943 684.483 836.257C684.483 835.571 683.927 835.016 683.242 835.016C682.556 835.016 682 835.571 682 836.257C682 836.943 682.556 837.499 683.242 837.499Z" fill="white"/>
<path d="M659 821.5C659.276 821.5 659.5 821.276 659.5 821C659.5 820.724 659.276 820.5 659 820.5C658.724 820.5 658.5 820.724 658.5 821C658.5 821.276 658.724 821.5 659 821.5Z" fill="white"/>
<path d="M694 813C694.276 813 694.5 812.776 694.5 812.5C694.5 812.224 694.276 812 694 812C693.724 812 693.5 812.224 693.5 812.5C693.5 812.776 693.724 813 694 813Z" fill="#F1BC19"/>
<path d="M693 820.5C693.552 820.5 694 820.052 694 819.5C694 818.948 693.552 818.5 693 818.5C692.448 818.5 692 818.948 692 819.5C692 820.052 692.448 820.5 693 820.5Z" fill="white"/>
<path d="M665.5 823.15C666.963 823.15 668.15 821.963 668.15 820.5C668.15 819.036 666.963 817.85 665.5 817.85C664.036 817.85 662.85 819.036 662.85 820.5C662.85 821.963 664.036 823.15 665.5 823.15Z" fill="white"/>
<path d="M665.5 818.2C666.768 818.2 667.8 819.232 667.8 820.5C667.8 821.768 666.768 822.8 665.5 822.8C664.232 822.8 663.2 821.768 663.2 820.5C663.2 819.232 664.232 818.2 665.5 818.2ZM665.5 817.5C663.843 817.5 662.5 818.844 662.5 820.5C662.5 822.156 663.843 823.5 665.5 823.5C667.157 823.5 668.5 822.156 668.5 820.5C668.5 818.844 667.157 817.5 665.5 817.5Z" fill="#472B29"/>
<path d="M687 823.15C688.463 823.15 689.65 821.963 689.65 820.5C689.65 819.036 688.463 817.85 687 817.85C685.536 817.85 684.35 819.036 684.35 820.5C684.35 821.963 685.536 823.15 687 823.15Z" fill="white"/>
<path d="M687 818.2C688.268 818.2 689.3 819.232 689.3 820.5C689.3 821.768 688.268 822.8 687 822.8C685.732 822.8 684.7 821.768 684.7 820.5C684.7 819.232 685.732 818.2 687 818.2ZM687 817.5C685.343 817.5 684 818.844 684 820.5C684 822.156 685.343 823.5 687 823.5C688.657 823.5 690 822.156 690 820.5C690 818.844 688.657 817.5 687 817.5Z" fill="#472B29"/>
<path d="M676.25 832.15C683.098 832.15 688.65 828.501 688.65 824C688.65 819.498 683.098 815.85 676.25 815.85C669.401 815.85 663.85 819.498 663.85 824C663.85 828.501 669.401 832.15 676.25 832.15Z" fill="white"/>
<path d="M676.25 816.2C682.895 816.2 688.3 819.699 688.3 824C688.3 828.301 682.895 831.8 676.25 831.8C669.606 831.8 664.2 828.301 664.2 824C664.2 819.699 669.606 816.2 676.25 816.2ZM676.25 815.5C669.208 815.5 663.5 819.306 663.5 824C663.5 828.694 669.208 832.5 676.25 832.5C683.292 832.5 689 828.694 689 824C689 819.306 683.292 815.5 676.25 815.5Z" fill="#472B29"/>
<path d="M681.824 829.944C681.773 829.944 681.725 829.913 681.707 829.862C681.683 829.797 681.717 829.725 681.782 829.702C683.233 829.177 684.483 828.443 685.398 827.577C685.449 827.53 685.528 827.532 685.575 827.582C685.623 827.632 685.621 827.712 685.57 827.759C684.63 828.648 683.35 829.401 681.867 829.937C681.853 829.942 681.839 829.944 681.824 829.944Z" fill="#472B29"/>
<path d="M686.328 826.833C686.303 826.833 686.277 826.825 686.255 826.809C686.199 826.769 686.186 826.691 686.226 826.635C686.822 825.802 687.124 824.915 687.124 824C687.124 823.155 686.865 822.332 686.356 821.553C686.318 821.495 686.334 821.417 686.392 821.38C686.449 821.342 686.527 821.358 686.565 821.416C687.102 822.236 687.374 823.106 687.374 824C687.374 824.968 687.056 825.904 686.43 826.781C686.406 826.815 686.367 826.833 686.328 826.833Z" fill="#472B29"/>
<path d="M667.09 820.26C667.057 820.26 667.024 820.247 666.999 820.221C666.951 820.171 666.954 820.092 667.004 820.045C667.944 819.156 669.224 818.403 670.708 817.867C670.772 817.843 670.844 817.877 670.868 817.942C670.891 818.007 670.857 818.078 670.793 818.102C669.342 818.626 668.091 819.361 667.176 820.226C667.152 820.249 667.121 820.26 667.09 820.26Z" fill="#472B29"/>
<path d="M666.113 826.446C666.073 826.446 666.033 826.426 666.009 826.39C665.472 825.569 665.199 824.7 665.199 823.806C665.199 822.838 665.517 821.902 666.144 821.025C666.184 820.969 666.262 820.956 666.318 820.996C666.374 821.036 666.387 821.114 666.347 821.17C665.751 822.004 665.449 822.891 665.449 823.806C665.449 824.65 665.708 825.473 666.218 826.253C666.256 826.311 666.239 826.388 666.182 826.426C666.161 826.44 666.137 826.446 666.113 826.446Z" fill="#472B29"/>
<path d="M685.75 813.65C686.799 813.65 687.65 812.799 687.65 811.75C687.65 810.7 686.799 809.85 685.75 809.85C684.7 809.85 683.85 810.7 683.85 811.75C683.85 812.799 684.7 813.65 685.75 813.65Z" fill="white"/>
<path d="M685.75 810.2C686.605 810.2 687.3 810.895 687.3 811.75C687.3 812.605 686.605 813.3 685.75 813.3C684.895 813.3 684.2 812.605 684.2 811.75C684.2 810.895 684.895 810.2 685.75 810.2ZM685.75 809.5C684.508 809.5 683.5 810.508 683.5 811.75C683.5 812.992 684.508 814 685.75 814C686.992 814 688 812.992 688 811.75C688 810.508 686.992 809.5 685.75 809.5Z" fill="#472B29"/>
<path d="M672 824.25C672.966 824.25 673.75 823.466 673.75 822.5C673.75 821.534 672.966 820.75 672 820.75C671.034 820.75 670.25 821.534 670.25 822.5C670.25 823.466 671.034 824.25 672 824.25Z" fill="#EE3E54"/>
<path d="M672 824.5C670.897 824.5 670 823.603 670 822.5C670 821.397 670.897 820.5 672 820.5C673.103 820.5 674 821.397 674 822.5C674 823.603 673.103 824.5 672 824.5ZM672 821C671.173 821 670.5 821.673 670.5 822.5C670.5 823.327 671.173 824 672 824C672.827 824 673.5 823.327 673.5 822.5C673.5 821.673 672.827 821 672 821Z" fill="#472B29"/>
<path d="M680.5 824.25C681.466 824.25 682.25 823.466 682.25 822.5C682.25 821.534 681.466 820.75 680.5 820.75C679.534 820.75 678.75 821.534 678.75 822.5C678.75 823.466 679.534 824.25 680.5 824.25Z" fill="#EE3E54"/>
<path d="M680.5 824.5C679.397 824.5 678.5 823.603 678.5 822.5C678.5 821.397 679.397 820.5 680.5 820.5C681.603 820.5 682.5 821.397 682.5 822.5C682.5 823.603 681.603 824.5 680.5 824.5ZM680.5 821C679.673 821 679 821.673 679 822.5C679 823.327 679.673 824 680.5 824C681.327 824 682 823.327 682 822.5C682 821.673 681.327 821 680.5 821Z" fill="#472B29"/>
<path d="M676.25 816C676.224 816 676.197 815.996 676.171 815.987C676.04 815.944 675.969 815.802 676.013 815.671L678.013 809.671C678.055 809.546 678.186 809.474 678.315 809.509L683.94 811.009C684.073 811.044 684.153 811.181 684.117 811.315C684.081 811.448 683.946 811.528 683.811 811.492L678.413 810.052L676.487 815.829C676.452 815.934 676.354 816 676.25 816Z" fill="#472B29"/>
<path d="M676.219 829.181C674.829 829.181 673.45 828.775 672.12 827.963C672.002 827.891 671.965 827.737 672.037 827.62C672.109 827.502 672.263 827.465 672.381 827.537C674.907 829.08 677.513 829.079 680.123 827.535C680.241 827.465 680.395 827.504 680.466 827.623C680.536 827.742 680.497 827.895 680.378 827.965C679.007 828.776 677.607 829.181 676.219 829.181Z" fill="#472B29"/>
</g>
<g filter="url(#filter5_ddd_1051_28677)">
<path d="M685.5 413.5C685.235 413.5 684.98 413.605 684.793 413.793C684.605 413.98 684.5 414.235 684.5 414.5C684.5 414.765 684.605 415.02 684.793 415.207C684.98 415.395 685.235 415.5 685.5 415.5C685.765 415.5 686.02 415.395 686.207 415.207C686.395 415.02 686.5 414.765 686.5 414.5C686.5 414.235 686.395 413.98 686.207 413.793C686.02 413.605 685.765 413.5 685.5 413.5Z" fill="#EE3E54"/>
<path d="M717.5 406C717.367 406 717.24 406.053 717.146 406.146C717.053 406.24 717 406.367 717 406.5C717 406.633 717.053 406.76 717.146 406.854C717.24 406.947 717.367 407 717.5 407C717.633 407 717.76 406.947 717.854 406.854C717.947 406.76 718 406.633 718 406.5C718 406.367 717.947 406.24 717.854 406.146C717.76 406.053 717.633 406 717.5 406Z" fill="#F1BC19"/>
<path d="M704 406.5C699.093 406.5 694.388 408.449 690.919 411.919C687.449 415.388 685.5 420.093 685.5 425C685.5 429.907 687.449 434.612 690.919 438.081C694.388 441.551 699.093 443.5 704 443.5C708.907 443.5 713.612 441.551 717.081 438.081C720.551 434.612 722.5 429.907 722.5 425C722.5 420.093 720.551 415.388 717.081 411.919C713.612 408.449 708.907 406.5 704 406.5Z" fill="#FCE0A2"/>
<path d="M720.5 405.5C719.97 405.5 719.461 405.711 719.086 406.086C718.711 406.461 718.5 406.97 718.5 407.5C718.5 408.03 718.711 408.539 719.086 408.914C719.461 409.289 719.97 409.5 720.5 409.5C721.03 409.5 721.539 409.289 721.914 408.914C722.289 408.539 722.5 408.03 722.5 407.5C722.5 406.97 722.289 406.461 721.914 406.086C721.539 405.711 721.03 405.5 720.5 405.5Z" fill="#F1BC19"/>
<path d="M722.5 411C722.235 411 721.98 411.105 721.793 411.293C721.605 411.48 721.5 411.735 721.5 412C721.5 412.265 721.605 412.52 721.793 412.707C721.98 412.895 722.235 413 722.5 413C722.765 413 723.02 412.895 723.207 412.707C723.395 412.52 723.5 412.265 723.5 412C723.5 411.735 723.395 411.48 723.207 411.293C723.02 411.105 722.765 411 722.5 411Z" fill="#EE3E54"/>
<path d="M719.5 437C719.235 437 718.98 437.105 718.793 437.293C718.605 437.48 718.5 437.735 718.5 438C718.5 438.265 718.605 438.52 718.793 438.707C718.98 438.895 719.235 439 719.5 439C719.765 439 720.02 438.895 720.207 438.707C720.395 438.52 720.5 438.265 720.5 438C720.5 437.735 720.395 437.48 720.207 437.293C720.02 437.105 719.765 437 719.5 437ZM686.5 429.5C685.97 429.5 685.461 429.711 685.086 430.086C684.711 430.461 684.5 430.97 684.5 431.5C684.5 432.03 684.711 432.539 685.086 432.914C685.461 433.289 685.97 433.5 686.5 433.5C687.03 433.5 687.539 433.289 687.914 432.914C688.289 432.539 688.5 432.03 688.5 431.5C688.5 430.97 688.289 430.461 687.914 430.086C687.539 429.711 687.03 429.5 686.5 429.5Z" fill="#FBCD59"/>
<path d="M691.5 442.5C691.235 442.5 690.98 442.605 690.793 442.793C690.605 442.98 690.5 443.235 690.5 443.5C690.5 443.765 690.605 444.02 690.793 444.207C690.98 444.395 691.235 444.5 691.5 444.5C691.765 444.5 692.02 444.395 692.207 444.207C692.395 444.02 692.5 443.765 692.5 443.5C692.5 443.235 692.395 442.98 692.207 442.793C692.02 442.605 691.765 442.5 691.5 442.5Z" fill="#EE3E54"/>
<path d="M688.25 425.5C687.918 425.5 687.601 425.632 687.366 425.866C687.132 426.101 687 426.418 687 426.75C687 427.082 687.132 427.399 687.366 427.634C687.601 427.868 687.918 428 688.25 428C688.582 428 688.899 427.868 689.134 427.634C689.368 427.399 689.5 427.082 689.5 426.75C689.5 426.418 689.368 426.101 689.134 425.866C688.899 425.632 688.582 425.5 688.25 425.5Z" fill="white"/>
<path d="M689.5 433C689.367 433 689.24 433.053 689.146 433.146C689.053 433.24 689 433.367 689 433.5C689 433.633 689.053 433.76 689.146 433.854C689.24 433.947 689.367 434 689.5 434C689.633 434 689.76 433.947 689.854 433.854C689.947 433.76 690 433.633 690 433.5C690 433.367 689.947 433.24 689.854 433.146C689.76 433.053 689.633 433 689.5 433Z" fill="#F1BC19"/>
<path d="M719 416.5C718.867 416.5 718.74 416.553 718.646 416.646C718.553 416.74 718.5 416.867 718.5 417C718.5 417.133 718.553 417.26 718.646 417.354C718.74 417.447 718.867 417.5 719 417.5C719.133 417.5 719.26 417.447 719.354 417.354C719.447 417.26 719.5 417.133 719.5 417C719.5 416.867 719.447 416.74 719.354 416.646C719.26 416.553 719.133 416.5 719 416.5Z" fill="white"/>
<path d="M697.949 422.35H699.499V428.6H697.949V422.35Z" fill="#78CDD4"/>
<path d="M697.75 428.5C697.6 428.5 697.5 428.4 697.5 428.25V422.75C697.5 422.6 697.6 422.5 697.75 422.5C697.9 422.5 698 422.6 698 422.75V428.25C698 428.4 697.9 428.5 697.75 428.5ZM699.75 428.5C699.6 428.5 699.5 428.4 699.5 428.25V422.75C699.5 422.6 699.6 422.5 699.75 422.5C699.9 422.5 700 422.6 700 422.75V428.25C700 428.4 699.9 428.5 699.75 428.5Z" fill="#472B29"/>
<path d="M701.6 421.25L702.464 419.391L709.854 422.828L708.989 424.687L701.6 421.25Z" fill="#78CDD4"/>
<path d="M707.801 424.3C707.751 424.3 707.751 424.3 707.701 424.3L702.701 422C702.551 421.95 702.501 421.8 702.601 421.65C702.651 421.5 702.801 421.45 702.951 421.55L707.951 423.85C708.101 423.9 708.151 424.05 708.051 424.2C708.001 424.25 707.901 424.3 707.801 424.3Z" fill="#472B29"/>
<path d="M708.649 422.5C708.599 422.5 708.599 422.5 708.549 422.5L705.349 421C705.199 420.95 705.149 420.8 705.249 420.65C705.299 420.5 705.449 420.45 705.599 420.55L708.799 422.05C708.949 422.1 708.999 422.25 708.899 422.4C708.849 422.45 708.749 422.5 708.649 422.5Z" fill="#472B29"/>
<path d="M702.455 428.904L710.026 425.383L710.912 427.287L703.341 430.808L702.455 428.904Z" fill="#78CDD4"/>
<path d="M705.25 430.1C705.15 430.1 705.05 430.05 705 429.95C704.95 429.8 705 429.7 705.1 429.6L708.5 428C708.65 427.95 708.75 428 708.85 428.1C708.9 428.25 708.85 428.35 708.75 428.45L705.35 430.05C705.3 430.05 705.25 430.1 705.25 430.1Z" fill="#472B29"/>
<path d="M702.801 428.999C702.701 428.999 702.601 428.949 702.551 428.849C702.501 428.699 702.551 428.599 702.651 428.499L707.651 426.199C707.801 426.149 707.901 426.199 708.001 426.299C708.101 426.399 708.001 426.549 707.901 426.649L702.901 428.949C702.901 428.999 702.851 428.999 702.801 428.999Z" fill="#472B29"/>
<path d="M712.25 420.35C711.606 420.35 710.969 420.476 710.374 420.723C709.78 420.969 709.24 421.33 708.785 421.785C708.33 422.24 707.969 422.78 707.723 423.374C707.476 423.969 707.35 424.606 707.35 425.25C707.35 425.893 707.476 426.53 707.723 427.125C707.969 427.719 708.33 428.259 708.785 428.714C709.24 429.169 709.78 429.53 710.374 429.777C710.969 430.023 711.606 430.15 712.25 430.15C712.893 430.15 713.53 430.023 714.125 429.777C714.719 429.53 715.259 429.169 715.714 428.714C716.169 428.259 716.53 427.719 716.777 427.125C717.023 426.53 717.15 425.893 717.15 425.25C717.15 424.606 717.023 423.969 716.777 423.374C716.53 422.78 716.169 422.24 715.714 421.785C715.259 421.33 714.719 420.969 714.125 420.723C713.53 420.476 712.893 420.35 712.25 420.35Z" fill="#78CDD4"/>
<path d="M712.25 420.7C714.75 420.7 716.8 422.75 716.8 425.25C716.8 427.75 714.75 429.8 712.25 429.8C709.75 429.8 707.7 427.75 707.7 425.25C707.7 422.75 709.75 420.7 712.25 420.7ZM712.25 420C709.35 420 707 422.35 707 425.25C707 428.15 709.35 430.5 712.25 430.5C715.15 430.5 717.5 428.15 717.5 425.25C717.5 422.35 715.15 420 712.25 420Z" fill="#472B29"/>
<path d="M712.25 428.5C710.45 428.5 709 427.05 709 425.25C709 423.45 710.45 422 712.25 422C712.4 422 712.5 422.1 712.5 422.25C712.5 422.4 712.4 422.5 712.25 422.5C710.75 422.5 709.5 423.75 709.5 425.25C709.5 426.75 710.75 428 712.25 428C713.75 428 715 426.75 715 425.25C715 425.1 715.1 425 715.25 425C715.4 425 715.5 425.1 715.5 425.25C715.5 427.05 714.05 428.5 712.25 428.5ZM714.95 424.15C714.85 424.15 714.75 424.1 714.75 424C714.5 423.5 714.1 423.1 713.6 422.8C713.5 422.75 713.45 422.6 713.5 422.45C713.55 422.35 713.7 422.3 713.85 422.35C714.45 422.65 714.9 423.15 715.2 423.75C715.25 423.85 715.2 424 715.1 424.1C715 424.15 715 424.15 714.95 424.15Z" fill="#472B29"/>
<path d="M698.75 413.85C697.45 413.85 696.204 414.366 695.285 415.285C694.366 416.204 693.85 417.45 693.85 418.75C693.85 420.049 694.366 421.296 695.285 422.214C696.204 423.133 697.45 423.65 698.75 423.65C700.049 423.65 701.296 423.133 702.214 422.214C703.133 421.296 703.65 420.049 703.65 418.75C703.65 417.45 703.133 416.204 702.214 415.285C701.296 414.366 700.049 413.85 698.75 413.85Z" fill="#78CDD4"/>
<path d="M698.75 414.2C701.25 414.2 703.3 416.25 703.3 418.75C703.3 421.25 701.25 423.3 698.75 423.3C696.25 423.3 694.2 421.25 694.2 418.75C694.2 416.25 696.25 414.2 698.75 414.2ZM698.75 413.5C695.85 413.5 693.5 415.85 693.5 418.75C693.5 421.65 695.85 424 698.75 424C701.65 424 704 421.65 704 418.75C704 415.85 701.65 413.5 698.75 413.5Z" fill="#472B29"/>
<path d="M698.75 422C696.95 422 695.5 420.55 695.5 418.75C695.5 416.95 696.95 415.5 698.75 415.5C698.9 415.5 699 415.6 699 415.75C699 415.9 698.9 416 698.75 416C697.25 416 696 417.25 696 418.75C696 420.25 697.25 421.5 698.75 421.5C700.25 421.5 701.5 420.25 701.5 418.75C701.5 418.6 701.6 418.5 701.75 418.5C701.9 418.5 702 418.6 702 418.75C702 420.55 700.55 422 698.75 422ZM701.45 417.65C701.35 417.65 701.25 417.6 701.25 417.5C701 417 700.6 416.6 700.1 416.3C700 416.25 699.95 416.1 700 415.95C700.05 415.85 700.2 415.8 700.35 415.85C700.95 416.15 701.4 416.65 701.7 417.25C701.75 417.35 701.7 417.5 701.6 417.6C701.5 417.65 701.5 417.65 701.45 417.65Z" fill="#472B29"/>
<path d="M698.75 427.35C698.106 427.35 697.469 427.476 696.874 427.723C696.28 427.969 695.74 428.33 695.285 428.785C694.83 429.24 694.469 429.78 694.223 430.374C693.976 430.969 693.85 431.606 693.85 432.25C693.85 432.893 693.976 433.53 694.223 434.125C694.469 434.719 694.83 435.259 695.285 435.714C695.74 436.169 696.28 436.53 696.874 436.777C697.469 437.023 698.106 437.15 698.75 437.15C699.393 437.15 700.03 437.023 700.625 436.777C701.219 436.53 701.759 436.169 702.214 435.714C702.669 435.259 703.03 434.719 703.277 434.125C703.523 433.53 703.65 432.893 703.65 432.25C703.65 431.606 703.523 430.969 703.277 430.374C703.03 429.78 702.669 429.24 702.214 428.785C701.759 428.33 701.219 427.969 700.625 427.723C700.03 427.476 699.393 427.35 698.75 427.35Z" fill="#78CDD4"/>
<path d="M698.75 427.7C701.25 427.7 703.3 429.75 703.3 432.25C703.3 434.75 701.25 436.8 698.75 436.8C696.25 436.8 694.2 434.75 694.2 432.25C694.2 429.75 696.25 427.7 698.75 427.7ZM698.75 427C695.85 427 693.5 429.35 693.5 432.25C693.5 435.15 695.85 437.5 698.75 437.5C701.65 437.5 704 435.15 704 432.25C704 429.35 701.65 427 698.75 427Z" fill="#472B29"/>
<path d="M698.75 435.5C696.95 435.5 695.5 434.05 695.5 432.25C695.5 430.45 696.95 429 698.75 429C698.9 429 699 429.1 699 429.25C699 429.4 698.9 429.5 698.75 429.5C697.25 429.5 696 430.75 696 432.25C696 433.75 697.25 435 698.75 435C700.25 435 701.5 433.75 701.5 432.25C701.5 432.1 701.6 432 701.75 432C701.9 432 702 432.1 702 432.25C702 434.05 700.55 435.5 698.75 435.5ZM701.45 431.15C701.35 431.15 701.25 431.1 701.25 431C701 430.5 700.6 430.1 700.1 429.8C700 429.75 699.95 429.6 700 429.45C700.05 429.3 700.2 429.3 700.35 429.35C700.95 429.65 701.4 430.15 701.7 430.75C701.75 430.85 701.7 431 701.6 431.1C701.5 431.15 701.5 431.15 701.45 431.15Z" fill="#472B29"/>
</g>
<g filter="url(#filter6_ddd_1051_28677)">
<path d="M1455.5 473.5C1455.23 473.5 1454.98 473.605 1454.79 473.793C1454.61 473.98 1454.5 474.235 1454.5 474.5C1454.5 474.765 1454.61 475.02 1454.79 475.207C1454.98 475.395 1455.23 475.5 1455.5 475.5C1455.77 475.5 1456.02 475.395 1456.21 475.207C1456.39 475.02 1456.5 474.765 1456.5 474.5C1456.5 474.235 1456.39 473.98 1456.21 473.793C1456.02 473.605 1455.77 473.5 1455.5 473.5Z" fill="#78A0CF"/>
<path d="M1487.5 466C1487.37 466 1487.24 466.053 1487.15 466.146C1487.05 466.24 1487 466.367 1487 466.5C1487 466.633 1487.05 466.76 1487.15 466.854C1487.24 466.947 1487.37 467 1487.5 467C1487.63 467 1487.76 466.947 1487.85 466.854C1487.95 466.76 1488 466.633 1488 466.5C1488 466.367 1487.95 466.24 1487.85 466.146C1487.76 466.053 1487.63 466 1487.5 466Z" fill="#F1BC19"/>
<path d="M1474 466.5C1469.09 466.5 1464.39 468.449 1460.92 471.919C1457.45 475.388 1455.5 480.093 1455.5 485C1455.5 489.907 1457.45 494.612 1460.92 498.081C1464.39 501.551 1469.09 503.5 1474 503.5C1478.91 503.5 1483.61 501.551 1487.08 498.081C1490.55 494.612 1492.5 489.907 1492.5 485C1492.5 480.093 1490.55 475.388 1487.08 471.919C1483.61 468.449 1478.91 466.5 1474 466.5Z" fill="#E3EFFB"/>
<path d="M1490.5 465.5C1489.97 465.5 1489.46 465.711 1489.09 466.086C1488.71 466.461 1488.5 466.97 1488.5 467.5C1488.5 468.03 1488.71 468.539 1489.09 468.914C1489.46 469.289 1489.97 469.5 1490.5 469.5C1491.03 469.5 1491.54 469.289 1491.91 468.914C1492.29 468.539 1492.5 468.03 1492.5 467.5C1492.5 466.97 1492.29 466.461 1491.91 466.086C1491.54 465.711 1491.03 465.5 1490.5 465.5Z" fill="#F1BC19"/>
<path d="M1492.5 471C1492.23 471 1491.98 471.105 1491.79 471.293C1491.61 471.48 1491.5 471.735 1491.5 472C1491.5 472.265 1491.61 472.52 1491.79 472.707C1491.98 472.895 1492.23 473 1492.5 473C1492.77 473 1493.02 472.895 1493.21 472.707C1493.39 472.52 1493.5 472.265 1493.5 472C1493.5 471.735 1493.39 471.48 1493.21 471.293C1493.02 471.105 1492.77 471 1492.5 471Z" fill="#78A0CF"/>
<path d="M1489.5 497C1489.23 497 1488.98 497.105 1488.79 497.293C1488.61 497.48 1488.5 497.735 1488.5 498C1488.5 498.265 1488.61 498.52 1488.79 498.707C1488.98 498.895 1489.23 499 1489.5 499C1489.77 499 1490.02 498.895 1490.21 498.707C1490.39 498.52 1490.5 498.265 1490.5 498C1490.5 497.735 1490.39 497.48 1490.21 497.293C1490.02 497.105 1489.77 497 1489.5 497ZM1456.5 489.5C1455.97 489.5 1455.46 489.711 1455.09 490.086C1454.71 490.461 1454.5 490.97 1454.5 491.5C1454.5 492.03 1454.71 492.539 1455.09 492.914C1455.46 493.289 1455.97 493.5 1456.5 493.5C1457.03 493.5 1457.54 493.289 1457.91 492.914C1458.29 492.539 1458.5 492.03 1458.5 491.5C1458.5 490.97 1458.29 490.461 1457.91 490.086C1457.54 489.711 1457.03 489.5 1456.5 489.5Z" fill="#FBCD59"/>
<path d="M1461.5 502.5C1461.23 502.5 1460.98 502.605 1460.79 502.793C1460.61 502.98 1460.5 503.235 1460.5 503.5C1460.5 503.765 1460.61 504.02 1460.79 504.207C1460.98 504.395 1461.23 504.5 1461.5 504.5C1461.77 504.5 1462.02 504.395 1462.21 504.207C1462.39 504.02 1462.5 503.765 1462.5 503.5C1462.5 503.235 1462.39 502.98 1462.21 502.793C1462.02 502.605 1461.77 502.5 1461.5 502.5Z" fill="#78A0CF"/>
<path d="M1458.25 485.5C1457.92 485.5 1457.6 485.632 1457.37 485.866C1457.13 486.101 1457 486.418 1457 486.75C1457 487.082 1457.13 487.399 1457.37 487.634C1457.6 487.868 1457.92 488 1458.25 488C1458.58 488 1458.9 487.868 1459.13 487.634C1459.37 487.399 1459.5 487.082 1459.5 486.75C1459.5 486.418 1459.37 486.101 1459.13 485.866C1458.9 485.632 1458.58 485.5 1458.25 485.5Z" fill="white"/>
<path d="M1459.5 493C1459.37 493 1459.24 493.053 1459.15 493.146C1459.05 493.24 1459 493.367 1459 493.5C1459 493.633 1459.05 493.76 1459.15 493.854C1459.24 493.947 1459.37 494 1459.5 494C1459.63 494 1459.76 493.947 1459.85 493.854C1459.95 493.76 1460 493.633 1460 493.5C1460 493.367 1459.95 493.24 1459.85 493.146C1459.76 493.053 1459.63 493 1459.5 493Z" fill="#F1BC19"/>
<path d="M1489 476.5C1488.87 476.5 1488.74 476.553 1488.65 476.646C1488.55 476.74 1488.5 476.867 1488.5 477C1488.5 477.133 1488.55 477.26 1488.65 477.354C1488.74 477.447 1488.87 477.5 1489 477.5C1489.13 477.5 1489.26 477.447 1489.35 477.354C1489.45 477.26 1489.5 477.133 1489.5 477C1489.5 476.867 1489.45 476.74 1489.35 476.646C1489.26 476.553 1489.13 476.5 1489 476.5Z" fill="white"/>
<path d="M1478.07 475.869C1477.18 475.869 1476.3 476.044 1475.48 476.384C1474.66 476.724 1473.91 477.223 1473.28 477.851C1472.65 478.48 1472.15 479.226 1471.81 480.047C1471.47 480.868 1471.3 481.748 1471.3 482.637C1471.3 483.526 1471.47 484.406 1471.81 485.227C1472.15 486.048 1472.65 486.794 1473.28 487.423C1473.91 488.051 1474.66 488.55 1475.48 488.89C1476.3 489.23 1477.18 489.405 1478.07 489.405C1478.96 489.405 1479.84 489.23 1480.66 488.89C1481.48 488.55 1482.22 488.051 1482.85 487.423C1483.48 486.794 1483.98 486.048 1484.32 485.227C1484.66 484.406 1484.83 483.526 1484.83 482.637C1484.83 481.748 1484.66 480.868 1484.32 480.047C1483.98 479.226 1483.48 478.48 1482.85 477.851C1482.22 477.223 1481.48 476.724 1480.66 476.384C1479.84 476.044 1478.96 475.869 1478.07 475.869Z" fill="#F1BC19"/>
<path d="M1484.7 484.251C1484.68 484.251 1484.67 484.25 1484.65 484.246C1484.51 484.218 1484.43 484.086 1484.45 483.951C1484.54 483.523 1484.59 483.081 1484.59 482.637C1484.59 479.043 1481.66 476.119 1478.07 476.119C1476.06 476.119 1474.19 477.026 1472.94 478.609C1472.86 478.717 1472.7 478.736 1472.59 478.65C1472.48 478.565 1472.47 478.408 1472.55 478.299C1473.89 476.596 1475.9 475.619 1478.07 475.619C1481.94 475.619 1485.09 478.768 1485.09 482.637C1485.09 483.114 1485.04 483.59 1484.94 484.051C1484.92 484.17 1484.81 484.251 1484.7 484.251Z" fill="#472B29"/>
<path d="M1479.82 478.312C1480.38 478.55 1480.89 478.894 1481.31 479.319L1479.82 478.312Z" fill="#F1BC19"/>
<path d="M1481.31 479.568C1481.25 479.568 1481.19 479.544 1481.14 479.495C1480.73 479.087 1480.25 478.766 1479.72 478.543C1479.6 478.489 1479.54 478.342 1479.59 478.215C1479.64 478.088 1479.79 478.029 1479.92 478.082C1480.51 478.33 1481.04 478.687 1481.49 479.142C1481.59 479.239 1481.59 479.398 1481.49 479.495C1481.44 479.544 1481.38 479.568 1481.31 479.568Z" fill="#472B29"/>
<path d="M1474.29 479.741C1475.15 478.647 1476.49 477.945 1477.99 477.945L1474.29 479.741Z" fill="#F1BC19"/>
<path d="M1474.29 479.991C1474.24 479.991 1474.18 479.973 1474.14 479.937C1474.03 479.852 1474.01 479.695 1474.1 479.586C1475.04 478.385 1476.46 477.695 1477.99 477.695C1478.13 477.695 1478.24 477.807 1478.24 477.945C1478.24 478.083 1478.13 478.195 1477.99 478.195C1476.62 478.195 1475.34 478.815 1474.49 479.896C1474.44 479.958 1474.37 479.991 1474.29 479.991Z" fill="#472B29"/>
<path d="M1464.03 492.651C1462.37 492.651 1461.03 491.211 1461.03 489.441C1461.03 487.671 1462.37 486.231 1464.03 486.231C1464.25 486.231 1464.47 486.258 1464.69 486.311L1465.11 486.412L1465.12 485.981C1465.22 482.745 1467.68 480.211 1470.72 480.211C1472.85 480.211 1474.77 481.48 1475.73 483.524L1475.97 484.029L1476.32 483.597C1477.08 482.663 1478.18 482.128 1479.33 482.128C1481.39 482.128 1483.14 483.843 1483.31 486.034L1483.34 486.461L1483.76 486.344C1484.02 486.27 1484.28 486.232 1484.53 486.232C1485.33 486.232 1486.08 486.563 1486.65 487.164C1487.22 487.772 1487.54 488.58 1487.54 489.442C1487.54 491.212 1486.19 492.652 1484.53 492.652H1464.03V492.651Z" fill="#48BED8"/>
<path d="M1470.72 480.559C1472.72 480.559 1474.52 481.752 1475.41 483.671L1475.89 484.682L1476.59 483.817C1477.28 482.965 1478.28 482.476 1479.33 482.476C1481.21 482.476 1482.81 484.05 1482.96 486.059L1483.03 486.913L1483.85 486.679C1484.08 486.613 1484.31 486.58 1484.53 486.58C1485.24 486.58 1485.9 486.872 1486.4 487.403C1486.91 487.945 1487.19 488.669 1487.19 489.441C1487.19 491.018 1486 492.301 1484.53 492.301H1464.03C1462.57 492.301 1461.38 491.018 1461.38 489.441C1461.38 487.864 1462.57 486.581 1464.03 486.581C1464.22 486.581 1464.42 486.605 1464.61 486.652L1465.45 486.853L1465.47 485.992C1465.57 482.945 1467.87 480.559 1470.72 480.559ZM1470.72 479.859C1467.49 479.859 1464.88 482.578 1464.78 485.97C1464.54 485.912 1464.29 485.88 1464.03 485.88C1462.18 485.88 1460.68 487.474 1460.68 489.44C1460.68 491.406 1462.18 493 1464.03 493C1464.25 493 1484.32 493 1484.53 493C1486.39 493 1487.89 491.406 1487.89 489.44C1487.89 487.473 1486.39 485.88 1484.53 485.88C1484.23 485.88 1483.94 485.926 1483.66 486.005C1483.48 483.638 1481.61 481.776 1479.33 481.776C1478.02 481.776 1476.84 482.397 1476.05 483.375C1475.07 481.293 1473.06 479.859 1470.72 479.859Z" fill="#472B29"/>
<path d="M1479.25 491H1477.75C1477.61 491 1477.5 490.888 1477.5 490.75C1477.5 490.612 1477.61 490.5 1477.75 490.5H1479.25C1479.39 490.5 1479.5 490.612 1479.5 490.75C1479.5 490.888 1479.39 491 1479.25 491Z" fill="#472B29"/>
<path d="M1475.75 491H1464.25C1464.11 491 1464 490.888 1464 490.75C1464 490.612 1464.11 490.5 1464.25 490.5H1475.75C1475.89 490.5 1476 490.612 1476 490.75C1476 490.888 1475.89 491 1475.75 491Z" fill="#472B29"/>
<path d="M1482.75 491H1480.75C1480.61 491 1480.5 490.888 1480.5 490.75C1480.5 490.612 1480.61 490.5 1480.75 490.5H1482.75C1482.89 490.5 1483 490.612 1483 490.75C1483 490.888 1482.89 491 1482.75 491Z" fill="#472B29"/>
<path d="M1478.25 474.5C1478.11 474.5 1478 474.388 1478 474.25V471.25C1478 471.112 1478.11 471 1478.25 471C1478.39 471 1478.5 471.112 1478.5 471.25V474.25C1478.5 474.388 1478.39 474.5 1478.25 474.5Z" fill="#472B29"/>
<path d="M1489.75 484H1486.75C1486.61 484 1486.5 483.888 1486.5 483.75C1486.5 483.612 1486.61 483.5 1486.75 483.5H1489.75C1489.89 483.5 1490 483.612 1490 483.75C1490 483.888 1489.89 484 1489.75 484Z" fill="#472B29"/>
<path d="M1484.05 477.343C1483.98 477.343 1483.92 477.318 1483.87 477.27C1483.77 477.172 1483.77 477.014 1483.87 476.916L1486.01 474.774C1486.11 474.677 1486.27 474.677 1486.37 474.774C1486.46 474.872 1486.46 475.03 1486.37 475.128L1484.22 477.27C1484.18 477.318 1484.11 477.343 1484.05 477.343Z" fill="#472B29"/>
<path d="M1472.86 476.737C1472.8 476.737 1472.73 476.712 1472.68 476.664L1470.54 474.522C1470.44 474.425 1470.44 474.266 1470.54 474.169C1470.64 474.071 1470.8 474.071 1470.9 474.169L1473.04 476.31C1473.13 476.408 1473.13 476.566 1473.04 476.664C1472.99 476.712 1472.92 476.737 1472.86 476.737Z" fill="#472B29"/>
</g>
<path d="M801 550C800.735 550 800.48 550.105 800.293 550.293C800.105 550.48 800 550.735 800 551C800 551.265 800.105 551.52 800.293 551.707C800.48 551.895 800.735 552 801 552C801.265 552 801.52 551.895 801.707 551.707C801.895 551.52 802 551.265 802 551C802 550.735 801.895 550.48 801.707 550.293C801.52 550.105 801.265 550 801 550Z" fill="#00A7A7"/>
<path d="M805.5 550C804.837 550 804.201 550.263 803.732 550.732C803.263 551.201 803 551.837 803 552.5C803 553.163 803.263 553.799 803.732 554.268C804.201 554.737 804.837 555 805.5 555C806.163 555 806.799 554.737 807.268 554.268C807.737 553.799 808 553.163 808 552.5C808 551.837 807.737 551.201 807.268 550.732C806.799 550.263 806.163 550 805.5 550Z" fill="#F1BC19"/>
<path d="M807 558C806.735 558 806.48 558.105 806.293 558.293C806.105 558.48 806 558.735 806 559C806 559.265 806.105 559.52 806.293 559.707C806.48 559.895 806.735 560 807 560C807.265 560 807.52 559.895 807.707 559.707C807.895 559.52 808 559.265 808 559C808 558.735 807.895 558.48 807.707 558.293C807.52 558.105 807.265 558 807 558Z" fill="#EE3E54"/>
<path d="M405 550C404.735 550 404.48 550.105 404.293 550.293C404.105 550.48 404 550.735 404 551C404 551.265 404.105 551.52 404.293 551.707C404.48 551.895 404.735 552 405 552C405.265 552 405.52 551.895 405.707 551.707C405.895 551.52 406 551.265 406 551C406 550.735 405.895 550.48 405.707 550.293C405.52 550.105 405.265 550 405 550Z" fill="#F1BC19"/>
<path d="M409 551C408.47 551 407.961 551.211 407.586 551.586C407.211 551.961 407 552.47 407 553C407 553.53 407.211 554.039 407.586 554.414C407.961 554.789 408.47 555 409 555C409.53 555 410.039 554.789 410.414 554.414C410.789 554.039 411 553.53 411 553C411 552.47 410.789 551.961 410.414 551.586C410.039 551.211 409.53 551 409 551Z" fill="#F1BC19"/>
<path d="M411 558C410.735 558 410.48 558.105 410.293 558.293C410.105 558.48 410 558.735 410 559C410 559.265 410.105 559.52 410.293 559.707C410.48 559.895 410.735 560 411 560C411.265 560 411.52 559.895 411.707 559.707C411.895 559.52 412 559.265 412 559C412 558.735 411.895 558.48 411.707 558.293C411.52 558.105 411.265 558 411 558Z" fill="#EE3E54"/>
<path d="M755.5 694C755.102 694 754.721 694.158 754.439 694.439C754.158 694.721 754 695.102 754 695.5C754 695.898 754.158 696.279 754.439 696.561C754.721 696.842 755.102 697 755.5 697C755.898 697 756.279 696.842 756.561 696.561C756.842 696.279 757 695.898 757 695.5C757 695.102 756.842 694.721 756.561 694.439C756.279 694.158 755.898 694 755.5 694Z" fill="#F1BC19"/>
<path d="M756.5 703C755.307 703 754.162 703.474 753.318 704.318C752.474 705.162 752 706.307 752 707.5C752 708.693 752.474 709.838 753.318 710.682C754.162 711.526 755.307 712 756.5 712C757.693 712 758.838 711.526 759.682 710.682C760.526 709.838 761 708.693 761 707.5C761 706.307 760.526 705.162 759.682 704.318C758.838 703.474 757.693 703 756.5 703Z" fill="#00A7A7"/>
<path d="M767 710C766.204 710 765.441 710.316 764.879 710.879C764.316 711.441 764 712.204 764 713C764 713.796 764.316 714.559 764.879 715.121C765.441 715.684 766.204 716 767 716C767.796 716 768.559 715.684 769.121 715.121C769.684 714.559 770 713.796 770 713C770 712.204 769.684 711.441 769.121 710.879C768.559 710.316 767.796 710 767 710Z" fill="#EE3E54"/>
<defs>
<filter id="filter0_f_1051_28677" x="0" y="0" width="2040" height="1250" filterUnits="userSpaceOnUse" color-interpolation-filters="sRGB">
<feFlood flood-opacity="0" result="BackgroundImageFix"/>
<feBlend mode="normal" in="SourceGraphic" in2="BackgroundImageFix" result="shape"/>
<feGaussianBlur stdDeviation="150" result="effect1_foregroundBlur_1051_28677"/>
</filter>
<filter id="filter1_ddd_1051_28677" x="462" y="582" width="82" height="82" filterUnits="userSpaceOnUse" color-interpolation-filters="sRGB">
<feFlood flood-opacity="0" result="BackgroundImageFix"/>
<feColorMatrix in="SourceAlpha" type="matrix" values="0 0 0 0 0 0 0 0 0 0 0 0 0 0 0 0 0 0 127 0" result="hardAlpha"/>
<feMorphology radius="1" operator="dilate" in="SourceAlpha" result="effect1_dropShadow_1051_28677"/>
<feOffset dy="2"/>
<feGaussianBlur stdDeviation="7.5"/>
<feColorMatrix type="matrix" values="0 0 0 0 0.564706 0 0 0 0 0.643137 0 0 0 0 0.682353 0 0 0 0.11 0"/>
<feBlend mode="normal" in2="BackgroundImageFix" result="effect1_dropShadow_1051_28677"/>
<feColorMatrix in="SourceAlpha" type="matrix" values="0 0 0 0 0 0 0 0 0 0 0 0 0 0 0 0 0 0 127 0" result="hardAlpha"/>
<feMorphology radius="1" operator="dilate" in="SourceAlpha" result="effect2_dropShadow_1051_28677"/>
<feOffset dy="7"/>
<feGaussianBlur stdDeviation="5"/>
<feColorMatrix type="matrix" values="0 0 0 0 0.564706 0 0 0 0 0.643137 0 0 0 0 0.682353 0 0 0 0.14 0"/>
<feBlend mode="normal" in2="effect1_dropShadow_1051_28677" result="effect2_dropShadow_1051_28677"/>
<feColorMatrix in="SourceAlpha" type="matrix" values="0 0 0 0 0 0 0 0 0 0 0 0 0 0 0 0 0 0 127 0" result="hardAlpha"/>
<feMorphology radius="2" operator="erode" in="SourceAlpha" result="effect3_dropShadow_1051_28677"/>
<feOffset dy="4"/>
<feGaussianBlur stdDeviation="2.5"/>
<feColorMatrix type="matrix" values="0 0 0 0 0.564706 0 0 0 0 0.643137 0 0 0 0 0.682353 0 0 0 0.25 0"/>
<feBlend mode="normal" in2="effect2_dropShadow_1051_28677" result="effect3_dropShadow_1051_28677"/>
<feBlend mode="normal" in="SourceGraphic" in2="effect3_dropShadow_1051_28677" result="shape"/>
</filter>
<filter id="filter2_ddd_1051_28677" x="1301" y="800" width="82" height="82" filterUnits="userSpaceOnUse" color-interpolation-filters="sRGB">
<feFlood flood-opacity="0" result="BackgroundImageFix"/>
<feColorMatrix in="SourceAlpha" type="matrix" values="0 0 0 0 0 0 0 0 0 0 0 0 0 0 0 0 0 0 127 0" result="hardAlpha"/>
<feMorphology radius="1" operator="dilate" in="SourceAlpha" result="effect1_dropShadow_1051_28677"/>
<feOffset dy="2"/>
<feGaussianBlur stdDeviation="7.5"/>
<feColorMatrix type="matrix" values="0 0 0 0 0.564706 0 0 0 0 0.643137 0 0 0 0 0.682353 0 0 0 0.11 0"/>
<feBlend mode="normal" in2="BackgroundImageFix" result="effect1_dropShadow_1051_28677"/>
<feColorMatrix in="SourceAlpha" type="matrix" values="0 0 0 0 0 0 0 0 0 0 0 0 0 0 0 0 0 0 127 0" result="hardAlpha"/>
<feMorphology radius="1" operator="dilate" in="SourceAlpha" result="effect2_dropShadow_1051_28677"/>
<feOffset dy="7"/>
<feGaussianBlur stdDeviation="5"/>
<feColorMatrix type="matrix" values="0 0 0 0 0.564706 0 0 0 0 0.643137 0 0 0 0 0.682353 0 0 0 0.14 0"/>
<feBlend mode="normal" in2="effect1_dropShadow_1051_28677" result="effect2_dropShadow_1051_28677"/>
<feColorMatrix in="SourceAlpha" type="matrix" values="0 0 0 0 0 0 0 0 0 0 0 0 0 0 0 0 0 0 127 0" result="hardAlpha"/>
<feMorphology radius="2" operator="erode" in="SourceAlpha" result="effect3_dropShadow_1051_28677"/>
<feOffset dy="4"/>
<feGaussianBlur stdDeviation="2.5"/>
<feColorMatrix type="matrix" values="0 0 0 0 0.564706 0 0 0 0 0.643137 0 0 0 0 0.682353 0 0 0 0.25 0"/>
<feBlend mode="normal" in2="effect2_dropShadow_1051_28677" result="effect3_dropShadow_1051_28677"/>
<feBlend mode="normal" in="SourceGraphic" in2="effect3_dropShadow_1051_28677" result="shape"/>
</filter>
<filter id="filter3_ddd_1051_28677" x="1053" y="411" width="82" height="82" filterUnits="userSpaceOnUse" color-interpolation-filters="sRGB">
<feFlood flood-opacity="0" result="BackgroundImageFix"/>
<feColorMatrix in="SourceAlpha" type="matrix" values="0 0 0 0 0 0 0 0 0 0 0 0 0 0 0 0 0 0 127 0" result="hardAlpha"/>
<feMorphology radius="1" operator="dilate" in="SourceAlpha" result="effect1_dropShadow_1051_28677"/>
<feOffset dy="2"/>
<feGaussianBlur stdDeviation="7.5"/>
<feColorMatrix type="matrix" values="0 0 0 0 0.564706 0 0 0 0 0.643137 0 0 0 0 0.682353 0 0 0 0.11 0"/>
<feBlend mode="normal" in2="BackgroundImageFix" result="effect1_dropShadow_1051_28677"/>
<feColorMatrix in="SourceAlpha" type="matrix" values="0 0 0 0 0 0 0 0 0 0 0 0 0 0 0 0 0 0 127 0" result="hardAlpha"/>
<feMorphology radius="1" operator="dilate" in="SourceAlpha" result="effect2_dropShadow_1051_28677"/>
<feOffset dy="7"/>
<feGaussianBlur stdDeviation="5"/>
<feColorMatrix type="matrix" values="0 0 0 0 0.564706 0 0 0 0 0.643137 0 0 0 0 0.682353 0 0 0 0.14 0"/>
<feBlend mode="normal" in2="effect1_dropShadow_1051_28677" result="effect2_dropShadow_1051_28677"/>
<feColorMatrix in="SourceAlpha" type="matrix" values="0 0 0 0 0 0 0 0 0 0 0 0 0 0 0 0 0 0 127 0" result="hardAlpha"/>
<feMorphology radius="2" operator="erode" in="SourceAlpha" result="effect3_dropShadow_1051_28677"/>
<feOffset dy="4"/>
<feGaussianBlur stdDeviation="2.5"/>
<feColorMatrix type="matrix" values="0 0 0 0 0.564706 0 0 0 0 0.643137 0 0 0 0 0.682353 0 0 0 0.25 0"/>
<feBlend mode="normal" in2="effect2_dropShadow_1051_28677" result="effect3_dropShadow_1051_28677"/>
<feBlend mode="normal" in="SourceGraphic" in2="effect3_dropShadow_1051_28677" result="shape"/>
</filter>
<filter id="filter4_ddd_1051_28677" x="635" y="783" width="82" height="82" filterUnits="userSpaceOnUse" color-interpolation-filters="sRGB">
<feFlood flood-opacity="0" result="BackgroundImageFix"/>
<feColorMatrix in="SourceAlpha" type="matrix" values="0 0 0 0 0 0 0 0 0 0 0 0 0 0 0 0 0 0 127 0" result="hardAlpha"/>
<feMorphology radius="1" operator="dilate" in="SourceAlpha" result="effect1_dropShadow_1051_28677"/>
<feOffset dy="2"/>
<feGaussianBlur stdDeviation="7.5"/>
<feColorMatrix type="matrix" values="0 0 0 0 0.564706 0 0 0 0 0.643137 0 0 0 0 0.682353 0 0 0 0.11 0"/>
<feBlend mode="normal" in2="BackgroundImageFix" result="effect1_dropShadow_1051_28677"/>
<feColorMatrix in="SourceAlpha" type="matrix" values="0 0 0 0 0 0 0 0 0 0 0 0 0 0 0 0 0 0 127 0" result="hardAlpha"/>
<feMorphology radius="1" operator="dilate" in="SourceAlpha" result="effect2_dropShadow_1051_28677"/>
<feOffset dy="7"/>
<feGaussianBlur stdDeviation="5"/>
<feColorMatrix type="matrix" values="0 0 0 0 0.564706 0 0 0 0 0.643137 0 0 0 0 0.682353 0 0 0 0.14 0"/>
<feBlend mode="normal" in2="effect1_dropShadow_1051_28677" result="effect2_dropShadow_1051_28677"/>
<feColorMatrix in="SourceAlpha" type="matrix" values="0 0 0 0 0 0 0 0 0 0 0 0 0 0 0 0 0 0 127 0" result="hardAlpha"/>
<feMorphology radius="2" operator="erode" in="SourceAlpha" result="effect3_dropShadow_1051_28677"/>
<feOffset dy="4"/>
<feGaussianBlur stdDeviation="2.5"/>
<feColorMatrix type="matrix" values="0 0 0 0 0.564706 0 0 0 0 0.643137 0 0 0 0 0.682353 0 0 0 0.25 0"/>
<feBlend mode="normal" in2="effect2_dropShadow_1051_28677" result="effect3_dropShadow_1051_28677"/>
<feBlend mode="normal" in="SourceGraphic" in2="effect3_dropShadow_1051_28677" result="shape"/>
</filter>
<filter id="filter5_ddd_1051_28677" x="663" y="386" width="82" height="82" filterUnits="userSpaceOnUse" color-interpolation-filters="sRGB">
<feFlood flood-opacity="0" result="BackgroundImageFix"/>
<feColorMatrix in="SourceAlpha" type="matrix" values="0 0 0 0 0 0 0 0 0 0 0 0 0 0 0 0 0 0 127 0" result="hardAlpha"/>
<feMorphology radius="1" operator="dilate" in="SourceAlpha" result="effect1_dropShadow_1051_28677"/>
<feOffset dy="2"/>
<feGaussianBlur stdDeviation="7.5"/>
<feColorMatrix type="matrix" values="0 0 0 0 0.564706 0 0 0 0 0.643137 0 0 0 0 0.682353 0 0 0 0.11 0"/>
<feBlend mode="normal" in2="BackgroundImageFix" result="effect1_dropShadow_1051_28677"/>
<feColorMatrix in="SourceAlpha" type="matrix" values="0 0 0 0 0 0 0 0 0 0 0 0 0 0 0 0 0 0 127 0" result="hardAlpha"/>
<feMorphology radius="1" operator="dilate" in="SourceAlpha" result="effect2_dropShadow_1051_28677"/>
<feOffset dy="7"/>
<feGaussianBlur stdDeviation="5"/>
<feColorMatrix type="matrix" values="0 0 0 0 0.564706 0 0 0 0 0.643137 0 0 0 0 0.682353 0 0 0 0.14 0"/>
<feBlend mode="normal" in2="effect1_dropShadow_1051_28677" result="effect2_dropShadow_1051_28677"/>
<feColorMatrix in="SourceAlpha" type="matrix" values="0 0 0 0 0 0 0 0 0 0 0 0 0 0 0 0 0 0 127 0" result="hardAlpha"/>
<feMorphology radius="2" operator="erode" in="SourceAlpha" result="effect3_dropShadow_1051_28677"/>
<feOffset dy="4"/>
<feGaussianBlur stdDeviation="2.5"/>
<feColorMatrix type="matrix" values="0 0 0 0 0.564706 0 0 0 0 0.643137 0 0 0 0 0.682353 0 0 0 0.25 0"/>
<feBlend mode="normal" in2="effect2_dropShadow_1051_28677" result="effect3_dropShadow_1051_28677"/>
<feBlend mode="normal" in="SourceGraphic" in2="effect3_dropShadow_1051_28677" result="shape"/>
</filter>
<filter id="filter6_ddd_1051_28677" x="1433" y="446" width="82" height="82" filterUnits="userSpaceOnUse" color-interpolation-filters="sRGB">
<feFlood flood-opacity="0" result="BackgroundImageFix"/>
<feColorMatrix in="SourceAlpha" type="matrix" values="0 0 0 0 0 0 0 0 0 0 0 0 0 0 0 0 0 0 127 0" result="hardAlpha"/>
<feMorphology radius="1" operator="dilate" in="SourceAlpha" result="effect1_dropShadow_1051_28677"/>
<feOffset dy="2"/>
<feGaussianBlur stdDeviation="7.5"/>
<feColorMatrix type="matrix" values="0 0 0 0 0.564706 0 0 0 0 0.643137 0 0 0 0 0.682353 0 0 0 0.11 0"/>
<feBlend mode="normal" in2="BackgroundImageFix" result="effect1_dropShadow_1051_28677"/>
<feColorMatrix in="SourceAlpha" type="matrix" values="0 0 0 0 0 0 0 0 0 0 0 0 0 0 0 0 0 0 127 0" result="hardAlpha"/>
<feMorphology radius="1" operator="dilate" in="SourceAlpha" result="effect2_dropShadow_1051_28677"/>
<feOffset dy="7"/>
<feGaussianBlur stdDeviation="5"/>
<feColorMatrix type="matrix" values="0 0 0 0 0.564706 0 0 0 0 0.643137 0 0 0 0 0.682353 0 0 0 0.14 0"/>
<feBlend mode="normal" in2="effect1_dropShadow_1051_28677" result="effect2_dropShadow_1051_28677"/>
<feColorMatrix in="SourceAlpha" type="matrix" values="0 0 0 0 0 0 0 0 0 0 0 0 0 0 0 0 0 0 127 0" result="hardAlpha"/>
<feMorphology radius="2" operator="erode" in="SourceAlpha" result="effect3_dropShadow_1051_28677"/>
<feOffset dy="4"/>
<feGaussianBlur stdDeviation="2.5"/>
<feColorMatrix type="matrix" values="0 0 0 0 0.564706 0 0 0 0 0.643137 0 0 0 0 0.682353 0 0 0 0.25 0"/>
<feBlend mode="normal" in2="effect2_dropShadow_1051_28677" result="effect3_dropShadow_1051_28677"/>
<feBlend mode="normal" in="SourceGraphic" in2="effect3_dropShadow_1051_28677" result="shape"/>
</filter>
</defs>
</svg>
