<svg width="975" height="907" viewBox="0 0 975 907" fill="none" xmlns="http://www.w3.org/2000/svg">
<g filter="url(#filter0_f_1237_30428)">
<ellipse cx="487.5" cy="453.5" rx="187.5" ry="153.5" transform="rotate(-180 487.5 453.5)" fill="#C0E5E4" fill-opacity="0.4"/>
</g>
<path d="M395.5 569C395.102 569 394.721 569.158 394.439 569.439C394.158 569.721 394 570.102 394 570.5C394 570.898 394.158 571.279 394.439 571.561C394.721 571.842 395.102 572 395.5 572C395.898 572 396.279 571.842 396.561 571.561C396.842 571.279 397 570.898 397 570.5C397 570.102 396.842 569.721 396.561 569.439C396.279 569.158 395.898 569 395.5 569Z" fill="#F1BC19"/>
<path d="M396.5 578C395.307 578 394.162 578.474 393.318 579.318C392.474 580.162 392 581.307 392 582.5C392 583.693 392.474 584.838 393.318 585.682C394.162 586.526 395.307 587 396.5 587C397.693 587 398.838 586.526 399.682 585.682C400.526 584.838 401 583.693 401 582.5C401 581.307 400.526 580.162 399.682 579.318C398.838 578.474 397.693 578 396.5 578Z" fill="#00A7A7"/>
<path d="M407 585C406.204 585 405.441 585.316 404.879 585.879C404.316 586.441 404 587.204 404 588C404 588.796 404.316 589.559 404.879 590.121C405.441 590.684 406.204 591 407 591C407.796 591 408.559 590.684 409.121 590.121C409.684 589.559 410 588.796 410 588C410 587.204 409.684 586.441 409.121 585.879C408.559 585.316 407.796 585 407 585Z" fill="#EE3E54"/>
<path d="M620 305C619.735 305 619.48 305.105 619.293 305.293C619.105 305.48 619 305.735 619 306C619 306.265 619.105 306.52 619.293 306.707C619.48 306.895 619.735 307 620 307C620.265 307 620.52 306.895 620.707 306.707C620.895 306.52 621 306.265 621 306C621 305.735 620.895 305.48 620.707 305.293C620.52 305.105 620.265 305 620 305Z" fill="#F1BC19"/>
<path d="M626 304C624.939 304 623.922 304.421 623.172 305.172C622.421 305.922 622 306.939 622 308C622 309.061 622.421 310.078 623.172 310.829C623.922 311.579 624.939 312 626 312C627.061 312 628.078 311.579 628.828 310.829C629.579 310.078 630 309.061 630 308C630 306.939 629.579 305.922 628.828 305.172C628.078 304.421 627.061 304 626 304Z" fill="#00A7A7"/>
<path d="M631 315C630.47 315 629.961 315.211 629.586 315.586C629.211 315.961 629 316.47 629 317C629 317.53 629.211 318.039 629.586 318.414C629.961 318.789 630.47 319 631 319C631.53 319 632.039 318.789 632.414 318.414C632.789 318.039 633 317.53 633 317C633 316.47 632.789 315.961 632.414 315.586C632.039 315.211 631.53 315 631 315Z" fill="#EE3E54"/>
<g filter="url(#filter1_ddd_1237_30428)">
<path d="M320.16 676.641C319.99 676.641 319.827 676.708 319.707 676.828C319.587 676.948 319.52 677.111 319.52 677.281C319.52 677.45 319.587 677.613 319.707 677.733C319.827 677.853 319.99 677.921 320.16 677.921C320.329 677.921 320.492 677.853 320.612 677.733C320.732 677.613 320.8 677.45 320.8 677.281C320.8 677.111 320.732 676.948 320.612 676.828C320.492 676.708 320.329 676.641 320.16 676.641Z" fill="#78A0CF"/>
<path d="M340.64 671.84C340.555 671.84 340.474 671.874 340.414 671.934C340.354 671.994 340.32 672.075 340.32 672.16C340.32 672.245 340.354 672.326 340.414 672.386C340.474 672.446 340.555 672.48 340.64 672.48C340.725 672.48 340.807 672.446 340.867 672.386C340.927 672.326 340.96 672.245 340.96 672.16C340.96 672.075 340.927 671.994 340.867 671.934C340.807 671.874 340.725 671.84 340.64 671.84Z" fill="#F1BC19"/>
<path d="M332 672.16C328.86 672.16 325.848 673.408 323.628 675.628C321.408 677.848 320.16 680.86 320.16 684C320.16 687.14 321.408 690.152 323.628 692.372C325.848 694.593 328.86 695.84 332 695.84C335.14 695.84 338.152 694.593 340.372 692.372C342.593 690.152 343.84 687.14 343.84 684C343.84 680.86 342.593 677.848 340.372 675.628C338.152 673.408 335.14 672.16 332 672.16Z" fill="#E3EFFB"/>
<path d="M342.559 671.52C342.22 671.52 341.894 671.654 341.654 671.894C341.414 672.134 341.279 672.46 341.279 672.8C341.279 673.139 341.414 673.465 341.654 673.705C341.894 673.945 342.22 674.08 342.559 674.08C342.899 674.08 343.224 673.945 343.464 673.705C343.704 673.465 343.839 673.139 343.839 672.8C343.839 672.46 343.704 672.134 343.464 671.894C343.224 671.654 342.899 671.52 342.559 671.52Z" fill="#F1BC19"/>
<path d="M343.839 675.039C343.669 675.039 343.507 675.106 343.387 675.227C343.267 675.347 343.199 675.509 343.199 675.679C343.199 675.849 343.267 676.012 343.387 676.132C343.507 676.252 343.669 676.319 343.839 676.319C344.009 676.319 344.172 676.252 344.292 676.132C344.412 676.012 344.479 675.849 344.479 675.679C344.479 675.509 344.412 675.347 344.292 675.227C344.172 675.106 344.009 675.039 343.839 675.039Z" fill="#78A0CF"/>
<path d="M341.92 691.681C341.75 691.681 341.587 691.748 341.467 691.868C341.347 691.988 341.28 692.151 341.28 692.321C341.28 692.491 341.347 692.653 341.467 692.773C341.587 692.893 341.75 692.961 341.92 692.961C342.089 692.961 342.252 692.893 342.372 692.773C342.492 692.653 342.56 692.491 342.56 692.321C342.56 692.151 342.492 691.988 342.372 691.868C342.252 691.748 342.089 691.681 341.92 691.681ZM320.8 686.881C320.46 686.881 320.134 687.016 319.894 687.256C319.654 687.496 319.52 687.821 319.52 688.161C319.52 688.5 319.654 688.826 319.894 689.066C320.134 689.306 320.46 689.441 320.8 689.441C321.139 689.441 321.465 689.306 321.705 689.066C321.945 688.826 322.08 688.5 322.08 688.161C322.08 687.821 321.945 687.496 321.705 687.256C321.465 687.016 321.139 686.881 320.8 686.881Z" fill="#FBCD59"/>
<path d="M323.999 695.199C323.83 695.199 323.667 695.267 323.547 695.387C323.427 695.507 323.359 695.669 323.359 695.839C323.359 696.009 323.427 696.172 323.547 696.292C323.667 696.412 323.83 696.479 323.999 696.479C324.169 696.479 324.332 696.412 324.452 696.292C324.572 696.172 324.639 696.009 324.639 695.839C324.639 695.669 324.572 695.507 324.452 695.387C324.332 695.267 324.169 695.199 323.999 695.199Z" fill="#78A0CF"/>
<path d="M321.919 684.32C321.707 684.32 321.503 684.405 321.353 684.555C321.203 684.705 321.119 684.908 321.119 685.12C321.119 685.332 321.203 685.536 321.353 685.686C321.503 685.836 321.707 685.92 321.919 685.92C322.131 685.92 322.335 685.836 322.485 685.686C322.635 685.536 322.719 685.332 322.719 685.12C322.719 684.908 322.635 684.705 322.485 684.555C322.335 684.405 322.131 684.32 321.919 684.32Z" fill="white"/>
<path d="M322.72 689.119C322.636 689.119 322.554 689.153 322.494 689.213C322.434 689.273 322.4 689.354 322.4 689.439C322.4 689.524 322.434 689.605 322.494 689.665C322.554 689.725 322.636 689.759 322.72 689.759C322.805 689.759 322.887 689.725 322.947 689.665C323.007 689.605 323.04 689.524 323.04 689.439C323.04 689.354 323.007 689.273 322.947 689.213C322.887 689.153 322.805 689.119 322.72 689.119Z" fill="#F1BC19"/>
<path d="M341.599 678.561C341.514 678.561 341.433 678.594 341.373 678.654C341.313 678.714 341.279 678.796 341.279 678.881C341.279 678.965 341.313 679.047 341.373 679.107C341.433 679.167 341.514 679.201 341.599 679.201C341.684 679.201 341.766 679.167 341.826 679.107C341.886 679.047 341.919 678.965 341.919 678.881C341.919 678.796 341.886 678.714 341.826 678.654C341.766 678.594 341.684 678.561 341.599 678.561Z" fill="white"/>
<path d="M337.36 678.103L330.481 679.829V688.167V688.666C330.482 689.437 329.557 690.419 328.011 691.016C326.271 691.686 324.603 691.588 324.285 690.798C323.967 690.007 325.12 688.822 326.859 688.152C327.66 687.843 328.368 687.75 329.014 687.76L329.014 687.538V678.704L338.81 676.221V685.718V686.217C338.811 686.988 337.729 687.99 336.183 688.586C334.443 689.256 332.775 689.158 332.457 688.368C332.139 687.577 333.292 686.392 335.031 685.722C335.832 685.413 336.714 685.216 337.36 685.226L337.36 685.004V678.103H337.36Z" fill="#EA5167"/>
<path d="M325.852 691.683C324.961 691.683 324.289 691.409 324.076 690.881C323.971 690.62 323.987 690.316 324.123 690.004C324.458 689.235 325.475 688.445 326.777 687.943C327.443 687.686 328.104 687.553 328.788 687.537V678.704C328.788 678.601 328.858 678.512 328.957 678.486L338.753 676.003C338.819 675.986 338.891 676.001 338.946 676.044C339.001 676.086 339.033 676.152 339.033 676.221V686.217C339.034 687.105 337.895 688.165 336.262 688.794C334.381 689.52 332.617 689.369 332.249 688.451C332.143 688.19 332.16 687.887 332.295 687.575C332.63 686.805 333.647 686.015 334.95 685.513C335.709 685.22 336.506 685.037 337.135 685.007V678.39L330.704 680.004V688.666C330.705 689.593 329.655 690.621 328.09 691.224C327.29 691.533 326.512 691.683 325.852 691.683ZM328.928 687.983C328.249 687.983 327.597 688.107 326.939 688.361C325.762 688.814 324.818 689.529 324.534 690.183C324.446 690.385 324.432 690.564 324.492 690.714C324.725 691.294 326.194 691.475 327.929 690.806C329.457 690.217 330.256 689.283 330.255 688.666V679.829C330.255 679.727 330.325 679.637 330.425 679.612L337.305 677.885C337.371 677.868 337.442 677.884 337.497 677.926C337.551 677.969 337.583 678.034 337.583 678.103L337.584 685.226C337.584 685.286 337.56 685.343 337.517 685.386C337.474 685.428 337.425 685.461 337.356 685.45C336.743 685.443 335.914 685.621 335.111 685.931C333.934 686.384 332.99 687.099 332.706 687.753C332.618 687.956 332.604 688.134 332.664 688.284C332.897 688.864 334.365 689.046 336.101 688.376C337.715 687.754 338.585 686.8 338.584 686.218V676.509L329.236 678.878L329.237 687.759C329.237 687.819 329.213 687.877 329.17 687.919C329.127 687.961 329.068 687.988 329.009 687.984C328.982 687.983 328.955 687.983 328.928 687.983Z" fill="#472B29"/>
<path d="M330.533 681.172L335.936 679.865L330.533 681.172Z" fill="#1F212B"/>
<path d="M330.534 681.334C330.462 681.334 330.397 681.285 330.379 681.211C330.358 681.125 330.411 681.039 330.497 681.018L335.9 679.711C335.986 679.692 336.072 679.744 336.093 679.829C336.114 679.915 336.061 680.001 335.975 680.022L330.572 681.329C330.559 681.332 330.547 681.334 330.534 681.334ZM335.13 688.09C335.094 688.09 335.061 688.065 335.053 688.028C335.043 687.985 335.069 687.941 335.112 687.932C336.17 687.688 337.044 687.16 337.41 686.772C337.44 686.74 337.49 686.738 337.523 686.769C337.555 686.799 337.556 686.85 337.526 686.882C337.145 687.286 336.238 687.836 335.149 688.088C335.142 688.089 335.136 688.09 335.13 688.09ZM334.008 688.222C333.816 688.222 333.627 688.21 333.444 688.186C333.4 688.18 333.369 688.14 333.375 688.097C333.38 688.053 333.421 688.022 333.464 688.028C333.688 688.057 333.921 688.069 334.157 688.06C334.194 688.06 334.238 688.093 334.24 688.137C334.242 688.181 334.207 688.218 334.163 688.22C334.111 688.221 334.06 688.222 334.008 688.222ZM325.801 690.728C325.692 690.728 325.594 690.722 325.507 690.711C325.463 690.705 325.433 690.665 325.438 690.621C325.444 690.578 325.484 690.547 325.528 690.552C326.058 690.62 327.068 690.477 328.041 689.997C328.08 689.978 328.128 689.993 328.148 690.033C328.167 690.073 328.151 690.121 328.111 690.14C327.266 690.557 326.386 690.728 325.801 690.728ZM327.128 688.972C327.096 688.972 327.067 688.953 327.054 688.922C327.038 688.881 327.058 688.834 327.099 688.818C327.525 688.648 327.956 688.536 328.496 688.455C328.542 688.446 328.58 688.478 328.587 688.522C328.593 688.566 328.563 688.606 328.519 688.613C327.992 688.692 327.572 688.802 327.158 688.966C327.149 688.97 327.139 688.972 327.128 688.972Z" fill="#472B29"/>
<path d="M326.066 689.519C326.04 689.519 326.014 689.506 325.999 689.482C325.975 689.444 325.986 689.395 326.024 689.371C326.188 689.269 326.349 689.175 326.503 689.093C326.543 689.073 326.591 689.087 326.612 689.126C326.632 689.166 326.618 689.214 326.578 689.235C326.427 689.315 326.269 689.406 326.109 689.507C326.096 689.515 326.081 689.519 326.066 689.519Z" fill="#472B29"/>
<path d="M328.719 689.759C328.692 689.759 328.666 689.745 328.651 689.721C328.627 689.683 328.639 689.634 328.676 689.61C329.007 689.405 329.295 689.112 329.375 689.027C329.405 688.995 329.456 688.993 329.488 689.024C329.52 689.054 329.522 689.105 329.491 689.137C329.408 689.225 329.109 689.531 328.761 689.747C328.748 689.755 328.733 689.759 328.719 689.759Z" fill="#472B29"/>
</g>
<g filter="url(#filter2_ddd_1237_30428)">
<path d="M651.961 571.8C652.137 571.8 652.281 571.657 652.281 571.48C652.281 571.303 652.137 571.16 651.961 571.16C651.784 571.16 651.641 571.303 651.641 571.48C651.641 571.657 651.784 571.8 651.961 571.8Z" fill="#F1BC19"/>
<path d="M643 595.16C649.716 595.16 655.16 589.716 655.16 583C655.16 576.284 649.716 570.84 643 570.84C636.284 570.84 630.84 576.284 630.84 583C630.84 589.716 636.284 595.16 643 595.16Z" fill="#F9DBD2"/>
<path d="M653.88 573.4C654.587 573.4 655.16 572.827 655.16 572.12C655.16 571.413 654.587 570.84 653.88 570.84C653.173 570.84 652.6 571.413 652.6 572.12C652.6 572.827 653.173 573.4 653.88 573.4Z" fill="#F1BC19"/>
<path d="M631.48 575.96C631.833 575.96 632.12 575.673 632.12 575.32C632.12 574.966 631.833 574.68 631.48 574.68C631.126 574.68 630.84 574.966 630.84 575.32C630.84 575.673 631.126 575.96 631.48 575.96Z" fill="#EE3E54"/>
<path d="M651.96 592.28C652.314 592.28 652.6 591.993 652.6 591.64C652.6 591.287 652.314 591 651.96 591C651.607 591 651.32 591.287 651.32 591.64C651.32 591.993 651.607 592.28 651.96 592.28Z" fill="#FBCD59"/>
<path d="M632.44 593.24C633.147 593.24 633.72 592.667 633.72 591.96C633.72 591.253 633.147 590.68 632.44 590.68C631.733 590.68 631.16 591.253 631.16 591.96C631.16 592.667 631.733 593.24 632.44 593.24Z" fill="#FBCD59"/>
<path d="M634.679 594.2C635.033 594.2 635.319 593.913 635.319 593.56C635.319 593.206 635.033 592.92 634.679 592.92C634.326 592.92 634.039 593.206 634.039 593.56C634.039 593.913 634.326 594.2 634.679 594.2Z" fill="#EE3E54"/>
<path d="M647.634 592.919C648.073 592.919 648.429 592.563 648.429 592.125C648.429 591.686 648.073 591.33 647.634 591.33C647.196 591.33 646.84 591.686 646.84 592.125C646.84 592.563 647.196 592.919 647.634 592.919Z" fill="white"/>
<path d="M632.121 582.679C632.298 582.679 632.441 582.536 632.441 582.359C632.441 582.182 632.298 582.039 632.121 582.039C631.944 582.039 631.801 582.182 631.801 582.359C631.801 582.536 631.944 582.679 632.121 582.679Z" fill="white"/>
<path d="M654.519 577.24C654.696 577.24 654.839 577.096 654.839 576.92C654.839 576.743 654.696 576.6 654.519 576.6C654.342 576.6 654.199 576.743 654.199 576.92C654.199 577.096 654.342 577.24 654.519 577.24Z" fill="#F1BC19"/>
<path d="M653.88 582.04C654.234 582.04 654.52 581.753 654.52 581.4C654.52 581.046 654.234 580.76 653.88 580.76C653.527 580.76 653.24 581.046 653.24 581.4C653.24 581.753 653.527 582.04 653.88 582.04Z" fill="white"/>
<path d="M636.28 583.736C637.217 583.736 637.976 582.976 637.976 582.04C637.976 581.103 637.217 580.344 636.28 580.344C635.343 580.344 634.584 581.103 634.584 582.04C634.584 582.976 635.343 583.736 636.28 583.736Z" fill="white"/>
<path d="M636.279 580.567C637.091 580.567 637.751 581.227 637.751 582.039C637.751 582.851 637.091 583.511 636.279 583.511C635.468 583.511 634.807 582.851 634.807 582.039C634.807 581.227 635.468 580.567 636.279 580.567ZM636.279 580.119C635.219 580.119 634.359 580.979 634.359 582.039C634.359 583.099 635.219 583.959 636.279 583.959C637.34 583.959 638.199 583.099 638.199 582.039C638.199 580.979 637.34 580.119 636.279 580.119Z" fill="#472B29"/>
<path d="M650.04 583.736C650.976 583.736 651.736 582.976 651.736 582.04C651.736 581.103 650.976 580.344 650.04 580.344C649.103 580.344 648.344 581.103 648.344 582.04C648.344 582.976 649.103 583.736 650.04 583.736Z" fill="white"/>
<path d="M650.039 580.567C650.851 580.567 651.511 581.227 651.511 582.039C651.511 582.851 650.851 583.511 650.039 583.511C649.228 583.511 648.567 582.851 648.567 582.039C648.567 581.227 649.228 580.567 650.039 580.567ZM650.039 580.119C648.979 580.119 648.119 580.979 648.119 582.039C648.119 583.099 648.979 583.959 650.039 583.959C651.1 583.959 651.959 583.099 651.959 582.039C651.959 580.979 651.1 580.119 650.039 580.119Z" fill="#472B29"/>
<path d="M643.161 589.496C647.544 589.496 651.097 587.161 651.097 584.28C651.097 581.4 647.544 579.064 643.161 579.064C638.778 579.064 635.225 581.4 635.225 584.28C635.225 587.161 638.778 589.496 643.161 589.496Z" fill="white"/>
<path d="M643.16 579.288C647.412 579.288 650.872 581.527 650.872 584.28C650.872 587.032 647.412 589.272 643.16 589.272C638.908 589.272 635.448 587.032 635.448 584.28C635.448 581.527 638.908 579.288 643.16 579.288ZM643.16 578.84C638.653 578.84 635 581.275 635 584.28C635 587.284 638.653 589.72 643.16 589.72C647.667 589.72 651.32 587.284 651.32 584.28C651.32 581.275 647.667 578.84 643.16 578.84Z" fill="#472B29"/>
<path d="M646.728 588.084C646.695 588.084 646.665 588.063 646.653 588.031C646.638 587.989 646.66 587.943 646.701 587.928C647.63 587.593 648.43 587.123 649.016 586.569C649.048 586.538 649.099 586.54 649.129 586.572C649.159 586.604 649.158 586.655 649.126 586.685C648.524 587.254 647.705 587.736 646.756 588.079C646.747 588.082 646.738 588.084 646.728 588.084Z" fill="#472B29"/>
<path d="M649.609 586.093C649.593 586.093 649.577 586.088 649.563 586.078C649.527 586.052 649.519 586.002 649.544 585.966C649.926 585.433 650.119 584.865 650.119 584.28C650.119 583.739 649.953 583.212 649.627 582.714C649.603 582.676 649.613 582.627 649.65 582.603C649.687 582.579 649.736 582.589 649.761 582.626C650.104 583.151 650.279 583.707 650.279 584.28C650.279 584.899 650.075 585.498 649.674 586.059C649.659 586.081 649.634 586.093 649.609 586.093Z" fill="#472B29"/>
<path d="M637.297 581.886C637.276 581.886 637.255 581.878 637.239 581.861C637.208 581.829 637.21 581.778 637.242 581.748C637.843 581.179 638.663 580.697 639.612 580.354C639.653 580.339 639.7 580.361 639.715 580.402C639.73 580.444 639.708 580.49 639.667 580.505C638.738 580.84 637.938 581.311 637.352 581.864C637.337 581.879 637.317 581.886 637.297 581.886Z" fill="#472B29"/>
<path d="M636.673 585.845C636.647 585.845 636.621 585.832 636.606 585.809C636.262 585.284 636.088 584.727 636.088 584.155C636.088 583.536 636.291 582.937 636.692 582.375C636.718 582.339 636.768 582.331 636.804 582.357C636.84 582.382 636.848 582.432 636.823 582.468C636.441 583.002 636.248 583.569 636.248 584.155C636.248 584.696 636.413 585.222 636.74 585.721C636.764 585.758 636.753 585.808 636.717 585.832C636.703 585.841 636.688 585.845 636.673 585.845Z" fill="#472B29"/>
<path d="M649.241 577.657C649.913 577.657 650.457 577.112 650.457 576.441C650.457 575.769 649.913 575.225 649.241 575.225C648.57 575.225 648.025 575.769 648.025 576.441C648.025 577.112 648.57 577.657 649.241 577.657Z" fill="white"/>
<path d="M649.241 575.448C649.788 575.448 650.233 575.893 650.233 576.44C650.233 576.987 649.788 577.432 649.241 577.432C648.694 577.432 648.249 576.987 648.249 576.44C648.249 575.893 648.694 575.448 649.241 575.448ZM649.241 575C648.446 575 647.801 575.645 647.801 576.44C647.801 577.235 648.446 577.88 649.241 577.88C650.036 577.88 650.681 577.235 650.681 576.44C650.681 575.645 650.036 575 649.241 575Z" fill="#472B29"/>
<path d="M640.44 584.439C641.059 584.439 641.56 583.938 641.56 583.319C641.56 582.701 641.059 582.199 640.44 582.199C639.822 582.199 639.32 582.701 639.32 583.319C639.32 583.938 639.822 584.439 640.44 584.439Z" fill="#EE3E54"/>
<path d="M640.44 584.599C639.734 584.599 639.16 584.025 639.16 583.319C639.16 582.613 639.734 582.039 640.44 582.039C641.146 582.039 641.72 582.613 641.72 583.319C641.72 584.025 641.146 584.599 640.44 584.599ZM640.44 582.359C639.911 582.359 639.48 582.79 639.48 583.319C639.48 583.848 639.911 584.279 640.44 584.279C640.969 584.279 641.4 583.848 641.4 583.319C641.4 582.79 640.969 582.359 640.44 582.359Z" fill="#472B29"/>
<path d="M645.88 584.439C646.498 584.439 647 583.938 647 583.319C647 582.701 646.498 582.199 645.88 582.199C645.261 582.199 644.76 582.701 644.76 583.319C644.76 583.938 645.261 584.439 645.88 584.439Z" fill="#EE3E54"/>
<path d="M645.88 584.599C645.174 584.599 644.6 584.025 644.6 583.319C644.6 582.613 645.174 582.039 645.88 582.039C646.586 582.039 647.16 582.613 647.16 583.319C647.16 584.025 646.586 584.599 645.88 584.599ZM645.88 582.359C645.35 582.359 644.92 582.79 644.92 583.319C644.92 583.848 645.35 584.279 645.88 584.279C646.409 584.279 646.84 583.848 646.84 583.319C646.84 582.79 646.409 582.359 645.88 582.359Z" fill="#472B29"/>
<path d="M643.16 579.16C643.143 579.16 643.126 579.158 643.109 579.152C643.026 579.124 642.98 579.033 643.008 578.95L644.288 575.11C644.315 575.03 644.399 574.983 644.482 575.006L648.082 575.966C648.167 575.988 648.218 576.076 648.195 576.161C648.172 576.246 648.085 576.298 647.999 576.275L644.544 575.353L643.312 579.051C643.289 579.118 643.227 579.16 643.16 579.16Z" fill="#472B29"/>
<path d="M643.139 587.596C642.25 587.596 641.367 587.336 640.516 586.816C640.441 586.77 640.417 586.671 640.463 586.596C640.509 586.521 640.608 586.497 640.683 586.543C642.3 587.531 643.968 587.53 645.638 586.542C645.713 586.497 645.812 586.522 645.857 586.598C645.903 586.674 645.877 586.772 645.801 586.817C644.924 587.336 644.028 587.596 643.139 587.596Z" fill="#472B29"/>
</g>
<g filter="url(#filter3_ddd_1237_30428)">
<path d="M385.16 304.641C384.99 304.641 384.827 304.708 384.707 304.828C384.587 304.948 384.52 305.111 384.52 305.281C384.52 305.45 384.587 305.613 384.707 305.733C384.827 305.853 384.99 305.921 385.16 305.921C385.329 305.921 385.492 305.853 385.612 305.733C385.732 305.613 385.8 305.45 385.8 305.281C385.8 305.111 385.732 304.948 385.612 304.828C385.492 304.708 385.329 304.641 385.16 304.641Z" fill="#F1BC19"/>
<path d="M405.64 299.84C405.555 299.84 405.474 299.874 405.414 299.934C405.354 299.994 405.32 300.075 405.32 300.16C405.32 300.245 405.354 300.326 405.414 300.386C405.474 300.446 405.555 300.48 405.64 300.48C405.725 300.48 405.807 300.446 405.867 300.386C405.927 300.326 405.96 300.245 405.96 300.16C405.96 300.075 405.927 299.994 405.867 299.934C405.807 299.874 405.725 299.84 405.64 299.84Z" fill="#F1BC19"/>
<path d="M397 300.16C393.86 300.16 390.848 301.408 388.628 303.628C386.408 305.848 385.16 308.86 385.16 312C385.16 315.14 386.408 318.152 388.628 320.372C390.848 322.593 393.86 323.84 397 323.84C400.14 323.84 403.152 322.593 405.372 320.372C407.593 318.152 408.84 315.14 408.84 312C408.84 308.86 407.593 305.848 405.372 303.628C403.152 301.408 400.14 300.16 397 300.16Z" fill="#FCE0A2"/>
<path d="M407.559 299.52C407.22 299.52 406.894 299.654 406.654 299.894C406.414 300.134 406.279 300.46 406.279 300.8C406.279 301.139 406.414 301.465 406.654 301.705C406.894 301.945 407.22 302.08 407.559 302.08C407.899 302.08 408.224 301.945 408.464 301.705C408.704 301.465 408.839 301.139 408.839 300.8C408.839 300.46 408.704 300.134 408.464 299.894C408.224 299.654 407.899 299.52 407.559 299.52Z" fill="#F1BC19"/>
<path d="M408.839 303.039C408.669 303.039 408.507 303.106 408.387 303.227C408.267 303.347 408.199 303.509 408.199 303.679C408.199 303.849 408.267 304.012 408.387 304.132C408.507 304.252 408.669 304.319 408.839 304.319C409.009 304.319 409.172 304.252 409.292 304.132C409.412 304.012 409.479 303.849 409.479 303.679C409.479 303.509 409.412 303.347 409.292 303.227C409.172 303.106 409.009 303.039 408.839 303.039Z" fill="#F1BC19"/>
<path d="M406.92 319.681C406.75 319.681 406.587 319.748 406.467 319.868C406.347 319.988 406.28 320.151 406.28 320.321C406.28 320.491 406.347 320.653 406.467 320.773C406.587 320.893 406.75 320.961 406.92 320.961C407.089 320.961 407.252 320.893 407.372 320.773C407.492 320.653 407.56 320.491 407.56 320.321C407.56 320.151 407.492 319.988 407.372 319.868C407.252 319.748 407.089 319.681 406.92 319.681ZM385.8 314.881C385.46 314.881 385.134 315.016 384.894 315.256C384.654 315.496 384.52 315.821 384.52 316.161C384.52 316.5 384.654 316.826 384.894 317.066C385.134 317.306 385.46 317.441 385.8 317.441C386.139 317.441 386.465 317.306 386.705 317.066C386.945 316.826 387.08 316.5 387.08 316.161C387.08 315.821 386.945 315.496 386.705 315.256C386.465 315.016 386.139 314.881 385.8 314.881Z" fill="#FBCD59"/>
<path d="M388.999 323.199C388.83 323.199 388.667 323.267 388.547 323.387C388.427 323.507 388.359 323.669 388.359 323.839C388.359 324.009 388.427 324.172 388.547 324.292C388.667 324.412 388.83 324.479 388.999 324.479C389.169 324.479 389.332 324.412 389.452 324.292C389.572 324.172 389.639 324.009 389.639 323.839C389.639 323.669 389.572 323.507 389.452 323.387C389.332 323.267 389.169 323.199 388.999 323.199Z" fill="#F1BC19"/>
<path d="M386.919 312.32C386.707 312.32 386.503 312.405 386.353 312.555C386.203 312.705 386.119 312.908 386.119 313.12C386.119 313.332 386.203 313.536 386.353 313.686C386.503 313.836 386.707 313.92 386.919 313.92C387.131 313.92 387.335 313.836 387.485 313.686C387.635 313.536 387.719 313.332 387.719 313.12C387.719 312.908 387.635 312.705 387.485 312.555C387.335 312.405 387.131 312.32 386.919 312.32Z" fill="white"/>
<path d="M387.72 317.119C387.636 317.119 387.554 317.153 387.494 317.213C387.434 317.273 387.4 317.354 387.4 317.439C387.4 317.524 387.434 317.605 387.494 317.665C387.554 317.725 387.636 317.759 387.72 317.759C387.805 317.759 387.887 317.725 387.947 317.665C388.007 317.605 388.04 317.524 388.04 317.439C388.04 317.354 388.007 317.273 387.947 317.213C387.887 317.153 387.805 317.119 387.72 317.119Z" fill="#F1BC19"/>
<path d="M406.599 306.561C406.514 306.561 406.433 306.594 406.373 306.654C406.313 306.714 406.279 306.796 406.279 306.881C406.279 306.965 406.313 307.047 406.373 307.107C406.433 307.167 406.514 307.201 406.599 307.201C406.684 307.201 406.766 307.167 406.826 307.107C406.886 307.047 406.919 306.965 406.919 306.881C406.919 306.796 406.886 306.714 406.826 306.654C406.766 306.594 406.684 306.561 406.599 306.561Z" fill="white"/>
<path d="M401.646 318.992H392.84C392.337 318.992 391.928 318.583 391.928 318.08C391.928 317.577 392.337 317.168 392.84 317.168H401.65L401.534 317.3C401.344 317.519 401.24 317.796 401.24 318.08C401.24 318.364 401.343 318.641 401.532 318.86L401.646 318.992Z" fill="#E1E0D8"/>
<path d="M391.928 317.289V305.92C391.928 305.417 392.337 305.008 392.84 305.008H401.16C401.662 305.008 402.072 305.417 402.072 305.92V316.88H392.84C392.553 316.88 392.284 316.982 392.06 317.175L391.928 317.289Z" fill="#BD977C"/>
<path d="M394.76 305.008H392.84C392.337 305.008 391.928 305.417 391.928 305.92V317.289L392.06 317.175C392.284 316.982 392.553 316.88 392.84 316.88H394.76V305.008Z" fill="#9F8066"/>
<path d="M402.312 317.259C402.387 317.247 402.441 317.179 402.441 317.103V305.921C402.441 305.214 401.867 304.641 401.161 304.641H392.841C392.134 304.641 391.561 305.214 391.561 305.921V318.081C391.561 318.257 391.596 318.426 391.661 318.579C391.726 318.732 391.819 318.87 391.935 318.986C391.993 319.044 392.057 319.096 392.125 319.142C392.261 319.234 392.416 319.3 392.582 319.334C392.666 319.352 392.752 319.361 392.841 319.361C392.868 319.361 402.196 319.361 402.217 319.361C402.34 319.361 402.44 319.26 402.441 319.137C402.441 319.137 402.441 319.137 402.441 319.137C402.441 319.136 402.441 319.137 402.441 319.137C402.441 319.136 402.44 319.135 402.44 319.134C402.438 319.014 402.352 318.917 402.235 318.887C401.876 318.796 401.609 318.469 401.609 318.081C401.609 317.666 401.914 317.32 402.312 317.259ZM392.841 305.089H401.161C401.62 305.089 401.993 305.461 401.993 305.921V316.801C401.993 316.801 393.49 316.801 392.841 316.801C392.521 316.801 392.233 316.922 392.009 317.115V305.921C392.009 305.461 392.381 305.089 392.841 305.089ZM392.841 318.913C392.382 318.913 392.009 318.54 392.009 318.081C392.009 317.622 392.382 317.249 392.841 317.249H401.475C401.281 317.472 401.161 317.761 401.161 318.081C401.161 318.399 401.279 318.689 401.472 318.913H392.841Z" fill="#472B29"/>
<path d="M394.64 313.6C394.574 313.6 394.52 313.546 394.52 313.48V310.2C394.52 310.134 394.574 310.08 394.64 310.08C394.706 310.08 394.76 310.134 394.76 310.2V313.48C394.76 313.546 394.706 313.6 394.64 313.6ZM394.64 315.2C394.574 315.2 394.52 315.146 394.52 315.08V314.68C394.52 314.614 394.574 314.56 394.64 314.56C394.706 314.56 394.76 314.614 394.76 314.68V315.08C394.76 315.146 394.706 315.2 394.64 315.2ZM394.64 316.16C394.574 316.16 394.52 316.106 394.52 316.04V315.64C394.52 315.574 394.574 315.52 394.64 315.52C394.706 315.52 394.76 315.574 394.76 315.64V316.04C394.76 316.106 394.706 316.16 394.64 316.16ZM401.36 318.08H393.28C393.214 318.08 393.16 318.026 393.16 317.96C393.16 317.894 393.214 317.84 393.28 317.84H401.36C401.426 317.84 401.48 317.894 401.48 317.96C401.48 318.026 401.426 318.08 401.36 318.08ZM401.36 318.64H396.48C396.414 318.64 396.36 318.586 396.36 318.52C396.36 318.454 396.414 318.4 396.48 318.4H401.36C401.426 318.4 401.48 318.454 401.48 318.52C401.48 318.586 401.426 318.64 401.36 318.64ZM395.92 318.64H395.52C395.454 318.64 395.4 318.586 395.4 318.52C395.4 318.454 395.454 318.4 395.52 318.4H395.92C395.986 318.4 396.04 318.454 396.04 318.52C396.04 318.586 395.986 318.64 395.92 318.64Z" fill="#472B29"/>
<path d="M393.24 304.4H396.6V310.96L394.92 310.2L393.24 310.96V304.4Z" fill="#EE3E54"/>
<path d="M396.56 311.04C396.544 311.04 396.527 311.037 396.512 311.03L394.92 310.332L393.328 311.03C393.291 311.047 393.248 311.043 393.215 311.021C393.18 310.999 393.16 310.961 393.16 310.92V304.44C393.16 304.374 393.214 304.32 393.28 304.32H396.56C396.626 304.32 396.68 304.374 396.68 304.44V310.92C396.68 310.961 396.66 310.999 396.626 311.021C396.606 311.034 396.583 311.04 396.56 311.04ZM394.92 310.08C394.937 310.08 394.953 310.084 394.968 310.091L396.44 310.737V304.56H393.4V310.737L394.872 310.091C394.887 310.084 394.904 310.08 394.92 310.08Z" fill="#472B29"/>
</g>
<defs>
<filter id="filter0_f_1237_30428" x="0" y="0" width="975" height="907" filterUnits="userSpaceOnUse" color-interpolation-filters="sRGB">
<feFlood flood-opacity="0" result="BackgroundImageFix"/>
<feBlend mode="normal" in="SourceGraphic" in2="BackgroundImageFix" result="shape"/>
<feGaussianBlur stdDeviation="150" result="effect1_foregroundBlur_1237_30428"/>
</filter>
<filter id="filter1_ddd_1237_30428" x="300" y="654" width="64" height="64" filterUnits="userSpaceOnUse" color-interpolation-filters="sRGB">
<feFlood flood-opacity="0" result="BackgroundImageFix"/>
<feColorMatrix in="SourceAlpha" type="matrix" values="0 0 0 0 0 0 0 0 0 0 0 0 0 0 0 0 0 0 127 0" result="hardAlpha"/>
<feMorphology radius="1" operator="dilate" in="SourceAlpha" result="effect1_dropShadow_1237_30428"/>
<feOffset dy="2"/>
<feGaussianBlur stdDeviation="7.5"/>
<feColorMatrix type="matrix" values="0 0 0 0 0.564706 0 0 0 0 0.643137 0 0 0 0 0.682353 0 0 0 0.11 0"/>
<feBlend mode="normal" in2="BackgroundImageFix" result="effect1_dropShadow_1237_30428"/>
<feColorMatrix in="SourceAlpha" type="matrix" values="0 0 0 0 0 0 0 0 0 0 0 0 0 0 0 0 0 0 127 0" result="hardAlpha"/>
<feMorphology radius="1" operator="dilate" in="SourceAlpha" result="effect2_dropShadow_1237_30428"/>
<feOffset dy="7"/>
<feGaussianBlur stdDeviation="5"/>
<feColorMatrix type="matrix" values="0 0 0 0 0.564706 0 0 0 0 0.643137 0 0 0 0 0.682353 0 0 0 0.14 0"/>
<feBlend mode="normal" in2="effect1_dropShadow_1237_30428" result="effect2_dropShadow_1237_30428"/>
<feColorMatrix in="SourceAlpha" type="matrix" values="0 0 0 0 0 0 0 0 0 0 0 0 0 0 0 0 0 0 127 0" result="hardAlpha"/>
<feMorphology radius="2" operator="erode" in="SourceAlpha" result="effect3_dropShadow_1237_30428"/>
<feOffset dy="4"/>
<feGaussianBlur stdDeviation="2.5"/>
<feColorMatrix type="matrix" values="0 0 0 0 0.564706 0 0 0 0 0.643137 0 0 0 0 0.682353 0 0 0 0.25 0"/>
<feBlend mode="normal" in2="effect2_dropShadow_1237_30428" result="effect3_dropShadow_1237_30428"/>
<feBlend mode="normal" in="SourceGraphic" in2="effect3_dropShadow_1237_30428" result="shape"/>
</filter>
<filter id="filter2_ddd_1237_30428" x="611" y="553" width="64" height="64" filterUnits="userSpaceOnUse" color-interpolation-filters="sRGB">
<feFlood flood-opacity="0" result="BackgroundImageFix"/>
<feColorMatrix in="SourceAlpha" type="matrix" values="0 0 0 0 0 0 0 0 0 0 0 0 0 0 0 0 0 0 127 0" result="hardAlpha"/>
<feMorphology radius="1" operator="dilate" in="SourceAlpha" result="effect1_dropShadow_1237_30428"/>
<feOffset dy="2"/>
<feGaussianBlur stdDeviation="7.5"/>
<feColorMatrix type="matrix" values="0 0 0 0 0.564706 0 0 0 0 0.643137 0 0 0 0 0.682353 0 0 0 0.11 0"/>
<feBlend mode="normal" in2="BackgroundImageFix" result="effect1_dropShadow_1237_30428"/>
<feColorMatrix in="SourceAlpha" type="matrix" values="0 0 0 0 0 0 0 0 0 0 0 0 0 0 0 0 0 0 127 0" result="hardAlpha"/>
<feMorphology radius="1" operator="dilate" in="SourceAlpha" result="effect2_dropShadow_1237_30428"/>
<feOffset dy="7"/>
<feGaussianBlur stdDeviation="5"/>
<feColorMatrix type="matrix" values="0 0 0 0 0.564706 0 0 0 0 0.643137 0 0 0 0 0.682353 0 0 0 0.14 0"/>
<feBlend mode="normal" in2="effect1_dropShadow_1237_30428" result="effect2_dropShadow_1237_30428"/>
<feColorMatrix in="SourceAlpha" type="matrix" values="0 0 0 0 0 0 0 0 0 0 0 0 0 0 0 0 0 0 127 0" result="hardAlpha"/>
<feMorphology radius="2" operator="erode" in="SourceAlpha" result="effect3_dropShadow_1237_30428"/>
<feOffset dy="4"/>
<feGaussianBlur stdDeviation="2.5"/>
<feColorMatrix type="matrix" values="0 0 0 0 0.564706 0 0 0 0 0.643137 0 0 0 0 0.682353 0 0 0 0.25 0"/>
<feBlend mode="normal" in2="effect2_dropShadow_1237_30428" result="effect3_dropShadow_1237_30428"/>
<feBlend mode="normal" in="SourceGraphic" in2="effect3_dropShadow_1237_30428" result="shape"/>
</filter>
<filter id="filter3_ddd_1237_30428" x="365" y="282" width="64" height="64" filterUnits="userSpaceOnUse" color-interpolation-filters="sRGB">
<feFlood flood-opacity="0" result="BackgroundImageFix"/>
<feColorMatrix in="SourceAlpha" type="matrix" values="0 0 0 0 0 0 0 0 0 0 0 0 0 0 0 0 0 0 127 0" result="hardAlpha"/>
<feMorphology radius="1" operator="dilate" in="SourceAlpha" result="effect1_dropShadow_1237_30428"/>
<feOffset dy="2"/>
<feGaussianBlur stdDeviation="7.5"/>
<feColorMatrix type="matrix" values="0 0 0 0 0.564706 0 0 0 0 0.643137 0 0 0 0 0.682353 0 0 0 0.11 0"/>
<feBlend mode="normal" in2="BackgroundImageFix" result="effect1_dropShadow_1237_30428"/>
<feColorMatrix in="SourceAlpha" type="matrix" values="0 0 0 0 0 0 0 0 0 0 0 0 0 0 0 0 0 0 127 0" result="hardAlpha"/>
<feMorphology radius="1" operator="dilate" in="SourceAlpha" result="effect2_dropShadow_1237_30428"/>
<feOffset dy="7"/>
<feGaussianBlur stdDeviation="5"/>
<feColorMatrix type="matrix" values="0 0 0 0 0.564706 0 0 0 0 0.643137 0 0 0 0 0.682353 0 0 0 0.14 0"/>
<feBlend mode="normal" in2="effect1_dropShadow_1237_30428" result="effect2_dropShadow_1237_30428"/>
<feColorMatrix in="SourceAlpha" type="matrix" values="0 0 0 0 0 0 0 0 0 0 0 0 0 0 0 0 0 0 127 0" result="hardAlpha"/>
<feMorphology radius="2" operator="erode" in="SourceAlpha" result="effect3_dropShadow_1237_30428"/>
<feOffset dy="4"/>
<feGaussianBlur stdDeviation="2.5"/>
<feColorMatrix type="matrix" values="0 0 0 0 0.564706 0 0 0 0 0.643137 0 0 0 0 0.682353 0 0 0 0.25 0"/>
<feBlend mode="normal" in2="effect2_dropShadow_1237_30428" result="effect3_dropShadow_1237_30428"/>
<feBlend mode="normal" in="SourceGraphic" in2="effect3_dropShadow_1237_30428" result="shape"/>
</filter>
</defs>
</svg>
