<svg width="1368" height="919" viewBox="0 0 1368 919" fill="none" xmlns="http://www.w3.org/2000/svg">
<g filter="url(#filter0_f_1237_30325)">
<ellipse cx="684" cy="459.5" rx="384" ry="159.5" fill="#C0E5E4" fill-opacity="0.4"/>
</g>
<g filter="url(#filter1_ddd_1237_30325)">
<path d="M458.16 337.641C457.99 337.641 457.827 337.708 457.707 337.828C457.587 337.948 457.52 338.111 457.52 338.281C457.52 338.45 457.587 338.613 457.707 338.733C457.827 338.853 457.99 338.921 458.16 338.921C458.329 338.921 458.492 338.853 458.612 338.733C458.732 338.613 458.8 338.45 458.8 338.281C458.8 338.111 458.732 337.948 458.612 337.828C458.492 337.708 458.329 337.641 458.16 337.641Z" fill="#F1BC19"/>
<path d="M478.64 332.84C478.555 332.84 478.474 332.874 478.414 332.934C478.354 332.994 478.32 333.075 478.32 333.16C478.32 333.245 478.354 333.326 478.414 333.386C478.474 333.446 478.555 333.48 478.64 333.48C478.725 333.48 478.807 333.446 478.867 333.386C478.927 333.326 478.96 333.245 478.96 333.16C478.96 333.075 478.927 332.994 478.867 332.934C478.807 332.874 478.725 332.84 478.64 332.84Z" fill="#F1BC19"/>
<path d="M470 333.16C466.86 333.16 463.848 334.408 461.628 336.628C459.408 338.848 458.16 341.86 458.16 345C458.16 348.14 459.408 351.152 461.628 353.372C463.848 355.593 466.86 356.84 470 356.84C473.14 356.84 476.152 355.593 478.372 353.372C480.593 351.152 481.84 348.14 481.84 345C481.84 341.86 480.593 338.848 478.372 336.628C476.152 334.408 473.14 333.16 470 333.16Z" fill="#FCE0A2"/>
<path d="M480.559 332.52C480.22 332.52 479.894 332.654 479.654 332.894C479.414 333.134 479.279 333.46 479.279 333.8C479.279 334.139 479.414 334.465 479.654 334.705C479.894 334.945 480.22 335.08 480.559 335.08C480.899 335.08 481.224 334.945 481.464 334.705C481.704 334.465 481.839 334.139 481.839 333.8C481.839 333.46 481.704 333.134 481.464 332.894C481.224 332.654 480.899 332.52 480.559 332.52Z" fill="#F1BC19"/>
<path d="M481.839 336.039C481.669 336.039 481.507 336.106 481.387 336.227C481.267 336.347 481.199 336.509 481.199 336.679C481.199 336.849 481.267 337.012 481.387 337.132C481.507 337.252 481.669 337.319 481.839 337.319C482.009 337.319 482.172 337.252 482.292 337.132C482.412 337.012 482.479 336.849 482.479 336.679C482.479 336.509 482.412 336.347 482.292 336.227C482.172 336.106 482.009 336.039 481.839 336.039Z" fill="#F1BC19"/>
<path d="M479.92 352.681C479.75 352.681 479.587 352.748 479.467 352.868C479.347 352.988 479.28 353.151 479.28 353.321C479.28 353.491 479.347 353.653 479.467 353.773C479.587 353.893 479.75 353.961 479.92 353.961C480.089 353.961 480.252 353.893 480.372 353.773C480.492 353.653 480.56 353.491 480.56 353.321C480.56 353.151 480.492 352.988 480.372 352.868C480.252 352.748 480.089 352.681 479.92 352.681ZM458.8 347.881C458.46 347.881 458.134 348.016 457.894 348.256C457.654 348.496 457.52 348.821 457.52 349.161C457.52 349.5 457.654 349.826 457.894 350.066C458.134 350.306 458.46 350.441 458.8 350.441C459.139 350.441 459.465 350.306 459.705 350.066C459.945 349.826 460.08 349.5 460.08 349.161C460.08 348.821 459.945 348.496 459.705 348.256C459.465 348.016 459.139 347.881 458.8 347.881Z" fill="#FBCD59"/>
<path d="M461.999 356.199C461.83 356.199 461.667 356.267 461.547 356.387C461.427 356.507 461.359 356.669 461.359 356.839C461.359 357.009 461.427 357.172 461.547 357.292C461.667 357.412 461.83 357.479 461.999 357.479C462.169 357.479 462.332 357.412 462.452 357.292C462.572 357.172 462.639 357.009 462.639 356.839C462.639 356.669 462.572 356.507 462.452 356.387C462.332 356.267 462.169 356.199 461.999 356.199Z" fill="#F1BC19"/>
<path d="M459.919 345.32C459.707 345.32 459.503 345.405 459.353 345.555C459.203 345.705 459.119 345.908 459.119 346.12C459.119 346.332 459.203 346.536 459.353 346.686C459.503 346.836 459.707 346.92 459.919 346.92C460.131 346.92 460.335 346.836 460.485 346.686C460.635 346.536 460.719 346.332 460.719 346.12C460.719 345.908 460.635 345.705 460.485 345.555C460.335 345.405 460.131 345.32 459.919 345.32Z" fill="white"/>
<path d="M460.72 350.119C460.636 350.119 460.554 350.153 460.494 350.213C460.434 350.273 460.4 350.354 460.4 350.439C460.4 350.524 460.434 350.605 460.494 350.665C460.554 350.725 460.636 350.759 460.72 350.759C460.805 350.759 460.887 350.725 460.947 350.665C461.007 350.605 461.04 350.524 461.04 350.439C461.04 350.354 461.007 350.273 460.947 350.213C460.887 350.153 460.805 350.119 460.72 350.119Z" fill="#F1BC19"/>
<path d="M479.599 339.561C479.514 339.561 479.433 339.594 479.373 339.654C479.313 339.714 479.279 339.796 479.279 339.881C479.279 339.965 479.313 340.047 479.373 340.107C479.433 340.167 479.514 340.201 479.599 340.201C479.684 340.201 479.766 340.167 479.826 340.107C479.886 340.047 479.919 339.965 479.919 339.881C479.919 339.796 479.886 339.714 479.826 339.654C479.766 339.594 479.684 339.561 479.599 339.561Z" fill="white"/>
<path d="M474.646 351.992H465.84C465.337 351.992 464.928 351.583 464.928 351.08C464.928 350.577 465.337 350.168 465.84 350.168H474.65L474.534 350.3C474.344 350.519 474.24 350.796 474.24 351.08C474.24 351.364 474.343 351.641 474.532 351.86L474.646 351.992Z" fill="#E1E0D8"/>
<path d="M464.928 350.289V338.92C464.928 338.417 465.337 338.008 465.84 338.008H474.16C474.662 338.008 475.072 338.417 475.072 338.92V349.88H465.84C465.553 349.88 465.284 349.982 465.06 350.175L464.928 350.289Z" fill="#BD977C"/>
<path d="M467.76 338.008H465.84C465.337 338.008 464.928 338.417 464.928 338.92V350.289L465.06 350.175C465.284 349.982 465.553 349.88 465.84 349.88H467.76V338.008Z" fill="#9F8066"/>
<path d="M475.312 350.259C475.387 350.247 475.441 350.179 475.441 350.103V338.921C475.441 338.214 474.867 337.641 474.161 337.641H465.841C465.134 337.641 464.561 338.214 464.561 338.921V351.081C464.561 351.257 464.596 351.426 464.661 351.579C464.726 351.732 464.819 351.87 464.935 351.986C464.993 352.044 465.057 352.096 465.125 352.142C465.261 352.234 465.416 352.3 465.582 352.334C465.666 352.352 465.752 352.361 465.841 352.361C465.868 352.361 475.196 352.361 475.217 352.361C475.34 352.361 475.44 352.26 475.441 352.137C475.441 352.137 475.441 352.137 475.441 352.137C475.441 352.136 475.441 352.137 475.441 352.137C475.441 352.136 475.44 352.135 475.44 352.134C475.438 352.014 475.352 351.917 475.235 351.887C474.876 351.796 474.609 351.469 474.609 351.081C474.609 350.666 474.914 350.32 475.312 350.259ZM465.841 338.089H474.161C474.62 338.089 474.993 338.461 474.993 338.921V349.801C474.993 349.801 466.49 349.801 465.841 349.801C465.521 349.801 465.233 349.922 465.009 350.115V338.921C465.009 338.461 465.381 338.089 465.841 338.089ZM465.841 351.913C465.382 351.913 465.009 351.54 465.009 351.081C465.009 350.622 465.382 350.249 465.841 350.249H474.475C474.281 350.472 474.161 350.761 474.161 351.081C474.161 351.399 474.279 351.689 474.472 351.913H465.841Z" fill="#472B29"/>
<path d="M467.64 346.6C467.574 346.6 467.52 346.546 467.52 346.48V343.2C467.52 343.134 467.574 343.08 467.64 343.08C467.706 343.08 467.76 343.134 467.76 343.2V346.48C467.76 346.546 467.706 346.6 467.64 346.6ZM467.64 348.2C467.574 348.2 467.52 348.146 467.52 348.08V347.68C467.52 347.614 467.574 347.56 467.64 347.56C467.706 347.56 467.76 347.614 467.76 347.68V348.08C467.76 348.146 467.706 348.2 467.64 348.2ZM467.64 349.16C467.574 349.16 467.52 349.106 467.52 349.04V348.64C467.52 348.574 467.574 348.52 467.64 348.52C467.706 348.52 467.76 348.574 467.76 348.64V349.04C467.76 349.106 467.706 349.16 467.64 349.16ZM474.36 351.08H466.28C466.214 351.08 466.16 351.026 466.16 350.96C466.16 350.894 466.214 350.84 466.28 350.84H474.36C474.426 350.84 474.48 350.894 474.48 350.96C474.48 351.026 474.426 351.08 474.36 351.08ZM474.36 351.64H469.48C469.414 351.64 469.36 351.586 469.36 351.52C469.36 351.454 469.414 351.4 469.48 351.4H474.36C474.426 351.4 474.48 351.454 474.48 351.52C474.48 351.586 474.426 351.64 474.36 351.64ZM468.92 351.64H468.52C468.454 351.64 468.4 351.586 468.4 351.52C468.4 351.454 468.454 351.4 468.52 351.4H468.92C468.986 351.4 469.04 351.454 469.04 351.52C469.04 351.586 468.986 351.64 468.92 351.64Z" fill="#472B29"/>
<path d="M466.24 337.4H469.6V343.96L467.92 343.2L466.24 343.96V337.4Z" fill="#EE3E54"/>
<path d="M469.56 344.04C469.544 344.04 469.527 344.037 469.512 344.03L467.92 343.332L466.328 344.03C466.291 344.047 466.248 344.043 466.215 344.021C466.18 343.999 466.16 343.961 466.16 343.92V337.44C466.16 337.374 466.214 337.32 466.28 337.32H469.56C469.626 337.32 469.68 337.374 469.68 337.44V343.92C469.68 343.961 469.66 343.999 469.626 344.021C469.606 344.034 469.583 344.04 469.56 344.04ZM467.92 343.08C467.937 343.08 467.953 343.084 467.968 343.091L469.44 343.737V337.56H466.4V343.737L467.872 343.091C467.887 343.084 467.904 343.08 467.92 343.08Z" fill="#472B29"/>
</g>
<path d="M918 342C917.735 342 917.48 342.105 917.293 342.293C917.105 342.48 917 342.735 917 343C917 343.265 917.105 343.52 917.293 343.707C917.48 343.895 917.735 344 918 344C918.265 344 918.52 343.895 918.707 343.707C918.895 343.52 919 343.265 919 343C919 342.735 918.895 342.48 918.707 342.293C918.52 342.105 918.265 342 918 342Z" fill="#F1BC19"/>
<path d="M924 341C922.939 341 921.922 341.421 921.172 342.172C920.421 342.922 920 343.939 920 345C920 346.061 920.421 347.078 921.172 347.829C921.922 348.579 922.939 349 924 349C925.061 349 926.078 348.579 926.828 347.829C927.579 347.078 928 346.061 928 345C928 343.939 927.579 342.922 926.828 342.172C926.078 341.421 925.061 341 924 341Z" fill="#00A7A7"/>
<path d="M929 352C928.47 352 927.961 352.211 927.586 352.586C927.211 352.961 927 353.47 927 354C927 354.53 927.211 355.039 927.586 355.414C927.961 355.789 928.47 356 929 356C929.53 356 930.039 355.789 930.414 355.414C930.789 355.039 931 354.53 931 354C931 353.47 930.789 352.961 930.414 352.586C930.039 352.211 929.53 352 929 352Z" fill="#EE3E54"/>
<g filter="url(#filter2_ddd_1237_30325)">
<path d="M421.16 602.641C420.99 602.641 420.827 602.708 420.707 602.828C420.587 602.948 420.52 603.111 420.52 603.281C420.52 603.45 420.587 603.613 420.707 603.733C420.827 603.853 420.99 603.921 421.16 603.921C421.329 603.921 421.492 603.853 421.612 603.733C421.732 603.613 421.8 603.45 421.8 603.281C421.8 603.111 421.732 602.948 421.612 602.828C421.492 602.708 421.329 602.641 421.16 602.641Z" fill="#78A0CF"/>
<path d="M441.64 597.84C441.555 597.84 441.474 597.874 441.414 597.934C441.354 597.994 441.32 598.075 441.32 598.16C441.32 598.245 441.354 598.326 441.414 598.386C441.474 598.446 441.555 598.48 441.64 598.48C441.725 598.48 441.807 598.446 441.867 598.386C441.927 598.326 441.96 598.245 441.96 598.16C441.96 598.075 441.927 597.994 441.867 597.934C441.807 597.874 441.725 597.84 441.64 597.84Z" fill="#F1BC19"/>
<path d="M433 598.16C429.86 598.16 426.848 599.408 424.628 601.628C422.408 603.848 421.16 606.86 421.16 610C421.16 613.14 422.408 616.152 424.628 618.372C426.848 620.593 429.86 621.84 433 621.84C436.14 621.84 439.152 620.593 441.372 618.372C443.593 616.152 444.84 613.14 444.84 610C444.84 606.86 443.593 603.848 441.372 601.628C439.152 599.408 436.14 598.16 433 598.16Z" fill="#E3EFFB"/>
<path d="M443.559 597.52C443.22 597.52 442.894 597.654 442.654 597.894C442.414 598.134 442.279 598.46 442.279 598.8C442.279 599.139 442.414 599.465 442.654 599.705C442.894 599.945 443.22 600.08 443.559 600.08C443.899 600.08 444.224 599.945 444.464 599.705C444.704 599.465 444.839 599.139 444.839 598.8C444.839 598.46 444.704 598.134 444.464 597.894C444.224 597.654 443.899 597.52 443.559 597.52Z" fill="#F1BC19"/>
<path d="M444.839 601.039C444.669 601.039 444.507 601.106 444.387 601.227C444.267 601.347 444.199 601.509 444.199 601.679C444.199 601.849 444.267 602.012 444.387 602.132C444.507 602.252 444.669 602.319 444.839 602.319C445.009 602.319 445.172 602.252 445.292 602.132C445.412 602.012 445.479 601.849 445.479 601.679C445.479 601.509 445.412 601.347 445.292 601.227C445.172 601.106 445.009 601.039 444.839 601.039Z" fill="#78A0CF"/>
<path d="M442.92 617.681C442.75 617.681 442.587 617.748 442.467 617.868C442.347 617.988 442.28 618.151 442.28 618.321C442.28 618.491 442.347 618.653 442.467 618.773C442.587 618.893 442.75 618.961 442.92 618.961C443.089 618.961 443.252 618.893 443.372 618.773C443.492 618.653 443.56 618.491 443.56 618.321C443.56 618.151 443.492 617.988 443.372 617.868C443.252 617.748 443.089 617.681 442.92 617.681ZM421.8 612.881C421.46 612.881 421.134 613.016 420.894 613.256C420.654 613.496 420.52 613.821 420.52 614.161C420.52 614.5 420.654 614.826 420.894 615.066C421.134 615.306 421.46 615.441 421.8 615.441C422.139 615.441 422.465 615.306 422.705 615.066C422.945 614.826 423.08 614.5 423.08 614.161C423.08 613.821 422.945 613.496 422.705 613.256C422.465 613.016 422.139 612.881 421.8 612.881Z" fill="#FBCD59"/>
<path d="M424.999 621.199C424.83 621.199 424.667 621.267 424.547 621.387C424.427 621.507 424.359 621.669 424.359 621.839C424.359 622.009 424.427 622.172 424.547 622.292C424.667 622.412 424.83 622.479 424.999 622.479C425.169 622.479 425.332 622.412 425.452 622.292C425.572 622.172 425.639 622.009 425.639 621.839C425.639 621.669 425.572 621.507 425.452 621.387C425.332 621.267 425.169 621.199 424.999 621.199Z" fill="#78A0CF"/>
<path d="M422.919 610.32C422.707 610.32 422.503 610.405 422.353 610.555C422.203 610.705 422.119 610.908 422.119 611.12C422.119 611.332 422.203 611.536 422.353 611.686C422.503 611.836 422.707 611.92 422.919 611.92C423.131 611.92 423.335 611.836 423.485 611.686C423.635 611.536 423.719 611.332 423.719 611.12C423.719 610.908 423.635 610.705 423.485 610.555C423.335 610.405 423.131 610.32 422.919 610.32Z" fill="white"/>
<path d="M423.72 615.119C423.636 615.119 423.554 615.153 423.494 615.213C423.434 615.273 423.4 615.354 423.4 615.439C423.4 615.524 423.434 615.605 423.494 615.665C423.554 615.725 423.636 615.759 423.72 615.759C423.805 615.759 423.887 615.725 423.947 615.665C424.007 615.605 424.04 615.524 424.04 615.439C424.04 615.354 424.007 615.273 423.947 615.213C423.887 615.153 423.805 615.119 423.72 615.119Z" fill="#F1BC19"/>
<path d="M442.599 604.561C442.514 604.561 442.433 604.594 442.373 604.654C442.313 604.714 442.279 604.796 442.279 604.881C442.279 604.965 442.313 605.047 442.373 605.107C442.433 605.167 442.514 605.201 442.599 605.201C442.684 605.201 442.766 605.167 442.826 605.107C442.886 605.047 442.919 604.965 442.919 604.881C442.919 604.796 442.886 604.714 442.826 604.654C442.766 604.594 442.684 604.561 442.599 604.561Z" fill="white"/>
<path d="M438.36 604.103L431.481 605.829V614.167V614.666C431.482 615.437 430.557 616.419 429.011 617.016C427.271 617.686 425.603 617.588 425.285 616.798C424.967 616.007 426.12 614.822 427.859 614.152C428.66 613.843 429.368 613.75 430.014 613.76L430.014 613.538V604.704L439.81 602.221V611.718V612.217C439.811 612.988 438.729 613.99 437.183 614.586C435.443 615.256 433.775 615.158 433.457 614.368C433.139 613.577 434.292 612.392 436.031 611.722C436.832 611.413 437.714 611.216 438.36 611.226L438.36 611.004V604.103H438.36Z" fill="#EA5167"/>
<path d="M426.852 617.683C425.961 617.683 425.289 617.409 425.076 616.881C424.971 616.62 424.987 616.316 425.123 616.004C425.458 615.235 426.475 614.445 427.777 613.943C428.443 613.686 429.104 613.553 429.788 613.537V604.704C429.788 604.601 429.858 604.512 429.957 604.486L439.753 602.003C439.819 601.986 439.891 602.001 439.946 602.044C440.001 602.086 440.033 602.152 440.033 602.221V612.217C440.034 613.105 438.895 614.165 437.262 614.794C435.381 615.52 433.617 615.369 433.249 614.451C433.143 614.19 433.16 613.887 433.295 613.575C433.63 612.805 434.647 612.015 435.95 611.513C436.709 611.22 437.506 611.037 438.135 611.007V604.39L431.704 606.004V614.666C431.705 615.593 430.655 616.621 429.09 617.224C428.29 617.533 427.512 617.683 426.852 617.683ZM429.928 613.983C429.249 613.983 428.597 614.107 427.939 614.361C426.762 614.814 425.818 615.529 425.534 616.183C425.446 616.385 425.432 616.564 425.492 616.714C425.725 617.294 427.194 617.475 428.929 616.806C430.457 616.217 431.256 615.283 431.255 614.666V605.829C431.255 605.727 431.325 605.637 431.425 605.612L438.305 603.885C438.371 603.868 438.442 603.884 438.497 603.926C438.551 603.969 438.583 604.034 438.583 604.103L438.584 611.226C438.584 611.286 438.56 611.343 438.517 611.386C438.474 611.428 438.425 611.461 438.356 611.45C437.743 611.443 436.914 611.621 436.111 611.931C434.934 612.384 433.99 613.099 433.706 613.753C433.618 613.956 433.604 614.134 433.664 614.284C433.897 614.864 435.365 615.046 437.101 614.376C438.715 613.754 439.585 612.8 439.584 612.218V602.509L430.236 604.878L430.237 613.759C430.237 613.819 430.213 613.877 430.17 613.919C430.127 613.961 430.068 613.988 430.009 613.984C429.982 613.983 429.955 613.983 429.928 613.983Z" fill="#472B29"/>
<path d="M431.533 607.172L436.936 605.865L431.533 607.172Z" fill="#1F212B"/>
<path d="M431.534 607.334C431.462 607.334 431.397 607.285 431.379 607.211C431.358 607.125 431.411 607.039 431.497 607.018L436.9 605.711C436.986 605.692 437.072 605.744 437.093 605.829C437.114 605.915 437.061 606.001 436.975 606.022L431.572 607.329C431.559 607.332 431.547 607.334 431.534 607.334ZM436.13 614.09C436.094 614.09 436.061 614.065 436.053 614.028C436.043 613.985 436.069 613.941 436.112 613.932C437.17 613.688 438.044 613.16 438.41 612.772C438.44 612.74 438.49 612.738 438.523 612.769C438.555 612.799 438.556 612.85 438.526 612.882C438.145 613.286 437.238 613.836 436.149 614.088C436.142 614.089 436.136 614.09 436.13 614.09ZM435.008 614.222C434.816 614.222 434.627 614.21 434.444 614.186C434.4 614.18 434.369 614.14 434.375 614.097C434.38 614.053 434.421 614.022 434.464 614.028C434.688 614.057 434.921 614.069 435.157 614.06C435.194 614.06 435.238 614.093 435.24 614.137C435.242 614.181 435.207 614.218 435.163 614.22C435.111 614.221 435.06 614.222 435.008 614.222ZM426.801 616.728C426.692 616.728 426.594 616.722 426.507 616.711C426.463 616.705 426.433 616.665 426.438 616.621C426.444 616.578 426.484 616.547 426.528 616.552C427.058 616.62 428.068 616.477 429.041 615.997C429.08 615.978 429.128 615.993 429.148 616.033C429.167 616.073 429.151 616.121 429.111 616.14C428.266 616.557 427.386 616.728 426.801 616.728ZM428.128 614.972C428.096 614.972 428.067 614.953 428.054 614.922C428.038 614.881 428.058 614.834 428.099 614.818C428.525 614.648 428.956 614.536 429.496 614.455C429.542 614.446 429.58 614.478 429.587 614.522C429.593 614.566 429.563 614.606 429.519 614.613C428.992 614.692 428.572 614.802 428.158 614.966C428.149 614.97 428.139 614.972 428.128 614.972Z" fill="#472B29"/>
<path d="M427.066 615.519C427.04 615.519 427.014 615.506 426.999 615.482C426.975 615.444 426.986 615.395 427.024 615.371C427.188 615.269 427.349 615.175 427.503 615.093C427.543 615.073 427.591 615.087 427.612 615.126C427.632 615.166 427.618 615.214 427.578 615.235C427.427 615.315 427.269 615.406 427.109 615.507C427.096 615.515 427.081 615.519 427.066 615.519Z" fill="#472B29"/>
<path d="M429.719 615.759C429.692 615.759 429.666 615.745 429.651 615.721C429.627 615.683 429.639 615.634 429.676 615.61C430.007 615.405 430.295 615.112 430.375 615.027C430.405 614.995 430.456 614.993 430.488 615.024C430.52 615.054 430.522 615.105 430.491 615.137C430.408 615.225 430.109 615.531 429.761 615.747C429.748 615.755 429.733 615.759 429.719 615.759Z" fill="#472B29"/>
</g>
<g filter="url(#filter3_ddd_1237_30325)">
<path d="M919.961 585.8C920.137 585.8 920.281 585.657 920.281 585.48C920.281 585.303 920.137 585.16 919.961 585.16C919.784 585.16 919.641 585.303 919.641 585.48C919.641 585.657 919.784 585.8 919.961 585.8Z" fill="#F1BC19"/>
<path d="M911 609.16C917.716 609.16 923.16 603.716 923.16 597C923.16 590.284 917.716 584.84 911 584.84C904.284 584.84 898.84 590.284 898.84 597C898.84 603.716 904.284 609.16 911 609.16Z" fill="#F9DBD2"/>
<path d="M921.88 587.4C922.587 587.4 923.16 586.827 923.16 586.12C923.16 585.413 922.587 584.84 921.88 584.84C921.173 584.84 920.6 585.413 920.6 586.12C920.6 586.827 921.173 587.4 921.88 587.4Z" fill="#F1BC19"/>
<path d="M899.48 589.96C899.833 589.96 900.12 589.673 900.12 589.32C900.12 588.966 899.833 588.68 899.48 588.68C899.126 588.68 898.84 588.966 898.84 589.32C898.84 589.673 899.126 589.96 899.48 589.96Z" fill="#EE3E54"/>
<path d="M919.96 606.28C920.314 606.28 920.6 605.993 920.6 605.64C920.6 605.287 920.314 605 919.96 605C919.607 605 919.32 605.287 919.32 605.64C919.32 605.993 919.607 606.28 919.96 606.28Z" fill="#FBCD59"/>
<path d="M900.44 607.24C901.147 607.24 901.72 606.667 901.72 605.96C901.72 605.253 901.147 604.68 900.44 604.68C899.733 604.68 899.16 605.253 899.16 605.96C899.16 606.667 899.733 607.24 900.44 607.24Z" fill="#FBCD59"/>
<path d="M902.679 608.2C903.033 608.2 903.319 607.913 903.319 607.56C903.319 607.206 903.033 606.92 902.679 606.92C902.326 606.92 902.039 607.206 902.039 607.56C902.039 607.913 902.326 608.2 902.679 608.2Z" fill="#EE3E54"/>
<path d="M915.634 606.919C916.073 606.919 916.429 606.563 916.429 606.125C916.429 605.686 916.073 605.33 915.634 605.33C915.196 605.33 914.84 605.686 914.84 606.125C914.84 606.563 915.196 606.919 915.634 606.919Z" fill="white"/>
<path d="M900.121 596.679C900.298 596.679 900.441 596.536 900.441 596.359C900.441 596.182 900.298 596.039 900.121 596.039C899.944 596.039 899.801 596.182 899.801 596.359C899.801 596.536 899.944 596.679 900.121 596.679Z" fill="white"/>
<path d="M922.519 591.24C922.696 591.24 922.839 591.096 922.839 590.92C922.839 590.743 922.696 590.6 922.519 590.6C922.342 590.6 922.199 590.743 922.199 590.92C922.199 591.096 922.342 591.24 922.519 591.24Z" fill="#F1BC19"/>
<path d="M921.88 596.04C922.234 596.04 922.52 595.753 922.52 595.4C922.52 595.046 922.234 594.76 921.88 594.76C921.527 594.76 921.24 595.046 921.24 595.4C921.24 595.753 921.527 596.04 921.88 596.04Z" fill="white"/>
<path d="M904.28 597.736C905.217 597.736 905.976 596.976 905.976 596.04C905.976 595.103 905.217 594.344 904.28 594.344C903.343 594.344 902.584 595.103 902.584 596.04C902.584 596.976 903.343 597.736 904.28 597.736Z" fill="white"/>
<path d="M904.279 594.567C905.091 594.567 905.751 595.227 905.751 596.039C905.751 596.851 905.091 597.511 904.279 597.511C903.468 597.511 902.807 596.851 902.807 596.039C902.807 595.227 903.468 594.567 904.279 594.567ZM904.279 594.119C903.219 594.119 902.359 594.979 902.359 596.039C902.359 597.099 903.219 597.959 904.279 597.959C905.34 597.959 906.199 597.099 906.199 596.039C906.199 594.979 905.34 594.119 904.279 594.119Z" fill="#472B29"/>
<path d="M918.04 597.736C918.976 597.736 919.736 596.976 919.736 596.04C919.736 595.103 918.976 594.344 918.04 594.344C917.103 594.344 916.344 595.103 916.344 596.04C916.344 596.976 917.103 597.736 918.04 597.736Z" fill="white"/>
<path d="M918.039 594.567C918.851 594.567 919.511 595.227 919.511 596.039C919.511 596.851 918.851 597.511 918.039 597.511C917.228 597.511 916.567 596.851 916.567 596.039C916.567 595.227 917.228 594.567 918.039 594.567ZM918.039 594.119C916.979 594.119 916.119 594.979 916.119 596.039C916.119 597.099 916.979 597.959 918.039 597.959C919.1 597.959 919.959 597.099 919.959 596.039C919.959 594.979 919.1 594.119 918.039 594.119Z" fill="#472B29"/>
<path d="M911.161 603.496C915.544 603.496 919.097 601.161 919.097 598.28C919.097 595.4 915.544 593.064 911.161 593.064C906.778 593.064 903.225 595.4 903.225 598.28C903.225 601.161 906.778 603.496 911.161 603.496Z" fill="white"/>
<path d="M911.16 593.288C915.412 593.288 918.872 595.527 918.872 598.28C918.872 601.032 915.412 603.272 911.16 603.272C906.908 603.272 903.448 601.032 903.448 598.28C903.448 595.527 906.908 593.288 911.16 593.288ZM911.16 592.84C906.653 592.84 903 595.275 903 598.28C903 601.284 906.653 603.72 911.16 603.72C915.667 603.72 919.32 601.284 919.32 598.28C919.32 595.275 915.667 592.84 911.16 592.84Z" fill="#472B29"/>
<path d="M914.728 602.084C914.695 602.084 914.665 602.063 914.653 602.031C914.638 601.989 914.66 601.943 914.701 601.928C915.63 601.593 916.43 601.123 917.016 600.569C917.048 600.538 917.099 600.54 917.129 600.572C917.159 600.604 917.158 600.655 917.126 600.685C916.524 601.254 915.705 601.736 914.756 602.079C914.747 602.082 914.738 602.084 914.728 602.084Z" fill="#472B29"/>
<path d="M917.609 600.093C917.593 600.093 917.577 600.088 917.563 600.078C917.527 600.052 917.519 600.002 917.544 599.966C917.926 599.433 918.119 598.865 918.119 598.28C918.119 597.739 917.953 597.212 917.627 596.714C917.603 596.676 917.613 596.627 917.65 596.603C917.687 596.579 917.736 596.589 917.761 596.626C918.104 597.151 918.279 597.707 918.279 598.28C918.279 598.899 918.075 599.498 917.674 600.059C917.659 600.081 917.634 600.093 917.609 600.093Z" fill="#472B29"/>
<path d="M905.297 595.886C905.276 595.886 905.255 595.878 905.239 595.861C905.208 595.829 905.21 595.778 905.242 595.748C905.843 595.179 906.663 594.697 907.612 594.354C907.653 594.339 907.7 594.361 907.715 594.402C907.73 594.444 907.708 594.49 907.667 594.505C906.738 594.84 905.938 595.311 905.352 595.864C905.337 595.879 905.317 595.886 905.297 595.886Z" fill="#472B29"/>
<path d="M904.673 599.845C904.647 599.845 904.621 599.832 904.606 599.809C904.262 599.284 904.088 598.727 904.088 598.155C904.088 597.536 904.291 596.937 904.692 596.375C904.718 596.339 904.768 596.331 904.804 596.357C904.84 596.382 904.848 596.432 904.823 596.468C904.441 597.002 904.248 597.569 904.248 598.155C904.248 598.696 904.413 599.222 904.74 599.721C904.764 599.758 904.753 599.808 904.717 599.832C904.703 599.841 904.688 599.845 904.673 599.845Z" fill="#472B29"/>
<path d="M917.241 591.657C917.913 591.657 918.457 591.112 918.457 590.441C918.457 589.769 917.913 589.225 917.241 589.225C916.57 589.225 916.025 589.769 916.025 590.441C916.025 591.112 916.57 591.657 917.241 591.657Z" fill="white"/>
<path d="M917.241 589.448C917.788 589.448 918.233 589.893 918.233 590.44C918.233 590.987 917.788 591.432 917.241 591.432C916.694 591.432 916.249 590.987 916.249 590.44C916.249 589.893 916.694 589.448 917.241 589.448ZM917.241 589C916.446 589 915.801 589.645 915.801 590.44C915.801 591.235 916.446 591.88 917.241 591.88C918.036 591.88 918.681 591.235 918.681 590.44C918.681 589.645 918.036 589 917.241 589Z" fill="#472B29"/>
<path d="M908.44 598.439C909.059 598.439 909.56 597.938 909.56 597.319C909.56 596.701 909.059 596.199 908.44 596.199C907.822 596.199 907.32 596.701 907.32 597.319C907.32 597.938 907.822 598.439 908.44 598.439Z" fill="#EE3E54"/>
<path d="M908.44 598.599C907.734 598.599 907.16 598.025 907.16 597.319C907.16 596.613 907.734 596.039 908.44 596.039C909.146 596.039 909.72 596.613 909.72 597.319C909.72 598.025 909.146 598.599 908.44 598.599ZM908.44 596.359C907.911 596.359 907.48 596.79 907.48 597.319C907.48 597.848 907.911 598.279 908.44 598.279C908.969 598.279 909.4 597.848 909.4 597.319C909.4 596.79 908.969 596.359 908.44 596.359Z" fill="#472B29"/>
<path d="M913.88 598.439C914.498 598.439 915 597.938 915 597.319C915 596.701 914.498 596.199 913.88 596.199C913.261 596.199 912.76 596.701 912.76 597.319C912.76 597.938 913.261 598.439 913.88 598.439Z" fill="#EE3E54"/>
<path d="M913.88 598.599C913.174 598.599 912.6 598.025 912.6 597.319C912.6 596.613 913.174 596.039 913.88 596.039C914.586 596.039 915.16 596.613 915.16 597.319C915.16 598.025 914.586 598.599 913.88 598.599ZM913.88 596.359C913.35 596.359 912.92 596.79 912.92 597.319C912.92 597.848 913.35 598.279 913.88 598.279C914.409 598.279 914.84 597.848 914.84 597.319C914.84 596.79 914.409 596.359 913.88 596.359Z" fill="#472B29"/>
<path d="M911.16 593.16C911.143 593.16 911.126 593.158 911.109 593.152C911.026 593.124 910.98 593.033 911.008 592.95L912.288 589.11C912.315 589.03 912.399 588.983 912.482 589.006L916.082 589.966C916.167 589.988 916.218 590.076 916.195 590.161C916.172 590.246 916.085 590.298 915.999 590.275L912.544 589.353L911.312 593.051C911.289 593.118 911.227 593.16 911.16 593.16Z" fill="#472B29"/>
<path d="M911.139 601.596C910.25 601.596 909.367 601.336 908.516 600.816C908.441 600.77 908.417 600.671 908.463 600.596C908.509 600.521 908.608 600.497 908.683 600.543C910.3 601.531 911.968 601.53 913.638 600.542C913.713 600.497 913.812 600.522 913.857 600.598C913.903 600.674 913.877 600.772 913.801 600.817C912.924 601.336 912.028 601.596 911.139 601.596Z" fill="#472B29"/>
</g>
<path d="M527.5 551C527.102 551 526.721 551.158 526.439 551.439C526.158 551.721 526 552.102 526 552.5C526 552.898 526.158 553.279 526.439 553.561C526.721 553.842 527.102 554 527.5 554C527.898 554 528.279 553.842 528.561 553.561C528.842 553.279 529 552.898 529 552.5C529 552.102 528.842 551.721 528.561 551.439C528.279 551.158 527.898 551 527.5 551Z" fill="#F1BC19"/>
<path d="M528.5 560C527.307 560 526.162 560.474 525.318 561.318C524.474 562.162 524 563.307 524 564.5C524 565.693 524.474 566.838 525.318 567.682C526.162 568.526 527.307 569 528.5 569C529.693 569 530.838 568.526 531.682 567.682C532.526 566.838 533 565.693 533 564.5C533 563.307 532.526 562.162 531.682 561.318C530.838 560.474 529.693 560 528.5 560Z" fill="#00A7A7"/>
<path d="M539 567C538.204 567 537.441 567.316 536.879 567.879C536.316 568.441 536 569.204 536 570C536 570.796 536.316 571.559 536.879 572.121C537.441 572.684 538.204 573 539 573C539.796 573 540.559 572.684 541.121 572.121C541.684 571.559 542 570.796 542 570C542 569.204 541.684 568.441 541.121 567.879C540.559 567.316 539.796 567 539 567Z" fill="#EE3E54"/>
<defs>
<filter id="filter0_f_1237_30325" x="0" y="0" width="1368" height="919" filterUnits="userSpaceOnUse" color-interpolation-filters="sRGB">
<feFlood flood-opacity="0" result="BackgroundImageFix"/>
<feBlend mode="normal" in="SourceGraphic" in2="BackgroundImageFix" result="shape"/>
<feGaussianBlur stdDeviation="150" result="effect1_foregroundBlur_1237_30325"/>
</filter>
<filter id="filter1_ddd_1237_30325" x="438" y="315" width="64" height="64" filterUnits="userSpaceOnUse" color-interpolation-filters="sRGB">
<feFlood flood-opacity="0" result="BackgroundImageFix"/>
<feColorMatrix in="SourceAlpha" type="matrix" values="0 0 0 0 0 0 0 0 0 0 0 0 0 0 0 0 0 0 127 0" result="hardAlpha"/>
<feMorphology radius="1" operator="dilate" in="SourceAlpha" result="effect1_dropShadow_1237_30325"/>
<feOffset dy="2"/>
<feGaussianBlur stdDeviation="7.5"/>
<feColorMatrix type="matrix" values="0 0 0 0 0.564706 0 0 0 0 0.643137 0 0 0 0 0.682353 0 0 0 0.11 0"/>
<feBlend mode="normal" in2="BackgroundImageFix" result="effect1_dropShadow_1237_30325"/>
<feColorMatrix in="SourceAlpha" type="matrix" values="0 0 0 0 0 0 0 0 0 0 0 0 0 0 0 0 0 0 127 0" result="hardAlpha"/>
<feMorphology radius="1" operator="dilate" in="SourceAlpha" result="effect2_dropShadow_1237_30325"/>
<feOffset dy="7"/>
<feGaussianBlur stdDeviation="5"/>
<feColorMatrix type="matrix" values="0 0 0 0 0.564706 0 0 0 0 0.643137 0 0 0 0 0.682353 0 0 0 0.14 0"/>
<feBlend mode="normal" in2="effect1_dropShadow_1237_30325" result="effect2_dropShadow_1237_30325"/>
<feColorMatrix in="SourceAlpha" type="matrix" values="0 0 0 0 0 0 0 0 0 0 0 0 0 0 0 0 0 0 127 0" result="hardAlpha"/>
<feMorphology radius="2" operator="erode" in="SourceAlpha" result="effect3_dropShadow_1237_30325"/>
<feOffset dy="4"/>
<feGaussianBlur stdDeviation="2.5"/>
<feColorMatrix type="matrix" values="0 0 0 0 0.564706 0 0 0 0 0.643137 0 0 0 0 0.682353 0 0 0 0.25 0"/>
<feBlend mode="normal" in2="effect2_dropShadow_1237_30325" result="effect3_dropShadow_1237_30325"/>
<feBlend mode="normal" in="SourceGraphic" in2="effect3_dropShadow_1237_30325" result="shape"/>
</filter>
<filter id="filter2_ddd_1237_30325" x="401" y="580" width="64" height="64" filterUnits="userSpaceOnUse" color-interpolation-filters="sRGB">
<feFlood flood-opacity="0" result="BackgroundImageFix"/>
<feColorMatrix in="SourceAlpha" type="matrix" values="0 0 0 0 0 0 0 0 0 0 0 0 0 0 0 0 0 0 127 0" result="hardAlpha"/>
<feMorphology radius="1" operator="dilate" in="SourceAlpha" result="effect1_dropShadow_1237_30325"/>
<feOffset dy="2"/>
<feGaussianBlur stdDeviation="7.5"/>
<feColorMatrix type="matrix" values="0 0 0 0 0.564706 0 0 0 0 0.643137 0 0 0 0 0.682353 0 0 0 0.11 0"/>
<feBlend mode="normal" in2="BackgroundImageFix" result="effect1_dropShadow_1237_30325"/>
<feColorMatrix in="SourceAlpha" type="matrix" values="0 0 0 0 0 0 0 0 0 0 0 0 0 0 0 0 0 0 127 0" result="hardAlpha"/>
<feMorphology radius="1" operator="dilate" in="SourceAlpha" result="effect2_dropShadow_1237_30325"/>
<feOffset dy="7"/>
<feGaussianBlur stdDeviation="5"/>
<feColorMatrix type="matrix" values="0 0 0 0 0.564706 0 0 0 0 0.643137 0 0 0 0 0.682353 0 0 0 0.14 0"/>
<feBlend mode="normal" in2="effect1_dropShadow_1237_30325" result="effect2_dropShadow_1237_30325"/>
<feColorMatrix in="SourceAlpha" type="matrix" values="0 0 0 0 0 0 0 0 0 0 0 0 0 0 0 0 0 0 127 0" result="hardAlpha"/>
<feMorphology radius="2" operator="erode" in="SourceAlpha" result="effect3_dropShadow_1237_30325"/>
<feOffset dy="4"/>
<feGaussianBlur stdDeviation="2.5"/>
<feColorMatrix type="matrix" values="0 0 0 0 0.564706 0 0 0 0 0.643137 0 0 0 0 0.682353 0 0 0 0.25 0"/>
<feBlend mode="normal" in2="effect2_dropShadow_1237_30325" result="effect3_dropShadow_1237_30325"/>
<feBlend mode="normal" in="SourceGraphic" in2="effect3_dropShadow_1237_30325" result="shape"/>
</filter>
<filter id="filter3_ddd_1237_30325" x="879" y="567" width="64" height="64" filterUnits="userSpaceOnUse" color-interpolation-filters="sRGB">
<feFlood flood-opacity="0" result="BackgroundImageFix"/>
<feColorMatrix in="SourceAlpha" type="matrix" values="0 0 0 0 0 0 0 0 0 0 0 0 0 0 0 0 0 0 127 0" result="hardAlpha"/>
<feMorphology radius="1" operator="dilate" in="SourceAlpha" result="effect1_dropShadow_1237_30325"/>
<feOffset dy="2"/>
<feGaussianBlur stdDeviation="7.5"/>
<feColorMatrix type="matrix" values="0 0 0 0 0.564706 0 0 0 0 0.643137 0 0 0 0 0.682353 0 0 0 0.11 0"/>
<feBlend mode="normal" in2="BackgroundImageFix" result="effect1_dropShadow_1237_30325"/>
<feColorMatrix in="SourceAlpha" type="matrix" values="0 0 0 0 0 0 0 0 0 0 0 0 0 0 0 0 0 0 127 0" result="hardAlpha"/>
<feMorphology radius="1" operator="dilate" in="SourceAlpha" result="effect2_dropShadow_1237_30325"/>
<feOffset dy="7"/>
<feGaussianBlur stdDeviation="5"/>
<feColorMatrix type="matrix" values="0 0 0 0 0.564706 0 0 0 0 0.643137 0 0 0 0 0.682353 0 0 0 0.14 0"/>
<feBlend mode="normal" in2="effect1_dropShadow_1237_30325" result="effect2_dropShadow_1237_30325"/>
<feColorMatrix in="SourceAlpha" type="matrix" values="0 0 0 0 0 0 0 0 0 0 0 0 0 0 0 0 0 0 127 0" result="hardAlpha"/>
<feMorphology radius="2" operator="erode" in="SourceAlpha" result="effect3_dropShadow_1237_30325"/>
<feOffset dy="4"/>
<feGaussianBlur stdDeviation="2.5"/>
<feColorMatrix type="matrix" values="0 0 0 0 0.564706 0 0 0 0 0.643137 0 0 0 0 0.682353 0 0 0 0.25 0"/>
<feBlend mode="normal" in2="effect2_dropShadow_1237_30325" result="effect3_dropShadow_1237_30325"/>
<feBlend mode="normal" in="SourceGraphic" in2="effect3_dropShadow_1237_30325" result="shape"/>
</filter>
</defs>
</svg>
