<svg width="451" height="524" viewBox="0 0 451 524" fill="none" xmlns="http://www.w3.org/2000/svg">
<g clip-path="url(#clip0_1984_53929)">
<path d="M450.5 523.905H0.5L184.39 66.3044H266.61L450.5 523.905Z" fill="#D0F0E4"/>
<path d="M217.603 33.6898L225.397 25.9655L233.191 33.6898" stroke="#FFCF2D" stroke-width="1.06272" stroke-miterlimit="10"/>
<path d="M225.397 25.9654V0.0949707" stroke="#FFCF2D" stroke-width="1.06272" stroke-miterlimit="10"/>
<path d="M225.398 79.7204C232.328 79.7204 237.946 74.1526 237.946 67.2844C237.946 60.4162 232.328 54.8484 225.398 54.8484C218.467 54.8484 212.849 60.4162 212.849 67.2844C212.849 74.1526 218.467 79.7204 225.398 79.7204Z" fill="#FFCF2D" stroke="white" stroke-width="1.06272" stroke-miterlimit="10"/>
<path d="M266.488 66.2335H184.323L185.419 61.2766C189.025 44.9522 205.832 33.1117 225.415 33.1117C235.206 33.1117 244.308 36.0718 251.395 41.0637C258.5 46.0557 263.59 53.0969 265.393 61.2591L266.488 66.2335Z" stroke="#9A3B82" stroke-width="1.06272" stroke-miterlimit="10" stroke-linecap="round"/>
<path d="M283.571 372.499H276.093V423.958H283.571V372.499Z" fill="#66B0F0"/>
<path d="M419.364 423.958H376.793C375.256 423.958 374.068 422.507 374.258 420.849L380.183 366.334C380.342 364.936 381.435 363.882 382.718 363.882H425.289C426.826 363.882 428.014 365.333 427.824 366.991L421.898 421.506C421.74 422.904 420.647 423.958 419.364 423.958Z" fill="#9A3B82"/>
<path d="M396.167 423.958H362.548C360.489 423.958 358.888 421.989 359.126 419.762L363.435 380.063C363.641 378.18 365.115 376.747 366.857 376.747H401.285L396.167 423.958Z" fill="white" stroke="#FFCF2D" stroke-width="1.2068" stroke-miterlimit="10"/>
<path d="M399.939 423.958H367.857C365.797 423.958 364.197 421.989 364.435 419.762L368.744 380.063C368.95 378.18 370.423 376.747 372.166 376.747H404.661C405.69 376.747 406.498 377.731 406.372 378.854L401.65 422.283C401.555 423.25 400.811 423.958 399.939 423.958Z" fill="white" stroke="#FFCF2D" stroke-width="1.2068" stroke-miterlimit="10"/>
<path d="M297.021 380.235H284.045V423.958H297.021V380.235Z" stroke="#9A3B82" stroke-width="1.2068" stroke-miterlimit="10" stroke-linecap="round"/>
<path d="M310.773 380.235H292.506V423.958H310.773V380.235Z" stroke="#9A3B82" stroke-width="1.2068" stroke-miterlimit="10" stroke-linecap="round"/>
<path d="M332.908 423.958H327.854L309.048 375.435H314.102L332.908 423.958Z" stroke="#9A3B82" stroke-width="1.2068" stroke-miterlimit="10" stroke-linecap="round"/>
<path d="M342.54 423.958H333.13L316.938 382.808H326.349L342.54 423.958Z" stroke="#9A3B82" stroke-width="1.2068" stroke-miterlimit="10" stroke-linecap="round"/>
<path d="M275.617 380.235H262.531V423.958H275.617V380.235Z" stroke="#9A3B82" stroke-width="1.2068" stroke-miterlimit="10" stroke-linecap="round"/>
<path d="M323.4 346.718H262.53V355.249H323.4V346.718Z" stroke="#9A3B82" stroke-width="1.2068" stroke-miterlimit="10" stroke-linecap="round"/>
<path d="M339.639 340.191H262.53V347.063H339.639V340.191Z" fill="#FE5244"/>
<path d="M314.575 330.279H262.53V340.018H314.575V330.279Z" fill="#FFCF2D"/>
<path d="M323.4 322.836H262.53V330.106H323.4V322.836Z" stroke="#9A3B82" stroke-width="1.2068" stroke-miterlimit="10" stroke-linecap="round"/>
<path d="M428.428 303.669L428.38 303.963L421.188 355.249H354.456L361.649 303.963L361.744 303.237C362.884 300.716 369.855 298.765 378.3 298.765C387.536 298.765 395.015 301.096 395.015 303.963C395.015 301.096 402.493 298.765 411.729 298.765C420.649 298.782 427.921 300.941 428.428 303.669Z" fill="white" stroke="#FFCF2D" stroke-width="1.2068" stroke-miterlimit="10"/>
<path d="M387.901 355.266L395.03 303.98" stroke="#FFCF2D" stroke-width="1.2068" stroke-miterlimit="10"/>
<path d="M387.901 355.266C387.901 352.399 380.423 350.068 371.187 350.068C361.95 350.068 354.472 352.399 354.472 355.266H387.901Z" fill="#FFCF2D"/>
<path d="M421.33 355.266C421.33 352.399 413.852 350.068 404.616 350.068C395.379 350.068 387.901 352.399 387.901 355.266H421.33Z" fill="#FFCF2D"/>
<path d="M388.154 354.178C388.059 351.311 395.458 348.704 404.695 348.341C410.462 348.117 416.15 348.997 419.144 350.258L426.273 301.407" stroke="#FFCF2D" stroke-width="1.2068" stroke-miterlimit="10" stroke-linecap="round"/>
<path d="M423.103 286.556H363.184V272.017C363.184 270.583 364.246 269.427 365.561 269.427H420.743C422.058 269.427 423.119 270.583 423.119 272.017V286.556H423.103Z" fill="white" stroke="#9A3B82" stroke-width="1.2068" stroke-miterlimit="10" stroke-linecap="round"/>
<path d="M427.886 268.736H376.253C375.445 268.736 374.812 268.028 374.812 267.164V261.38C374.812 260.499 375.461 259.808 376.253 259.808H427.886C428.694 259.808 429.328 260.516 429.328 261.38V267.164C429.328 268.028 428.679 268.736 427.886 268.736Z" fill="#FFCF2D"/>
<path d="M429.901 254.386H368.651V259.808H429.901V254.386Z" fill="#FE5244"/>
<path d="M428.791 254.386H382.037C381.419 254.386 380.928 253.833 380.928 253.177V248.808C380.928 248.135 381.435 247.6 382.037 247.6H428.791C429.409 247.6 429.9 248.152 429.9 248.808V253.177C429.9 253.833 429.409 254.386 428.791 254.386Z" fill="white" stroke="#9A3B82" stroke-width="1.2068" stroke-miterlimit="10" stroke-linecap="round"/>
<path d="M300.174 233.216H282.192V286.556H300.174V233.216Z" stroke="#9A3B82" stroke-width="1.2068" stroke-miterlimit="10" stroke-linecap="round"/>
<path d="M282.192 233.216H274.936V286.556H282.192V233.216Z" fill="white" stroke="#9A3B82" stroke-width="1.2068" stroke-miterlimit="10" stroke-linecap="round"/>
<path d="M274.937 233.216H262.738V286.556H274.937V233.216Z" fill="white" stroke="#9A3B82" stroke-width="1.2068" stroke-miterlimit="10" stroke-linecap="round"/>
<path d="M318.315 242.851H302.551V286.574H318.315V242.851Z" stroke="#9A3B82" stroke-width="1.2068" stroke-miterlimit="10" stroke-linecap="round"/>
<path d="M303.693 286.556H297.483C296.881 286.556 296.374 286.021 296.374 285.348V244.025C296.374 243.369 296.865 242.817 297.483 242.817H303.693C304.295 242.817 304.802 243.352 304.802 244.025V285.348C304.786 286.021 304.295 286.556 303.693 286.556Z" fill="white" stroke="#9A3B82" stroke-width="1.2068" stroke-miterlimit="10" stroke-linecap="round"/>
<path d="M318.317 242.851V266.819L309.778 242.851H318.317Z" fill="#9A3B82"/>
<path d="M354.817 286.556H329.594C329.04 286.556 328.533 286.176 328.343 285.624L311.961 239.657C311.612 238.69 312.262 237.653 313.212 237.653H338.435C338.989 237.653 339.496 238.033 339.687 238.586L356.068 284.553C356.417 285.52 355.767 286.556 354.817 286.556Z" fill="white" stroke="#FFCF2D" stroke-width="1.2068" stroke-miterlimit="10"/>
<path d="M358.939 286.556H333.716C333.162 286.556 332.655 286.176 332.465 285.624L316.083 239.657C315.734 238.69 316.384 237.653 317.335 237.653H342.557C343.111 237.653 343.618 238.033 343.809 238.586L360.19 284.553C360.539 285.52 359.889 286.556 358.939 286.556Z" fill="white" stroke="#FFCF2D" stroke-width="1.2068" stroke-miterlimit="10"/>
<path d="M403.237 206.191C400.876 206.916 398.373 207.314 395.806 207.314C380.803 207.314 368.651 194.069 368.651 177.716C368.651 164.23 376.937 152.833 388.265 149.276L403.237 206.191Z" stroke="#FFCF2D" stroke-width="1.2068" stroke-miterlimit="10"/>
<path d="M395.806 207.314V217.864" stroke="#FFCF2D" stroke-width="1.2068" stroke-miterlimit="10"/>
<path d="M395.807 202.79C408.512 202.79 418.811 191.564 418.811 177.716C418.811 163.869 408.512 152.643 395.807 152.643C383.102 152.643 372.802 163.869 372.802 177.716C372.802 191.564 383.102 202.79 395.807 202.79Z" fill="white" stroke="#3FB1B5" stroke-width="1.2068" stroke-miterlimit="10"/>
<path d="M405.423 217.795H386.269L395.774 212.598L405.423 217.795Z" fill="white" stroke="#FFCF2D" stroke-width="1.2068" stroke-miterlimit="10"/>
<path d="M429.903 217.864V523.905H421.236V501.629C421.236 496.673 417.545 492.65 412.998 492.65H279.344C274.797 492.65 271.106 496.673 271.106 501.629V523.905H262.535V217.864H429.903Z" stroke="#9A3B82" stroke-width="1.2068" stroke-miterlimit="10" stroke-linecap="round"/>
<path d="M417.876 484.171H274.241C272.419 484.171 270.93 482.565 270.93 480.562V435.51C270.93 433.524 272.404 431.901 274.241 431.901H417.876C419.698 431.901 421.187 433.507 421.187 435.51V480.562C421.187 482.565 419.698 484.171 417.876 484.171Z" stroke="#3FB1B5" stroke-width="1.2068" stroke-miterlimit="10"/>
<path d="M353.632 175.834V217.865H340.134L353.632 175.834Z" fill="#9A3B82"/>
<path d="M353.633 175.834L353.538 176.145L340.214 217.864H278.267L291.591 176.145L292.019 174.815C294.015 171.69 299.544 169.411 306.135 169.29C306.246 169.29 306.341 169.29 306.452 169.29C306.563 169.29 306.658 169.29 306.769 169.29C314.468 169.29 321.329 172.208 322.58 176.041C323.816 172.208 330.375 169.29 338.075 169.29C345.616 169.29 352.223 172.104 353.633 175.834Z" fill="white" stroke="#FFCF2D" stroke-width="1.2068" stroke-miterlimit="10"/>
<path d="M322.565 176.041L309.114 217.001" stroke="#FFCF2D" stroke-width="1.2068" stroke-miterlimit="10" stroke-linecap="round"/>
<path d="M309.082 217.347H278.267C279.407 213.461 285.808 210.474 293.508 210.474C301.239 210.474 307.941 213.461 309.082 217.347Z" fill="#FFCF2D"/>
<path d="M340.134 217.347H309.319C310.46 213.461 316.86 210.474 324.56 210.474C332.292 210.474 338.994 213.461 340.134 217.347Z" fill="#FFCF2D"/>
<path d="M335.746 445.25C335.746 443.903 336.744 442.797 337.996 442.797H354.805C356.041 442.797 357.055 443.885 357.055 445.25" stroke="#9A3B82" stroke-width="1.2068" stroke-miterlimit="10" stroke-linecap="round"/>
<path d="M262.535 355.266H429.903" stroke="#9A3B82" stroke-width="1.2068" stroke-miterlimit="10" stroke-linecap="round"/>
<path d="M262.535 286.556H429.903" stroke="#9A3B82" stroke-width="1.2068" stroke-miterlimit="10" stroke-linecap="round"/>
<path d="M262.535 423.958H429.903" stroke="#9A3B82" stroke-width="1.2068" stroke-miterlimit="10" stroke-linecap="round"/>
<path d="M283.131 153.697L262.535 217.864H429.903L450.499 153.697" stroke="#9A3B82" stroke-width="1.2068" stroke-miterlimit="10" stroke-linecap="round" stroke-linejoin="round"/>
<path d="M131.964 501.434V520.234C131.964 522.187 133.528 523.759 135.469 523.759H182.208C182.208 523.759 182.483 515.033 175.369 512.597C163.289 508.467 157.653 501.434 157.653 501.434H131.964Z" fill="white" stroke="#FE5244" stroke-width="1.23526" stroke-miterlimit="10"/>
<path d="M157.962 511.059C159.87 510.523 166.743 506.704 164.389 504.337C163.272 503.214 160.591 504.337 160.591 504.337" stroke="#FE5244" stroke-width="1.23526" stroke-miterlimit="10"/>
<path d="M165.008 513.65C166.915 513.115 173.514 508.847 170.919 506.756C168.96 505.166 166.022 508.242 166.022 508.242" stroke="#FE5244" stroke-width="1.23526" stroke-miterlimit="10"/>
<path d="M159.097 502.954L131.964 511.439V501.434H157.67C157.67 501.434 158.134 502.021 159.097 502.954Z" fill="#FE5244"/>
<path d="M190.561 501.434V520.234C190.561 522.187 192.124 523.759 194.066 523.759H240.805C240.805 523.759 241.08 515.033 233.966 512.596C221.886 508.467 216.25 501.434 216.25 501.434H190.561Z" fill="white" stroke="#FE5244" stroke-width="1.23526" stroke-miterlimit="10"/>
<path d="M216.559 511.059C218.466 510.523 225.34 506.704 222.985 504.337C221.869 503.214 219.188 504.337 219.188 504.337" stroke="#FE5244" stroke-width="1.23526" stroke-miterlimit="10"/>
<path d="M223.605 513.65C225.512 513.115 232.111 508.847 229.516 506.756C227.557 505.166 224.619 508.242 224.619 508.242" stroke="#FE5244" stroke-width="1.23526" stroke-miterlimit="10"/>
<path d="M217.693 502.954L190.561 511.439V501.434H216.267C216.267 501.434 216.731 502.021 217.693 502.954Z" fill="#FE5244"/>
<path d="M144.593 314.294L127.667 492.483H163.065L180.85 406.136L188.119 424.539V492.483H224.977V416.296L205.32 314.294H144.593Z" fill="#3FB1B5"/>
<path d="M163.029 357.096L146.568 492.483" stroke="#9A3B82" stroke-width="1.23526" stroke-miterlimit="10"/>
<path d="M205.902 492.483V416.296L182.808 322.933" stroke="#9A3B82" stroke-width="1.23526" stroke-miterlimit="10"/>
<path d="M187.603 424.539L165.54 360.102C164.784 357.891 162.705 356.405 160.368 356.405" stroke="white" stroke-width="1.23526" stroke-miterlimit="10"/>
<path d="M141.794 343.756L144.595 314.294H205.321L207.057 323.348L141.794 343.756Z" fill="#9A3B82"/>
<path d="M225.046 501.434H187.981C186.589 501.434 185.455 500.293 185.455 498.894V495.023C185.455 493.623 186.589 492.483 187.981 492.483H225.046C226.437 492.483 227.572 493.623 227.572 495.023V498.894C227.554 500.293 226.437 501.434 225.046 501.434Z" fill="#9A3B82"/>
<path d="M163.702 501.434H126.637C125.245 501.434 124.111 500.293 124.111 498.894V495.023C124.111 493.623 125.245 492.483 126.637 492.483H163.702C165.094 492.483 166.228 493.623 166.228 495.023V498.894C166.211 500.293 165.094 501.434 163.702 501.434Z" fill="#9A3B82"/>
<path d="M262.63 319.512L274.246 363.213L216.337 378.782L204.704 335.047C204.343 333.682 203.467 332.61 202.35 331.954C201.233 331.297 199.859 331.072 198.501 331.435C195.803 332.161 194.188 334.96 194.91 337.673L206.543 381.408L205.271 381.754L193.655 338.053C192.727 334.58 194.721 331.021 198.123 329.984C198.192 329.967 198.26 329.949 198.329 329.932L254.554 314.812C258.076 313.879 261.685 315.987 262.63 319.512Z" fill="#66B0F0"/>
<path d="M205.993 334.753L217.609 378.454L216.337 378.799L204.704 335.064C204.343 333.699 203.467 332.628 202.35 331.971C201.233 331.314 199.859 331.09 198.501 331.453C195.803 332.178 194.188 334.978 194.91 337.691L206.543 381.426L205.271 381.771L193.655 338.071C192.727 334.598 194.721 331.038 198.123 330.001C201.577 329.189 205.065 331.28 205.993 334.753Z" fill="#9A3B82"/>
<path d="M204.703 335.047L215.614 376.104L205.82 378.73L194.908 337.673C194.186 334.96 195.784 332.161 198.499 331.435C199.857 331.072 201.232 331.297 202.349 331.954C203.465 332.61 204.342 333.682 204.703 335.047Z" fill="white"/>
<path d="M262.8 342.667L236.458 351.791L215.666 314.294H135.076C121.38 314.294 111.139 301.628 113.94 288.149L122.325 247.646C124.954 234.962 136.072 225.873 148.943 225.873H204.05C217.401 225.873 228.777 235.619 230.891 248.872L239.19 288.305L262.8 342.667Z" fill="#FFCF2D" stroke="white" stroke-width="1.23526" stroke-miterlimit="10"/>
<path d="M130.779 313.862C121.293 311.943 114.248 303.822 113.526 294.249C114.248 293.748 115.056 293.316 115.915 293.005C122.152 290.689 129.284 294.491 131.878 301.489C133.476 305.878 132.927 310.475 130.779 313.862Z" fill="white"/>
<path d="M190.786 201.578V225.891H164.1L170.252 209.717L190.786 201.578Z" fill="#E57281"/>
<path d="M196.922 191.348C196.905 191.348 196.871 191.366 196.854 191.366L188.932 193.474C186.097 194.234 183.915 196.342 182.987 199.003H179.945C178.021 199.003 176.457 200.576 176.457 202.511V202.563C176.457 204.394 177.849 205.898 179.636 206.053C179.619 206.071 179.619 206.071 179.619 206.071C179.619 206.071 178.21 212.81 169.979 210.546C169.979 210.546 170.305 192.817 170.649 187.305C170.941 182.76 194.912 174.155 197.129 177.818C199.088 181.067 196.819 182.587 194.895 183.261C198.297 182.536 204.724 181.568 205.377 184.454C206.133 187.806 199.345 190.709 196.922 191.348Z" fill="#9A3B82"/>
<path d="M198.468 203.772H197.626L197.867 207.92C198.039 210.892 195.667 213.415 192.712 213.415H189C185.426 213.415 182.522 210.494 182.522 206.9V206.088H179.962C178.037 206.088 176.473 204.515 176.473 202.58V202.528C176.473 200.593 178.037 199.02 179.962 199.02H183.003C183.931 196.359 186.113 194.234 188.949 193.491L196.87 191.383L199.585 202.321C199.86 203.012 199.207 203.772 198.468 203.772Z" fill="#E57281"/>
<path d="M183.329 207.228C182.969 211.03 186.749 213.743 190.323 213.743" stroke="#9A3B82" stroke-width="1.02938" stroke-miterlimit="10" stroke-linecap="round"/>
<path d="M181.937 203.168C181.937 201.82 180.854 200.731 179.514 200.731" stroke="#9A3B82" stroke-width="1.02938" stroke-miterlimit="10" stroke-linecap="round"/>
<path d="M195.546 200.698C195.897 200.698 196.181 200.102 196.181 199.367C196.181 198.631 195.897 198.036 195.546 198.036C195.195 198.036 194.91 198.631 194.91 199.367C194.91 200.102 195.195 200.698 195.546 200.698Z" fill="#9A3B82"/>
<path d="M192.796 196.567C192.796 196.567 194.91 194.942 197.933 194.942" stroke="#9A3B82" stroke-width="1.02938" stroke-miterlimit="10" stroke-linecap="round"/>
<path d="M184.617 325.37C184.617 325.37 205.666 326.286 213.073 309.3L209.155 302.094L197.453 306.621L184.617 325.37Z" fill="white" stroke="#FE5244" stroke-width="1.23526" stroke-miterlimit="10"/>
<path d="M201.471 221.433C200.457 221.52 199.53 221.969 198.842 222.66C198.086 223.42 197.605 224.474 197.605 225.649V310.787C197.605 318.908 191.058 325.492 182.982 325.492H150.522C141.793 325.492 135.057 317.872 135.985 309.215V309.197L147.67 228.38C148.254 224.388 151.639 221.433 155.66 221.433H201.471Z" fill="#FE5244" stroke="#FE5244" stroke-width="1.23526" stroke-miterlimit="10"/>
<path d="M198.207 221.432C197.193 221.519 196.265 221.968 195.578 222.659C194.942 223.299 194.513 224.128 194.392 225.061C194.375 225.251 194.358 225.441 194.358 225.631L193.671 232.146L185.423 310.769C185.423 318.89 178.876 325.474 170.799 325.474H150.54C141.811 325.474 135.075 317.854 136.003 309.196V309.179L141.278 272.65L147.688 228.362C147.739 227.981 147.825 227.601 147.928 227.221C148.925 223.817 152.052 221.415 155.661 221.415H198.207V221.432Z" fill="white" stroke="#FE5244" stroke-width="1.23526" stroke-miterlimit="10"/>
<path d="M190.972 238.384L187.896 261.59C186.882 266.342 183.205 268.883 177.878 269.747L141.449 275.069L146.759 238.366H190.972V238.384Z" fill="#FFCF2D"/>
<path d="M196.901 221.432H195.99C194.34 221.415 192.897 222.59 192.57 224.232L187.209 259.016C186.195 263.768 182.02 267.172 177.191 267.172H143.666C139.611 267.172 136.587 263.405 137.463 259.413L143.924 229.899C145.007 224.957 149.371 221.432 154.406 221.432H196.901Z" fill="#FE5244" stroke="#FE5244" stroke-width="1.23526" stroke-miterlimit="10"/>
<path d="M169.268 276.849L177.808 224.336C177.98 223.281 178.89 222.487 179.956 222.487C181.296 222.487 182.327 223.696 182.104 225.044L173.563 277.557C173.392 278.611 172.481 279.406 171.416 279.406C170.075 279.406 169.044 278.197 169.268 276.849Z" fill="white" stroke="#FE5244" stroke-width="1.23526" stroke-miterlimit="10"/>
<path d="M150.178 276.849L158.719 224.336C158.891 223.281 159.801 222.487 160.867 222.487C162.207 222.487 163.238 223.696 163.015 225.044L154.474 277.557C154.303 278.611 153.392 279.406 152.326 279.406C150.986 279.406 149.955 278.197 150.178 276.849Z" fill="white" stroke="#FE5244" stroke-width="1.23526" stroke-miterlimit="10"/>
<path d="M206.026 225.908L197.623 225.942V225.649C197.623 224.474 198.087 223.42 198.86 222.659C199.548 221.968 200.458 221.519 201.489 221.432H202.177C204.29 221.605 205.957 223.402 206.026 225.908Z" fill="white" stroke="#FE5244" stroke-width="1.23526" stroke-miterlimit="10"/>
<path d="M259.657 343.755L266.737 362.124C267.871 365.079 266.221 368.362 263.197 369.209L247.646 373.494C246.701 373.753 245.704 373.529 244.965 372.889L243.384 371.507L246.615 370.643C248.041 370.263 249.003 368.932 248.935 367.446L248.574 363.783C248.505 362.141 247.182 360.828 245.549 360.776H245.721C243.745 360.707 241.821 359.48 241.047 357.648L238.573 351.03L259.657 343.755Z" fill="#E57281"/>
<path d="M243.71 371.87L246.253 371.179C247.679 370.798 248.642 369.641 248.573 368.155L248.384 364.146C248.315 362.504 246.992 361.191 245.36 361.139C243.383 361.07 241.631 359.843 240.857 358.011L238.211 351.739" stroke="white" stroke-width="1.23526" stroke-miterlimit="10" stroke-linecap="round"/>
<path d="M252.026 371.835C253.847 371.351 255.084 369.658 254.998 367.757L254.758 362.642" stroke="white" stroke-width="1.23526" stroke-miterlimit="10" stroke-linecap="round"/>
<path d="M258.607 370.124C260.429 369.641 261.666 367.947 261.58 366.046L261.339 360.932" stroke="white" stroke-width="1.23526" stroke-miterlimit="10" stroke-linecap="round"/>
<path d="M199.739 267.172L203.897 289.048C204.602 292.78 205.908 296.392 207.746 299.709L236.443 351.791L262.785 342.667" stroke="white" stroke-width="1.23526" stroke-miterlimit="10"/>
<path d="M217.146 316.782L207.747 299.709C206.166 296.824 204.98 293.748 204.224 290.551C205.118 290.257 206.046 290.05 207.025 289.964C214.449 289.307 221.03 295.58 221.734 303.96C222.147 309.041 220.308 313.723 217.146 316.782Z" fill="white"/>
</g>
<defs>
<clipPath id="clip0_1984_53929">
<rect width="450" height="523.81" fill="white" transform="translate(0.5 0.0949707)"/>
</clipPath>
</defs>
</svg>
