<svg width="332" height="174" viewBox="0 0 332 174" fill="none" xmlns="http://www.w3.org/2000/svg">
<path d="M33.377 145.046L285.711 163.745V137.143H33.377V145.046Z" fill="#ECEFF1"/>
<path d="M49.625 116.622L272.09 135.321V108.719H49.625V116.622Z" fill="#ECEFF1"/>
<path d="M62.4316 88.3952L256.914 107.095V80.4922H62.4316V88.3952Z" fill="#ECEFF1"/>
<path d="M285.711 137.044H33.377V163.755" stroke="#78909C" stroke-width="1.47968" stroke-miterlimit="10"/>
<path d="M272.09 108.621H49.625V135.322" stroke="#78909C" stroke-width="1.47968" stroke-miterlimit="10"/>
<path d="M256.831 80.394H62.4316V107.095" stroke="#78909C" stroke-width="1.47968" stroke-miterlimit="10"/>
<path d="M79.8838 61.7239L239.452 78.1106V54.7954H79.8838V61.7239Z" fill="#ECEFF1"/>
<path d="M239.386 54.7065H79.8838V78.1107" stroke="#78909C" stroke-width="1.47968" stroke-miterlimit="10"/>
<path d="M43.6775 163.665C43.6775 163.665 30.8267 140.546 38.6314 140.418C42.2735 140.359 46.0039 152.868 44.5903 163.665H43.6775Z" fill="#CFD8DC"/>
<path d="M44.2379 163.536C44.2379 163.536 39.4665 141.894 27.9412 145.388C16.4158 148.882 36.0895 163.536 36.0895 163.536" stroke="#90A4AE" stroke-width="1.47968" stroke-miterlimit="10" stroke-linecap="round"/>
<path d="M59.6603 163.91C63.6563 163.536 65.9142 156.372 61.1822 153.98C54.379 150.545 52.2484 157.72 53.5936 157.956C54.9383 158.202 56.8332 149.128 50.9626 149.374C45.0917 149.62 44.876 163.536 44.876 163.536" stroke="#90A4AE" stroke-width="1.47968" stroke-miterlimit="10" stroke-linecap="round"/>
<path d="M39.4073 163.536C39.4073 163.536 33.2716 148.597 27.293 145.614" stroke="#90A4AE" stroke-width="1.47968" stroke-miterlimit="10" stroke-linecap="round"/>
<path d="M45.9453 155.781C45.9453 155.781 47.3884 147.76 47.4473 142.485" stroke="#90A4AE" stroke-width="1.47968" stroke-miterlimit="10"/>
<path d="M44.1977 146.058C44.4823 146.766 46.6813 148.528 46.6813 148.528C46.6813 148.528 47.0348 145.723 46.7502 145.014C46.4656 144.306 45.6607 143.971 44.9636 144.257C44.2566 144.542 43.9131 145.349 44.1977 146.058Z" stroke="#90A4AE" stroke-width="1.47968" stroke-miterlimit="10"/>
<path d="M44.9342 140.418C45.2188 141.127 47.4178 142.888 47.4178 142.888C47.4178 142.888 47.7713 140.084 47.4867 139.375C47.2017 138.666 46.3968 138.332 45.6997 138.617C44.9931 138.912 44.6492 139.709 44.9342 140.418Z" stroke="#90A4AE" stroke-width="1.47968" stroke-miterlimit="10"/>
<path d="M49.9997 146.678C49.5873 147.317 47.0938 148.626 47.0938 148.626C47.0938 148.626 47.2805 145.811 47.6925 145.172C48.1049 144.532 48.9592 144.355 49.5973 144.768C50.2354 145.192 50.4122 146.038 49.9997 146.678Z" stroke="#90A4AE" stroke-width="1.47968" stroke-miterlimit="10"/>
<path d="M288.999 164.067C288.999 164.067 296.893 156.922 296.735 151.794C296.559 145.929 290.963 148.763 290.669 146.648C290.364 144.541 296.579 130.133 287.929 130.241C279.281 130.349 283.306 144.167 280.959 145.447C278.613 146.716 274.725 145.2 275.776 150.791C276.826 156.391 285.564 163.998 285.564 163.998L288.999 164.067Z" fill="#CFD8DC"/>
<path d="M312.699 163.891C317.813 163.891 321.75 154.521 313.867 152.041C305.983 149.561 305.12 157.031 306.838 157.316C308.556 157.602 309.41 142.967 295.224 144.955C279.742 147.12 289.206 163.891 289.206 163.891C289.206 163.891 280.076 148.498 288.47 130.468" stroke="#90A4AE" stroke-width="1.47968" stroke-miterlimit="10" stroke-linecap="round"/>
<path d="M278.486 163.891C278.486 163.891 270.475 147.081 262.788 152.434C255.101 157.789 273.145 163.891 273.145 163.891" stroke="#90A4AE" stroke-width="1.47968" stroke-miterlimit="10" stroke-linecap="round"/>
<path d="M275.599 163.743C275.599 163.743 267.814 153.31 262.68 152.543" stroke="#90A4AE" stroke-width="1.47968" stroke-miterlimit="10" stroke-linecap="round"/>
<path d="M285.426 163.792C285.426 163.792 281.214 153.96 277.483 148.134" stroke="#90A4AE" stroke-width="1.47968" stroke-miterlimit="10" stroke-linecap="round"/>
<path d="M276.493 154.393C277.318 154.964 280.999 155.308 280.999 155.308C280.999 155.308 279.36 151.981 278.545 151.411C277.72 150.84 276.601 151.046 276.032 151.873C275.462 152.7 275.668 153.831 276.493 154.393Z" stroke="#90A4AE" stroke-width="1.47968" stroke-miterlimit="10"/>
<path d="M273.233 147.68C274.058 148.251 277.74 148.596 277.74 148.596C277.74 148.596 276.1 145.269 275.285 144.698C274.461 144.128 273.341 144.334 272.772 145.161C272.203 145.988 272.409 147.12 273.233 147.68Z" stroke="#90A4AE" stroke-width="1.47968" stroke-miterlimit="10"/>
<path d="M271.869 141.983C272.399 142.829 275.649 144.6 275.649 144.6C275.649 144.6 275.462 140.9 274.922 140.054C274.392 139.207 273.273 138.951 272.429 139.483C271.584 140.014 271.339 141.136 271.869 141.983Z" stroke="#90A4AE" stroke-width="1.47968" stroke-miterlimit="10"/>
<path d="M283.305 150.87C283.315 151.873 281.528 155.121 281.528 155.121C281.528 155.121 279.702 151.893 279.692 150.899C279.683 149.895 280.488 149.078 281.489 149.078C282.481 149.068 283.295 149.866 283.305 150.87Z" stroke="#90A4AE" stroke-width="1.47968" stroke-miterlimit="10"/>
<path d="M279.654 144.236C279.664 145.24 277.877 148.488 277.877 148.488C277.877 148.488 276.051 145.26 276.041 144.265C276.032 143.262 276.836 142.445 277.838 142.445C278.839 142.445 279.644 143.242 279.654 144.236Z" stroke="#90A4AE" stroke-width="1.47968" stroke-miterlimit="10"/>
<path d="M44.0807 163.911H6" stroke="#78909C" stroke-width="1.47968" stroke-miterlimit="10"/>
<path d="M325.431 163.911H125.809" stroke="#78909C" stroke-width="1.47968" stroke-miterlimit="10"/>
<path d="M178.597 22.5435H140.134C132.358 22.5435 125.094 26.3818 120.695 32.7987L103.073 58.8205C101.621 60.9368 102.936 63.8202 105.499 63.8202H125.113L132.947 53.5554C133.87 52.256 135.912 52.8271 136.04 54.4214L137.62 73.751H179.569L183.103 54.0966C183.319 52.5613 185.302 52.0888 186.196 53.3583L193.392 62.6493H216.845L198.546 33.5762C194.217 26.7066 186.686 22.5435 178.597 22.5435Z" fill="#FEFEFE" stroke="#CFD8DC" stroke-width="1.47968" stroke-miterlimit="10" stroke-linecap="round"/>
<path d="M155.163 32.582L148.929 53.3386H164.332L157.489 32.582H155.163Z" fill="#607D8B"/>
<g opacity="0.2">
<g opacity="0.2">
<g opacity="0.2">
<path opacity="0.2" d="M160.132 40.6035V53.339H160.544V41.8534L160.407 41.4303L160.132 40.6035Z" fill="#FEFEFE"/>
</g>
<g opacity="0.2">
<path opacity="0.2" d="M155.743 32.6318H156.156V53.3392H155.743V32.6318Z" fill="#FEFEFE"/>
</g>
<g opacity="0.2">
<path opacity="0.2" d="M151.354 45.2592V53.3394H151.767V43.8813L151.354 45.2592Z" fill="#FEFEFE"/>
</g>
</g>
<g opacity="0.2">
<g opacity="0.2">
<path opacity="0.2" d="M149.734 50.652H163.449L163.312 50.229H149.862L149.734 50.652Z" fill="#FEFEFE"/>
</g>
<g opacity="0.2">
<path opacity="0.2" d="M151.06 46.2533H161.996L161.858 45.8301H151.187L151.06 46.2533Z" fill="#FEFEFE"/>
</g>
<g opacity="0.2">
<path opacity="0.2" d="M152.375 41.8539H160.543L160.406 41.4307H152.503L152.375 41.8539Z" fill="#FEFEFE"/>
</g>
<g opacity="0.2">
<path opacity="0.2" d="M153.7 37.4545H159.09L158.952 37.0312H153.828L153.7 37.4545Z" fill="#FEFEFE"/>
</g>
<g opacity="0.2">
<path opacity="0.2" d="M155.026 33.055H157.638L157.5 32.6318H155.144L155.026 33.055Z" fill="#FEFEFE"/>
</g>
</g>
</g>
<path d="M152.375 32.3657L149.862 35.0722L141.763 22.5435H148.939L152.375 32.3657Z" fill="#FEFEFE" stroke="#CFD8DC" stroke-width="1.47968" stroke-miterlimit="10" stroke-linecap="round"/>
<path d="M159.826 32.3657L162.349 35.0722L171.126 22.5435H163.272L159.826 32.3657Z" fill="#FEFEFE" stroke="#CFD8DC" stroke-width="1.47968" stroke-miterlimit="10" stroke-linecap="round"/>
<path d="M99.9912 66.2028C99.9912 71.104 103.476 75.7493 108.895 76.5466L131.112 79.8239L135.991 80.5423V61.6066L134.489 61.2522L112.812 56.0953C108.63 55.1011 104.271 56.7841 101.837 60.3371C100.57 62.1677 99.9912 64.205 99.9912 66.2028Z" fill="#CFD8DC"/>
<path d="M131.111 79.8237L135.991 80.542V61.6063L134.489 61.252L131.111 79.8237Z" fill="#455A64"/>
<path d="M135.99 85.3845H182.69V57.2859C182.69 55.1009 180.923 53.3394 178.754 53.3394H139.937C137.757 53.3394 136 55.1109 136 57.2859V85.3845H135.99Z" fill="#78909C"/>
<path d="M156.459 71.6058H162.222C162.81 71.6058 163.282 71.1333 163.282 70.5431V68.1218C163.282 67.5312 162.81 67.0591 162.222 67.0591H156.459C155.87 67.0591 155.398 67.5312 155.398 68.1218V70.5431C155.398 71.1333 155.88 71.6058 156.459 71.6058Z" stroke="#FEFEFE" stroke-width="1.23306" stroke-miterlimit="10"/>
<path d="M166.286 85.0791L116.846 77.6682C107.225 76.2019 98.5566 83.672 98.5566 93.4351C98.5566 102.243 105.674 109.379 114.461 109.379H165.962L166.286 85.0791Z" fill="#90A4AE"/>
<path d="M172.972 113.719L202.727 119.476C206.517 120.284 210.326 117.115 210.493 113.02L210.935 102.135C211.16 96.6238 205.889 93.307 200.921 95.6692L172.972 113.719Z" fill="#FEFEFE" stroke="#607D8B" stroke-width="1.47968" stroke-miterlimit="10"/>
<path d="M200.715 119.083C204.377 119.851 208.078 116.77 208.255 112.784L208.716 102.214C208.952 96.86 203.866 93.6713 199.056 95.974" stroke="#607D8B" stroke-width="1.47968" stroke-miterlimit="10"/>
<path d="M200.921 95.6592L172.972 113.719L179.343 114.949L200.921 95.6592Z" fill="#607D8B"/>
<path d="M190.151 103.572L193.832 110.924L197.475 102.283L201.687 111.987" stroke="#607D8B" stroke-width="1.47968" stroke-miterlimit="10" stroke-linejoin="round"/>
<path d="M201.892 100.935L197.769 111.249L193.734 103.011L190.603 109.881" stroke="#607D8B" stroke-width="1.47968" stroke-miterlimit="10" stroke-linejoin="round"/>
<path d="M149.861 100.226C151.511 98.8679 156.282 101.958 160.523 107.125C164.764 112.292 166.865 117.587 165.216 118.945C165.461 118.798 196.454 99.3109 215.686 86.0146C220.575 82.6388 223.157 77.2257 223.157 71.7439C223.157 67.925 221.9 64.0771 219.298 60.8589C212.78 52.7982 200.705 52.2571 193.489 59.6975L149.861 100.226Z" fill="#B0BEC5"/>
<path d="M154.565 112.041C150.325 106.873 148.226 101.581 149.875 100.22C151.525 98.8604 156.3 101.947 160.539 107.114C164.779 112.282 166.878 117.574 165.228 118.934C163.579 120.294 158.804 117.208 154.565 112.041Z" fill="#607D8B" stroke="#FEFEFE" stroke-width="1.47968" stroke-miterlimit="10"/>
<path d="M136.216 117.233L141.733 126.622C144.531 131.375 150.853 131.464 153.749 126.78L163.036 111.78C162.241 110.461 161.259 109.084 160.13 107.706C158.088 105.216 155.919 103.208 154.034 101.948L139.249 107.588C135.636 108.975 134.144 113.7 136.216 117.233Z" fill="#FEFEFE" stroke="#607D8B" stroke-width="1.47968" stroke-miterlimit="10"/>
<path d="M140.81 106.977C137.394 108.306 136.186 112.745 138.14 116.14L143.343 125.145C145.974 129.712 151.933 129.791 154.672 125.303" stroke="#607D8B" stroke-width="1.47968" stroke-miterlimit="10"/>
<path d="M158.953 111.79L151.433 107.971L153.691 117.055L144.698 111.524" stroke="#607D8B" stroke-width="1.47968" stroke-miterlimit="10" stroke-linejoin="round"/>
<path d="M150.833 120.697L148.497 110.117L156.164 113.906L154.986 106.879" stroke="#607D8B" stroke-width="1.47968" stroke-miterlimit="10" stroke-linejoin="round"/>
<path d="M144.973 24.2466C145.012 24.8765 145.287 25.4375 145.719 25.841C146.151 26.2446 146.72 26.4906 147.349 26.4906H149.518L149.655 28.7838C149.773 30.6734 151.648 32.6024 153.602 32.6024H159.09C161.034 32.6024 162.919 30.6734 163.036 28.7838L163.174 26.4906H165.373C166.001 26.4906 166.58 26.2446 167.003 25.841C167.435 25.4375 167.709 24.8765 167.749 24.2368C167.827 22.8589 166.698 21.7173 165.324 21.7173H163.468L163.674 18.2234C163.714 17.4852 163.134 16.8652 162.398 16.8652H150.284C149.548 16.8652 148.968 17.4852 149.007 18.2234L149.214 21.7173H147.339C145.984 21.7271 144.894 22.8786 144.973 24.2466Z" fill="#CFD8DC"/>
<path d="M149.223 21.7172H147.25C147.25 21.7172 145.365 14.8574 147.181 13.0957C148.998 11.334 160.15 7.27914 163.753 9.8085C166.384 11.6588 164.95 21.7172 164.95 21.7172H163.497C163.497 21.7172 157.637 17.5049 156.714 17.869C155.791 18.2331 159.365 20.0047 158.648 20.3492C155.968 21.6384 151.148 16.9635 150.038 16.9635C148.929 16.9635 149.223 21.7172 149.223 21.7172Z" fill="#455A64"/>
<path d="M151.708 23.4205C151.708 23.4205 152.994 22.3772 154.643 23.0563" stroke="#455A64" stroke-width="0.986451" stroke-miterlimit="10" stroke-linecap="round"/>
<path d="M157.399 30.5787C157.399 30.5787 156.616 29.382 154.521 30.1619" stroke="#455A64" stroke-width="0.986451" stroke-miterlimit="10" stroke-linecap="round"/>
<path d="M161.485 23.0753C161.485 23.0753 158.884 22.4946 158.099 24.1087C157.617 25.1027 157.853 28.5769 157.294 28.6163C156.734 28.6556 155.89 28.6163 155.89 28.6163" stroke="#455A64" stroke-width="0.986451" stroke-miterlimit="10" stroke-linecap="round"/>
<path d="M153.465 26.0973C153.211 26.0973 153.004 25.7536 153.004 25.3296C153.004 24.9057 153.211 24.562 153.465 24.562C153.72 24.562 153.927 24.9057 153.927 25.3296C153.927 25.7536 153.72 26.0973 153.465 26.0973Z" fill="#455A64"/>
<path d="M159.434 26.0973C159.179 26.0973 158.973 25.7536 158.973 25.3296C158.973 24.9057 159.179 24.562 159.434 24.562C159.689 24.562 159.895 24.9057 159.895 25.3296C159.895 25.7536 159.689 26.0973 159.434 26.0973Z" fill="#455A64"/>
<path d="M163.95 24.6012C164.009 23.6367 164.804 22.8887 165.766 22.8887" stroke="#455A64" stroke-width="0.986451" stroke-miterlimit="10" stroke-linecap="round"/>
<path d="M148.88 24.6504C148.821 23.6268 147.977 22.8296 146.966 22.8296" stroke="#455A64" stroke-width="0.986451" stroke-miterlimit="10" stroke-linecap="round"/>
</svg>
