<svg width="40" height="40" viewBox="0 0 40 40" fill="none" xmlns="http://www.w3.org/2000/svg">
<path fill-rule="evenodd" clip-rule="evenodd" d="M20.0001 3.33326C22.1892 3.33068 24.3573 3.76061 26.3797 4.59837C28.4021 5.4361 30.2391 6.66514 31.7851 8.21486C33.3349 9.76094 34.5639 11.598 35.4017 13.6204C36.2394 15.6428 36.6694 17.8108 36.6668 19.9999C36.6694 22.189 36.2395 24.357 35.4017 26.3795C34.564 28.4019 33.3349 30.2389 31.7852 31.7849C30.2391 33.3347 28.4021 34.5637 26.3797 35.4015C24.3572 36.2392 22.1892 36.6692 20.0001 36.6666C17.8111 36.6691 15.6431 36.2392 13.6207 35.4014C11.5982 34.5637 9.76124 33.3346 8.21517 31.7849C6.66541 30.2389 5.43636 28.4019 4.59861 26.3795C3.76086 24.357 3.33093 22.189 3.33351 19.9999C3.33098 17.8108 3.76092 15.6428 4.59867 13.6204C5.43641 11.598 6.66544 9.76099 8.21516 8.21492C9.76123 6.6652 11.5982 5.43617 13.6207 4.59842C15.6431 3.76068 17.8111 3.33073 20.0001 3.33326ZM25.22 7.39799C23.5659 6.71279 21.7926 6.36124 20.0021 6.36356H19.9982C18.2078 6.36128 16.4345 6.71284 14.7803 7.39804C13.1262 8.08325 11.6237 9.08858 10.3593 10.3563L10.3565 10.3591C9.08882 11.6235 8.08349 13.1259 7.39829 14.7801C6.71309 16.4343 6.36153 18.2075 6.36381 19.998V20.0019C6.36149 21.7923 6.71303 23.5656 7.39823 25.2198C8.08343 26.8739 9.08878 28.3764 10.3565 29.6408L10.3593 29.6436C11.6237 30.9113 13.1262 31.9166 14.7803 32.6018C16.4345 33.287 18.2078 33.6386 19.9982 33.6363H20.0021C21.7926 33.6386 23.5659 33.2871 25.22 32.6019C26.8742 31.9167 28.3766 30.9113 29.641 29.6436L29.6438 29.6408C30.9116 28.3764 31.9169 26.8739 32.6021 25.2198C33.2873 23.5656 33.6388 21.7923 33.6365 20.0019V19.998C33.6388 18.2075 33.2872 16.4343 32.602 14.7801C31.9168 13.1259 30.9115 11.6235 29.6438 10.3591L29.641 10.3562C28.3766 9.08853 26.8742 8.08318 25.22 7.39799Z" fill="#CD3636"/>
<path fill-rule="evenodd" clip-rule="evenodd" d="M20.0002 29.8484C20.5025 29.8484 20.9842 29.6489 21.3394 29.2937C21.6946 28.9385 21.8941 28.4568 21.8941 27.9545C21.8941 27.4522 21.6946 26.9704 21.3394 26.6152C20.9842 26.2601 20.5025 26.0605 20.0002 26.0605C19.4979 26.0605 19.0161 26.2601 18.6609 26.6152C18.3058 26.9704 18.1062 27.4522 18.1062 27.9545C18.1062 28.4568 18.3058 28.9385 18.6609 29.2937C19.0161 29.6489 19.4979 29.8484 20.0002 29.8484Z" fill="#CD3636"/>
<path fill-rule="evenodd" clip-rule="evenodd" d="M20.0002 9.39387C20.837 9.39387 21.5153 10.0722 21.5153 10.909V23.0302C21.5153 23.867 20.837 24.5454 20.0002 24.5454C19.1634 24.5454 18.485 23.867 18.485 23.0302V10.909C18.485 10.0722 19.1634 9.39387 20.0002 9.39387Z" fill="#CD3636"/>
</svg>
