<svg width="24" height="24" viewBox="0 0 24 24" fill="none" xmlns="http://www.w3.org/2000/svg">
<path fill-rule="evenodd" clip-rule="evenodd" d="M5.05354 4C5.02639 4.06252 5 4.16049 5 4.28571V19.7143C5 19.8395 5.02639 19.9375 5.05354 20H18.9465C18.9736 19.9375 19 19.8395 19 19.7143V4.28571C19 4.16049 18.9736 4.06252 18.9465 4H5.05354ZM3.43779 2.8079C3.73996 2.37083 4.24389 2 4.88889 2H19.1111C19.7561 2 20.26 2.37083 20.5622 2.8079C20.8625 3.24218 21 3.77566 21 4.28571V19.7143C21 20.2243 20.8625 20.7578 20.5622 21.1921C20.26 21.6292 19.7561 22 19.1111 22H4.88889C4.24389 22 3.73996 21.6292 3.43779 21.1921C3.13755 20.7578 3 20.2243 3 19.7143V4.28571C3 3.77566 3.13755 3.24217 3.43779 2.8079ZM6.552 8.14286C6.552 7.59057 6.99972 7.14286 7.552 7.14286H16.4444C16.9967 7.14286 17.4444 7.59057 17.4444 8.14286C17.4444 8.69514 16.9967 9.14286 16.4444 9.14286H7.552C6.99972 9.14286 6.552 8.69514 6.552 8.14286ZM6.552 12C6.552 11.4477 6.99972 11 7.552 11H7.56089C8.11317 11 8.56089 11.4477 8.56089 12C8.56089 12.5523 8.11317 13 7.56089 13H7.552C6.99972 13 6.552 12.5523 6.552 12ZM10.1111 12C10.1111 11.4477 10.5588 11 11.1111 11H16.4444C16.9967 11 17.4444 11.4477 17.4444 12C17.4444 12.5523 16.9967 13 16.4444 13H11.1111C10.5588 13 10.1111 12.5523 10.1111 12ZM6.552 15.8571C6.552 15.3049 6.99972 14.8571 7.552 14.8571H7.56089C8.11317 14.8571 8.56089 15.3049 8.56089 15.8571C8.56089 16.4094 8.11317 16.8571 7.56089 16.8571H7.552C6.99972 16.8571 6.552 16.4094 6.552 15.8571ZM10.1111 15.8571C10.1111 15.3049 10.5588 14.8571 11.1111 14.8571H16.4444C16.9967 14.8571 17.4444 15.3049 17.4444 15.8571C17.4444 16.4094 16.9967 16.8571 16.4444 16.8571H11.1111C10.5588 16.8571 10.1111 16.4094 10.1111 15.8571Z" fill="#263238"/>
</svg>
