<svg width="571" height="323" viewBox="0 0 571 323" fill="none" xmlns="http://www.w3.org/2000/svg">
<g filter="url(#filter0_ddd_422_14989)">
<path d="M54.1595 19.6406C53.9898 19.6406 53.827 19.7081 53.707 19.8281C53.587 19.9481 53.5195 20.1109 53.5195 20.2806C53.5195 20.4504 53.587 20.6132 53.707 20.7332C53.827 20.8532 53.9898 20.9206 54.1595 20.9206C54.3293 20.9206 54.4921 20.8532 54.6121 20.7332C54.7321 20.6132 54.7995 20.4504 54.7995 20.2806C54.7995 20.1109 54.7321 19.9481 54.6121 19.8281C54.4921 19.7081 54.3293 19.6406 54.1595 19.6406Z" fill="#F1BC19"/>
<path d="M74.6403 14.8398C74.5554 14.8398 74.474 14.8736 74.414 14.9336C74.354 14.9936 74.3203 15.075 74.3203 15.1598C74.3203 15.2447 74.354 15.3261 74.414 15.3861C74.474 15.4461 74.5554 15.4798 74.6403 15.4798C74.7252 15.4798 74.8066 15.4461 74.8666 15.3861C74.9266 15.3261 74.9603 15.2447 74.9603 15.1598C74.9603 15.075 74.9266 14.9936 74.8666 14.9336C74.8066 14.8736 74.7252 14.8398 74.6403 14.8398Z" fill="#F1BC19"/>
<path d="M66.0002 15.1602C62.86 15.1602 59.8484 16.4076 57.628 18.628C55.4076 20.8484 54.1602 23.86 54.1602 27.0002C54.1602 30.1403 55.4076 33.1519 57.628 35.3723C59.8484 37.5927 62.86 38.8402 66.0002 38.8402C69.1403 38.8402 72.1519 37.5927 74.3723 35.3723C76.5927 33.1519 77.8402 30.1403 77.8402 27.0002C77.8402 23.86 76.5927 20.8484 74.3723 18.628C72.1519 16.4076 69.1403 15.1602 66.0002 15.1602Z" fill="#FCE0A2"/>
<path d="M76.5593 14.5195C76.2198 14.5195 75.8942 14.6544 75.6542 14.8944C75.4142 15.1345 75.2793 15.4601 75.2793 15.7995C75.2793 16.139 75.4142 16.4646 75.6542 16.7046C75.8942 16.9447 76.2198 17.0795 76.5593 17.0795C76.8988 17.0795 77.2243 16.9447 77.4644 16.7046C77.7044 16.4646 77.8393 16.139 77.8393 15.7995C77.8393 15.4601 77.7044 15.1345 77.4644 14.8944C77.2243 14.6544 76.8988 14.5195 76.5593 14.5195Z" fill="#F1BC19"/>
<path d="M77.8392 18.0391C77.6695 18.0391 77.5067 18.1065 77.3867 18.2265C77.2666 18.3465 77.1992 18.5093 77.1992 18.6791C77.1992 18.8488 77.2666 19.0116 77.3867 19.1316C77.5067 19.2516 77.6695 19.3191 77.8392 19.3191C78.009 19.3191 78.1717 19.2516 78.2918 19.1316C78.4118 19.0116 78.4792 18.8488 78.4792 18.6791C78.4792 18.5093 78.4118 18.3465 78.2918 18.2265C78.1717 18.1065 78.009 18.0391 77.8392 18.0391Z" fill="#F1BC19"/>
<path d="M75.9195 34.6809C75.7498 34.6809 75.587 34.7483 75.467 34.8683C75.347 34.9883 75.2795 35.1511 75.2795 35.3209C75.2795 35.4906 75.347 35.6534 75.467 35.7734C75.587 35.8934 75.7498 35.9609 75.9195 35.9609C76.0893 35.9609 76.2521 35.8934 76.3721 35.7734C76.4921 35.6534 76.5595 35.4906 76.5595 35.3209C76.5595 35.1511 76.4921 34.9883 76.3721 34.8683C76.2521 34.7483 76.0893 34.6809 75.9195 34.6809ZM54.7995 29.8809C54.4601 29.8809 54.1345 30.0157 53.8944 30.2558C53.6544 30.4958 53.5195 30.8214 53.5195 31.1609C53.5195 31.5003 53.6544 31.8259 53.8944 32.066C54.1345 32.306 54.4601 32.4409 54.7995 32.4409C55.139 32.4409 55.4646 32.306 55.7046 32.066C55.9447 31.8259 56.0795 31.5003 56.0795 31.1609C56.0795 30.8214 55.9447 30.4958 55.7046 30.2558C55.4646 30.0157 55.139 29.8809 54.7995 29.8809Z" fill="#FBCD59"/>
<path d="M57.9994 38.1992C57.8296 38.1992 57.6668 38.2666 57.5468 38.3867C57.4268 38.5067 57.3594 38.6695 57.3594 38.8392C57.3594 39.009 57.4268 39.1717 57.5468 39.2918C57.6668 39.4118 57.8296 39.4792 57.9994 39.4792C58.1691 39.4792 58.3319 39.4118 58.4519 39.2918C58.5719 39.1717 58.6394 39.009 58.6394 38.8392C58.6394 38.6695 58.5719 38.5067 58.4519 38.3867C58.3319 38.2666 58.1691 38.1992 57.9994 38.1992Z" fill="#F1BC19"/>
<path d="M55.9191 27.3203C55.707 27.3203 55.5035 27.4046 55.3535 27.5546C55.2034 27.7047 55.1191 27.9081 55.1191 28.1203C55.1191 28.3325 55.2034 28.536 55.3535 28.686C55.5035 28.836 55.707 28.9203 55.9191 28.9203C56.1313 28.9203 56.3348 28.836 56.4848 28.686C56.6349 28.536 56.7191 28.3325 56.7191 28.1203C56.7191 27.9081 56.6349 27.7047 56.4848 27.5546C56.3348 27.4046 56.1313 27.3203 55.9191 27.3203Z" fill="white"/>
<path d="M56.7204 32.1191C56.6355 32.1191 56.5541 32.1529 56.4941 32.2129C56.4341 32.2729 56.4004 32.3543 56.4004 32.4391C56.4004 32.524 56.4341 32.6054 56.4941 32.6654C56.5541 32.7254 56.6355 32.7591 56.7204 32.7591C56.8053 32.7591 56.8867 32.7254 56.9467 32.6654C57.0067 32.6054 57.0404 32.524 57.0404 32.4391C57.0404 32.3543 57.0067 32.2729 56.9467 32.2129C56.8867 32.1529 56.8053 32.1191 56.7204 32.1191Z" fill="#F1BC19"/>
<path d="M75.5993 21.5605C75.5144 21.5605 75.433 21.5943 75.373 21.6543C75.313 21.7143 75.2793 21.7957 75.2793 21.8805C75.2793 21.9654 75.313 22.0468 75.373 22.1068C75.433 22.1668 75.5144 22.2005 75.5993 22.2005C75.6842 22.2005 75.7656 22.1668 75.8256 22.1068C75.8856 22.0468 75.9193 21.9654 75.9193 21.8805C75.9193 21.7957 75.8856 21.7143 75.8256 21.6543C75.7656 21.5943 75.6842 21.5605 75.5993 21.5605Z" fill="white"/>
<path d="M70.6458 33.992H61.8397C61.337 33.992 60.9277 33.583 60.9277 33.08C60.9277 32.5769 61.3367 32.168 61.8397 32.168H70.6497L70.5345 32.3004C70.3444 32.5193 70.2397 32.7958 70.2397 33.08C70.2397 33.3638 70.3434 33.6409 70.5319 33.8598L70.6458 33.992Z" fill="#E1E0D8"/>
<path d="M60.9277 32.2891V20.9198C60.9277 20.4168 61.3367 20.0078 61.8397 20.0078H70.1597C70.6625 20.0078 71.0717 20.4168 71.0717 20.9198V31.8798H61.8397C61.5533 31.8798 61.2839 31.9819 61.0599 32.1749L60.9277 32.2891Z" fill="#BD977C"/>
<path d="M63.7597 20.0078H61.8397C61.337 20.0078 60.9277 20.4168 60.9277 20.9198V32.2891L61.0599 32.1752C61.2836 31.9819 61.5533 31.8801 61.8397 31.8801H63.7597V20.0078Z" fill="#9F8066"/>
<path d="M71.3122 32.2585C71.3874 32.2467 71.4405 32.1785 71.4405 32.1027V20.9206C71.4405 20.2137 70.8674 19.6406 70.1605 19.6406H61.8405C61.1337 19.6406 60.5605 20.2137 60.5605 20.9206V33.0806C60.5605 33.2573 60.5964 33.4256 60.661 33.5789C60.7257 33.7321 60.8194 33.8701 60.9353 33.9856C60.9932 34.0435 61.0565 34.096 61.1247 34.1417C61.261 34.2339 61.4156 34.3001 61.5823 34.3344C61.6658 34.3517 61.7522 34.3606 61.8405 34.3606C61.8684 34.3606 71.1957 34.3606 71.2165 34.3606C71.3401 34.3606 71.4402 34.2605 71.4405 34.1369C71.4405 34.1369 71.4405 34.1369 71.4405 34.1366C71.4405 34.1363 71.4405 34.1366 71.4405 34.1366C71.4405 34.1357 71.4399 34.1347 71.4399 34.1337C71.4383 34.0137 71.3522 33.9168 71.2354 33.887C70.8757 33.7955 70.6085 33.4688 70.6085 33.0806C70.6085 32.6656 70.9141 32.3203 71.3122 32.2585ZM61.8405 20.0886H70.1605C70.6201 20.0886 70.9925 20.4611 70.9925 20.9206V31.8006C70.9925 31.8006 62.4901 31.8006 61.8405 31.8006C61.5212 31.8006 61.2329 31.9219 61.0085 32.1152V20.9206C61.0085 20.4611 61.381 20.0886 61.8405 20.0886ZM61.8405 33.9126C61.3817 33.9126 61.0085 33.5395 61.0085 33.0806C61.0085 32.6217 61.3817 32.2486 61.8405 32.2486H70.4751C70.2809 32.472 70.1605 32.7609 70.1605 33.0806C70.1605 33.3993 70.2793 33.6886 70.4722 33.9126H61.8405Z" fill="#472B29"/>
<path d="M63.6402 28.6001C63.5739 28.6001 63.5202 28.5463 63.5202 28.4801V25.2001C63.5202 25.1338 63.5739 25.0801 63.6402 25.0801C63.7064 25.0801 63.7602 25.1338 63.7602 25.2001V28.4801C63.7602 28.5463 63.7064 28.6001 63.6402 28.6001ZM63.6402 30.2001C63.5739 30.2001 63.5202 30.1463 63.5202 30.0801V29.6801C63.5202 29.6138 63.5739 29.5601 63.6402 29.5601C63.7064 29.5601 63.7602 29.6138 63.7602 29.6801V30.0801C63.7602 30.1463 63.7064 30.2001 63.6402 30.2001ZM63.6402 31.1601C63.5739 31.1601 63.5202 31.1063 63.5202 31.0401V30.6401C63.5202 30.5738 63.5739 30.5201 63.6402 30.5201C63.7064 30.5201 63.7602 30.5738 63.7602 30.6401V31.0401C63.7602 31.1063 63.7064 31.1601 63.6402 31.1601ZM70.3602 33.0801H62.2802C62.2139 33.0801 62.1602 33.0263 62.1602 32.9601C62.1602 32.8938 62.2139 32.8401 62.2802 32.8401H70.3602C70.4264 32.8401 70.4802 32.8938 70.4802 32.9601C70.4802 33.0263 70.4264 33.0801 70.3602 33.0801ZM70.3602 33.6401H65.4802C65.4139 33.6401 65.3602 33.5863 65.3602 33.5201C65.3602 33.4538 65.4139 33.4001 65.4802 33.4001H70.3602C70.4264 33.4001 70.4802 33.4538 70.4802 33.5201C70.4802 33.5863 70.4264 33.6401 70.3602 33.6401ZM64.9202 33.6401H64.5202C64.4539 33.6401 64.4002 33.5863 64.4002 33.5201C64.4002 33.4538 64.4539 33.4001 64.5202 33.4001H64.9202C64.9864 33.4001 65.0402 33.4538 65.0402 33.5201C65.0402 33.5863 64.9864 33.6401 64.9202 33.6401Z" fill="#472B29"/>
<path d="M62.2402 19.4003H65.6002V25.9603L63.9202 25.2003L62.2402 25.9603V19.4003Z" fill="#EE3E54"/>
<path d="M65.5602 26.0403C65.5438 26.0403 65.5272 26.0371 65.5122 26.0301L63.9202 25.3315L62.3282 26.0304C62.2914 26.0467 62.2482 26.0432 62.2146 26.0211C62.1803 25.9987 62.1602 25.9606 62.1602 25.9203V19.4403C62.1602 19.3741 62.2139 19.3203 62.2802 19.3203H65.5602C65.6264 19.3203 65.6802 19.3741 65.6802 19.4403V25.9203C65.6802 25.9606 65.66 25.9987 65.6258 26.0208C65.6062 26.0336 65.5829 26.0403 65.5602 26.0403ZM63.9202 25.0803C63.9368 25.0803 63.9531 25.0838 63.9682 25.0906L65.4402 25.7366V19.5603H62.4002V25.7366L63.8722 25.0906C63.8872 25.0838 63.9035 25.0803 63.9202 25.0803Z" fill="#472B29"/>
</g>
<path d="M514 24C513.735 24 513.48 24.1054 513.293 24.2929C513.105 24.4804 513 24.7348 513 25C513 25.2652 513.105 25.5196 513.293 25.7071C513.48 25.8946 513.735 26 514 26C514.265 26 514.52 25.8946 514.707 25.7071C514.895 25.5196 515 25.2652 515 25C515 24.7348 514.895 24.4804 514.707 24.2929C514.52 24.1054 514.265 24 514 24Z" fill="#F1BC19"/>
<path d="M520 23C518.939 23 517.922 23.4214 517.172 24.1716C516.421 24.9218 516 25.9392 516 27.0001C516 28.061 516.421 29.0784 517.172 29.8286C517.922 30.5787 518.939 31.0001 520 31.0001C521.061 31.0001 522.078 30.5787 522.828 29.8286C523.579 29.0784 524 28.061 524 27.0001C524 25.9392 523.579 24.9218 522.828 24.1716C522.078 23.4214 521.061 23 520 23Z" fill="#00A7A7"/>
<path d="M525 34C524.47 34 523.961 34.2107 523.586 34.5858C523.211 34.9609 523 35.4696 523 36C523 36.5304 523.211 37.0391 523.586 37.4142C523.961 37.7893 524.47 38 525 38C525.53 38 526.039 37.7893 526.414 37.4142C526.789 37.0391 527 36.5304 527 36C527 35.4696 526.789 34.9609 526.414 34.5858C526.039 34.2107 525.53 34 525 34Z" fill="#EE3E54"/>
<g filter="url(#filter1_ddd_422_14989)">
<path d="M17.1595 284.641C16.9898 284.641 16.827 284.708 16.707 284.828C16.587 284.948 16.5195 285.111 16.5195 285.281C16.5195 285.45 16.587 285.613 16.707 285.733C16.827 285.853 16.9898 285.921 17.1595 285.921C17.3293 285.921 17.4921 285.853 17.6121 285.733C17.7321 285.613 17.7995 285.45 17.7995 285.281C17.7995 285.111 17.7321 284.948 17.6121 284.828C17.4921 284.708 17.3293 284.641 17.1595 284.641Z" fill="#78A0CF"/>
<path d="M37.6403 279.84C37.5554 279.84 37.474 279.874 37.414 279.934C37.354 279.994 37.3203 280.075 37.3203 280.16C37.3203 280.245 37.354 280.326 37.414 280.386C37.474 280.446 37.5554 280.48 37.6403 280.48C37.7252 280.48 37.8066 280.446 37.8666 280.386C37.9266 280.326 37.9603 280.245 37.9603 280.16C37.9603 280.075 37.9266 279.994 37.8666 279.934C37.8066 279.874 37.7252 279.84 37.6403 279.84Z" fill="#F1BC19"/>
<path d="M29.0002 280.16C25.86 280.16 22.8484 281.408 20.628 283.628C18.4076 285.848 17.1602 288.86 17.1602 292C17.1602 295.14 18.4076 298.152 20.628 300.372C22.8484 302.593 25.86 303.84 29.0002 303.84C32.1403 303.84 35.1519 302.593 37.3723 300.372C39.5927 298.152 40.8402 295.14 40.8402 292C40.8402 288.86 39.5927 285.848 37.3723 283.628C35.1519 281.408 32.1403 280.16 29.0002 280.16Z" fill="#E3EFFB"/>
<path d="M39.5593 279.52C39.2198 279.52 38.8942 279.654 38.6542 279.894C38.4142 280.134 38.2793 280.46 38.2793 280.8C38.2793 281.139 38.4142 281.465 38.6542 281.705C38.8942 281.945 39.2198 282.08 39.5593 282.08C39.8988 282.08 40.2243 281.945 40.4644 281.705C40.7044 281.465 40.8393 281.139 40.8393 280.8C40.8393 280.46 40.7044 280.134 40.4644 279.894C40.2243 279.654 39.8988 279.52 39.5593 279.52Z" fill="#F1BC19"/>
<path d="M40.8392 283.039C40.6695 283.039 40.5067 283.106 40.3867 283.227C40.2666 283.347 40.1992 283.509 40.1992 283.679C40.1992 283.849 40.2666 284.012 40.3867 284.132C40.5067 284.252 40.6695 284.319 40.8392 284.319C41.009 284.319 41.1717 284.252 41.2918 284.132C41.4118 284.012 41.4792 283.849 41.4792 283.679C41.4792 283.509 41.4118 283.347 41.2918 283.227C41.1717 283.106 41.009 283.039 40.8392 283.039Z" fill="#78A0CF"/>
<path d="M38.9195 299.681C38.7498 299.681 38.587 299.748 38.467 299.868C38.347 299.988 38.2795 300.151 38.2795 300.321C38.2795 300.491 38.347 300.653 38.467 300.773C38.587 300.893 38.7498 300.961 38.9195 300.961C39.0893 300.961 39.2521 300.893 39.3721 300.773C39.4921 300.653 39.5595 300.491 39.5595 300.321C39.5595 300.151 39.4921 299.988 39.3721 299.868C39.2521 299.748 39.0893 299.681 38.9195 299.681ZM17.7995 294.881C17.4601 294.881 17.1345 295.016 16.8944 295.256C16.6544 295.496 16.5195 295.821 16.5195 296.161C16.5195 296.5 16.6544 296.826 16.8944 297.066C17.1345 297.306 17.4601 297.441 17.7995 297.441C18.139 297.441 18.4646 297.306 18.7046 297.066C18.9447 296.826 19.0795 296.5 19.0795 296.161C19.0795 295.821 18.9447 295.496 18.7046 295.256C18.4646 295.016 18.139 294.881 17.7995 294.881Z" fill="#FBCD59"/>
<path d="M20.9994 303.199C20.8296 303.199 20.6668 303.267 20.5468 303.387C20.4268 303.507 20.3594 303.669 20.3594 303.839C20.3594 304.009 20.4268 304.172 20.5468 304.292C20.6668 304.412 20.8296 304.479 20.9994 304.479C21.1691 304.479 21.3319 304.412 21.4519 304.292C21.5719 304.172 21.6394 304.009 21.6394 303.839C21.6394 303.669 21.5719 303.507 21.4519 303.387C21.3319 303.267 21.1691 303.199 20.9994 303.199Z" fill="#78A0CF"/>
<path d="M18.9191 292.32C18.707 292.32 18.5035 292.405 18.3535 292.555C18.2034 292.705 18.1191 292.908 18.1191 293.12C18.1191 293.332 18.2034 293.536 18.3535 293.686C18.5035 293.836 18.707 293.92 18.9191 293.92C19.1313 293.92 19.3348 293.836 19.4848 293.686C19.6349 293.536 19.7191 293.332 19.7191 293.12C19.7191 292.908 19.6349 292.705 19.4848 292.555C19.3348 292.405 19.1313 292.32 18.9191 292.32Z" fill="white"/>
<path d="M19.7204 297.119C19.6355 297.119 19.5541 297.153 19.4941 297.213C19.4341 297.273 19.4004 297.354 19.4004 297.439C19.4004 297.524 19.4341 297.605 19.4941 297.665C19.5541 297.725 19.6355 297.759 19.7204 297.759C19.8053 297.759 19.8867 297.725 19.9467 297.665C20.0067 297.605 20.0404 297.524 20.0404 297.439C20.0404 297.354 20.0067 297.273 19.9467 297.213C19.8867 297.153 19.8053 297.119 19.7204 297.119Z" fill="#F1BC19"/>
<path d="M38.5993 286.561C38.5144 286.561 38.433 286.594 38.373 286.654C38.313 286.714 38.2793 286.796 38.2793 286.881C38.2793 286.965 38.313 287.047 38.373 287.107C38.433 287.167 38.5144 287.201 38.5993 287.201C38.6842 287.201 38.7656 287.167 38.8256 287.107C38.8856 287.047 38.9193 286.965 38.9193 286.881C38.9193 286.796 38.8856 286.714 38.8256 286.654C38.7656 286.594 38.6842 286.561 38.5993 286.561Z" fill="white"/>
<path d="M34.3604 286.103L27.4807 287.829V296.167V296.666C27.4817 297.437 26.5569 298.419 25.011 299.016C23.2714 299.686 21.6033 299.588 21.2852 298.798C20.9671 298.007 22.1198 296.822 23.8593 296.152C24.6602 295.843 25.3681 295.75 26.0138 295.76L26.0135 295.538V286.704L35.8097 284.221V293.718V294.217C35.8106 294.988 34.7287 295.99 33.1828 296.586C31.4433 297.256 29.7751 297.158 29.457 296.368C29.139 295.577 30.2916 294.392 32.0311 293.722C32.8321 293.413 33.7143 293.216 34.3601 293.226L34.3598 293.004V286.103H34.3604Z" fill="#EA5167"/>
<path d="M22.8524 299.683C21.9612 299.683 21.2885 299.409 21.0764 298.881C20.9711 298.62 20.9874 298.316 21.1231 298.004C21.4578 297.235 22.4751 296.445 23.7775 295.943C24.4431 295.686 25.1036 295.553 25.7884 295.537V286.704C25.7884 286.601 25.8581 286.512 25.9573 286.486L35.7532 284.003C35.8191 283.986 35.8911 284.001 35.9458 284.044C36.0005 284.086 36.0325 284.152 36.0325 284.221V294.217C36.0338 295.105 34.8946 296.165 33.2623 296.794C31.3807 297.52 29.6175 297.369 29.2485 296.451C29.1432 296.19 29.1596 295.887 29.2952 295.575C29.63 294.805 30.6472 294.015 31.9496 293.513C32.709 293.22 33.5058 293.037 34.1349 293.007V286.39L27.7036 288.004V296.666C27.7052 297.593 26.6549 298.621 25.0904 299.224C24.2901 299.533 23.5116 299.683 22.8524 299.683ZM25.9279 295.983C25.2485 295.983 24.597 296.107 23.9388 296.361C22.7618 296.814 21.8181 297.529 21.534 298.183C21.446 298.385 21.4316 298.564 21.4917 298.714C21.725 299.294 23.1941 299.475 24.9288 298.806C26.4572 298.217 27.2559 297.283 27.2552 296.666V287.829C27.2552 287.727 27.3253 287.637 27.4248 287.612L34.3045 285.885C34.3711 285.868 34.4424 285.884 34.4968 285.926C34.5512 285.969 34.5832 286.034 34.5832 286.103L34.5836 293.226C34.5836 293.286 34.5596 293.343 34.517 293.386C34.4741 293.428 34.4245 293.461 34.3564 293.45C33.7432 293.443 32.9141 293.621 32.1109 293.931C30.9343 294.384 29.9903 295.099 29.7061 295.753C29.6181 295.956 29.6037 296.134 29.6639 296.284C29.8972 296.864 31.3653 297.046 33.1007 296.376C34.7151 295.754 35.5852 294.8 35.5842 294.218V284.509L26.2364 286.878L26.2367 295.759C26.2367 295.819 26.2127 295.877 26.1701 295.919C26.1272 295.961 26.068 295.988 26.0095 295.984C25.9823 295.983 25.9551 295.983 25.9279 295.983Z" fill="#472B29"/>
<path d="M27.5332 289.172L32.9358 287.865L27.5332 289.172Z" fill="#1F212B"/>
<path d="M27.5344 289.334C27.4621 289.334 27.3965 289.285 27.3789 289.211C27.3584 289.125 27.4112 289.039 27.497 289.018L32.8996 287.711C32.9863 287.692 33.072 287.744 33.0928 287.829C33.1136 287.915 33.0605 288.001 32.9748 288.022L27.5722 289.329C27.5594 289.332 27.5466 289.334 27.5344 289.334ZM32.1303 296.09C32.0938 296.09 32.0608 296.065 32.0525 296.028C32.0426 295.985 32.0695 295.941 32.1124 295.932C33.1696 295.688 34.0442 295.16 34.4096 294.772C34.44 294.74 34.4903 294.738 34.5229 294.769C34.5549 294.799 34.5562 294.85 34.5261 294.882C34.145 295.286 33.2384 295.836 32.1488 296.088C32.1421 296.089 32.1364 296.09 32.1303 296.09ZM31.008 296.222C30.816 296.222 30.6272 296.21 30.4439 296.186C30.4 296.18 30.3693 296.14 30.3748 296.097C30.3802 296.053 30.4205 296.022 30.4644 296.028C30.6877 296.057 30.9213 296.069 31.1572 296.06C31.1943 296.06 31.2384 296.093 31.24 296.137C31.2416 296.181 31.2068 296.218 31.1629 296.22C31.1114 296.221 31.0599 296.222 31.008 296.222ZM22.801 298.728C22.6922 298.728 22.5936 298.722 22.5072 298.711C22.4634 298.705 22.4327 298.665 22.4381 298.621C22.4436 298.578 22.4839 298.547 22.5277 298.552C23.0576 298.62 24.0679 298.477 25.0407 297.997C25.08 297.978 25.128 297.993 25.1479 298.033C25.1674 298.073 25.1511 298.121 25.1114 298.14C24.2656 298.557 23.3863 298.728 22.801 298.728ZM24.1284 296.972C24.0964 296.972 24.0666 296.953 24.0541 296.922C24.0378 296.881 24.058 296.834 24.0989 296.818C24.5248 296.648 24.9556 296.536 25.4957 296.455C25.5424 296.446 25.5802 296.478 25.5866 296.522C25.5933 296.566 25.5632 296.606 25.5194 296.613C24.992 296.692 24.5719 296.802 24.1581 296.966C24.1485 296.97 24.1386 296.972 24.1284 296.972Z" fill="#472B29"/>
<path d="M23.0664 297.519C23.0398 297.519 23.0139 297.506 22.9985 297.482C22.9752 297.444 22.9864 297.395 23.0238 297.371C23.1876 297.269 23.3492 297.175 23.5035 297.093C23.5425 297.073 23.5908 297.087 23.6116 297.126C23.6321 297.166 23.6177 297.214 23.5784 297.235C23.4273 297.315 23.2692 297.406 23.1086 297.507C23.0958 297.515 23.0811 297.519 23.0664 297.519Z" fill="#472B29"/>
<path d="M25.7187 297.759C25.6921 297.759 25.6659 297.745 25.6505 297.721C25.6275 297.683 25.639 297.634 25.6765 297.61C26.0073 297.405 26.2947 297.112 26.375 297.027C26.4054 296.995 26.4557 296.993 26.4883 297.024C26.5203 297.054 26.5216 297.105 26.4915 297.137C26.408 297.225 26.1088 297.531 25.7613 297.747C25.7478 297.755 25.7331 297.759 25.7187 297.759Z" fill="#472B29"/>
</g>
<g filter="url(#filter2_ddd_422_14989)">
<path d="M515.961 267.8C516.137 267.8 516.281 267.657 516.281 267.48C516.281 267.303 516.137 267.16 515.961 267.16C515.784 267.16 515.641 267.303 515.641 267.48C515.641 267.657 515.784 267.8 515.961 267.8Z" fill="#F1BC19"/>
<path d="M507 291.16C513.716 291.16 519.16 285.716 519.16 279C519.16 272.284 513.716 266.84 507 266.84C500.284 266.84 494.84 272.284 494.84 279C494.84 285.716 500.284 291.16 507 291.16Z" fill="#F9DBD2"/>
<path d="M517.88 269.4C518.587 269.4 519.16 268.827 519.16 268.12C519.16 267.413 518.587 266.84 517.88 266.84C517.173 266.84 516.6 267.413 516.6 268.12C516.6 268.827 517.173 269.4 517.88 269.4Z" fill="#F1BC19"/>
<path d="M495.48 271.96C495.833 271.96 496.12 271.673 496.12 271.32C496.12 270.966 495.833 270.68 495.48 270.68C495.126 270.68 494.84 270.966 494.84 271.32C494.84 271.673 495.126 271.96 495.48 271.96Z" fill="#EE3E54"/>
<path d="M515.96 288.28C516.314 288.28 516.6 287.993 516.6 287.64C516.6 287.287 516.314 287 515.96 287C515.607 287 515.32 287.287 515.32 287.64C515.32 287.993 515.607 288.28 515.96 288.28Z" fill="#FBCD59"/>
<path d="M496.44 289.24C497.147 289.24 497.72 288.667 497.72 287.96C497.72 287.253 497.147 286.68 496.44 286.68C495.733 286.68 495.16 287.253 495.16 287.96C495.16 288.667 495.733 289.24 496.44 289.24Z" fill="#FBCD59"/>
<path d="M498.679 290.2C499.033 290.2 499.319 289.913 499.319 289.56C499.319 289.206 499.033 288.92 498.679 288.92C498.326 288.92 498.039 289.206 498.039 289.56C498.039 289.913 498.326 290.2 498.679 290.2Z" fill="#EE3E54"/>
<path d="M511.634 288.919C512.073 288.919 512.429 288.563 512.429 288.125C512.429 287.686 512.073 287.33 511.634 287.33C511.196 287.33 510.84 287.686 510.84 288.125C510.84 288.563 511.196 288.919 511.634 288.919Z" fill="white"/>
<path d="M496.121 278.679C496.298 278.679 496.441 278.536 496.441 278.359C496.441 278.182 496.298 278.039 496.121 278.039C495.944 278.039 495.801 278.182 495.801 278.359C495.801 278.536 495.944 278.679 496.121 278.679Z" fill="white"/>
<path d="M518.519 273.24C518.696 273.24 518.839 273.096 518.839 272.92C518.839 272.743 518.696 272.6 518.519 272.6C518.342 272.6 518.199 272.743 518.199 272.92C518.199 273.096 518.342 273.24 518.519 273.24Z" fill="#F1BC19"/>
<path d="M517.88 278.04C518.234 278.04 518.52 277.753 518.52 277.4C518.52 277.046 518.234 276.76 517.88 276.76C517.527 276.76 517.24 277.046 517.24 277.4C517.24 277.753 517.527 278.04 517.88 278.04Z" fill="white"/>
<path d="M500.28 279.736C501.217 279.736 501.976 278.976 501.976 278.04C501.976 277.103 501.217 276.344 500.28 276.344C499.343 276.344 498.584 277.103 498.584 278.04C498.584 278.976 499.343 279.736 500.28 279.736Z" fill="white"/>
<path d="M500.279 276.567C501.091 276.567 501.751 277.227 501.751 278.039C501.751 278.851 501.091 279.511 500.279 279.511C499.468 279.511 498.807 278.851 498.807 278.039C498.807 277.227 499.468 276.567 500.279 276.567ZM500.279 276.119C499.219 276.119 498.359 276.979 498.359 278.039C498.359 279.099 499.219 279.959 500.279 279.959C501.34 279.959 502.199 279.099 502.199 278.039C502.199 276.979 501.34 276.119 500.279 276.119Z" fill="#472B29"/>
<path d="M514.04 279.736C514.976 279.736 515.736 278.976 515.736 278.04C515.736 277.103 514.976 276.344 514.04 276.344C513.103 276.344 512.344 277.103 512.344 278.04C512.344 278.976 513.103 279.736 514.04 279.736Z" fill="white"/>
<path d="M514.039 276.567C514.851 276.567 515.511 277.227 515.511 278.039C515.511 278.851 514.851 279.511 514.039 279.511C513.228 279.511 512.567 278.851 512.567 278.039C512.567 277.227 513.228 276.567 514.039 276.567ZM514.039 276.119C512.979 276.119 512.119 276.979 512.119 278.039C512.119 279.099 512.979 279.959 514.039 279.959C515.1 279.959 515.959 279.099 515.959 278.039C515.959 276.979 515.1 276.119 514.039 276.119Z" fill="#472B29"/>
<path d="M507.161 285.496C511.544 285.496 515.097 283.161 515.097 280.28C515.097 277.4 511.544 275.064 507.161 275.064C502.778 275.064 499.225 277.4 499.225 280.28C499.225 283.161 502.778 285.496 507.161 285.496Z" fill="white"/>
<path d="M507.16 275.288C511.412 275.288 514.872 277.527 514.872 280.28C514.872 283.032 511.412 285.272 507.16 285.272C502.908 285.272 499.448 283.032 499.448 280.28C499.448 277.527 502.908 275.288 507.16 275.288ZM507.16 274.84C502.653 274.84 499 277.275 499 280.28C499 283.284 502.653 285.72 507.16 285.72C511.667 285.72 515.32 283.284 515.32 280.28C515.32 277.275 511.667 274.84 507.16 274.84Z" fill="#472B29"/>
<path d="M510.728 284.084C510.695 284.084 510.665 284.063 510.653 284.031C510.638 283.989 510.66 283.943 510.701 283.928C511.63 283.593 512.43 283.123 513.016 282.569C513.048 282.538 513.099 282.54 513.129 282.572C513.159 282.604 513.158 282.655 513.126 282.685C512.524 283.254 511.705 283.736 510.756 284.079C510.747 284.082 510.738 284.084 510.728 284.084Z" fill="#472B29"/>
<path d="M513.609 282.093C513.593 282.093 513.577 282.088 513.563 282.078C513.527 282.052 513.519 282.002 513.544 281.966C513.926 281.433 514.119 280.865 514.119 280.28C514.119 279.739 513.953 279.212 513.627 278.714C513.603 278.676 513.613 278.627 513.65 278.603C513.687 278.579 513.736 278.589 513.761 278.626C514.104 279.151 514.279 279.707 514.279 280.28C514.279 280.899 514.075 281.498 513.674 282.059C513.659 282.081 513.634 282.093 513.609 282.093Z" fill="#472B29"/>
<path d="M501.297 277.886C501.276 277.886 501.255 277.878 501.239 277.861C501.208 277.829 501.21 277.778 501.242 277.748C501.843 277.179 502.663 276.697 503.612 276.354C503.653 276.339 503.7 276.361 503.715 276.402C503.73 276.444 503.708 276.49 503.667 276.505C502.738 276.84 501.938 277.311 501.352 277.864C501.337 277.879 501.317 277.886 501.297 277.886Z" fill="#472B29"/>
<path d="M500.673 281.845C500.647 281.845 500.621 281.832 500.606 281.809C500.262 281.284 500.088 280.727 500.088 280.155C500.088 279.536 500.291 278.937 500.692 278.375C500.718 278.339 500.768 278.331 500.804 278.357C500.84 278.382 500.848 278.432 500.823 278.468C500.441 279.002 500.248 279.569 500.248 280.155C500.248 280.696 500.413 281.222 500.74 281.721C500.764 281.758 500.753 281.808 500.717 281.832C500.703 281.841 500.688 281.845 500.673 281.845Z" fill="#472B29"/>
<path d="M513.241 273.657C513.913 273.657 514.457 273.112 514.457 272.441C514.457 271.769 513.913 271.225 513.241 271.225C512.57 271.225 512.025 271.769 512.025 272.441C512.025 273.112 512.57 273.657 513.241 273.657Z" fill="white"/>
<path d="M513.241 271.448C513.788 271.448 514.233 271.893 514.233 272.44C514.233 272.987 513.788 273.432 513.241 273.432C512.694 273.432 512.249 272.987 512.249 272.44C512.249 271.893 512.694 271.448 513.241 271.448ZM513.241 271C512.446 271 511.801 271.645 511.801 272.44C511.801 273.235 512.446 273.88 513.241 273.88C514.036 273.88 514.681 273.235 514.681 272.44C514.681 271.645 514.036 271 513.241 271Z" fill="#472B29"/>
<path d="M504.44 280.439C505.059 280.439 505.56 279.938 505.56 279.319C505.56 278.701 505.059 278.199 504.44 278.199C503.822 278.199 503.32 278.701 503.32 279.319C503.32 279.938 503.822 280.439 504.44 280.439Z" fill="#EE3E54"/>
<path d="M504.44 280.599C503.734 280.599 503.16 280.025 503.16 279.319C503.16 278.613 503.734 278.039 504.44 278.039C505.146 278.039 505.72 278.613 505.72 279.319C505.72 280.025 505.146 280.599 504.44 280.599ZM504.44 278.359C503.911 278.359 503.48 278.79 503.48 279.319C503.48 279.848 503.911 280.279 504.44 280.279C504.969 280.279 505.4 279.848 505.4 279.319C505.4 278.79 504.969 278.359 504.44 278.359Z" fill="#472B29"/>
<path d="M509.88 280.439C510.498 280.439 511 279.938 511 279.319C511 278.701 510.498 278.199 509.88 278.199C509.261 278.199 508.76 278.701 508.76 279.319C508.76 279.938 509.261 280.439 509.88 280.439Z" fill="#EE3E54"/>
<path d="M509.88 280.599C509.174 280.599 508.6 280.025 508.6 279.319C508.6 278.613 509.174 278.039 509.88 278.039C510.586 278.039 511.16 278.613 511.16 279.319C511.16 280.025 510.586 280.599 509.88 280.599ZM509.88 278.359C509.35 278.359 508.92 278.79 508.92 279.319C508.92 279.848 509.35 280.279 509.88 280.279C510.409 280.279 510.84 279.848 510.84 279.319C510.84 278.79 510.409 278.359 509.88 278.359Z" fill="#472B29"/>
<path d="M507.16 275.16C507.143 275.16 507.126 275.158 507.109 275.152C507.026 275.124 506.98 275.033 507.008 274.95L508.288 271.11C508.315 271.03 508.399 270.983 508.482 271.006L512.082 271.966C512.167 271.988 512.218 272.076 512.195 272.161C512.172 272.246 512.085 272.298 511.999 272.275L508.544 271.353L507.312 275.051C507.289 275.118 507.227 275.16 507.16 275.16Z" fill="#472B29"/>
<path d="M507.139 283.596C506.25 283.596 505.367 283.336 504.516 282.816C504.441 282.77 504.417 282.671 504.463 282.596C504.509 282.521 504.608 282.497 504.683 282.543C506.3 283.531 507.968 283.53 509.638 282.542C509.713 282.497 509.812 282.522 509.857 282.598C509.903 282.674 509.877 282.772 509.801 282.817C508.924 283.336 508.028 283.596 507.139 283.596Z" fill="#472B29"/>
</g>
<path d="M123.5 233C123.102 233 122.721 233.158 122.439 233.439C122.158 233.721 122 234.102 122 234.5C122 234.898 122.158 235.279 122.439 235.561C122.721 235.842 123.102 236 123.5 236C123.898 236 124.279 235.842 124.561 235.561C124.842 235.279 125 234.898 125 234.5C125 234.102 124.842 233.721 124.561 233.439C124.279 233.158 123.898 233 123.5 233Z" fill="#F1BC19"/>
<path d="M124.5 242C123.307 242 122.162 242.474 121.318 243.318C120.474 244.162 120 245.307 120 246.5C120 247.693 120.474 248.838 121.318 249.682C122.162 250.526 123.307 251 124.5 251C125.693 251 126.838 250.526 127.682 249.682C128.526 248.838 129 247.693 129 246.5C129 245.307 128.526 244.162 127.682 243.318C126.838 242.474 125.693 242 124.5 242Z" fill="#00A7A7"/>
<path d="M135 249C134.204 249 133.441 249.316 132.879 249.879C132.316 250.441 132 251.204 132 252C132 252.796 132.316 253.559 132.879 254.121C133.441 254.684 134.204 255 135 255C135.796 255 136.559 254.684 137.121 254.121C137.684 253.559 138 252.796 138 252C138 251.204 137.684 250.441 137.121 249.879C136.559 249.316 135.796 249 135 249Z" fill="#EE3E54"/>
<defs>
<filter id="filter0_ddd_422_14989" x="34" y="-3" width="64" height="64" filterUnits="userSpaceOnUse" color-interpolation-filters="sRGB">
<feFlood flood-opacity="0" result="BackgroundImageFix"/>
<feColorMatrix in="SourceAlpha" type="matrix" values="0 0 0 0 0 0 0 0 0 0 0 0 0 0 0 0 0 0 127 0" result="hardAlpha"/>
<feMorphology radius="1" operator="dilate" in="SourceAlpha" result="effect1_dropShadow_422_14989"/>
<feOffset dy="2"/>
<feGaussianBlur stdDeviation="7.5"/>
<feColorMatrix type="matrix" values="0 0 0 0 0.564706 0 0 0 0 0.643137 0 0 0 0 0.682353 0 0 0 0.11 0"/>
<feBlend mode="normal" in2="BackgroundImageFix" result="effect1_dropShadow_422_14989"/>
<feColorMatrix in="SourceAlpha" type="matrix" values="0 0 0 0 0 0 0 0 0 0 0 0 0 0 0 0 0 0 127 0" result="hardAlpha"/>
<feMorphology radius="1" operator="dilate" in="SourceAlpha" result="effect2_dropShadow_422_14989"/>
<feOffset dy="7"/>
<feGaussianBlur stdDeviation="5"/>
<feColorMatrix type="matrix" values="0 0 0 0 0.564706 0 0 0 0 0.643137 0 0 0 0 0.682353 0 0 0 0.14 0"/>
<feBlend mode="normal" in2="effect1_dropShadow_422_14989" result="effect2_dropShadow_422_14989"/>
<feColorMatrix in="SourceAlpha" type="matrix" values="0 0 0 0 0 0 0 0 0 0 0 0 0 0 0 0 0 0 127 0" result="hardAlpha"/>
<feMorphology radius="2" operator="erode" in="SourceAlpha" result="effect3_dropShadow_422_14989"/>
<feOffset dy="4"/>
<feGaussianBlur stdDeviation="2.5"/>
<feColorMatrix type="matrix" values="0 0 0 0 0.564706 0 0 0 0 0.643137 0 0 0 0 0.682353 0 0 0 0.25 0"/>
<feBlend mode="normal" in2="effect2_dropShadow_422_14989" result="effect3_dropShadow_422_14989"/>
<feBlend mode="normal" in="SourceGraphic" in2="effect3_dropShadow_422_14989" result="shape"/>
</filter>
<filter id="filter1_ddd_422_14989" x="-3" y="262" width="64" height="64" filterUnits="userSpaceOnUse" color-interpolation-filters="sRGB">
<feFlood flood-opacity="0" result="BackgroundImageFix"/>
<feColorMatrix in="SourceAlpha" type="matrix" values="0 0 0 0 0 0 0 0 0 0 0 0 0 0 0 0 0 0 127 0" result="hardAlpha"/>
<feMorphology radius="1" operator="dilate" in="SourceAlpha" result="effect1_dropShadow_422_14989"/>
<feOffset dy="2"/>
<feGaussianBlur stdDeviation="7.5"/>
<feColorMatrix type="matrix" values="0 0 0 0 0.564706 0 0 0 0 0.643137 0 0 0 0 0.682353 0 0 0 0.11 0"/>
<feBlend mode="normal" in2="BackgroundImageFix" result="effect1_dropShadow_422_14989"/>
<feColorMatrix in="SourceAlpha" type="matrix" values="0 0 0 0 0 0 0 0 0 0 0 0 0 0 0 0 0 0 127 0" result="hardAlpha"/>
<feMorphology radius="1" operator="dilate" in="SourceAlpha" result="effect2_dropShadow_422_14989"/>
<feOffset dy="7"/>
<feGaussianBlur stdDeviation="5"/>
<feColorMatrix type="matrix" values="0 0 0 0 0.564706 0 0 0 0 0.643137 0 0 0 0 0.682353 0 0 0 0.14 0"/>
<feBlend mode="normal" in2="effect1_dropShadow_422_14989" result="effect2_dropShadow_422_14989"/>
<feColorMatrix in="SourceAlpha" type="matrix" values="0 0 0 0 0 0 0 0 0 0 0 0 0 0 0 0 0 0 127 0" result="hardAlpha"/>
<feMorphology radius="2" operator="erode" in="SourceAlpha" result="effect3_dropShadow_422_14989"/>
<feOffset dy="4"/>
<feGaussianBlur stdDeviation="2.5"/>
<feColorMatrix type="matrix" values="0 0 0 0 0.564706 0 0 0 0 0.643137 0 0 0 0 0.682353 0 0 0 0.25 0"/>
<feBlend mode="normal" in2="effect2_dropShadow_422_14989" result="effect3_dropShadow_422_14989"/>
<feBlend mode="normal" in="SourceGraphic" in2="effect3_dropShadow_422_14989" result="shape"/>
</filter>
<filter id="filter2_ddd_422_14989" x="475" y="249" width="64" height="64" filterUnits="userSpaceOnUse" color-interpolation-filters="sRGB">
<feFlood flood-opacity="0" result="BackgroundImageFix"/>
<feColorMatrix in="SourceAlpha" type="matrix" values="0 0 0 0 0 0 0 0 0 0 0 0 0 0 0 0 0 0 127 0" result="hardAlpha"/>
<feMorphology radius="1" operator="dilate" in="SourceAlpha" result="effect1_dropShadow_422_14989"/>
<feOffset dy="2"/>
<feGaussianBlur stdDeviation="7.5"/>
<feColorMatrix type="matrix" values="0 0 0 0 0.564706 0 0 0 0 0.643137 0 0 0 0 0.682353 0 0 0 0.11 0"/>
<feBlend mode="normal" in2="BackgroundImageFix" result="effect1_dropShadow_422_14989"/>
<feColorMatrix in="SourceAlpha" type="matrix" values="0 0 0 0 0 0 0 0 0 0 0 0 0 0 0 0 0 0 127 0" result="hardAlpha"/>
<feMorphology radius="1" operator="dilate" in="SourceAlpha" result="effect2_dropShadow_422_14989"/>
<feOffset dy="7"/>
<feGaussianBlur stdDeviation="5"/>
<feColorMatrix type="matrix" values="0 0 0 0 0.564706 0 0 0 0 0.643137 0 0 0 0 0.682353 0 0 0 0.14 0"/>
<feBlend mode="normal" in2="effect1_dropShadow_422_14989" result="effect2_dropShadow_422_14989"/>
<feColorMatrix in="SourceAlpha" type="matrix" values="0 0 0 0 0 0 0 0 0 0 0 0 0 0 0 0 0 0 127 0" result="hardAlpha"/>
<feMorphology radius="2" operator="erode" in="SourceAlpha" result="effect3_dropShadow_422_14989"/>
<feOffset dy="4"/>
<feGaussianBlur stdDeviation="2.5"/>
<feColorMatrix type="matrix" values="0 0 0 0 0.564706 0 0 0 0 0.643137 0 0 0 0 0.682353 0 0 0 0.25 0"/>
<feBlend mode="normal" in2="effect2_dropShadow_422_14989" result="effect3_dropShadow_422_14989"/>
<feBlend mode="normal" in="SourceGraphic" in2="effect3_dropShadow_422_14989" result="shape"/>
</filter>
</defs>
</svg>
