<svg xmlns="http://www.w3.org/2000/svg" width="16" height="16" viewBox="0 0 16 16" fill="none">
    <path d="M7.99935 11.3332C8.35297 11.3332 8.69211 11.1927 8.94216 10.9426C9.19221 10.6926 9.33268 10.3535 9.33268 9.99984C9.33268 9.64622 9.19221 9.30708 8.94216 9.05703C8.69211 8.80698 8.35297 8.6665 7.99935 8.6665C7.64573 8.6665 7.30659 8.80698 7.05654 9.05703C6.80649 9.30708 6.66602 9.64622 6.66602 9.99984C6.66602 10.3535 6.80649 10.6926 7.05654 10.9426C7.30659 11.1927 7.64573 11.3332 7.99935 11.3332ZM11.9993 5.33317C12.353 5.33317 12.6921 5.47365 12.9422 5.7237C13.1922 5.97374 13.3327 6.31288 13.3327 6.6665V13.3332C13.3327 13.6868 13.1922 14.0259 12.9422 14.276C12.6921 14.526 12.353 14.6665 11.9993 14.6665H3.99935C3.64573 14.6665 3.30659 14.526 3.05654 14.276C2.80649 14.0259 2.66602 13.6868 2.66602 13.3332V6.6665C2.66602 6.31288 2.80649 5.97374 3.05654 5.7237C3.30659 5.47365 3.64573 5.33317 3.99935 5.33317H4.66602V3.99984C4.66602 3.11578 5.0172 2.26794 5.64233 1.64281C6.26745 1.01769 7.11529 0.666504 7.99935 0.666504C8.43709 0.666504 8.87054 0.752723 9.27496 0.920239C9.67938 1.08775 10.0468 1.33329 10.3564 1.64281C10.6659 1.95234 10.9114 2.31981 11.0789 2.72423C11.2465 3.12864 11.3327 3.5621 11.3327 3.99984V5.33317H11.9993ZM7.99935 1.99984C7.46892 1.99984 6.96021 2.21055 6.58513 2.58562C6.21006 2.9607 5.99935 3.4694 5.99935 3.99984V5.33317H9.99935V3.99984C9.99935 3.4694 9.78864 2.9607 9.41356 2.58562C9.03849 2.21055 8.52978 1.99984 7.99935 1.99984Z" fill="#E77574"/>
</svg>
