<svg xmlns="http://www.w3.org/2000/svg" width="16" height="16" viewBox="0 0 16 16" fill="none">
    <path fill-rule="evenodd" clip-rule="evenodd" d="M8.94216 11.6095C8.69211 11.8595 8.35297 12 7.99935 12C7.64573 12 7.30659 11.8595 7.05654 11.6095C6.80649 11.3594 6.66602 11.0203 6.66602 10.6667C6.66602 10.313 6.80649 9.97391 7.05654 9.72386C7.30659 9.47381 7.64573 9.33333 7.99935 9.33333C8.35297 9.33333 8.69211 9.47381 8.94216 9.72386C9.19221 9.97391 9.33268 10.313 9.33268 10.6667C9.33268 11.0203 9.19221 11.3594 8.94216 11.6095ZM12.9422 6.39052C12.6921 6.14048 12.353 6 11.9993 6H11.3327H9.99935H5.99935V5.33333C5.99935 4.13623 6.23375 3.29419 6.60882 2.91912C6.9839 2.54405 7.4926 2.33333 8.02304 2.33333C8.55347 2.33333 9.06218 2.54405 9.43725 2.91912C9.62774 3.10961 9.77584 3.33457 9.87546 3.66667C9.88292 3.69151 9.8901 3.71695 9.89701 3.74302C10.023 4.33333 11.2464 4.35276 11.2464 3.66667C11.2083 3.41822 11.1603 3.19682 11.1026 3.05772C10.9351 2.6533 10.7392 2.33546 10.3801 1.97631C10.0209 1.61716 9.70307 1.42125 9.29865 1.25373C8.89423 1.08622 8.46078 1 8.02304 1C7.13898 1 6.29114 1.35119 5.66602 1.97631C5.04089 2.60143 4.66602 3.78261 4.66602 5.33333V6H3.99935C3.64573 6 3.30659 6.14048 3.05654 6.39052C2.80649 6.64057 2.66602 6.97971 2.66602 7.33333V14C2.66602 14.3536 2.80649 14.6928 3.05654 14.9428C3.30659 15.1929 3.64573 15.3333 3.99935 15.3333H11.9993C12.353 15.3333 12.6921 15.1929 12.9422 14.9428C13.1922 14.6928 13.3327 14.3536 13.3327 14V7.33333C13.3327 6.97971 13.1922 6.64057 12.9422 6.39052Z" fill="#82C684"/>
</svg>
