<svg xmlns="http://www.w3.org/2000/svg" width="40" height="40" viewBox="0 0 40 40" fill="none">
    <path d="M20 11C20 13.3869 19.0518 15.6761 17.364 17.364C15.6761 19.0518 13.3869 20 11 20C8.61305 20 6.32387 19.0518 4.63604 17.364C2.94821 15.6761 2 13.3869 2 11C2 8.61305 2.94821 6.32387 4.63604 4.63604C6.32387 2.94821 8.61305 2 11 2C13.3869 2 15.6761 2.94821 17.364 4.63604C19.0518 6.32387 20 8.61305 20 11ZM12 7C12 6.73478 11.8946 6.48043 11.7071 6.29289C11.5196 6.10536 11.2652 6 11 6C10.7348 6 10.4804 6.10536 10.2929 6.29289C10.1054 6.48043 10 6.73478 10 7V10H7C6.73478 10 6.48043 10.1054 6.29289 10.2929C6.10536 10.4804 6 10.7348 6 11C6 11.2652 6.10536 11.5196 6.29289 11.7071C6.48043 11.8946 6.73478 12 7 12H10V15C10 15.2652 10.1054 15.5196 10.2929 15.7071C10.4804 15.8946 10.7348 16 11 16C11.2652 16 11.5196 15.8946 11.7071 15.7071C11.8946 15.5196 12 15.2652 12 15V12H15C15.2652 12 15.5196 11.8946 15.7071 11.7071C15.8946 11.5196 16 11.2652 16 11C16 10.7348 15.8946 10.4804 15.7071 10.2929C15.5196 10.1054 15.2652 10 15 10H12V7ZM28 8H21.586C21.3903 7.30914 21.127 6.63924 20.8 6H28C29.5913 6 31.1174 6.63214 32.2426 7.75736C33.3679 8.88258 34 10.4087 34 12V28C34 29.5913 33.3679 31.1174 32.2426 32.2426C31.1174 33.3679 29.5913 34 28 34H12C10.4087 34 8.88258 33.3679 7.75736 32.2426C6.63214 31.1174 6 29.5913 6 28V20.8C6.634 21.124 7.302 21.388 8 21.586V28C8 28.746 8.204 29.444 8.56 30.04L17.898 20.864C18.459 20.3131 19.2138 20.0045 20 20.0045C20.7862 20.0045 21.541 20.3131 22.102 20.864L31.442 30.04C31.8086 29.4228 32.0014 28.7179 32 28V12C32 10.9391 31.5786 9.92172 30.8284 9.17157C30.0783 8.42143 29.0609 8 28 8ZM28 15C28 15.394 27.9224 15.7841 27.7716 16.1481C27.6209 16.512 27.3999 16.8427 27.1213 17.1213C26.8427 17.3999 26.512 17.6209 26.1481 17.7716C25.7841 17.9224 25.394 18 25 18C24.606 18 24.2159 17.9224 23.8519 17.7716C23.488 17.6209 23.1573 17.3999 22.8787 17.1213C22.6001 16.8427 22.3791 16.512 22.2284 16.1481C22.0776 15.7841 22 15.394 22 15C22 14.2044 22.3161 13.4413 22.8787 12.8787C23.4413 12.3161 24.2044 12 25 12C25.7956 12 26.5587 12.3161 27.1213 12.8787C27.6839 13.4413 28 14.2044 28 15ZM26 15C26 14.7348 25.8946 14.4804 25.7071 14.2929C25.5196 14.1054 25.2652 14 25 14C24.7348 14 24.4804 14.1054 24.2929 14.2929C24.1054 14.4804 24 14.7348 24 15C24 15.2652 24.1054 15.5196 24.2929 15.7071C24.4804 15.8946 24.7348 16 25 16C25.2652 16 25.5196 15.8946 25.7071 15.7071C25.8946 15.5196 26 15.2652 26 15ZM9.976 31.452C10.5896 31.8123 11.2885 32.0015 12 32H28C28.74 32 29.43 31.8 30.024 31.452L20.7 22.292C20.5131 22.1088 20.2618 22.0061 20 22.0061C19.7382 22.0061 19.4869 22.1088 19.3 22.292L9.976 31.452Z" fill="#FEFEFE"/>
</svg>
