<svg width="395" height="441" viewBox="0 0 395 441" fill="none" xmlns="http://www.w3.org/2000/svg">
<g clip-path="url(#clip0_1955_54309)">
<path d="M381.79 376.23H0" stroke="#66B0F0" stroke-width="1.10715" stroke-miterlimit="10"/>
<path d="M33.3491 382.739H251.981" stroke="#66B0F0" stroke-width="1.10715" stroke-miterlimit="10"/>
<path d="M362.116 295.474H301.056C298.166 295.474 295.818 297.684 295.818 300.404V376.23H367.341V300.404C367.354 297.684 365.006 295.474 362.116 295.474Z" fill="#D0F0E4"/>
<path d="M362.116 295.474H301.056C298.166 295.474 295.818 297.684 295.818 300.404V376.23H367.341V300.404C367.354 297.684 365.006 295.474 362.116 295.474Z" stroke="#FFCF2D" stroke-width="1.10715" stroke-miterlimit="10"/>
<path d="M375.7 210.287H287.587V376.218H375.7V210.287Z" stroke="#FFCF2D" stroke-width="1.10715" stroke-miterlimit="10"/>
<path d="M378.01 189.512H75.8311V210.287H395" stroke="#FFCF2D" stroke-width="1.10715" stroke-miterlimit="10"/>
<path d="M362.116 249.287H301.172C298.282 249.287 295.934 247.077 295.934 244.357V224.104C295.934 221.385 298.282 219.175 301.172 219.175H362.116C365.006 219.175 367.354 221.385 367.354 224.104V244.369C367.354 247.089 365.006 249.287 362.116 249.287Z" stroke="#FFCF2D" stroke-width="1.10715" stroke-miterlimit="10"/>
<path d="M362.116 285.955H301.172C298.282 285.955 295.934 283.745 295.934 281.026V260.773C295.934 258.053 298.282 255.843 301.172 255.843H362.116C365.006 255.843 367.354 258.053 367.354 260.773V281.026C367.354 283.745 365.006 285.955 362.116 285.955Z" stroke="#FFCF2D" stroke-width="1.10715" stroke-miterlimit="10"/>
<path d="M331.85 237.921C334.165 237.921 336.043 236.155 336.043 233.975C336.043 231.796 334.165 230.029 331.85 230.029C329.534 230.029 327.657 231.796 327.657 233.975C327.657 236.155 329.534 237.921 331.85 237.921Z" stroke="#66B0F0" stroke-width="1.10715" stroke-miterlimit="10"/>
<path d="M331.85 274.7C334.165 274.7 336.043 272.933 336.043 270.754C336.043 268.574 334.165 266.808 331.85 266.808C329.534 266.808 327.657 268.574 327.657 270.754C327.657 272.933 329.534 274.7 331.85 274.7Z" stroke="#66B0F0" stroke-width="1.10715" stroke-miterlimit="10"/>
<path d="M358.026 320.73L357.936 321.253L357.897 321.556L356.555 329.606L356.413 330.468L355.807 334.135L355.588 335.422L355.02 338.822L354.878 339.684L353.498 348.013V348.05L353.356 348.912L353.278 349.3L351.963 357.266L351.821 358.128L351.201 361.879V361.892L350.982 363.179L350.427 366.481L350.285 367.343L348.905 375.709L348.892 375.758L348.828 376.146L348.815 376.231H312.563L312.55 376.134L312.486 375.794L312.473 375.685L311.079 367.331L310.938 366.457L310.396 363.215L310.189 361.916L309.557 358.103L309.415 357.241L308.099 349.337L308.022 348.888L307.88 348.038V348.026L306.487 339.66L306.345 338.798L305.79 335.459L305.584 334.172L304.964 330.444L304.822 329.582L303.494 321.593L303.352 320.73H358.026Z" fill="white"/>
<path d="M349.163 376.608H312.215L312.06 375.709L302.875 320.354H358.49L349.163 376.608ZM312.899 375.855H348.466L357.549 321.119H303.803L312.899 375.855Z" fill="#66B0F0"/>
<path d="M358.529 320.73C358.529 320.9 358.503 321.082 358.439 321.252C358 322.527 355.988 323.705 352.827 324.676C352.595 324.749 352.363 324.81 352.13 324.883C350.092 325.454 347.654 325.951 344.906 326.328C344.648 326.364 344.39 326.401 344.119 326.437C341.694 326.753 339.049 326.983 336.249 327.117C335.965 327.129 335.695 327.141 335.411 327.153C333.876 327.214 332.289 327.251 330.676 327.251C329.438 327.251 328.212 327.226 327.012 327.19C326.716 327.178 326.419 327.166 326.122 327.153C322.897 327.032 319.852 326.777 317.091 326.413C316.756 326.364 316.433 326.328 316.111 326.279C311.428 325.611 307.661 324.628 305.352 323.45C304.01 322.77 303.171 322.03 302.9 321.252L302.823 320.743C302.823 317.149 315.285 314.247 330.663 314.247C345.951 314.247 358.362 317.124 358.503 320.694C358.529 320.694 358.529 320.706 358.529 320.73Z" fill="#66B0F0"/>
<path d="M348.916 375.721V376.207L348.825 376.146L348.812 376.219H348.477L344.362 371.216L343.936 370.694L339.795 365.668L339.369 365.145L335.228 360.119L334.802 359.597L330.661 354.57L330.235 354.048L326.094 349.021L325.668 348.499L321.54 343.472L321.114 342.95L316.973 337.923L316.547 337.401L312.419 332.374L311.993 331.852L307.865 326.825L307.439 326.303L303.479 321.495L303.414 321.143C303.672 321.908 304.498 322.637 305.814 323.304L307.852 325.781L308.278 326.303L312.419 331.33L312.845 331.852L316.986 336.879L317.412 337.401L321.553 342.428L321.978 342.95L326.12 347.977L326.545 348.499L330.687 353.526L331.112 354.048L335.254 359.074L335.679 359.597L339.82 364.623L340.246 365.145L344.387 370.172L344.813 370.694L348.929 375.697L348.916 375.721Z" fill="#66B0F0"/>
<path d="M350.427 366.481L350.285 367.344L348.918 365.68L348.492 365.158L344.351 360.131L343.925 359.609L339.784 354.582L339.358 354.06L335.217 349.034L334.791 348.511L330.65 343.485L330.225 342.963L326.122 337.984L325.696 337.462L321.555 332.436L321.129 331.913L316.988 326.887L316.562 326.365L316.382 326.146C316.691 326.195 317.014 326.231 317.336 326.28L317.401 326.365L321.542 331.391L321.968 331.913L326.109 336.94L326.535 337.462L330.676 342.489L331.102 343.011L335.243 348.038L335.669 348.56L339.81 353.587L340.236 354.109L344.377 359.136L344.803 359.658L348.944 364.684L349.37 365.207L350.427 366.481Z" fill="#66B0F0"/>
<path d="M351.962 357.265L351.82 358.127L348.917 354.606L348.491 354.084L344.35 349.057L343.925 348.535L339.783 343.509L339.358 342.986L335.216 337.96L334.791 337.438L330.65 332.411L330.224 331.889L326.186 326.983C326.483 326.996 326.766 327.008 327.063 327.02L330.65 331.367L331.075 331.889L335.216 336.916L335.642 337.438L339.783 342.464L340.209 342.986L344.35 348.013L344.776 348.535L348.917 353.562L349.343 354.084L351.962 357.265Z" fill="#66B0F0"/>
<path d="M353.496 348.05L353.355 348.912L353.058 348.548L348.917 343.521L348.491 342.999L344.35 337.972L343.924 337.45L339.783 332.423L339.357 331.901L335.319 326.996C335.59 326.984 335.874 326.972 336.145 326.959L339.783 331.379L340.209 331.901L344.35 336.928L344.775 337.45L348.917 342.477L349.342 342.999L353.484 348.026L353.496 348.05Z" fill="#66B0F0"/>
<path d="M321.812 376.036L321.554 376.218L321.541 376.23H321.115L316.987 371.228L316.561 370.706L312.433 365.679L312.007 365.169L310.395 363.215L310.188 361.916L312.433 364.647L312.859 365.169L316.987 370.184L317.413 370.706L321.554 375.733L321.812 376.036Z" fill="#66B0F0"/>
<path d="M312.679 376.036L312.55 376.133L312.485 375.794L312.679 376.036Z" fill="#66B0F0"/>
<path d="M330.933 376.037L330.675 376.219L330.662 376.231H330.236L326.121 371.229L325.695 370.707L321.554 365.68L321.128 365.17L316.987 360.143L316.561 359.633V359.621L312.433 354.606L312.007 354.084L308.098 349.337L308.021 348.888L307.879 348.038L308.292 348.548L312.433 353.574L312.859 354.084L316.987 359.111L317.413 359.633L321.554 364.648L321.98 365.17L326.121 370.184L326.547 370.707L330.675 375.733L330.933 376.037Z" fill="#66B0F0"/>
<path d="M340.053 376.037L339.795 376.219L339.782 376.232H339.356L335.241 371.229L334.815 370.707L330.674 365.68L330.248 365.17L326.12 360.143L325.694 359.634L321.553 354.607L321.127 354.085L316.986 349.07L316.56 348.548L312.432 343.521L312.006 343.011L307.865 337.984L307.44 337.474L305.788 335.459L305.582 334.172L307.865 336.952L308.291 337.474L312.432 342.489L312.858 343.011L316.986 348.026L317.412 348.548L321.553 353.575L321.979 354.085L326.12 359.111L326.546 359.634L330.674 364.648L331.1 365.17L335.241 370.185L335.667 370.707L339.795 375.734L340.053 376.037Z" fill="#66B0F0"/>
<path d="M355.018 338.822L354.876 339.684L353.483 337.984L353.057 337.462L348.916 332.436L348.49 331.913L344.349 326.887L343.924 326.365L343.872 326.304C344.13 326.268 344.388 326.231 344.633 326.195L344.775 326.365L348.916 331.391L349.342 331.913L353.483 336.94L353.909 337.462L355.018 338.822Z" fill="#66B0F0"/>
<path d="M356.554 329.606L356.412 330.468L353.484 326.91L353.058 326.388L351.755 324.798C351.987 324.737 352.219 324.664 352.439 324.591L353.484 325.866L353.909 326.388L356.554 329.606Z" fill="#66B0F0"/>
<path d="M358.4 320.925L358.039 321.362L357.935 321.241C358 321.071 358.026 320.901 358.026 320.731C358.026 320.707 358.026 320.695 358.026 320.67L358.039 320.658L358.4 320.925Z" fill="#66B0F0"/>
<path d="M355.807 334.134L355.588 335.421L353.91 337.473L353.485 337.983L349.344 343.01L348.918 343.52L344.79 348.546L344.364 349.068L340.223 354.083L339.797 354.605L335.669 359.632L335.243 360.142L331.102 365.169L330.676 365.679L326.548 370.705L326.122 371.227L321.994 376.23H321.568L321.555 376.218L321.31 376.036L321.555 375.732L325.696 370.705L326.122 370.183L330.25 365.169L330.676 364.646L334.817 359.632L335.243 359.11L339.371 354.083L339.797 353.573L343.938 348.546L344.364 348.024L348.492 343.01L348.918 342.487L353.059 337.473L353.485 336.951L355.807 334.134Z" fill="#66B0F0"/>
<path d="M357.896 321.556L353.91 326.4L353.484 326.922L349.343 331.949L348.917 332.471L344.776 337.498L344.351 338.02L340.209 343.047L339.784 343.569L335.668 348.547L335.242 349.069L331.101 354.096L330.676 354.618L326.534 359.645L326.109 360.167L321.967 365.194L321.542 365.716L317.4 370.743L316.975 371.265L312.859 376.267H312.55L312.537 376.17L312.485 375.83L312.434 375.769L312.472 375.721L316.575 370.743L317.001 370.221L321.142 365.194L321.567 364.672L325.709 359.645L326.134 359.123L330.276 354.096L330.701 353.574L334.843 348.547L335.268 348.025L339.409 342.998L339.835 342.476L343.976 337.449L344.402 336.927L348.543 331.901L348.969 331.379L353.097 326.352L353.523 325.83L355.549 323.365C356.877 322.697 357.716 321.968 357.987 321.191L357.896 321.556Z" fill="#66B0F0"/>
<path d="M344.956 326.181L344.776 326.399L344.35 326.921L340.209 331.948L339.783 332.47L335.642 337.497L335.216 338.019L331.075 343.046L330.649 343.568L326.508 348.595L326.082 349.117L321.941 354.144L321.515 354.666L317.374 359.692L316.948 360.215L312.807 365.241L312.381 365.763L311.027 367.403L310.885 366.54L311.956 365.241L312.381 364.719L316.51 359.692L316.935 359.17L321.077 354.144L321.502 353.621L325.631 348.595L326.056 348.073L330.197 343.046L330.623 342.524L334.764 337.497L335.19 336.975L339.331 331.948L339.757 331.426L343.898 326.399L343.963 326.314C344.182 326.29 344.401 326.254 344.608 326.229C344.75 326.205 344.853 326.193 344.956 326.181Z" fill="#66B0F0"/>
<path d="M335.141 327.031L331.103 331.924L330.677 332.447L326.536 337.473L326.11 337.995L321.969 343.022L321.543 343.544L317.402 348.571L316.976 349.093L312.835 354.12L312.409 354.642L309.533 358.139L309.391 357.277L311.984 354.12L312.409 353.598L316.551 348.571L316.976 348.049L321.118 343.022L321.543 342.5L325.685 337.473L326.11 336.951L330.251 331.924L330.677 331.402L334.264 327.056C334.547 327.056 334.844 327.043 335.141 327.031Z" fill="#66B0F0"/>
<path d="M351.201 361.89L350.981 363.177L349.343 365.168L348.917 365.678L344.789 370.705L344.363 371.227L340.235 376.229H339.81L339.797 376.217L339.552 376.035L339.797 375.731L343.938 370.705L344.363 370.183L348.492 365.168L348.917 364.646L351.201 361.89Z" fill="#66B0F0"/>
<path d="M353.279 349.3L349.344 354.084L348.918 354.606L344.79 359.633L344.364 360.142L340.223 365.169L339.797 365.679L335.669 370.706L335.243 371.228L331.115 376.231H330.689L330.676 376.218L330.431 376.036L330.676 375.733L334.817 370.706L335.243 370.184L339.372 365.169L339.797 364.647L343.938 359.633L344.364 359.11L348.492 354.084L348.918 353.574L353.059 348.547L353.485 348.025L353.498 348.013V348.049L353.356 348.911L353.279 349.3Z" fill="#66B0F0"/>
<path d="M326.019 327.019L321.981 331.924L321.555 332.446L317.414 337.473L316.988 337.995L312.847 343.022L312.421 343.544L308.28 348.571L308.009 348.911L307.867 348.073L307.854 348.061L307.867 348.049L311.995 343.034L312.421 342.512L316.549 337.485L316.975 336.963L321.116 331.936L321.542 331.414L325.18 326.995C325.477 326.995 325.748 327.007 326.019 327.019Z" fill="#66B0F0"/>
<path d="M317.479 326.327L317.427 326.4L317.001 326.922L312.86 331.949L312.434 332.471L308.293 337.497L307.868 338.019L306.487 339.695L306.345 338.833L307.442 337.497L307.868 336.975L311.996 331.949L312.422 331.427L316.563 326.4L316.705 326.23C316.911 326.254 317.13 326.291 317.35 326.315L317.479 326.327Z" fill="#66B0F0"/>
<path d="M309.609 324.797L308.293 326.388L307.868 326.91L304.952 330.443L304.81 329.581L307.442 326.388L307.868 325.866L308.926 324.591C309.145 324.664 309.377 324.737 309.609 324.797Z" fill="#66B0F0"/>
<path d="M360.683 313.603H348.776V310.191H356.001C358.258 310.191 360.142 311.648 360.683 313.603Z" fill="white" stroke="#FFCF2D" stroke-width="0.922628" stroke-miterlimit="10"/>
<path d="M356.079 310.191C352.699 310.227 349.744 312.352 348.841 315.424L346.093 324.81C345.706 324.871 345.306 324.931 344.907 324.98C344.648 325.016 344.39 325.053 344.12 325.089C341.694 325.405 339.049 325.635 336.25 325.769C335.966 325.781 335.695 325.793 335.411 325.805C333.876 325.866 332.289 325.903 330.677 325.903C329.438 325.903 328.213 325.878 327.013 325.842C326.716 325.83 326.419 325.818 326.123 325.805C326.007 325.805 325.891 325.793 325.774 325.793L328.819 315.424C329.722 312.328 332.715 310.191 336.134 310.191H356.079Z" fill="white" stroke="#FFCF2D" stroke-width="0.922628" stroke-miterlimit="10"/>
<path d="M343.112 86.6016L383.261 189.856H245.488L284.694 86.6016H343.112Z" fill="#FFCF2D"/>
<path d="M314.386 73.6594C314.386 69.3256 317.738 65.812 321.873 65.812H326.201C330.336 65.812 333.688 69.3256 333.688 73.6594V175.212" stroke="#66B0F0" stroke-width="1.10715" stroke-miterlimit="10"/>
<path d="M343.746 186.82V189.962H312.172V186.82C312.172 184.142 313.043 181.666 314.505 179.7C316.528 176.976 319.703 175.211 323.248 175.211H332.655C332.803 175.211 332.965 175.211 333.113 175.227C339.035 175.475 343.746 180.567 343.746 186.82Z" fill="white" stroke="#FE5244" stroke-width="1.10715" stroke-miterlimit="10"/>
<path d="M350.76 86.4905H277.702V84.0914C277.702 78.349 282.147 73.7056 287.611 73.7056H340.85C346.329 73.7056 350.76 78.3645 350.76 84.0914V86.4905Z" fill="#FE5244"/>
<path d="M350.76 84.5713H277.702" stroke="white" stroke-width="0.922628" stroke-miterlimit="10" stroke-linecap="round"/>
<path d="M343.125 86.4907C343.125 89.2304 341.5 91.4592 339.477 91.4592H288.349C286.341 91.4592 284.702 89.2304 284.702 86.4907H343.125Z" fill="white"/>
<path d="M333.687 178.245C333.687 183.213 329.36 187.253 324.029 187.253C319.23 187.253 315.242 183.987 314.504 179.7C316.527 176.976 319.702 175.211 323.246 175.211H332.653C332.801 175.211 332.963 175.211 333.111 175.227C333.495 176.171 333.687 177.193 333.687 178.245Z" fill="white" stroke="#FE5244" stroke-width="1.10715" stroke-miterlimit="10"/>
<path d="M324.295 173.091V177.951C324.295 178.942 323.424 179.747 322.361 179.747C321.297 179.747 320.426 178.942 320.426 177.951V173.091H320.456C320.633 173.943 321.415 174.593 322.346 174.593C323.276 174.593 324.059 173.943 324.236 173.091H324.295Z" fill="#FE5244"/>
<path d="M323.882 172.921C323.882 173.029 323.867 173.137 323.852 173.246C323.72 174.02 323.099 174.592 322.346 174.592C321.608 174.592 320.988 174.02 320.84 173.246C320.825 173.137 320.81 173.029 320.81 172.921C320.81 171.992 321.49 171.249 322.346 171.249C323.188 171.249 323.882 172.007 323.882 172.921Z" fill="white" stroke="#FE5244" stroke-width="1.10715" stroke-miterlimit="10"/>
<path d="M286.802 134.17H282.389V189.513H286.802V134.17Z" fill="#3FB1B5"/>
<path d="M280.544 189.513H272.984C272.184 189.513 271.539 188.906 271.539 188.153V147.016C271.539 146.263 272.184 145.656 272.984 145.656H280.544C281.344 145.656 281.989 146.263 281.989 147.016V188.153C281.989 188.906 281.344 189.513 280.544 189.513Z" fill="white" stroke="#FFCF2D" stroke-width="0.922628" stroke-miterlimit="10"/>
<path d="M304.863 188.626H296.18C295.548 188.626 295.006 188.201 294.89 187.618L287.098 149.517C286.943 148.752 287.562 148.048 288.388 148.048H297.07C297.703 148.048 298.244 148.473 298.361 149.056L306.153 187.157C306.308 187.922 305.688 188.626 304.863 188.626Z" stroke="#66B0F0" stroke-width="1.10715" stroke-miterlimit="10"/>
<path d="M269.811 189.513H228.915C227.96 189.513 227.186 188.785 227.186 187.886V180.006C227.186 179.107 227.96 178.379 228.915 178.379H269.811C270.765 178.379 271.539 179.107 271.539 180.006V187.886C271.539 188.785 270.765 189.513 269.811 189.513Z" fill="#FE5244"/>
<path d="M58.034 3.08203V28.1916C58.034 33.109 53.7896 37.1037 48.5647 37.1037H18.9829C24.2078 37.1037 28.4522 33.1212 28.4522 28.1916V3.08203H58.034Z" fill="white" stroke="#FFCF2D" stroke-width="0.922628" stroke-miterlimit="10"/>
<path d="M44.3724 0.653809H41.9858V6.00822H44.3724V0.653809Z" fill="#FE5244"/>
<path d="M49.4286 12.6261C49.0932 12.6261 48.7578 12.5047 48.4869 12.274L47.4936 11.4484C47.1839 11.1934 46.7711 11.1934 46.4615 11.4484L45.5198 12.2376C44.9651 12.699 44.191 12.699 43.6234 12.2376L42.7591 11.5212C42.4495 11.2663 42.0367 11.2663 41.727 11.5212L40.9272 12.189C40.3725 12.6504 39.5985 12.6504 39.0308 12.189L38.3729 11.6427C38.0633 11.3877 37.6505 11.3877 37.3409 11.6427L36.6314 12.2376C36.0766 12.699 35.3026 12.699 34.735 12.2376L34.0771 11.6912C33.7674 11.4363 33.3546 11.4363 33.045 11.6912C32.916 11.8005 32.7096 11.7884 32.5935 11.6669C32.4774 11.5455 32.4903 11.3513 32.6193 11.242C33.174 10.7806 33.9481 10.7806 34.5157 11.242L35.1736 11.7884C35.4832 12.0433 35.896 12.0433 36.2056 11.7884L36.9152 11.1934C37.4699 10.732 38.2439 10.732 38.8115 11.1934L39.4695 11.7398C39.7791 11.9948 40.1919 11.9948 40.5015 11.7398L41.3013 11.072C41.856 10.6106 42.6301 10.6106 43.1977 11.072L44.062 11.7884C44.3716 12.0433 44.7845 12.0433 45.0941 11.7884L46.0358 10.9992C46.5905 10.5378 47.3646 10.5378 47.9322 10.9992L48.9255 11.8248C49.2351 12.0797 49.6479 12.0797 49.9576 11.8248L50.9896 10.9627C51.5443 10.5014 52.3183 10.5014 52.886 10.9627C53.015 11.072 53.0279 11.2663 52.9118 11.3877C52.7957 11.5091 52.5892 11.5212 52.4602 11.412C52.1506 11.157 51.7378 11.157 51.4282 11.412L50.3962 12.274C50.0866 12.5047 49.764 12.6261 49.4286 12.6261Z" fill="#FFCF2D"/>
<path d="M49.4286 17.6159C49.0932 17.6159 48.7578 17.4944 48.4869 17.2638L47.4936 16.4381C47.1839 16.1832 46.7711 16.1832 46.4615 16.4381L45.5198 17.2273C44.9651 17.6887 44.191 17.6887 43.6234 17.2273L42.7591 16.511C42.4495 16.256 42.0367 16.256 41.727 16.511L40.9272 17.1788C40.3725 17.6402 39.5985 17.6402 39.0308 17.1788L38.3729 16.6324C38.0633 16.3774 37.6505 16.3774 37.3409 16.6324L36.6314 17.2273C36.0766 17.6887 35.3026 17.6887 34.735 17.2273L34.0771 16.681C33.7674 16.426 33.3546 16.426 33.045 16.681C32.916 16.7902 32.7096 16.7781 32.5935 16.6567C32.4774 16.5353 32.4903 16.341 32.6193 16.2317C33.174 15.7704 33.9481 15.7704 34.5157 16.2317L35.1736 16.7781C35.4832 17.0331 35.896 17.0331 36.2056 16.7781L36.9152 16.1832C37.4699 15.7218 38.2439 15.7218 38.8115 16.1832L39.4695 16.7295C39.7791 16.9845 40.1919 16.9845 40.5015 16.7295L41.3013 16.0618C41.856 15.6004 42.6301 15.6004 43.1977 16.0618L44.062 16.7781C44.3716 17.0331 44.7845 17.0331 45.0941 16.7781L46.0358 15.9889C46.5905 15.5275 47.3646 15.5275 47.9322 15.9889L48.9255 16.8145C49.2351 17.0695 49.6479 17.0695 49.9576 16.8145L50.9896 15.9525C51.5443 15.4911 52.3183 15.4911 52.886 15.9525C53.015 16.0618 53.0279 16.256 52.9118 16.3774C52.7957 16.4988 52.5892 16.511 52.4602 16.4017C52.1506 16.1467 51.7378 16.1467 51.4282 16.4017L50.3962 17.2638C50.0866 17.5066 49.764 17.6159 49.4286 17.6159Z" fill="#FFCF2D"/>
<path d="M49.4286 22.6066C49.0932 22.6066 48.7578 22.4852 48.4869 22.2545L47.4936 21.4289C47.1839 21.1739 46.7711 21.1739 46.4615 21.4289L45.5198 22.2181C44.9651 22.6794 44.191 22.6794 43.6234 22.2181L42.7591 21.5017C42.4495 21.2467 42.0367 21.2467 41.727 21.5017L40.9272 22.1695C40.3725 22.6309 39.5985 22.6309 39.0308 22.1695L38.3729 21.6231C38.0633 21.3682 37.6505 21.3682 37.3409 21.6231L36.6314 22.2181C36.0766 22.6794 35.3026 22.6794 34.735 22.2181L34.0771 21.6717C33.7674 21.4167 33.3546 21.4167 33.045 21.6717C32.916 21.781 32.7096 21.7688 32.5935 21.6474C32.4774 21.526 32.4903 21.3317 32.6193 21.2225C33.174 20.7611 33.9481 20.7611 34.5157 21.2225L35.1736 21.7688C35.4832 22.0238 35.896 22.0238 36.2056 21.7688L36.9152 21.1739C37.4699 20.7125 38.2439 20.7125 38.8115 21.1739L39.4695 21.7203C39.7791 21.9752 40.1919 21.9752 40.5015 21.7203L41.3013 21.0525C41.856 20.5911 42.6301 20.5911 43.1977 21.0525L44.062 21.7688C44.3716 22.0238 44.7845 22.0238 45.0941 21.7688L46.0358 20.9796C46.5905 20.5182 47.3646 20.5182 47.9322 20.9796L48.9255 21.8052C49.2351 22.0602 49.6479 22.0602 49.9576 21.8052L50.9896 20.9432C51.5443 20.4818 52.3183 20.4818 52.886 20.9432C53.015 21.0525 53.0279 21.2467 52.9118 21.3682C52.7957 21.4896 52.5892 21.5017 52.4602 21.3924C52.1506 21.1375 51.7378 21.1375 51.4282 21.3924L50.3962 22.2545C50.0866 22.4973 49.764 22.6066 49.4286 22.6066Z" fill="#FFCF2D"/>
<path d="M49.4286 27.609C49.0932 27.609 48.7578 27.4876 48.4869 27.2569L47.4936 26.4313C47.1839 26.1763 46.7711 26.1763 46.4615 26.4313L45.5198 27.2205C44.9651 27.6819 44.191 27.6819 43.6234 27.2205L42.7591 26.5042C42.4495 26.2492 42.0367 26.2492 41.727 26.5042L40.9272 27.1719C40.3725 27.6333 39.5985 27.6333 39.0308 27.1719L38.3729 26.6256C38.0633 26.3706 37.6505 26.3706 37.3409 26.6256L36.6314 27.2205C36.0766 27.6819 35.3026 27.6819 34.735 27.2205L34.0771 26.6741C33.7674 26.4192 33.3546 26.4192 33.045 26.6741C32.916 26.7834 32.7096 26.7713 32.5935 26.6499C32.4774 26.5284 32.4903 26.3342 32.6193 26.2249C33.174 25.7635 33.9481 25.7635 34.5157 26.2249L35.1736 26.7713C35.4832 27.0262 35.896 27.0262 36.2056 26.7713L36.9152 26.1763C37.4699 25.715 38.2439 25.715 38.8115 26.1763L39.4695 26.7227C39.7791 26.9777 40.1919 26.9777 40.5015 26.7227L41.3013 26.0549C41.856 25.5935 42.6301 25.5935 43.1977 26.0549L44.062 26.7713C44.3716 27.0262 44.7845 27.0262 45.0941 26.7713L46.0358 25.9821C46.5905 25.5207 47.3646 25.5207 47.9322 25.9821L48.9255 26.8077C49.2351 27.0627 49.6479 27.0627 49.9576 26.8077L50.9896 25.9456C51.5443 25.4843 52.3183 25.4843 52.886 25.9456C53.015 26.0549 53.0279 26.2492 52.9118 26.3706C52.7957 26.492 52.5892 26.5042 52.4602 26.3949C52.1506 26.1399 51.7378 26.1399 51.4282 26.3949L50.3962 27.2569C50.0866 27.4876 49.764 27.609 49.4286 27.609Z" fill="#FFCF2D"/>
<path d="M88.4922 3.08252H67.7998V22.5575H88.4922V3.08252Z" fill="#66B0F0"/>
<path d="M72.3483 2.24864L70.8477 0.501953L65.3781 4.66008L66.8787 6.40676L72.3483 2.24864Z" fill="#FFCF2D"/>
<path d="M89.5664 6.40675L91.0667 4.65967L85.5981 0.500143L84.0979 2.24722L89.5664 6.40675Z" fill="#FFCF2D"/>
<path d="M84.1191 7.69629H71.5669V8.42439H84.1191V7.69629Z" fill="white"/>
<path d="M84.1191 10.8408H71.5669V11.5689H84.1191V10.8408Z" fill="white"/>
<path d="M84.1191 13.9985H71.5669V14.7266H84.1191V13.9985Z" fill="white"/>
<path d="M84.1191 17.1431H71.5669V17.8712H84.1191V17.1431Z" fill="white"/>
<path d="M226.217 189.512H177.98L187.321 170.085L188.688 167.231H215.509L219.276 175.063L226.217 189.512Z" fill="white" stroke="#66B0F0" stroke-width="1.10715" stroke-miterlimit="10"/>
<path d="M219.276 175.063L187.321 170.085L188.688 167.231H215.509L219.276 175.063Z" fill="#66B0F0"/>
<path d="M258.947 167.232H145.406C141.239 167.232 137.872 164.05 137.872 160.141V90.3853C137.872 86.4635 141.252 83.2944 145.406 83.2944H258.947C263.114 83.2944 266.481 86.4756 266.481 90.3853V160.129C266.481 164.05 263.101 167.232 258.947 167.232Z" fill="white" stroke="#66B0F0" stroke-width="1.10715" stroke-miterlimit="10"/>
<path d="M224.928 162.302H179.413C177.194 162.302 175.401 160.614 175.401 158.526V153.341C175.401 151.253 177.194 149.565 179.413 149.565H224.928C227.147 149.565 228.94 151.253 228.94 153.341V158.526C228.94 160.614 227.134 162.302 224.928 162.302Z" fill="#66B0F0"/>
<path d="M212.981 158.841H209.911C209.15 158.841 208.531 158.259 208.531 157.542V155.284C208.531 154.568 209.15 153.985 209.911 153.985H212.981C213.742 153.985 214.362 154.568 214.362 155.284V157.542C214.362 158.259 213.742 158.841 212.981 158.841Z" fill="white"/>
<path d="M216.891 158.465L215.756 157.785C215.446 157.603 215.253 157.275 215.253 156.923V155.903C215.253 155.551 215.446 155.223 215.756 155.041L216.891 154.361C217.162 154.203 217.51 154.385 217.51 154.677V158.137C217.523 158.441 217.162 158.623 216.891 158.465Z" fill="white"/>
<path d="M201.344 157.7H201.06C199.938 157.7 199.022 156.838 199.022 155.782V154.652C199.022 154.555 199.113 154.47 199.216 154.47H203.176C203.279 154.47 203.37 154.555 203.37 154.652V155.782C203.383 156.838 202.467 157.7 201.344 157.7ZM199.409 154.834V155.782C199.409 156.631 200.145 157.336 201.06 157.336H201.344C202.247 157.336 202.996 156.644 202.996 155.782V154.834H199.409Z" fill="white"/>
<path d="M201.202 159.8C201.099 159.8 201.008 159.715 201.008 159.618V158.246C201.008 158.149 201.099 158.064 201.202 158.064C201.305 158.064 201.396 158.149 201.396 158.246V159.618C201.396 159.715 201.305 159.8 201.202 159.8Z" fill="white"/>
<path d="M202.222 159.8H200.196C200.093 159.8 200.003 159.715 200.003 159.618C200.003 159.521 200.093 159.436 200.196 159.436H202.222C202.325 159.436 202.415 159.521 202.415 159.618C202.415 159.715 202.325 159.8 202.222 159.8Z" fill="white"/>
<path d="M201.293 156.85H201.112C200.467 156.85 199.951 156.364 199.951 155.757V153.547C199.951 152.94 200.467 152.455 201.112 152.455H201.293C201.938 152.455 202.454 152.94 202.454 153.547V155.757C202.454 156.364 201.938 156.85 201.293 156.85Z" fill="white"/>
<path d="M189.425 155.478L189.412 155.49C189.167 155.769 189.245 156.194 189.567 156.449L190.754 157.347C191.077 157.59 191.541 157.566 191.786 157.287L191.799 157.275C192.044 156.995 192.508 156.983 192.818 157.238L193.889 158.149C194.224 158.44 194.224 158.926 193.889 159.144C192.766 159.885 191.309 159.618 190.109 158.707L188.303 157.335C187.103 156.412 186.523 155.125 187.052 153.936C187.219 153.571 187.722 153.474 188.084 153.729L189.258 154.531C189.58 154.773 189.657 155.198 189.425 155.478Z" fill="white"/>
<path d="M192.573 156.182C192.47 156.182 192.392 156.109 192.379 156.012C192.315 155.138 191.515 154.47 190.586 154.531C190.483 154.531 190.393 154.458 190.38 154.361C190.367 154.264 190.457 154.179 190.56 154.167C191.708 154.094 192.689 154.919 192.766 155.988C192.779 156.085 192.702 156.17 192.573 156.182C192.586 156.182 192.586 156.182 192.573 156.182Z" fill="white"/>
<path d="M193.786 156C193.683 156 193.605 155.927 193.592 155.83C193.541 155.102 193.192 154.422 192.599 153.936C192.006 153.45 191.257 153.208 190.483 153.256C190.38 153.256 190.29 153.183 190.277 153.086C190.264 152.989 190.354 152.904 190.457 152.892C191.335 152.843 192.186 153.11 192.857 153.657C193.528 154.203 193.915 154.968 193.979 155.794C193.992 155.915 193.902 156 193.786 156C193.799 156 193.799 156 193.786 156Z" fill="white"/>
<path d="M237.415 89.8633C238.156 89.8633 238.757 89.298 238.757 88.6006C238.757 87.9032 238.156 87.3379 237.415 87.3379C236.674 87.3379 236.074 87.9032 236.074 88.6006C236.074 89.298 236.674 89.8633 237.415 89.8633Z" stroke="#FFCF2D" stroke-width="0.922628" stroke-miterlimit="10"/>
<path d="M242.898 89.8633C243.639 89.8633 244.24 89.298 244.24 88.6006C244.24 87.9032 243.639 87.3379 242.898 87.3379C242.157 87.3379 241.556 87.9032 241.556 88.6006C241.556 89.298 242.157 89.8633 242.898 89.8633Z" stroke="#FFCF2D" stroke-width="0.922628" stroke-miterlimit="10"/>
<path d="M248.394 89.8633C249.135 89.8633 249.736 89.298 249.736 88.6006C249.736 87.9032 249.135 87.3379 248.394 87.3379C247.653 87.3379 247.053 87.9032 247.053 88.6006C247.053 89.298 247.653 89.8633 248.394 89.8633Z" stroke="#FFCF2D" stroke-width="0.922628" stroke-miterlimit="10"/>
<path d="M197.397 146.457H156.966C155.727 146.457 154.734 145.51 154.734 144.356V123.982C154.734 122.816 155.74 121.881 156.966 121.881H197.397C198.635 121.881 199.629 122.828 199.629 123.982V144.356C199.629 145.51 198.635 146.457 197.397 146.457Z" stroke="#66B0F0" stroke-width="1.10715" stroke-miterlimit="10"/>
<path d="M248.394 146.457H207.962C206.724 146.457 205.73 145.51 205.73 144.356V123.982C205.73 122.816 206.737 121.881 207.962 121.881H248.394C249.632 121.881 250.625 122.828 250.625 123.982V144.356C250.625 145.51 249.632 146.457 248.394 146.457Z" fill="#3FB1B5"/>
<path d="M240.757 146.396H214.336C217.007 143.299 221.083 141.308 225.65 141.308H229.443C234.01 141.32 238.087 143.299 240.757 146.396Z" fill="#FE5244"/>
<path d="M226.721 141.32C226.463 143.154 224.798 144.562 222.786 144.562C221.302 144.562 220.012 143.797 219.329 142.668C221.238 141.806 223.379 141.32 225.637 141.32H226.721Z" fill="white"/>
<path d="M234.526 142.17C233.945 143.566 232.514 144.55 230.824 144.55C228.811 144.55 227.147 143.141 226.889 141.308H229.456C231.236 141.32 232.939 141.612 234.526 142.17Z" fill="white"/>
<path d="M231.623 135.905V141.417C231.623 142.279 229.791 142.971 227.546 142.971C227.133 142.971 226.733 142.947 226.359 142.91C224.682 142.716 223.469 142.121 223.469 141.417V135.905H231.623Z" fill="#A0505A"/>
<path d="M231.081 137.034C231.081 139.426 228.862 142.328 226.359 142.899C224.682 142.704 223.469 142.11 223.469 141.405V135.893H230.952L231.081 137.034Z" fill="#73325A"/>
<path d="M233.713 135.2V135.334C233.713 136.269 232.9 137.034 231.907 137.034H230.178C229.391 138.624 227.675 139.717 225.689 139.717H225.353C223.134 139.717 221.341 138.029 221.341 135.941V132.044C223.908 132.201 227.172 130.089 227.172 130.089C228.243 133.986 231.3 133.938 232.719 133.683C233.3 133.962 233.713 134.545 233.713 135.2Z" fill="#A0505A"/>
<path d="M231.172 135.796C231.069 135.796 230.978 135.711 230.978 135.614C230.978 134.836 231.649 134.205 232.475 134.205C232.578 134.205 232.668 134.29 232.668 134.387C232.668 134.484 232.578 134.569 232.475 134.569C231.868 134.569 231.365 135.031 231.365 135.614C231.365 135.711 231.275 135.796 231.172 135.796Z" fill="#73325A"/>
<path d="M231.623 137.034H231.907C232.9 137.034 233.713 136.269 233.713 135.334V135.2C233.713 134.533 233.313 133.962 232.719 133.683C232.332 133.756 231.803 133.804 231.236 133.768C229.765 133.658 227.946 132.906 227.172 130.089C227.172 130.089 223.908 132.201 221.341 132.044C220.864 132.019 220.412 131.91 220.012 131.691C217.884 130.55 223.031 125.208 228.94 126.009C233.661 126.653 233.558 131.971 233.468 133.233C233.7 133.209 233.932 133.197 234.164 133.197C237.622 133.197 240.421 135.698 240.421 138.794C240.421 140.81 239.234 142.582 237.441 143.566C235.725 142.497 233.751 141.769 231.623 141.465V137.034Z" fill="#FFCF2D"/>
<path d="M223.947 135.929C223.921 135.929 223.895 135.929 223.882 135.917C223.779 135.88 223.728 135.771 223.766 135.686C223.766 135.674 224.153 134.69 223.508 133.634C222.954 132.724 221.728 132.881 221.676 132.894C221.573 132.906 221.47 132.845 221.457 132.736C221.444 132.639 221.509 132.541 221.625 132.529C221.689 132.517 223.16 132.323 223.857 133.452C224.592 134.654 224.153 135.771 224.141 135.808C224.089 135.88 224.024 135.929 223.947 135.929Z" fill="#73325A"/>
<path d="M228.347 133.622C228.309 133.622 228.27 133.609 228.231 133.585C227.109 132.772 225.612 132.869 225.599 132.869C225.496 132.881 225.406 132.796 225.393 132.699C225.38 132.602 225.47 132.517 225.574 132.505C225.638 132.505 227.225 132.396 228.463 133.294C228.554 133.355 228.567 133.464 228.502 133.549C228.451 133.597 228.399 133.622 228.347 133.622Z" fill="#73325A"/>
<path d="M223.276 136.342C223.276 136.342 223.586 138.26 225.689 136.391C225.689 136.391 224.218 136.573 223.276 136.342Z" fill="white"/>
<path d="M226.515 134.726C226.665 134.726 226.786 134.471 226.786 134.156C226.786 133.841 226.665 133.585 226.515 133.585C226.365 133.585 226.244 133.841 226.244 134.156C226.244 134.471 226.365 134.726 226.515 134.726Z" fill="#73325A"/>
<path d="M222.489 134.63C222.618 134.63 222.722 134.418 222.722 134.156C222.722 133.895 222.618 133.683 222.489 133.683C222.361 133.683 222.257 133.895 222.257 134.156C222.257 134.418 222.361 134.63 222.489 134.63Z" fill="#73325A"/>
<path d="M247.891 118.615H207.459C206.221 118.615 205.227 117.668 205.227 116.514V96.1401C205.227 94.9745 206.234 94.0396 207.459 94.0396H247.891C249.129 94.0396 250.123 94.9866 250.123 96.1401V116.514C250.123 117.668 249.116 118.615 247.891 118.615Z" fill="#66B0F0"/>
<path d="M239.66 118.614H214.981C217.471 115.494 221.277 113.502 225.547 113.502H229.095C233.365 113.502 237.171 115.494 239.66 118.614Z" fill="#FFCF2D"/>
<path d="M226.011 117.57H226.566C228.978 117.57 230.939 115.724 230.939 113.454V110.528C230.939 110.516 230.926 110.503 230.913 110.503H222.799C222.786 110.503 222.773 110.516 222.773 110.528V114.547C222.786 116.222 224.231 117.57 226.011 117.57Z" fill="white"/>
<path d="M222.786 110.503V114.449C222.786 114.498 222.786 114.559 222.786 114.607C222.902 116.866 228.875 115.979 230.668 110.503H222.786Z" fill="#FFCF2D"/>
<path d="M233.3 108.743C233.3 109.228 233.094 109.666 232.745 109.993C232.41 110.309 231.946 110.503 231.417 110.503H229.649C229.017 112.082 227.392 113.199 225.495 113.199H224.115C222.193 113.199 220.645 111.73 220.645 109.933V104.833C222.631 104.991 224.309 103.486 224.373 103.425C224.347 103.51 223.341 106.181 225.624 106.327C227.895 106.472 228.643 104.93 228.669 104.87C228.669 104.93 228.682 106.994 230.475 107.104H231.417C232.462 107.104 233.3 107.771 233.3 108.743Z" fill="white"/>
<path d="M230.642 107.104H230.604C230.565 107.104 230.526 107.104 230.488 107.104C228.694 106.994 228.682 104.942 228.682 104.87C228.656 104.93 227.895 106.472 225.637 106.327C223.367 106.181 224.36 103.51 224.386 103.425C224.321 103.473 222.644 104.991 220.657 104.833C220.219 104.797 219.78 104.687 219.329 104.457C216.426 102.975 218.297 99.9279 221.148 99.8915C223.418 99.8672 224.386 101.033 224.386 101.033C224.386 101.033 224.876 98.6409 227.662 99.0537C230.449 99.4666 229.946 101.786 229.946 101.786C229.946 101.786 232.281 100.766 233.571 102.648C235.093 104.857 232.81 107.104 230.642 107.104Z" fill="#FE5244"/>
<path d="M223.018 109.326C223.006 109.326 222.993 109.326 222.967 109.326C222.864 109.301 222.799 109.204 222.825 109.107C222.825 109.095 223.134 107.893 222.58 106.909C221.973 105.865 220.929 106.035 220.89 106.035C220.787 106.047 220.683 105.987 220.671 105.889C220.645 105.792 220.722 105.695 220.825 105.683C220.838 105.683 222.193 105.452 222.928 106.739C223.56 107.844 223.225 109.143 223.212 109.192C223.173 109.265 223.096 109.326 223.018 109.326Z" fill="#FFCF2D"/>
<path d="M223.702 110.734C223.431 110.734 223.186 110.697 223.005 110.649C222.902 110.625 222.838 110.527 222.863 110.43C222.889 110.333 222.992 110.273 223.096 110.297C223.16 110.309 224.631 110.673 225.173 109.605C225.224 109.52 225.327 109.472 225.431 109.52C225.534 109.569 225.572 109.666 225.521 109.763C225.147 110.527 224.36 110.734 223.702 110.734Z" fill="#FFCF2D"/>
<path d="M225.573 107.868C225.722 107.868 225.844 107.613 225.844 107.298C225.844 106.983 225.722 106.728 225.573 106.728C225.423 106.728 225.302 106.983 225.302 107.298C225.302 107.613 225.423 107.868 225.573 107.868Z" fill="#FFCF2D"/>
<path d="M221.56 107.771C221.689 107.771 221.793 107.559 221.793 107.298C221.793 107.037 221.689 106.825 221.56 106.825C221.432 106.825 221.328 107.037 221.328 107.298C221.328 107.559 221.432 107.771 221.56 107.771Z" fill="#FFCF2D"/>
<path d="M230.449 109.411C230.346 109.411 230.255 109.326 230.255 109.229C230.255 108.452 230.926 107.82 231.752 107.82C231.855 107.82 231.945 107.905 231.945 108.002C231.945 108.1 231.855 108.185 231.752 108.185C231.146 108.185 230.642 108.646 230.642 109.229C230.642 109.326 230.552 109.411 230.449 109.411Z" fill="#FFCF2D"/>
<path d="M196.881 118.615H156.449C155.211 118.615 154.218 117.668 154.218 116.515V96.1406C154.218 94.975 155.224 94.04 156.449 94.04H196.881C198.119 94.04 199.113 94.9871 199.113 96.1406V116.515C199.126 117.668 198.119 118.615 196.881 118.615Z" fill="#FFCF2D"/>
<path d="M187.115 118.615H162.035C164.564 115.057 168.434 112.787 172.769 112.787H176.381C180.716 112.787 184.573 115.057 187.115 118.615Z" fill="white"/>
<path d="M187.115 118.614H162.035C162.113 118.505 162.19 118.408 162.268 118.299C162.28 118.275 162.293 118.251 162.319 118.239H186.844C186.857 118.263 186.87 118.275 186.895 118.299C186.96 118.396 187.037 118.505 187.115 118.614Z" fill="#FEB040"/>
<path d="M186.057 117.291H163.093C163.209 117.157 163.325 117.036 163.442 116.915H185.709C185.825 117.036 185.941 117.157 186.057 117.291Z" fill="#FEB040"/>
<path d="M184.636 115.907H164.511C164.666 115.774 164.821 115.652 164.976 115.531H184.172C184.327 115.652 184.481 115.774 184.636 115.907Z" fill="#FEB040"/>
<path d="M182.47 114.389H166.667C166.899 114.256 167.144 114.134 167.389 114.013H181.734C181.992 114.134 182.224 114.256 182.47 114.389Z" fill="#FEB040"/>
<path d="M178.575 108.246V113.673C178.575 114.231 176.743 114.681 174.498 114.681C172.305 114.681 170.512 114.256 170.422 113.709C170.422 113.697 170.422 113.685 170.422 113.673V108.246H178.575Z" fill="#E57281"/>
<path d="M178.523 108.246V108.367C178.523 111.038 175.001 114.098 172.46 114.45C172.06 114.511 170.822 114.28 170.435 113.697C170.435 113.685 170.435 113.673 170.435 113.661V108.233H178.523V108.246Z" fill="#9A3B82"/>
<path d="M180.792 106.533V106.655C180.792 107.59 179.98 108.355 178.986 108.355H177.425C176.922 110.054 175.271 111.293 173.31 111.293H171.646C169.801 111.293 168.292 109.884 168.292 108.136V101.228C171.388 102.041 176.922 101.276 176.922 101.276C176.922 101.276 176.419 102.976 177.374 104.821H178.999C179.98 104.834 180.792 105.598 180.792 106.533Z" fill="#E57281"/>
<path d="M178.922 104.615H177.451C176.2 102.624 176.909 101.3 176.909 101.3C176.909 101.3 171.375 102.053 168.279 101.252C166.873 100.888 165.97 100.196 166.305 98.9693C167.376 95.0354 178.909 99.2243 179.709 100.645C180.521 102.065 178.922 104.615 178.922 104.615Z" fill="white" stroke="#FEB040" stroke-width="0.738102" stroke-miterlimit="10"/>
<path d="M173.194 108.342C173.156 108.378 173.117 108.39 173.065 108.39C173.014 108.39 172.962 108.366 172.923 108.33L172.743 108.148C172.188 108.609 171.659 108.839 171.169 108.839C171.117 108.839 171.066 108.839 171.027 108.827C170.485 108.779 170.214 108.439 170.201 108.427C170.137 108.342 170.15 108.233 170.24 108.172C170.33 108.111 170.447 108.123 170.511 108.208C170.524 108.221 170.705 108.439 171.079 108.475C171.491 108.512 171.969 108.305 172.485 107.881L172.382 107.772C172.304 107.699 172.317 107.577 172.395 107.517C172.472 107.444 172.601 107.456 172.665 107.529L173.207 108.087C173.285 108.16 173.272 108.269 173.194 108.342Z" fill="#9A3B82"/>
<path d="M175.154 104.724C175.103 104.724 175.051 104.711 175.012 104.675C173.877 103.631 172.432 103.838 172.419 103.838C172.316 103.85 172.213 103.789 172.2 103.692C172.187 103.595 172.252 103.498 172.355 103.486C172.419 103.474 174.006 103.231 175.283 104.42C175.361 104.493 175.361 104.602 175.283 104.675C175.258 104.711 175.206 104.724 175.154 104.724Z" fill="#9A3B82"/>
<path d="M170.756 107.274C170.743 107.274 170.717 107.274 170.704 107.262C170.601 107.237 170.549 107.128 170.575 107.031C170.575 107.019 170.975 105.78 170.33 104.724C169.775 103.814 168.524 104.093 168.511 104.105C168.408 104.129 168.305 104.068 168.279 103.971C168.253 103.874 168.318 103.777 168.421 103.753C168.95 103.631 170.111 103.631 170.665 104.554C171.401 105.756 170.975 107.092 170.949 107.152C170.911 107.225 170.846 107.274 170.756 107.274Z" fill="#9A3B82"/>
<path d="M169.311 105.853C169.44 105.853 169.544 105.641 169.544 105.38C169.544 105.119 169.44 104.907 169.311 104.907C169.183 104.907 169.079 105.119 169.079 105.38C169.079 105.641 169.183 105.853 169.311 105.853Z" fill="#9A3B82"/>
<path d="M173.323 105.95C173.473 105.95 173.594 105.695 173.594 105.38C173.594 105.065 173.473 104.81 173.323 104.81C173.173 104.81 173.052 105.065 173.052 105.38C173.052 105.695 173.173 105.95 173.323 105.95Z" fill="#9A3B82"/>
<path d="M177.981 107.152C177.877 107.152 177.787 107.067 177.787 106.97C177.787 106.181 178.471 105.538 179.309 105.538C179.413 105.538 179.503 105.623 179.503 105.72C179.503 105.817 179.413 105.902 179.309 105.902C178.677 105.902 178.174 106.375 178.174 106.97C178.174 107.067 178.097 107.152 177.981 107.152Z" fill="#9A3B82"/>
<path d="M192.11 214.949L178.879 241.413H138.9L154.966 214.949H192.11Z" fill="white" stroke="#3FB1B5" stroke-width="0.964957" stroke-miterlimit="10"/>
<path d="M183.344 221.405C183.344 221.405 181.604 218.517 177.427 219.262C174.304 219.808 170.606 222.311 168.333 220.966C166.059 219.622 164.046 217.944 161.101 218.743C158.157 219.542 155.979 221.073 155.979 221.073" stroke="#3FB1B5" stroke-width="0.964957" stroke-miterlimit="10"/>
<path d="M181.974 225.532C181.974 225.532 180.235 222.644 176.058 223.389C172.935 223.935 169.237 226.438 166.963 225.093C164.69 223.749 162.677 222.071 159.732 222.87C156.787 223.669 154.61 225.2 154.61 225.2" stroke="#3FB1B5" stroke-width="0.964957" stroke-miterlimit="10"/>
<path d="M207.148 333.715C207.148 337.269 196.999 340.145 184.289 340.145C171.579 340.145 161.732 337.269 161.732 333.715C161.732 330.161 171.579 327.286 184.289 327.286C196.999 327.286 207.148 330.174 207.148 333.715Z" fill="#FE5244"/>
<path d="M201.299 329.388V375.313L199.861 368.684C198.314 361.549 191.835 356.451 184.33 356.451C182.07 356.451 179.851 356.917 177.838 357.795C177.77 357.822 177.701 357.862 177.619 357.888L172.346 339.199L169.415 328.803C173.428 327.858 178.619 327.285 184.289 327.285C191.027 327.285 197.095 328.097 201.299 329.388Z" fill="#A0505A"/>
<path d="M201.299 329.388V338.041C197.095 339.332 191.027 340.144 184.289 340.144C179.92 340.144 175.838 339.798 172.346 339.212L169.415 328.816C173.428 327.871 178.619 327.299 184.289 327.299C191.027 327.285 197.095 328.097 201.299 329.388Z" fill="#73325A"/>
<path d="M200.288 373.968C200.658 374.074 204.137 375.019 207.218 375.019C208.889 375.019 210.437 374.74 211.313 373.888C212.066 373.156 212.245 372.091 211.847 370.747C211.491 369.549 210.806 368.803 209.807 368.537C207.972 368.058 205.424 369.389 203.411 370.786C206.547 367.086 209.642 362.387 208.492 359.312C208.081 358.221 207.15 357.489 205.986 357.356C205.013 357.249 204.109 357.582 203.685 358.207C201.713 361.123 200.097 373.089 200.028 373.595L200.288 373.968ZM204.26 358.58C204.507 358.221 205.027 358.008 205.63 358.008C205.725 358.008 205.821 358.008 205.917 358.021C206.355 358.074 207.41 358.314 207.862 359.539C208.163 360.351 208.273 361.841 207.054 364.344C205.903 366.713 203.822 369.495 200.863 372.65C201.302 369.615 202.699 360.883 204.26 358.58ZM210.834 373.422C209.93 374.301 207.876 374.567 204.876 374.194C203.301 373.994 201.836 373.675 201.055 373.475C201.644 372.969 202.74 372.051 204.013 371.199C206.451 369.562 208.396 368.856 209.642 369.189C210.396 369.389 210.902 369.961 211.204 370.933C211.532 372.051 211.409 372.863 210.834 373.422Z" fill="#FFCF2D"/>
<path d="M172.484 361.615L169.32 365.063C165.731 368.976 165.143 374.674 167.868 379.2L181.797 402.415C184.522 406.954 189.522 409.736 194.918 409.736H200.684C204.861 409.736 207.97 406.009 207.107 402.042L199.848 368.697C198.301 361.562 191.822 356.463 184.317 356.463C179.811 356.45 175.497 358.327 172.484 361.615Z" fill="white" stroke="#3FB1B5" stroke-width="0.964957" stroke-miterlimit="10"/>
<path d="M183.262 371.652L201.245 405.516C202.095 407.047 203.149 408.032 204.354 408.658C203.313 409.337 202.053 409.749 200.684 409.749H194.918C189.508 409.749 184.509 406.954 181.797 402.428L167.868 379.199C167.307 378.254 166.882 377.269 166.594 376.244C164.622 369.123 172.963 363.532 179.222 367.711C180.647 368.657 182.043 369.935 183.262 371.652Z" fill="#3FB1B5"/>
<path d="M183.303 371.732H166.704C166.786 371.479 166.882 371.24 166.991 371.014H182.769C182.933 371.227 183.097 371.439 183.262 371.666L183.303 371.732Z" fill="white"/>
<path d="M185.741 376.311H166.622C166.622 376.285 166.608 376.258 166.608 376.245C166.554 376.032 166.499 375.806 166.458 375.593H185.371L185.741 376.311Z" fill="white"/>
<path d="M188.179 380.903H168.895L168.457 380.171H187.795L188.179 380.903Z" fill="white"/>
<path d="M190.616 385.496H171.647L171.209 384.764H190.232L190.616 385.496Z" fill="white"/>
<path d="M193.056 390.075H174.402L173.964 389.356H192.672L193.056 390.075Z" fill="white"/>
<path d="M195.492 394.668H177.154L176.716 393.936H195.095L195.492 394.668Z" fill="white"/>
<path d="M197.931 399.26H179.907L179.469 398.528H197.534L197.931 399.26Z" fill="white"/>
<path d="M200.354 403.84H182.768C182.59 403.601 182.412 403.361 182.248 403.122H199.97L200.354 403.84Z" fill="white"/>
<path d="M203.957 408.432H188.673C188.18 408.219 187.701 407.98 187.235 407.714H202.971C203.286 407.98 203.615 408.219 203.957 408.432Z" fill="white"/>
<path d="M151.049 332.769C150.926 336.284 140.667 339.132 128.039 339.132C115.412 339.132 105.153 336.297 105.03 332.769V305.095H151.049V332.769Z" fill="#73325A"/>
<path d="M147.995 337.362L147.926 340.65L147.269 372.744V371.812C147.269 363.572 140.394 356.89 131.916 356.89H130.984C126.656 356.89 122.753 358.527 119.863 361.163L117.85 347.931L116.604 339.745C119.973 340.29 123.876 340.597 128.026 340.597C136.572 340.583 144.009 339.279 147.995 337.362Z" fill="#A0505A"/>
<path d="M147.995 337.362L147.927 340.65C142.832 344.164 127.095 348.49 117.864 347.918L116.617 339.731C119.987 340.264 123.89 340.583 128.04 340.583C136.573 340.583 144.01 339.279 147.995 337.362Z" fill="#73325A"/>
<path d="M132.614 410.176H135.161C141.845 410.176 147.269 404.905 147.269 398.409V371.812C147.269 363.573 140.393 356.89 131.915 356.89H130.984C121.123 356.89 113.522 365.343 114.85 374.847L118.069 397.85C119.068 404.905 125.273 410.176 132.614 410.176Z" fill="white" stroke="#3FB1B5" stroke-width="0.964957" stroke-miterlimit="10"/>
<path d="M143.461 406.968C141.297 408.951 138.366 410.176 135.161 410.176H132.614C125.273 410.176 119.068 404.905 118.082 397.849L114.864 374.847C114.809 374.408 114.754 373.969 114.74 373.543C115.562 368.444 120.096 364.544 125.574 364.544C128.272 364.544 130.765 365.502 132.696 367.1C134.627 368.697 135.983 370.947 136.408 373.543L140.64 401.617C140.955 403.707 141.968 405.57 143.461 406.968Z" fill="#3FB1B5"/>
<path d="M135.132 369.987H115.999C116.136 369.735 116.3 369.495 116.465 369.269H134.68C134.844 369.495 134.995 369.735 135.132 369.987Z" fill="white"/>
<path d="M136.556 374.567H114.821C114.793 374.327 114.766 374.088 114.752 373.848H136.447L136.556 374.567Z" fill="white"/>
<path d="M137.256 379.159H115.466L115.356 378.441H137.146L137.256 379.159Z" fill="white"/>
<path d="M137.94 383.752H116.109L115.999 383.02H137.831L137.94 383.752Z" fill="white"/>
<path d="M138.639 388.331H116.753L116.644 387.612H138.53L138.639 388.331Z" fill="white"/>
<path d="M139.324 392.924H117.383L117.287 392.205H139.214L139.324 392.924Z" fill="white"/>
<path d="M140.022 397.516H118.026L117.93 396.784H139.913L140.022 397.516Z" fill="white"/>
<path d="M140.721 402.095H119.383C119.259 401.856 119.15 401.616 119.054 401.377H140.598L140.639 401.616C140.666 401.776 140.694 401.936 140.721 402.095Z" fill="white"/>
<path d="M143.173 406.688H122.999C122.725 406.461 122.451 406.209 122.204 405.969H142.543C142.735 406.222 142.954 406.461 143.173 406.688Z" fill="white"/>
<path d="M161.006 188.926V211.343C160.006 208.8 152.09 209.159 143.379 212.368C135.915 215.123 130.313 218.904 129.491 221.526V189.978C129.491 180.593 134.655 172.207 142.585 167.627C152.884 169.371 161.006 178.09 161.006 188.926Z" fill="#FFCF2D"/>
<path d="M128.89 168.639C121.877 173.378 117.412 181.245 117.412 189.977V216.001H78.4197L83.8022 193.478C86.0895 183.88 93.2388 176.226 102.552 172.965L128.89 168.639Z" fill="#FFCF2D"/>
<path d="M207.751 280.03V332.278C207.751 328.723 196.999 325.848 184.289 325.848C171.579 325.848 161.28 328.723 161.28 332.278V307.239C161.28 306.067 160.294 305.109 159.089 305.109H89.1838C68.1604 305.109 52.6153 286.087 57.3678 266.186L74.2414 195.528C76.9258 184.253 86.3213 175.667 98.0589 173.724L102.551 172.978C93.2379 176.24 86.0885 183.894 83.8013 193.491L78.4187 216.014H117.411V189.977C117.411 181.245 121.89 173.364 128.889 168.639L135.052 167.627C136.326 167.414 137.572 167.321 138.818 167.321C138.983 167.321 139.133 167.321 139.298 167.321C139.448 167.321 139.599 167.334 139.736 167.334C139.763 167.334 139.791 167.334 139.818 167.334C139.928 167.334 140.051 167.347 140.161 167.347C140.174 167.347 140.202 167.347 140.215 167.347C140.284 167.347 140.352 167.361 140.407 167.361C140.53 167.374 140.64 167.374 140.763 167.387C140.9 167.401 141.051 167.414 141.188 167.427C141.325 167.441 141.448 167.454 141.585 167.467C141.612 167.467 141.64 167.481 141.681 167.481C141.818 167.494 141.968 167.52 142.105 167.534C142.119 167.534 142.133 167.534 142.133 167.534C142.283 167.56 142.434 167.574 142.585 167.6C134.655 172.18 129.491 180.566 129.491 189.95V253.912H180.906C195.726 253.939 207.751 265.613 207.751 280.03Z" fill="#FE5244"/>
<path d="M129.779 168.053C122.767 172.792 117.398 181.244 117.398 189.977V216.001H78.405L83.7876 193.478C86.0748 183.88 92.6215 176.08 101.949 172.818" stroke="white" stroke-width="1.15795" stroke-miterlimit="10" stroke-linecap="round"/>
<path d="M161.28 299.211C161.28 291.797 163.978 284.622 168.895 278.964" stroke="white" stroke-width="1.15795" stroke-miterlimit="10" stroke-linecap="round"/>
<path d="M104.317 296.563C104.249 296.563 104.18 296.549 104.126 296.509L102.318 295.551C102.112 295.444 102.044 295.205 102.153 295.005C102.263 294.806 102.51 294.739 102.715 294.845L104.523 295.804C104.728 295.91 104.797 296.15 104.687 296.35C104.605 296.483 104.468 296.563 104.317 296.563ZM106.125 296.11C105.975 296.11 105.838 296.03 105.769 295.897C105.66 295.697 105.728 295.458 105.934 295.351L107.741 294.393C107.947 294.286 108.193 294.366 108.303 294.553C108.413 294.752 108.344 294.992 108.139 295.098L106.331 296.057C106.262 296.083 106.194 296.11 106.125 296.11ZM100.702 294.659C100.633 294.659 100.565 294.646 100.51 294.606L98.702 293.647C98.4966 293.541 98.4281 293.301 98.5377 293.102C98.6472 292.902 98.8938 292.835 99.0992 292.942L100.907 293.9C101.113 294.007 101.181 294.246 101.071 294.446C100.989 294.579 100.852 294.659 100.702 294.659ZM109.727 294.193C109.577 294.193 109.44 294.113 109.371 293.98C109.262 293.781 109.33 293.541 109.536 293.434L111.344 292.476C111.659 292.316 111.946 292.13 112.234 291.93C112.412 291.797 112.672 291.837 112.809 292.01C112.946 292.183 112.905 292.436 112.727 292.569C112.412 292.795 112.083 292.995 111.741 293.182L109.933 294.14C109.864 294.18 109.796 294.193 109.727 294.193ZM97.127 292.689C97.0448 292.689 96.9626 292.662 96.8804 292.609C96.3052 292.196 95.7711 291.717 95.3191 291.171C95.1684 290.998 95.1958 290.746 95.3739 290.612C95.5519 290.466 95.8122 290.493 95.9491 290.666C96.36 291.158 96.8393 291.584 97.3598 291.957C97.5378 292.09 97.5789 292.343 97.4557 292.516C97.3872 292.636 97.2639 292.689 97.127 292.689ZM113.959 291.291C113.864 291.291 113.781 291.265 113.699 291.198C113.521 291.065 113.494 290.812 113.644 290.639C114.055 290.146 114.398 289.614 114.672 289.028C114.768 288.829 115.014 288.735 115.219 288.829C115.425 288.922 115.521 289.161 115.425 289.361C115.124 290 114.74 290.599 114.288 291.132C114.192 291.238 114.083 291.291 113.959 291.291ZM94.5521 289.641C94.4014 289.641 94.2508 289.561 94.1823 289.414C93.881 288.775 93.6619 288.11 93.5249 287.418C93.4838 287.205 93.6345 286.992 93.8536 286.952C94.0727 286.912 94.2919 287.058 94.333 287.271C94.4562 287.897 94.648 288.496 94.9219 289.068C95.0178 289.268 94.9219 289.508 94.7165 289.601C94.6617 289.627 94.6069 289.641 94.5521 289.641ZM115.658 287.697C115.63 287.697 115.603 287.697 115.589 287.697C115.37 287.657 115.219 287.444 115.261 287.231C115.343 286.792 115.384 286.353 115.384 285.913V285.314C115.384 285.088 115.562 284.915 115.795 284.915C116.028 284.915 116.206 285.088 116.206 285.314V285.913C116.206 286.406 116.165 286.898 116.069 287.378C116.028 287.564 115.85 287.697 115.658 287.697ZM93.7988 285.754C93.566 285.754 93.3879 285.581 93.3879 285.354V283.358C93.3879 283.131 93.566 282.958 93.7988 282.958C94.0317 282.958 94.2097 283.131 94.2097 283.358V285.354C94.2097 285.567 94.018 285.754 93.7988 285.754ZM115.781 283.717C115.548 283.717 115.37 283.544 115.37 283.318V281.321C115.37 281.095 115.548 280.922 115.781 280.922C116.014 280.922 116.192 281.095 116.192 281.321V283.318C116.192 283.544 116.014 283.717 115.781 283.717ZM93.7988 281.76C93.566 281.76 93.3879 281.587 93.3879 281.361V279.364C93.3879 279.138 93.566 278.965 93.7988 278.965C94.0317 278.965 94.2097 279.138 94.2097 279.364V281.361C94.2097 281.574 94.018 281.76 93.7988 281.76ZM115.781 279.724C115.548 279.724 115.37 279.55 115.37 279.324V277.327C115.37 277.101 115.548 276.928 115.781 276.928C116.014 276.928 116.192 277.101 116.192 277.327V279.324C116.192 279.55 116.014 279.724 115.781 279.724ZM93.7988 277.767C93.566 277.767 93.3879 277.594 93.3879 277.367V275.371C93.3879 275.144 93.566 274.971 93.7988 274.971C94.0317 274.971 94.2097 275.144 94.2097 275.371V277.367C94.2097 277.58 94.018 277.767 93.7988 277.767ZM115.781 275.73C115.548 275.73 115.37 275.557 115.37 275.331V273.334C115.37 273.108 115.548 272.935 115.781 272.935C116.014 272.935 116.192 273.108 116.192 273.334V275.331C116.192 275.557 116.014 275.73 115.781 275.73ZM93.7988 273.773C93.566 273.773 93.3879 273.6 93.3879 273.374V271.657H94.4973C94.7302 271.657 94.9082 271.83 94.9082 272.056C94.9082 272.282 94.7302 272.455 94.4973 272.455H94.2097V273.374C94.2097 273.587 94.018 273.773 93.7988 273.773ZM115.041 272.455H112.987C112.754 272.455 112.576 272.282 112.576 272.056C112.576 271.83 112.754 271.657 112.987 271.657H115.041C115.274 271.657 115.452 271.83 115.452 272.056C115.452 272.282 115.274 272.455 115.041 272.455ZM110.933 272.455H108.878C108.645 272.455 108.467 272.282 108.467 272.056C108.467 271.83 108.645 271.657 108.878 271.657H110.933C111.165 271.657 111.344 271.83 111.344 272.056C111.344 272.282 111.165 272.455 110.933 272.455ZM106.824 272.455H104.769C104.537 272.455 104.359 272.282 104.359 272.056C104.359 271.83 104.537 271.657 104.769 271.657H106.824C107.057 271.657 107.235 271.83 107.235 272.056C107.235 272.282 107.057 272.455 106.824 272.455ZM102.715 272.455H100.661C100.428 272.455 100.25 272.282 100.25 272.056C100.25 271.83 100.428 271.657 100.661 271.657H102.715C102.948 271.657 103.126 271.83 103.126 272.056C103.126 272.282 102.948 272.455 102.715 272.455ZM98.6062 272.455H96.5517C96.3189 272.455 96.1409 272.282 96.1409 272.056C96.1409 271.83 96.3189 271.657 96.5517 271.657H98.6062C98.839 271.657 99.017 271.83 99.017 272.056C99.017 272.282 98.839 272.455 98.6062 272.455Z" fill="white"/>
<path d="M65.5583 294.353C65.4076 294.353 65.2707 294.273 65.2022 294.14C65.0926 293.94 65.1611 293.701 65.3665 293.594L67.0374 292.702C67.0785 292.676 67.1196 292.662 67.1607 292.636C67.3524 292.529 67.6127 292.596 67.7223 292.782C67.8318 292.969 67.7633 293.221 67.5716 293.328C67.5305 293.355 67.4894 293.381 67.4346 293.395L65.7637 294.286C65.6952 294.34 65.6267 294.353 65.5583 294.353ZM69.0234 292.223C68.9138 292.223 68.8042 292.183 68.7221 292.09C68.5714 291.93 68.5851 291.677 68.7495 291.531C69.2288 291.105 69.6534 290.612 70.0232 290.093C70.1464 289.907 70.4067 289.867 70.5984 289.987C70.7902 290.107 70.8313 290.359 70.708 290.546C70.3108 291.118 69.8314 291.651 69.311 292.13C69.2151 292.196 69.1193 292.223 69.0234 292.223ZM71.3106 288.948C71.2558 288.948 71.2147 288.935 71.16 288.922C70.9545 288.842 70.8449 288.616 70.9271 288.403C71.16 287.804 71.3243 287.191 71.4202 286.566C71.4476 286.353 71.653 286.193 71.8858 286.22C72.105 286.246 72.2693 286.446 72.242 286.672C72.1461 287.364 71.968 288.043 71.7078 288.696C71.6256 288.855 71.475 288.948 71.3106 288.948ZM71.8996 285.035C71.6667 285.035 71.4887 284.862 71.4887 284.636V282.639C71.4887 282.412 71.6667 282.239 71.8996 282.239C72.1324 282.239 72.3104 282.412 72.3104 282.639V284.636C72.3104 284.848 72.1324 285.035 71.8996 285.035ZM71.8996 281.041C71.6667 281.041 71.4887 280.868 71.4887 280.642V278.645C71.4887 278.419 71.6667 278.246 71.8996 278.246C72.1324 278.246 72.3104 278.419 72.3104 278.645V280.642C72.3104 280.855 72.1324 281.041 71.8996 281.041ZM71.8996 277.048C71.6667 277.048 71.4887 276.875 71.4887 276.649V274.652C71.4887 274.426 71.6667 274.252 71.8996 274.252C72.1324 274.252 72.3104 274.426 72.3104 274.652V276.649C72.3104 276.862 72.1324 277.048 71.8996 277.048ZM71.8996 273.054C71.6667 273.054 71.4887 272.881 71.4887 272.655V272.455H70.4615C70.2286 272.455 70.0506 272.282 70.0506 272.056C70.0506 271.83 70.2286 271.657 70.4615 271.657H72.3104V272.655C72.3104 272.868 72.1324 273.054 71.8996 273.054ZM68.4071 272.455H66.3526C66.1198 272.455 65.9418 272.282 65.9418 272.056C65.9418 271.83 66.1198 271.657 66.3526 271.657H68.4071C68.6399 271.657 68.8179 271.83 68.8179 272.056C68.8179 272.282 68.6262 272.455 68.4071 272.455ZM64.2982 272.455H62.2438C62.011 272.455 61.8329 272.282 61.8329 272.056C61.8329 271.83 62.011 271.657 62.2438 271.657H64.2982C64.5311 271.657 64.7091 271.83 64.7091 272.056C64.7091 272.282 64.5174 272.455 64.2982 272.455ZM60.1894 272.455H58.135C57.9022 272.455 57.7241 272.282 57.7241 272.056C57.7241 271.83 57.9022 271.657 58.135 271.657H60.1894C60.4222 271.657 60.6003 271.83 60.6003 272.056C60.6003 272.282 60.4086 272.455 60.1894 272.455Z" fill="white"/>
<path d="M161.006 211.341C162.006 213.884 155.678 218.396 146.981 221.605C138.284 224.813 130.491 225.305 129.492 222.749C128.492 220.193 134.669 215.588 143.379 212.38C152.09 209.172 160.006 208.785 161.006 211.341Z" fill="#FE5244"/>
<path d="M165.867 293.926V295.337C165.415 295.231 164.936 295.177 164.457 295.177H162.69C160.074 295.177 157.842 293.553 156.992 291.291L162.005 290.638C164.046 290.372 165.867 291.916 165.867 293.926Z" fill="#73325A"/>
<path d="M170.497 301.048V311.884C170.497 314.413 168.388 316.463 165.786 316.463H160.54C159.239 316.463 158.061 315.957 157.212 315.119C156.363 314.293 155.829 313.148 155.829 311.884H159.239C160.362 311.884 161.266 311.005 161.266 309.914V307.078C161.266 305.987 160.362 305.108 159.239 305.108H141.804C134.997 305.108 129.478 299.744 129.478 293.128V221.538C130.299 218.916 135.901 215.122 143.365 212.38C148.46 210.503 153.295 209.598 156.623 209.678V289.307C156.623 292.555 159.335 295.191 162.677 295.191H164.444C167.785 295.178 170.497 297.8 170.497 301.048Z" fill="#A0505A"/>
<path d="M156.623 209.665V216.906C154.144 218.53 150.789 220.194 146.967 221.592C138.257 224.8 130.477 225.292 129.478 222.736V221.525C130.299 218.903 135.901 215.109 143.365 212.367C148.474 210.49 153.295 209.585 156.623 209.665Z" fill="#73325A"/>
<path d="M133.847 155.739L128.697 168.638L102.154 173.257L109.084 155.739H133.847Z" fill="#A0505A"/>
<path d="M133.846 155.739L131.066 162.715L104.742 166.708L109.084 155.739H133.846Z" fill="#73325A"/>
<path d="M149.405 129.489C149.405 131.233 146.296 133.163 142.708 134.787C137.818 137.01 132.052 138.701 132.052 138.701L128.163 145.822C133.449 148.551 135.518 153.45 136.339 156.871C136.86 159.054 136.86 160.612 136.86 160.612H99.579C99.579 160.612 89.7863 129.782 113.385 122.407C127.82 117.895 149.405 125.349 149.405 129.489Z" fill="white" stroke="#FFCF2D" stroke-width="1.15795" stroke-miterlimit="10" stroke-linecap="round"/>
<path d="M109.933 126.8C115.054 126.8 119.205 122.765 119.205 117.788C119.205 112.811 115.054 108.776 109.933 108.776C104.813 108.776 100.661 112.811 100.661 117.788C100.661 122.765 104.813 126.8 109.933 126.8Z" fill="white" stroke="#FFCF2D" stroke-width="1.15795" stroke-miterlimit="10" stroke-linecap="round"/>
<path d="M136.324 156.871C135.557 153.636 133.64 149.03 128.915 146.248H127.696C126.573 146.248 125.546 145.809 124.806 145.09C124.066 144.371 123.615 143.373 123.615 142.281C123.615 140.085 125.436 138.314 127.696 138.314L132.859 138.421H132.996C133.092 138.394 133.188 138.354 133.298 138.328C134.695 138.035 139.118 136.997 142.789 135.213L143.214 137.676L144.583 145.569C145.515 150.987 141.693 155.979 136.324 156.871Z" fill="#A0505A"/>
<path d="M143.2 137.662C138.708 139.433 132.846 138.408 132.846 138.408C132.846 138.408 138.366 137.343 142.775 135.2L143.2 137.662Z" fill="#73325A"/>
<path d="M130.873 143.04C130.873 141.522 129.613 140.298 128.052 140.298" stroke="#73325A" stroke-width="0.964957" stroke-miterlimit="10" stroke-linecap="round"/>
<path d="M145.378 311.883L161.279 440.5" stroke="#66B0F0" stroke-width="1.15795" stroke-miterlimit="10"/>
<path d="M76.446 311.883L60.5586 440.5" stroke="#66B0F0" stroke-width="1.15795" stroke-miterlimit="10"/>
<path d="M66.0098 396.332H155.815" stroke="#66B0F0" stroke-width="1.15795" stroke-miterlimit="10"/>
<path d="M62.6265 311.884H159.197C160.348 311.884 161.279 310.978 161.279 309.86V307.118C161.279 306 160.348 305.095 159.197 305.095H62.6265C61.476 305.095 60.5447 306 60.5447 307.118V309.86C60.5584 310.978 61.4897 311.884 62.6265 311.884Z" fill="white" stroke="#FFCF2D" stroke-width="1.15795" stroke-miterlimit="10"/>
<path d="M82.2686 315.633V322.323C82.2686 325.553 79.5701 328.176 76.2471 328.176H60.8062" stroke="#66B0F0" stroke-width="1.10715" stroke-miterlimit="10"/>
<path d="M88.0269 315.706V377.083" stroke="#66B0F0" stroke-width="1.10715" stroke-miterlimit="10"/>
<path d="M60.0686 396.766C60.0686 385.899 71.1746 377.083 84.8665 377.083H91.0879C104.78 377.083 115.886 385.899 115.886 396.766" stroke="#66B0F0" stroke-width="1.10715" stroke-miterlimit="10"/>
<path d="M148.104 316.641H57.4069C52.8596 316.641 49.1868 313.059 49.1868 308.651H150.252L148.104 316.641Z" fill="#FFCF2D"/>
<path d="M59.5181 409.781C63.2161 409.781 66.214 406.868 66.214 403.273C66.214 399.679 63.2161 396.766 59.5181 396.766C55.8201 396.766 52.8223 399.679 52.8223 403.273C52.8223 406.868 55.8201 409.781 59.5181 409.781Z" fill="#FFCF2D"/>
<path d="M56.1081 329.839H69.5497C70.6491 329.839 71.536 328.977 71.536 327.909V327.763C71.536 326.695 70.6491 325.833 69.5497 325.833H56.1081C55.0088 325.833 54.1218 326.695 54.1218 327.763V327.909C54.1218 328.977 55.0088 329.839 56.1081 329.839Z" fill="#FFCF2D"/>
<path d="M49.1873 308.894H113.537L92.0121 250.273C90.513 246.206 86.5528 243.486 82.1054 243.486H34.7957C30.0985 243.486 26.8254 248.003 28.3995 252.301L49.1873 308.894Z" stroke="#FFCF2D" stroke-width="1.10715" stroke-miterlimit="10"/>
<path d="M52.373 308.894H108.315L87.5148 252.216C86.0657 248.282 82.2429 245.659 77.9455 245.659H30.0486" stroke="#FFCF2D" stroke-width="1.10715" stroke-miterlimit="10"/>
<path d="M115.773 409.781C119.471 409.781 122.469 406.868 122.469 403.273C122.469 399.679 119.471 396.766 115.773 396.766C112.075 396.766 109.077 399.679 109.077 403.273C109.077 406.868 112.075 409.781 115.773 409.781Z" fill="#FFCF2D"/>
</g>
<defs>
<clipPath id="clip0_1955_54309">
<rect width="395" height="440" fill="white" transform="translate(0 0.5)"/>
</clipPath>
</defs>
</svg>
