<svg width="659" height="816" viewBox="0 0 659 816" fill="none" xmlns="http://www.w3.org/2000/svg">
<path d="M659 808.087H0L269.297 168.76H389.703L659 808.087Z" fill="#D0F0E4"/>
<path d="M318.081 120.657L329.5 109.24L340.919 120.657" stroke="#FFCF2D" stroke-width="1.554" stroke-miterlimit="10"/>
<path d="M329.5 109.24L329.5 0.379639" stroke="#FFCF2D" stroke-width="1.554" stroke-miterlimit="10"/>
<path d="M329.5 188.696C339.654 188.696 347.885 180.466 347.885 170.314C347.885 160.162 339.654 151.932 329.5 151.932C319.347 151.932 311.115 160.162 311.115 170.314C311.115 180.466 319.347 188.696 329.5 188.696Z" fill="#FFCF2D" stroke="white" stroke-width="1.554" stroke-miterlimit="10"/>
<path d="M389.703 168.761H269.323L270.928 161.434C276.21 137.304 300.835 119.803 329.526 119.803C343.871 119.803 357.206 124.178 367.59 131.557C377.999 138.935 385.457 149.343 388.098 161.408L389.703 168.761Z" stroke="#9A3B82" stroke-width="1.554" stroke-miterlimit="10" stroke-linecap="round"/>
<path d="M259.793 781.55V809.719C259.793 812.644 262.15 815 265.076 815H335.507C335.507 815 335.921 801.926 325.201 798.275C306.998 792.087 298.505 781.55 298.505 781.55H259.793Z" fill="white" stroke="#FE5244" stroke-width="1.554" stroke-miterlimit="10"/>
<path d="M298.971 795.971C301.845 795.168 312.203 789.447 308.655 785.9C306.972 784.217 302.932 785.9 302.932 785.9" stroke="#FE5244" stroke-width="1.554" stroke-miterlimit="10"/>
<path d="M309.587 799.854C312.461 799.052 322.405 792.657 318.495 789.524C315.543 787.142 311.115 791.751 311.115 791.751" stroke="#FE5244" stroke-width="1.554" stroke-miterlimit="10"/>
<path d="M300.68 783.829L259.793 796.541V781.55H298.531C298.531 781.55 299.23 782.431 300.68 783.829Z" fill="#FE5244"/>
<path d="M348.091 781.55V809.719C348.091 812.644 350.448 815 353.374 815H423.805C423.805 815 424.219 801.926 413.499 798.275C395.296 792.087 386.803 781.55 386.803 781.55H348.091Z" fill="white" stroke="#FE5244" stroke-width="1.554" stroke-miterlimit="10"/>
<path d="M387.269 795.971C390.143 795.168 400.501 789.447 396.953 785.9C395.27 784.217 391.231 785.9 391.231 785.9" stroke="#FE5244" stroke-width="1.554" stroke-miterlimit="10"/>
<path d="M397.885 799.855C400.759 799.052 410.703 792.657 406.793 789.525C403.841 787.143 399.413 791.751 399.413 791.751" stroke="#FE5244" stroke-width="1.554" stroke-miterlimit="10"/>
<path d="M388.978 783.829L348.091 796.541V781.55H386.829C386.829 781.55 387.528 782.431 388.978 783.829Z" fill="#FE5244"/>
<path d="M278.825 501.162L253.32 768.139H306.661L333.461 638.767L344.415 666.34V768.139H399.957V653.991L370.334 501.162H278.825Z" fill="#3FB1B5"/>
<path d="M306.609 565.292L281.803 768.139" stroke="#9A3B82" stroke-width="1.554" stroke-miterlimit="10"/>
<path d="M371.215 768.139V653.991L336.413 514.107" stroke="#9A3B82" stroke-width="1.554" stroke-miterlimit="10"/>
<path d="M343.638 666.34L310.39 569.797C309.25 566.483 306.117 564.256 302.596 564.256" stroke="white" stroke-width="1.554" stroke-miterlimit="10"/>
<path d="M274.604 545.305L278.825 501.162H370.334L372.949 514.729L274.604 545.305Z" fill="#9A3B82"/>
<path d="M400.06 781.55H344.207C342.11 781.55 340.401 779.842 340.401 777.745V771.945C340.401 769.848 342.11 768.139 344.207 768.139H400.06C402.158 768.139 403.867 769.848 403.867 771.945V777.745C403.841 779.842 402.158 781.55 400.06 781.55Z" fill="#9A3B82"/>
<path d="M307.619 781.55H251.766C249.669 781.55 247.96 779.842 247.96 777.745V771.945C247.96 769.848 249.669 768.139 251.766 768.139H307.619C309.717 768.139 311.426 769.848 311.426 771.945V777.745C311.4 779.842 309.717 781.55 307.619 781.55Z" fill="#9A3B82"/>
<path d="M456.69 508.981L474.195 574.457L386.932 597.784L369.402 532.256C368.858 530.211 367.538 528.606 365.855 527.622C364.172 526.638 362.1 526.301 360.054 526.845C355.989 527.932 353.555 532.127 354.643 536.191L372.173 601.719L370.257 602.237L352.752 536.761C351.354 531.557 354.358 526.224 359.485 524.67C359.588 524.644 359.692 524.619 359.795 524.593L444.52 501.939C449.829 500.541 455.266 503.7 456.69 508.981Z" fill="#66B0F0"/>
<path d="M371.344 531.816L388.848 597.292L386.932 597.81L369.402 532.282C368.858 530.237 367.538 528.632 365.855 527.648C364.172 526.664 362.1 526.327 360.054 526.871C355.989 527.958 353.555 532.153 354.643 536.217L372.173 601.745L370.257 602.263L352.752 536.787C351.354 531.583 354.358 526.25 359.485 524.696C364.689 523.479 369.946 526.612 371.344 531.816Z" fill="#9A3B82"/>
<path d="M369.403 532.256L385.845 593.771L371.086 597.706L354.643 536.191C353.556 532.127 355.964 527.932 360.055 526.845C362.101 526.301 364.172 526.638 365.855 527.622C367.538 528.606 368.859 530.211 369.403 532.256Z" fill="white"/>
<path d="M456.949 543.673L417.254 557.343L385.922 501.162H264.48C243.843 501.162 228.41 482.185 232.63 461.991L245.267 401.305C249.229 382.301 265.982 368.683 285.376 368.683H368.418C388.538 368.683 405.68 383.285 408.864 403.143L421.371 462.224L456.949 543.673Z" fill="#FFCF2D" stroke="white" stroke-width="1.554" stroke-miterlimit="10"/>
<path d="M258.007 500.515C243.713 497.641 233.097 485.473 232.009 471.13C233.097 470.379 234.314 469.732 235.608 469.266C245.008 465.797 255.754 471.492 259.664 481.978C262.072 488.554 261.243 495.441 258.007 500.515Z" fill="white"/>
<path d="M348.428 332.282V368.709H308.215L317.485 344.476L348.428 332.282Z" fill="#E58E72"/>
<path d="M357.672 316.955C357.646 316.955 357.594 316.981 357.569 316.981L345.631 320.14C341.359 321.279 338.07 324.438 336.672 328.425H332.089C329.189 328.425 326.833 330.781 326.833 333.68V333.758C326.833 336.502 328.93 338.755 331.623 338.988C331.597 339.014 331.597 339.014 331.597 339.014C331.597 339.014 329.474 349.111 317.071 345.719C317.071 345.719 317.563 319.156 318.08 310.897C318.521 304.088 354.643 291.195 357.983 296.684C360.935 301.551 357.517 303.829 354.617 304.839C359.744 303.751 369.428 302.302 370.412 306.625C371.551 311.648 361.323 315.997 357.672 316.955Z" fill="#9A3B82"/>
<path d="M360.003 335.57H358.734L359.096 341.784C359.355 346.237 355.782 350.017 351.328 350.017H345.735C340.349 350.017 335.973 345.641 335.973 340.256V339.039H332.115C329.215 339.039 326.858 336.683 326.858 333.784V333.706C326.858 330.806 329.215 328.45 332.115 328.45H336.698C338.096 324.463 341.385 321.279 345.657 320.166L357.595 317.007L361.686 333.395C362.1 334.431 361.116 335.57 360.003 335.57Z" fill="#E58E72"/>
<path d="M337.19 340.748C336.646 346.444 342.343 350.509 347.729 350.509" stroke="#9A3B82" stroke-width="1.295" stroke-miterlimit="10" stroke-linecap="round"/>
<path d="M335.094 334.664C335.094 332.644 333.462 331.013 331.442 331.013" stroke="#9A3B82" stroke-width="1.295" stroke-miterlimit="10" stroke-linecap="round"/>
<path d="M355.601 330.962C356.13 330.962 356.559 330.069 356.559 328.968C356.559 327.867 356.13 326.975 355.601 326.975C355.072 326.975 354.643 327.867 354.643 328.968C354.643 330.069 355.072 330.962 355.601 330.962Z" fill="#9A3B82"/>
<path d="M351.458 324.775C351.458 324.775 354.643 322.34 359.2 322.34" stroke="#9A3B82" stroke-width="1.295" stroke-miterlimit="10" stroke-linecap="round"/>
<path d="M339.132 517.758C339.132 517.758 370.852 519.13 382.013 493.68L376.109 482.884L358.475 489.667L339.132 517.758Z" fill="white" stroke="#FE5244" stroke-width="1.554" stroke-miterlimit="10"/>
<path d="M364.534 362.031C363.006 362.16 361.608 362.834 360.572 363.869C359.433 365.008 358.708 366.588 358.708 368.348V495.908C358.708 508.076 348.843 517.94 336.672 517.94H287.759C274.605 517.94 264.454 506.523 265.853 493.552V493.526L283.46 372.439C284.341 366.458 289.442 362.031 295.501 362.031H364.534Z" fill="#FE5244" stroke="#FE5244" stroke-width="1.554" stroke-miterlimit="10"/>
<path d="M359.616 362.03C358.088 362.159 356.69 362.832 355.654 363.868C354.696 364.826 354.049 366.069 353.868 367.467C353.842 367.751 353.816 368.036 353.816 368.321L352.78 378.082L340.351 495.881C340.351 508.049 330.485 517.913 318.315 517.913H287.786C274.632 517.913 264.482 506.496 265.88 493.525V493.499L273.83 438.768L283.488 372.412C283.566 371.842 283.695 371.273 283.851 370.703C285.352 365.603 290.065 362.004 295.503 362.004H359.616V362.03Z" fill="white" stroke="#FE5244" stroke-width="1.554" stroke-miterlimit="10"/>
<path d="M348.713 387.428L344.078 422.198C342.55 429.318 337.009 433.124 328.982 434.418L274.087 442.392L282.088 387.402H348.713V387.428Z" fill="#FFCF2D"/>
<path d="M357.647 362.03H356.275C353.789 362.004 351.614 363.764 351.122 366.224L343.043 418.34C341.515 425.46 335.223 430.561 327.947 430.561H277.428C271.317 430.561 266.759 424.916 268.08 418.936L277.816 374.716C279.447 367.311 286.024 362.03 293.611 362.03H357.647Z" fill="#FE5244" stroke="#FE5244" stroke-width="1.554" stroke-miterlimit="10"/>
<path d="M316.009 445.059L328.878 366.38C329.137 364.801 330.51 363.61 332.115 363.61C334.135 363.61 335.688 365.422 335.352 367.441L322.483 446.121C322.224 447.7 320.851 448.891 319.246 448.891C317.226 448.891 315.673 447.079 316.009 445.059Z" fill="white" stroke="#FE5244" stroke-width="1.554" stroke-miterlimit="10"/>
<path d="M287.241 445.059L300.11 366.38C300.369 364.801 301.741 363.61 303.347 363.61C305.367 363.61 306.92 365.422 306.584 367.441L293.714 446.121C293.455 447.7 292.083 448.891 290.478 448.891C288.458 448.891 286.904 447.079 287.241 445.059Z" fill="white" stroke="#FE5244" stroke-width="1.554" stroke-miterlimit="10"/>
<path d="M371.396 368.735L358.734 368.787V368.347C358.734 366.586 359.433 365.007 360.598 363.868C361.634 362.832 363.006 362.159 364.56 362.03H365.596C368.781 362.289 371.292 364.981 371.396 368.735Z" fill="white" stroke="#FE5244" stroke-width="1.554" stroke-miterlimit="10"/>
<path d="M452.211 545.305L462.88 572.826C464.589 577.253 462.103 582.172 457.545 583.441L434.111 589.861C432.687 590.25 431.185 589.913 430.072 588.955L427.69 586.884L432.558 585.589C434.707 585.02 436.157 583.026 436.053 580.8L435.51 575.311C435.406 572.852 433.412 570.884 430.952 570.806H431.211C428.233 570.703 425.333 568.865 424.168 566.12L420.439 556.204L452.211 545.305Z" fill="#E58E72"/>
<path d="M428.182 587.428L432.014 586.392C434.163 585.822 435.613 584.088 435.51 581.861L435.225 575.855C435.121 573.395 433.127 571.428 430.667 571.35C427.69 571.246 425.048 569.408 423.883 566.664L419.896 557.266" stroke="white" stroke-width="1.554" stroke-miterlimit="10" stroke-linecap="round"/>
<path d="M440.714 587.376C443.459 586.651 445.323 584.114 445.194 581.266L444.831 573.603" stroke="white" stroke-width="1.554" stroke-miterlimit="10" stroke-linecap="round"/>
<path d="M450.632 584.813C453.376 584.088 455.241 581.551 455.111 578.703L454.749 571.039" stroke="white" stroke-width="1.554" stroke-miterlimit="10" stroke-linecap="round"/>
<path d="M361.919 430.56L368.185 463.337C369.247 468.929 371.215 474.34 373.985 479.311L417.228 557.343L456.924 543.673" stroke="white" stroke-width="1.554" stroke-miterlimit="10"/>
<path d="M388.15 504.89L373.986 479.311C371.603 474.987 369.817 470.379 368.677 465.589C370.024 465.149 371.422 464.839 372.898 464.709C384.084 463.725 394.002 473.123 395.063 485.68C395.685 493.292 392.914 500.308 388.15 504.89Z" fill="white"/>
</svg>
