<svg width="144" height="24" viewBox="0 0 144 24" fill="none" xmlns="http://www.w3.org/2000/svg">
<path d="M7.2 17.6002C8.96731 17.6002 10.4 16.1675 10.4 14.4002C10.4 12.6329 8.96731 11.2002 7.2 11.2002C5.43269 11.2002 4 12.6329 4 14.4002C4 16.1675 5.43269 17.6002 7.2 17.6002Z" fill="#F1BC19"/>
<path d="M14.8008 20C15.9053 20 16.8008 19.1046 16.8008 18C16.8008 16.8954 15.9053 16 14.8008 16C13.6962 16 12.8008 16.8954 12.8008 18C12.8008 19.1046 13.6962 20 14.8008 20Z" fill="#EE3E54"/>
<path d="M15.2004 13.6C17.8514 13.6 20.0004 11.451 20.0004 8.8C20.0004 6.14903 17.8514 4 15.2004 4C12.5494 4 10.4004 6.14903 10.4004 8.8C10.4004 11.451 12.5494 13.6 15.2004 13.6Z" fill="#00A7A7"/>
<path d="M42.76 14.8C42.76 16.0267 42.34 17.0333 41.5 17.82C40.66 18.6067 39.4533 19 37.88 19C36.3067 19 35.2 18.7733 34.56 18.32C33.92 17.8533 33.6 17.34 33.6 16.78C33.6 16.2733 33.6667 15.9067 33.8 15.68C34.0267 15.2933 34.2467 15.0333 34.46 14.9C34.98 15.2867 35.5733 15.64 36.24 15.96C36.92 16.28 37.4333 16.44 37.78 16.44C38.1267 16.44 38.3733 16.4067 38.52 16.34C38.6667 16.2733 38.7533 16.2067 38.78 16.14C38.8067 16.06 38.82 15.9533 38.82 15.82C38.82 15.5667 38.64 15.3267 38.28 15.1C37.92 14.86 37.48 14.62 36.96 14.38C36.4533 14.1267 35.9467 13.8467 35.44 13.54C34.9333 13.22 34.5 12.7867 34.14 12.24C33.78 11.6933 33.6 11.0933 33.6 10.44C33.6 9.77333 33.7533 9.16 34.06 8.6C34.3667 8.04 34.7533 7.58 35.22 7.22C35.2467 6.58 35.6267 6.00667 36.36 5.5C37.1067 4.99333 38.1267 4.74 39.42 4.74C41.7933 4.74 42.98 5.73333 42.98 7.72C42.98 8.93333 42.4467 9.76 41.38 10.2C40.6467 9.4 39.28 8.81333 37.28 8.44C37.3333 9.21333 37.72 9.85333 38.44 10.36C38.7733 10.5867 39.1333 10.8067 39.52 11.02C39.9067 11.22 40.2867 11.4333 40.66 11.66C41.0467 11.8867 41.4 12.1333 41.72 12.4C42.4133 13 42.76 13.8 42.76 14.8ZM48.0125 21.18C47.5858 21.4733 47.0858 21.62 46.5125 21.62C45.9392 21.62 45.5325 21.5067 45.2925 21.28C45.0658 21.0533 44.9525 20.6867 44.9525 20.18V10.64L44.5125 9.26C44.5658 9.19333 44.6392 9.10667 44.7325 9C44.8392 8.89333 45.0592 8.75333 45.3925 8.58C45.7258 8.40667 46.0725 8.32 46.4325 8.32C47.1258 8.32 47.5925 8.7 47.8325 9.46C48.5392 8.75333 49.3258 8.4 50.1925 8.4C51.0725 8.4 51.7458 8.67333 52.2125 9.22C52.6925 9.75333 52.9325 10.4667 52.9325 11.36V13.96C52.9325 15.1867 52.4525 16.3333 51.4925 17.4C50.5325 18.4667 49.4658 19 48.2925 19H48.0125V21.18ZM48.0125 16.44C48.2125 16.6 48.4725 16.68 48.7925 16.68C49.1125 16.68 49.3725 16.58 49.5725 16.38C49.7725 16.18 49.8725 15.9 49.8725 15.54V12.64C49.8725 11.9333 49.6992 11.4533 49.3525 11.2C49.1392 11.0667 48.9192 11 48.6925 11C48.4658 11 48.2392 11.0333 48.0125 11.1V16.44ZM58.8997 12.98C58.8997 12.0333 58.373 11.56 57.3197 11.56C56.7197 11.56 56.093 11.7533 55.4397 12.14C55.2264 11.9267 55.1197 11.6667 55.1197 11.36C55.1197 11.04 55.2064 10.7133 55.3797 10.38C55.5664 10.0467 55.8064 9.73333 56.0997 9.44C56.4064 9.13333 56.793 8.88667 57.2597 8.7C57.7264 8.5 58.2197 8.4 58.7397 8.4C59.7797 8.4 60.5797 8.72667 61.1397 9.38C61.6997 10.0333 61.9797 10.9667 61.9797 12.18V16.76L62.4197 17.78C62.3664 17.8733 62.293 17.9867 62.1997 18.12C62.1064 18.2533 61.8997 18.4333 61.5797 18.66C61.2597 18.8867 60.9264 19 60.5797 19C59.713 19 59.1864 18.52 58.9997 17.56C58.5597 18.52 57.9464 19 57.1597 19C56.3864 19 55.793 18.76 55.3797 18.28C54.9797 17.7867 54.7797 17.1467 54.7797 16.36C54.7797 14.32 56.153 13.24 58.8997 13.12V12.98ZM57.2797 15.62C57.2797 16.14 57.4597 16.4733 57.8197 16.62C57.8997 16.66 57.9864 16.68 58.0797 16.68C58.3464 16.68 58.6197 16.5267 58.8997 16.22V14.02C57.8197 14.2733 57.2797 14.8067 57.2797 15.62ZM70.5577 16.22C70.7043 16.3667 70.7777 16.56 70.7777 16.8C70.7777 17.04 70.731 17.28 70.6377 17.52C70.5443 17.7467 70.391 17.9733 70.1777 18.2C69.9777 18.4267 69.6777 18.62 69.2777 18.78C68.891 18.9267 68.4443 19 67.9377 19C67.4443 19 66.9843 18.9267 66.5577 18.78C66.131 18.62 65.7243 18.3733 65.3377 18.04C64.4977 17.2933 64.0777 16.0733 64.0777 14.38C64.0777 12.6733 64.3643 11.4133 64.9377 10.6C65.5243 9.77333 66.1843 9.32667 66.9177 9.26C67.5177 8.68667 68.151 8.4 68.8177 8.4C69.271 8.4 69.7177 8.58 70.1577 8.94C70.5977 9.3 70.8177 9.71333 70.8177 10.18C70.8177 10.6467 70.651 11.0933 70.3177 11.52C69.9977 11.9467 69.5777 12.2467 69.0577 12.42C68.471 11.7933 67.8177 11.3267 67.0977 11.02V12.9C67.0977 14.1667 67.3977 15.08 67.9977 15.64C68.451 16.0667 69.0643 16.28 69.8377 16.28C70.0643 16.28 70.3043 16.26 70.5577 16.22ZM79.4995 16.14C79.6462 16.2867 79.7195 16.48 79.7195 16.72C79.7195 16.96 79.6529 17.2067 79.5195 17.46C79.3995 17.7 79.2129 17.94 78.9595 18.18C78.7195 18.4067 78.3729 18.6 77.9195 18.76C77.4662 18.92 76.9662 19 76.4195 19C75.8862 19 75.4062 18.9267 74.9795 18.78C74.5529 18.62 74.1462 18.3733 73.7595 18.04C72.9195 17.2933 72.4995 16.0733 72.4995 14.38C72.4995 12.6867 72.7862 11.4333 73.3595 10.62C73.9329 9.79333 74.5862 9.34 75.3195 9.26C75.8529 8.68667 76.4929 8.4 77.2395 8.4C77.9995 8.4 78.6129 8.67333 79.0795 9.22C79.5595 9.76667 79.7995 10.5133 79.7995 11.46C79.7995 12.5667 79.3929 13.44 78.5795 14.08C77.9129 14.6133 77.1129 15.02 76.1795 15.3C76.6462 15.9133 77.4195 16.22 78.4995 16.22C78.8062 16.22 79.1395 16.1933 79.4995 16.14ZM77.0195 12.44C77.0195 11.6267 76.5195 11.18 75.5195 11.1V12.9C75.5195 13.5 75.5729 13.98 75.6795 14.34C76.5729 13.8467 77.0195 13.2133 77.0195 12.44ZM82.421 18.424L82.277 17.544C82.2557 17.448 82.245 17.352 82.245 17.256C82.245 16.904 82.3837 16.6267 82.661 16.424C83.7597 15.6347 84.7357 14.792 85.589 13.896C86.453 13 86.885 12.2533 86.885 11.656C86.885 11.24 86.7517 10.904 86.485 10.648C86.2183 10.3813 85.9143 10.248 85.573 10.248C84.7943 10.248 84.0583 10.5573 83.365 11.176C83.2583 11.2827 83.1303 11.32 82.981 11.288C82.5117 11.192 82.277 10.6747 82.277 9.736C82.277 9.416 82.3463 9.16533 82.485 8.984C82.6343 8.80267 82.8797 8.62667 83.221 8.456C84.5757 7.79467 86.1223 7.464 87.861 7.464C89.6103 7.464 90.9117 7.768 91.765 8.376C92.6183 8.97333 93.045 9.74667 93.045 10.696C93.045 11.6453 92.7943 12.472 92.293 13.176C91.8023 13.88 91.0397 14.648 90.005 15.48C89.781 15.6507 89.669 15.8107 89.669 15.96C89.669 16.1413 89.8183 16.232 90.117 16.232C90.1383 16.232 90.1597 16.232 90.181 16.232L93.653 16.088C93.6637 16.088 93.6743 16.088 93.685 16.088C93.8663 16.088 94.0103 16.2053 94.117 16.44C94.2237 16.664 94.277 17 94.277 17.448C94.277 17.8853 94.2023 18.2533 94.053 18.552C93.9037 18.84 93.605 18.9893 93.157 19C91.5783 19.032 90.021 19.048 88.485 19.048C86.9597 19.048 85.7383 19.0373 84.821 19.016C83.9037 18.9947 83.3917 18.984 83.285 18.984C83.189 18.9733 83.061 18.952 82.901 18.92C82.7517 18.888 82.6397 18.8347 82.565 18.76C82.501 18.6747 82.453 18.5627 82.421 18.424ZM105.51 14.8C105.51 16.0267 105.09 17.0333 104.25 17.82C103.41 18.6067 102.203 19 100.63 19C99.0567 19 97.95 18.7733 97.31 18.32C96.67 17.8533 96.35 17.34 96.35 16.78C96.35 16.2733 96.4167 15.9067 96.55 15.68C96.7767 15.2933 96.9967 15.0333 97.21 14.9C97.73 15.2867 98.3233 15.64 98.99 15.96C99.67 16.28 100.183 16.44 100.53 16.44C100.877 16.44 101.123 16.4067 101.27 16.34C101.417 16.2733 101.503 16.2067 101.53 16.14C101.557 16.06 101.57 15.9533 101.57 15.82C101.57 15.5667 101.39 15.3267 101.03 15.1C100.67 14.86 100.23 14.62 99.71 14.38C99.2033 14.1267 98.6967 13.8467 98.19 13.54C97.6833 13.22 97.25 12.7867 96.89 12.24C96.53 11.6933 96.35 11.0933 96.35 10.44C96.35 9.77333 96.5033 9.16 96.81 8.6C97.1167 8.04 97.5033 7.58 97.97 7.22C97.9967 6.58 98.3767 6.00667 99.11 5.5C99.8567 4.99333 100.877 4.74 102.17 4.74C104.543 4.74 105.73 5.73333 105.73 7.72C105.73 8.93333 105.197 9.76 104.13 10.2C103.397 9.4 102.03 8.81333 100.03 8.44C100.083 9.21333 100.47 9.85333 101.19 10.36C101.523 10.5867 101.883 10.8067 102.27 11.02C102.657 11.22 103.037 11.4333 103.41 11.66C103.797 11.8867 104.15 12.1333 104.47 12.4C105.163 13 105.51 13.8 105.51 14.8ZM112.963 8.84C113.096 9.17333 113.163 9.52667 113.163 9.9C113.163 10.26 113.149 10.5267 113.123 10.7C113.109 10.86 113.029 11.04 112.883 11.24C112.736 11.4267 112.543 11.52 112.303 11.52C112.063 11.52 111.716 11.5067 111.263 11.48V14.42C111.263 15.7267 111.829 16.5933 112.963 17.02C112.963 17.5133 112.789 17.9667 112.443 18.38C112.109 18.7933 111.649 19 111.063 19C110.209 19 109.523 18.6867 109.003 18.06C108.483 17.4333 108.223 16.62 108.223 15.62V11.26C107.876 11.1667 107.563 11.0533 107.283 10.92L107.263 10.68C107.263 9.77333 107.576 9.16667 108.203 8.86C108.149 7.94 108.036 7.21333 107.863 6.68L107.783 6.4C107.836 6.33333 107.909 6.24667 108.003 6.14C108.109 6.03333 108.329 5.89333 108.663 5.72C108.996 5.54667 109.343 5.46 109.702 5.46C110.743 5.46 111.263 6.29333 111.263 7.96V8.78C111.689 8.82 112.256 8.84 112.963 8.84ZM119.972 8.62C120.385 8.42 120.778 8.32 121.152 8.32C121.538 8.32 121.872 8.49333 122.152 8.84C122.445 9.18667 122.592 9.58 122.592 10.02V16.76L123.032 17.78C122.978 17.8733 122.905 17.9867 122.812 18.12C122.718 18.2533 122.512 18.4333 122.192 18.66C121.872 18.8867 121.532 19 121.172 19C120.358 19 119.845 18.5533 119.632 17.66C119.472 18.0333 119.225 18.3533 118.892 18.62C118.558 18.8733 118.158 19 117.692 19C116.892 19 116.238 18.7467 115.732 18.24C115.238 17.72 114.992 17.06 114.992 16.26V10.64L114.552 9.26C114.738 9.02 115.032 8.80667 115.432 8.62C115.845 8.42 116.245 8.32 116.632 8.32C117.018 8.32 117.352 8.49333 117.632 8.84C117.912 9.18667 118.052 9.58 118.052 10.02V14.88C118.052 15.4533 118.138 15.86 118.312 16.1C118.498 16.34 118.905 16.4667 119.532 16.48V10.64L119.072 9.26C119.258 9.02 119.558 8.80667 119.972 8.62ZM132.555 7.44V16.76L132.975 17.78C132.922 17.8733 132.849 17.9867 132.755 18.12C132.662 18.2533 132.455 18.4333 132.135 18.66C131.829 18.8867 131.495 19 131.135 19C130.389 19 129.889 18.6267 129.635 17.88C129.209 18.6267 128.582 19 127.755 19C126.929 19 126.262 18.7333 125.755 18.2C125.249 17.6533 124.995 16.9867 124.995 16.2V13.12C124.995 11.8 125.375 10.7533 126.135 9.98C126.895 9.19333 127.829 8.8 128.935 8.8C129.109 8.8 129.295 8.82 129.495 8.86C129.469 8.02 129.349 7.16667 129.135 6.3L129.035 5.9C129.089 5.83333 129.162 5.74667 129.255 5.64C129.362 5.53333 129.582 5.39333 129.915 5.22C130.249 5.03333 130.602 4.94 130.975 4.94C132.029 4.94 132.555 5.77333 132.555 7.44ZM127.855 15.08C127.855 15.6 127.969 15.9867 128.195 16.24C128.435 16.48 128.869 16.62 129.495 16.66V12.3C129.455 11.94 129.302 11.6733 129.035 11.5C128.782 11.3133 128.389 11.1667 127.855 11.06V15.08ZM134.82 20.54C134.754 20.2067 134.72 19.92 134.72 19.68C134.72 19.44 134.754 19.2133 134.82 19C134.887 18.8 135.04 18.6133 135.28 18.44C135.52 18.2667 135.827 18.18 136.2 18.18C136.574 18.18 136.994 18.3 137.46 18.54C137.927 18.78 138.294 18.9 138.56 18.9C139.187 18.9 139.5 18.5067 139.5 17.72V16.78C139.154 17.4067 138.54 17.72 137.66 17.72C136.78 17.72 136.107 17.48 135.64 17C135.187 16.52 134.96 15.9267 134.96 15.22V10.64L134.52 9.26C134.707 9.02 135 8.80667 135.4 8.62C135.814 8.42 136.214 8.32 136.6 8.32C136.987 8.32 137.32 8.49333 137.6 8.84C137.88 9.18667 138.02 9.58 138.02 10.02V14.54C138.02 15.0067 138.134 15.3133 138.36 15.46C138.6 15.6067 138.98 15.6867 139.5 15.7V10.64L139.04 9.26C139.227 9.02 139.527 8.80667 139.94 8.62C140.354 8.42 140.747 8.32 141.12 8.32C141.507 8.32 141.84 8.49333 142.12 8.84C142.414 9.18667 142.56 9.58 142.56 10.02V17.02C142.56 18.42 142.22 19.48 141.54 20.2C140.874 20.9333 139.874 21.3 138.54 21.3C137.794 21.3 137.087 21.1733 136.42 20.92C135.767 20.6667 135.234 20.54 134.82 20.54Z" fill="#37474F"/>
</svg>
