<svg width="473" height="382" viewBox="0 0 473 382" fill="none" xmlns="http://www.w3.org/2000/svg">
<path d="M317.594 11.2668L346.602 39.2636L375.757 197.086H102.283L317.594 11.2668Z" fill="#FFCF2D"/>
<path d="M346.851 39.0437L317.755 10.959L322.622 5.90205C329.79 -1.5442 342.703 -0.694031 350.149 6.45905C357.596 13.6268 358.9 26.5405 351.733 33.9867L346.851 39.0437Z" fill="white" stroke="#FFCF2D" stroke-width="0.406086" stroke-miterlimit="10" stroke-linecap="round"/>
<path d="M351.718 33.9865L322.607 5.90186" stroke="#FFCF2D" stroke-width="0.406086" stroke-miterlimit="10" stroke-linecap="round"/>
<path d="M351.747 7.7342L355.001 5.24234C359.369 1.90033 365.642 2.77981 368.911 7.22117L448.885 104.579L407.945 195.884" stroke="#3FB1B5" stroke-width="0.406086" stroke-miterlimit="10" stroke-linecap="round"/>
<path d="M447.581 109.549C450.058 109.549 452.066 107.54 452.066 105.063C452.066 102.586 450.058 100.578 447.581 100.578C445.104 100.578 443.096 102.586 443.096 105.063C443.096 107.54 445.104 109.549 447.581 109.549Z" fill="white" stroke="#FFCF2D" stroke-width="0.406086" stroke-miterlimit="10" stroke-linecap="round"/>
<path d="M396.571 185.682H418.426C424.714 185.682 429.801 190.783 429.801 197.056V197.379H385.182V197.056C385.197 190.783 390.283 185.682 396.571 185.682Z" fill="white" stroke="#FFCF2D" stroke-width="0.406086" stroke-miterlimit="10" stroke-linecap="round"/>
<path d="M290.695 164.09H152.339C147.135 164.09 142.928 159.884 142.928 154.68V57.9082C142.928 52.7046 147.135 48.4978 152.339 48.4978H290.695C295.899 48.4978 300.106 52.7046 300.106 57.9082V154.665C300.12 159.869 295.899 164.09 290.695 164.09Z" fill="white" stroke="#3FB1B5" stroke-width="0.406086" stroke-miterlimit="10" stroke-linecap="round"/>
<path d="M290.783 155.091H153.761C151.723 155.091 150.082 153.434 150.082 151.412V58.832C150.082 56.7945 151.738 55.1528 153.761 55.1528H290.783C292.821 55.1528 294.462 56.8092 294.462 58.832V151.397C294.477 153.434 292.821 155.091 290.783 155.091Z" fill="#66B0F0" stroke="#66B0F0" stroke-width="0.406086" stroke-miterlimit="10" stroke-linejoin="round"/>
<path d="M158.671 63.8009H156.502C155.798 63.8009 155.212 63.2293 155.212 62.511V60.3417C155.212 59.6381 155.783 59.0518 156.502 59.0518H158.671C159.375 59.0518 159.961 59.6234 159.961 60.3417V62.511C159.946 63.2293 159.375 63.8009 158.671 63.8009Z" stroke="white" stroke-width="0.406086" stroke-miterlimit="10" stroke-linecap="round"/>
<path d="M168.536 63.8009H166.367C165.663 63.8009 165.077 63.2293 165.077 62.511V60.3417C165.077 59.6381 165.649 59.0518 166.367 59.0518H168.536C169.24 59.0518 169.826 59.6234 169.826 60.3417V62.511C169.826 63.2293 169.24 63.8009 168.536 63.8009Z" stroke="white" stroke-width="0.406086" stroke-miterlimit="10" stroke-linecap="round"/>
<path d="M178.401 63.8009H176.232C175.528 63.8009 174.942 63.2293 174.942 62.511V60.3417C174.942 59.6381 175.513 59.0518 176.232 59.0518H178.401C179.105 59.0518 179.691 59.6234 179.691 60.3417V62.511C179.691 63.2293 179.119 63.8009 178.401 63.8009Z" stroke="white" stroke-width="0.406086" stroke-miterlimit="10" stroke-linecap="round"/>
<path d="M250.723 197.085H197.016L207.555 164.09H240.169L250.723 197.085Z" fill="white" stroke="#3FB1B5" stroke-width="0.406086" stroke-miterlimit="10" stroke-linecap="round"/>
<path d="M201.238 183.879L207.555 164.091H240.169L201.238 183.879Z" fill="#3FB1B5"/>
<path d="M282.809 85.5091H256.704C254.256 85.5091 252.277 83.5303 252.277 81.0824V64.2258C252.277 61.7779 254.256 59.7991 256.704 59.7991H282.809C285.257 59.7991 287.236 61.7779 287.236 64.2258V81.0824C287.236 83.5303 285.257 85.5091 282.809 85.5091Z" stroke="white" stroke-width="0.406086" stroke-miterlimit="10" stroke-linecap="round"/>
<path d="M259.738 65.8088H279.658" stroke="white" stroke-width="0.406086" stroke-miterlimit="10" stroke-linecap="round"/>
<path d="M259.738 70.353H279.658" stroke="white" stroke-width="0.406086" stroke-miterlimit="10" stroke-linecap="round"/>
<path d="M259.738 74.8967H279.658" stroke="white" stroke-width="0.406086" stroke-miterlimit="10" stroke-linecap="round"/>
<path d="M259.738 79.4407H279.658" stroke="white" stroke-width="0.406086" stroke-miterlimit="10" stroke-linecap="round"/>
<path d="M290.021 155.09H186.258L180.175 163.812C173.3 173.662 158.774 173.809 151.709 164.09L114.654 113.125C116.207 115.059 123.316 112.905 130.088 108.449C136.963 103.919 141.404 98.2174 140.012 96.1067L165.707 128.853L173.579 114.957C175.733 111.278 179.31 108.639 183.473 107.672L210.253 101.999H233.339L258.785 107.613C263.212 108.625 266.964 111.512 269.09 115.514L290.021 155.09Z" fill="white" stroke="#3FB1B5" stroke-width="0.406086" stroke-miterlimit="10"/>
<path d="M261.541 154.489L254.168 139.934" stroke="#3FB1B5" stroke-width="0.406086" stroke-miterlimit="10" stroke-linecap="round"/>
<path d="M185.671 155.852L192.971 141.444" stroke="#3FB1B5" stroke-width="0.406086" stroke-miterlimit="10" stroke-linecap="round"/>
<path d="M155.71 116.144L172.435 137.53" stroke="#3FB1B5" stroke-width="0.406086" stroke-miterlimit="10" stroke-linecap="round"/>
<path d="M224.676 109.035L230.833 116.525L244.611 104.828" stroke="#3FB1B5" stroke-width="0.406086" stroke-miterlimit="10" stroke-linecap="round"/>
<path d="M219.971 109.182L213.991 116.819L198.849 104.828" stroke="#3FB1B5" stroke-width="0.406086" stroke-miterlimit="10" stroke-linecap="round"/>
<path d="M145.113 102.659C146.505 104.784 142.049 110.56 135.131 115.148C128.329 119.662 121.118 121.832 119.549 119.882" stroke="#3FB1B5" stroke-width="0.406086" stroke-miterlimit="10" stroke-linecap="round"/>
<path d="M140.511 106.367C141.426 106.367 142.167 105.626 142.167 104.711C142.167 103.796 141.426 103.055 140.511 103.055C139.596 103.055 138.854 103.796 138.854 104.711C138.854 105.626 139.596 106.367 140.511 106.367Z" stroke="#3FB1B5" stroke-width="0.406086" stroke-miterlimit="10" stroke-linecap="round"/>
<path d="M222.302 116.775C223.216 116.775 223.958 116.033 223.958 115.118C223.958 114.203 223.216 113.462 222.302 113.462C221.387 113.462 220.645 114.203 220.645 115.118C220.645 116.033 221.387 116.775 222.302 116.775Z" stroke="#3FB1B5" stroke-width="0.406086" stroke-miterlimit="10" stroke-linecap="round"/>
<path d="M222.302 130.113C223.216 130.113 223.958 129.371 223.958 128.457C223.958 127.542 223.216 126.8 222.302 126.8C221.387 126.8 220.645 127.542 220.645 128.457C220.645 129.371 221.387 130.113 222.302 130.113Z" stroke="#3FB1B5" stroke-width="0.406086" stroke-miterlimit="10" stroke-linecap="round"/>
<path d="M179.647 164.515L186.258 155.09V164.515H179.647Z" fill="#3FB1B5"/>
<path d="M129.927 108.009C123.155 112.465 116.046 114.62 114.493 112.685C114.463 112.655 114.449 112.626 114.419 112.582C114.097 112.098 114.126 111.439 114.419 110.633C115.431 107.98 119.608 103.875 124.914 100.387C129.136 97.6017 133.299 95.6668 136.186 95.0659C137.857 94.7287 139.103 94.8313 139.704 95.4763L139.851 95.6522C141.229 97.7629 136.802 103.48 129.927 108.009Z" fill="#FE5244"/>
<path d="M129.927 108.009C126.072 110.545 122.1 112.348 119.11 113.051L105.727 94.172C103.865 91.5335 104.481 87.8837 107.134 86.0221L119.183 77.5498L112.352 65.9261C111.355 64.2404 111.927 62.0564 113.627 61.0743C114.184 60.7518 114.785 60.6052 115.386 60.6052C116.544 60.6052 117.688 61.1769 118.362 62.2323L139.719 95.4472L139.865 95.6817C141.228 97.7632 136.802 103.48 129.927 108.009Z" fill="#E57281"/>
<path d="M119.154 77.6816L126.615 89.2468C127.304 90.3315 126.996 91.7679 125.912 92.4715L124.255 93.5562C123.171 94.2745 121.705 93.9666 121.001 92.882L113.951 82.3282" stroke="#9A3B82" stroke-width="0.406086" stroke-miterlimit="10" stroke-linecap="round"/>
<path d="M120.972 92.8528C121.69 93.9521 121.367 95.4326 120.268 96.1362L118.758 97.0889C117.674 97.7779 116.237 97.4701 115.533 96.4" stroke="#9A3B82" stroke-width="0.406086" stroke-miterlimit="10" stroke-linecap="round"/>
<path d="M108.6 86.0513L115.504 96.3118C116.222 97.4112 115.915 98.8916 114.786 99.5952L113.379 100.372C112.323 101.046 110.931 100.768 110.198 99.7418L106.196 94.0985" stroke="#9A3B82" stroke-width="0.406086" stroke-miterlimit="10" stroke-linecap="round"/>
<path d="M134.735 87.7075L131.232 82.2694C130.074 80.4665 127.655 79.9681 125.882 81.1701L117.19 87.0625C117.19 87.0625 119.711 91.5919 125.838 88.0007L127.89 91.2694C123.698 93.9225 122.496 99.5072 125.222 103.655L134.735 87.7075Z" fill="#E57281"/>
<path d="M134.281 87.8542L130.778 82.4161C129.62 80.6132 127.201 80.1148 125.427 81.3168L117.19 87.0627C117.19 87.0627 119.711 91.592 125.838 88.0008L127.89 91.2695C123.698 93.9226 122.496 99.5073 125.222 103.656" stroke="#9A3B82" stroke-width="0.406086" stroke-miterlimit="10" stroke-linecap="round"/>
<path d="M129.928 108.009C126.073 110.545 122.1 112.348 119.11 113.051L115.783 108.361C117.644 105.928 120.972 102.996 124.915 100.402C129.136 97.6166 133.299 95.6817 136.187 95.0808C137.858 94.7436 139.104 94.8462 139.705 95.4912L139.851 95.6671C139.866 95.6964 139.88 95.7111 139.895 95.7404C139.91 95.755 139.91 95.7697 139.924 95.799C139.939 95.8283 139.954 95.843 139.968 95.8723C140.965 98.1149 136.582 103.612 129.928 108.009Z" fill="#9A3B82"/>
<path d="M233.325 89.1001V101.984C233.325 105.722 228.136 108.742 221.759 108.742C215.369 108.742 210.194 105.722 210.194 101.984V89.1001H233.325Z" fill="#E57281"/>
<path d="M213.581 106.763C211.485 105.546 210.18 103.846 210.18 101.984V89.1001H233.325V92.6766C233.325 96.3851 231.068 99.7125 227.638 101.105L213.581 106.763Z" fill="#9A3B82"/>
<path d="M239.774 88.3379V88.5578C239.774 90.7858 237.971 92.5887 235.743 92.5887H233.09C232.196 96.1946 228.942 98.8769 225.043 98.8769H218.476C214.591 98.8769 211.323 96.2092 210.443 92.5887H207.79C205.562 92.5887 203.759 90.7858 203.759 88.5578V88.3379C203.759 86.1099 205.562 84.3069 207.79 84.3069H210.194V81.1262C210.194 77.7255 212.701 74.9112 215.969 74.4421C216.688 75.6441 218.857 78.5171 223.284 78.3558C225.365 78.2825 227.3 77.8868 228.898 77.4177C230.818 76.8607 232.738 78.0333 233.222 79.8656C233.295 80.276 233.339 80.6864 233.339 81.1115V84.2923H235.743C237.956 84.2923 239.774 86.1099 239.774 88.3379Z" fill="#E57281"/>
<path d="M235.171 84.2923H233.324V80.7598C233.324 80.452 233.28 80.1441 233.207 79.8656C232.723 78.0334 230.803 76.8608 228.883 77.4178C227.285 77.8868 225.365 78.2826 223.269 78.3559C218.842 78.5171 216.673 75.6442 215.955 74.4422C212.686 74.9113 210.179 77.7256 210.179 81.1262V84.307H207.878C207.878 84.307 205.24 74.7647 207.219 72.0676C209.168 69.4145 211.513 70.5725 211.513 70.5725C211.513 70.5725 210.106 62.6279 217.963 62.7745C225.805 62.921 236.007 72.0236 236.754 73.6946C237.927 76.2598 235.171 84.2923 235.171 84.2923Z" fill="#9A3B82"/>
<path d="M234.219 89.0858C234.219 87.5174 235.494 86.2568 237.047 86.2568" stroke="#9A3B82" stroke-width="0.338405" stroke-miterlimit="10" stroke-linecap="round"/>
<path d="M209.329 89.0858C209.329 87.5174 208.054 86.2568 206.5 86.2568" stroke="#9A3B82" stroke-width="0.338405" stroke-miterlimit="10" stroke-linecap="round"/>
<path d="M229.63 81.1262C229.63 81.1262 227.549 79.6018 224.896 80.7011" stroke="#9A3B82" stroke-width="0.338405" stroke-miterlimit="10" stroke-linecap="round"/>
<path d="M213.741 81.1262C213.741 81.1262 215.823 79.6018 218.476 80.7011" stroke="#9A3B82" stroke-width="0.338405" stroke-miterlimit="10" stroke-linecap="round"/>
<path d="M225.409 91.9438C225.409 91.9438 224.28 94.3771 220.821 93.1018" stroke="#9A3B82" stroke-width="0.338405" stroke-miterlimit="10" stroke-linecap="round"/>
<path d="M220.66 90.6833C221.554 90.742 222.917 90.6833 222.917 90.6833" stroke="#9A3B82" stroke-width="0.338405" stroke-miterlimit="10" stroke-linecap="round"/>
<path d="M227.271 87.2387C227.676 87.2387 228.004 86.6874 228.004 86.0074C228.004 85.3274 227.676 84.7761 227.271 84.7761C226.866 84.7761 226.538 85.3274 226.538 86.0074C226.538 86.6874 226.866 87.2387 227.271 87.2387Z" fill="#9A3B82"/>
<path d="M216.762 87.2387C217.166 87.2387 217.495 86.6874 217.495 86.0074C217.495 85.3274 217.166 84.7761 216.762 84.7761C216.357 84.7761 216.029 85.3274 216.029 86.0074C216.029 86.6874 216.357 87.2387 216.762 87.2387Z" fill="#9A3B82"/>
<path d="M218.505 90.1557H213.888C212.994 90.1557 212.275 89.4375 212.275 88.5433V83.9261C212.275 83.032 212.994 82.3137 213.888 82.3137H218.505C219.399 82.3137 220.117 83.032 220.117 83.9261V88.5433C220.132 89.4228 219.399 90.1557 218.505 90.1557Z" stroke="white" stroke-width="0.338405" stroke-miterlimit="10"/>
<path d="M229.807 90.1555H225.19C224.295 90.1555 223.577 89.4372 223.577 88.5431V83.9259C223.577 83.0317 224.295 82.3135 225.19 82.3135H229.807C230.701 82.3135 231.419 83.0317 231.419 83.9259V88.5431C231.419 89.4226 230.701 90.1555 229.807 90.1555Z" stroke="white" stroke-width="0.338405" stroke-miterlimit="10"/>
<path d="M220.133 85.3623H223.577" stroke="white" stroke-width="0.338405" stroke-miterlimit="10"/>
<path d="M231.023 149.403H215.002C213.551 149.403 212.364 148.231 212.364 146.765V138.249C212.364 136.797 213.536 135.61 215.002 135.61H231.023C232.475 135.61 233.662 136.783 233.662 138.249V146.765C233.662 148.216 232.489 149.403 231.023 149.403Z" stroke="#66B0F0" stroke-width="0.406086" stroke-miterlimit="10" stroke-linejoin="round"/>
<path d="M223.416 145.973H217.993C217.128 145.973 216.424 145.27 216.424 144.405V140.608C216.424 139.744 217.128 139.04 217.993 139.04H223.416C224.281 139.04 224.985 139.744 224.985 140.608V144.405C224.985 145.27 224.281 145.973 223.416 145.973Z" fill="#66B0F0"/>
<path d="M228.693 145.871L227.022 144.757C226.568 144.449 226.289 143.921 226.289 143.35V141.679C226.289 141.107 226.568 140.579 227.022 140.272L228.693 139.158C229.089 138.894 229.602 139.187 229.602 139.685V145.358C229.616 145.842 229.089 146.135 228.693 145.871Z" fill="#66B0F0"/>
<path d="M445.294 197.379H56.1687" stroke="#3FB1B5" stroke-width="0.406086" stroke-miterlimit="10" stroke-linecap="round"/>
<path d="M181.45 199.944V380.911H171.234V346.465C171.234 343.255 168.625 340.646 165.415 340.646H92.2861C89.076 340.646 86.4669 343.255 86.4669 346.465V380.911H76.2502V199.944H181.45Z" fill="white" stroke="#3FB1B5" stroke-width="0.406086" stroke-miterlimit="10" stroke-linecap="round"/>
<path d="M181.758 199.944V247.963L76.2502 334.841L76.2649 199.944H181.758Z" fill="#D0F0E4"/>
<path d="M171.234 213.722V246.542C171.234 249.59 168.772 252.053 165.723 252.053H91.9933C88.9445 252.053 86.4819 249.59 86.4819 246.542V213.722C86.4819 210.673 88.9445 208.211 91.9933 208.211H165.723C168.772 208.211 171.234 210.673 171.234 213.722Z" stroke="#3FB1B5" stroke-width="0.406086" stroke-miterlimit="10" stroke-linecap="round"/>
<path d="M147.605 276.913H111.312L109.802 266.52H146.11L147.605 276.913Z" fill="#FFCF2D"/>
<path d="M166.968 260.525C162.439 260.525 158.774 264.19 158.774 268.719V276.913H127.89V268.719C127.89 264.19 131.554 260.525 136.084 260.525H166.968Z" fill="white" stroke="#3FB1B5" stroke-width="0.406086" stroke-miterlimit="10" stroke-linecap="round"/>
<path d="M174.663 266.52H143.779C142.826 263.061 139.646 260.525 135.878 260.525H166.763C170.53 260.525 173.696 263.061 174.663 266.52Z" fill="white" stroke="#3FB1B5" stroke-width="0.406086" stroke-miterlimit="10" stroke-linecap="round"/>
<path d="M171.234 282.424V315.243C171.234 318.292 168.772 320.755 165.723 320.755H91.9933C88.9445 320.755 86.4819 318.292 86.4819 315.243V282.424C86.4819 279.375 88.9445 276.913 91.9933 276.913H165.723C168.772 276.913 171.234 279.375 171.234 282.424Z" stroke="#3FB1B5" stroke-width="0.406086" stroke-miterlimit="10" stroke-linecap="round"/>
<path d="M113.76 229.48C113.76 226.871 115.871 224.745 118.494 224.745H139.235C141.844 224.745 143.97 226.856 143.97 229.48" stroke="#3FB1B5" stroke-width="0.406086" stroke-miterlimit="10" stroke-linecap="round"/>
<path d="M113.76 298.182C113.76 295.573 115.871 293.447 118.494 293.447H139.235C141.844 293.447 143.97 295.558 143.97 298.182" stroke="#3FB1B5" stroke-width="0.406086" stroke-miterlimit="10" stroke-linecap="round"/>
<path d="M429.8 199.944H418.909V381.307H429.8V199.944Z" fill="white" stroke="#3FB1B5" stroke-width="0.406086" stroke-miterlimit="10" stroke-linecap="round"/>
<path d="M244.714 381.307H472" stroke="#3FB1B5" stroke-width="0.406086" stroke-miterlimit="10" stroke-linecap="round"/>
<path d="M107.178 172.504H100.597C100.597 172.504 91.201 133.353 82.9485 132.078C74.6961 130.802 74.271 145.871 74.271 145.871C74.271 145.871 74.4176 122.96 95.0413 126.097C115.68 129.234 107.178 172.504 107.178 172.504Z" fill="white" stroke="#3FB1B5" stroke-width="0.406086" stroke-miterlimit="10" stroke-linecap="round"/>
<path d="M84.6345 127.094C84.6345 127.094 103.441 120.146 104.291 171.918" stroke="#3FB1B5" stroke-width="0.406086" stroke-miterlimit="10" stroke-linecap="round"/>
<path d="M125.105 171.918H94.1912V197.086H125.105V171.918Z" fill="#FE5244"/>
<path d="M131.613 184.509C129.649 185.359 127.304 185.256 125.12 184.304C123.507 183.6 121.983 182.442 120.752 180.859C119.051 178.66 117.908 175.655 117.908 171.918C117.908 162.859 110.696 157.172 107.735 169.162C107.53 169.998 107.34 170.906 107.178 171.918V171.888V171.83C107.178 171.8 107.178 171.756 107.193 171.713V171.654C107.252 170.906 107.472 168.693 108.146 166.025C108.644 164.046 109.392 161.848 110.506 159.81C111.063 158.799 111.708 157.831 112.47 156.967C114.434 154.709 117.131 153.126 120.81 153.126C127.582 153.126 132.537 161.1 134.428 169.045C136.084 175.949 135.41 182.853 131.613 184.509Z" fill="white" stroke="#3FB1B5" stroke-width="0.406086" stroke-miterlimit="10" stroke-linecap="round"/>
<path d="M112.484 156.967C112.484 156.967 126.057 147.308 130.044 184.788" stroke="#3FB1B5" stroke-width="0.406086" stroke-miterlimit="10" stroke-linecap="round"/>
<path d="M73.8313 145.871C73.8313 148.289 73.5528 157.538 82.3769 157.964C91.201 158.389 92.0805 145.065 92.0805 145.065C92.0805 145.065 87.7417 133.279 82.9486 132.078C74.8427 130.04 73.8313 145.871 73.8313 145.871Z" fill="#3FB1B5"/>
<path d="M117.908 171.918H107.178C109.656 156.395 117.908 162.229 117.908 171.918Z" fill="#3FB1B5"/>
<path opacity="0.4" d="M300.121 57.9082V154.665C300.121 159.869 295.899 164.076 290.71 164.076H179.969C173.021 173.647 158.701 173.691 151.694 164.076L151.68 164.061C148.894 163.871 146.432 162.449 144.849 160.353L147.399 158.154L212.481 101.985L274.455 48.4978H290.71C295.899 48.4978 300.121 52.7193 300.121 57.9082Z" fill="white"/>
<path opacity="0.4" d="M131.613 184.949C129.663 185.829 127.303 185.697 125.119 184.744V197.086H102.297L120.766 181.153L125.134 177.386L128.461 174.513L134.896 169.045C136.772 177.048 135.731 183.058 131.613 184.949Z" fill="white"/>
<path d="M11.4918 62.2762C11.3159 62.2762 11.14 62.1589 11.0814 61.9831C11.0081 61.7485 11.1254 61.4993 11.3452 61.4261L12.7231 60.9423C12.9576 60.8691 13.2068 60.9863 13.2801 61.2062C13.3534 61.4407 13.2361 61.6899 13.0162 61.7632L11.6384 62.2469C11.5798 62.2616 11.5358 62.2762 11.4918 62.2762ZM14.9511 61.0743C14.7752 61.0743 14.5993 60.957 14.5407 60.7811C14.4674 60.5466 14.5846 60.2974 14.8045 60.2241L16.1824 59.7404C16.4169 59.6671 16.6661 59.7844 16.7394 60.0042C16.8126 60.2388 16.6954 60.4879 16.4755 60.5612L15.0977 61.0449C15.0537 61.0596 14.9951 61.0743 14.9511 61.0743ZM18.4104 59.8576C18.2345 59.8576 18.0586 59.7404 17.9999 59.5645C17.9267 59.33 18.0439 59.0808 18.2638 59.0075L19.6416 58.5238C19.8762 58.4505 20.1254 58.5677 20.1986 58.7876C20.2719 59.0221 20.1547 59.2713 19.9348 59.3446L18.5569 59.8283C18.513 59.8576 18.4543 59.8576 18.4104 59.8576ZM21.8696 58.6557C21.6937 58.6557 21.5179 58.5384 21.4592 58.3625C21.3859 58.128 21.5032 57.8788 21.7231 57.8055L23.1009 57.3218C23.3354 57.2485 23.5846 57.3658 23.6579 57.5857C23.7312 57.8202 23.6139 58.0694 23.3941 58.1427L22.0162 58.6264C21.9722 58.6557 21.9283 58.6557 21.8696 58.6557ZM25.3289 57.4537C25.153 57.4537 24.9771 57.3365 24.9185 57.1606C24.8452 56.9261 24.9625 56.6769 25.1824 56.6036L26.5602 56.1199C26.7947 56.0466 27.0439 56.1638 27.1172 56.3837C27.1905 56.6182 27.0732 56.8674 26.8533 56.9407L25.4755 57.4244C25.4315 57.4537 25.3876 57.4537 25.3289 57.4537ZM28.8029 56.2518C28.627 56.2518 28.4511 56.1345 28.3924 55.9586C28.3191 55.7241 28.4364 55.4749 28.6563 55.4016L30.0341 54.9179C30.2687 54.8446 30.5178 54.9619 30.5911 55.1818C30.6644 55.4163 30.5472 55.6655 30.3273 55.7388L28.9494 56.2225C28.8908 56.2518 28.8468 56.2518 28.8029 56.2518ZM32.2621 55.0498C32.0862 55.0498 31.9104 54.9326 31.8517 54.7567C31.7784 54.5222 31.8957 54.273 32.1156 54.1997L33.4934 53.716C33.7279 53.6427 33.9771 53.7599 34.0504 53.9798C34.1237 54.2143 34.0064 54.4635 33.7866 54.5368L32.4087 55.0205C32.3501 55.0352 32.3061 55.0498 32.2621 55.0498ZM35.7214 53.8479C35.5455 53.8479 35.3696 53.7306 35.311 53.5547C35.2377 53.3202 35.355 53.071 35.5748 52.9977L36.9527 52.514C37.1872 52.4407 37.4364 52.558 37.5097 52.7779C37.583 53.0124 37.4657 53.2616 37.2458 53.3349L35.868 53.8186C35.8094 53.8332 35.7654 53.8479 35.7214 53.8479ZM39.1807 52.6459C39.0048 52.6459 38.8289 52.5287 38.7703 52.3528C38.697 52.1182 38.8143 51.8691 39.0341 51.7958L40.412 51.3121C40.6465 51.2388 40.8957 51.356 40.969 51.5759C41.0423 51.8104 40.925 52.0596 40.7051 52.1329L39.3273 52.6166C39.2833 52.6313 39.2247 52.6459 39.1807 52.6459ZM42.64 51.444C42.4641 51.444 42.2882 51.3267 42.2295 51.1508C42.1563 50.9163 42.2735 50.6671 42.4934 50.5938L43.8713 50.1101C44.1058 50.0368 44.355 50.1541 44.4282 50.3739C44.5015 50.6085 44.3843 50.8577 44.1644 50.9309L42.7866 51.4147C42.7426 51.4293 42.684 51.444 42.64 51.444ZM46.0993 50.242C45.9234 50.242 45.7475 50.1248 45.6888 49.9489C45.6155 49.7143 45.7328 49.4651 45.9527 49.3919L47.3305 48.9081C47.5651 48.8349 47.8142 48.9521 47.8875 49.172C47.9608 49.4065 47.8436 49.6557 47.6237 49.729L46.2458 50.2127C46.2019 50.2274 46.1432 50.242 46.0993 50.242ZM49.5585 49.0254C49.3826 49.0254 49.2067 48.9081 49.1481 48.7323C49.0748 48.4977 49.1921 48.2485 49.4119 48.1753L50.7898 47.6915C51.0243 47.6182 51.2735 47.7355 51.3468 47.9554C51.4201 48.1899 51.3028 48.4391 51.083 48.5124L49.7051 48.9961C49.6611 49.0254 49.6172 49.0254 49.5585 49.0254ZM53.0178 47.8235C52.8419 47.8235 52.666 47.7062 52.6074 47.5303C52.5341 47.2958 52.6514 47.0466 52.8712 46.9733L54.2491 46.4896C54.4836 46.4163 54.7328 46.5336 54.8061 46.7534C54.8794 46.988 54.7621 47.2371 54.5422 47.3104L53.1644 47.7941C53.1204 47.8235 53.0764 47.8235 53.0178 47.8235ZM56.4918 46.6215C56.3159 46.6215 56.14 46.5042 56.0813 46.3284C56.008 46.0938 56.1253 45.8446 56.3452 45.7713L57.723 45.2876C57.9576 45.2143 58.2067 45.3316 58.28 45.5515C58.3533 45.786 58.2361 46.0352 58.0162 46.1085L56.6383 46.5922C56.5797 46.6215 56.5357 46.6215 56.4918 46.6215ZM59.951 45.4196C59.7751 45.4196 59.5992 45.3023 59.5406 45.1264C59.4673 44.8919 59.5846 44.6427 59.8044 44.5694L61.1823 44.0857C61.4168 44.0124 61.666 44.1297 61.7393 44.3495C61.8126 44.5841 61.6953 44.8332 61.4755 44.9065L60.0976 45.3902C60.039 45.4196 59.995 45.4196 59.951 45.4196ZM63.4103 44.2176C63.2344 44.2176 63.0585 44.1003 62.9999 43.9244C62.9266 43.6899 63.0439 43.4407 63.2637 43.3674L64.6416 42.8837C64.8761 42.8104 65.1253 42.9277 65.1986 43.1476C65.2719 43.3821 65.1546 43.6313 64.9347 43.7046L63.5569 44.1883C63.4982 44.2176 63.4543 44.2176 63.4103 44.2176ZM66.8696 43.0156C66.6937 43.0156 66.5178 42.8984 66.4592 42.7225C66.3859 42.488 66.5031 42.2388 66.723 42.1655L68.1008 41.6818C68.3354 41.6085 68.5846 41.7257 68.6579 41.9456C68.7311 42.1801 68.6139 42.4293 68.394 42.5026L67.0162 42.9863C66.9722 43.001 66.9136 43.0156 66.8696 43.0156ZM70.3289 41.8137C70.153 41.8137 69.9771 41.6964 69.9184 41.5205C69.8451 41.286 69.9624 41.0368 70.1823 40.9635L71.5601 40.4798C71.7947 40.4065 72.0438 40.5238 72.1171 40.7437C72.1904 40.9782 72.0732 41.2274 71.8533 41.3007L70.4754 41.7844C70.4315 41.799 70.3728 41.8137 70.3289 41.8137Z" fill="#FFCF2D"/>
<path d="M27.0882 62.2762C26.8391 62.2762 26.6485 62.0857 26.6485 61.8365C26.6485 57.8642 25.4172 54.9766 22.9693 53.2763C21.1371 52.001 19.2755 51.8837 19.2609 51.8837C19.0117 51.8691 18.8358 51.6639 18.8505 51.4147C18.8651 51.1655 19.0703 50.9896 19.3049 51.0043C19.3928 51.0043 21.401 51.1215 23.4384 52.5287C26.8244 54.874 27.528 58.8903 27.528 61.8365C27.528 62.071 27.3374 62.2762 27.0882 62.2762Z" fill="#3FB1B5"/>
<path d="M97.1237 62.2764H11.4919C11.3306 62.2764 11.1694 62.1885 11.0961 62.0272C11.0228 61.8806 11.0375 61.7048 11.1401 61.5728L45.9381 15.1804C46.0114 15.0778 46.1286 15.0191 46.2459 15.0045C46.3632 14.9898 46.4951 15.0338 46.583 15.1217L97.4315 61.5142C97.5634 61.6315 97.6074 61.822 97.5488 61.9979C97.4755 62.1591 97.3142 62.2764 97.1237 62.2764ZM12.3713 61.3969H95.995L46.3485 16.0892L12.3713 61.3969Z" fill="#3FB1B5"/>
<path d="M3.79642 65.325C1.70033 65.325 0 63.6247 0 61.5286C0 59.4325 1.70033 57.7322 3.79642 57.7322C5.8925 57.7322 7.59282 59.4325 7.59282 61.5286C7.59282 63.6247 5.8925 65.325 3.79642 65.325ZM3.79642 58.597C2.18404 58.597 0.879478 59.9016 0.879478 61.5139C0.879478 63.1263 2.18404 64.4309 3.79642 64.4309C5.40879 64.4309 6.71334 63.1263 6.71334 61.5139C6.71334 59.9016 5.40879 58.597 3.79642 58.597Z" fill="#FFCF2D"/>
<path d="M7.5931 61.5286H6.71362V64.8852H7.5931V61.5286Z" fill="#FFCF2D"/>
<path d="M48.8826 12.2928C46.7865 12.2928 45.0862 10.5925 45.0862 8.49636C45.0862 6.40027 46.7865 4.69995 48.8826 4.69995C50.9787 4.69995 52.679 6.40027 52.679 8.49636C52.679 10.5778 50.9787 12.2928 48.8826 12.2928ZM48.8826 5.56477C47.2702 5.56477 45.9657 6.86933 45.9657 8.4817C45.9657 10.0941 47.2702 11.4133 48.8826 11.4133C50.495 11.4133 51.7995 10.1087 51.7995 8.49636C51.7995 6.88399 50.495 5.56477 48.8826 5.56477Z" fill="#FFCF2D"/>
<path d="M45.9369 2.61816H45.0574V11.838H45.9369V2.61816Z" fill="#FFCF2D"/>
<path d="M103.968 65.2371C101.872 65.2371 100.172 63.5368 100.172 61.4407C100.172 59.3446 101.872 57.6443 103.968 57.6443V58.5238C102.356 58.5238 101.051 59.8283 101.051 61.4407C101.051 63.0531 102.356 64.3576 103.968 64.3576V65.2371Z" fill="#FFCF2D"/>
<path d="M325.963 250.074V331.661H307.113L295.108 298.138L277.914 250.074H325.963Z" fill="#A0505A"/>
<path d="M277.914 250.074H325.963V276.268L283.631 266.037L277.914 250.074Z" fill="#73325A"/>
<path d="M325.963 298.138V331.66H307.113L295.108 298.138C295.108 298.138 304.826 303.503 325.963 298.138Z" stroke="white" stroke-width="0.406086" stroke-miterlimit="10" stroke-linecap="round"/>
<path d="M304.914 306.009C306.096 306.009 307.055 305.051 307.055 303.869C307.055 302.687 306.096 301.729 304.914 301.729C303.733 301.729 302.774 302.687 302.774 303.869C302.774 305.051 303.733 306.009 304.914 306.009Z" stroke="white" stroke-width="0.406086" stroke-miterlimit="10" stroke-linecap="round"/>
<path d="M315.116 312.913C316.298 312.913 317.256 311.955 317.256 310.773C317.256 309.591 316.298 308.633 315.116 308.633C313.934 308.633 312.976 309.591 312.976 310.773C312.976 311.955 313.934 312.913 315.116 312.913Z" stroke="white" stroke-width="0.406086" stroke-miterlimit="10" stroke-linecap="round"/>
<path d="M322.709 305.247C323.891 305.247 324.849 304.289 324.849 303.107C324.849 301.925 323.891 300.967 322.709 300.967C321.527 300.967 320.569 301.925 320.569 303.107C320.569 304.289 321.527 305.247 322.709 305.247Z" stroke="white" stroke-width="0.406086" stroke-miterlimit="10" stroke-linecap="round"/>
<path d="M319.704 320.946C320.886 320.946 321.844 319.988 321.844 318.806C321.844 317.624 320.886 316.666 319.704 316.666C318.522 316.666 317.564 317.624 317.564 318.806C317.564 319.988 318.522 320.946 319.704 320.946Z" stroke="white" stroke-width="0.406086" stroke-miterlimit="10" stroke-linecap="round"/>
<path d="M307.054 317.047C308.236 317.047 309.194 316.088 309.194 314.906C309.194 313.725 308.236 312.766 307.054 312.766C305.872 312.766 304.914 313.725 304.914 314.906C304.914 316.088 305.872 317.047 307.054 317.047Z" stroke="white" stroke-width="0.406086" stroke-miterlimit="10" stroke-linecap="round"/>
<path d="M310.543 328.773C311.725 328.773 312.683 327.815 312.683 326.633C312.683 325.451 311.725 324.493 310.543 324.493C309.361 324.493 308.403 325.451 308.403 326.633C308.403 327.815 309.361 328.773 310.543 328.773Z" stroke="white" stroke-width="0.406086" stroke-miterlimit="10" stroke-linecap="round"/>
<path d="M334.875 346.876L321.947 373.714C320.115 378.038 315.879 380.853 311.173 380.853H294.683C290.462 380.853 287.897 376.573 289.509 372.674L306.087 332.687C307.01 330.253 308.638 328.231 310.675 326.809C312.727 325.387 315.19 324.581 317.784 324.581C321.39 324.581 324.966 327.029 327.341 329.74L333.087 335.941C335.74 338.96 336.429 343.196 334.875 346.876Z" fill="#66B0F0"/>
<path d="M334.876 346.876L321.947 373.714C320.115 378.038 315.879 380.853 311.174 380.853H293.643C292.016 380.853 291.092 379.841 290.55 378.449H294.449C299.154 378.449 303.39 375.635 305.222 371.31L320.13 340.221C321.522 337.319 324.468 335.457 327.693 335.457C331.9 335.457 335.095 338.535 335.682 342.434C335.74 343.929 335.476 345.439 334.876 346.876Z" fill="white" stroke="#66B0F0" stroke-width="0.406086" stroke-miterlimit="10" stroke-linejoin="round"/>
<path d="M331.899 334.651C330.346 333.801 328.469 333.185 326.828 333.185C323.676 333.185 320.759 335.018 319.396 337.861L303.961 370.05C301.997 374.697 297.453 377.702 292.396 377.702H289.552C289.406 377.423 289.303 377.13 289.201 376.822H292.396C297.101 376.822 301.323 374.022 303.155 369.698L303.17 369.684L318.619 337.48C320.129 334.329 323.354 332.306 326.842 332.306C327.956 332.306 329.29 332.672 330.434 333.068L331.899 334.651Z" fill="white"/>
<path d="M277.915 250.074L274.235 298.138L272.594 319.67C272.594 319.67 261.879 331.602 249.683 324.244L244.04 298.152L231.126 238.451C227.638 222.312 238.661 206.613 255.033 204.429L277.915 250.074Z" fill="#A0505A"/>
<path d="M274.236 298.137L272.594 320.256C272.594 320.256 261.88 332.188 249.684 324.83L244.041 298.152C258.215 302.403 274.236 298.137 274.236 298.137Z" stroke="white" stroke-width="0.406086" stroke-miterlimit="10" stroke-linecap="round"/>
<path d="M257.394 311.432C258.576 311.432 259.534 310.474 259.534 309.292C259.534 308.11 258.576 307.152 257.394 307.152C256.212 307.152 255.254 308.11 255.254 309.292C255.254 310.474 256.212 311.432 257.394 311.432Z" stroke="white" stroke-width="0.406086" stroke-miterlimit="10" stroke-linecap="round"/>
<path d="M270.997 308.149C272.179 308.149 273.137 307.191 273.137 306.009C273.137 304.827 272.179 303.869 270.997 303.869C269.815 303.869 268.857 304.827 268.857 306.009C268.857 307.191 269.815 308.149 270.997 308.149Z" stroke="white" stroke-width="0.406086" stroke-miterlimit="10" stroke-linecap="round"/>
<path d="M249.185 305.247C250.367 305.247 251.326 304.289 251.326 303.107C251.326 301.925 250.367 300.967 249.185 300.967C248.004 300.967 247.045 301.925 247.045 303.107C247.045 304.289 248.004 305.247 249.185 305.247Z" stroke="white" stroke-width="0.406086" stroke-miterlimit="10" stroke-linecap="round"/>
<path d="M255.254 323.085C256.436 323.085 257.394 322.127 257.394 320.945C257.394 319.763 256.436 318.805 255.254 318.805C254.072 318.805 253.114 319.763 253.114 320.945C253.114 322.127 254.072 323.085 255.254 323.085Z" stroke="white" stroke-width="0.406086" stroke-miterlimit="10" stroke-linecap="round"/>
<path d="M265.236 318.805C266.418 318.805 267.376 317.847 267.376 316.665C267.376 315.483 266.418 314.525 265.236 314.525C264.054 314.525 263.096 315.483 263.096 316.665C263.096 317.847 264.054 318.805 265.236 318.805Z" stroke="white" stroke-width="0.406086" stroke-miterlimit="10" stroke-linecap="round"/>
<path d="M286.724 324.8L272.594 381.307H268.138C267.933 381.307 267.742 381.292 267.537 381.278C264.166 380.97 261.322 378.126 260.604 374.769L249.669 324.214C261.864 331.587 272.594 319.656 272.594 319.656L286.724 324.8Z" fill="#66B0F0"/>
<path d="M287.442 353.794C290.417 338.081 291.238 326.076 286.108 325.108C280.978 324.141 271.846 334.563 268.87 350.276C265.895 365.99 267.448 379.885 272.579 380.853C277.709 381.835 284.466 369.522 287.442 353.794Z" fill="white" stroke="#66B0F0" stroke-width="0.406086" stroke-miterlimit="10" stroke-linejoin="round"/>
<path d="M266.819 350.027C265.28 358.177 264.825 366.048 265.558 372.204C266.086 376.631 267.2 379.783 268.724 381.307H268.138C267.933 381.307 267.742 381.292 267.537 381.278C266.159 379.46 265.177 376.411 264.679 372.307C263.931 366.077 264.386 358.103 265.954 349.866C267.434 342.068 270.425 334.753 274.397 329.256C276.772 325.973 279.263 323.672 281.535 322.631L282.855 323.071C277.622 324.625 269.677 334.944 266.819 350.027Z" fill="white"/>
<path d="M255.033 204.415L321.903 197.525L388.743 216.273L388.171 225.156C387.262 239.169 375.184 250.074 361.142 250.074H277.929L255.033 204.415Z" fill="#FE5244"/>
<path d="M384.932 215.628C384.932 228.351 372.238 243.918 358.196 243.918H274.982" stroke="white" stroke-width="0.406086" stroke-miterlimit="10" stroke-linecap="round" stroke-linejoin="round"/>
<path d="M377.002 213.093C374.921 224.452 363.81 236.589 351.644 236.589H271.611" stroke="white" stroke-width="0.406086" stroke-miterlimit="10" stroke-linecap="round" stroke-linejoin="round"/>
<path d="M367.987 210.395C364.469 220.04 354.927 229.113 344.593 229.113H267.36" stroke="white" stroke-width="0.406086" stroke-miterlimit="10" stroke-linecap="round" stroke-linejoin="round"/>
<path d="M361.054 208.504C356.437 215.526 348.859 221.052 340.782 221.052H263.55" stroke="white" stroke-width="0.406086" stroke-miterlimit="10" stroke-linecap="round" stroke-linejoin="round"/>
<path d="M353.314 206.335C348.873 210.806 343.127 213.723 337.117 213.723H259.885" stroke="white" stroke-width="0.406086" stroke-miterlimit="10" stroke-linecap="round" stroke-linejoin="round"/>
<path d="M343.244 203.418C340.107 205.192 336.677 206.247 333.16 206.247H255.927" stroke="white" stroke-width="0.406086" stroke-miterlimit="10" stroke-linecap="round" stroke-linejoin="round"/>
<path d="M277.767 250.074L254.886 204.415" stroke="white" stroke-width="0.406086" stroke-miterlimit="10" stroke-linecap="round" stroke-linejoin="round"/>
<path d="M392.408 155.09C386.106 156.879 379.905 156.351 379.246 154.431C378.63 152.599 381.415 149.462 387.058 147.38C387.337 147.278 387.63 147.175 387.923 147.073C389.623 146.501 391.324 146.134 392.922 145.944C397.656 145.343 401.511 146.193 401.995 147.63C402.654 149.55 399.078 153.2 392.408 155.09Z" fill="white" stroke="#3FB1B5" stroke-width="0.406086" stroke-miterlimit="10" stroke-linejoin="round"/>
<path d="M388.422 197.833H386.003L379.656 154.988V154.958L379.495 153.888C379.803 151.939 382.852 149.183 388.231 147.395C390.913 146.501 393.581 146.105 395.853 146.061L398.169 152.408L398.389 153.009L405.718 173.105C410.115 185.11 401.218 197.833 388.422 197.833Z" fill="#A0505A"/>
<path d="M398.316 152.862C396.777 153.83 394.783 154.724 392.409 155.398C386.956 156.937 381.43 156.307 379.656 154.988V154.958L379.495 153.888C379.803 151.939 382.852 149.183 388.231 147.395C390.913 146.501 393.581 146.105 395.853 146.061L398.316 152.862Z" fill="#73325A"/>
<path d="M309.914 162.581L302.218 181.724C298.422 191.179 289.246 197.379 279.044 197.379H175.603V187.91C175.603 185.623 177.01 183.571 179.15 182.765L189.777 178.734C190.744 178.368 191.756 178.177 192.782 178.177H204.845L273.122 171.288L284.907 144.302L309.914 162.581Z" fill="#A0505A"/>
<path d="M186.743 184.553L178.725 187.587C177.113 188.203 176.042 189.742 176.042 191.472" stroke="#73325A" stroke-width="0.406086" stroke-miterlimit="10" stroke-linecap="round"/>
<path d="M186.743 189.39L178.725 192.424C177.113 193.04 176.042 194.579 176.042 196.309" stroke="#73325A" stroke-width="0.406086" stroke-miterlimit="10" stroke-linecap="round"/>
<path d="M186.743 194.052L178.725 196.939" stroke="#73325A" stroke-width="0.406086" stroke-miterlimit="10" stroke-linecap="round"/>
<path d="M185.907 180.361C185.907 180.361 193.412 161.203 195.816 161.526C198.22 161.848 189.161 179.13 189.161 179.13L185.907 180.361Z" fill="#FE5244"/>
<path d="M284.907 144.317L283.177 148.26L305.325 173.985L309.913 162.581L284.907 144.317Z" fill="#73325A"/>
<path d="M379.656 155.003L388.743 216.273L321.918 197.525L309.913 162.566L278.926 139.92L289.802 126.962C299.506 115.397 313.827 108.713 328.924 108.713H350.398C369.073 108.713 386.266 118.915 395.222 135.302L402.185 147.351C402.185 147.351 400.089 144.273 388.787 147.366C378.835 150.107 379.656 155.003 379.656 155.003Z" fill="#3FB1B5"/>
<path d="M309.913 162.288L313.387 147.219" stroke="white" stroke-width="0.406086" stroke-miterlimit="10" stroke-linecap="round" stroke-linejoin="round"/>
<path d="M387.058 201.967L375.757 131.711" stroke="white" stroke-width="0.406086" stroke-miterlimit="10" stroke-linecap="round" stroke-linejoin="round"/>
<path d="M321.903 197.247L388.597 216.273" stroke="white" stroke-width="0.406086" stroke-miterlimit="10" stroke-linecap="round" stroke-linejoin="round"/>
<path d="M325.509 98.9213V108.771L342.893 108.625V91.2405L325.509 98.9213Z" fill="#A0505A"/>
<path d="M344.3 88.2062V88.47C344.3 91.1085 342.307 93.2485 339.668 93.2485H338.642C337.983 95.8576 332.12 98.9065 327.957 98.9065H323.105C317.799 98.9065 313.738 94.1427 314.603 88.8951L314.838 87.4733L313.401 86.6671C312.581 86.198 312.346 85.128 312.918 84.3658L316.025 80.2616L316.699 76.216C317.242 72.8886 319.426 70.1769 322.328 68.843C323.471 81.7274 334.846 83.2518 337.851 83.4277H339.522C342.16 83.4277 344.3 85.5678 344.3 88.2062Z" fill="#A0505A"/>
<path d="M336.605 89.4666C336.605 87.3851 338.29 85.6995 340.372 85.6995" stroke="#73325A" stroke-width="0.406086" stroke-miterlimit="10" stroke-linecap="round"/>
<path d="M320.715 83.5596C321.128 83.5596 321.463 82.7852 321.463 81.83C321.463 80.8747 321.128 80.1003 320.715 80.1003C320.302 80.1003 319.968 80.8747 319.968 81.83C319.968 82.7852 320.302 83.5596 320.715 83.5596Z" fill="#73325A"/>
<path d="M319.572 76.4801C319.572 76.4801 321.639 76.2749 323.764 79.2065" stroke="#73325A" stroke-width="0.406086" stroke-miterlimit="10" stroke-linecap="round"/>
<path d="M337.851 83.4278H339.522C342.16 83.4278 344.301 85.5679 344.301 88.2063V88.4701C344.301 91.1086 342.307 93.2486 339.669 93.2486L338.54 94.0401C333.791 97.089 327.224 109.079 328.836 117.566C330.654 127.109 338.965 129.234 346.646 127.768C354.327 126.302 359.926 121.832 358.108 112.275C357.903 111.146 357.566 110.017 357.141 108.903C357.273 108.947 357.39 108.991 357.522 109.035C366.757 111.556 377.603 111.85 380.594 104.638C383.584 97.4261 382.91 90.2877 373.924 86.5646C368.706 84.3952 361.612 84.4099 356.115 85.905C358.885 76.2747 353.96 65.5597 344.916 64.4897C330.713 62.804 322.563 68.6672 322.343 68.8285C322.328 70.5288 323.486 82.5923 337.851 83.4278Z" fill="#73325A"/>
<path d="M356.481 85.5681C355.323 89.3352 352.934 93.3662 349.05 96.1072C349.05 96.1072 355.909 100.636 357.522 109.05" stroke="white" stroke-width="0.406086" stroke-miterlimit="10" stroke-linecap="round" stroke-linejoin="round"/>
<path d="M360.469 85.2456H356.585V81.3613C356.585 79.3238 358.226 77.6821 360.264 77.6821H360.469C362.507 77.6821 364.148 79.3238 364.148 81.3613V81.5665C364.163 83.5893 362.507 85.2456 360.469 85.2456Z" stroke="#FE5244" stroke-width="0.406086" stroke-miterlimit="10" stroke-linejoin="round"/>
<path d="M359.048 89.2328L356.556 85.2751L360.513 82.7833C362.492 81.5373 365.116 82.1236 366.362 84.1025L366.596 84.4689C367.842 86.4477 367.256 89.0715 365.277 90.3175L364.911 90.552C362.903 91.7979 360.293 91.2116 359.048 89.2328Z" stroke="#FE5244" stroke-width="0.406086" stroke-miterlimit="10" stroke-linejoin="round"/>
<path d="M336.093 96.2979L338.863 93.6448L341.575 96.7083C342.909 98.2474 342.733 100.578 341.194 101.897L341.033 102.029C339.494 103.363 337.163 103.187 335.844 101.648L335.712 101.487C334.378 99.9624 334.554 97.6317 336.093 96.2979Z" stroke="#FE5244" stroke-width="0.406086" stroke-miterlimit="10" stroke-linejoin="round"/>
<path d="M340.139 98.2034L338.893 93.7034L343.393 92.4574C345.65 91.8272 347.981 93.1464 348.611 95.4037L348.728 95.8288C349.358 98.0861 348.039 100.417 345.782 101.047L345.357 101.164C343.099 101.78 340.769 100.446 340.139 98.2034Z" stroke="#FE5244" stroke-width="0.406086" stroke-miterlimit="10" stroke-linejoin="round"/>
<path d="M300.136 261.346L274.602 380.853" stroke="#FFCF2D" stroke-width="0.406086" stroke-miterlimit="10" stroke-linecap="round"/>
<path d="M365.481 261.346L391.016 380.853" stroke="#FFCF2D" stroke-width="0.406086" stroke-miterlimit="10" stroke-linecap="round"/>
<path d="M280.26 354.322H385.006" stroke="#FFCF2D" stroke-width="0.406086" stroke-miterlimit="10" stroke-linecap="round"/>
<path d="M385.577 261.346H280.025C278.691 261.346 277.607 260.262 277.607 258.928V252.493C277.607 251.159 278.691 250.074 280.025 250.074H385.577C386.911 250.074 387.996 251.159 387.996 252.493V258.928C387.996 260.262 386.911 261.346 385.577 261.346Z" fill="white" stroke="#66B0F0" stroke-width="0.406086" stroke-miterlimit="10" stroke-linejoin="round"/>
</svg>
