<svg width="474" height="349" viewBox="0 0 474 349" fill="none" xmlns="http://www.w3.org/2000/svg">
<path d="M136.019 194.273L120.934 346.852" stroke="#66B0F0" stroke-width="0.724279" stroke-miterlimit="10" stroke-linecap="round"/>
<path d="M197.421 194.273L212.507 346.852" stroke="#66B0F0" stroke-width="0.724279" stroke-miterlimit="10" stroke-linecap="round"/>
<path d="M125.642 302.232C125.642 302.232 161.977 283.046 207.926 302.232" stroke="#66B0F0" stroke-width="0.724279" stroke-miterlimit="10" stroke-linecap="round"/>
<path d="M205.946 194.273H129.374C124.284 194.273 120.156 190.145 120.156 185.055V181.209H215.164V185.041C215.164 190.145 211.036 194.273 205.946 194.273Z" fill="#D0F0E4" stroke="#66B0F0" stroke-width="0.724279" stroke-miterlimit="10" stroke-linejoin="round"/>
<path d="M151.528 249.934L148.728 253.087C147.018 255.024 147.187 257.979 149.124 259.69C150.086 260.552 151.316 260.934 152.503 260.863C153.705 260.792 154.864 260.269 155.727 259.294L158.696 255.957C158.696 255.943 158.71 255.095 158.71 255.081C157.381 254.359 155.826 254.105 154.285 252.734C153.238 251.8 152.305 250.853 151.528 249.934Z" stroke="#9A3B82" stroke-width="0.362139" stroke-miterlimit="10" stroke-linecap="round"/>
<path d="M139.242 256.183L152.744 243.812L168.451 249.439L152.871 271.877C151.627 273.672 149.138 274.096 147.357 272.824L139.878 267.423C136.174 264.723 135.849 259.28 139.242 256.183Z" fill="white" stroke="#FE5244" stroke-width="0.603566" stroke-miterlimit="10"/>
<path d="M204.433 180.318C205.324 184.672 204.687 189.409 202.171 193.65L168.974 249.425C168.663 250.683 164.662 250.881 160.053 249.793C155.43 248.704 151.938 246.767 152.235 245.509L167.688 179.752C170.063 169.644 180.186 163.366 190.309 165.742C197.859 167.523 203.033 173.461 204.433 180.318Z" fill="#E57281"/>
<path d="M204.772 185.436C202.708 183.81 200.248 182.594 197.463 181.944C187.354 179.569 177.231 185.832 174.842 195.955L162.089 250.217C161.425 250.118 160.746 249.976 160.039 249.807C155.416 248.718 151.924 246.781 152.221 245.523L167.674 179.767C170.049 169.658 180.172 163.38 190.295 165.756C197.844 167.537 203.019 173.475 204.433 180.332C204.786 181.986 204.899 183.711 204.772 185.436Z" fill="#9A3B82"/>
<path d="M160.732 209.372L152.235 245.509C151.938 246.767 155.43 248.718 160.053 249.793C164.676 250.881 168.678 250.683 168.974 249.425L188.881 215.988L160.732 209.372Z" fill="#D82F25"/>
<path d="M188.881 215.988L160.732 209.372" stroke="white" stroke-width="0.724279" stroke-miterlimit="10" stroke-linecap="round"/>
<path opacity="0.7" d="M159.785 213.783L186.463 220.06" stroke="white" stroke-width="0.724279" stroke-miterlimit="10" stroke-linecap="round"/>
<path opacity="0.7" d="M158.597 218.816L183.649 224.712" stroke="white" stroke-width="0.724279" stroke-miterlimit="10" stroke-linecap="round"/>
<path opacity="0.7" d="M157.409 223.863L180.836 229.363" stroke="white" stroke-width="0.724279" stroke-miterlimit="10" stroke-linecap="round"/>
<path opacity="0.7" d="M156.236 228.897L178.023 234.015" stroke="white" stroke-width="0.724279" stroke-miterlimit="10" stroke-linecap="round"/>
<path opacity="0.7" d="M155.048 233.93L175.223 238.666" stroke="white" stroke-width="0.724279" stroke-miterlimit="10" stroke-linecap="round"/>
<path opacity="0.7" d="M153.86 238.963L172.41 243.317" stroke="white" stroke-width="0.724279" stroke-miterlimit="10" stroke-linecap="round"/>
<path opacity="0.7" d="M152.673 243.996L169.808 248.025" stroke="white" stroke-width="0.724279" stroke-miterlimit="10" stroke-linecap="round"/>
<path d="M168.791 273.008V182.778C168.791 172.387 160.364 163.975 149.987 163.975C137.277 163.975 128.228 176.303 132.046 188.434L151.599 250.33L148.743 267.169C147.994 271.665 150.666 276.033 155.006 277.405L160.435 279.13C164.563 280.43 168.791 277.348 168.791 273.008Z" fill="#E57281"/>
<path d="M168.791 211.79V250.33C168.791 251.631 164.946 252.719 160.195 252.719C155.459 252.719 151.599 251.617 151.599 250.316L139.455 211.79H168.791Z" fill="#FE5244"/>
<path d="M139.44 211.366H168.791L168.932 248.916" stroke="white" stroke-width="0.724279" stroke-miterlimit="10" stroke-linecap="round"/>
<path d="M148.743 267.155C147.994 271.65 150.666 276.019 155.006 277.391L160.435 279.115C164.564 280.43 168.791 277.348 168.791 273.008L168.31 250.33C168.31 251.631 164.945 252.72 160.209 252.72C155.473 252.72 151.938 251.292 151.924 249.991L148.743 267.155Z" fill="white" stroke="#FE5244" stroke-width="0.603566" stroke-miterlimit="10"/>
<path d="M164.111 255.519V259.732C164.111 262.319 162.019 264.412 159.432 264.412C158.145 264.412 156.972 263.889 156.123 263.04C155.275 262.192 154.752 261.019 154.752 259.732V255.264C154.752 255.25 154.752 255.25 154.752 255.236C156.236 255.575 158.131 255.787 160.181 255.787C161.609 255.787 162.938 255.688 164.111 255.519Z" fill="#FE5244"/>
<path d="M168.353 217.728H141.292" stroke="white" stroke-width="0.724279" stroke-miterlimit="10" stroke-linecap="round"/>
<path d="M168.353 222.902H142.961" stroke="white" stroke-width="0.724279" stroke-miterlimit="10" stroke-linecap="round"/>
<path d="M168.353 228.063H144.629" stroke="white" stroke-width="0.724279" stroke-miterlimit="10" stroke-linecap="round"/>
<path d="M168.352 233.237H146.297" stroke="white" stroke-width="0.724279" stroke-miterlimit="10" stroke-linecap="round"/>
<path d="M168.353 238.412H147.98" stroke="white" stroke-width="0.724279" stroke-miterlimit="10" stroke-linecap="round"/>
<path d="M168.352 243.586H149.647" stroke="white" stroke-width="0.724279" stroke-miterlimit="10" stroke-linecap="round"/>
<path d="M168.353 248.761H151.104" stroke="white" stroke-width="0.724279" stroke-miterlimit="10" stroke-linecap="round"/>
<path d="M298.014 223.497H309.31C318.259 223.497 325.512 230.749 325.512 239.699V307.915C325.512 316.865 318.259 324.117 309.31 324.117H304.871C299.71 324.117 295.525 328.302 295.525 333.463" stroke="#66B0F0" stroke-width="0.724279" stroke-miterlimit="10" stroke-linecap="round"/>
<path d="M295.95 346.852C300.4 346.852 304.008 343.244 304.008 338.793C304.008 334.342 300.4 330.734 295.95 330.734C291.499 330.734 287.891 334.342 287.891 338.793C287.891 343.244 291.499 346.852 295.95 346.852Z" fill="white" stroke="#66B0F0" stroke-width="0.724279" stroke-miterlimit="10" stroke-linejoin="round"/>
<path d="M294.366 223.497H363.487C366.598 223.497 369.114 220.98 369.114 217.87V213.133C369.114 210.023 366.598 207.506 363.487 207.506H294.366C290.789 207.506 287.891 210.405 287.891 213.982V217.007C287.891 220.598 290.789 223.497 294.366 223.497Z" fill="#D0F0E4" stroke="#66B0F0" stroke-width="0.724279" stroke-miterlimit="10" stroke-linejoin="round"/>
<path d="M359.034 223.496H347.738C338.789 223.496 331.536 230.749 331.536 239.699V307.915C331.536 316.865 338.789 324.117 347.738 324.117H352.177C357.338 324.117 361.523 328.302 361.523 333.463" stroke="#66B0F0" stroke-width="0.724279" stroke-miterlimit="10" stroke-linecap="round"/>
<path d="M361.112 346.852C365.563 346.852 369.171 343.244 369.171 338.793C369.171 334.342 365.563 330.734 361.112 330.734C356.661 330.734 353.053 334.342 353.053 338.793C353.053 343.244 356.661 346.852 361.112 346.852Z" fill="white" stroke="#66B0F0" stroke-width="0.724279" stroke-miterlimit="10" stroke-linejoin="round"/>
<path d="M233.234 316.37L238.324 326.79C240.034 330.296 240.925 334.127 240.925 338.001V345.904C240.925 347.276 239.78 348.393 238.366 348.393H180.23C178.689 348.393 177.445 347.177 177.445 345.678V343.232C177.445 342.243 177.996 341.338 178.887 340.857C184.924 337.619 204.42 327.496 208.195 316.681L233.234 316.37Z" fill="white" stroke="#FFCF2D" stroke-width="0.724279" stroke-miterlimit="10"/>
<path d="M240.571 333.788H236.019C231.806 333.788 227.889 335.923 225.684 339.415L223.747 342.497C222.588 344.335 220.538 345.452 218.332 345.452H177.473" fill="white"/>
<path d="M240.571 333.788H236.019C231.806 333.788 227.889 335.923 225.684 339.415L223.747 342.497C222.588 344.335 220.538 345.452 218.332 345.452H177.473" stroke="#FFCF2D" stroke-width="0.724279" stroke-miterlimit="10"/>
<path d="M237.051 324.188C232.682 324.33 226.885 323.877 219.887 322.605C215.292 321.771 210.924 320.498 207.12 319.07C207.559 318.278 207.912 317.487 208.195 316.695L233.233 316.37L237.051 324.188Z" fill="#FFCF2D"/>
<path d="M196.078 330.353L200.687 323.043C202.412 320.315 200.503 316.738 197.28 316.653C194.367 316.568 192.261 319.438 193.222 322.195L196.078 330.353Z" stroke="#FE5244" stroke-width="0.724279" stroke-miterlimit="10" stroke-linecap="round" stroke-linejoin="round"/>
<path d="M195.824 330.395L190.79 326.252C188.91 324.711 186.054 325.786 185.687 328.204C185.347 330.381 187.298 332.219 189.447 331.766L195.824 330.395Z" stroke="#FE5244" stroke-width="0.724279" stroke-miterlimit="10" stroke-linecap="round" stroke-linejoin="round"/>
<path d="M195.372 330.183H206.809" stroke="#FE5244" stroke-width="0.724279" stroke-miterlimit="10" stroke-linecap="round" stroke-linejoin="round"/>
<path d="M192.034 333.378H203.458" stroke="#FE5244" stroke-width="0.724279" stroke-miterlimit="10" stroke-linecap="round" stroke-linejoin="round"/>
<path d="M200.503 326.832H211.644" stroke="#FE5244" stroke-width="0.724279" stroke-miterlimit="10" stroke-linecap="round" stroke-linejoin="round"/>
<path d="M301.195 170.648L274.969 180.573L249.747 311.931C248.729 314.334 235.354 317.784 222.87 317.784C209.722 317.784 199.076 314.122 199.076 311.535L214.571 190.88C216.593 174.96 230.137 163.014 246.198 163.014H300.7L300.955 170.634L301.195 170.648Z" fill="white" stroke="#3FB1B5" stroke-width="0.724279" stroke-miterlimit="10" stroke-linecap="round"/>
<path d="M222.149 317.755L237.446 198.642C239.44 182.92 253.691 170.846 277.146 170.846" stroke="#3FB1B5" stroke-width="0.724279" stroke-miterlimit="10" stroke-linecap="round"/>
<path d="M289.022 169.235L260.788 255.576L249.789 220.4C243.003 197.907 255.232 169.235 289.022 169.235Z" fill="#3FB1B5"/>
<path d="M319.984 315.847L330.15 341.168C331.564 344.675 328.778 348.421 324.763 348.421H286.477C284.583 348.421 283.042 346.993 283.042 345.212V342.667C283.042 341.508 283.409 340.391 284.116 339.429L290.832 332.092C294.748 327.822 296.897 322.379 296.897 316.766V316.695L319.984 315.847Z" fill="white" stroke="#FFCF2D" stroke-width="0.724279" stroke-miterlimit="10"/>
<path d="M285.53 337.931C287.651 336.941 289.984 336.418 292.359 336.418H304.645C306.822 336.418 308.971 336.856 310.95 337.705L315.446 339.613" fill="white"/>
<path d="M285.53 337.931C287.651 336.941 289.984 336.418 292.359 336.418H304.645C306.822 336.418 308.971 336.856 310.95 337.705L315.446 339.613" stroke="#FFCF2D" stroke-width="0.724279" stroke-miterlimit="10"/>
<path d="M320.465 317.006C319.674 320.131 309.169 322.619 296.331 322.619H296.119C296.642 320.711 296.911 318.745 296.911 316.752V316.681L319.999 315.847L320.465 317.006Z" fill="#FFCF2D"/>
<path d="M300.474 328.501L308.207 328.43C311.402 328.387 313.339 324.895 311.685 322.167C310.187 319.693 306.68 319.495 304.913 321.785L300.474 328.501Z" stroke="#FE5244" stroke-width="0.724279" stroke-miterlimit="10" stroke-linejoin="round"/>
<path d="M300.474 328.501L296.43 323.482C294.918 321.601 291.934 322.082 291.1 324.344C290.337 326.38 291.85 328.557 294.027 328.543L300.474 328.501Z" stroke="#FE5244" stroke-width="0.724279" stroke-miterlimit="10" stroke-linejoin="round"/>
<path d="M296.176 331.385H312.93" stroke="#FE5244" stroke-width="0.724279" stroke-miterlimit="10" stroke-linecap="round" stroke-linejoin="round"/>
<path d="M328.864 309.117C328.864 312.185 317.78 317.939 306.215 317.939C295.823 317.939 287.213 315.875 285.587 313.26L257 221.814C249.069 195.56 268.721 169.093 296.134 169.093H300.828L300.164 145.511H358.865L364.648 169.503C369.313 188.873 354.638 207.987 334.717 207.987H308.364L328.864 309.117Z" fill="white" stroke="#3FB1B5" stroke-width="0.724279" stroke-miterlimit="10" stroke-linecap="round"/>
<path d="M310.64 317.501L283.622 231.061C273.909 202.997 284.809 188.293 310.725 188.293H334.349C341.828 188.293 347.894 182.228 347.894 174.749V145.568" stroke="#3FB1B5" stroke-width="0.724279" stroke-miterlimit="10" stroke-linecap="round"/>
<path d="M445.177 181.209H6.99414C5.26929 181.209 4.61894 178.947 6.07516 178.028L83.552 140.336H372.111L445.969 178.537C447.184 179.343 446.619 181.209 445.177 181.209Z" fill="white" stroke="#66B0F0" stroke-width="0.724279" stroke-miterlimit="10" stroke-linejoin="round"/>
<path d="M433.485 177.01H18.1352C16.2125 177.01 15.4773 174.48 17.1173 173.448L83.9764 140.76H371.447L434.545 173.476C436.129 174.522 435.393 177.01 433.485 177.01Z" fill="#D0F0E4"/>
<path d="M29.7711 181.209L1 346.851" stroke="#66B0F0" stroke-width="0.724279" stroke-miterlimit="10" stroke-linecap="round"/>
<path d="M44.772 181.209L73.543 346.851" stroke="#66B0F0" stroke-width="0.724279" stroke-miterlimit="10" stroke-linecap="round"/>
<path d="M406.226 181.209L377.455 346.851" stroke="#66B0F0" stroke-width="0.724279" stroke-miterlimit="10" stroke-linecap="round"/>
<path d="M421.227 181.209L449.998 346.851" stroke="#66B0F0" stroke-width="0.724279" stroke-miterlimit="10" stroke-linecap="round"/>
<path d="M83.058 134.299L78.9862 163.127C78.7459 164.837 77.2896 166.096 75.5648 166.096H67.605C65.8802 166.096 64.4239 164.823 64.1836 163.127L60.1118 134.299C60.1118 136.886 65.2439 138.979 71.5778 138.979C77.9258 138.979 83.058 136.872 83.058 134.299Z" fill="white" stroke="#66B0F0" stroke-width="0.724279" stroke-miterlimit="10" stroke-linejoin="round"/>
<path d="M80.4988 137.381L76.8653 162.9C76.5967 164.809 74.9425 166.237 73.0197 166.237H70.2911C68.3683 166.237 66.7141 164.809 66.4455 162.9L62.812 137.452C63.0948 137.579 63.4058 137.692 63.7169 137.805L67.2797 162.787C67.4776 164.159 68.5804 165.219 69.9376 165.375C70.0507 165.389 70.1638 165.403 70.2911 165.403H73.0197C73.1894 165.403 73.3591 165.389 73.5146 165.361C74.8011 165.148 75.8332 164.116 76.017 162.787L79.5798 137.749C79.9191 137.636 80.216 137.508 80.4988 137.381Z" fill="#66B0F0"/>
<path d="M76.7523 138.512L73.5146 165.361L73.4722 165.728C73.4439 165.94 73.2601 166.096 73.0481 166.096C73.0339 166.096 73.0198 166.096 72.9915 166.096C72.7512 166.068 72.5956 165.855 72.6239 165.629L72.6522 165.403L75.8757 138.668C76.1867 138.611 76.4695 138.555 76.7523 138.512Z" fill="#66B0F0"/>
<path d="M70.4605 166.096C70.4463 166.096 70.4322 166.096 70.4039 166.096C70.1918 166.096 70.008 165.94 69.9798 165.728L69.9373 165.375L66.6997 138.569C66.9825 138.625 67.2794 138.668 67.5763 138.71L70.7998 165.403L70.828 165.629C70.8563 165.855 70.6867 166.067 70.4605 166.096Z" fill="#66B0F0"/>
<path d="M83.4679 134.299C83.4679 135.487 82.3509 136.561 80.513 137.395C80.2302 137.522 79.9192 137.65 79.6081 137.763C78.7599 138.06 77.8126 138.328 76.7664 138.526C76.4836 138.583 76.1867 138.625 75.8898 138.682C74.6598 138.866 73.3167 138.979 71.917 138.993C71.8039 138.993 71.7049 138.993 71.5918 138.993C71.4363 138.993 71.2808 138.993 71.1253 138.993C69.8811 138.979 68.6935 138.88 67.5907 138.724C67.2938 138.682 67.0111 138.639 66.7142 138.583C65.6256 138.385 64.6217 138.13 63.731 137.819C63.42 137.706 63.109 137.593 62.8262 137.466C60.8893 136.632 59.7158 135.529 59.7158 134.313C59.7158 134.214 59.73 134.115 59.7441 134.016C60.14 131.57 65.2862 129.648 71.5918 129.648C77.8974 129.648 83.0578 131.584 83.4396 134.016C83.4537 134.101 83.4679 134.2 83.4679 134.299Z" fill="#66B0F0"/>
<path d="M72.0863 165.304C72.0863 165.332 72.0863 165.375 72.0722 165.403C72.0298 165.587 71.8601 165.728 71.6622 165.728C71.4643 165.728 71.2946 165.587 71.2522 165.403C71.2381 165.375 71.2381 165.346 71.2381 165.318L71.0967 139.134C71.0967 139.078 71.1108 139.035 71.1249 138.979C71.2805 138.979 71.436 138.979 71.5915 138.979C71.7046 138.979 71.8177 138.979 71.9167 138.979C71.9308 139.021 71.945 139.064 71.945 139.12L72.0863 165.304Z" fill="#66B0F0"/>
<path d="M71.6628 138.116C69.1462 138.046 66.8417 137.664 64.9754 137.056L58.3022 109.077H64.7351L71.6628 138.116Z" fill="#FFCF2D"/>
<path d="M65.5686 112.611H62.9389C62.741 112.611 62.5854 112.456 62.5854 112.258C62.5854 112.06 62.741 111.904 62.9389 111.904H65.3989L65.5686 112.611Z" fill="white"/>
<path d="M66.2751 115.58H63.6454C63.4475 115.58 63.292 115.425 63.292 115.227C63.292 115.029 63.4475 114.874 63.6454 114.874H66.1055L66.2751 115.58Z" fill="white"/>
<path d="M66.9822 118.549H64.3525C64.1545 118.549 63.999 118.394 63.999 118.196C63.999 117.998 64.1545 117.842 64.3525 117.842H66.8125L66.9822 118.549Z" fill="white"/>
<path d="M67.7039 121.519H65.0742C64.8762 121.519 64.7207 121.363 64.7207 121.165C64.7207 120.967 64.8762 120.812 65.0742 120.812H67.5342L67.7039 121.519Z" fill="white"/>
<path d="M68.4109 124.487H65.7812C65.5833 124.487 65.4277 124.332 65.4277 124.134C65.4277 123.936 65.5833 123.781 65.7812 123.781H68.2412L68.4109 124.487Z" fill="white"/>
<path d="M69.1176 127.456H66.6152C66.4172 127.456 66.2617 127.301 66.2617 127.103C66.2617 126.905 66.4172 126.749 66.6152 126.749H68.948L69.1176 127.456Z" fill="white"/>
<path d="M69.8244 130.425H67.1806C66.9827 130.425 66.8271 130.27 66.8271 130.072C66.8271 129.874 66.9827 129.718 67.1806 129.718H69.6548L69.8244 130.425Z" fill="white"/>
<path d="M70.5315 133.395H67.8876C67.6897 133.395 67.5342 133.239 67.5342 133.041C67.5342 132.843 67.6897 132.688 67.8876 132.688H70.3618L70.5315 133.395Z" fill="white"/>
<path d="M71.2383 136.349C71.21 136.363 71.1817 136.363 71.1393 136.363H68.4531C68.2551 136.363 68.0996 136.208 68.0996 136.01C68.0996 135.812 68.2551 135.657 68.4531 135.657H71.0686L71.2383 136.349Z" fill="white"/>
<path d="M119.944 169.503C119.944 169.503 119.93 169.517 119.944 169.503L119.35 171.666C119.336 171.723 119.294 171.751 119.251 171.737L88.7128 162.618C88.6703 162.604 88.6562 162.547 88.6703 162.505L89.25 160.356C89.25 160.327 89.2783 160.313 89.2924 160.299C89.3066 160.285 89.3348 160.285 89.349 160.285L119.887 169.404C119.901 169.404 119.916 169.432 119.93 169.446C119.944 169.461 119.944 169.489 119.944 169.503Z" fill="#FE5244"/>
<path d="M89.7026 160.412L89.0805 162.717C89.0381 162.872 88.9108 162.971 88.7836 162.943L88.0908 162.731C87.9777 162.703 87.907 162.533 87.9495 162.377L88.5715 160.073C88.6139 159.917 88.7412 159.818 88.8684 159.847L89.5612 160.059C89.6743 160.087 89.745 160.243 89.7026 160.412Z" fill="#FFCF2D"/>
<path d="M86.8894 160.242L86.6066 161.317C86.5218 161.614 86.7056 161.925 87.0166 162.024L87.9922 162.307L88.5718 160.143L87.5963 159.861C87.2853 159.776 86.9742 159.945 86.8894 160.242Z" fill="#FE5244"/>
<path d="M119.858 169.489L120.777 170.422L121.484 171.143L120.523 171.369L119.279 171.652L119.858 169.489Z" fill="white"/>
<path d="M121.555 171.157C121.541 171.214 121.512 171.242 121.484 171.242L119.279 171.751C119.25 171.751 119.222 171.751 119.208 171.723C119.194 171.694 119.194 171.666 119.194 171.638L119.774 169.489C119.788 169.46 119.802 169.432 119.83 169.418C119.858 169.404 119.887 169.404 119.901 169.432L121.527 171.086C121.555 171.086 121.569 171.115 121.555 171.157ZM119.392 171.525L121.3 171.086L119.901 169.658L119.392 171.525Z" fill="#FE5244"/>
<path d="M120.778 170.422L121.485 171.143L120.523 171.369L120.778 170.422Z" fill="#F0E1D4"/>
<path d="M121.555 171.157C121.541 171.214 121.513 171.242 121.485 171.242L120.523 171.468C120.495 171.468 120.467 171.468 120.453 171.44C120.438 171.412 120.438 171.383 120.438 171.355L120.693 170.422C120.707 170.394 120.721 170.365 120.75 170.351C120.778 170.337 120.806 170.337 120.82 170.365L121.527 171.086C121.555 171.086 121.57 171.115 121.555 171.157Z" fill="#FE5244"/>
<path d="M76.8371 119.327C76.8371 119.412 76.8371 119.511 76.823 119.595L74.5185 137.975C73.5995 138.074 72.6523 138.131 71.6626 138.131L72.7936 119.2C72.8643 118.139 73.7409 117.305 74.8154 117.305C75.9464 117.305 76.8371 118.224 76.8371 119.327Z" fill="#FE5244"/>
<path d="M395.17 291.345H423.192C424.068 288.207 426.938 285.902 430.36 285.902H402.338C398.917 285.902 396.047 288.207 395.17 291.345Z" fill="#3FB1B5"/>
<path d="M402.578 286.355C406.678 286.355 410.015 289.691 410.015 293.791V301.228H438.037V293.791C438.037 289.677 434.7 286.355 430.6 286.355H402.578Z" fill="white" stroke="#3FB1B5" stroke-width="0.724279" stroke-miterlimit="10" stroke-linecap="round"/>
<path d="M452.373 290.766H426.797L428.352 297.863H453.928L452.373 290.766Z" fill="white" stroke="#FFCF2D" stroke-width="0.724279" stroke-miterlimit="10"/>
<path d="M465.507 346.837H405.859C410.651 346.837 414.214 342.398 413.168 337.718L404.982 300.945C404.586 299.135 402.974 297.849 401.122 297.849H460.771C462.623 297.849 464.221 299.135 464.631 300.945L472.817 337.718C473.863 342.398 470.3 346.837 465.507 346.837Z" fill="white" stroke="#FFCF2D" stroke-width="0.724279" stroke-miterlimit="10"/>
<path d="M449.602 298.428L452.557 311.704C454.267 319.367 448.428 326.648 440.582 326.648H438.079C428.663 326.648 420.52 320.116 418.47 310.926L415.684 298.428" stroke="#D0F0E4" stroke-width="1.20713" stroke-miterlimit="10"/>
<path d="M452.571 298.287L455.526 311.563C457.236 319.226 451.397 326.507 443.551 326.507H441.048C431.632 326.507 423.489 319.975 421.439 310.785L418.654 298.287" stroke="#FFCF2D" stroke-width="1.20713" stroke-miterlimit="10" stroke-linecap="round"/>
<path d="M405.858 346.837H396.018C391.225 346.837 387.663 342.398 388.709 337.718L396.895 300.945C397.291 299.135 398.902 297.849 400.754 297.849H401.15C403.002 297.849 404.6 299.135 405.01 300.945L413.196 337.718C414.214 342.398 410.651 346.837 405.858 346.837Z" fill="#FFCF2D" stroke="#FFCF2D" stroke-width="0.724279" stroke-miterlimit="10"/>
<path d="M401.122 297.863V338.326" stroke="white" stroke-width="0.724279" stroke-miterlimit="10"/>
<path d="M391.748 345.508L401.108 338.213L410.411 345.565" stroke="white" stroke-width="0.724279" stroke-miterlimit="10" stroke-linecap="round"/>
<path d="M329.584 56.8221L358.044 64.8526C370.499 68.2599 379.533 79.0614 380.665 91.9271L385.005 139.926H234.392L248.303 85.9891C250.58 76.9972 257.394 69.8716 266.273 67.1995L299.512 56.8221H329.584Z" fill="#FE5244"/>
<path d="M242.86 135.783C243.618 135.783 244.232 135.169 244.232 134.412C244.232 133.655 243.618 133.041 242.86 133.041C242.103 133.041 241.489 133.655 241.489 134.412C241.489 135.169 242.103 135.783 242.86 135.783Z" fill="white"/>
<path d="M257.14 135.783C257.897 135.783 258.511 135.169 258.511 134.412C258.511 133.654 257.897 133.04 257.14 133.04C256.382 133.04 255.768 133.654 255.768 134.412C255.768 135.169 256.382 135.783 257.14 135.783Z" fill="white"/>
<path d="M271.419 135.783C272.177 135.783 272.791 135.169 272.791 134.412C272.791 133.654 272.177 133.04 271.419 133.04C270.662 133.04 270.048 133.654 270.048 134.412C270.048 135.169 270.662 135.783 271.419 135.783Z" fill="white"/>
<path d="M285.699 135.783C286.456 135.783 287.07 135.169 287.07 134.412C287.07 133.654 286.456 133.04 285.699 133.04C284.941 133.04 284.327 133.654 284.327 134.412C284.327 135.169 284.941 135.783 285.699 135.783Z" fill="white"/>
<path d="M299.978 135.783C300.735 135.783 301.349 135.169 301.349 134.412C301.349 133.654 300.735 133.04 299.978 133.04C299.221 133.04 298.607 133.654 298.607 134.412C298.607 135.169 299.221 135.783 299.978 135.783Z" fill="white"/>
<path d="M314.258 135.783C315.015 135.783 315.629 135.169 315.629 134.412C315.629 133.654 315.015 133.04 314.258 133.04C313.5 133.04 312.886 133.654 312.886 134.412C312.886 135.169 313.5 135.783 314.258 135.783Z" fill="white"/>
<path d="M328.537 135.783C329.295 135.783 329.909 135.169 329.909 134.412C329.909 133.654 329.295 133.04 328.537 133.04C327.78 133.04 327.166 133.654 327.166 134.412C327.166 135.169 327.78 135.783 328.537 135.783Z" fill="white"/>
<path d="M342.817 135.783C343.574 135.783 344.188 135.169 344.188 134.412C344.188 133.654 343.574 133.04 342.817 133.04C342.059 133.04 341.445 133.654 341.445 134.412C341.445 135.169 342.059 135.783 342.817 135.783Z" fill="white"/>
<path d="M357.096 135.783C357.854 135.783 358.468 135.169 358.468 134.412C358.468 133.654 357.854 133.04 357.096 133.04C356.339 133.04 355.725 133.654 355.725 134.412C355.725 135.169 356.339 135.783 357.096 135.783Z" fill="white"/>
<path d="M371.376 135.783C372.133 135.783 372.747 135.169 372.747 134.412C372.747 133.654 372.133 133.04 371.376 133.04C370.618 133.04 370.004 133.654 370.004 134.412C370.004 135.169 370.618 135.783 371.376 135.783Z" fill="white"/>
<path d="M250.212 126.169C250.969 126.169 251.583 125.556 251.583 124.798C251.583 124.041 250.969 123.427 250.212 123.427C249.455 123.427 248.841 124.041 248.841 124.798C248.841 125.556 249.455 126.169 250.212 126.169Z" fill="white"/>
<path d="M264.491 126.17C265.249 126.17 265.863 125.556 265.863 124.798C265.863 124.041 265.249 123.427 264.491 123.427C263.734 123.427 263.12 124.041 263.12 124.798C263.12 125.556 263.734 126.17 264.491 126.17Z" fill="white"/>
<path d="M278.771 126.17C279.528 126.17 280.142 125.556 280.142 124.798C280.142 124.041 279.528 123.427 278.771 123.427C278.013 123.427 277.399 124.041 277.399 124.798C277.399 125.556 278.013 126.17 278.771 126.17Z" fill="white"/>
<path d="M293.05 126.17C293.808 126.17 294.422 125.556 294.422 124.798C294.422 124.041 293.808 123.427 293.05 123.427C292.293 123.427 291.679 124.041 291.679 124.798C291.679 125.556 292.293 126.17 293.05 126.17Z" fill="white"/>
<path d="M307.33 126.17C308.087 126.17 308.701 125.556 308.701 124.798C308.701 124.041 308.087 123.427 307.33 123.427C306.572 123.427 305.958 124.041 305.958 124.798C305.958 125.556 306.572 126.17 307.33 126.17Z" fill="white"/>
<path d="M321.609 126.17C322.367 126.17 322.981 125.556 322.981 124.798C322.981 124.041 322.367 123.427 321.609 123.427C320.852 123.427 320.238 124.041 320.238 124.798C320.238 125.556 320.852 126.17 321.609 126.17Z" fill="white"/>
<path d="M335.889 126.17C336.646 126.17 337.26 125.556 337.26 124.798C337.26 124.041 336.646 123.427 335.889 123.427C335.131 123.427 334.517 124.041 334.517 124.798C334.517 125.556 335.131 126.17 335.889 126.17Z" fill="white"/>
<path d="M350.168 126.17C350.926 126.17 351.54 125.556 351.54 124.798C351.54 124.041 350.926 123.427 350.168 123.427C349.411 123.427 348.797 124.041 348.797 124.798C348.797 125.556 349.411 126.17 350.168 126.17Z" fill="white"/>
<path d="M364.448 126.17C365.205 126.17 365.819 125.556 365.819 124.798C365.819 124.041 365.205 123.427 364.448 123.427C363.69 123.427 363.076 124.041 363.076 124.798C363.076 125.556 363.69 126.17 364.448 126.17Z" fill="white"/>
<path d="M378.727 126.17C379.485 126.17 380.099 125.556 380.099 124.798C380.099 124.041 379.485 123.427 378.727 123.427C377.97 123.427 377.356 124.041 377.356 124.798C377.356 125.556 377.97 126.17 378.727 126.17Z" fill="white"/>
<path d="M242.86 116.273C243.618 116.273 244.232 115.659 244.232 114.901C244.232 114.144 243.618 113.53 242.86 113.53C242.103 113.53 241.489 114.144 241.489 114.901C241.489 115.659 242.103 116.273 242.86 116.273Z" fill="white"/>
<path d="M257.14 116.273C257.897 116.273 258.511 115.659 258.511 114.901C258.511 114.144 257.897 113.53 257.14 113.53C256.382 113.53 255.768 114.144 255.768 114.901C255.768 115.659 256.382 116.273 257.14 116.273Z" fill="white"/>
<path d="M271.419 116.273C272.177 116.273 272.791 115.659 272.791 114.901C272.791 114.144 272.177 113.53 271.419 113.53C270.662 113.53 270.048 114.144 270.048 114.901C270.048 115.659 270.662 116.273 271.419 116.273Z" fill="white"/>
<path d="M285.699 116.273C286.456 116.273 287.07 115.659 287.07 114.901C287.07 114.144 286.456 113.53 285.699 113.53C284.941 113.53 284.327 114.144 284.327 114.901C284.327 115.659 284.941 116.273 285.699 116.273Z" fill="white"/>
<path d="M299.978 116.273C300.735 116.273 301.349 115.659 301.349 114.901C301.349 114.144 300.735 113.53 299.978 113.53C299.221 113.53 298.607 114.144 298.607 114.901C298.607 115.659 299.221 116.273 299.978 116.273Z" fill="white"/>
<path d="M314.258 116.273C315.015 116.273 315.629 115.659 315.629 114.901C315.629 114.144 315.015 113.53 314.258 113.53C313.5 113.53 312.886 114.144 312.886 114.901C312.886 115.659 313.5 116.273 314.258 116.273Z" fill="white"/>
<path d="M328.537 116.273C329.295 116.273 329.909 115.659 329.909 114.901C329.909 114.144 329.295 113.53 328.537 113.53C327.78 113.53 327.166 114.144 327.166 114.901C327.166 115.659 327.78 116.273 328.537 116.273Z" fill="white"/>
<path d="M342.817 116.273C343.574 116.273 344.188 115.659 344.188 114.901C344.188 114.144 343.574 113.53 342.817 113.53C342.059 113.53 341.445 114.144 341.445 114.901C341.445 115.659 342.059 116.273 342.817 116.273Z" fill="white"/>
<path d="M357.096 116.273C357.854 116.273 358.468 115.659 358.468 114.901C358.468 114.144 357.854 113.53 357.096 113.53C356.339 113.53 355.725 114.144 355.725 114.901C355.725 115.659 356.339 116.273 357.096 116.273Z" fill="white"/>
<path d="M371.376 116.273C372.133 116.273 372.747 115.659 372.747 114.901C372.747 114.144 372.133 113.53 371.376 113.53C370.618 113.53 370.004 114.144 370.004 114.901C370.004 115.659 370.618 116.273 371.376 116.273Z" fill="white"/>
<path d="M250.212 107.083C250.969 107.083 251.583 106.469 251.583 105.712C251.583 104.954 250.969 104.34 250.212 104.34C249.455 104.34 248.841 104.954 248.841 105.712C248.841 106.469 249.455 107.083 250.212 107.083Z" fill="white"/>
<path d="M264.491 107.083C265.249 107.083 265.863 106.469 265.863 105.712C265.863 104.954 265.249 104.34 264.491 104.34C263.734 104.34 263.12 104.954 263.12 105.712C263.12 106.469 263.734 107.083 264.491 107.083Z" fill="white"/>
<path d="M278.771 107.083C279.528 107.083 280.142 106.469 280.142 105.712C280.142 104.954 279.528 104.34 278.771 104.34C278.013 104.34 277.399 104.954 277.399 105.712C277.399 106.469 278.013 107.083 278.771 107.083Z" fill="white"/>
<path d="M293.05 107.083C293.808 107.083 294.422 106.469 294.422 105.712C294.422 104.954 293.808 104.34 293.05 104.34C292.293 104.34 291.679 104.954 291.679 105.712C291.679 106.469 292.293 107.083 293.05 107.083Z" fill="white"/>
<path d="M307.33 107.083C308.087 107.083 308.701 106.469 308.701 105.712C308.701 104.954 308.087 104.34 307.33 104.34C306.572 104.34 305.958 104.954 305.958 105.712C305.958 106.469 306.572 107.083 307.33 107.083Z" fill="white"/>
<path d="M321.609 107.083C322.367 107.083 322.981 106.469 322.981 105.712C322.981 104.954 322.367 104.34 321.609 104.34C320.852 104.34 320.238 104.954 320.238 105.712C320.238 106.469 320.852 107.083 321.609 107.083Z" fill="white"/>
<path d="M335.889 107.083C336.646 107.083 337.26 106.469 337.26 105.712C337.26 104.954 336.646 104.34 335.889 104.34C335.131 104.34 334.517 104.954 334.517 105.712C334.517 106.469 335.131 107.083 335.889 107.083Z" fill="white"/>
<path d="M350.593 107.083C351.35 107.083 351.964 106.469 351.964 105.712C351.964 104.954 351.35 104.34 350.593 104.34C349.835 104.34 349.221 104.954 349.221 105.712C349.221 106.469 349.835 107.083 350.593 107.083Z" fill="white"/>
<path d="M364.448 107.083C365.205 107.083 365.819 106.469 365.819 105.712C365.819 104.954 365.205 104.34 364.448 104.34C363.69 104.34 363.076 104.954 363.076 105.712C363.076 106.469 363.69 107.083 364.448 107.083Z" fill="white"/>
<path d="M378.727 107.083C379.485 107.083 380.099 106.469 380.099 105.712C380.099 104.954 379.485 104.34 378.727 104.34C377.97 104.34 377.356 104.954 377.356 105.712C377.356 106.469 377.97 107.083 378.727 107.083Z" fill="white"/>
<path d="M257.14 97.6105C257.897 97.6105 258.511 96.9965 258.511 96.2391C258.511 95.4817 257.897 94.8677 257.14 94.8677C256.383 94.8677 255.769 95.4817 255.769 96.2391C255.769 96.9965 256.383 97.6105 257.14 97.6105Z" fill="white"/>
<path d="M285.699 97.6105C286.456 97.6105 287.07 96.9966 287.07 96.2392C287.07 95.4818 286.456 94.8678 285.699 94.8678C284.941 94.8678 284.327 95.4818 284.327 96.2392C284.327 96.9966 284.941 97.6105 285.699 97.6105Z" fill="white"/>
<path d="M299.978 97.6105C300.736 97.6105 301.35 96.9966 301.35 96.2392C301.35 95.4818 300.736 94.8678 299.978 94.8678C299.221 94.8678 298.607 95.4818 298.607 96.2392C298.607 96.9966 299.221 97.6105 299.978 97.6105Z" fill="white"/>
<path d="M314.258 97.6105C315.015 97.6105 315.629 96.9966 315.629 96.2392C315.629 95.4818 315.015 94.8678 314.258 94.8678C313.5 94.8678 312.886 95.4818 312.886 96.2392C312.886 96.9966 313.5 97.6105 314.258 97.6105Z" fill="white"/>
<path d="M328.537 97.6105C329.295 97.6105 329.909 96.9966 329.909 96.2392C329.909 95.4818 329.295 94.8678 328.537 94.8678C327.78 94.8678 327.166 95.4818 327.166 96.2392C327.166 96.9966 327.78 97.6105 328.537 97.6105Z" fill="white"/>
<path d="M342.817 97.6105C343.574 97.6105 344.188 96.9966 344.188 96.2392C344.188 95.4818 343.574 94.8678 342.817 94.8678C342.06 94.8678 341.446 95.4818 341.446 96.2392C341.446 96.9966 342.06 97.6105 342.817 97.6105Z" fill="white"/>
<path d="M357.096 97.6105C357.854 97.6105 358.468 96.9966 358.468 96.2392C358.468 95.4818 357.854 94.8678 357.096 94.8678C356.339 94.8678 355.725 95.4818 355.725 96.2392C355.725 96.9966 356.339 97.6105 357.096 97.6105Z" fill="white"/>
<path d="M371.376 97.6105C372.133 97.6105 372.747 96.9966 372.747 96.2392C372.747 95.4818 372.133 94.8678 371.376 94.8678C370.618 94.8678 370.004 95.4818 370.004 96.2392C370.004 96.9966 370.618 97.6105 371.376 97.6105Z" fill="white"/>
<path d="M250.212 88.2794C250.969 88.2794 251.583 87.6654 251.583 86.908C251.583 86.1506 250.969 85.5366 250.212 85.5366C249.455 85.5366 248.841 86.1506 248.841 86.908C248.841 87.6654 249.455 88.2794 250.212 88.2794Z" fill="white"/>
<path d="M264.491 88.2793C265.249 88.2793 265.863 87.6654 265.863 86.908C265.863 86.1505 265.249 85.5366 264.491 85.5366C263.734 85.5366 263.12 86.1505 263.12 86.908C263.12 87.6654 263.734 88.2793 264.491 88.2793Z" fill="white"/>
<path d="M278.771 88.2793C279.528 88.2793 280.142 87.6654 280.142 86.908C280.142 86.1505 279.528 85.5366 278.771 85.5366C278.013 85.5366 277.399 86.1505 277.399 86.908C277.399 87.6654 278.013 88.2793 278.771 88.2793Z" fill="white"/>
<path d="M293.05 88.2793C293.808 88.2793 294.422 87.6654 294.422 86.908C294.422 86.1505 293.808 85.5366 293.05 85.5366C292.293 85.5366 291.679 86.1505 291.679 86.908C291.679 87.6654 292.293 88.2793 293.05 88.2793Z" fill="white"/>
<path d="M307.33 88.2793C308.087 88.2793 308.701 87.6654 308.701 86.908C308.701 86.1505 308.087 85.5366 307.33 85.5366C306.572 85.5366 305.958 86.1505 305.958 86.908C305.958 87.6654 306.572 88.2793 307.33 88.2793Z" fill="white"/>
<path d="M321.609 88.2793C322.367 88.2793 322.981 87.6654 322.981 86.908C322.981 86.1505 322.367 85.5366 321.609 85.5366C320.852 85.5366 320.238 86.1505 320.238 86.908C320.238 87.6654 320.852 88.2793 321.609 88.2793Z" fill="white"/>
<path d="M335.889 88.2793C336.646 88.2793 337.26 87.6654 337.26 86.908C337.26 86.1505 336.646 85.5366 335.889 85.5366C335.131 85.5366 334.517 86.1505 334.517 86.908C334.517 87.6654 335.131 88.2793 335.889 88.2793Z" fill="white"/>
<path d="M350.168 88.2793C350.926 88.2793 351.54 87.6654 351.54 86.908C351.54 86.1505 350.926 85.5366 350.168 85.5366C349.411 85.5366 348.797 86.1505 348.797 86.908C348.797 87.6654 349.411 88.2793 350.168 88.2793Z" fill="white"/>
<path d="M364.448 88.2793C365.205 88.2793 365.819 87.6654 365.819 86.908C365.819 86.1505 365.205 85.5366 364.448 85.5366C363.69 85.5366 363.076 86.1505 363.076 86.908C363.076 87.6654 363.69 88.2793 364.448 88.2793Z" fill="white"/>
<path d="M378.02 88.2793C378.778 88.2793 379.392 87.6654 379.392 86.908C379.392 86.1505 378.778 85.5366 378.02 85.5366C377.263 85.5366 376.649 86.1505 376.649 86.908C376.649 87.6654 377.263 88.2793 378.02 88.2793Z" fill="white"/>
<path d="M257.14 79.0895C257.897 79.0895 258.511 78.4755 258.511 77.7181C258.511 76.9607 257.897 76.3468 257.14 76.3468C256.383 76.3468 255.769 76.9607 255.769 77.7181C255.769 78.4755 256.383 79.0895 257.14 79.0895Z" fill="white"/>
<path d="M271.419 79.0896C272.177 79.0896 272.791 78.4756 272.791 77.7182C272.791 76.9608 272.177 76.3468 271.419 76.3468C270.662 76.3468 270.048 76.9608 270.048 77.7182C270.048 78.4756 270.662 79.0896 271.419 79.0896Z" fill="white"/>
<path d="M285.699 79.0896C286.456 79.0896 287.07 78.4756 287.07 77.7182C287.07 76.9608 286.456 76.3468 285.699 76.3468C284.941 76.3468 284.327 76.9608 284.327 77.7182C284.327 78.4756 284.941 79.0896 285.699 79.0896Z" fill="white"/>
<path d="M299.978 79.0896C300.736 79.0896 301.35 78.4756 301.35 77.7182C301.35 76.9608 300.736 76.3468 299.978 76.3468C299.221 76.3468 298.607 76.9608 298.607 77.7182C298.607 78.4756 299.221 79.0896 299.978 79.0896Z" fill="white"/>
<path d="M314.258 79.0896C315.015 79.0896 315.629 78.4756 315.629 77.7182C315.629 76.9608 315.015 76.3468 314.258 76.3468C313.5 76.3468 312.886 76.9608 312.886 77.7182C312.886 78.4756 313.5 79.0896 314.258 79.0896Z" fill="white"/>
<path d="M328.537 79.0896C329.295 79.0896 329.909 78.4756 329.909 77.7182C329.909 76.9608 329.295 76.3468 328.537 76.3468C327.78 76.3468 327.166 76.9608 327.166 77.7182C327.166 78.4756 327.78 79.0896 328.537 79.0896Z" fill="white"/>
<path d="M342.817 79.0896C343.574 79.0896 344.188 78.4756 344.188 77.7182C344.188 76.9608 343.574 76.3468 342.817 76.3468C342.06 76.3468 341.446 76.9608 341.446 77.7182C341.446 78.4756 342.06 79.0896 342.817 79.0896Z" fill="white"/>
<path d="M357.096 79.0896C357.854 79.0896 358.468 78.4756 358.468 77.7182C358.468 76.9608 357.854 76.3468 357.096 76.3468C356.339 76.3468 355.725 76.9608 355.725 77.7182C355.725 78.4756 356.339 79.0896 357.096 79.0896Z" fill="white"/>
<path d="M371.376 79.0896C372.133 79.0896 372.747 78.4756 372.747 77.7182C372.747 76.9608 372.133 76.3468 371.376 76.3468C370.618 76.3468 370.004 76.9608 370.004 77.7182C370.004 78.4756 370.618 79.0896 371.376 79.0896Z" fill="white"/>
<path d="M299.978 61.8409C300.735 61.8409 301.349 61.2269 301.349 60.4695C301.349 59.7121 300.735 59.0981 299.978 59.0981C299.221 59.0981 298.607 59.7121 298.607 60.4695C298.607 61.2269 299.221 61.8409 299.978 61.8409Z" fill="white"/>
<path d="M314.258 61.8409C315.015 61.8409 315.629 61.2269 315.629 60.4695C315.629 59.7121 315.015 59.0981 314.258 59.0981C313.5 59.0981 312.886 59.7121 312.886 60.4695C312.886 61.2269 313.5 61.8409 314.258 61.8409Z" fill="white"/>
<path d="M328.537 61.8409C329.295 61.8409 329.909 61.2269 329.909 60.4695C329.909 59.7121 329.295 59.0981 328.537 59.0981C327.78 59.0981 327.166 59.7121 327.166 60.4695C327.166 61.2269 327.78 61.8409 328.537 61.8409Z" fill="white"/>
<path d="M344.117 60.9218C343.934 61.4591 343.425 61.8408 342.817 61.8408C342.067 61.8408 341.445 61.2329 341.445 60.4694C341.445 60.3704 341.459 60.2715 341.474 60.1725L344.117 60.9218Z" fill="white"/>
<path d="M264.492 70.4651C265.249 70.4651 265.863 69.8512 265.863 69.0938C265.863 68.3363 265.249 67.7224 264.492 67.7224C263.734 67.7224 263.12 68.3363 263.12 69.0938C263.12 69.8512 263.734 70.4651 264.492 70.4651Z" fill="white"/>
<path d="M278.771 70.4651C279.528 70.4651 280.142 69.8512 280.142 69.0938C280.142 68.3363 279.528 67.7224 278.771 67.7224C278.014 67.7224 277.4 68.3363 277.4 69.0938C277.4 69.8512 278.014 70.4651 278.771 70.4651Z" fill="white"/>
<path d="M291.693 68.6413C292.45 68.6413 293.064 68.0273 293.064 67.2699C293.064 66.5125 292.45 65.8985 291.693 65.8985C290.935 65.8985 290.321 66.5125 290.321 67.2699C290.321 68.0273 290.935 68.6413 291.693 68.6413Z" fill="white"/>
<path d="M307.33 70.4651C308.087 70.4651 308.701 69.8512 308.701 69.0938C308.701 68.3363 308.087 67.7224 307.33 67.7224C306.572 67.7224 305.958 68.3363 305.958 69.0938C305.958 69.8512 306.572 70.4651 307.33 70.4651Z" fill="white"/>
<path d="M321.609 70.4651C322.367 70.4651 322.981 69.8512 322.981 69.0938C322.981 68.3363 322.367 67.7224 321.609 67.7224C320.852 67.7224 320.238 68.3363 320.238 69.0938C320.238 69.8512 320.852 70.4651 321.609 70.4651Z" fill="white"/>
<path d="M335.889 70.4651C336.646 70.4651 337.26 69.8512 337.26 69.0938C337.26 68.3363 336.646 67.7224 335.889 67.7224C335.132 67.7224 334.518 68.3363 334.518 69.0938C334.518 69.8512 335.132 70.4651 335.889 70.4651Z" fill="white"/>
<path d="M350.169 70.4651C350.926 70.4651 351.54 69.8512 351.54 69.0938C351.54 68.3363 350.926 67.7224 350.169 67.7224C349.411 67.7224 348.797 68.3363 348.797 69.0938C348.797 69.8512 349.411 70.4651 350.169 70.4651Z" fill="white"/>
<path d="M364.448 70.4651C365.205 70.4651 365.819 69.8512 365.819 69.0938C365.819 68.3363 365.205 67.7224 364.448 67.7224C363.691 67.7224 363.077 68.3363 363.077 69.0938C363.077 69.8512 363.691 70.4651 364.448 70.4651Z" fill="white"/>
<path d="M352.218 140.336L349.108 98.0204" stroke="white" stroke-width="0.724279" stroke-miterlimit="10" stroke-linecap="round"/>
<path d="M278.629 140.336V127.513L275.688 125.788C270.726 122.875 268.238 117.093 269.524 111.494L274.034 91.8139" stroke="white" stroke-width="0.724279" stroke-miterlimit="10" stroke-linecap="round"/>
<path d="M298.791 56.6241L308.206 83.8965L330.05 56.6241" stroke="white" stroke-width="0.724279" stroke-miterlimit="10" stroke-linecap="round"/>
<path d="M323.928 64.0466L333.174 74.7632L342.746 61.12" stroke="white" stroke-width="0.724279" stroke-miterlimit="10" stroke-linecap="round"/>
<path d="M301.42 64.0466L290.632 73.2081L284.341 61.3179" stroke="white" stroke-width="0.724279" stroke-miterlimit="10" stroke-linecap="round"/>
<path d="M270.019 91.8139L271.956 100.848" stroke="white" stroke-width="0.724279" stroke-miterlimit="10" stroke-linecap="round"/>
<path d="M309.706 177.01H270.953L253.818 150.247H292.57L309.706 177.01Z" fill="#FFCF2D"/>
<path d="M286.335 171.2H247.569L230.447 144.45H269.2L286.335 171.2Z" fill="white" stroke="#3FB1B5" stroke-width="0.724279" stroke-miterlimit="10" stroke-linejoin="round"/>
<path d="M238.747 148.352L240.189 148.974C241.15 149.384 242.013 149.398 242.338 149.003L242.861 148.338C243.172 147.942 244.049 147.942 245.01 148.366L246.452 148.988C247.413 149.398 248.276 149.413 248.601 149.017L249.181 148.267C249.492 147.871 250.368 147.871 251.33 148.296L253.238 149.13C254.2 149.54 255.062 149.554 255.387 149.158L256.08 148.281C256.391 147.886 257.268 147.886 258.229 148.31L260.421 149.271C261.382 149.681 262.244 149.695 262.57 149.299L263.319 148.338" stroke="#3FB1B5" stroke-width="0.603566" stroke-miterlimit="10" stroke-linecap="round"/>
<path d="M244.614 154.63C245.576 155.04 246.438 155.054 246.763 154.658L247.286 153.993C247.597 153.597 248.474 153.597 249.435 154.022L250.877 154.644C251.839 155.054 252.701 155.068 253.026 154.672L253.606 153.923C253.917 153.527 254.794 153.527 255.755 153.951L257.664 154.785C258.625 155.195 259.488 155.209 259.813 154.813L260.505 153.937C260.817 153.541 261.693 153.541 262.654 153.965L264.846 154.926C265.807 155.336 266.67 155.351 266.995 154.955L267.744 153.993" stroke="#3FB1B5" stroke-width="0.603566" stroke-miterlimit="10" stroke-linecap="round"/>
<path d="M247.598 159.649L249.04 160.271C250.001 160.681 250.864 160.695 251.189 160.299L251.712 159.634C252.023 159.239 252.9 159.239 253.861 159.663L255.303 160.285C256.265 160.695 257.127 160.709 257.452 160.313L258.032 159.564C258.343 159.168 259.219 159.168 260.181 159.592L262.089 160.426C263.051 160.836 263.913 160.85 264.238 160.454L264.931 159.578C265.242 159.182 266.119 159.182 267.08 159.606L269.272 160.568C270.233 160.978 271.095 160.992 271.421 160.596L272.17 159.634" stroke="#3FB1B5" stroke-width="0.603566" stroke-miterlimit="10" stroke-linecap="round"/>
<path d="M252.023 165.304L253.465 165.926C254.426 166.336 255.289 166.35 255.614 165.954L256.137 165.29C256.448 164.894 257.325 164.894 258.286 165.318L259.728 165.94C260.689 166.35 261.552 166.364 261.877 165.968L262.457 165.219C262.768 164.823 263.644 164.823 264.606 165.247L266.514 166.081C267.476 166.491 268.338 166.506 268.663 166.11L269.356 165.233C269.667 164.837 270.544 164.837 271.505 165.261L273.696 166.223C274.658 166.633 275.52 166.647 275.845 166.251L276.595 165.29" stroke="#3FB1B5" stroke-width="0.603566" stroke-miterlimit="10" stroke-linecap="round"/>
<path d="M293.941 155.817H368.28C378.12 155.817 385.825 147.349 384.892 137.565C383.959 127.739 374.755 120.854 365.07 122.748L279.521 134.667C276.283 135.119 273.441 137.084 271.9 139.969L264.322 154.05C264.053 154.404 263.87 154.814 263.757 155.238L260.915 166.223H262.512C264.987 166.223 267.277 164.852 268.436 162.66L269.864 159.988L286.307 161.769C289.389 162.151 292.316 160.045 293.418 157.16L293.941 155.817Z" fill="#A0505A"/>
<path d="M270.02 159.508L274.982 149.229" stroke="#73325A" stroke-width="0.724279" stroke-miterlimit="10" stroke-linecap="round"/>
<path d="M276.637 160.158L281.599 149.88" stroke="#73325A" stroke-width="0.724279" stroke-miterlimit="10" stroke-linecap="round"/>
<path d="M283.112 160.964L288.06 150.685" stroke="#73325A" stroke-width="0.724279" stroke-miterlimit="10" stroke-linecap="round"/>
<path d="M293.941 155.818L296.204 149.074" stroke="#73325A" stroke-width="0.724279" stroke-miterlimit="10" stroke-linecap="round"/>
<path d="M312.235 8.41311C312.235 8.41311 321.962 2.30544 331.463 10.0107C340.426 17.2918 336.242 31.642 332.961 29.2385C330.148 27.1885 352.076 20.1902 358.947 36.4349C366.737 54.8427 349.192 65.2907 329.187 56.1858H300.161L269.298 65.8139C269.298 65.8139 253.618 57.84 262.144 42.288C270.019 27.9379 288.836 33.0558 286.716 36.6045C283.733 41.5811 270.98 25.8313 279.944 10.958C289.416 -4.76362 310.934 1.08956 312.235 8.41311Z" fill="white" stroke="#FFCF2D" stroke-width="0.724279" stroke-miterlimit="10"/>
<path d="M318.498 28.9275C318.498 28.9275 309.69 24.7426 311.316 16.1607C311.316 16.1607 307.287 27.7257 294.237 27.6409C288.243 27.5985 288.497 21.3777 291.692 18.4652" stroke="#FFCF2D" stroke-width="0.724279" stroke-miterlimit="10" stroke-linecap="round" stroke-linejoin="round"/>
<path d="M329.428 56.7796L322.005 37.071H300.911L299.257 56.7796L308.348 82.9068L329.428 56.7796Z" fill="#A0505A"/>
<path d="M312.391 52.6088L301.264 62.4348L299.257 56.7796L300.911 37.071H319.602V37.4386C319.587 43.3342 316.944 48.9046 312.391 52.6088Z" fill="#73325A"/>
<path d="M326.825 33.2396V34.0313C326.825 36.1803 325.072 37.9335 322.923 37.9335H318.682C317.89 43.9421 312.744 48.5936 306.523 48.5936C303.13 48.5936 300.062 47.2222 297.842 45.0025C295.623 42.7828 294.251 39.7149 294.251 36.3217V28.065C307.301 28.164 311.047 17.4332 311.047 17.4332C310.185 25.4919 317.537 28.9558 318.654 29.4223V29.3375H322.923C325.072 29.3375 326.825 31.0906 326.825 33.2396Z" fill="#A0505A"/>
<path d="M308.658 25.7181C308.658 25.7181 311.697 25.7747 313.747 27.952" stroke="#73325A" stroke-width="0.724279" stroke-miterlimit="10" stroke-linecap="round"/>
<path d="M308.022 35.5159C308.498 35.5159 308.884 34.8386 308.884 34.0031C308.884 33.1677 308.498 32.4904 308.022 32.4904C307.546 32.4904 307.159 33.1677 307.159 34.0031C307.159 34.8386 307.546 35.5159 308.022 35.5159Z" fill="#73325A"/>
<path d="M296.245 35.5159C296.721 35.5159 297.107 34.8386 297.107 34.0031C297.107 33.1677 296.721 32.4904 296.245 32.4904C295.768 32.4904 295.382 33.1677 295.382 34.0031C295.382 34.8386 295.768 35.5159 296.245 35.5159Z" fill="#73325A"/>
<path d="M301.462 41.2842C301.462 41.2842 303.78 42.4011 305.887 40.3511" stroke="#73325A" stroke-width="0.724279" stroke-miterlimit="10" stroke-linecap="round"/>
<path d="M319.77 34.7806C319.77 32.9427 321.269 31.444 323.107 31.444" stroke="#73325A" stroke-width="0.724279" stroke-miterlimit="10" stroke-linecap="round"/>
<path d="M295.595 25.8595C295.595 25.8595 292.555 25.9161 290.505 28.0933" stroke="#73325A" stroke-width="0.724279" stroke-miterlimit="10" stroke-linecap="round"/>
<path d="M295.778 39.4888C298.456 39.4888 300.627 36.9379 300.627 33.7911C300.627 30.6444 298.456 28.0935 295.778 28.0935C293.1 28.0935 290.929 30.6444 290.929 33.7911C290.929 36.9379 293.1 39.4888 295.778 39.4888Z" stroke="#FE5244" stroke-width="0.724279" stroke-miterlimit="10" stroke-linejoin="round"/>
<path d="M308.8 39.4888C311.478 39.4888 313.649 36.9379 313.649 33.7912C313.649 30.6444 311.478 28.0935 308.8 28.0935C306.121 28.0935 303.95 30.6444 303.95 33.7912C303.95 36.9379 306.121 39.4888 308.8 39.4888Z" stroke="#FE5244" stroke-width="0.724279" stroke-miterlimit="10" stroke-linejoin="round"/>
<path d="M303.964 33.7911C303.964 33.7911 302.225 32.5469 300.628 33.7911" stroke="#FE5244" stroke-width="0.724279" stroke-miterlimit="10" stroke-linejoin="round"/>
<path d="M151.274 95.2213H178.787C192.246 95.2213 205.211 100.368 214.995 109.6L231.169 124.855L207.134 131.57L202.511 127.216C200.828 125.647 198.085 126.467 197.548 128.7L195.541 137.155H141.943L139.511 122.974C138.847 120.67 135.878 120.034 134.337 121.872L132.456 124.12L95.6831 123.441L119.902 105.542C128.978 98.8407 139.978 95.2213 151.274 95.2213Z" fill="#9A3B82"/>
<path d="M152.9 95.2213L167.349 120.359L180.964 95.292C182.562 95.3768 184.145 95.5323 185.714 95.7585C185.092 99.5192 181.996 121.999 194.904 137.155H141.307C141.307 137.155 152.094 115.538 147.768 95.292L152.9 95.2213Z" fill="#3FB1B5"/>
<path d="M119.76 165.742H225.287L204.744 137.169H141.942L119.76 165.742Z" stroke="#9A3B82" stroke-width="0.362139" stroke-miterlimit="10" stroke-linecap="round"/>
<path d="M225.287 165.742H119.76L141.942 137.169H204.744L225.287 165.742Z" fill="white" stroke="#3FB1B5" stroke-width="0.724279" stroke-miterlimit="10" stroke-linejoin="round"/>
<path d="M172.523 165.742H119.76C151.118 146.684 172.523 165.742 172.523 165.742Z" fill="#3FB1B5"/>
<path d="M172.523 165.742H225.287C193.929 146.684 172.523 165.742 172.523 165.742Z" fill="#3FB1B5"/>
<path d="M172.523 165.742V137.169" stroke="#3FB1B5" stroke-width="0.724279" stroke-miterlimit="10" stroke-linecap="round"/>
<path d="M196.714 146.26L211.87 124.897C214.189 121.942 217.737 120.203 221.498 120.203C228.256 120.203 233.742 125.689 233.742 132.447V132.871C233.742 137.226 231.423 141.255 227.662 143.446L207.417 155.04L201.818 164.668C200.772 166.463 198.863 167.566 196.785 167.566H179.098C179.098 167.566 179.041 164.357 182.576 163.282C186.11 162.208 186.704 158.716 186.704 158.716C186.704 158.716 184.951 160.073 181.459 158.786L188.189 149.13C189.433 147.334 191.483 146.26 193.674 146.26H196.714Z" fill="#E57281"/>
<path d="M202.257 157.118L197.803 164.767C196.969 166.195 195.456 167.071 193.802 167.071" stroke="#9A3B82" stroke-width="0.482853" stroke-miterlimit="10" stroke-linecap="round"/>
<path d="M197.492 157.118L193.038 164.767C192.204 166.195 190.692 167.071 189.037 167.071" stroke="#9A3B82" stroke-width="0.482853" stroke-miterlimit="10" stroke-linecap="round"/>
<path d="M192.728 157.118L188.274 164.767C187.44 166.195 185.927 167.071 184.273 167.071" stroke="#9A3B82" stroke-width="0.482853" stroke-miterlimit="10" stroke-linecap="round"/>
<path d="M196.715 146.26H199.924" stroke="#9A3B82" stroke-width="0.482853" stroke-miterlimit="10" stroke-linecap="round"/>
<path d="M174.306 133.239C174.165 133.324 174.165 133.536 174.306 133.621C174.73 133.861 175.013 134.327 175.013 134.865V136.222C175.013 136.759 174.73 137.212 174.306 137.466C174.165 137.551 174.165 137.763 174.306 137.848C174.73 138.088 175.013 138.555 175.013 139.092V140.449C175.013 140.987 174.73 141.439 174.306 141.693C174.165 141.778 174.165 141.99 174.306 142.075C174.73 142.316 175.013 142.782 175.013 143.319V144.677C175.013 145.468 174.391 146.105 173.613 146.105H106.499C97.6773 146.105 90.4386 138.625 92.2624 129.803C93.648 123.102 99.4304 118.535 105.849 118.535C106.881 118.535 107.942 118.662 109.002 118.903L156.859 129.252H173.401C174.292 129.252 175.013 129.987 175.013 130.892V132.023C175.013 132.518 174.73 132.984 174.306 133.239Z" fill="#E57281"/>
<path d="M174.094 133.423H166.572" stroke="#9A3B82" stroke-width="0.482853" stroke-miterlimit="10" stroke-linecap="round"/>
<path d="M174.094 137.636H166.572" stroke="#9A3B82" stroke-width="0.482853" stroke-miterlimit="10" stroke-linecap="round"/>
<path d="M174.094 141.849H166.572" stroke="#9A3B82" stroke-width="0.482853" stroke-miterlimit="10" stroke-linecap="round"/>
<path d="M161.044 129.28C161.044 129.28 150.412 113.686 153.339 113.403C156.265 113.12 163.787 129.209 163.787 129.209L161.044 129.28Z" fill="white"/>
<path d="M187.327 94.0759C187.355 95.1363 186.931 96.0977 186.238 96.7904C185.56 97.4691 184.627 97.8791 183.609 97.8791H180.428C179.876 103.817 174.9 108.454 168.82 108.454H165.413C159.348 108.454 154.357 103.817 153.805 97.8791H150.61C149.578 97.8791 148.645 97.4691 147.981 96.7904C147.288 96.0977 146.864 95.1363 146.892 94.0759C146.934 92.04 148.659 90.4283 150.695 90.4283H153.763V88.3217C153.763 85.7061 155.884 83.5996 158.485 83.5996H175.748C178.363 83.5996 180.47 85.7203 180.47 88.3217V90.4283H183.524C185.574 90.4283 187.285 92.04 187.327 94.0759Z" fill="#E57281"/>
<path d="M181.643 96.2391C181.643 94.6274 182.944 93.3267 184.555 93.3267" stroke="#9A3B82" stroke-width="0.603566" stroke-miterlimit="10" stroke-linecap="round"/>
<path d="M170.997 96.6349C170.997 96.6349 173.951 96.0411 175.719 97.766" stroke="#9A3B82" stroke-width="0.603566" stroke-miterlimit="10" stroke-linecap="round"/>
<path d="M157.792 97.0733C157.792 97.0733 159.715 95.4757 162.373 96.6491C163.956 97.3419 164.762 100.014 165.002 103.11C165.002 103.11 166.515 104.722 169.06 103.11" stroke="#9A3B82" stroke-width="0.603566" stroke-miterlimit="10" stroke-linecap="round"/>
<path d="M152.292 96.2391C152.292 94.6274 150.992 93.3267 149.38 93.3267" stroke="#9A3B82" stroke-width="0.603566" stroke-miterlimit="10" stroke-linecap="round"/>
<path d="M161.313 101.612C161.609 101.612 161.85 101.15 161.85 100.58C161.85 100.01 161.609 99.5474 161.313 99.5474C161.016 99.5474 160.775 100.01 160.775 100.58C160.775 101.15 161.016 101.612 161.313 101.612Z" fill="#9A3B82"/>
<path d="M172.482 101.612C172.778 101.612 173.019 101.15 173.019 100.58C173.019 100.01 172.778 99.5474 172.482 99.5474C172.185 99.5474 171.944 100.01 171.944 100.58C171.944 101.15 172.185 101.612 172.482 101.612Z" fill="#9A3B82"/>
<path d="M202.101 82.9069C199.104 88.3359 192.275 90.3011 186.86 87.3038C185.941 86.7949 185.121 86.1728 184.4 85.48C183.764 88.4349 182.746 90.4566 182.746 90.4566C182.746 90.4566 181.318 91.0363 178.816 91.6301C179.127 90.6121 179.862 86.9928 176.398 83.6421C176.398 83.6421 178.802 88.4066 175.295 92.1532C175.225 92.2239 175.154 92.3087 175.097 92.3794C169.216 93.3267 160.507 93.6801 150.978 90.4566C150.978 90.4566 147.401 84.5752 149.168 78.3968C148.122 78.7079 147.005 78.8775 145.846 78.8775C139.399 78.8775 134.167 73.6464 134.167 67.1994C134.167 60.7524 139.399 55.5213 145.846 55.5213C152.293 55.5213 157.524 60.7524 157.524 67.1994C157.524 67.9487 157.453 68.6839 157.312 69.405C165.794 64.9939 177.713 67.6942 182.223 72.5153C182.294 72.3598 182.378 72.2184 182.449 72.0771C185.446 66.648 192.275 64.6828 197.69 67.6801C203.119 70.6491 205.098 77.4778 202.101 82.9069Z" fill="#FFCF2D"/>
<path d="M163.053 61.4875C162.204 60.823 161.384 60.6392 160.593 60.9643C159.433 61.4309 158.444 63.0002 157.666 65.6441C157.553 65.9975 157.61 65.9268 157.525 66.2661C157.511 64.103 156.931 63.0427 156.111 62.2933C155.517 61.7561 154.739 61.6006 153.806 61.8409C153.297 61.9823 152.93 62.2933 152.788 62.7599C152.477 63.693 152.986 65.2199 154.358 67.4113C155.065 68.5424 155.8 69.5462 156.167 70.0127L148.66 78.3825C148.505 78.5522 148.519 78.8208 148.688 78.9763C148.773 79.047 148.872 79.0894 148.971 79.0894C149.084 79.0894 149.197 79.047 149.282 78.948L157.016 70.3238L157.03 70.3096L157.539 69.73C157.822 69.5462 159.179 68.712 160.55 67.581C162.657 65.8561 163.774 64.3858 163.844 63.184C163.901 62.5195 163.618 61.9399 163.053 61.4875ZM153.594 63.0285C153.637 62.9013 153.722 62.7458 154.033 62.6609C154.245 62.6044 154.443 62.5761 154.626 62.5761C154.994 62.5761 155.291 62.6892 155.545 62.9154C156.676 63.9475 156.62 67.0579 156.422 68.9665C154.952 66.9589 153.241 64.1171 153.594 63.0285ZM163.01 63.1416C162.911 64.8241 159.744 67.2699 157.85 68.5424C158.274 66.2803 159.306 62.3923 160.918 61.7419C161.059 61.6854 161.215 61.6571 161.37 61.6571C161.738 61.6571 162.12 61.8268 162.53 62.152C162.883 62.4347 163.039 62.7458 163.01 63.1416Z" fill="#FE5244"/>
<path d="M188.571 66.4784C187.864 65.7997 187.114 65.5594 186.323 65.7573C185.22 66.0259 184.117 67.1711 183.057 69.1646C182.845 69.5605 182.647 69.9563 182.491 70.3239C182.463 69.7867 182.421 69.1787 182.336 68.5425C182.011 65.9552 181.318 64.3294 180.286 63.7214C179.565 63.2973 178.702 63.3538 177.755 63.9194C177.105 64.3011 176.737 64.8525 176.695 65.5311C176.525 67.9629 180.54 71.3984 181.629 72.2891L184.301 85.6355C184.343 85.8334 184.513 85.9748 184.711 85.9748C184.739 85.9748 184.768 85.9748 184.796 85.9607C185.022 85.9183 185.178 85.6921 185.121 85.4659L182.52 72.4588C182.944 72.2891 184.188 71.7519 185.474 71.045C187.68 69.8291 188.839 68.7687 189.023 67.8073C189.08 67.4539 189.051 66.9591 188.571 66.4784ZM181.572 71.1439C179.946 69.7301 177.416 67.157 177.515 65.5735C177.543 65.1777 177.741 64.8666 178.165 64.6263C178.575 64.3859 178.928 64.2728 179.24 64.2728C179.452 64.2728 179.65 64.3294 179.833 64.4283C180.611 64.8808 181.191 66.3794 181.473 68.6274C181.586 69.5463 181.629 70.4229 181.643 71.0733C181.629 71.0874 181.601 71.1157 181.572 71.1439ZM188.189 67.6377C187.977 68.7405 185.163 70.3381 182.958 71.3277C183.679 69.6029 185.064 66.9308 186.521 66.5773C186.62 66.5491 186.719 66.5349 186.832 66.5349C187.213 66.5349 187.595 66.7187 187.991 67.0863C188.217 67.3266 188.217 67.5104 188.189 67.6377Z" fill="#FE5244"/>
</svg>
