<svg width="137" height="25" viewBox="0 0 137 25" fill="none" xmlns="http://www.w3.org/2000/svg">
<g clip-path="url(#clip0_2141_59327)">
<path d="M7.2 18.1002C8.96731 18.1002 10.4 16.6675 10.4 14.9002C10.4 13.1329 8.96731 11.7002 7.2 11.7002C5.43269 11.7002 4 13.1329 4 14.9002C4 16.6675 5.43269 18.1002 7.2 18.1002Z" fill="#F1BC19"/>
<path d="M14.8008 20.5C15.9053 20.5 16.8008 19.6046 16.8008 18.5C16.8008 17.3954 15.9053 16.5 14.8008 16.5C13.6962 16.5 12.8008 17.3954 12.8008 18.5C12.8008 19.6046 13.6962 20.5 14.8008 20.5Z" fill="#EE3E54"/>
<path d="M15.2004 14.1C17.8514 14.1 20.0004 11.951 20.0004 9.3C20.0004 6.64903 17.8514 4.5 15.2004 4.5C12.5494 4.5 10.4004 6.64903 10.4004 9.3C10.4004 11.951 12.5494 14.1 15.2004 14.1Z" fill="#00A7A7"/>
</g>
<path d="M42.76 15.3C42.76 16.5267 42.34 17.5333 41.5 18.32C40.66 19.1067 39.4533 19.5 37.88 19.5C36.3067 19.5 35.2 19.2733 34.56 18.82C33.92 18.3533 33.6 17.84 33.6 17.28C33.6 16.7733 33.6667 16.4067 33.8 16.18C34.0267 15.7933 34.2467 15.5333 34.46 15.4C34.98 15.7867 35.5733 16.14 36.24 16.46C36.92 16.78 37.4333 16.94 37.78 16.94C38.1267 16.94 38.3733 16.9067 38.52 16.84C38.6667 16.7733 38.7533 16.7067 38.78 16.64C38.8067 16.56 38.82 16.4533 38.82 16.32C38.82 16.0667 38.64 15.8267 38.28 15.6C37.92 15.36 37.48 15.12 36.96 14.88C36.4533 14.6267 35.9467 14.3467 35.44 14.04C34.9333 13.72 34.5 13.2867 34.14 12.74C33.78 12.1933 33.6 11.5933 33.6 10.94C33.6 10.2733 33.7533 9.66 34.06 9.1C34.3667 8.54 34.7533 8.08 35.22 7.72C35.2467 7.08 35.6267 6.50667 36.36 6C37.1067 5.49333 38.1267 5.24 39.42 5.24C41.7933 5.24 42.98 6.23333 42.98 8.22C42.98 9.43333 42.4467 10.26 41.38 10.7C40.6467 9.9 39.28 9.31333 37.28 8.94C37.3333 9.71333 37.72 10.3533 38.44 10.86C38.7733 11.0867 39.1333 11.3067 39.52 11.52C39.9067 11.72 40.2867 11.9333 40.66 12.16C41.0467 12.3867 41.4 12.6333 41.72 12.9C42.4133 13.5 42.76 14.3 42.76 15.3ZM48.0125 21.68C47.5858 21.9733 47.0858 22.12 46.5125 22.12C45.9392 22.12 45.5325 22.0067 45.2925 21.78C45.0658 21.5533 44.9525 21.1867 44.9525 20.68V11.14L44.5125 9.76C44.5658 9.69333 44.6392 9.60667 44.7325 9.5C44.8392 9.39333 45.0592 9.25333 45.3925 9.08C45.7258 8.90667 46.0725 8.82 46.4325 8.82C47.1258 8.82 47.5925 9.2 47.8325 9.96C48.5392 9.25333 49.3258 8.9 50.1925 8.9C51.0725 8.9 51.7458 9.17333 52.2125 9.72C52.6925 10.2533 52.9325 10.9667 52.9325 11.86V14.46C52.9325 15.6867 52.4525 16.8333 51.4925 17.9C50.5325 18.9667 49.4658 19.5 48.2925 19.5H48.0125V21.68ZM48.0125 16.94C48.2125 17.1 48.4725 17.18 48.7925 17.18C49.1125 17.18 49.3725 17.08 49.5725 16.88C49.7725 16.68 49.8725 16.4 49.8725 16.04V13.14C49.8725 12.4333 49.6992 11.9533 49.3525 11.7C49.1392 11.5667 48.9192 11.5 48.6925 11.5C48.4658 11.5 48.2392 11.5333 48.0125 11.6V16.94ZM58.8997 13.48C58.8997 12.5333 58.373 12.06 57.3197 12.06C56.7197 12.06 56.093 12.2533 55.4397 12.64C55.2264 12.4267 55.1197 12.1667 55.1197 11.86C55.1197 11.54 55.2064 11.2133 55.3797 10.88C55.5664 10.5467 55.8064 10.2333 56.0997 9.94C56.4064 9.63333 56.793 9.38667 57.2597 9.2C57.7264 9 58.2197 8.9 58.7397 8.9C59.7797 8.9 60.5797 9.22667 61.1397 9.88C61.6997 10.5333 61.9797 11.4667 61.9797 12.68V17.26L62.4197 18.28C62.3664 18.3733 62.293 18.4867 62.1997 18.62C62.1064 18.7533 61.8997 18.9333 61.5797 19.16C61.2597 19.3867 60.9264 19.5 60.5797 19.5C59.713 19.5 59.1864 19.02 58.9997 18.06C58.5597 19.02 57.9464 19.5 57.1597 19.5C56.3864 19.5 55.793 19.26 55.3797 18.78C54.9797 18.2867 54.7797 17.6467 54.7797 16.86C54.7797 14.82 56.153 13.74 58.8997 13.62V13.48ZM57.2797 16.12C57.2797 16.64 57.4597 16.9733 57.8197 17.12C57.8997 17.16 57.9864 17.18 58.0797 17.18C58.3464 17.18 58.6197 17.0267 58.8997 16.72V14.52C57.8197 14.7733 57.2797 15.3067 57.2797 16.12ZM70.5577 16.72C70.7043 16.8667 70.7777 17.06 70.7777 17.3C70.7777 17.54 70.731 17.78 70.6377 18.02C70.5443 18.2467 70.391 18.4733 70.1777 18.7C69.9777 18.9267 69.6777 19.12 69.2777 19.28C68.891 19.4267 68.4443 19.5 67.9377 19.5C67.4443 19.5 66.9843 19.4267 66.5577 19.28C66.131 19.12 65.7243 18.8733 65.3377 18.54C64.4977 17.7933 64.0777 16.5733 64.0777 14.88C64.0777 13.1733 64.3643 11.9133 64.9377 11.1C65.5243 10.2733 66.1843 9.82667 66.9177 9.76C67.5177 9.18667 68.151 8.9 68.8177 8.9C69.271 8.9 69.7177 9.08 70.1577 9.44C70.5977 9.8 70.8177 10.2133 70.8177 10.68C70.8177 11.1467 70.651 11.5933 70.3177 12.02C69.9977 12.4467 69.5777 12.7467 69.0577 12.92C68.471 12.2933 67.8177 11.8267 67.0977 11.52V13.4C67.0977 14.6667 67.3977 15.58 67.9977 16.14C68.451 16.5667 69.0643 16.78 69.8377 16.78C70.0643 16.78 70.3043 16.76 70.5577 16.72ZM79.4995 16.64C79.6462 16.7867 79.7195 16.98 79.7195 17.22C79.7195 17.46 79.6529 17.7067 79.5195 17.96C79.3995 18.2 79.2129 18.44 78.9595 18.68C78.7195 18.9067 78.3729 19.1 77.9195 19.26C77.4662 19.42 76.9662 19.5 76.4195 19.5C75.8862 19.5 75.4062 19.4267 74.9795 19.28C74.5529 19.12 74.1462 18.8733 73.7595 18.54C72.9195 17.7933 72.4995 16.5733 72.4995 14.88C72.4995 13.1867 72.7862 11.9333 73.3595 11.12C73.9329 10.2933 74.5862 9.84 75.3195 9.76C75.8529 9.18667 76.4929 8.9 77.2395 8.9C77.9995 8.9 78.6129 9.17333 79.0795 9.72C79.5595 10.2667 79.7995 11.0133 79.7995 11.96C79.7995 13.0667 79.3929 13.94 78.5795 14.58C77.9129 15.1133 77.1129 15.52 76.1795 15.8C76.6462 16.4133 77.4195 16.72 78.4995 16.72C78.8062 16.72 79.1395 16.6933 79.4995 16.64ZM77.0195 12.94C77.0195 12.1267 76.5195 11.68 75.5195 11.6V13.4C75.5195 14 75.5729 14.48 75.6795 14.84C76.5729 14.3467 77.0195 13.7133 77.0195 12.94ZM81.725 19.5C81.4717 18.9933 81.345 18.5867 81.345 18.28C81.345 17.68 81.605 17.2933 82.125 17.12C82.4583 16.8533 82.785 16.5733 83.105 16.28C83.4383 15.9733 83.7783 15.5533 84.125 15.02C84.4717 14.4733 84.645 13.9933 84.645 13.58C84.645 13.1533 84.5317 12.82 84.305 12.58C84.0783 12.3267 83.8117 12.2 83.505 12.2C83.065 12.2 82.525 12.2667 81.885 12.4L81.585 12.46C81.5183 11.9933 81.485 11.6 81.485 11.28C81.485 10.64 81.765 10.0867 82.325 9.62C82.8983 9.14 83.6783 8.9 84.665 8.9C86.9983 8.9 88.165 10.0467 88.165 12.34C88.165 13.1533 87.8783 13.9933 87.305 14.86C86.7317 15.7133 86.0517 16.4067 85.265 16.94C86.5183 16.9133 87.465 16.9 88.105 16.9C88.185 17.5133 88.225 17.9667 88.225 18.26C88.225 18.5533 88.1117 18.8333 87.885 19.1C87.6583 19.3667 87.285 19.5 86.765 19.5H81.725ZM99.2092 15.3C99.2092 16.5267 98.7892 17.5333 97.9492 18.32C97.1092 19.1067 95.9026 19.5 94.3292 19.5C92.7559 19.5 91.6492 19.2733 91.0092 18.82C90.3692 18.3533 90.0492 17.84 90.0492 17.28C90.0492 16.7733 90.1159 16.4067 90.2492 16.18C90.4759 15.7933 90.6959 15.5333 90.9092 15.4C91.4292 15.7867 92.0226 16.14 92.6892 16.46C93.3692 16.78 93.8826 16.94 94.2292 16.94C94.5759 16.94 94.8226 16.9067 94.9692 16.84C95.1159 16.7733 95.2026 16.7067 95.2292 16.64C95.2559 16.56 95.2692 16.4533 95.2692 16.32C95.2692 16.0667 95.0892 15.8267 94.7292 15.6C94.3692 15.36 93.9292 15.12 93.4092 14.88C92.9026 14.6267 92.3959 14.3467 91.8892 14.04C91.3826 13.72 90.9492 13.2867 90.5892 12.74C90.2292 12.1933 90.0492 11.5933 90.0492 10.94C90.0492 10.2733 90.2026 9.66 90.5092 9.1C90.8159 8.54 91.2026 8.08 91.6692 7.72C91.6959 7.08 92.0759 6.50667 92.8092 6C93.5559 5.49333 94.5759 5.24 95.8692 5.24C98.2426 5.24 99.4292 6.23333 99.4292 8.22C99.4292 9.43333 98.8959 10.26 97.8292 10.7C97.0959 9.9 95.7292 9.31333 93.7292 8.94C93.7826 9.71333 94.1692 10.3533 94.8892 10.86C95.2226 11.0867 95.5826 11.3067 95.9692 11.52C96.3559 11.72 96.7359 11.9333 97.1092 12.16C97.4959 12.3867 97.8492 12.6333 98.1692 12.9C98.8626 13.5 99.2092 14.3 99.2092 15.3ZM106.662 9.34C106.795 9.67333 106.862 10.0267 106.862 10.4C106.862 10.76 106.848 11.0267 106.822 11.2C106.808 11.36 106.728 11.54 106.582 11.74C106.435 11.9267 106.242 12.02 106.002 12.02C105.762 12.02 105.415 12.0067 104.962 11.98V14.92C104.962 16.2267 105.528 17.0933 106.662 17.52C106.662 18.0133 106.488 18.4667 106.142 18.88C105.808 19.2933 105.348 19.5 104.762 19.5C103.908 19.5 103.222 19.1867 102.702 18.56C102.182 17.9333 101.922 17.12 101.922 16.12V11.76C101.575 11.6667 101.262 11.5533 100.982 11.42L100.962 11.18C100.962 10.2733 101.275 9.66667 101.902 9.36C101.848 8.44 101.735 7.71333 101.562 7.18L101.482 6.9C101.535 6.83333 101.608 6.74667 101.702 6.64C101.808 6.53333 102.028 6.39333 102.362 6.22C102.695 6.04667 103.042 5.96 103.402 5.96C104.442 5.96 104.962 6.79333 104.962 8.46V9.28C105.388 9.32 105.955 9.34 106.662 9.34ZM113.671 9.12C114.084 8.92 114.477 8.82 114.851 8.82C115.237 8.82 115.571 8.99333 115.851 9.34C116.144 9.68667 116.291 10.08 116.291 10.52V17.26L116.731 18.28C116.677 18.3733 116.604 18.4867 116.511 18.62C116.417 18.7533 116.211 18.9333 115.891 19.16C115.571 19.3867 115.231 19.5 114.871 19.5C114.057 19.5 113.544 19.0533 113.331 18.16C113.171 18.5333 112.924 18.8533 112.591 19.12C112.257 19.3733 111.857 19.5 111.391 19.5C110.591 19.5 109.937 19.2467 109.431 18.74C108.937 18.22 108.691 17.56 108.691 16.76V11.14L108.251 9.76C108.437 9.52 108.731 9.30667 109.131 9.12C109.544 8.92 109.944 8.82 110.331 8.82C110.717 8.82 111.051 8.99333 111.331 9.34C111.611 9.68667 111.751 10.08 111.751 10.52V15.38C111.751 15.9533 111.837 16.36 112.011 16.6C112.197 16.84 112.604 16.9667 113.231 16.98V11.14L112.771 9.76C112.957 9.52 113.257 9.30667 113.671 9.12ZM126.255 7.94V17.26L126.675 18.28C126.621 18.3733 126.548 18.4867 126.455 18.62C126.361 18.7533 126.155 18.9333 125.835 19.16C125.528 19.3867 125.195 19.5 124.835 19.5C124.088 19.5 123.588 19.1267 123.335 18.38C122.908 19.1267 122.281 19.5 121.455 19.5C120.628 19.5 119.961 19.2333 119.455 18.7C118.948 18.1533 118.695 17.4867 118.695 16.7V13.62C118.695 12.3 119.075 11.2533 119.835 10.48C120.595 9.69333 121.528 9.3 122.635 9.3C122.808 9.3 122.995 9.32 123.195 9.36C123.168 8.52 123.048 7.66667 122.835 6.8L122.735 6.4C122.788 6.33333 122.861 6.24667 122.955 6.14C123.061 6.03333 123.281 5.89333 123.615 5.72C123.948 5.53333 124.301 5.44 124.675 5.44C125.728 5.44 126.255 6.27333 126.255 7.94ZM121.555 15.58C121.555 16.1 121.668 16.4867 121.895 16.74C122.135 16.98 122.568 17.12 123.195 17.16V12.8C123.155 12.44 123.001 12.1733 122.735 12C122.481 11.8133 122.088 11.6667 121.555 11.56V15.58ZM128.52 21.04C128.453 20.7067 128.42 20.42 128.42 20.18C128.42 19.94 128.453 19.7133 128.52 19.5C128.586 19.3 128.74 19.1133 128.98 18.94C129.22 18.7667 129.526 18.68 129.9 18.68C130.273 18.68 130.693 18.8 131.16 19.04C131.626 19.28 131.993 19.4 132.26 19.4C132.886 19.4 133.2 19.0067 133.2 18.22V17.28C132.853 17.9067 132.24 18.22 131.36 18.22C130.48 18.22 129.806 17.98 129.34 17.5C128.886 17.02 128.66 16.4267 128.66 15.72V11.14L128.22 9.76C128.406 9.52 128.7 9.30667 129.1 9.12C129.513 8.92 129.913 8.82 130.3 8.82C130.686 8.82 131.02 8.99333 131.3 9.34C131.58 9.68667 131.72 10.08 131.72 10.52V15.04C131.72 15.5067 131.833 15.8133 132.06 15.96C132.3 16.1067 132.68 16.1867 133.2 16.2V11.14L132.74 9.76C132.926 9.52 133.226 9.30667 133.64 9.12C134.053 8.92 134.446 8.82 134.82 8.82C135.206 8.82 135.54 8.99333 135.82 9.34C136.113 9.68667 136.26 10.08 136.26 10.52V17.52C136.26 18.92 135.92 19.98 135.24 20.7C134.573 21.4333 133.573 21.8 132.24 21.8C131.493 21.8 130.786 21.6733 130.12 21.42C129.466 21.1667 128.933 21.04 128.52 21.04Z" fill="#ECEFF1"/>
<defs>
<clipPath id="clip0_2141_59327">
<rect width="24" height="24" fill="white" transform="translate(0 0.5)"/>
</clipPath>
</defs>
</svg>
