<svg width="96" height="96" viewBox="0 0 96 96" fill="none" xmlns="http://www.w3.org/2000/svg">
<path d="M48 12.48C38.5795 12.48 29.5448 16.2223 22.8835 22.8836C16.2223 29.5449 12.48 38.5795 12.48 48C12.48 57.4205 16.2223 66.4551 22.8835 73.1164C29.5448 79.7777 38.5795 83.52 48 83.52C57.4205 83.52 66.4551 79.7777 73.1164 73.1164C79.7777 66.4551 83.52 57.4205 83.52 48C83.52 38.5795 79.7777 29.5449 73.1164 22.8836C66.4551 16.2223 57.4205 12.48 48 12.48Z" fill="#E6EDB7"/>
<path d="M12.4801 25.92C11.9708 25.92 11.4825 26.1223 11.1224 26.4824C10.7623 26.8424 10.5601 27.3308 10.5601 27.84C10.5601 28.3492 10.7623 28.8376 11.1224 29.1976C11.4825 29.5577 11.9708 29.76 12.4801 29.76C12.9893 29.76 13.4776 29.5577 13.8377 29.1976C14.1978 28.8376 14.4001 28.3492 14.4001 27.84C14.4001 27.3308 14.1978 26.8424 13.8377 26.4824C13.4776 26.1223 12.9893 25.92 12.4801 25.92Z" fill="#88AE45"/>
<path d="M73.92 11.52C73.6654 11.52 73.4212 11.6211 73.2411 11.8012C73.0611 11.9812 72.96 12.2254 72.96 12.48C72.96 12.7346 73.0611 12.9788 73.2411 13.1588C73.4212 13.3389 73.6654 13.44 73.92 13.44C74.1746 13.44 74.4187 13.3389 74.5988 13.1588C74.7788 12.9788 74.88 12.7346 74.88 12.48C74.88 12.2254 74.7788 11.9812 74.5988 11.8012C74.4187 11.6211 74.1746 11.52 73.92 11.52ZM79.68 10.56C78.6615 10.56 77.6848 10.9646 76.9647 11.6847C76.2445 12.4048 75.84 13.3816 75.84 14.4C75.84 15.4184 76.2445 16.3951 76.9647 17.1153C77.6848 17.8354 78.6615 18.24 79.68 18.24C80.6984 18.24 81.6751 17.8354 82.3953 17.1153C83.1154 16.3951 83.52 15.4184 83.52 14.4C83.52 13.3816 83.1154 12.4048 82.3953 11.6847C81.6751 10.9646 80.6984 10.56 79.68 10.56Z" fill="#F1BC19"/>
<path d="M83.5201 21.12C83.0109 21.12 82.5225 21.3223 82.1625 21.6824C81.8024 22.0424 81.6001 22.5308 81.6001 23.04C81.6001 23.5492 81.8024 24.0376 82.1625 24.3976C82.5225 24.7577 83.0109 24.96 83.5201 24.96C84.0293 24.96 84.5177 24.7577 84.8777 24.3976C85.2378 24.0376 85.4401 23.5492 85.4401 23.04C85.4401 22.5308 85.2378 22.0424 84.8777 21.6824C84.5177 21.3223 84.0293 21.12 83.5201 21.12Z" fill="#88AE45"/>
<path d="M77.7601 71.04C77.2508 71.04 76.7625 71.2423 76.4024 71.6024C76.0423 71.9624 75.8401 72.4508 75.8401 72.96C75.8401 73.4692 76.0423 73.9576 76.4024 74.3176C76.7625 74.6777 77.2508 74.88 77.7601 74.88C78.2693 74.88 78.7576 74.6777 79.1177 74.3176C79.4778 73.9576 79.6801 73.4692 79.6801 72.96C79.6801 72.4508 79.4778 71.9624 79.1177 71.6024C78.7576 71.2423 78.2693 71.04 77.7601 71.04ZM14.4001 56.64C13.3816 56.64 12.4049 57.0446 11.6848 57.7647C10.9646 58.4848 10.5601 59.4616 10.5601 60.48C10.5601 61.4984 10.9646 62.4752 11.6848 63.1953C12.4049 63.9154 13.3816 64.32 14.4001 64.32C15.4185 64.32 16.3952 63.9154 17.1153 63.1953C17.8355 62.4752 18.2401 61.4984 18.2401 60.48C18.2401 59.4616 17.8355 58.4848 17.1153 57.7647C16.3952 57.0446 15.4185 56.64 14.4001 56.64Z" fill="#FBCD59"/>
<path d="M24.0001 81.6C23.4909 81.6 23.0025 81.8023 22.6424 82.1624C22.2824 82.5224 22.0801 83.0108 22.0801 83.52C22.0801 84.0292 22.2824 84.5176 22.6424 84.8776C23.0025 85.2377 23.4909 85.44 24.0001 85.44C24.5093 85.44 24.9977 85.2377 25.3577 84.8776C25.7178 84.5176 25.9201 84.0292 25.9201 83.52C25.9201 83.0108 25.7178 82.5224 25.3577 82.1624C24.9977 81.8023 24.5093 81.6 24.0001 81.6Z" fill="#88AE45"/>
<path d="M17.7601 48.96C17.1236 48.96 16.5131 49.2129 16.0631 49.6629C15.613 50.113 15.3601 50.7235 15.3601 51.36C15.3601 51.9965 15.613 52.607 16.0631 53.0571C16.5131 53.5071 17.1236 53.76 17.7601 53.76C18.3966 53.76 19.0071 53.5071 19.4572 53.0571C19.9073 52.607 20.1601 51.9965 20.1601 51.36C20.1601 50.7235 19.9073 50.113 19.4572 49.6629C19.0071 49.2129 18.3966 48.96 17.7601 48.96Z" fill="white"/>
<path d="M20.16 63.36C19.9053 63.36 19.6612 63.4611 19.4811 63.6412C19.3011 63.8212 19.2 64.0654 19.2 64.32C19.2 64.5746 19.3011 64.8188 19.4811 64.9988C19.6612 65.1789 19.9053 65.28 20.16 65.28C20.4146 65.28 20.6587 65.1789 20.8388 64.9988C21.0188 64.8188 21.12 64.5746 21.12 64.32C21.12 64.0654 21.0188 63.8212 20.8388 63.6412C20.6587 63.4611 20.4146 63.36 20.16 63.36Z" fill="#F1BC19"/>
<path d="M76.8001 31.68C76.5455 31.68 76.3013 31.7811 76.1213 31.9612C75.9412 32.1412 75.8401 32.3854 75.8401 32.64C75.8401 32.8946 75.9412 33.1388 76.1213 33.3188C76.3013 33.4989 76.5455 33.6 76.8001 33.6C77.0547 33.6 77.2989 33.4989 77.4789 33.3188C77.6589 33.1388 77.7601 32.8946 77.7601 32.64C77.7601 32.3854 77.6589 32.1412 77.4789 31.9612C77.2989 31.7811 77.0547 31.68 76.8001 31.68Z" fill="white"/>
<path d="M47.9999 25.0003C41.9 25.0003 36.05 27.4235 31.7367 31.7368C27.4234 36.05 25.0002 41.9001 25.0002 48C25.0002 54.0999 27.4234 59.95 31.7367 64.2632C36.05 68.5765 41.9 70.9997 47.9999 70.9997C54.0998 70.9997 59.9499 68.5765 64.2632 64.2632C68.5764 59.95 70.9996 54.0999 70.9996 48C70.9996 41.9001 68.5764 36.05 64.2632 31.7368C59.9499 27.4235 54.0998 25.0003 47.9999 25.0003Z" fill="#88AE45"/>
<path d="M48 25.344C60.4925 25.344 70.656 35.5075 70.656 48C70.656 60.4925 60.4925 70.656 48 70.656C35.5075 70.656 25.344 60.4925 25.344 48C25.344 35.5075 35.5075 25.344 48 25.344ZM48 24C34.7453 24 24 34.7453 24 48C24 61.2547 34.7453 72 48 72C61.2547 72 72 61.2547 72 48C72 34.7453 61.2547 24 48 24Z" fill="#472B29"/>
<path d="M48 29.28C45.5417 29.28 43.1074 29.7642 40.8362 30.705C38.565 31.6457 36.5013 33.0246 34.763 34.763C33.0247 36.5013 31.6458 38.565 30.705 40.8362C29.7642 43.1074 29.28 45.5417 29.28 48C29.28 50.4583 29.7642 52.8926 30.705 55.1638C31.6458 57.435 33.0247 59.4987 34.763 61.237C36.5013 62.9754 38.565 64.3543 40.8362 65.295C43.1074 66.2358 45.5417 66.72 48 66.72C50.4584 66.72 52.8926 66.2358 55.1639 65.295C57.4351 64.3543 59.4988 62.9754 61.2371 61.237C62.9754 59.4987 64.3543 57.435 65.2951 55.1638C66.2358 52.8926 66.72 50.4583 66.72 48C66.72 45.5417 66.2358 43.1074 65.2951 40.8362C64.3543 38.565 62.9754 36.5013 61.2371 34.763C59.4988 33.0246 57.4351 31.6457 55.1639 30.705C52.8926 29.7642 50.4584 29.28 48 29.28Z" fill="#FDFCEF"/>
<path d="M66.9715 45.0758C66.9303 44.8138 66.6855 44.6342 66.4234 44.6746C66.1613 44.7149 65.9808 44.9597 66.0231 45.2227C66.9168 50.9597 65.0112 56.8214 60.9264 60.9034C53.8061 68.0189 42.2208 68.0189 35.1005 60.9034C27.9802 53.7888 27.9802 42.2112 35.1005 35.0957C42.2208 27.9811 53.8061 27.9811 60.9264 35.0957C61.6733 35.8426 62.3597 36.672 63.025 37.631C63.1767 37.849 63.4752 37.9037 63.6941 37.752C63.9101 37.6032 63.9658 37.3027 63.8151 37.0838C63.1162 36.0768 62.3933 35.2042 61.6051 34.417C54.1104 26.928 41.9155 26.927 34.4199 34.417C26.9251 41.9069 26.9251 54.0931 34.4199 61.583C41.9146 69.072 54.1095 69.073 61.6051 61.583C65.9069 57.2851 67.9133 51.1142 66.9715 45.0758Z" fill="#472B29"/>
<path d="M64.8663 41.0842C64.9671 41.3299 65.2484 41.447 65.4932 41.3462C65.7371 41.2464 65.8561 40.9661 65.7543 40.7203C65.4519 39.985 65.1697 39.3811 64.8654 38.8224C64.7387 38.5891 64.4468 38.5037 64.2135 38.6304C64.1723 38.6525 64.1348 38.6813 64.1031 38.713C63.9563 38.8598 63.9169 39.0902 64.0206 39.2822C64.3095 39.8093 64.5783 40.3824 64.8663 41.0842Z" fill="#472B29"/>
<path d="M39.36 46.44C38.9434 46.44 38.5517 46.6022 38.257 46.897C37.9623 47.1917 37.8 47.5834 37.8 48C37.8 48.4166 37.9623 48.8083 38.257 49.103L44.977 55.823C45.2717 56.1178 45.6634 56.28 46.08 56.28V56.64L46.1098 56.28C46.537 56.2714 46.944 56.087 47.2301 55.775L57.7901 44.255C58.0714 43.9478 58.2164 43.5494 58.1991 43.1328C58.1808 42.7162 58.0013 42.3331 57.6951 42.0509C57.3869 41.7696 56.9962 41.6189 56.5728 41.6419C56.1572 41.6602 55.7732 41.8387 55.4919 42.1459L46.032 52.465L40.464 46.897C40.1684 46.6022 39.7767 46.44 39.36 46.44Z" fill="#88AE45"/>
<path d="M56.6399 42C56.9404 42 57.2284 42.1123 57.4511 42.3158C57.6873 42.5328 57.8246 42.8275 57.839 43.1482C57.8524 43.4688 57.7411 43.775 57.5241 44.0112L46.9641 55.5312C46.7443 55.7712 46.4313 55.9133 46.0799 55.92C45.7593 55.92 45.4579 55.7952 45.2313 55.5686L38.5113 48.8486C38.2847 48.6221 38.1599 48.3206 38.1599 48C38.1599 47.6794 38.2847 47.3779 38.5123 47.1514C38.7379 46.9248 39.0393 46.8 39.3599 46.8C39.6806 46.8 39.982 46.9248 40.2086 47.1514L45.5107 52.4534L46.0425 52.9853L46.5503 52.4314L55.7558 42.3888C55.9852 42.1382 56.2991 42 56.6399 42ZM56.6399 41.28C56.1206 41.28 55.6031 41.4893 55.2249 41.903L46.0195 51.9446L40.7174 46.6426C40.343 46.2672 39.8515 46.08 39.3599 46.08C38.8684 46.08 38.3769 46.2672 38.0025 46.6426C37.2527 47.3923 37.2527 48.6077 38.0025 49.3574L44.7225 56.0774C45.0825 56.4384 45.5711 56.64 46.0799 56.64C46.0943 56.64 46.1078 56.64 46.1212 56.64C46.6444 56.6285 47.1407 56.4038 47.495 56.0179L58.055 44.4979C58.7721 43.7165 58.7183 42.5011 57.9369 41.785C57.5683 41.447 57.1036 41.28 56.6399 41.28Z" fill="#472B29"/>
</svg>
