<svg width="75" height="75" viewBox="0 0 75 75" fill="none" xmlns="http://www.w3.org/2000/svg">
<path d="M37.44 1.92C28.0195 1.92 18.9849 5.66227 12.3236 12.3236C5.66227 18.9849 1.92 28.0195 1.92 37.44C1.92 46.8605 5.66227 55.8951 12.3236 62.5564C18.9849 69.2177 28.0195 72.96 37.44 72.96C46.8605 72.96 55.8951 69.2177 62.5564 62.5564C69.2177 55.8951 72.96 46.8605 72.96 37.44C72.96 28.0195 69.2177 18.9849 62.5564 12.3236C55.8951 5.66227 46.8605 1.92 37.44 1.92Z" fill="#E6EDB7"/>
<path d="M1.92 15.36C1.41078 15.36 0.922425 15.5623 0.562355 15.9224C0.202285 16.2824 0 16.7708 0 17.28C0 17.7892 0.202285 18.2776 0.562355 18.6376C0.922425 18.9977 1.41078 19.2 1.92 19.2C2.42922 19.2 2.91758 18.9977 3.27764 18.6376C3.63771 18.2776 3.84 17.7892 3.84 17.28C3.84 16.7708 3.63771 16.2824 3.27764 15.9224C2.91758 15.5623 2.42922 15.36 1.92 15.36Z" fill="#FE5244"/>
<path d="M63.36 0.96C63.1054 0.96 62.8612 1.06114 62.6812 1.24118C62.5011 1.42121 62.4 1.66539 62.4 1.92C62.4 2.17461 62.5011 2.41879 62.6812 2.59882C62.8612 2.77886 63.1054 2.88 63.36 2.88C63.6146 2.88 63.8588 2.77886 64.0388 2.59882C64.2189 2.41879 64.32 2.17461 64.32 1.92C64.32 1.66539 64.2189 1.42121 64.0388 1.24118C63.8588 1.06114 63.6146 0.96 63.36 0.96ZM69.12 0C68.1016 0 67.1248 0.40457 66.4047 1.12471C65.6846 1.84485 65.28 2.82157 65.28 3.84C65.28 4.85843 65.6846 5.83515 66.4047 6.55529C67.1248 7.27543 68.1016 7.68 69.12 7.68C70.1384 7.68 71.1152 7.27543 71.8353 6.55529C72.5554 5.83515 72.96 4.85843 72.96 3.84C72.96 2.82157 72.5554 1.84485 71.8353 1.12471C71.1152 0.40457 70.1384 0 69.12 0Z" fill="#F1BC19"/>
<path d="M72.96 10.56C72.4508 10.56 71.9624 10.7623 71.6024 11.1224C71.2423 11.4824 71.04 11.9708 71.04 12.48C71.04 12.9892 71.2423 13.4776 71.6024 13.8376C71.9624 14.1977 72.4508 14.4 72.96 14.4C73.4692 14.4 73.9576 14.1977 74.3176 13.8376C74.6777 13.4776 74.88 12.9892 74.88 12.48C74.88 11.9708 74.6777 11.4824 74.3176 11.1224C73.9576 10.7623 73.4692 10.56 72.96 10.56Z" fill="#FE5244"/>
<path d="M67.2 60.48C66.6908 60.48 66.2024 60.6823 65.8424 61.0424C65.4823 61.4024 65.28 61.8908 65.28 62.4C65.28 62.9092 65.4823 63.3976 65.8424 63.7576C66.2024 64.1177 66.6908 64.32 67.2 64.32C67.7092 64.32 68.1976 64.1177 68.5576 63.7576C68.9177 63.3976 69.12 62.9092 69.12 62.4C69.12 61.8908 68.9177 61.4024 68.5576 61.0424C68.1976 60.6823 67.7092 60.48 67.2 60.48ZM3.84 46.08C2.82157 46.08 1.84485 46.4846 1.12471 47.2047C0.40457 47.9248 0 48.9016 0 49.92C0 50.9384 0.40457 51.9152 1.12471 52.6353C1.84485 53.3554 2.82157 53.76 3.84 53.76C4.85843 53.76 5.83515 53.3554 6.55529 52.6353C7.27543 51.9152 7.68 50.9384 7.68 49.92C7.68 48.9016 7.27543 47.9248 6.55529 47.2047C5.83515 46.4846 4.85843 46.08 3.84 46.08Z" fill="#FBCD59"/>
<path d="M13.44 71.04C12.9308 71.04 12.4424 71.2423 12.0824 71.6024C11.7223 71.9624 11.52 72.4508 11.52 72.96C11.52 73.4692 11.7223 73.9576 12.0824 74.3176C12.4424 74.6777 12.9308 74.88 13.44 74.88C13.9492 74.88 14.4376 74.6777 14.7976 74.3176C15.1577 73.9576 15.36 73.4692 15.36 72.96C15.36 72.4508 15.1577 71.9624 14.7976 71.6024C14.4376 71.2423 13.9492 71.04 13.44 71.04Z" fill="#FE5244"/>
<path d="M7.2 38.4C6.56348 38.4 5.95303 38.6529 5.50294 39.1029C5.05286 39.553 4.8 40.1635 4.8 40.8C4.8 41.4365 5.05286 42.047 5.50294 42.4971C5.95303 42.9471 6.56348 43.2 7.2 43.2C7.83652 43.2 8.44697 42.9471 8.89706 42.4971C9.34714 42.047 9.6 41.4365 9.6 40.8C9.6 40.1635 9.34714 39.553 8.89706 39.1029C8.44697 38.6529 7.83652 38.4 7.2 38.4Z" fill="white"/>
<path d="M9.6 52.8C9.34539 52.8 9.10121 52.9011 8.92118 53.0812C8.74114 53.2612 8.64 53.5054 8.64 53.76C8.64 54.0146 8.74114 54.2588 8.92118 54.4388C9.10121 54.6189 9.34539 54.72 9.6 54.72C9.85461 54.72 10.0988 54.6189 10.2788 54.4388C10.4589 54.2588 10.56 54.0146 10.56 53.76C10.56 53.5054 10.4589 53.2612 10.2788 53.0812C10.0988 52.9011 9.85461 52.8 9.6 52.8Z" fill="#F1BC19"/>
<path d="M66.24 21.12C65.9854 21.12 65.7412 21.2211 65.5612 21.4012C65.3811 21.5812 65.28 21.8254 65.28 22.08C65.28 22.3346 65.3811 22.5788 65.5612 22.7588C65.7412 22.9389 65.9854 23.04 66.24 23.04C66.4946 23.04 66.7388 22.9389 66.9188 22.7588C67.0989 22.5788 67.2 22.3346 67.2 22.08C67.2 21.8254 67.0989 21.5812 66.9188 21.4012C66.7388 21.2211 66.4946 21.12 66.24 21.12Z" fill="white"/>
<path d="M37.44 14.4403C31.3401 14.4403 25.49 16.8635 21.1768 21.1768C16.8635 25.49 14.4403 31.3401 14.4403 37.44C14.4403 43.5399 16.8635 49.3899 21.1768 53.7032C25.49 58.0165 31.3401 60.4397 37.44 60.4397C43.5399 60.4397 49.3899 58.0165 53.7032 53.7032C58.0165 49.3899 60.4397 43.5399 60.4397 37.44C60.4397 31.3401 58.0165 25.49 53.7032 21.1768C49.3899 16.8635 43.5399 14.4403 37.44 14.4403Z" fill="#FE5244"/>
<path d="M37.44 14.784C49.9325 14.784 60.096 24.9475 60.096 37.44C60.096 49.9325 49.9325 60.096 37.44 60.096C24.9475 60.096 14.784 49.9325 14.784 37.44C14.784 24.9475 24.9475 14.784 37.44 14.784ZM37.44 13.44C24.1853 13.44 13.44 24.1853 13.44 37.44C13.44 50.6947 24.1853 61.44 37.44 61.44C50.6947 61.44 61.44 50.6947 61.44 37.44C61.44 24.1853 50.6947 13.44 37.44 13.44Z" fill="#472B29"/>
<path d="M37.44 18.72C34.9817 18.72 32.5474 19.2042 30.2762 20.145C28.005 21.0857 25.9413 22.4646 24.203 24.203C22.4646 25.9413 21.0857 28.005 20.145 30.2762C19.2042 32.5474 18.72 34.9817 18.72 37.44C18.72 39.8983 19.2042 42.3326 20.145 44.6038C21.0857 46.875 22.4646 48.9387 24.203 50.677C25.9413 52.4154 28.005 53.7943 30.2762 54.735C32.5474 55.6758 34.9817 56.16 37.44 56.16C39.8983 56.16 42.3326 55.6758 44.6038 54.735C46.875 53.7943 48.9387 52.4154 50.677 50.677C52.4154 48.9387 53.7943 46.875 54.735 44.6038C55.6758 42.3326 56.16 39.8983 56.16 37.44C56.16 34.9817 55.6758 32.5474 54.735 30.2762C53.7943 28.005 52.2383 26.2383 50.5 24.5C48.7617 22.7617 46.875 21.0857 44.6038 20.145C42.3326 19.2042 39.8983 18.72 37.44 18.72Z" fill="#FDFCEF"/>
<path d="M56.4115 34.5158C56.3702 34.2538 56.1254 34.0742 55.8634 34.1146C55.6013 34.1549 55.4208 34.3997 55.463 34.6627C56.3568 40.3997 54.4512 46.2614 50.3664 50.3434C43.2461 57.4589 31.6608 57.4589 24.5405 50.3434C17.4202 43.2288 17.4202 31.6512 24.5405 24.5357C31.6608 17.4211 43.2461 17.4211 50.3664 24.5357C51.1133 25.2826 51.7997 26.112 52.465 27.071C52.6166 27.289 52.9152 27.3437 53.1341 27.192C53.3501 27.0432 53.4058 26.7427 53.255 26.5238C52.5562 25.5168 51.8333 24.6442 51.0451 23.857C43.5504 16.368 31.3555 16.367 23.8598 23.857C16.3651 31.3469 16.3651 43.5331 23.8598 51.023C31.3546 58.512 43.5494 58.513 51.0451 51.023C55.3469 46.7251 57.3533 40.5542 56.4115 34.5158Z" fill="#472B29"/>
<path d="M54.3062 30.5242C54.407 30.7699 54.6883 30.887 54.9331 30.7862C55.177 30.6864 55.296 30.4061 55.1942 30.1603C54.8918 29.425 54.6096 28.8211 54.3053 28.2624C54.1786 28.0291 53.8867 27.9437 53.6534 28.0704C53.6122 28.0925 53.5747 28.1213 53.543 28.153C53.3962 28.2998 53.3568 28.5302 53.4605 28.7222C53.7494 29.2493 54.0182 29.8224 54.3062 30.5242Z" fill="#472B29"/>
<path d="M51.5 25.789L26.3124 51.5481C26.0226 51.8437 25.9909 51.7467 25.1939 50.9653L24.5405 50.3434L23.9309 49.7045C23 48.5 22.4523 48.3433 22.7421 48.0477L47.8453 22.4437C48.0596 22.582 48.6103 22.9024 49.4434 23.6744C50.2765 24.4464 50.6388 24.8146 50.6388 24.8146C51 25 51.5 25.789 51.5 25.789Z" fill="#FE5244"/>
</svg>
