<svg width="76" height="76" viewBox="0 0 76 76" fill="none" xmlns="http://www.w3.org/2000/svg">
    <path d="M38 2.48C28.5795 2.48 19.5448 6.22227 12.8835 12.8836C6.22226 19.5449 2.47998 28.5795 2.47998 38C2.47998 47.4205 6.22226 56.4551 12.8835 63.1164C19.5448 69.7777 28.5795 73.52 38 73.52C47.4205 73.52 56.4551 69.7777 63.1164 63.1164C69.7777 56.4551 73.52 47.4205 73.52 38C73.52 28.5795 69.7777 19.5449 63.1164 12.8836C56.4551 6.22227 47.4205 2.48 38 2.48Z" fill="#E6EDB7"/>
    <path d="M2.48006 15.92C1.97084 15.92 1.48248 16.1223 1.12241 16.4824C0.762344 16.8424 0.560059 17.3308 0.560059 17.84C0.560059 18.3492 0.762344 18.8376 1.12241 19.1976C1.48248 19.5577 1.97084 19.76 2.48006 19.76C2.98927 19.76 3.47763 19.5577 3.8377 19.1976C4.19777 18.8376 4.40006 18.3492 4.40006 17.84C4.40006 17.3308 4.19777 16.8424 3.8377 16.4824C3.47763 16.1223 2.98927 15.92 2.48006 15.92Z" fill="#88AE45"/>
    <path d="M63.92 1.52C63.6654 1.52 63.4212 1.62114 63.2411 1.80118C63.0611 1.98121 62.96 2.22539 62.96 2.48C62.96 2.73461 63.0611 2.97878 63.2411 3.15882C63.4212 3.33885 63.6654 3.44 63.92 3.44C64.1746 3.44 64.4187 3.33885 64.5988 3.15882C64.7788 2.97878 64.88 2.73461 64.88 2.48C64.88 2.22539 64.7788 1.98121 64.5988 1.80118C64.4187 1.62114 64.1746 1.52 63.92 1.52ZM69.68 0.559998C68.6615 0.559998 67.6848 0.964568 66.9647 1.68471C66.2445 2.40485 65.84 3.38157 65.84 4.4C65.84 5.41843 66.2445 6.39515 66.9647 7.11529C67.6848 7.83543 68.6615 8.24 69.68 8.24C70.6984 8.24 71.6751 7.83543 72.3953 7.11529C73.1154 6.39515 73.52 5.41843 73.52 4.4C73.52 3.38157 73.1154 2.40485 72.3953 1.68471C71.6751 0.964568 70.6984 0.559998 69.68 0.559998Z" fill="#F1BC19"/>
    <path d="M73.5201 11.12C73.0109 11.12 72.5225 11.3223 72.1625 11.6824C71.8024 12.0424 71.6001 12.5308 71.6001 13.04C71.6001 13.5492 71.8024 14.0376 72.1625 14.3976C72.5225 14.7577 73.0109 14.96 73.5201 14.96C74.0293 14.96 74.5177 14.7577 74.8777 14.3976C75.2378 14.0376 75.4401 13.5492 75.4401 13.04C75.4401 12.5308 75.2378 12.0424 74.8777 11.6824C74.5177 11.3223 74.0293 11.12 73.5201 11.12Z" fill="#88AE45"/>
    <path d="M67.7601 61.04C67.2508 61.04 66.7625 61.2423 66.4024 61.6024C66.0423 61.9624 65.8401 62.4508 65.8401 62.96C65.8401 63.4692 66.0423 63.9576 66.4024 64.3176C66.7625 64.6777 67.2508 64.88 67.7601 64.88C68.2693 64.88 68.7576 64.6777 69.1177 64.3176C69.4778 63.9576 69.6801 63.4692 69.6801 62.96C69.6801 62.4508 69.4778 61.9624 69.1177 61.6024C68.7576 61.2423 68.2693 61.04 67.7601 61.04ZM4.40006 46.64C3.38163 46.64 2.40491 47.0446 1.68477 47.7647C0.964629 48.4848 0.560059 49.4616 0.560059 50.48C0.560059 51.4984 0.964629 52.4752 1.68477 53.1953C2.40491 53.9154 3.38163 54.32 4.40006 54.32C5.41849 54.32 6.39521 53.9154 7.11535 53.1953C7.83549 52.4752 8.24006 51.4984 8.24006 50.48C8.24006 49.4616 7.83549 48.4848 7.11535 47.7647C6.39521 47.0446 5.41849 46.64 4.40006 46.64Z" fill="#FBCD59"/>
    <path d="M14.0001 71.6C13.4909 71.6 13.0025 71.8023 12.6424 72.1624C12.2824 72.5224 12.0801 73.0108 12.0801 73.52C12.0801 74.0292 12.2824 74.5176 12.6424 74.8776C13.0025 75.2377 13.4909 75.44 14.0001 75.44C14.5093 75.44 14.9977 75.2377 15.3577 74.8776C15.7178 74.5176 15.9201 74.0292 15.9201 73.52C15.9201 73.0108 15.7178 72.5224 15.3577 72.1624C14.9977 71.8023 14.5093 71.6 14.0001 71.6Z" fill="#88AE45"/>
    <path d="M7.76011 38.96C7.12359 38.96 6.51314 39.2129 6.06305 39.6629C5.61296 40.113 5.36011 40.7235 5.36011 41.36C5.36011 41.9965 5.61296 42.607 6.06305 43.0571C6.51314 43.5071 7.12359 43.76 7.76011 43.76C8.39663 43.76 9.00708 43.5071 9.45716 43.0571C9.90725 42.607 10.1601 41.9965 10.1601 41.36C10.1601 40.7235 9.90725 40.113 9.45716 39.6629C9.00708 39.2129 8.39663 38.96 7.76011 38.96Z" fill="white"/>
    <path d="M10.16 53.36C9.90534 53.36 9.66116 53.4611 9.48113 53.6412C9.30109 53.8212 9.19995 54.0654 9.19995 54.32C9.19995 54.5746 9.30109 54.8188 9.48113 54.9988C9.66116 55.1789 9.90534 55.28 10.16 55.28C10.4146 55.28 10.6587 55.1789 10.8388 54.9988C11.0188 54.8188 11.12 54.5746 11.12 54.32C11.12 54.0654 11.0188 53.8212 10.8388 53.6412C10.6587 53.4611 10.4146 53.36 10.16 53.36Z" fill="#F1BC19"/>
    <path d="M66.8001 21.68C66.5455 21.68 66.3013 21.7811 66.1213 21.9612C65.9412 22.1412 65.8401 22.3854 65.8401 22.64C65.8401 22.8946 65.9412 23.1388 66.1213 23.3188C66.3013 23.4989 66.5455 23.6 66.8001 23.6C67.0547 23.6 67.2989 23.4989 67.4789 23.3188C67.6589 23.1388 67.7601 22.8946 67.7601 22.64C67.7601 22.3854 67.6589 22.1412 67.4789 21.9612C67.2989 21.7811 67.0547 21.68 66.8001 21.68Z" fill="white"/>
    <path d="M37.9999 15.0003C31.9 15.0003 26.05 17.4235 21.7367 21.7368C17.4234 26.05 15.0002 31.9001 15.0002 38C15.0002 44.0999 17.4234 49.95 21.7367 54.2632C26.05 58.5765 31.9 60.9997 37.9999 60.9997C44.0998 60.9997 49.9499 58.5765 54.2632 54.2632C58.5764 49.95 60.9996 44.0999 60.9996 38C60.9996 31.9001 58.5764 26.05 54.2632 21.7368C49.9499 17.4235 44.0998 15.0003 37.9999 15.0003Z" fill="#88AE45"/>
    <path d="M38 15.344C50.4925 15.344 60.656 25.5075 60.656 38C60.656 50.4925 50.4925 60.656 38 60.656C25.5075 60.656 15.344 50.4925 15.344 38C15.344 25.5075 25.5075 15.344 38 15.344ZM38 14C24.7453 14 14 24.7453 14 38C14 51.2547 24.7453 62 38 62C51.2547 62 62 51.2547 62 38C62 24.7453 51.2547 14 38 14Z" fill="#472B29"/>
    <path d="M38 19.28C35.5417 19.28 33.1074 19.7642 30.8362 20.705C28.565 21.6457 26.5013 23.0246 24.763 24.763C23.0247 26.5013 21.6458 28.565 20.705 30.8362C19.7642 33.1074 19.28 35.5417 19.28 38C19.28 40.4583 19.7642 42.8926 20.705 45.1638C21.6458 47.435 23.0247 49.4987 24.763 51.237C26.5013 52.9754 28.565 54.3543 30.8362 55.295C33.1074 56.2358 35.5417 56.72 38 56.72C40.4584 56.72 42.8926 56.2358 45.1639 55.295C47.4351 54.3543 49.4988 52.9754 51.2371 51.237C52.9754 49.4987 54.3543 47.435 55.2951 45.1638C56.2358 42.8926 56.72 40.4583 56.72 38C56.72 35.5417 56.2358 33.1074 55.2951 30.8362C54.3543 28.565 52.9754 26.5013 51.2371 24.763C49.4988 23.0246 47.4351 21.6457 45.1639 20.705C42.8926 19.7642 40.4584 19.28 38 19.28Z" fill="#FDFCEF"/>
    <path d="M56.9715 35.0758C56.9303 34.8138 56.6855 34.6342 56.4234 34.6746C56.1613 34.7149 55.9808 34.9597 56.0231 35.2227C56.9168 40.9597 55.0112 46.8214 50.9264 50.9034C43.8061 58.0189 32.2208 58.0189 25.1005 50.9034C17.9802 43.7888 17.9802 32.2112 25.1005 25.0957C32.2208 17.9811 43.8061 17.9811 50.9264 25.0957C51.6733 25.8426 52.3597 26.672 53.025 27.631C53.1767 27.849 53.4752 27.9037 53.6941 27.752C53.9101 27.6032 53.9658 27.3027 53.8151 27.0838C53.1162 26.0768 52.3933 25.2042 51.6051 24.417C44.1104 16.928 31.9155 16.927 24.4199 24.417C16.9251 31.9069 16.9251 44.0931 24.4199 51.583C31.9146 59.072 44.1095 59.073 51.6051 51.583C55.9069 47.2851 57.9133 41.1142 56.9715 35.0758Z" fill="#472B29"/>
    <path d="M54.8663 31.0842C54.9671 31.3299 55.2484 31.447 55.4932 31.3462C55.7371 31.2464 55.8561 30.9661 55.7543 30.7203C55.4519 29.985 55.1697 29.3811 54.8654 28.8224C54.7387 28.5891 54.4468 28.5037 54.2135 28.6304C54.1723 28.6525 54.1348 28.6813 54.1031 28.713C53.9563 28.8598 53.9169 29.0902 54.0206 29.2822C54.3095 29.8093 54.5783 30.3824 54.8663 31.0842Z" fill="#472B29"/>
    <path d="M29.36 36.44C28.9434 36.44 28.5517 36.6022 28.257 36.897C27.9623 37.1917 27.8 37.5834 27.8 38C27.8 38.4166 27.9623 38.8083 28.257 39.103L34.977 45.823C35.2717 46.1178 35.6634 46.28 36.08 46.28V46.64L36.1098 46.28C36.537 46.2714 36.944 46.087 37.2301 45.775L47.7901 34.255C48.0714 33.9478 48.2164 33.5494 48.1991 33.1328C48.1808 32.7162 48.0013 32.3331 47.6951 32.0509C47.3869 31.7696 46.9962 31.6189 46.5728 31.6419C46.1572 31.6602 45.7732 31.8387 45.4919 32.1459L36.032 42.465L30.464 36.897C30.1684 36.6022 29.7767 36.44 29.36 36.44Z" fill="#88AE45"/>
    <path d="M46.6399 32C46.9404 32 47.2284 32.1123 47.4511 32.3158C47.6873 32.5328 47.8246 32.8275 47.839 33.1482C47.8524 33.4688 47.7411 33.775 47.5241 34.0112L36.9641 45.5312C36.7443 45.7712 36.4313 45.9133 36.0799 45.92C35.7593 45.92 35.4579 45.7952 35.2313 45.5686L28.5113 38.8486C28.2847 38.6221 28.1599 38.3206 28.1599 38C28.1599 37.6794 28.2847 37.3779 28.5123 37.1514C28.7379 36.9248 29.0393 36.8 29.3599 36.8C29.6806 36.8 29.982 36.9248 30.2086 37.1514L35.5107 42.4534L36.0425 42.9853L36.5503 42.4314L45.7558 32.3888C45.9852 32.1382 46.2991 32 46.6399 32ZM46.6399 31.28C46.1206 31.28 45.6031 31.4893 45.2249 31.903L36.0195 41.9446L30.7174 36.6426C30.343 36.2672 29.8515 36.08 29.3599 36.08C28.8684 36.08 28.3769 36.2672 28.0025 36.6426C27.2527 37.3923 27.2527 38.6077 28.0025 39.3574L34.7225 46.0774C35.0825 46.4384 35.5711 46.64 36.0799 46.64C36.0943 46.64 36.1078 46.64 36.1212 46.64C36.6444 46.6285 37.1407 46.4038 37.495 46.0179L48.055 34.4979C48.7721 33.7165 48.7183 32.5011 47.9369 31.785C47.5683 31.447 47.1036 31.28 46.6399 31.28Z" fill="#472B29"/>
</svg>
